<svg xmlns="http://www.w3.org/2000/svg" width="31.61" height="31.61" viewBox="0 0 31.61 31.61"><defs><style>.a{fill:#01d35a;}</style></defs><path class="a" d="M237.3,107.985a1.317,1.317,0,1,1-1.317-1.317A1.317,1.317,0,0,1,237.3,107.985Z" transform="translate(-220.18 -100.083)"/><path class="a" d="M205.961,205.171a.988.988,0,0,1-.988-.988V193.976h-1.317a.988.988,0,1,1,0-1.976h2.3a.988.988,0,0,1,.988.988v11.2A.988.988,0,0,1,205.961,205.171Z" transform="translate(-190.156 -180.146)"/><path class="a" d="M15.8,31.61a15.8,15.8,0,1,1,15.8-15.8A15.822,15.822,0,0,1,15.8,31.61Zm0-29.634A13.829,13.829,0,1,0,29.634,15.8,13.845,13.845,0,0,0,15.8,1.976Z"/><path class="a" d="M198.915,375.308h-5.927a.988.988,0,0,1,0-1.976h5.927a.988.988,0,1,1,0,1.976Z" transform="translate(-180.146 -350.283)"/></svg>