<svg xmlns="http://www.w3.org/2000/svg" xmlns:xlink="http://www.w3.org/1999/xlink" width="86.855" height="77.921" viewBox="0 0 86.855 77.921"><defs><style>.a{fill:#ffb685;}.b{fill:none;}.c{fill:#dcfff8;}.d{fill:#abd2ed;}.e{fill:#d0e0f0;}.f{fill:#f9a369;}.g{clip-path:url(#a);}.h{fill:#7f4d4e;}.i{fill:#4c73dc;}.j{fill:#09089f;}.k{clip-path:url(#b);}.l{fill:#ea6a47;}.m{fill:#ff5c98;}.n{fill:#7ee5d4;}.o{fill:#0f2337;}.p{clip-path:url(#c);}.q{fill:#f8d188;}.r{fill:#ff8860;}.s{fill:#8cb3de;}</style><clipPath id="a"><path class="a" d="M365.894,367.454c.008,1.562-1.258,1.7-2.82,1.712a2.83,2.83,0,1,1-.03-5.659C364.606,363.5,365.886,365.891,365.894,367.454Z" transform="translate(-360.228 -363.507)"/></clipPath><clipPath id="b"><path class="b" d="M363.913,388.205l8.225-.686L369.754,374.1c-.2-.925-1.728-2.359-2.634-2.086l-6.059,1.772a1.615,1.615,0,0,0-1.036,2.141Z" transform="translate(-359.912 -371.984)"/></clipPath><clipPath id="c"><path class="a" d="M442.418,367.051c.45,1.521,1.722,1.288,3.243.838a2.872,2.872,0,0,0-1.628-5.509C442.512,362.83,441.969,365.53,442.418,367.051Z" transform="translate(-442.265 -362.262)"/></clipPath></defs><g transform="translate(0)"><g transform="translate(0)"><g transform="translate(9.228)"><path class="c" d="M429.056,346.181a38.813,38.813,0,1,1-38.813-38.813A38.813,38.813,0,0,1,429.056,346.181Z" transform="translate(-351.429 -307.368)"/></g><g transform="translate(22.107 43.869)"><path class="d" d="M371.718,371.983c1.894.8,5.569,5.056,5.569,5.056L384.4,379.7l-.223,1.789-8.986-1.37s-4.1-3.5-4.621-5.291S370.619,371.52,371.718,371.983Z" transform="translate(-370.374 -371.899)"/></g><g transform="translate(14.995 43.927)"><path class="e" d="M363.4,388.376l8.739-.857L369.754,374.1c-.2-.925-1.728-2.359-2.634-2.086l-6.059,1.772a1.615,1.615,0,0,0-1.036,2.141Z" transform="translate(-359.912 -371.984)"/></g><g transform="translate(17.39 42.693)"><path class="f" d="M364.655,373.15l1.056-.318a.662.662,0,0,0,.392-.848l-.392-1.3a.663.663,0,0,0-.8-.49l-1.056.318a.662.662,0,0,0-.392.848l.392,1.3A.663.663,0,0,0,364.655,373.15Z" transform="translate(-363.435 -370.169)"/></g><g transform="translate(15.21 38.164)"><path class="a" d="M365.894,367.454c.008,1.562-1.258,1.7-2.82,1.712a2.83,2.83,0,1,1-.03-5.659C364.606,363.5,365.886,365.891,365.894,367.454Z" transform="translate(-360.228 -363.507)"/><g class="g"><g transform="translate(-0.766 -0.507)"><path class="h" d="M361.624,365.047s.289.956.157,1a.969.969,0,0,0-.91.562c-.224.571.311.914.77.884s.5,1.181-.583,1.291-2.171-2.189-1.921-3.272a4.736,4.736,0,0,1,2.238-2.725c.614-.113,6.9.247,6.9.247Z" transform="translate(-359.101 -362.762)"/></g></g></g><g transform="translate(18.27 41.579)"><path class="h" d="M364.788,370.3a1.373,1.373,0,1,0,.919-1.71A1.373,1.373,0,0,0,364.788,370.3Zm.47-.141a.883.883,0,1,1,1.1.59A.882.882,0,0,1,365.257,370.157Z" transform="translate(-364.729 -368.53)"/></g><g transform="translate(18.271 42.374)"><path class="h" d="M367.336,369.7l-2.605.785s.438,3.806,2.517,3.056C369.214,372.831,367.336,369.7,367.336,369.7Z" transform="translate(-364.731 -369.699)"/></g><g transform="translate(15.252 59.462)"><path class="i" d="M372.259,394.836l.15,17.155h-1.661s-1.258-9.345-1.731-14.51h-1.151l.076,7.351-6.749,5.908-.9-1.516,4.483-5.808s-1.278-6.428-1.254-7.723C363.476,395.483,372.259,394.836,372.259,394.836Z" transform="translate(-360.29 -394.836)"/></g><g transform="translate(25.706 76.593)"><path class="j" d="M377.355,420.036h-1.688v1.294h3.424c.226,0,.3-.507.106-.617Z" transform="translate(-375.667 -420.036)"/></g><g transform="translate(14.174 73.85)"><path class="j" d="M360.717,417.406,359.782,416l-1.078.717,1.9,2.852c.126.188.591-.029.573-.254Z" transform="translate(-358.704 -416)"/></g><g transform="translate(14.995 43.927)"><g class="k"><g transform="translate(9.771 4.183)"><g transform="translate(0 0)"><rect class="l" width="0.149" height="4.749" transform="translate(0 0.048) rotate(-19.002)"/></g></g></g></g><g transform="translate(30.477 21.403)"><path class="m" d="M387.827,381.88l-5.141-4.97,36.667-38.059,5.195,4.823Z" transform="translate(-382.686 -338.852)"/></g><g transform="translate(22.032 43.86)"><path class="m" d="M370.263,379.226l2.928-7.34L386.7,385.558l-4.566,5.186Z" transform="translate(-370.263 -371.886)"/></g><g transform="translate(57.938 5.175)"><path class="m" d="M423.08,323.138l28.728-8.157-5.493,29.73Z" transform="translate(-423.08 -314.981)"/></g><g transform="translate(62.118 35.198)"><path class="f" d="M429.459,361.043c-.24-.362-.347-1.341-.048-1.518s1.1-.719,1.362-.075l.341,1.3-1.346.757Z" transform="translate(-429.229 -359.144)"/></g><g transform="translate(69.164 57.775)"><path class="n" d="M448.42,392.354h-8.826l.235,18.857h1.686s1.276-9.486,1.757-14.729h1.169l.351,14.729h1.686s1.989-14.789,1.936-17.64A10.919,10.919,0,0,0,448.42,392.354Z" transform="translate(-439.594 -392.354)"/></g><g transform="translate(68.055 44.274)"><path class="j" d="M447.9,386h-8.826l-1.1-11.723a1.813,1.813,0,0,1,2-1.777H447a1.813,1.813,0,0,1,2,1.777Z" transform="translate(-437.963 -372.495)"/></g><g transform="translate(62.639 36.729)"><path class="j" d="M433.263,367.078l-1.838-5.659c0-.152-1.614.453-1.413.806.327.573-.015,5.557,1.751,7.423.985,1.041,4.984,4.547,5.141,4.284a8.77,8.77,0,0,0,.339-2.965.635.635,0,0,0-.572-.654l1.26-.708C437.643,369.577,433.263,367.078,433.263,367.078Z" transform="translate(-429.995 -361.396)"/></g><g transform="translate(80.658 33.104)"><path class="f" d="M458.21,357.669c.129-.415-.045-1.385-.381-1.47s-1.255-.381-1.328.311l.039,1.341,1.5.347Z" transform="translate(-456.501 -356.063)"/></g><g transform="translate(77.052 34.805)"><path class="j" d="M454.319,364.385l.446-5.761c-.043-.145,1.676-.02,1.582.376-.152.641,1.581,5.328.413,7.615-.651,1.277-4.36,6.02-4.585,5.812-.36-.331-.489-1.495-.943-2.871a6.448,6.448,0,0,1,.054-1.512C451.555,367.935,454.319,364.385,454.319,364.385Z" transform="translate(-451.196 -358.565)"/></g><g transform="translate(67.392 76.607)"><path class="o" d="M438.971,420.056h1.714v1.314h-3.476c-.229,0-.309-.515-.107-.626Z" transform="translate(-436.987 -420.056)"/></g><g transform="translate(72.428 76.607)"><path class="o" d="M446.38,420.056h1.714v1.314h-3.476c-.229,0-.309-.515-.108-.626Z" transform="translate(-444.395 -420.056)"/></g><g transform="translate(68.055 44.274)"><path class="j" d="M447.9,386h-8.826l-1.1-11.723a1.813,1.813,0,0,1,2-1.777H447a1.813,1.813,0,0,1,2,1.777Z" transform="translate(-437.963 -372.495)"/></g><g transform="translate(72.106 42.108)"><path class="f" d="M445.35,372.716c1.564,0,1.555-1.063,1.555-1.318v-1.729c0-.392-.585-.359-.933-.359h-1.119c-.348,0-.932.317-.932.709V371.4A1.331,1.331,0,0,0,445.35,372.716Z" transform="translate(-443.921 -369.309)"/></g><g transform="translate(70.98 37.318)"><path class="a" d="M442.418,367.051c.45,1.521,1.722,1.288,3.243.838a2.872,2.872,0,0,0-1.628-5.509C442.512,362.83,441.969,365.53,442.418,367.051Z" transform="translate(-442.265 -362.262)"/><g class="p"><g transform="translate(-1.884 -0.738)"><path class="q" d="M444.695,363.452s0,1.015.14,1.015a.985.985,0,0,1,1.05.28c.385.489-.035.979-.49,1.084s-.139,1.294.944,1.084,1.47-2.763.91-3.742a4.809,4.809,0,0,0-2.973-1.993,44.247,44.247,0,0,0-4.781,2.3Z" transform="translate(-439.494 -361.176)"/></g></g></g><g transform="translate(0 43.86)"><path class="m" d="M343.333,403.732l-5.478-4.953,24.96-26.893,4.99,5.088Z" transform="translate(-337.854 -371.886)"/></g><g transform="translate(15.67 45.956)"><path class="d" d="M361.65,374.986c1.209-.391,5.738,5.887,5.738,5.887l8.055.972-.224,1.789-9.843.593s-3.451-3.816-3.973-5.606S360.515,375.352,361.65,374.986Z" transform="translate(-360.905 -374.968)"/></g><g transform="translate(29.676 52.736)"><path class="r" d="M381.751,384.942l-.244,1.915s2.1-.336,2.322-.821a.525.525,0,0,0-.15-.708Z" transform="translate(-381.507 -384.942)"/></g><g transform="translate(35.909 51.622)"><path class="r" d="M390.856,383.3l-.18,1.831s2.1-.062,2.322-.547a.841.841,0,0,0-.214-.9Z" transform="translate(-390.676 -383.304)"/></g></g><g transform="translate(18.198 7.276)"><g transform="translate(0 17.115)"><rect class="s" width="6.134" height="5.342"/></g><g transform="translate(6.084 12.96)"><rect class="i" width="6.134" height="9.497"/></g><g transform="translate(12.168 8.573)"><rect class="n" width="6.134" height="13.883"/></g><g transform="translate(18.253 4.303)"><rect class="j" width="6.134" height="18.153"/></g><g transform="translate(24.337)"><rect class="m" width="6.134" height="22.456"/></g></g></g></svg>