<svg xmlns="http://www.w3.org/2000/svg" width="46" height="46" viewBox="0 0 46 46"><defs><style>.a{fill:#68e59d;}</style></defs><path class="a" d="M23,0A23,23,0,1,0,46,23,23.025,23.025,0,0,0,23,0Zm0,42.437A19.437,19.437,0,1,1,42.437,23,19.46,19.46,0,0,1,23,42.437Z"/><g transform="translate(12.311 12.15)"><path class="a" d="M156.619,144.146h-7.126V137.02a1.782,1.782,0,0,0-3.563,0v7.126H138.8a1.782,1.782,0,0,0,0,3.563h7.126v7.126a1.782,1.782,0,1,0,3.563,0v-7.126h7.126a1.782,1.782,0,1,0,0-3.563Z" transform="translate(-137.022 -135.238)"/></g></svg>