<svg xmlns="http://www.w3.org/2000/svg" width="76" height="77.197" viewBox="0 0 76 77.197"><defs><style>.a{fill:none;stroke:#e6e6e6;stroke-width:2px;}.b{fill:#01d35a;}.c{fill:gray;stroke:#818282;stroke-width:0.5px;}</style></defs><g transform="translate(-955 -161)"><g transform="translate(-89 -157)"><circle class="a" cx="37" cy="37" r="37" transform="translate(1045 319)"/><path class="b" d="M12.116,0A12.116,12.116,0,1,0,24.232,12.116,12.129,12.129,0,0,0,12.116,0Zm5.825,13.048H13.048v5.126a.932.932,0,1,1-1.864,0V13.048H6.291a.932.932,0,1,1,0-1.864h4.893V6.524a.932.932,0,1,1,1.864,0v4.66h4.893a.932.932,0,1,1,0,1.864Z" transform="translate(1093.969 370.966)"/></g><g transform="translate(978.264 184.666)"><path class="c" d="M19.366.191,19.294.179l-.073,0a.7.7,0,0,0-.157.017.345.345,0,0,0-.035,0L18.5.286,10,1.727.052.045V28.368l.582.111,9.281,1.757.057,0h.054l.028,0a.35.35,0,0,0,.055,0c1.1-.1,7.044-1.306,9.118-1.728l10.386,1.878V1.86ZM9.278,28.657c-1.853-.352-6.214-1.179-7.791-1.477V1.743L9.278,3.061ZM18.5,27.188c-2.625.535-6.24,1.251-7.791,1.515l-.023,0a.68.68,0,0,0,.023-.179V3.061L18.5,1.742Zm9.678,1.476-8.242-1.491V1.737l8.242,1.342Z" transform="translate(-0.052 -0.045)"/></g></g></svg>