<svg xmlns="http://www.w3.org/2000/svg" width="28" height="28" viewBox="0 0 28 28"><defs><style>.a{fill:#abaaaa;}</style></defs><path class="a" d="M25.266,2.406H22.659V1.641a1.641,1.641,0,0,0-3.281,0v.766H10.19V1.641a1.641,1.641,0,1,0-3.281,0v.786a.546.546,0,0,0-.146-.02H4.584A2.737,2.737,0,0,0,1.85,5.141v9.315a.547.547,0,1,0,1.094,0V8.039H22.659a.547.547,0,1,0,0-1.094H2.943v-1.8A1.642,1.642,0,0,1,4.584,3.5H6.763a.548.548,0,0,0,.146-.02v.7a1.641,1.641,0,0,0,3.281,0V3.5h9.188v.684a1.641,1.641,0,0,0,3.281,0V3.5h2.607a1.642,1.642,0,0,1,1.641,1.641V25.922a.985.985,0,0,1-1.969,0V24.507a.547.547,0,0,0-.547-.547H18.029a.547.547,0,1,0,0,1.094h5.814v.868a2.066,2.066,0,0,0,.249.985H2.078a.986.986,0,0,1-.984-.984v-.868h12.24a.547.547,0,0,0,0-1.094H7.87a4.484,4.484,0,1,0-5.844,0H.547A.547.547,0,0,0,0,24.507v1.415A2.08,2.08,0,0,0,2.078,28H25.922A2.081,2.081,0,0,0,28,25.922V5.141A2.737,2.737,0,0,0,25.266,2.406ZM9.1,4.184A.547.547,0,0,1,8,4.184V1.641a.547.547,0,0,1,1.094,0Zm12.469,0a.547.547,0,0,1-1.094,0V1.641a.547.547,0,0,1,1.094,0ZM1.557,20.563a3.391,3.391,0,1,1,3.391,3.391A3.394,3.394,0,0,1,1.557,20.563Z"/><g transform="translate(24.677 6.945)"><path class="a" d="M452.173,127.16a.546.546,0,1,0,.16.387A.551.551,0,0,0,452.173,127.16Z" transform="translate(-451.24 -127)"/></g><g transform="translate(15.399 23.96)"><path class="a" d="M282.513,438.29a.547.547,0,1,0,.16.387A.55.55,0,0,0,282.513,438.29Z" transform="translate(-281.58 -438.13)"/></g><g transform="translate(10.295 16.625)"><path class="a" d="M190.323,304a2.078,2.078,0,1,0,2.078,2.078A2.08,2.08,0,0,0,190.323,304Zm0,3.063a.984.984,0,1,1,.984-.984A.986.986,0,0,1,190.323,307.063Z" transform="translate(-188.245 -304)"/></g><g transform="translate(15.399 16.625)"><path class="a" d="M283.656,304a2.078,2.078,0,1,0,2.078,2.078A2.08,2.08,0,0,0,283.656,304Zm0,3.063a.984.984,0,1,1,.984-.984A.985.985,0,0,1,283.656,307.063Z" transform="translate(-281.578 -304)"/></g><g transform="translate(20.503 16.625)"><path class="a" d="M376.99,304a2.078,2.078,0,1,0,2.078,2.078A2.08,2.08,0,0,0,376.99,304Zm0,3.063a.984.984,0,1,1,.984-.984A.985.985,0,0,1,376.99,307.063Z" transform="translate(-374.912 -304)"/></g><g transform="translate(5.191 10.938)"><path class="a" d="M96.99,200a2.078,2.078,0,1,0,2.078,2.078A2.081,2.081,0,0,0,96.99,200Zm0,3.063a.984.984,0,1,1,.984-.984A.986.986,0,0,1,96.99,203.063Z" transform="translate(-94.912 -200)"/></g><g transform="translate(15.399 10.938)"><path class="a" d="M283.656,200a2.078,2.078,0,1,0,2.078,2.078A2.081,2.081,0,0,0,283.656,200Zm0,3.063a.984.984,0,1,1,.984-.984A.986.986,0,0,1,283.656,203.063Z" transform="translate(-281.578 -200)"/></g><g transform="translate(20.503 10.938)"><path class="a" d="M376.99,200a2.078,2.078,0,1,0,2.078,2.078A2.081,2.081,0,0,0,376.99,200Zm0,3.063a.984.984,0,1,1,.984-.984A.986.986,0,0,1,376.99,203.063Z" transform="translate(-374.912 -200)"/></g><g transform="translate(10.295 10.938)"><path class="a" d="M190.323,200a2.078,2.078,0,1,0,2.078,2.078A2.081,2.081,0,0,0,190.323,200Zm0,3.063a.984.984,0,1,1,.984-.984A.986.986,0,0,1,190.323,203.063Z" transform="translate(-188.245 -200)"/></g><g transform="translate(2.8 19.07)"><path class="a" d="M55.291,348.86a.547.547,0,0,0-.773,0l-1.781,1.781-.609-.609a.547.547,0,0,0-.773.773l1,1a.547.547,0,0,0,.773,0l2.168-2.168A.547.547,0,0,0,55.291,348.86Z" transform="translate(-51.194 -348.7)"/></g></svg>