<svg xmlns="http://www.w3.org/2000/svg" width="26.013" height="26.745" viewBox="0 0 26.013 26.745"><defs><style>.a{fill:#bbb;stroke:#bbb;stroke-width:0.3px;}</style></defs><g transform="translate(0.15 0.178)"><path class="a" d="M16.851.172l-.062-.01-.063,0a.606.606,0,0,0-.136.015.3.3,0,0,0-.03,0L16.1.255,8.7,1.508.052.045V24.68l.506.1L8.632,26.3l.05,0h.047l.025,0a.3.3,0,0,0,.048,0c.96-.088,6.127-1.136,7.931-1.5l9.034,1.633V1.624ZM8.077,24.932c-1.612-.306-5.4-1.026-6.777-1.285V1.522L8.077,2.668ZM16.1,23.654c-2.283.465-5.427,1.088-6.777,1.318l-.02,0a.592.592,0,0,0,.02-.156V2.669L16.1,1.521Zm8.418,1.284-7.169-1.3V1.517l7.169,1.168Z" transform="translate(-0.052 -0.045)"/></g></svg>