<svg xmlns="http://www.w3.org/2000/svg" xmlns:xlink="http://www.w3.org/1999/xlink" width="145" height="145" viewBox="0 0 145 145"><defs><style>.a{fill:#fff;}.b{fill:#01d35a;}.c{fill:gray;stroke:#818282;stroke-width:1.5px;}.d{filter:url(#a);}</style><filter id="a" x="0" y="0" width="145" height="145" filterUnits="userSpaceOnUse"><feOffset dy="3" input="SourceAlpha"/><feGaussianBlur stdDeviation="9" result="b"/><feFlood flood-opacity="0.039"/><feComposite operator="in" in2="b"/><feComposite in="SourceGraphic"/></filter></defs><g transform="translate(-953 -605)"><g transform="translate(350 -240.467)"><g transform="translate(630 869)"><g transform="translate(0 0)"><g transform="translate(0 0)"><g transform="translate(0)"><g class="d" transform="matrix(1, 0, 0, 1, -27, -23.53)"><circle class="a" cx="45.5" cy="45.5" r="45.5" transform="translate(27 24)"/></g></g></g></g></g><path class="b" d="M14.953,0A14.953,14.953,0,1,0,29.906,14.953,14.97,14.97,0,0,0,14.953,0Zm7.189,16.1H16.1v6.326a1.15,1.15,0,1,1-2.3,0V16.1H7.764a1.15,1.15,0,1,1,0-2.3H13.8V8.052a1.15,1.15,0,1,1,2.3,0V13.8h6.039a1.15,1.15,0,1,1,0,2.3Z" transform="translate(690.317 933.556)"/></g><g transform="translate(1006.949 653)"><path class="c" d="M25.072.234,24.979.219c-.03,0-.063,0-.094,0a.9.9,0,0,0-.2.022.447.447,0,0,0-.045.005l-.682.115L12.933,2.224.052.045V36.735l.754.143s12,2.272,12.024,2.276.05,0,.074,0a.085.085,0,0,0,.02,0h.037a.037.037,0,0,0,.013,0l.037,0a.453.453,0,0,0,.071-.005c1.43-.13,9.125-1.691,11.811-2.239l13.455,2.432V2.4ZM12,37.11C9.6,36.655,3.954,35.583,1.911,35.2V2.245L12,3.952Zm11.951-1.9c-3.4.693-8.083,1.62-10.093,1.963l-.03.006a.881.881,0,0,0,.03-.232V3.953L23.955,2.243ZM36.492,37.12,25.814,35.189V2.237L36.492,3.976Z" transform="translate(-0.052 -0.045)"/></g></g></svg>