<svg xmlns="http://www.w3.org/2000/svg" width="29.133" height="29.133" viewBox="0 0 29.133 29.133"><defs><style>.a{fill:#a8a8a8;}</style></defs><g transform="translate(-2 -2)"><path class="a" d="M30.647,14.139a.486.486,0,0,0,.486-.486V11.711a.486.486,0,0,0-.486-.486H25.306V7.341h.486a.486.486,0,0,0,.486-.486V4.913a.486.486,0,0,0-.486-.486H20.164a3.88,3.88,0,0,0-7.2,0H7.341a.486.486,0,0,0-.486.486V6.856a.486.486,0,0,0,.486.486h.486v3.884H2.485A.486.486,0,0,0,2,11.711v1.942a.486.486,0,0,0,.486.486h.486V29.594l-.8.685a.486.486,0,0,0,.316.855H30.647a.486.486,0,0,0,.316-.855l-.8-.685V14.139ZM20.417,5.4h4.889V6.37H20.417a4.01,4.01,0,0,0,.034-.486A4.009,4.009,0,0,0,20.417,5.4Zm4.889,8.74H29.19v14.62l-.534-.456a4.37,4.37,0,0,0-2.845-1.054h-.5ZM16.566,2.971a2.913,2.913,0,1,1-2.913,2.913A2.913,2.913,0,0,1,16.566,2.971Zm0,6.8a3.884,3.884,0,0,0,3.6-2.428h4.171V27.248H22.393V18.994a.486.486,0,0,0-.486-.486H11.225a.486.486,0,0,0-.486.486v8.254H8.8V7.341h4.171A3.884,3.884,0,0,0,16.566,9.769Zm4.855,9.711v7.769h-4.37V19.48Zm-5.341,0v7.769h-4.37V19.48ZM7.826,5.4h4.889a4.01,4.01,0,0,0-.034.486,4.01,4.01,0,0,0,.034.486H7.826ZM2.971,12.2H7.826v.971H2.971Zm4.855,1.942v13.11h-.5A4.37,4.37,0,0,0,4.477,28.3l-.534.457V14.139ZM3.8,30.162,5.107,29.04a3.4,3.4,0,0,1,2.214-.821h18.49a3.4,3.4,0,0,1,2.214.821l1.311,1.122Zm21.51-16.994V12.2h4.855v.971Z"/><path class="a" d="M8,31H9.942v.971H8Z" transform="translate(-3.087 -14.919)"/><path class="a" d="M8,37H9.942v.971H8Z" transform="translate(-3.087 -18.006)"/><path class="a" d="M8,43H9.942v.971H8Z" transform="translate(-3.087 -21.093)"/><path class="a" d="M8,48H9.942v.971H8Z" transform="translate(-3.087 -23.665)"/><path class="a" d="M52,31h1.942v.971H52Z" transform="translate(-25.723 -14.919)"/><path class="a" d="M52,37h1.942v.971H52Z" transform="translate(-25.723 -18.006)"/><path class="a" d="M52,43h1.942v.971H52Z" transform="translate(-25.723 -21.093)"/><path class="a" d="M52,48h1.942v.971H52Z" transform="translate(-25.723 -23.665)"/><path class="a" d="M35,45h.971v.971H35Z" transform="translate(-16.977 -22.121)"/><path class="a" d="M27,45h.971v.971H27Z" transform="translate(-12.861 -22.121)"/><path class="a" d="M31.884,7.457v.971H30.428V9.884h-.971V8.428H28V7.457h1.457V6h.971V7.457Z" transform="translate(-13.376 -2.058)"/><path class="a" d="M31.139,20H19.486a.486.486,0,0,0-.486.486v1.942a.486.486,0,0,0,.486.486H31.139a.486.486,0,0,0,.486-.486V20.486A.486.486,0,0,0,31.139,20Zm-.486,1.942H19.971v-.971H30.653Z" transform="translate(-8.746 -9.26)"/><path class="a" d="M31.139,28H19.486a.486.486,0,0,0-.486.486v1.942a.486.486,0,0,0,.486.486H31.139a.486.486,0,0,0,.486-.486V28.486A.486.486,0,0,0,31.139,28Zm-.486,1.942H19.971v-.971H30.653Z" transform="translate(-8.746 -13.376)"/></g></svg>