<svg xmlns="http://www.w3.org/2000/svg" width="30.058" height="30.049" viewBox="0 0 30.058 30.049"><defs><style>.a{fill:#01d35a;}</style></defs><g transform="translate(0 -0.068)"><g transform="translate(0 0.068)"><g transform="translate(0 0)"><path class="a" d="M25.656,4.464a15.028,15.028,0,1,0,0,21.253A14.95,14.95,0,0,0,25.656,4.464ZM5.354,24.812a12.837,12.837,0,0,1,18.11-1.234A12.163,12.163,0,0,1,24.7,24.812,13.7,13.7,0,0,1,5.354,24.812Zm20.236-.978A14.147,14.147,0,0,0,5.617,22.686a13.545,13.545,0,0,0-1.148,1.148A13.64,13.64,0,0,1,1.332,15.75H3.563a.656.656,0,1,0,0-1.312H1.332a13.669,13.669,0,0,1,3.55-8.563L6.443,7.436a.654.654,0,1,0,.925-.925L5.807,4.95A13.633,13.633,0,0,1,14.37,1.4V3.631a.656.656,0,1,0,1.312,0V1.4a13.669,13.669,0,0,1,8.563,3.55L22.683,6.511a.654.654,0,1,0,.919.932l.007-.007L25.17,5.875a13.633,13.633,0,0,1,3.55,8.563H26.489A.656.656,0,1,0,26.5,15.75h2.231A13.64,13.64,0,0,1,25.59,23.834Z" transform="translate(0 -0.068)"/></g></g><g transform="translate(12.764 6.295)"><path class="a" d="M198.947,104.293a2.246,2.246,0,0,0-1.509-1.509V95.625a.656.656,0,0,0-1.312,0v7.159a2.263,2.263,0,1,0,2.821,1.509Zm-2.165,1.6a.948.948,0,1,1,.951-.945A.952.952,0,0,1,196.782,105.894Z" transform="translate(-194.519 -94.969)"/></g></g></svg>