<svg xmlns="http://www.w3.org/2000/svg" width="31.61" height="31.61" viewBox="0 0 31.61 31.61"><defs><style>.a{fill:#01d35a;}</style></defs><path class="a" d="M15.8,31.61A15.8,15.8,0,0,1,4.629,4.629,15.8,15.8,0,0,1,26.981,26.981,15.7,15.7,0,0,1,15.8,31.61Zm0-29.634A13.829,13.829,0,1,0,29.634,15.8,13.845,13.845,0,0,0,15.8,1.976Z" transform="translate(0 0)"/><path class="a" d="M180.939,112.793a.988.988,0,0,1-.988-.988,9.273,9.273,0,0,1,2.734-6.6,5.8,5.8,0,0,0,1.711-4.131,3.1,3.1,0,0,0-3.1-3.1h-.225a3.1,3.1,0,0,0-3.1,3.1v.359a.988.988,0,1,1-1.976,0v-.359A5.079,5.079,0,0,1,181.073,96h.225a5.079,5.079,0,0,1,5.073,5.073,7.767,7.767,0,0,1-2.29,5.528,7.31,7.31,0,0,0-2.155,5.2A.988.988,0,0,1,180.939,112.793Z" transform="translate(-165.134 -90.073)"/><path class="a" d="M241,401.976A.988.988,0,1,1,241,400h0a.988.988,0,1,1,0,1.976Z" transform="translate(-225.197 -375.305)"/></svg>