<svg xmlns="http://www.w3.org/2000/svg" xmlns:xlink="http://www.w3.org/1999/xlink" width="70.173" height="73.194" viewBox="0 0 70.173 73.194"><defs><style>.a,.g{fill:#dedede;}.a{mix-blend-mode:multiply;isolation:isolate;}.b{fill:url(#a);}.c{fill:#eda8b0;}.d{fill:#e66b38;}.e,.j{fill:#ff814a;}.e{opacity:0.7;}.f{fill:#fff;}.g{opacity:0.6;}.h{fill:#f3723a;}.i{fill:#f56c71;}</style><linearGradient id="a" x1="0.053" y1="-0.064" x2="0.943" y2="0.909" gradientUnits="objectBoundingBox"><stop offset="0" stop-color="#9ef"/><stop offset="0.298" stop-color="#90ecff"/><stop offset="0.781" stop-color="#78e8ff"/><stop offset="1" stop-color="#6be6ff"/></linearGradient></defs><path class="a" d="M141.649,87H87.8A7.682,7.682,0,0,0,80,94.568v39.49a7.736,7.736,0,0,0,7.8,7.633h34.36l13.941,9.844v-9.844h5.551a7.669,7.669,0,0,0,7.72-7.633V94.568A7.614,7.614,0,0,0,141.649,87Z" transform="translate(-79.196 -78.341)"/><path class="b" d="M137.568,81H83.716A7.781,7.781,0,0,0,76,88.767v39.49a7.668,7.668,0,0,0,7.716,7.635h34.36l14.022,9.841v-9.841h5.47a7.741,7.741,0,0,0,7.8-7.635V88.767A7.854,7.854,0,0,0,137.568,81Z" transform="translate(-76 -73.547)"/><g transform="translate(15.94 14.029)"><rect class="c" width="37.404" height="24.147" transform="translate(0.002 16.432)"/><path class="a" d="M198.756,136.581h0l-16.975-15.4a3.339,3.339,0,0,0-4.913.078l-15.509,15.318h0l.129,23.948h0v.007l-.125-.027h37.386l.008.046Z" transform="translate(-160.133 -118.828)"/><rect class="d" width="37.404" height="24.329" transform="translate(0.002 16.346)"/><path class="d" d="M175.722,114.818a3.319,3.319,0,0,0-4.913.018L155.3,130.052h37.4Z" transform="translate(-155.294 -113.706)"/><path class="e" d="M184.384,124.306a2.921,2.921,0,0,0-4.327.009L166.4,137.748l32.941.006Z" transform="translate(-164.161 -121.388)"/><rect class="a" width="30.839" height="26.235" transform="translate(3.317 6.338)"/><rect class="f" width="30.839" height="26.235" transform="translate(2.697 5.541)"/><rect class="g" width="25.843" height="1.138" transform="translate(5.195 9.792)"/><rect class="g" width="25.843" height="1.138" transform="translate(5.195 13.245)"/><rect class="g" width="25.843" height="1.138" transform="translate(5.195 16.699)"/><rect class="g" width="25.843" height="1.138" transform="translate(5.195 20.152)"/><rect class="g" width="25.843" height="1.138" transform="translate(5.195 23.606)"/><path class="h" d="M247.8,202.361a4.28,4.28,0,0,0-1.092.586,15.364,15.364,0,0,0-1.336,3.058l1.727,1.638,17.561,11.931,0-24.146Z" transform="translate(-227.26 -178.996)"/><g transform="translate(0 16.432)"><path class="i" d="M243.8,248.99h0S243.8,248.994,243.8,248.99Z" transform="translate(-226.001 -238.22)"/><path class="h" d="M171.708,203.161a4.209,4.209,0,0,0-1.1-.571l-15.328-7.162,0,24.146,16.092-11.714,1.708-1.663A16.8,16.8,0,0,0,171.708,203.161Z" transform="translate(-155.276 -195.428)"/></g><path class="j" d="M180.273,237.541a1.617,1.617,0,0,0-1.33-.848l-5.662-.03h-.046l-5.651.041a1.389,1.389,0,0,0-1.215.98l-11.092,14.833,18.119-.066,19.286.066Z" transform="translate(-155.276 -211.94)"/></g><g transform="translate(43.791 0)"><circle class="a" cx="8.68" cy="8.68" r="8.68" transform="translate(0 15.963) rotate(-66.861)"/><circle class="h" cx="8.68" cy="8.68" r="8.68" transform="translate(0.325 16.938) rotate(-76.963)"/><g transform="translate(7.878 3.996)"><path class="f" d="M337.318,64.828V75.765a1.033,1.033,0,0,1-1.038,1.02,1,1,0,0,1-1.02-1.02V66.644l-.742.426a.927.927,0,0,1-.519.148,1.039,1.039,0,0,1-.538-1.91l2.28-1.353c.018-.018.056-.018.074-.037.037,0,.055-.037.092-.055.037,0,.074-.019.111-.019a.112.112,0,0,1,.074-.019.317.317,0,0,1,.13-.018h.2a.112.112,0,0,0,.074.018.2.2,0,0,1,.111.037.111.111,0,0,1,.074.019c.056.037.074.055.111.055a.257.257,0,0,0,.074.056c.019.018.056.037.074.056.037.018.056.055.074.074a.258.258,0,0,1,.056.074l.074.074.018.037c0,.019.019.037.019.056.019.037.037.056.037.093.018.037.018.074.037.093a.8.8,0,0,0,.019.093.156.156,0,0,0,.037.13Z" transform="translate(-332.967 -63.808)"/></g></g></svg>