<svg xmlns="http://www.w3.org/2000/svg" width="34" height="45.333" viewBox="0 0 34 45.333"><defs><style>.a{fill:#0a298d;}</style></defs><g transform="translate(-64)"><g transform="translate(64)"><path class="a" d="M81,0A17.019,17.019,0,0,0,64,17c0,12.542,15.685,27.448,16.353,28.077a.946.946,0,0,0,1.295,0C82.315,44.448,98,29.542,98,17A17.019,17.019,0,0,0,81,0Zm0,43.067C78.032,40.1,65.889,27.345,65.889,17a15.111,15.111,0,1,1,30.222,0C96.111,27.345,83.968,40.1,81,43.067Z" transform="translate(-64)"/><path class="a" d="M158.777,85.333a9.444,9.444,0,1,0,9.444,9.444A9.456,9.456,0,0,0,158.777,85.333Zm0,17a7.556,7.556,0,1,1,7.556-7.556A7.564,7.564,0,0,1,158.777,102.333Z" transform="translate(-141.777 -77.777)"/></g></g></svg>