<svg xmlns="http://www.w3.org/2000/svg" width="32.001" height="32" viewBox="0 0 32.001 32"><defs><style>.a{fill:#abaaaa;}</style></defs><g transform="translate(0 -0.008)"><path class="a" d="M291,210.008H278.332a1,1,0,1,1,0-2H291a1,1,0,1,1,0,2Zm0,0" transform="translate(-259.999 -195)"/><path class="a" d="M401,139.972a1,1,0,0,1-.707-1.708l4.293-4.293-4.293-4.293a1,1,0,1,1,1.415-1.415l5,5a1,1,0,0,1,0,1.415l-5,5A.993.993,0,0,1,401,139.972Zm0,0" transform="translate(-375.004 -119.964)"/><path class="a" d="M10.666,32.008a2.748,2.748,0,0,1-.827-.124L1.816,29.211A2.691,2.691,0,0,1,0,26.675v-24A2.669,2.669,0,0,1,2.666.008a2.75,2.75,0,0,1,.827.124l8.024,2.673a2.691,2.691,0,0,1,1.816,2.536v24a2.669,2.669,0,0,1-2.667,2.667Zm-8-30A.669.669,0,0,0,2,2.675v24a.693.693,0,0,0,.463.643l7.987,2.661a.724.724,0,0,0,.218.029.669.669,0,0,0,.667-.667v-24A.693.693,0,0,0,10.87,4.7L2.884,2.037a.724.724,0,0,0-.217-.029Zm0,0" transform="translate(0 0)"/><path class="a" d="M45.334,10.675a1,1,0,0,1-1-1v-6a1.669,1.669,0,0,0-1.667-1.667h-15a1,1,0,1,1,0-2h15a3.67,3.67,0,0,1,3.667,3.667v6A1,1,0,0,1,45.334,10.675Zm0,0" transform="translate(-25.001)"/><path class="a" d="M187.666,288.007h-5.333a1,1,0,0,1,0-2h5.333a1.669,1.669,0,0,0,1.667-1.667v-6a1,1,0,0,1,2,0v6A3.67,3.67,0,0,1,187.666,288.007Zm0,0" transform="translate(-169.999 -259.999)"/></g></svg>