<svg xmlns="http://www.w3.org/2000/svg" width="488.334" height="122" viewBox="0 0 488.334 122"><defs><style>.a,.b{fill:#01d35a;}.b{font-size:95px;font-family:Roboto-Regular, Roboto;}</style></defs><g transform="translate(-57.666 -27)"><g transform="translate(57.666 27)"><g transform="translate(42.055 41.617)"><ellipse class="a" cx="13.017" cy="12.985" rx="13.017" ry="12.985"/></g><path class="a" d="M115.973,177.535a58.515,58.515,0,0,0,28.747,6.9c10.024-.374,19.776-3.16,30.717-10.975,6.592-4.689,12.776-13.014,16.616-20.66,3.738-7.441,4.893-13.864,5.063-22.223.272-13.83-4.825-25.79-13.932-36.12A54.6,54.6,0,0,0,130.04,77.432,56.769,56.769,0,0,0,99.289,96.189c-6.8,8.155-10.228,18.281-11.689,28.781a106.1,106.1,0,0,0-.578,15.732c.034,6.49.068,12.98.068,19.47.034,17.533-.034,9.276-.034,26.81v11.077c22.053-2.514,20.422-22.053,20.422-22.053.136-25.179.136-16.31.034-41.557-.034-9.378,3.024-19.81,9.073-27.116,5.776-6.966,16.616-12.029,25.62-12.063,9-.068,18.859,3.908,25.043,10.5,6.014,6.422,10.364,16.208,10.194,25.009-.17,8.835-5.165,19.4-11.995,26.232a39.574,39.574,0,0,1-25.587,9.073C129.8,166.084,118.793,171.555,115.973,177.535Z" transform="translate(-86.982 -76.059)"/></g><text class="b" transform="translate(197 120)"><tspan x="0" y="0">PLUNES</tspan></text></g></svg>