<svg xmlns="http://www.w3.org/2000/svg" width="305.059" height="195.325" viewBox="0 0 305.059 195.325"><defs><style>.a{fill:#ebe6fa;}.b{fill:#d6cbfa;}.c{fill:#2d2065;}.d{fill:#45319c;}.e{fill:#5557e0;}.f{fill:#6567e0;}.g{fill:#4041a8;}.h{fill:#e9e5fd;}.i{fill:#facf5a;}.j,.u{fill:#fff;}.k{fill:#c1affa;}.l{fill:#fcbaac;}.m{fill:#433096;}.n{fill:#302166;}.o{fill:#4a339e;}.p{fill:#01203b;opacity:0.5;mix-blend-mode:soft-light;isolation:isolate;}.q{fill:#fd416a;}.r{fill:#fd567a;}.s{fill:#392880;}.t{fill:#fdc37e;}.u{opacity:0.1;}.v{fill:#4933a3;}.w{fill:none;stroke:#fd849e;stroke-linecap:round;stroke-miterlimit:10;stroke-width:0.5px;}.x{fill:#fca18d;}.y{fill:#0b2c55;}.z{fill:#d65b40;}.aa{fill:#3c2882;}.ab{fill:#462f97;}.ac{fill:#ff76b7;}.ad{fill:#5b66dc;}.ae{fill:#292e63;}.af{fill:#fccc47;}.ag{fill:#fcbe13;}.ah{fill:#d6a00b;}</style></defs><g transform="translate(-93.625 -60.76)"><path class="a" d="M277.762,224.473s-24.8,15.373-35.706-1.488-1.984-21.82-12.894-26.283-31.739-9.918-30.747-18.846,12.893-17.357,12.893-30.251-13.825-41.213-3.03-50.859,18.4.771,30.8-9.643,18.845-25.292,33.226-26.284,14.878,10.911,25.788,15.373,30.747-8.926,43.641.992,9.422,36.2,8.927,64.966,21.65,48.836,10.286,57.571S283.713,204.636,277.762,224.473Z" transform="translate(-48.401)"/><g transform="translate(93.625 237.548)"><ellipse class="b" cx="40.668" cy="7.499" rx="40.668" ry="7.499"/><ellipse class="b" cx="71.082" cy="8.151" rx="71.082" ry="8.151" transform="translate(123.013 2.236)"/></g><g transform="translate(227.129 84.124)"><path class="c" d="M433.433,113.594V257.71a9.4,9.4,0,0,1-9.4,9.4H351.188a9.4,9.4,0,0,1-9.4-9.4V113.594a9.4,9.4,0,0,1,9.4-9.4h72.841A9.406,9.406,0,0,1,433.433,113.594Z" transform="translate(-341.79 -104.19)"/><path class="d" d="M425.009,389.96H409.981a3.513,3.513,0,0,1-3.512-3.512h0a3.513,3.513,0,0,1,3.512-3.512h15.028a3.512,3.512,0,0,1,3.512,3.512h0A3.512,3.512,0,0,1,425.009,389.96Z" transform="translate(-371.674 -232.979)"/><path class="e" d="M432.629,124.373V252a4.565,4.565,0,0,1-4.562,4.562h-71.2A4.569,4.569,0,0,1,352.308,252V124.373a4.565,4.565,0,0,1,4.562-4.562h71.2A4.562,4.562,0,0,1,432.629,124.373Z" transform="translate(-346.65 -111.407)"/><path class="f" d="M424.071,120.032,352.308,238.869v-114.5a4.565,4.565,0,0,1,4.562-4.562h66.149Z" transform="translate(-346.65 -111.407)"/><g transform="translate(13.722 32.407)"><circle class="g" cx="22.697" cy="22.697" r="22.697" transform="translate(0 32.098) rotate(-45)"/><g transform="translate(17.873 22.486)"><path class="h" d="M423.218,219.2l2.4-8.169a1.344,1.344,0,0,0-1.292-1.723l-18.768.032-.45-3.112H401.07a.55.55,0,1,0,0,1.1h3.08l2.262,15.64h18.541a.55.55,0,1,0,0-1.1H407.366l-.246-1.7h14.808A1.345,1.345,0,0,0,423.218,219.2Z" transform="translate(-400.52 -206.228)"/><path class="h" d="M414.031,239.524a1.813,1.813,0,1,0,1.812,1.813A1.813,1.813,0,0,0,414.031,239.524Z" transform="translate(-405.925 -221.612)"/><path class="h" d="M440.447,239.524a1.813,1.813,0,1,0,1.813,1.813A1.813,1.813,0,0,0,440.447,239.524Z" transform="translate(-418.13 -221.612)"/></g><path class="h" d="M408.413,227.336a.275.275,0,0,1-.021-.55c.716-.036,1.441-.108,2.154-.214a.275.275,0,0,1,.081.544c-.731.109-1.473.182-2.208.219Zm-3.285-.066a.23.23,0,0,1-.033,0c-.734-.068-1.472-.172-2.2-.31a.275.275,0,0,1,.1-.541c.706.134,1.427.237,2.144.3a.275.275,0,0,1-.018.549Zm8.673-.867a.275.275,0,0,1-.087-.539c.69-.208,1.376-.451,2.041-.725a.279.279,0,0,1,.359.15.276.276,0,0,1-.15.359c-.681.28-1.384.53-2.091.742A.285.285,0,0,1,413.8,226.4Zm-14.021-.292a.292.292,0,0,1-.1-.015c-.7-.243-1.39-.523-2.058-.831a.275.275,0,0,1,.231-.5c.651.3,1.327.574,2.008.811a.275.275,0,0,1-.083.535ZM418.8,224.2a.275.275,0,0,1-.147-.512c.619-.367,1.226-.769,1.806-1.193a.275.275,0,0,1,.325.444c-.594.435-1.217.846-1.851,1.222A.277.277,0,0,1,418.8,224.2Zm-23.935-.5a.279.279,0,0,1-.158-.044c-.617-.4-1.222-.839-1.8-1.3a.275.275,0,1,1,.344-.43c.562.449,1.153.875,1.755,1.267a.275.275,0,0,1-.143.506Zm28.268-2.833a.275.275,0,0,1-.2-.472c.512-.5,1.008-1.037,1.471-1.589a.275.275,0,0,1,.421.355c-.475.565-.981,1.113-1.506,1.628A.276.276,0,0,1,423.138,220.869Zm-32.461-.681a.275.275,0,0,1-.208-.087c-.5-.538-.988-1.107-1.437-1.689a.275.275,0,0,1,.436-.336c.438.569.91,1.124,1.4,1.649a.275.275,0,0,1-.194.463Zm35.878-3.591a.275.275,0,0,1-.242-.42c.379-.612.732-1.25,1.049-1.895a.275.275,0,1,1,.493.243c-.325.66-.686,1.313-1.074,1.941A.273.273,0,0,1,426.555,216.6Zm-39.111-.817a.275.275,0,0,1-.247-.14c-.361-.642-.695-1.309-.993-1.984a.275.275,0,0,1,.5-.222c.29.658.617,1.31.969,1.937a.275.275,0,0,1-.232.41Zm41.406-4.148a.274.274,0,0,1-.269-.359c.221-.684.41-1.387.563-2.091a.275.275,0,1,1,.537.117c-.157.721-.35,1.442-.577,2.143A.274.274,0,0,1,428.85,211.631Zm-43.489-.908a.276.276,0,0,1-.273-.2c-.2-.707-.359-1.436-.485-2.165a.275.275,0,0,1,.542-.094c.124.711.283,1.422.474,2.113a.277.277,0,0,1-.258.349Zm44.523-4.462h-.027a.276.276,0,0,1-.256-.294c.05-.717.065-1.446.046-2.165l0-.093a.275.275,0,1,1,.55-.015l0,.088c.019.741,0,1.487-.047,2.222A.276.276,0,0,1,429.884,206.262Zm-45.332-.97a.256.256,0,0,1-.281-.245l0-.046c-.019-.722,0-1.453.044-2.171a.275.275,0,0,1,.549.037c-.047.7-.062,1.414-.043,2.119A.3.3,0,0,1,384.552,205.292Zm45.04-4.583a.274.274,0,0,1-.278-.227c-.125-.71-.286-1.42-.478-2.112a.275.275,0,0,1,.53-.147c.2.709.362,1.437.489,2.164a.275.275,0,0,1-.223.319A.254.254,0,0,1,429.592,200.708Zm-44.54-.839a.27.27,0,0,1-.065-.006.276.276,0,0,1-.211-.327c.156-.723.349-1.444.573-2.144a.275.275,0,0,1,.524.168c-.218.682-.406,1.386-.558,2.092A.275.275,0,0,1,385.051,199.87ZM428,195.477a.275.275,0,0,1-.259-.164c-.291-.655-.618-1.306-.973-1.935a.275.275,0,1,1,.479-.271c.364.644.7,1.311,1,1.982a.275.275,0,0,1-.244.387Zm-41.155-.776a.271.271,0,0,1-.128-.028.275.275,0,0,1-.126-.368c.323-.659.683-1.313,1.071-1.943a.275.275,0,1,1,.469.288c-.378.615-.73,1.253-1.045,1.9A.275.275,0,0,1,386.844,194.7Zm38.351-3.918a.275.275,0,0,1-.225-.107c-.44-.568-.913-1.122-1.407-1.646a.275.275,0,0,1,.4-.377c.506.537.99,1.1,1.441,1.687a.275.275,0,0,1-.21.444Zm-35.371-.669a.275.275,0,0,1-.218-.451c.471-.564.977-1.113,1.5-1.632a.275.275,0,0,1,.386.392c-.513.506-1.007,1.042-1.468,1.592A.273.273,0,0,1,389.824,190.115Zm31.529-3.222a.277.277,0,0,1-.179-.06c-.563-.448-1.155-.873-1.759-1.265a.275.275,0,0,1,.3-.462c.618.4,1.224.837,1.8,1.3a.275.275,0,0,1-.164.491Zm-27.542-.522a.275.275,0,0,1-.17-.5c.592-.436,1.214-.848,1.848-1.227a.275.275,0,0,1,.282.473c-.619.369-1.227.772-1.8,1.2A.272.272,0,0,1,393.811,186.37Zm22.882-2.342a.269.269,0,0,1-.122-.025c-.656-.3-1.333-.572-2.01-.806a.275.275,0,0,1,.18-.52c.7.24,1.388.519,2.059.826a.275.275,0,0,1-.107.525Zm-18.12-.342a.275.275,0,0,1-.112-.529c.684-.282,1.386-.534,2.089-.747a.275.275,0,1,1,.16.526c-.686.208-1.372.454-2.039.729A.273.273,0,0,1,398.572,183.686Zm12.908-1.319a.268.268,0,0,1-.058,0c-.706-.133-1.428-.234-2.145-.3a.275.275,0,1,1,.049-.548c.735.066,1.475.169,2.2.306a.275.275,0,0,1-.044.545Zm-7.639-.141a.275.275,0,0,1-.048-.547c.728-.109,1.47-.185,2.207-.224h.008a.275.275,0,0,1,.022.55c-.72.038-1.444.111-2.155.218Z" transform="translate(-375.135 -172.296)"/><circle class="i" cx="5.129" cy="5.129" r="5.129" transform="translate(26.969 50.692)"/><path class="g" d="M424.437,268.8l-2.285-2.059a.465.465,0,1,1,.623-.691l1.563,1.409,2.508-3.04a.465.465,0,0,1,.718.592Z" transform="translate(-392.571 -210.55)"/></g><g transform="translate(16.329 116.714)"><g transform="translate(42.151 9.704)"><path class="j" d="M450.5,342.736h1.129v-2.422h-.93v-.6a2.913,2.913,0,0,0,1.187-.382h.714v3.408h.953v.784H450.5Z" transform="translate(-450.496 -339.249)"/><path class="j" d="M457.578,341.339c0-1.427.64-2.157,1.611-2.157s1.612.73,1.612,2.157-.641,2.192-1.612,2.192S457.578,342.762,457.578,341.339Zm2.357,0c0-1.089-.33-1.406-.746-1.406s-.746.317-.746,1.406.33,1.441.746,1.441S459.935,342.428,459.935,341.339Zm-1.242-.013a.5.5,0,1,1,.5.5A.48.48,0,0,1,458.694,341.326Z" transform="translate(-453.768 -339.182)"/><path class="j" d="M464.942,341.339c0-1.427.641-2.157,1.611-2.157s1.612.73,1.612,2.157-.641,2.192-1.612,2.192S464.942,342.762,464.942,341.339Zm2.358,0c0-1.089-.331-1.406-.747-1.406s-.746.317-.746,1.406.33,1.441.746,1.441S467.3,342.428,467.3,341.339Zm-1.242-.013a.5.5,0,1,1,.495.5A.48.48,0,0,1,466.058,341.326Z" transform="translate(-457.171 -339.182)"/><path class="j" d="M471.833,342.787l1.232-1.146.337.312-1.069,1.316Zm.051-2.506a.986.986,0,1,1,1.959,0,.988.988,0,1,1-1.959,0Zm1.293,0c0-.452-.148-.579-.314-.579s-.313.127-.313.579.148.593.313.593S473.176,340.73,473.176,340.282Zm.381,2.136a.986.986,0,1,1,1.959,0,.988.988,0,1,1-1.959,0Zm.45-1.767,1.069-1.316.5.483-1.231,1.145Zm.842,1.767c0-.452-.148-.579-.314-.579s-.313.127-.313.579.148.594.313.594S474.85,342.865,474.85,342.417Z" transform="translate(-460.354 -339.182)"/></g><path class="c" d="M431.128,323.642a2.5,2.5,0,0,1-2.5,2.5H374.642a2.5,2.5,0,0,1,0-5h53.982A2.5,2.5,0,0,1,431.128,323.642Z" transform="translate(-372.144 -321.143)"/><rect class="e" width="0.55" height="5.002" transform="translate(9.13 0)"/><rect class="e" width="0.55" height="5.002" transform="translate(19.278 0)"/><rect class="e" width="0.55" height="5.002" transform="translate(29.426 0)"/><rect class="e" width="0.55" height="5.002" transform="translate(39.579 0)"/><rect class="e" width="0.55" height="5.002" transform="translate(49.727 0)"/></g></g><g transform="translate(96.748 86.708)"><path class="k" d="M133.645,399.615c0,1.7-7.659,3.069-17.107,3.069S99.43,401.31,99.43,399.615s7.66-3.069,17.108-3.069S133.645,397.92,133.645,399.615Z" transform="translate(-99.43 -241.852)"/><path class="k" d="M208.769,399.615c0,1.7-7.659,3.069-17.107,3.069s-17.108-1.374-17.108-3.069,7.66-3.069,17.108-3.069S208.769,397.92,208.769,399.615Z" transform="translate(-134.14 -241.852)"/><g transform="translate(4.252)"><g transform="translate(0 140.347)"><path class="c" d="M132.465,393.38H107.579a4.176,4.176,0,0,1,1.1-4.572c2.376-1.9,13.808-5.9,13.808-5.9l8.283-.289S134.04,390.453,132.465,393.38Z" transform="translate(-107.334 -375.763)"/><path class="l" d="M143.963,369.877l-.1,7.428a5.858,5.858,0,0,1-4.309,1.833,4.9,4.9,0,0,1-4.071-2.119l.381-7.047Z" transform="translate(-120.342 -369.877)"/><path class="m" d="M117.141,392.773a.545.545,0,0,1-.545-.545v-2.285a.545.545,0,1,1,1.089,0v2.285A.544.544,0,0,1,117.141,392.773Z" transform="translate(-111.614 -378.896)"/><path class="m" d="M123.336,391.791a.545.545,0,0,1-.545-.545v-3.428a.545.545,0,0,1,1.09,0v3.428A.545.545,0,0,1,123.336,391.791Z" transform="translate(-114.476 -377.915)"/></g><g transform="translate(41.9 140.347)"><path class="c" d="M185.649,393.38h24.887a4.177,4.177,0,0,0-1.1-4.572c-2.376-1.9-13.809-5.9-13.809-5.9l-8.283-.289S184.075,390.453,185.649,393.38Z" transform="translate(-185.221 -375.763)"/><path class="l" d="M188.825,369.877l.1,7.428a5.858,5.858,0,0,0,4.309,1.833,4.9,4.9,0,0,0,4.071-2.119l-.381-7.047Z" transform="translate(-186.886 -369.877)"/><g transform="translate(16.22 9.358)"><path class="m" d="M222.111,392.773a.545.545,0,0,1-.545-.545v-2.285a.545.545,0,0,1,1.09,0v2.285A.545.545,0,0,1,222.111,392.773Z" transform="translate(-218.233 -388.255)"/><path class="m" d="M215.916,391.791a.545.545,0,0,1-.545-.545v-3.428a.545.545,0,0,1,1.09,0v3.428A.545.545,0,0,1,215.916,391.791Z" transform="translate(-215.371 -387.273)"/></g></g><g transform="translate(11.971 78.765)"><path class="n" d="M137.713,255.406l-8.126,61.709a70.92,70.92,0,0,0,8.38.508,26.537,26.537,0,0,0,6.349-.508l6.095-49.773L159.3,318.13a40.52,40.52,0,0,0,7.364,1.27,23.727,23.727,0,0,0,5.333-.762l-6.6-61.708Z" transform="translate(-129.587 -255.406)"/><path class="o" d="M145.275,269.688a.145.145,0,0,1-.074-.271c4.183-2.46,3.241-9.56,3.232-9.632a.145.145,0,0,1,.287-.041c.01.074.979,7.364-3.371,9.923A.146.146,0,0,1,145.275,269.688Z" transform="translate(-136.769 -257.353)"/><path class="o" d="M189.168,271.667a.146.146,0,0,1-.086-.028c-2.958-2.187-1.76-9.238-1.708-9.538a.142.142,0,0,1,.168-.118.145.145,0,0,1,.118.168c-.013.072-1.221,7.173,1.594,9.254a.145.145,0,0,1-.087.262Z" transform="translate(-156.156 -258.444)"/><path class="o" d="M169.249,262.778a1.224,1.224,0,1,1,1.225-1.224A1.226,1.226,0,0,1,169.249,262.778Zm0-2.158a.934.934,0,1,0,.934.934A.935.935,0,0,0,169.249,260.62Z" transform="translate(-147.347 -257.681)"/></g><g transform="translate(16.698 9.134)"><path class="p" d="M358.846,140.272v54.335a4.365,4.365,0,0,1-4.366,4.366H340.027V135.906h14.454A4.365,4.365,0,0,1,358.846,140.272Z" transform="translate(-231.544 -130.562)"/><g transform="translate(1.747 1.319)"><path class="q" d="M211.332,134.014s-8,13.078-16.511,19.808-21.835,11.552-21.835,11.552l-.381,32.886a58.9,58.9,0,0,1-13.716.507c-7.236-.632-17.268-2.158-17.268-2.158s.381-37.333,3.3-41.9a10.63,10.63,0,0,1,7.732-4.507,8.647,8.647,0,0,1,.9-.066l1.656.055,7.624.261h.049s1.379-.1,3.673-.436a88.592,88.592,0,0,0,16.452-4.071c10.669-3.809,27.3-17.525,27.3-17.525Z" transform="translate(-141.621 -128.423)"/><path class="r" d="M174.843,168.85l-5.807,9.648-6.9-9.645a8.645,8.645,0,0,1,.9-.066l1.656.055,4.343,6.419,3.281-6.158h.049A11.018,11.018,0,0,0,174.843,168.85Z" transform="translate(-151.098 -147.073)"/><path class="j" d="M169.869,172.426l1.016-1.746,1.555,1.619,2.126-3.9-3.84-1.142-3.833.881Z" transform="translate(-153.298 -146.363)"/></g><g transform="translate(36.637 5.376)"><rect class="c" width="86.335" height="57.752" rx="7.43"/><g transform="translate(6.643 9.823)"><rect class="s" width="50.201" height="3.18"/><g transform="translate(0.533 12.558)"><path class="t" d="M220.364,186.836a1.482,1.482,0,0,1-.549-.1v-2.813a1.482,1.482,0,0,1,.549-.1h5.781a1.51,1.51,0,0,1,0,3.02Z" transform="translate(-219.815 -180.454)"/><path class="t" d="M234,179.968V181.7h-4.649a3.183,3.183,0,0,0-3.105-2.487h-5.781a1.853,1.853,0,0,0-.429.051,2.347,2.347,0,0,1,2.264-1.7h9.315A2.394,2.394,0,0,1,234,179.968Z" transform="translate(-219.918 -177.566)"/><path class="t" d="M229.181,188.44H233.9v2.213a2.394,2.394,0,0,1-2.384,2.4H222.2a2.394,2.394,0,0,1-2.384-2.4v-.017a3.011,3.011,0,0,0,.549.051h5.781A3.175,3.175,0,0,0,229.181,188.44Z" transform="translate(-219.815 -182.59)"/></g><rect class="s" width="69.737" height="4.288" transform="translate(0 28.394)"/><rect class="s" width="28.181" height="4.004" transform="translate(41.555 36.402)"/></g><path class="u" d="M254.753,135.964c-8.579,11.4-28.5,34.813-48.276,35.929V139.961a4,4,0,0,1,4-4Z" transform="translate(-206.477 -135.964)"/><rect class="v" width="18.129" height="10.012" rx="4.378" transform="translate(60.092 6.002)"/></g><g transform="translate(0 25.414)"><path class="l" d="M201.927,244.179s7.936,4,8.825,3.111-.7-1.4-.7-1.4,2.285,1.143,2.793.444-1.714-2.095-1.714-2.095,3.047,1.27,3.491.317-4.761-2.857-4.761-2.857,4.126.889,4.317,0-3.491-1.777-3.491-1.777,2.031-.381,1.587-1.524-7.872-.19-7.872-.19Z" transform="translate(-167.738 -203.072)"/><path class="r" d="M145.582,173.212s4.381,2.952,3.142,10.57c0,0-2.381,8.285,3.619,12.284s23.141,12,23.141,12l-3.048,6.475s-24.283-4-30.283-12.284S137.3,179.973,145.582,173.212Z" transform="translate(-138.374 -173.212)"/><path class="w" d="M151.773,173.212s4.381,2.952,3.142,10.57a15.318,15.318,0,0,0-.418,4.955" transform="translate(-144.565 -173.212)"/></g><path class="l" d="M269.311,127.293s.143,8.856,1.857,8.856.81-5.38.81-5.38.286,5.809,1.714,5.761.619-6.237.619-6.237.476,6.095,1.9,6,.143-6.285.143-6.285.667,4.9,2.19,4.762,1.1-7.476-.19-8a10.6,10.6,0,0,0-5.857-.619A8.867,8.867,0,0,0,269.311,127.293Z" transform="translate(-198.871 -125.972)"/></g><g transform="translate(28.385)"><path class="l" d="M173.522,143.536v13.9s-.632,1.014-4.507,1.014-4.381-1.014-4.381-1.014v-13.9Z" transform="translate(-162.193 -124.953)"/><path class="x" d="M174.042,150.58v4.19c-.5-.027-1.052-.06-1.667-.114-7.9-.665-6.523-11.089-6.523-11.089Z" transform="translate(-162.713 -124.968)"/><path class="l" d="M179.608,128.446a1.369,1.369,0,0,0-1.776-1.037V125.4a7.239,7.239,0,0,0-14.478,0V127.4a2.435,2.435,0,0,0-1.139-.294,1.96,1.96,0,0,0-1.793,2.621,2.731,2.731,0,0,0,2.218,2.147,6.259,6.259,0,0,0,.714.131v1.771a7.239,7.239,0,0,0,14.478,0v-3.1C178.392,130.418,179.8,129.632,179.608,128.446Z" transform="translate(-160.215 -113.23)"/><path class="y" d="M179.044,110.783c-.572-1.335-2.665.953-2.665.953s.823-2.032.223-2.6-2.158.823-2.158.823-2.131-1.455-5.973-.54c-3.624.872-4.79,5.885-4.9,6.43a2.069,2.069,0,0,0-.55-.076c-1.613,0-2.921,1.815-2.921,4.059s1.624,4.73,3.236,4.73,2.6-2.485,2.6-4.73c0-.18-.011-.359-.027-.528a10.136,10.136,0,0,0,3.809.528,19.43,19.43,0,0,0,5.787-.845,6.052,6.052,0,0,0,2.213,2.758v-.578a7.223,7.223,0,0,0-.605-2.894C181.147,115.948,179.458,111.753,179.044,110.783Z" transform="translate(-160.097 -108.994)"/><path class="y" d="M180.409,141.717a7.239,7.239,0,0,1-14.478,0v-6.375l1.684.469s.921,7.4,8.158,7.3C179.242,143.067,180.409,141.717,180.409,141.717Z" transform="translate(-162.792 -121.167)"/><path class="z" d="M163.586,139.269a1.694,1.694,0,0,1-1.313-.428.856.856,0,0,1-.211-.674.081.081,0,0,1,.094-.066.082.082,0,0,1,.067.094.694.694,0,0,0,.175.54,1.757,1.757,0,0,0,1.407.365h0a.082.082,0,0,1,0,.164C163.734,139.267,163.659,139.269,163.586,139.269Z" transform="translate(-161.001 -122.441)"/><path class="z" d="M192.941,137.882l-.086,0a.082.082,0,0,1-.078-.085.079.079,0,0,1,.085-.079.964.964,0,0,0,.753-.228.787.787,0,0,0,.209-.543.082.082,0,0,1,.077-.086.084.084,0,0,1,.086.077.95.95,0,0,1-.256.666A1.069,1.069,0,0,1,192.941,137.882Z" transform="translate(-175.197 -121.869)"/><g transform="translate(7.788 13.635)"><path class="z" d="M177.783,140.353a1.085,1.085,0,0,1-.844-.356,2.387,2.387,0,0,1-.393-1.617.189.189,0,0,1,.21-.169.191.191,0,0,1,.17.21,2.038,2.038,0,0,0,.3,1.322.71.71,0,0,0,.56.229.655.655,0,0,0,.53-.221,2,2,0,0,0,.233-1.368.191.191,0,0,1,.377-.059A2.4,2.4,0,0,1,178.6,140,1.028,1.028,0,0,1,177.783,140.353Z" transform="translate(-175.479 -136.105)"/><path class="z" d="M187.785,140.353a1.085,1.085,0,0,1-.845-.357,2.384,2.384,0,0,1-.393-1.617.188.188,0,0,1,.21-.169.191.191,0,0,1,.169.21,2.04,2.04,0,0,0,.3,1.322.71.71,0,0,0,.56.229.655.655,0,0,0,.53-.221,2,2,0,0,0,.233-1.368.191.191,0,0,1,.377-.059,2.4,2.4,0,0,1-.32,1.675A1.027,1.027,0,0,1,187.785,140.353Z" transform="translate(-180.1 -136.105)"/><path class="z" d="M183.03,143.387a1.25,1.25,0,0,1-.175-.012.191.191,0,1,1,.054-.378,1.34,1.34,0,0,0,1.072-.406c-.014-.169-.526-2.3-.846-3.6a.191.191,0,0,1,.37-.091c.2.814.854,3.49.854,3.714a.5.5,0,0,1-.209.359A1.847,1.847,0,0,1,183.03,143.387Z" transform="translate(-178.324 -136.378)"/><path class="y" d="M174.846,136.315a.272.272,0,0,1-.146-.5c.083-.053,2.058-1.281,3.67-.423a.272.272,0,1,1-.256.481c-1.336-.711-3.1.391-3.122.4A.268.268,0,0,1,174.846,136.315Z" transform="translate(-174.573 -134.684)"/><path class="y" d="M185.173,135.621a.272.272,0,0,1-.16-.493c.092-.066,2.265-1.608,3.462-.193a.273.273,0,0,1-.416.352c-.873-1.033-2.709.27-2.727.284A.272.272,0,0,1,185.173,135.621Z" transform="translate(-179.344 -134.339)"/><path class="j" d="M181.758,152.269a2.644,2.644,0,0,1-1.631-.617.191.191,0,0,1,.258-.281,2.026,2.026,0,0,0,2.464.171.191.191,0,1,1,.209.319A2.349,2.349,0,0,1,181.758,152.269Z" transform="translate(-177.111 -142.185)"/><path class="x" d="M177.239,144.287a.873.873,0,1,1-.873-.873A.872.872,0,0,1,177.239,144.287Z" transform="translate(-174.998 -138.532)"/><path class="x" d="M190.426,144a.873.873,0,1,1-.873-.873A.873.873,0,0,1,190.426,144Z" transform="translate(-181.091 -138.399)"/></g></g></g></g><g transform="translate(313.221 100.732)"><path class="p" d="M507.512,328.7v26.79a6.376,6.376,0,0,1-3.429.254l-2.261-26.453C503.09,328.524,505.3,328.476,507.512,328.7Z" transform="translate(-501.822 -224.475)"/><path class="k" d="M548.216,405.628c0,1.68-7.594,3.043-16.962,3.043s-16.962-1.363-16.962-3.043,7.594-3.043,16.962-3.043S548.216,403.947,548.216,405.628Z" transform="translate(-507.584 -258.666)"/><g transform="translate(1.628 0)"><path class="y" d="M523.73,136.821a7.055,7.055,0,0,0-4.047,1.272c-2.153,1.433-4.219,3.072-4.2,8.713.021,5.907-.667,5.577-3.149,9.412-1.266,1.957-4.611,7.4,3.066,8.3,7.649.9,11.642-1.855,17.127-1.651,5.452.2,6.94-4.117,5.662-6.37-1.258-2.218-1.987-8.485-1-10.768C539.4,140.626,532.075,131.13,523.73,136.821Z" transform="translate(-507.465 -135.061)"/><g transform="translate(0 72.25)"><g transform="translate(0 1.235)"><path class="aa" d="M563.255,299.126c-1.136,9.37-24.609,18.512-24.609,18.512l-3.35-16.255,13.3-3.537-10.206-12.973.958-12.318a80.468,80.468,0,0,0,9.635-.9S564.029,292.74,563.255,299.126Z" transform="translate(-518.916 -271.659)"/><g transform="translate(0 30.918)"><path class="j" d="M504.848,329.747l2.019,23.643a3.981,3.981,0,0,0,4.255-1.411c1.614-2.412,4.486-13.6,4.486-13.6l-.4-7.892S507.5,328.014,504.848,329.747Z" transform="translate(-504.848 -329.131)"/><path class="l" d="M528.918,330.286l-7.049.693a5.585,5.585,0,0,0-1.392,4.242,4.671,4.671,0,0,0,2.343,3.7l7.814-1.032Z" transform="translate(-512.059 -329.665)"/><g transform="translate(4.876 14.991)"><path class="aa" d="M514.416,363.8a.519.519,0,0,1,.473-.562l2.171-.186a.52.52,0,1,1,.089,1.036l-2.172.186A.519.519,0,0,1,514.416,363.8Z" transform="translate(-514.144 -359.796)"/><path class="aa" d="M513.913,357.839a.52.52,0,0,1,.473-.562l3.257-.278a.52.52,0,1,1,.088,1.036l-3.257.278A.52.52,0,0,1,513.913,357.839Z" transform="translate(-513.911 -356.996)"/></g></g></g><g transform="translate(5.285)"><g transform="translate(3.729 59.22)"><path class="j" d="M522,401.35h23.2a3.891,3.891,0,0,0-1.021-4.261c-2.214-1.773-12.87-5.5-12.87-5.5l-7.72-.27S520.537,398.623,522,401.35Z" transform="translate(-521.605 -384.931)"/><path class="l" d="M524.964,379.444l.089,6.923a5.46,5.46,0,0,0,4.016,1.709,4.567,4.567,0,0,0,3.795-1.975l-.355-6.569Z" transform="translate(-523.157 -379.444)"/><path class="aa" d="M555.877,400.785a.507.507,0,0,0,.508-.508v-2.13a.508.508,0,1,0-1.016,0v2.13A.508.508,0,0,0,555.877,400.785Z" transform="translate(-537.205 -387.851)"/><path class="aa" d="M550.1,399.87a.507.507,0,0,0,.508-.508v-3.2a.508.508,0,1,0-1.016,0v3.2A.508.508,0,0,0,550.1,399.87Z" transform="translate(-534.537 -386.936)"/></g><path class="ab" d="M532.145,330.362l-15.375.039-2.1-61.038,17.373,1.445Z" transform="translate(-514.673 -269.363)"/></g></g><g transform="translate(1.283 27.942)"><path class="l" d="M588.936,205.182c-.237-.725-3.487.6-3.487.6s2.66-1.087,2.482-1.811-5.023,1.087-5.023,1.087,1.773-.905,1.359-1.389-4.61,1.087-4.61,1.087-14.245,2.93-19.787,2.4c-6.849-.653-9.013-10.382-9.013-10.382a11.445,11.445,0,0,0-8.412-7.872c-3.914,9.417,3.149,20.7,11.925,24.952,7.326,3.554,24.111-3.163,25.563-3.673.911-.086,7.916-.766,7.585-1.5s-1.912-.318-2.153-.251c.331-.094,3.025-.876,2.8-1.5s-2.961.232-3.326.349C585.26,207.146,589.16,205.868,588.936,205.182Z" transform="translate(-522.991 -187.881)"/><path class="ac" d="M537.809,232.145s-1.174.315-3.051.631a45.708,45.708,0,0,1-8.376.664c-.72-.022-1.445-.055-2.176-.122-6.9-.6-16.974-2.4-16.974-2.4s.653-8.038,1.035-13.547c.736-10.735,3.253-22.934,4.79-25.984a6.054,6.054,0,0,1,1.783-2.55A12.856,12.856,0,0,1,520.708,187l7.269.249h.045a.172.172,0,0,1,.017.022c.387.349,6.709,5.253,6.961,11.81C535.212,204.626,537.809,232.145,537.809,232.145Z" transform="translate(-507.232 -187.002)"/><path class="l" d="M543.562,226.16l.684-1.473s-16.6-4.573-22.32-8.387-2.66-15.8-2.66-15.8c1.181-7.264-3-10.079-3-10.079-7.9,6.446-7.378,21.889-1.657,29.789s27.434,9.219,27.434,9.219l.007-.016c1.364.48,6.868,2.269,10.176,1.152C555.629,229.416,545.679,226.713,543.562,226.16Z" transform="translate(-508.661 -188.581)"/><g transform="translate(34.413 35.58)"><g transform="translate(1.452)"><path class="ad" d="M574.038,256.815l2.137-3.286a.856.856,0,0,1,.934-.361l11.384,2.987a.855.855,0,0,1,.563,1.178l-1.642,3.646a.855.855,0,0,1-1.011.472L574.523,258.1A.854.854,0,0,1,574.038,256.815Z" transform="translate(-573.899 -253.14)"/><path class="ae" d="M577.108,257.478l1.684-2.59a.673.673,0,0,1,.735-.285l8.973,2.354a.674.674,0,0,1,.443.929l-1.294,2.874a.674.674,0,0,1-.8.372l-9.363-2.638A.673.673,0,0,1,577.108,257.478Z" transform="translate(-575.331 -253.806)"/></g><path class="l" d="M571.995,253.88s4.511,1.035,4.843,1.811-5.637.818-5.637.818Z" transform="translate(-571.201 -253.482)"/></g></g><g transform="translate(11.403 1.811)"><path class="l" d="M538.6,162.831v13.254s-.6.966-4.3.966-4.178-.966-4.178-.966V162.831Z" transform="translate(-527.93 -149.702)"/><path class="x" d="M539.1,169.547v4c-.473-.026-1-.057-1.59-.109-7.534-.634-6.219-10.573-6.219-10.573Z" transform="translate(-528.426 -149.716)"/><path class="l" d="M542.709,150.569v2.956a6.9,6.9,0,0,1-13.8,0v-1.689a6.707,6.707,0,0,1-.681-.122,2.6,2.6,0,0,1-2.115-2.049,1.869,1.869,0,0,1,1.711-2.5,2.325,2.325,0,0,1,1.085.282v-1.91a6.9,6.9,0,1,1,13.8,0v1.916a1.3,1.3,0,0,1,1.694.986C544.586,149.573,543.246,150.32,542.709,150.569Z" transform="translate(-526.045 -138.522)"/><path class="z" d="M529.126,158.761a1.615,1.615,0,0,1-1.252-.408.819.819,0,0,1-.2-.642.077.077,0,0,1,.09-.063.078.078,0,0,1,.064.09.66.66,0,0,0,.167.515,1.675,1.675,0,0,0,1.342.348h0a.078.078,0,0,1,0,.156C529.268,158.76,529.2,158.761,529.126,158.761Z" transform="translate(-526.794 -147.307)"/><path class="z" d="M557.117,157.44l-.081,0a.078.078,0,0,1-.075-.081.076.076,0,0,1,.081-.075.919.919,0,0,0,.718-.217.75.75,0,0,0,.2-.518.078.078,0,0,1,.074-.082.081.081,0,0,1,.082.074.907.907,0,0,1-.244.635A1.019,1.019,0,0,1,557.117,157.44Z" transform="translate(-540.329 -146.761)"/><g transform="translate(7.294 8.411)"><path class="z" d="M542.664,159.8a1.034,1.034,0,0,1-.8-.34,2.271,2.271,0,0,1-.375-1.541.182.182,0,1,1,.362.039,1.947,1.947,0,0,0,.285,1.26.676.676,0,0,0,.534.218.625.625,0,0,0,.506-.211,1.9,1.9,0,0,0,.223-1.3.182.182,0,1,1,.359-.057,2.3,2.3,0,0,1-.306,1.6A.979.979,0,0,1,542.664,159.8Z" transform="translate(-540.467 -155.745)"/><path class="z" d="M552.2,159.8a1.035,1.035,0,0,1-.8-.34,2.271,2.271,0,0,1-.374-1.541.179.179,0,0,1,.2-.161.182.182,0,0,1,.161.2,1.946,1.946,0,0,0,.284,1.26.676.676,0,0,0,.534.218.626.626,0,0,0,.506-.211,1.9,1.9,0,0,0,.222-1.3.182.182,0,0,1,.152-.208.18.18,0,0,1,.208.151,2.3,2.3,0,0,1-.305,1.6A.981.981,0,0,1,552.2,159.8Z" transform="translate(-544.873 -155.745)"/><path class="z" d="M547.667,162.689a1.142,1.142,0,0,1-.167-.012.182.182,0,1,1,.051-.36,1.277,1.277,0,0,0,1.022-.387c-.013-.161-.5-2.2-.806-3.435a.182.182,0,1,1,.353-.087c.191.777.815,3.327.815,3.541a.476.476,0,0,1-.2.342A1.756,1.756,0,0,1,547.667,162.689Z" transform="translate(-543.179 -156.005)"/><path class="y" d="M539.863,155.946a.26.26,0,0,1-.139-.479c.079-.05,1.962-1.221,3.5-.4a.26.26,0,1,1-.244.458c-1.273-.678-2.961.373-2.977.384A.259.259,0,0,1,539.863,155.946Z" transform="translate(-539.603 -154.391)"/><path class="y" d="M549.709,155.284a.26.26,0,0,1-.152-.471c.088-.063,2.159-1.533,3.3-.184a.26.26,0,0,1-.4.335c-.833-.985-2.583.258-2.6.271A.262.262,0,0,1,549.709,155.284Z" transform="translate(-544.152 -154.061)"/><path class="z" d="M546.453,171.157a2.523,2.523,0,0,1-1.555-.589.182.182,0,0,1,.246-.268,1.932,1.932,0,0,0,2.35.164.182.182,0,1,1,.2.3A2.24,2.24,0,0,1,546.453,171.157Z" transform="translate(-542.023 -161.543)"/><path class="x" d="M542.144,163.547a.832.832,0,1,1-.832-.833A.832.832,0,0,1,542.144,163.547Z" transform="translate(-540.008 -158.059)"/><path class="x" d="M554.718,163.273a.832.832,0,1,1-.832-.832A.832.832,0,0,1,554.718,163.273Z" transform="translate(-545.818 -157.933)"/></g><path class="y" d="M529.841,161.1a.242.242,0,1,1-.241-.242A.241.241,0,0,1,529.841,161.1Z" transform="translate(-527.575 -148.789)"/><circle class="y" cx="0.242" cy="0.242" r="0.242" transform="translate(16.827 10.952)"/><path class="y" d="M545,143.827a7.024,7.024,0,0,0-6.829-5.4,7.02,7.02,0,0,0-7.009,7.015v2.1l.163-.089a11.683,11.683,0,0,0,4.323-4.257c.4.335,1.88,1.355,4.957,1.355.15,0,.3,0,.46-.008a14.867,14.867,0,0,0,3.86-.58l.1-.031Z" transform="translate(-528.408 -138.427)"/><rect class="af" width="3.466" height="0.963" transform="translate(1.192 4.052) rotate(15.548)"/></g><g transform="translate(41.533 1.108)"><g transform="translate(0 4.769)"><g transform="translate(16.042 18.615)"><circle class="ag" cx="7.649" cy="7.649" r="7.649"/><circle class="i" cx="6.334" cy="6.334" r="6.334" transform="translate(1.315 1.315)"/><path class="ah" d="M626.365,192.507c0-1.622-2.6-1.544-2.6-2.177,0-.259.22-.409.617-.409a1.745,1.745,0,0,1,.9.236.493.493,0,0,0,.613-.107l.045-.053a.5.5,0,0,0-.107-.738,2.3,2.3,0,0,0-1-.369v-.724a.434.434,0,0,0-.434-.434h0a.434.434,0,0,0-.434.434v.736c-.9.141-1.464.677-1.464,1.446,0,1.639,2.6,1.507,2.6,2.251,0,.255-.226.406-.657.406a2.562,2.562,0,0,1-1.207-.327.5.5,0,0,0-.65.166l-.061.1a.49.49,0,0,0,.164.692,3.489,3.489,0,0,0,1.279.412v.866a.434.434,0,0,0,.434.434h0a.434.434,0,0,0,.434-.434v-.9C625.829,193.848,626.365,193.251,626.365,192.507Z" transform="translate(-616.76 -183.89)"/></g><g transform="translate(26.302)"><circle class="ag" cx="7.649" cy="7.649" r="7.649"/><circle class="i" cx="6.334" cy="6.334" r="6.334" transform="translate(1.315 1.315)"/><path class="ah" d="M645.437,157.9c0-1.622-2.6-1.545-2.6-2.177,0-.259.219-.409.617-.409a1.745,1.745,0,0,1,.9.236.494.494,0,0,0,.613-.107l.045-.053a.5.5,0,0,0-.107-.738,2.3,2.3,0,0,0-1-.369v-.724a.434.434,0,0,0-.434-.434h0a.434.434,0,0,0-.434.434v.736c-.9.141-1.464.677-1.464,1.446,0,1.639,2.6,1.507,2.6,2.251,0,.256-.226.406-.657.406a2.562,2.562,0,0,1-1.207-.327.5.5,0,0,0-.65.166l-.061.1a.49.49,0,0,0,.164.692,3.5,3.5,0,0,0,1.279.412v.866a.434.434,0,0,0,.434.434h0a.434.434,0,0,0,.434-.434v-.9C644.9,159.245,645.437,158.648,645.437,157.9Z" transform="translate(-635.832 -149.287)"/></g><g transform="translate(0 4.525)"><circle class="ag" cx="7.649" cy="7.649" r="7.649" transform="matrix(0.16, -0.987, 0.987, 0.16, 0, 15.1)"/><circle class="i" cx="6.334" cy="6.334" r="6.334" transform="translate(2.442 2.442)"/><path class="ah" d="M598.639,168.409c0-1.623-2.6-1.545-2.6-2.177,0-.259.219-.409.617-.409a1.746,1.746,0,0,1,.9.236.493.493,0,0,0,.612-.107l.045-.053a.5.5,0,0,0-.107-.738,2.3,2.3,0,0,0-1-.369v-.724a.434.434,0,0,0-.434-.434h0a.434.434,0,0,0-.434.434v.736c-.9.141-1.464.677-1.464,1.446,0,1.639,2.6,1.507,2.6,2.251,0,.256-.226.406-.657.406a2.564,2.564,0,0,1-1.207-.327.5.5,0,0,0-.65.166l-.061.1a.49.49,0,0,0,.165.692,3.492,3.492,0,0,0,1.278.412v.866a.434.434,0,0,0,.434.434h0a.434.434,0,0,0,.434-.434v-.9C598.1,169.75,598.639,169.153,598.639,168.409Z" transform="translate(-587.908 -158.665)"/></g></g><g transform="translate(4.61)"><path class="af" d="M612.908,141.515l.9-4.394,1.442,4.364,3.168,1.442-3.2,1.5-1.5,4.394-.844-4.364-3.766-1.442Z" transform="translate(-599.165 -137.121)"/><path class="af" d="M653.018,181.795l.51-2.5.819,2.479,1.8.819-1.816.85-.85,2.5L653,183.464l-2.139-.819Z" transform="translate(-618.454 -156.609)"/><path class="af" d="M592.777,194.252l.51-2.5.819,2.479,1.8.819-1.816.85-.85,2.5-.479-2.479-2.139-.819Z" transform="translate(-590.621 -162.365)"/></g></g></g></g></g></svg>