<svg xmlns="http://www.w3.org/2000/svg" width="33.751" height="44.309" viewBox="0 0 33.751 44.309"><defs><style>.a{fill:#f5f5f5;}</style></defs><g transform="translate(-61)"><g transform="translate(61)"><path class="a" d="M94.173,30.853l-2.018-1.345V17.827A14.3,14.3,0,0,0,79.173,3.608V1.3a1.3,1.3,0,1,0-2.6,0v2.31A14.3,14.3,0,0,0,63.6,17.827V29.508l-2.018,1.345A1.3,1.3,0,0,0,61,31.933v5.192a1.3,1.3,0,0,0,1.3,1.3h8.557a7.13,7.13,0,0,0,14.041,0h8.557a1.3,1.3,0,0,0,1.3-1.3V31.933A1.3,1.3,0,0,0,94.173,30.853Zm-16.3,10.859a4.558,4.558,0,0,1-4.358-3.289h8.716A4.558,4.558,0,0,1,77.875,41.712Zm14.279-5.885H63.6v-3.2l2.018-1.345a1.3,1.3,0,0,0,.578-1.08V17.827a11.683,11.683,0,1,1,23.366,0V30.2a1.3,1.3,0,0,0,.578,1.08l2.018,1.345Z" transform="translate(-61)"/></g></g></svg>