<svg xmlns="http://www.w3.org/2000/svg" width="33.809" height="33.736" viewBox="0 0 33.809 33.736"><defs><style>.a{fill:#abaaaa;}</style></defs><g transform="translate(0 -0.516)"><g transform="translate(0 0.516)"><g transform="translate(0 0)"><rect class="a" width="3.388" height="1.129" transform="translate(24.281 22.515)"/><rect class="a" width="3.388" height="1.129" transform="translate(19.764 22.515)"/><rect class="a" width="3.388" height="1.129" transform="translate(15.246 22.515)"/><path class="a" d="M33.308,12.191,22.135,1.016a1.687,1.687,0,0,0-1.2-.5H20.93a1.671,1.671,0,0,0-1.191.5L7.886,12.866H1.694A1.694,1.694,0,0,0,0,14.561V30.371a1.694,1.694,0,0,0,1.694,1.694H10.06l1.685,1.687a1.687,1.687,0,0,0,1.2.5h0a1.671,1.671,0,0,0,1.191-.5l1.688-1.687H28.8a1.694,1.694,0,0,0,1.694-1.694V17.4l2.813-2.813a1.685,1.685,0,0,0,0-2.4ZM26.125,6.6l-6.262,6.262h-4.8l8.66-8.66ZM20.538,1.812a.557.557,0,0,1,.787-.009l.009.009,1.594,1.6L13.47,12.866H9.483Zm-7.2,31.144a.549.549,0,0,1-.4.169.565.565,0,0,1-.4-.169l-.887-.89h2.575Zm16.021-2.585a.565.565,0,0,1-.565.565H1.694a.565.565,0,0,1-.565-.565V22.466H29.363Zm0-9.035H1.129V17.949H29.363Zm0-4.517H1.129V14.561A.565.565,0,0,1,1.694,14H28.8a.565.565,0,0,1,.565.565Zm3.147-3.031h0l-2.018,2.018V14.561A1.694,1.694,0,0,0,28.8,12.866H21.458L26.921,7.4l5.586,5.586a.565.565,0,0,1,.169.4A.554.554,0,0,1,32.51,13.789Z" transform="translate(0 -0.516)"/><path class="a" d="M27.532,363.458a2.253,2.253,0,0,0,.231-.231,2.239,2.239,0,0,0,2.972.383,2.3,2.3,0,0,0,.98-1.861,2.259,2.259,0,0,0-2.259-2.259,1.71,1.71,0,0,0-.334.028l-.015,0h-.016a2.229,2.229,0,0,0-1.329.75,2.259,2.259,0,1,0-.231,3.186Zm1.782-2.827a.684.684,0,0,1,.143-.012,1.129,1.129,0,0,1,1.129,1.129,1.107,1.107,0,0,1-.222.662c-.02.028-.036.056-.059.085,0,0-.01.007-.014.012a1.123,1.123,0,1,1-.977-1.877Zm-3.245-.012a1.129,1.129,0,1,1-1.129,1.129A1.129,1.129,0,0,1,26.068,360.619Z" transform="translate(-22.116 -334.152)"/></g></g></g></svg>