<svg xmlns="http://www.w3.org/2000/svg" width="46.334" height="46.332" viewBox="0 0 46.334 46.332"><defs><style>.a{fill:#f5f5f5;}</style></defs><g transform="translate(0 -0.011)"><g transform="translate(0 0.011)"><g transform="translate(0 0)"><path class="a" d="M45.1,15.911,30.433,1.239a4.216,4.216,0,0,0-5.948,0L1.228,24.5a4.215,4.215,0,0,0,0,5.948l1.809,1.809h0L15.2,44.413H13.514a.965.965,0,0,0,0,1.93H32.819a.965.965,0,1,0,0-1.93H22.551L45.1,21.859A4.211,4.211,0,0,0,45.1,15.911Zm-1.365,4.583L20.483,43.75a2.259,2.259,0,0,1-1.606.662H18.87a2.258,2.258,0,0,1-1.605-.662L5.085,31.57,27.42,9.236a.965.965,0,1,0-1.365-1.365L3.72,30.205,2.593,29.078a2.285,2.285,0,0,1,0-3.218L25.849,2.6a2.285,2.285,0,0,1,3.218,0l5.222,5.222L11.955,30.161a.965.965,0,0,0,1.365,1.365L35.654,9.191l8.085,8.085A2.278,2.278,0,0,1,43.739,20.494Z" transform="translate(0 -0.011)"/><path class="a" d="M169.9,305.223a.965.965,0,0,0-1.365,0l-7.6,7.6a.965.965,0,1,0,1.365,1.365l7.6-7.6A.965.965,0,0,0,169.9,305.223Z" transform="translate(-146.119 -277.345)"/><path class="a" d="M194.224,384.9l-3.115,3.115a.965.965,0,1,0,1.365,1.365l3.115-3.115a.965.965,0,1,0-1.365-1.365Z" transform="translate(-173.557 -349.811)"/><path class="a" d="M253.1,353.224l-.409.409A.965.965,0,1,0,254.052,355l.41-.409a.965.965,0,0,0-1.365-1.365Z" transform="translate(-229.563 -321.003)"/><path class="a" d="M349.353,160.952a.965.965,0,0,0-1.365,0l-4.1,4.1a.965.965,0,0,0,0,1.365l2.73,2.73a.965.965,0,0,0,1.365,0l4.1-4.1a.965.965,0,0,0,0-1.365Zm-2.048,6.143-1.365-1.365,2.73-2.73,1.365,1.365Z" transform="translate(-312.514 -146.13)"/><path class="a" d="M310.638,56.667a.962.962,0,0,0,.683-.283l.409-.41a.965.965,0,1,0-1.365-1.365l-.41.41a.965.965,0,0,0,.683,1.648Z" transform="translate(-281.648 -49.411)"/><path class="a" d="M100.258,355.215l-.41.409a.965.965,0,0,0,1.365,1.365l.409-.409a.965.965,0,1,0-1.365-1.365Z" transform="translate(-90.556 -322.813)"/></g></g></g></svg>