<svg xmlns="http://www.w3.org/2000/svg" width="195.334" height="48.3" viewBox="0 0 195.334 48.3"><defs><style>.a,.b{fill:#01d35a;}.b{font-size:38px;font-family:Roboto-Regular, Roboto;}</style></defs><g transform="translate(-57.666 -27)"><g transform="translate(57.666 27)"><g transform="translate(16.65 16.476)"><ellipse class="a" cx="5.153" cy="5.141" rx="5.153" ry="5.141"/></g><path class="a" d="M98.459,116.233a23.166,23.166,0,0,0,11.381,2.731A21.338,21.338,0,0,0,122,114.619a23.5,23.5,0,0,0,6.578-8.179,18.889,18.889,0,0,0,2-8.8,20.5,20.5,0,0,0-5.516-14.3,21.614,21.614,0,0,0-21.04-6.74,21.2,21.2,0,0,0-16.8,18.82A42,42,0,0,0,87,101.651c.013,2.569.027,5.139.027,7.708.013,6.941-.013,3.673-.013,10.614v4.386c8.731-1,8.085-8.731,8.085-8.731.054-9.968.054-6.457.013-16.452A17.268,17.268,0,0,1,98.7,88.441a14.407,14.407,0,0,1,10.143-4.776,13.992,13.992,0,0,1,9.914,4.157,15.021,15.021,0,0,1,4.036,9.9,16.437,16.437,0,0,1-4.749,10.385,15.668,15.668,0,0,1-10.13,3.592C103.935,111.7,99.576,113.866,98.459,116.233Z" transform="translate(-86.982 -76.059)"/></g><text class="b" transform="translate(113 64)"><tspan x="0" y="0">PLUNES</tspan></text></g></svg>