<svg xmlns="http://www.w3.org/2000/svg" width="80.335" height="70.783" viewBox="0 0 80.335 70.783"><defs><style>.a{fill:#949494;}.b{fill:#58871f;}.c{fill:#639823;}.d{fill:#72a534;}.e{fill:#15505b;}.f{fill:#1c6b79;}.g{fill:#258ea1;}.h{fill:#cfe1e6;}.i{fill:#e8eeef;}.j{fill:#eaf4f7;}.k{fill:#f2fafc;}.l{fill:#d3dee2;}.m{fill:#bfced1;}.n{fill:#9fbbc1;}.o{fill:#cedce0;}.p{fill:#bacace;}.q{fill:#dce7ea;}.r{fill:#9fb6bc;}.s{fill:#f7fbfa;}.t{fill:#e2eef4;}.u{fill:#cadae0;}.v{fill:#aebfc1;}.w{fill:#b6d0d6;}.x{fill:#e2ebed;}.y{fill:#cadadd;}.z{fill:#a3bbc1;}.aa{fill:#bfbfbf;}.ab{fill:#94acb2;}.ac{fill:#d71711;}.ad{fill:#606060;}.ae{fill:gray;}.af{fill:#202020;}.ag{fill:#745432;}.ah{fill:#c1986a;}.ai{fill:#e8cba7;}.aj{fill:#d6b184;}.ak{fill:#a88150;}.al{fill:#146c6e;}.am{fill:#0e494a;}.an{fill:#1a8a8c;}.ao{fill:#0f5152;}.ap{fill:#1d8f91;}.aq{fill:#167173;}.ar{fill:#320b00;}.as{fill:#4b721a;}.at{fill:#2ba3b8;}.au{fill:#168da3;}</style></defs><g transform="translate(0 24.312)"><g transform="translate(0 0)"><path class="a" d="M146.619,706.467l-25.751,14.965L66.284,689.926l25.75-14.965Z" transform="translate(-66.284 -674.961)"/></g></g><g transform="translate(57.239 52.948)"><g transform="translate(0 0)"><g transform="translate(4.818 2.803)"><path class="b" d="M223.2,746.638v.426l-15.431,8.98v-.426Z" transform="translate(-207.768 -746.638)"/></g><g transform="translate(0 8.981)"><path class="c" d="M201.6,763.526v.426l-4.82-2.8v-.426Z" transform="translate(-196.783 -760.724)"/></g><path class="d" d="M217.031,743.051l-15.429,8.98-4.82-2.8,15.429-8.981Z" transform="translate(-196.783 -740.248)"/></g></g><g transform="translate(9.883 25.537)"><g transform="translate(0 0)"><g transform="translate(4.818 2.801)"><path class="b" d="M115.232,684.14v.426L99.8,693.548v-.426Z" transform="translate(-99.801 -684.14)"/></g><g transform="translate(0 8.98)"><path class="c" d="M93.635,701.032v.426l-4.819-2.8v-.426Z" transform="translate(-88.816 -698.229)"/></g><path class="d" d="M109.065,680.557l-15.429,8.981-4.82-2.8,15.429-8.981Z" transform="translate(-88.816 -677.755)"/></g></g><path class="e" d="M149.714,697.837l-.008,2.732-15.75,9.153.008-2.732Z" transform="translate(-104.274 -663.492)"/><path class="f" d="M115.682,708.137l-.008,2.732-14.284-8.259.007-2.732Z" transform="translate(-85.992 -664.637)"/><path class="g" d="M131.442,687.234l-15.75,9.153-14.284-8.259,15.746-9.18Z" transform="translate(-86.002 -652.888)"/><path class="e" d="M164.438,738,170.3,734.7l-.014,2.763-5.859,3.295Z" transform="translate(-121.378 -684.187)"/><path class="g" d="M132.235,719.381l6.149-3.346,14.133,8.136-6.15,3.344Z" transform="translate(-103.308 -673.708)"/><path class="f" d="M146.355,731.8l-.014,2.763-14.133-8.136.014-2.763Z" transform="translate(-103.293 -677.989)"/><g transform="translate(30.426 8.307)"><path class="h" d="M135.726,646.695l14.149-8.224-.075,26.237-14.149,8.223Z" transform="translate(-135.651 -638.471)"/></g><g transform="translate(17.876 1.02)"><path class="i" d="M107.04,630.081l14.149-8.223,12.623,7.288-14.15,8.223Z" transform="translate(-107.04 -621.858)"/></g><g transform="translate(17.804 9.242)"><path class="j" d="M119.574,647.892l-.074,26.237-12.623-7.288.075-26.237Z" transform="translate(-106.876 -640.604)"/></g><g transform="translate(18.795 31.118)"><path class="h" d="M109.144,690.616l.236-.137-.009,3.228-.236.137Z" transform="translate(-109.135 -690.479)"/></g><g transform="translate(18.796 34.347)"><path class="k" d="M109.136,697.977l.236-.137,4.907,2.833-.236.137Z" transform="translate(-109.136 -697.84)"/></g><g transform="translate(18.809 26.278)"><path class="h" d="M109.176,679.582l.236-.137-.009,3.228-.236.137Z" transform="translate(-109.167 -679.445)"/></g><g transform="translate(24.534 34.431)"><path class="h" d="M122.227,698.17l.236-.137-.009,3.228-.236.137Z" transform="translate(-122.218 -698.033)"/></g><g transform="translate(18.809 29.505)"><path class="k" d="M109.167,686.939l.236-.137,4.907,2.833-.236.137Z" transform="translate(-109.167 -686.802)"/></g><g transform="translate(24.534 37.66)"><path class="k" d="M122.218,705.53l.236-.137,4.907,2.833-.236.137Z" transform="translate(-122.218 -705.393)"/></g><g transform="translate(18.823 21.434)"><path class="h" d="M109.207,668.538l.236-.137-.009,3.228-.236.137Z" transform="translate(-109.198 -668.401)"/></g><g transform="translate(24.547 29.591)"><path class="h" d="M122.258,687.134l.236-.137-.009,3.228-.236.137Z" transform="translate(-122.249 -686.997)"/></g><g transform="translate(18.823 24.663)"><path class="k" d="M109.2,675.9l.236-.137,4.907,2.833-.236.137Z" transform="translate(-109.198 -675.761)"/></g><g transform="translate(24.548 32.818)"><path class="k" d="M122.25,694.492l.236-.137,4.907,2.833-.236.137Z" transform="translate(-122.25 -694.355)"/></g><g transform="translate(18.837 16.594)"><path class="h" d="M109.239,657.5l.236-.137-.009,3.228-.236.137Z" transform="translate(-109.23 -657.365)"/></g><g transform="translate(24.561 24.747)"><path class="h" d="M122.29,676.091l.236-.137-.009,3.228-.236.137Z" transform="translate(-122.281 -675.954)"/></g><g transform="translate(18.837 19.822)"><path class="k" d="M109.23,664.862l.236-.137,4.909,2.833-.236.137Z" transform="translate(-109.23 -664.725)"/></g><g transform="translate(24.561 27.976)"><path class="k" d="M122.281,683.452l.236-.137,4.907,2.833-.236.137Z" transform="translate(-122.281 -683.315)"/></g><g transform="translate(18.85 11.753)"><path class="h" d="M109.27,646.465l.236-.137-.009,3.228-.236.137Z" transform="translate(-109.261 -646.328)"/></g><g transform="translate(24.573 19.907)"><path class="h" d="M122.317,665.055l.236-.137-.009,3.228-.236.137Z" transform="translate(-122.307 -664.918)"/></g><g transform="translate(18.85 14.981)"><path class="k" d="M109.261,653.825l.236-.137,4.907,2.833-.236.137Z" transform="translate(-109.261 -653.688)"/></g><g transform="translate(24.575 23.134)"><path class="k" d="M122.312,672.414l.236-.137,4.907,2.833-.236.137Z" transform="translate(-122.312 -672.277)"/></g><g transform="translate(24.588 15.066)"><path class="h" d="M122.352,654.019l.236-.137-.009,3.228-.236.137Z" transform="translate(-122.343 -653.882)"/></g><g transform="translate(24.588 18.294)"><path class="k" d="M122.343,661.379l.236-.137,4.907,2.833-.236.137Z" transform="translate(-122.343 -661.242)"/></g><g transform="translate(17.876 9.105)"><path class="i" d="M107.04,640.429l.236-.137L119.9,647.58l-.236.137Z" transform="translate(-107.04 -640.292)"/></g><path class="l" d="M106.945,640.6l-.074,26.237,12.623,7.288.075-26.236Z" transform="translate(-89.069 -631.362)"/><g transform="translate(30.426 16.394)"><path class="h" d="M135.726,657.046l.236-.137-.074,26.237-.236.137Z" transform="translate(-135.652 -656.909)"/></g><path class="m" d="M109.8,628.462l12.983-7.49,10.778,6.229-12.983,7.49Z" transform="translate(-90.714 -620.341)"/><g transform="translate(20.454 0.791)"><path class="n" d="M124.7,621.336v.658l-11.785,6.792v-.658Z" transform="translate(-112.916 -621.336)"/></g><g transform="translate(32.239 0.791)"><path class="n" d="M149.034,626.681v.658l-9.249-5.345v-.658Z" transform="translate(-139.785 -621.336)"/></g><path class="o" d="M120.579,642.846l-10.78-6.228v.63h0l-.006,1.155,10.778,6.228.006-1.129h0Z" transform="translate(-90.709 -629.124)"/><path class="p" d="M147.356,633.736l-12.983,7.491v.627h0l-.006,1.155,12.98-7.487.006-1.126,0,0Z" transform="translate(-104.503 -627.506)"/><path class="q" d="M122.789,619.533l-12.983,7.491,10.78,6.228,12.983-7.491Zm-2.368,12.93-9.248-5.346,11.783-6.794,9.249,5.346Z" transform="translate(-90.717 -619.533)"/><g transform="translate(44.528 13.092)"><path class="r" d="M167.89,658.975l16.509-9.593-.088,30.344L167.8,689.319Z" transform="translate(-167.804 -649.382)"/></g><g transform="translate(30.462 4.919)"><path class="i" d="M135.734,640.342l16.508-9.593L166.4,638.92l-16.508,9.593Z" transform="translate(-135.734 -630.749)"/></g><g transform="translate(30.375 14.514)"><path class="j" d="M149.776,660.8l-.088,30.344-14.153-8.172.088-30.343Z" transform="translate(-135.535 -652.624)"/></g><g transform="translate(31.171 34.549)"><path class="h" d="M137.359,698.439l.236-.137-.008,2.754-.236.137Z" transform="translate(-137.351 -698.302)"/></g><g transform="translate(31.172 37.303)"><path class="s" d="M137.352,704.718l.236-.137,3.4,1.963-.236.137Z" transform="translate(-137.352 -704.581)"/></g><g transform="translate(31.18 31.322)"><path class="h" d="M137.38,691.08l.236-.137-.009,3.041-.236.137Z" transform="translate(-137.371 -690.943)"/></g><g transform="translate(31.18 34.363)"><path class="s" d="M137.371,698.014l.236-.137,3.4,1.963-.236.137Z" transform="translate(-137.371 -697.877)"/></g><g transform="translate(34.829 36.661)"><path class="h" d="M145.7,703.253l.236-.137-.008,2.755-.236.137Z" transform="translate(-145.69 -703.116)"/></g><g transform="translate(34.829 39.415)"><path class="s" d="M145.69,709.532l.236-.137,5.155,2.976-.236.137Z" transform="translate(-145.69 -709.395)"/></g><g transform="translate(31.189 31.135)"><path class="s" d="M137.392,690.654l.236-.137,3.4,1.964-.236.137Z" transform="translate(-137.392 -690.517)"/></g><g transform="translate(34.837 33.433)"><path class="h" d="M145.718,695.893l.236-.137-.009,3.041-.236.137Z" transform="translate(-145.709 -695.756)"/></g><g transform="translate(31.198 24.866)"><path class="h" d="M137.422,676.361l.236-.137-.009,3.041-.236.137Z" transform="translate(-137.413 -676.224)"/></g><g transform="translate(34.837 36.474)"><path class="s" d="M145.709,702.827l.236-.137,5.155,2.976-.236.137Z" transform="translate(-145.709 -702.69)"/></g><g transform="translate(40.24 39.785)"><path class="h" d="M158.036,710.377l.236-.137-.008,2.754-.236.137Z" transform="translate(-158.028 -710.239)"/></g><g transform="translate(31.199 27.906)"><path class="s" d="M137.415,683.293l.236-.137,3.4,1.964-.236.137Z" transform="translate(-137.415 -683.156)"/></g><g transform="translate(34.846 30.205)"><path class="h" d="M145.739,688.534l.236-.137-.009,3.041-.236.137Z" transform="translate(-145.73 -688.397)"/></g><g transform="translate(40.24 42.539)"><path class="s" d="M158.028,716.654l.236-.137,3.536,2.041-.236.137Z" transform="translate(-158.028 -716.517)"/></g><g transform="translate(31.208 21.64)"><path class="h" d="M137.442,669.006l.236-.137-.009,3.039-.236.137Z" transform="translate(-137.434 -668.869)"/></g><g transform="translate(34.846 33.247)"><path class="s" d="M145.73,695.469l.236-.137,5.155,2.976-.236.137Z" transform="translate(-145.73 -695.332)"/></g><g transform="translate(40.249 36.557)"><path class="h" d="M158.056,703.017l.236-.137-.009,3.042-.236.137Z" transform="translate(-158.047 -702.88)"/></g><g transform="translate(31.208 24.678)"><path class="s" d="M137.434,675.934l.236-.137,3.4,1.964-.236.137Z" transform="translate(-137.434 -675.797)"/></g><g transform="translate(34.856 26.977)"><path class="h" d="M145.76,681.174l.236-.137-.008,3.041-.236.137Z" transform="translate(-145.751 -681.037)"/></g><g transform="translate(40.249 39.598)"><path class="s" d="M158.047,709.95l.236-.137,3.536,2.042-.236.137Z" transform="translate(-158.047 -709.813)"/></g><g transform="translate(31.216 18.411)"><path class="h" d="M137.463,661.646l.236-.137-.009,3.039-.236.137Z" transform="translate(-137.454 -661.509)"/></g><g transform="translate(34.856 30.018)"><path class="s" d="M145.751,688.109l.236-.137,5.155,2.977-.236.137Z" transform="translate(-145.751 -687.972)"/></g><g transform="translate(40.258 33.329)"><path class="h" d="M158.076,695.657l.236-.137-.009,3.041-.236.137Z" transform="translate(-158.067 -695.52)"/></g><g transform="translate(31.217 21.451)"><path class="s" d="M137.455,668.575l.236-.137,3.4,1.964-.236.137Z" transform="translate(-137.455 -668.438)"/></g><g transform="translate(34.864 23.752)"><path class="h" d="M145.78,673.821l.236-.137-.009,3.039-.236.137Z" transform="translate(-145.771 -673.684)"/></g><g transform="translate(40.259 36.37)"><path class="s" d="M158.071,702.591l.236-.137,3.536,2.041-.236.137Z" transform="translate(-158.071 -702.454)"/></g><g transform="translate(31.226 15.61)"><path class="h" d="M137.482,655.26l.236-.137-.007,2.614-.236.137Z" transform="translate(-137.475 -655.123)"/></g><g transform="translate(34.865 26.791)"><path class="s" d="M145.772,680.75l.236-.137,5.155,2.976-.236.137Z" transform="translate(-145.772 -680.613)"/></g><g transform="translate(40.267 30.101)"><path class="h" d="M158.1,688.3l.236-.137-.009,3.041-.236.137Z" transform="translate(-158.088 -688.16)"/></g><g transform="translate(31.226 18.225)"><path class="s" d="M137.475,661.22l.236-.137,3.4,1.964-.236.137Z" transform="translate(-137.475 -661.083)"/></g><g transform="translate(34.872 20.523)"><path class="h" d="M145.8,666.46l.236-.137-.008,3.039-.236.137Z" transform="translate(-145.789 -666.323)"/></g><g transform="translate(40.267 33.142)"><path class="s" d="M158.088,695.231l.236-.137,3.536,2.041-.236.137Z" transform="translate(-158.088 -695.094)"/></g><g transform="translate(34.883 17.722)"><path class="h" d="M145.821,660.075l.236-.137-.007,2.614-.236.137Z" transform="translate(-145.814 -659.938)"/></g><g transform="translate(34.874 23.562)"><path class="s" d="M145.793,673.389l.236-.137,5.155,2.977-.236.137Z" transform="translate(-145.793 -673.252)"/></g><g transform="translate(40.276 26.875)"><path class="h" d="M158.117,680.943l.236-.137-.009,3.039-.236.137Z" transform="translate(-158.109 -680.806)"/></g><g transform="translate(40.276 29.915)"><path class="s" d="M158.109,687.872l.236-.137,3.536,2.041-.236.137Z" transform="translate(-158.109 -687.735)"/></g><g transform="translate(34.883 20.335)"><path class="s" d="M145.814,666.032l.236-.137,5.155,2.976-.236.137Z" transform="translate(-145.814 -665.895)"/></g><g transform="translate(40.285 23.647)"><path class="h" d="M158.138,673.582l.236-.137-.009,3.039-.236.137Z" transform="translate(-158.129 -673.445)"/></g><g transform="translate(40.285 26.686)"><path class="s" d="M158.13,680.512l.236-.137,3.536,2.041-.236.137Z" transform="translate(-158.13 -680.375)"/></g><g transform="translate(40.294 20.847)"><path class="h" d="M158.158,667.2l.236-.137-.007,2.614-.236.137Z" transform="translate(-158.151 -667.061)"/></g><g transform="translate(40.294 23.461)"><path class="s" d="M158.151,673.158l.236-.137,3.536,2.041-.236.137Z" transform="translate(-158.151 -673.021)"/></g><g transform="translate(30.462 14.379)"><path class="t" d="M135.734,652.452l.236-.137,14.151,8.17-.236.137Z" transform="translate(-135.734 -652.315)"/></g><path class="u" d="M135.622,652.627l-.088,30.344,14.151,8.17.088-30.343Z" transform="translate(-105.16 -638.111)"/><g transform="translate(44.525 22.548)"><path class="r" d="M167.884,671.078l.236-.137-.088,30.343-.236.137Z" transform="translate(-167.796 -670.941)"/></g><path class="e" d="M211.3,733.391l-.008,2.732-15.75,9.153.008-2.732Z" transform="translate(-138.85 -683.451)"/><path class="f" d="M181.037,745.878l-.008,2.732-11.343-6.549.008-2.733Z" transform="translate(-124.332 -686.784)"/><path class="g" d="M196.8,725.01l-15.75,9.153L169.7,727.614l15.75-9.153Z" transform="translate(-124.342 -675.07)"/><g transform="translate(57.083 23.089)"><path class="r" d="M196.5,680.4l14.149-8.223-.074,26.237-14.149,8.223Z" transform="translate(-196.427 -672.174)"/></g><g transform="translate(46.967 17.206)"><path class="i" d="M173.363,666.983l14.15-8.223,10.19,5.883-14.15,8.221Z" transform="translate(-173.363 -658.76)"/></g><g transform="translate(46.892 25.428)"><path class="j" d="M183.458,683.39l-.075,26.237-10.19-5.883.074-26.237Z" transform="translate(-173.193 -677.506)"/></g><path class="r" d="M197.491,683.2l.069,24.343,12.9-7.041-.069-24.343Z" transform="translate(-139.941 -651.323)"/><g transform="translate(47.99 47.365)"><path class="h" d="M175.706,727.657l.236-.137-.009,3.228-.236.137Z" transform="translate(-175.697 -727.52)"/></g><g transform="translate(47.99 50.596)"><path class="k" d="M175.7,735.023l.236-.137,3.584,2.067-.236.137Z" transform="translate(-175.697 -734.886)"/></g><g transform="translate(48.004 42.526)"><path class="h" d="M175.738,716.626l.236-.137-.009,3.228-.236.137Z" transform="translate(-175.729 -716.489)"/></g><g transform="translate(48.004 45.753)"><path class="k" d="M175.729,723.982l.236-.137,3.585,2.07-.236.137Z" transform="translate(-175.729 -723.845)"/></g><g transform="translate(52.409 53.143)"><path class="k" d="M185.77,740.83l.236-.137,3.585,2.07-.236.137Z" transform="translate(-185.77 -740.693)"/></g><g transform="translate(48.018 37.681)"><path class="h" d="M175.769,705.58l.236-.137L176,708.671l-.236.137Z" transform="translate(-175.76 -705.443)"/></g><g transform="translate(52.422 45.074)"><path class="h" d="M185.81,722.433l.236-.137-.009,3.228-.236.137Z" transform="translate(-185.801 -722.296)"/></g><g transform="translate(48.018 40.91)"><path class="k" d="M175.76,712.94,176,712.8l3.585,2.069-.236.137Z" transform="translate(-175.76 -712.803)"/></g><g transform="translate(52.422 48.304)"><path class="k" d="M185.8,729.8l.236-.137,3.585,2.069-.236.137Z" transform="translate(-185.801 -729.661)"/></g><g transform="translate(48.032 36.069)"><path class="k" d="M175.792,701.9l.235-.137,3.585,2.069-.236.137Z" transform="translate(-175.792 -701.767)"/></g><g transform="translate(52.45 35.391)"><path class="h" d="M185.873,700.358l.236-.137-.009,3.228-.236.137Z" transform="translate(-185.864 -700.221)"/></g><g transform="translate(48.045 31.225)"><path class="k" d="M175.822,690.86l.236-.137,3.585,2.069-.236.137Z" transform="translate(-175.822 -690.723)"/></g><g transform="translate(52.45 38.619)"><path class="k" d="M185.864,707.718l.236-.137,3.585,2.07-.236.137Z" transform="translate(-185.864 -707.581)"/></g><g transform="translate(52.463 30.55)"><path class="h" d="M185.9,689.321l.236-.137-.007,3.224-.236.137Z" transform="translate(-185.895 -689.184)"/></g><g transform="translate(52.463 33.776)"><path class="k" d="M185.9,696.676l.236-.137,3.585,2.07-.236.137Z" transform="translate(-185.895 -696.539)"/></g><g transform="translate(46.967 25.29)"><path class="i" d="M173.363,677.329l.236-.137,10.19,5.883-.236.137Z" transform="translate(-173.363 -677.192)"/></g><path class="u" d="M173.268,677.507l-.074,26.236,10.19,5.883.075-26.236Z" transform="translate(-126.302 -652.079)"/><g transform="translate(57.082 31.175)"><path class="r" d="M196.5,690.746l.236-.137-.074,26.237-.236.137Z" transform="translate(-196.426 -690.609)"/></g><g transform="translate(56.753 22.952)"><path class="i" d="M195.912,680.222l-.236-.137,14.243-8.223.236.137Z" transform="translate(-195.676 -671.862)"/></g><g transform="translate(56.753 31.175)"><path class="u" d="M195.986,716.981l-.236-.137-.074-26.237.236.137Z" transform="translate(-195.676 -690.608)"/></g><path class="m" d="M177.392,666.133l12.983-7.49,8.279,4.781-12.983,7.49Z" transform="translate(-128.658 -641.489)"/><g transform="translate(50.102 17.313)"><path class="n" d="M192.294,659.006v.658l-11.783,6.794V665.8Z" transform="translate(-180.511 -659.006)"/></g><g transform="translate(61.883 17.312)"><path class="n" d="M214.123,662.9v.658l-6.752-3.9V659Z" transform="translate(-207.371 -659.002)"/></g><path class="m" d="M185.67,679.064l-8.282-4.781v.63h0l-.006,1.155,8.279,4.781.006-1.129h0Z" transform="translate(-128.653 -650.269)"/><path class="v" d="M209.249,668.1,196.266,675.6v.627h0l-.006,1.155,12.983-7.49.006-1.125,0,0Z" transform="translate(-139.249 -646.801)"/><path class="q" d="M190.38,657.2,177.4,664.695l8.281,4.781,12.983-7.491Zm-4.869,11.481-6.75-3.9,11.783-6.794,6.75,3.9Z" transform="translate(-128.661 -640.681)"/><path class="w" d="M167.9,645.259l15.329-8.908-.015,5.445L167.886,650.7Z" transform="translate(-123.322 -628.974)"/><path class="x" d="M139.248,628.7l15.328-8.908,12.576,7.261-15.329,8.908Z" transform="translate(-107.245 -619.68)"/><path class="y" d="M151.8,647.367l-.015,5.444-12.576-7.261.015-5.445Z" transform="translate(-107.225 -631.083)"/><path class="z" d="M142.4,716.7l.366-.213-.012,4.265-.366.213" transform="translate(-109.006 -673.963)"/><path class="h" d="M142.42,712.276l.366-.213,0,1.491-.366.213Z" transform="translate(-109.023 -671.478)"/><path class="aa" d="M140.84,711.359l.366-.213.7.4-.366.213Z" transform="translate(-108.139 -670.963)"/><path class="z" d="M150.574,725.271l-.366.213.012-4.265.366-.213" transform="translate(-113.398 -676.498)"/><path class="l" d="M142.417,715.674l.366-.212,6.374,3.68-.366.212Z" transform="translate(-109.024 -673.386)"/><path class="z" d="M158.522,721.581l.366-.213-.018,6.207-.366.213" transform="translate(-118.055 -676.702)"/><path class="aa" d="M156.957,720.665l.366-.213.7.4-.366.213Z" transform="translate(-117.186 -676.187)"/><path class="ab" d="M163.913,723.629l1.754-1.02,0,1.235-1.754,1.02Z" transform="translate(-121.089 -677.398)"/><path class="l" d="M131.727,705.046l1.754-1.02,14.119,8.152-1.754,1.02Z" transform="translate(-103.023 -666.966)"/><path class="z" d="M145.842,714.5l0,1.235-14.119-8.152,0-1.234Z" transform="translate(-103.018 -668.271)"/><path class="e" d="M160.452,746.718l1.754-1.02,0,1.235-1.754,1.02Z" transform="translate(-119.146 -690.36)"/><path class="g" d="M128.266,728.133l1.754-1.02,14.119,8.152-1.755,1.02Z" transform="translate(-101.08 -679.927)"/><path class="f" d="M142.38,737.59l0,1.235-14.119-8.152,0-1.234Z" transform="translate(-101.075 -681.232)"/><path class="ac" d="M152.189,649.055l-.012,4.237-3.687-2.129.012-4.237Z" transform="translate(-112.433 -634.911)"/><path class="k" d="M152.215,650.786a2.108,2.108,0,0,1,.245.165l-.007,2.71a1.542,1.542,0,0,1-.239-.114,2.13,2.13,0,0,1-.244-.165l0-1.171-.789-.456,0,1.171a1.665,1.665,0,0,1-.239-.114,2.018,2.018,0,0,1-.245-.165l.008-2.709a1.6,1.6,0,0,1,.239.114,2.14,2.14,0,0,1,.245.165l0,1.064.79.456,0-1.064A1.6,1.6,0,0,1,152.215,650.786Z" transform="translate(-113.672 -636.601)"/><g transform="translate(43.029 53.566)"><g transform="translate(4.83 3.396)"><g transform="translate(1.451)"><path class="ad" d="M178.706,749.406l.084,0,.278.161-.084,0Z" transform="translate(-178.706 -749.402)"/></g><g transform="translate(0.992 0.003)"><path class="ae" d="M178.4,749.57l-.459,1.394-.278-.161.459-1.395Z" transform="translate(-177.66 -749.409)"/></g><g transform="translate(0 1.906)"><path class="ae" d="M175.4,753.747v.107l.276.161v-.108Z" transform="translate(-175.399 -753.747)"/></g><g transform="translate(0 1.318)"><path class="ad" d="M175.4,752.995l.276.16,1.068-.573-.326-.175Z" transform="translate(-175.399 -752.407)"/></g><path class="af" d="M177.565,749.768l-.084,0-.432,1.313-1.02.589v.107l1.072-.619.006,0,0,0Z" transform="translate(-175.753 -749.607)"/></g><g transform="translate(0 0)"><g transform="translate(0.446 3.596)"><g transform="translate(0.307 0.179)"><path class="af" d="M166.107,750.439l.3-.175,0,1.659-.3.175Z" transform="translate(-166.103 -750.264)"/></g><g transform="translate(0.003)"><path class="ag" d="M165.408,750.032l.3-.175.307.178-.3.175Z" transform="translate(-165.408 -749.857)"/></g><g transform="translate(0 0.175)"><path class="ad" d="M165.713,750.435l0,1.659-.307-.178,0-1.659Z" transform="translate(-165.402 -750.256)"/></g><g transform="translate(3.557 2.054)"><g transform="translate(0.307 0.179)"><path class="af" d="M174.215,755.122l.3-.175,0,1.659-.3.176Z" transform="translate(-174.211 -754.947)"/></g><g transform="translate(0.002)"><path class="ag" d="M173.516,754.715l.3-.175.307.178-.3.176Z" transform="translate(-173.516 -754.54)"/></g><g transform="translate(0 0.176)"><path class="ad" d="M173.822,755.119l0,1.659-.307-.178,0-1.658Z" transform="translate(-173.511 -754.941)"/></g></g><g transform="translate(4.678 1.28)"><g transform="translate(0.307 0.178)"><path class="af" d="M176.771,753.356l.3-.175,0,1.659-.3.175Z" transform="translate(-176.767 -753.181)"/></g><g transform="translate(0.002)"><path class="ag" d="M176.072,752.95l.3-.175.307.178-.3.175Z" transform="translate(-176.072 -752.775)"/></g><g transform="translate(0 0.175)"><path class="ad" d="M176.378,753.353l0,1.659-.307-.178,0-1.659Z" transform="translate(-176.067 -753.175)"/></g></g></g><g transform="translate(1.203 1.384)"><g transform="translate(1.451)"><path class="ad" d="M170.436,744.818l.084,0,.278.16-.084,0Z" transform="translate(-170.436 -744.814)"/></g><g transform="translate(0.992 0.002)"><path class="ae" d="M170.127,744.978l-.459,1.394-.278-.161.459-1.394Z" transform="translate(-169.39 -744.818)"/></g><g transform="translate(0 1.904)"><path class="ae" d="M167.129,749.155v.108l.276.161v-.107Z" transform="translate(-167.129 -749.155)"/></g><g transform="translate(0 1.316)"><path class="ad" d="M167.129,748.4l.276.16,1.068-.573-.327-.175Z" transform="translate(-167.129 -747.815)"/></g><path class="af" d="M169.3,745.176l-.084,0-.432,1.313-1.02.589v.108l1.072-.619.006,0,0,0Z" transform="translate(-167.483 -745.017)"/></g><g transform="translate(1.804)"><g transform="translate(0 1.602)"><g transform="translate(4.677 2.7)"><path class="ah" d="M179.34,751.473l.158-.007-.177.542-.158.007Z" transform="translate(-179.163 -751.466)"/></g><g transform="translate(0.179)"><path class="ai" d="M168.908,745.318l.158-.007,4.676,2.7-.158.007Z" transform="translate(-168.908 -745.311)"/></g><g transform="translate(0 0.007)"><path class="aj" d="M173.354,748.026l-.179.542-4.676-2.7.179-.542Z" transform="translate(-168.5 -745.326)"/></g></g><g transform="translate(0.264 0.803)"><g transform="translate(4.675 2.702)"><path class="ah" d="M179.938,749.655l.158-.006-.178.542-.158.007Z" transform="translate(-179.76 -749.649)"/></g><g transform="translate(0.178)"><path class="ai" d="M169.507,743.5l.158-.007,4.676,2.7-.158.006Z" transform="translate(-169.507 -743.489)"/></g><g transform="translate(0 0.007)"><path class="aj" d="M173.955,746.2l-.178.542-4.676-2.7.179-.542Z" transform="translate(-169.101 -743.505)"/></g></g><g transform="translate(0.527)"><g transform="translate(4.676 2.701)"><path class="ah" d="M180.54,747.825l.158-.007-.179.542-.158.006Z" transform="translate(-180.361 -747.818)"/></g><g transform="translate(0.178)"><path class="ai" d="M170.107,741.666l.158-.006,4.676,2.7-.158.007Z" transform="translate(-170.107 -741.659)"/></g><g transform="translate(0 0.009)"><path class="aj" d="M174.555,744.379l-.178.542-4.676-2.7.178-.542Z" transform="translate(-169.701 -741.68)"/></g></g></g><g transform="translate(0 2.623)"><g transform="translate(1.243)"><g transform="translate(4.674 2.7)"><path class="ak" d="M178.295,753.794v.2l-.419.243v-.2Z" transform="translate(-177.876 -753.794)"/></g><g transform="translate(0.001 0.244)"><path class="ah" d="M171.9,750.895v.2l-4.676-2.7v-.2Z" transform="translate(-167.222 -748.195)"/></g><path class="aj" d="M172.315,750.339l-.419.243-4.676-2.7.419-.243Z" transform="translate(-167.22 -747.639)"/></g><g transform="translate(0.618 0.364)"><g transform="translate(4.676 2.7)"><path class="ak" d="M176.873,754.623v.2l-.419.243v-.2Z" transform="translate(-176.454 -754.623)"/></g><g transform="translate(0 0.244)"><path class="ah" d="M170.47,751.724v.2l-4.676-2.7v-.2Z" transform="translate(-165.794 -749.025)"/></g><path class="aj" d="M170.889,751.168l-.419.243-4.676-2.7.418-.244Z" transform="translate(-165.794 -748.468)"/></g><g transform="translate(0 0.723)"><g transform="translate(4.676 2.699)"><path class="ak" d="M175.465,755.441v.2l-.419.244v-.2Z" transform="translate(-175.046 -755.441)"/></g><g transform="translate(0 0.243)"><path class="ah" d="M169.062,752.542v.2l-4.676-2.7v-.2Z" transform="translate(-164.386 -749.842)"/></g><path class="aj" d="M169.48,751.987l-.419.243-4.676-2.7.419-.243Z" transform="translate(-164.386 -749.287)"/></g></g></g></g><g transform="translate(21.254 40.837)"><g transform="translate(4.833 3.394)"><g transform="translate(1.451)"><path class="ad" d="M129.065,720.378l.084,0,.278.161-.084,0Z" transform="translate(-129.065 -720.375)"/></g><g transform="translate(0.992 0.004)"><path class="ae" d="M128.756,720.544l-.458,1.394-.279-.16.459-1.395Z" transform="translate(-128.019 -720.383)"/></g><g transform="translate(0 1.906)"><path class="ae" d="M125.758,724.72v.107l.276.161v-.107Z" transform="translate(-125.758 -724.72)"/></g><g transform="translate(0 1.318)"><path class="ad" d="M125.758,723.968l.276.16,1.068-.573-.327-.175Z" transform="translate(-125.758 -723.38)"/></g><path class="af" d="M127.924,720.741l-.084,0-.432,1.314-1.02.589v.108l1.072-.619.006,0,0,0Z" transform="translate(-126.112 -720.58)"/></g><g transform="translate(0.448 3.594)"><g transform="translate(0.307 0.179)"><path class="af" d="M116.465,721.414l.3-.175,0,1.658-.3.175Z" transform="translate(-116.461 -721.238)"/></g><g transform="translate(0.003)"><path class="ag" d="M115.767,721.007l.3-.175.307.178-.3.175Z" transform="translate(-115.767 -720.831)"/></g><g transform="translate(0 0.175)"><path class="ad" d="M116.072,721.409l0,1.659-.307-.178,0-1.659Z" transform="translate(-115.761 -721.231)"/></g><g transform="translate(3.557 2.053)"><g transform="translate(0.307 0.179)"><path class="af" d="M124.573,726.094l.3-.175,0,1.659-.3.175Z" transform="translate(-124.569 -725.919)"/></g><g transform="translate(0.002)"><path class="ag" d="M123.874,725.688l.3-.175.307.178-.3.175Z" transform="translate(-123.874 -725.512)"/></g><g transform="translate(0 0.176)"><path class="ad" d="M124.181,726.092l0,1.659-.307-.178,0-1.659Z" transform="translate(-123.87 -725.914)"/></g></g><g transform="translate(4.678 1.279)"><g transform="translate(0.307 0.179)"><path class="af" d="M127.131,724.331l.3-.175,0,1.659-.3.176Z" transform="translate(-127.127 -724.155)"/></g><g transform="translate(0.002)"><path class="ag" d="M126.431,723.923l.3-.175.307.178-.3.176Z" transform="translate(-126.431 -723.748)"/></g><g transform="translate(0 0.175)"><path class="ad" d="M126.737,724.326l0,1.659-.307-.178,0-1.659Z" transform="translate(-126.426 -724.148)"/></g></g></g><g transform="translate(1.204 1.379)"><g transform="translate(1.451)"><path class="ad" d="M120.793,715.787l.084,0,.279.16-.084,0Z" transform="translate(-120.793 -715.783)"/></g><g transform="translate(0.993 0.004)"><path class="ae" d="M120.486,715.953l-.458,1.395-.279-.161.459-1.394Z" transform="translate(-119.749 -715.793)"/></g><g transform="translate(0 1.906)"><path class="ae" d="M117.484,720.129v.108l.276.161v-.107Z" transform="translate(-117.484 -720.129)"/></g><g transform="translate(0 1.319)"><path class="ad" d="M117.484,719.378l.276.161,1.068-.573-.326-.175Z" transform="translate(-117.484 -718.79)"/></g><path class="af" d="M119.655,716.151l-.084,0-.432,1.314-1.02.589v.108l1.072-.619.006,0,0,0Z" transform="translate(-117.84 -715.99)"/></g><g transform="translate(1.805)"><g transform="translate(0 1.6)"><g transform="translate(4.678 2.699)"><path class="ah" d="M129.7,722.447l.158-.007-.178.542-.158.007Z" transform="translate(-129.52 -722.44)"/></g><g transform="translate(0.18)"><path class="ai" d="M119.266,716.293l.158-.007,4.676,2.7-.158.007Z" transform="translate(-119.266 -716.286)"/></g><g transform="translate(0 0.007)"><path class="aj" d="M123.711,719l-.179.542-4.677-2.7.178-.542Z" transform="translate(-118.855 -716.301)"/></g></g><g transform="translate(0.265 0.8)"><g transform="translate(4.675 2.7)"><path class="ah" d="M130.3,720.624l.158-.006-.179.542-.158.007Z" transform="translate(-130.118 -720.618)"/></g><g transform="translate(0.179)"><path class="ai" d="M119.866,714.47l.158-.007,4.676,2.7-.158.006Z" transform="translate(-119.866 -714.463)"/></g><g transform="translate(0 0.008)"><path class="aj" d="M124.313,717.179l-.178.542-4.676-2.7.178-.541Z" transform="translate(-119.459 -714.481)"/></g></g><g transform="translate(0.529)"><g transform="translate(4.676 2.699)"><path class="ah" d="M130.9,718.8l.158-.007-.178.542-.158.007Z" transform="translate(-130.72 -718.791)"/></g><g transform="translate(0.18)"><path class="ai" d="M120.471,712.645l.158-.007,4.676,2.7-.158.007Z" transform="translate(-120.471 -712.638)"/></g><g transform="translate(0 0.007)"><path class="aj" d="M124.914,715.352l-.178.542-4.676-2.7.179-.542Z" transform="translate(-120.06 -712.653)"/></g></g></g><g transform="translate(0 2.621)"><g transform="translate(1.245)"><g transform="translate(4.676 2.699)"><path class="ak" d="M128.659,724.768v.2l-.419.243v-.2Z" transform="translate(-128.24 -724.768)"/></g><g transform="translate(0 0.243)"><path class="ah" d="M122.255,721.869v.2l-4.676-2.7v-.2Z" transform="translate(-117.579 -719.169)"/></g><g transform="translate(0)"><path class="aj" d="M122.675,721.314l-.419.243-4.676-2.7.419-.244Z" transform="translate(-117.58 -718.614)"/></g></g><g transform="translate(0.619 0.361)"><g transform="translate(4.676 2.701)"><path class="ak" d="M127.232,725.6v.2l-.419.244v-.2Z" transform="translate(-126.813 -725.596)"/></g><g transform="translate(0 0.247)"><path class="ah" d="M120.828,722.7v.2l-4.676-2.7V720Z" transform="translate(-116.152 -720)"/></g><g transform="translate(0)"><path class="aj" d="M121.248,722.138l-.419.243-4.676-2.7.419-.243Z" transform="translate(-116.153 -719.438)"/></g></g><g transform="translate(0 0.722)"><g transform="translate(4.678 2.7)"><path class="ak" d="M125.824,726.415v.2l-.419.244v-.2Z" transform="translate(-125.405 -726.415)"/></g><g transform="translate(0 0.244)"><path class="ah" d="M119.418,723.515v.2l-4.677-2.7v-.2Z" transform="translate(-114.741 -720.816)"/></g><path class="aj" d="M119.836,722.96l-.419.243-4.677-2.7.419-.244Z" transform="translate(-114.74 -720.26)"/></g></g></g><g transform="translate(49.836 54.765)"><g transform="translate(0 4.989)"><g transform="translate(0.178 0.252)"><path class="al" d="M188.3,759.557h0l-.219.127-2.144,1.238v.008l-.157.091-.25.945.239.491.178-.1v0l1.653-.954.877-1.949Z" transform="translate(-183.242 -758.089)"/><path class="am" d="M180.312,757.805l2.519-1.464,2.541,1.468-2.519,1.464Z" transform="translate(-180.312 -756.341)"/><g transform="translate(0 1.464)"><path class="an" d="M180.312,759.678l2.541,1.467-.01,1.436-1.653-.954Z" transform="translate(-180.312 -759.678)"/></g></g><g transform="translate(2.72 1.568)"><path class="ao" d="M186.107,760.912l2.7-1.57v.439l-2.7,1.568Z" transform="translate(-186.107 -759.342)"/></g><path class="ap" d="M179.906,757.334l2.7-1.568,2.719,1.571-2.7,1.568Z" transform="translate(-179.906 -755.766)"/><g transform="translate(0 1.568)"><path class="aq" d="M182.626,760.911v.438l-2.719-1.57v-.439Z" transform="translate(-179.907 -759.341)"/></g></g><g transform="translate(0.509 5.284)"><path class="ar" d="M181.067,757.71l2.19-1.272,2.208,1.275-2.19,1.272Z" transform="translate(-181.067 -756.438)"/></g><g transform="translate(0.588)"><g transform="translate(0 3.688)"><path class="as" d="M185.621,753.708c0,.5-.7.908-1.572.908s-1.573-.406-1.573-.908.7-.908,1.573-.908S185.621,753.206,185.621,753.708Z" transform="translate(-181.937 -752.8)"/><path class="as" d="M185.5,754.786v-.063a1.608,1.608,0,0,0-.028-.2l-.011-.05,0-.01-.009-.035-.012-.044,0-.013v-.006l-.019-.06v0l0-.013h0c-.006-.018-.015-.041-.022-.058v.006l-.019-.047-.013-.028-.007-.015-.017-.037c-.015-.03-.036-.069-.052-.1l-.007-.012,0-.005-.036-.059-.044-.064-.007-.009-.016-.023-.056-.073-.024-.028,0,0-.029-.034-.02-.022-.008-.009-.066-.067-.031-.029-.035-.031-.039-.035-.077-.062a2.175,2.175,0,0,0-.2-.136h0l0,0h0l-.012-.007-.044-.026c-.04-.022-.071-.037-.158-.079l-.1-.042a1.713,1.713,0,0,1,.234.115h0a1.258,1.258,0,0,1,.141.1l0,0,.009.007,0,0,.01.008.005.005.008.007.009.008,0,0,0,0c.022.02.044.041.063.061l.014.016.008.01.01.012.012.016.007.01a.688.688,0,0,1,.04.058l.008.014.011.019.011.023.007.016c.008.018.015.036.022.054s.006.017.008.026.007.029.01.044a.614.614,0,0,1,.009.064v.015c0,.018,0,.035,0,.053a.5.5,0,0,1-.008.073.517.517,0,0,1-.015.058.608.608,0,0,1-.027.071c-.009.019-.018.037-.029.056a.689.689,0,0,1-.058.088l-.005.007-.023.028,0,0-.022.024-.022.022c-.01.01-.019.019-.03.028l-.026.023-.029.023-.034.026-.029.021-.035.023a.721.721,0,0,1-.074.044,1.7,1.7,0,0,1-.224.1l-.028.01-.036.012-.037.012a1.927,1.927,0,0,1-.2.058l-.088.017c-.044.008-.093.015-.139.021l-.088.009h-.017q-.053,0-.105.007l-.075,0h-.132c-.047,0-.095-.006-.142-.01h-.05l-.026,0-.026,0-.026,0-.026,0-.017,0c-.041-.006-.08-.014-.12-.023l-.017,0-.017,0-.018,0-.018,0-.019,0-.017,0-.018,0-.021-.006h-.007c-.047-.013-.092-.028-.137-.044l-.007,0-.01,0-.009,0-.008,0-.009,0-.008,0h0l-.01,0-.011,0-.01,0h-.012l-.008,0h-.005a1.726,1.726,0,0,1-.213-.1.872.872,0,0,1-.088-.06c-.016-.011-.03-.022-.044-.033l-.044-.035-.015-.014-.026-.024-.036-.036-.012-.014-.023-.028-.016-.021a.705.705,0,0,1-.063-.1c-.01-.018-.017-.036-.025-.054a.538.538,0,0,1-.026-.073v-.006c0-.017-.008-.035-.01-.052a.537.537,0,0,1-.007-.076v-.057a.538.538,0,0,1,.013-.075.459.459,0,0,1,.015-.056.579.579,0,0,1,.033-.075c.007-.014.014-.028.022-.044l.014-.021c.015-.022.031-.043.047-.064l.023-.029.025-.028a.821.821,0,0,1,.071-.065l.008-.008.012-.01.021-.018.017-.013a1.427,1.427,0,0,1,.141-.093l.024-.013a1.746,1.746,0,0,1,.19-.088c-.037.016-.088.037-.151.067l-.026.012-.1.052-.05.031-.069.044-.039.025-.028.021-.036.026-.02.014c-.018.014-.039.031-.06.048l-.041.034-.009.007-.072.067-.014.015-.03.03-.044.044-.062.071c-.022.027-.05.065-.072.093l-.019.027-.012.017-.021.031-.047.076-.008.014,0,.005-.044.079-.008.018-.021.044-.016.035-.01.025c-.007.018-.014.035-.021.053v0c0,.01-.007.021-.011.033a1.613,1.613,0,0,0-.074.314l0,.021v.026c0,.026,0,.052-.007.075v.112a1.7,1.7,0,0,0,.01.175c0,.019.006.039.009.058h0v.017l0,.012a.214.214,0,0,0,0,.029c0,.021.01.044.014.063s0,.022.008.033v.006h0l0,.015c0,.018.011.036.017.054s.013.044.021.065.012.03.018.043.015.041.024.06l0,.008,0,.01c.007.017.016.033.024.05a.433.433,0,0,0,.023.044c0,.008.007.016.012.024a1.642,1.642,0,0,0,.121.191l.007.011.011.013c.029.039.055.071.076.1l0,0,0,0c.025.03.044.049.044.049.029.03.057.058.088.088l.014.015.016.013c.027.025.056.05.088.076l0,0,.006,0c.03.023.062.048.1.074l.023.017.024.015.092.059h0l.054.032.041.022.023.012.023.011h0c.026.013.055.027.088.04l.033.016.014.005.022.008.094.037.032.01h0l.083.027c.036.011.083.023.119.033l.113.025.113.019.111.013.109.009.109,0h.109a.27.27,0,0,0,.044,0l.066,0c.026,0,.059-.006.088-.009h.024l.029,0,.07-.01h.018c.068-.012.111-.022.112-.022l.114-.028.028-.009.078-.024.022-.007.03-.011.088-.032a1.166,1.166,0,0,0,.129-.057h0l.009,0h0c.044-.02.078-.039.117-.061l.08-.048.075-.048.1-.069a1.928,1.928,0,0,0,.175-.15c.028-.028.06-.061.091-.094l.008-.008.036-.044.024-.028.013-.017,0,0,.034-.044c.01-.013.021-.029.032-.044l0-.006.007-.011c.022-.033.044-.067.069-.11h0a1.573,1.573,0,0,0,.1-.195v-.01a.922.922,0,0,0,.044-.126v0l.01-.033,0-.008,0-.014v0h0a1.037,1.037,0,0,0,.031-.132c0-.015,0-.028.007-.044l.006-.029a.07.07,0,0,1,0,.017c0-.03.009-.06.012-.088v-.04c0-.044,0-.088.006-.12A.253.253,0,0,0,185.5,754.786Z" transform="translate(-181.247 -752.997)"/></g><g transform="translate(0.398 2.581)"><path class="b" d="M185.707,751.013c0,.408-.573.739-1.28.739s-1.279-.331-1.279-.739.572-.739,1.279-.739S185.707,750.605,185.707,751.013Z" transform="translate(-182.712 -750.275)"/><path class="b" d="M185.609,751.9v-.051a1.238,1.238,0,0,0-.023-.167l-.008-.041v-.008a.123.123,0,0,0-.007-.029l-.009-.034,0-.01v0l-.016-.049v0l0-.01h0c0-.014-.012-.034-.018-.048v.006l-.015-.038-.01-.023-.006-.011-.014-.03c-.012-.024-.029-.056-.044-.08l-.006-.009,0,0-.029-.048c-.011-.016-.023-.034-.036-.052l-.006-.008-.013-.019-.044-.059-.02-.023h0l-.024-.027-.016-.018-.006-.007-.054-.055-.025-.023-.029-.026-.032-.028-.063-.05a1.76,1.76,0,0,0-.164-.111h0l-.01-.006-.037-.021c-.032-.018-.058-.03-.128-.065l-.079-.034a1.329,1.329,0,0,1,.19.094h0a1.012,1.012,0,0,1,.115.08l0,0,.007.006,0,0,.008.007,0,0,.006.006.007.007,0,0h0c.018.017.036.033.051.05l.011.013.007.008.008.01.01.013.006.009c.011.015.023.031.032.047l.006.012a.134.134,0,0,1,.008.015l.009.019.006.013c.007.015.013.029.018.044s0,.015.007.021.005.023.008.035a.429.429,0,0,1,.007.052v.012a.365.365,0,0,1,0,.044.469.469,0,0,1-.007.059.425.425,0,0,1-.012.047.558.558,0,0,1-.022.058.454.454,0,0,1-.023.044.574.574,0,0,1-.047.071l0,.006-.019.023v0l-.018.02-.018.018-.025.023-.021.018-.023.019-.028.021-.024.017-.028.019-.06.037a1.338,1.338,0,0,1-.182.083l-.022.009-.03.01-.03.01c-.054.017-.107.035-.163.047l-.072.013-.114.017-.07.007h-.014l-.088.006h-.167c-.039,0-.077-.005-.115-.008h-.041l-.021,0-.022,0-.021,0-.021,0h-.014c-.033,0-.065-.011-.1-.018l-.014,0-.014,0-.014,0-.014,0-.015,0-.014,0-.015,0-.018,0h-.006c-.038-.011-.075-.023-.111-.036h-.006l-.008,0-.007,0-.007,0-.007,0h-.007l-.008,0-.008,0-.008,0h-.009l-.007,0h0a1.329,1.329,0,0,1-.173-.085.838.838,0,0,1-.073-.048c-.013-.009-.024-.018-.036-.027l-.036-.029-.013-.012-.021-.02c-.01-.009-.02-.019-.029-.03l-.01-.011-.019-.022-.013-.018a.58.58,0,0,1-.051-.079c-.007-.015-.014-.029-.021-.044a.565.565,0,0,1-.021-.06v0a.427.427,0,0,1-.008-.044.407.407,0,0,1-.006-.061.414.414,0,0,1,0-.046.469.469,0,0,1,.011-.061c0-.015.007-.03.012-.044a.442.442,0,0,1,.027-.061c.006-.012.011-.023.018-.035l.011-.017c.011-.018.025-.035.038-.052l.019-.023c.007-.008.013-.016.021-.023s.037-.036.057-.053l.007-.006.009-.008.018-.015.013-.01a1.069,1.069,0,0,1,.115-.076l.019-.01a1.4,1.4,0,0,1,.155-.073c-.03.012-.072.03-.123.055l-.021.01-.079.044-.041.025-.056.035-.032.02-.023.017-.029.021-.016.011-.049.039-.033.028-.007.006-.059.054-.012.012-.024.024-.036.038-.05.058-.058.076-.015.022-.01.014-.018.026c-.012.018-.025.041-.038.061l-.006.011,0,0-.034.064-.007.015c-.006.012-.011.023-.017.035l-.013.029-.008.021c-.006.014-.012.029-.017.044v0l-.008.026a1.311,1.311,0,0,0-.06.256l0,.017v.021c0,.021,0,.044,0,.061v.091a1.394,1.394,0,0,0,.008.141.287.287,0,0,0,.007.047h0v.024a.045.045,0,0,0,0,.023c0,.018.007.034.011.052s0,.018.007.027v0h0l0,.012.014.044c0,.015.011.035.017.052l.015.037c0,.012.012.033.019.049v.006l0,.008.02.041.019.038c.007.013.006.013.01.02a1.4,1.4,0,0,0,.1.155l.006.009.008.011c.023.031.044.058.062.078l0,0v0c.021.025.036.04.036.04l.07.07.012.012.012.011c.021.02.044.041.071.062l0,0,0,0c.024.019.051.039.081.061l.018.014.019.012.075.049h0l.044.026.033.018.019.01.019.01h0c.021.011.044.022.07.033l.027.013.011,0,.018.008.076.03.025.008h0l.067.022.1.027.092.02.092.016.088.011.088.007.088,0h.122l.054,0c.021,0,.048,0,.071-.007h.019l.024,0,.057-.009h.014c.056-.01.09-.018.091-.018l.093-.023.023-.007.063-.02.018-.005.025-.009.071-.026a1.006,1.006,0,0,0,.1-.046h0l.007,0h0c.034-.016.063-.032.1-.049s.044-.025.065-.039.044-.027.061-.039l.078-.056a1.554,1.554,0,0,0,.143-.122c.022-.022.049-.049.074-.077l.007-.007.029-.034c.007-.007.014-.015.02-.023l.01-.014,0,0,.028-.037.025-.035,0,0,.006-.009c.018-.027.036-.054.057-.088h0a1.317,1.317,0,0,0,.078-.158v-.008c.013-.031.026-.065.038-.1v0c0-.009.005-.018.008-.027v-.007l0-.011h0a.9.9,0,0,0,.025-.107.187.187,0,0,1,.006-.035l0-.023,0,.014c0-.025.007-.049.01-.07v-.033c0-.036,0-.07,0-.1A.131.131,0,0,0,185.609,751.9Z" transform="translate(-182.154 -750.444)"/></g><g transform="translate(0.775 1.791)"><path class="c" d="M185.787,749.053c0,.319-.448.578-1,.578s-1-.259-1-.578.448-.578,1-.578S185.787,748.734,185.787,749.053Z" transform="translate(-183.448 -748.475)"/><path class="c" d="M185.715,749.744v-.04a1.017,1.017,0,0,0-.018-.132l-.007-.032v-.006l-.006-.023c0-.01,0-.018-.007-.027l0-.008v0c0-.016-.009-.028-.013-.038h0l0-.008h0c0-.012-.01-.026-.014-.038v0l-.012-.03-.008-.018,0-.01-.011-.024c-.009-.019-.023-.044-.033-.062l0-.008v0l-.023-.038-.028-.04,0-.006-.01-.015-.036-.044-.015-.018h0l-.019-.021-.013-.014,0-.005-.044-.044-.02-.018-.022-.02-.025-.022-.049-.039a1.274,1.274,0,0,0-.128-.088h0l-.008,0-.029-.017c-.025-.014-.044-.024-.1-.051l-.061-.026a1,1,0,0,1,.149.073h0a.777.777,0,0,1,.088.063h0l.005,0,0,0,.006.005,0,0,0,0,.006.005,0,0h0c.014.013.028.026.04.039l.008.01.005.007.006.008.008.01,0,.007c.009.013.018.024.026.037l0,.009.007.012.007.016,0,.01a.3.3,0,0,1,.014.035.083.083,0,0,0,0,.017.18.18,0,0,1,.006.027.322.322,0,0,1,.006.041v.043a.273.273,0,0,1-.005.046.263.263,0,0,1-.009.036.388.388,0,0,1-.017.044l-.018.035a.4.4,0,0,1-.037.056l0,0-.015.017h0l-.014.015-.014.014-.019.019-.017.014-.018.015-.022.017-.019.013-.022.015-.047.029a1.105,1.105,0,0,1-.142.065l-.018.007-.023.008-.024.008a1.3,1.3,0,0,1-.127.037l-.056.011-.088.014-.055.006h-.01c-.022,0-.044,0-.067,0h-.13c-.03,0-.06,0-.09-.007h-.11l-.076-.014-.01,0-.011,0h-.011l-.011,0-.012,0-.011,0-.011,0-.014,0h0c-.03-.008-.059-.018-.088-.028h0l-.006,0h-.021l-.007,0-.007,0-.006,0h-.015a1.006,1.006,0,0,1-.136-.066.664.664,0,0,1-.057-.038l-.028-.021-.028-.023-.01-.009-.017-.015-.023-.023-.008-.009-.015-.017-.01-.013a.491.491,0,0,1-.04-.063.322.322,0,0,1-.015-.034.353.353,0,0,1-.017-.046v0c0-.011,0-.022-.007-.033a.347.347,0,0,1,0-.048c0-.012,0-.024,0-.036a.345.345,0,0,1,.008-.048.323.323,0,0,1,.01-.036.469.469,0,0,1,.021-.048c0-.009.009-.018.014-.026l.008-.014a.494.494,0,0,1,.03-.041l.015-.018.016-.018a.591.591,0,0,1,.044-.041l0-.005.007-.006.014-.011.01-.008a.909.909,0,0,1,.088-.059l.015-.008a1.178,1.178,0,0,1,.121-.058c-.023.01-.057.024-.1.044l-.017.008-.062.033-.032.02-.044.027-.025.016-.018.013-.023.016-.013.009-.038.031-.026.022-.006,0-.047.044-.009.009-.019.019-.029.03-.039.044c-.014.017-.032.042-.044.059l-.012.017-.007.011-.014.019c-.009.014-.02.033-.029.049l-.005.008v0l-.026.05-.006.012c0,.009-.008.018-.013.028l-.01.022-.006.016-.014.034h0a.086.086,0,0,1-.007.021,1.006,1.006,0,0,0-.047.2v.029c0,.016,0,.033,0,.047v.072a1.013,1.013,0,0,0,.007.11.285.285,0,0,0,.006.037h0v.018a.038.038,0,0,0,0,.018c0,.013.006.026.009.04l0,.021v0h0l0,.01c0,.011.007.022.011.034s.008.027.014.041l.011.029c0,.01.01.026.015.038v0l0,.007c0,.01.01.022.015.032s.009.02.014.03,0,.01.007.015a1.058,1.058,0,0,0,.077.122l0,.007.007.008c.018.024.035.044.049.061v0h0l.027.031.055.055.009.009.01.009.056.048,0,0,0,0c.019.015.04.031.063.047l.014.011.015.01.059.038h0l.035.02.026.014.014.007.015.008h0l.054.025.021.01.008,0,.014.006.06.023.02.007h0l.053.017.076.021.072.016.072.012.071.008c.021,0,.049,0,.07.005l.069,0h.1l.044,0a.544.544,0,0,0,.056-.006h.015l.019,0,.044-.007h.011c.044-.007.071-.014.071-.014l.072-.019.018-.005.05-.015.014,0,.019-.008.055-.021a.793.793,0,0,0,.082-.036h0l.006,0h0c.027-.013.049-.025.074-.039l.051-.031.048-.03.061-.044a1.238,1.238,0,0,0,.112-.1c.018-.017.038-.038.058-.06l0-.005.023-.027.015-.018.008-.011v0l.021-.029.02-.027,0,0,0-.007c.014-.021.028-.044.044-.07h0a.976.976,0,0,0,.061-.123V750.2c.01-.024.02-.051.029-.08v0l.006-.02v-.005l0-.009h0a.609.609,0,0,0,.019-.083.181.181,0,0,1,0-.027l0-.019v.011c0-.02.006-.038.007-.055v-.026c0-.028,0-.055,0-.077A.145.145,0,0,0,185.715,749.744Z" transform="translate(-183.015 -748.606)"/></g><path class="d" d="M185.827,746.719V746.7h0v-.012a.318.318,0,0,0-.007-.039l0,.01c0-.014-.005-.027-.009-.041-.06-.194-.083-.269-.1-.337v-.005c0-.01-.006-.02-.009-.03-.014-.044-.027-.092-.041-.14s-.028-.1-.041-.141l-.041-.137-.04-.135-.04-.131c-.012-.038-.028-.088-.04-.127l-.04-.122-.026-.078h0l-.014-.039-.04-.11-.03-.079,0-.013-.006-.016-.04-.1c-.011-.026-.026-.058-.038-.085v0l0-.008-.011-.023-.006-.013-.021-.044c-.014-.026-.033-.06-.047-.088l-.009-.014v0l-.025-.04a.571.571,0,0,0-.117-.132l-.022-.015-.013-.007-.012-.006-.011,0-.009,0-.008,0h0l-.015,0h-.045l-.018,0h0l-.009,0-.01,0-.012.005-.012.006a.167.167,0,0,0-.025.017l-.012.008-.018.015,0,0-.017.016-.039.044h0l-.025.034,0,0-.011.017a5.518,5.518,0,0,0-.482,1.243v0l-.018.059-.007.022-.017.056c-.012.04-.028.093-.04.135v.007h0l-.044.153-.019.064-.02.065-.036.117,0,.014c-.011.034-.022.068-.033.1a.335.335,0,0,0-.012.1v.015a.353.353,0,0,0,.023.1l.007.018a.45.45,0,0,0,.058.095l.013.014a.636.636,0,0,0,.1.092h0a.785.785,0,0,0,.075.05l.014.009h0a1.291,1.291,0,0,0,.347.129,1.649,1.649,0,0,0,.567.019h.01c.036-.005.071-.01.105-.018h0A1.062,1.062,0,0,0,185.7,747h0l0,0c.009-.008.016-.017.025-.026l.014-.015.006-.007h0l0,0c.007-.008.012-.017.018-.026l.013-.018h0a.025.025,0,0,1,.006-.011l.01-.018a.163.163,0,0,0,.007-.015h0v0l0-.011.008-.02,0-.007h0v0a.1.1,0,0,0,0-.015.105.105,0,0,1,.006-.022h0v-.008l0-.014v-.019h0v-.02Z" transform="translate(-182.735 -744.391)"/></g></g><g transform="translate(15.166 34.797)"><g transform="translate(0 4.986)"><g transform="translate(0.18 0.252)"><path class="al" d="M109.261,714.025h0l-.219.127-2.144,1.238v.008l-.157.091-.25.945.239.491.178-.1v0l1.653-.954.877-1.949Z" transform="translate(-104.201 -712.556)"/><path class="am" d="M101.272,712.271l2.519-1.464,2.541,1.467-2.519,1.464Z" transform="translate(-101.272 -710.807)"/><g transform="translate(0 1.464)"><path class="an" d="M101.272,714.145l2.541,1.467-.011,1.436-1.653-.954Z" transform="translate(-101.272 -714.145)"/></g></g><g transform="translate(2.722 1.57)"><path class="ao" d="M107.067,715.381l2.7-1.568v.439l-2.7,1.568Z" transform="translate(-107.067 -713.813)"/></g><path class="ap" d="M100.862,711.8l2.7-1.568,2.719,1.57-2.7,1.568Z" transform="translate(-100.862 -710.233)"/><g transform="translate(0 1.568)"><path class="aq" d="M103.582,715.378v.439l-2.719-1.57v-.438Z" transform="translate(-100.863 -713.808)"/></g></g><g transform="translate(0.511 5.282)"><path class="ar" d="M102.026,712.181l2.19-1.272,2.208,1.274-2.19,1.272Z" transform="translate(-102.026 -710.909)"/></g><g transform="translate(0.594 0)"><g transform="translate(0 3.685)"><path class="as" d="M106.581,708.175c0,.5-.7.908-1.572.908s-1.572-.407-1.572-.908.7-.908,1.572-.908S106.581,707.674,106.581,708.175Z" transform="translate(-102.901 -707.267)"/><path class="as" d="M106.462,709.254v-.063a1.532,1.532,0,0,0-.028-.2l-.01-.05,0-.011c0-.011-.006-.023-.009-.035l-.012-.044,0-.012v-.005c-.007-.025-.014-.044-.019-.06v0l0-.013h0c-.006-.018-.015-.041-.022-.059v.007c-.006-.016-.013-.033-.019-.047l-.013-.028-.007-.015-.017-.037c-.015-.03-.036-.069-.052-.1l-.007-.011,0-.005-.036-.059-.044-.063-.007-.01-.016-.023-.056-.073-.025-.028v0l-.03-.034-.019-.022-.008-.009-.066-.067-.031-.029-.035-.031-.039-.035-.077-.061a2.082,2.082,0,0,0-.2-.136h0l0,0h0l-.012-.007-.044-.026c-.039-.022-.071-.037-.158-.079l-.1-.041a1.633,1.633,0,0,1,.234.115h0a1.257,1.257,0,0,1,.141.1l0,0,.009.007,0,0,.01.009.005,0,.008.007.009.008,0,0,0,0c.022.02.044.041.063.061l.014.016.008.01.01.013a.107.107,0,0,1,.012.016l.008.01a.6.6,0,0,1,.04.057l.008.014.011.019.011.023.007.016c.008.018.016.036.022.054s.006.017.008.026.007.029.01.044a.46.46,0,0,1,.009.064v.067a.568.568,0,0,1-.008.073c0,.019-.009.038-.014.057a.593.593,0,0,1-.027.071.57.57,0,0,1-.029.057.8.8,0,0,1-.058.088l-.005.007-.023.028,0,0-.022.024-.022.023-.03.028-.026.023-.029.023-.034.026-.029.021-.035.023a.7.7,0,0,1-.074.044,1.664,1.664,0,0,1-.223.1l-.028.01-.036.012-.037.012a1.923,1.923,0,0,1-.2.058l-.088.017c-.044.008-.093.015-.139.021l-.088.009h-.017l-.105.007-.075,0h-.129c-.047,0-.094-.006-.142-.01h-.05l-.026,0-.027,0-.026,0-.026,0h-.017c-.041-.006-.08-.015-.12-.023l-.016,0-.018,0-.018,0-.018,0-.019,0-.016,0-.018,0-.021-.005h-.007c-.047-.013-.092-.028-.137-.044l-.008,0-.01,0-.009,0-.009,0-.008,0-.008,0h0l-.01,0-.011,0-.01,0h-.005l-.006,0-.008,0h0a1.7,1.7,0,0,1-.213-.1.9.9,0,0,1-.088-.059l-.044-.034-.044-.036-.016-.014-.026-.024-.036-.036-.012-.014-.024-.027-.016-.021a.71.71,0,0,1-.063-.1q-.014-.027-.025-.055a.515.515,0,0,1-.026-.073v-.006a.507.507,0,0,1-.011-.052.535.535,0,0,1-.007-.075c0-.019,0-.038,0-.057a.474.474,0,0,1,.013-.075.52.52,0,0,1,.015-.056.577.577,0,0,1,.032-.074c.007-.014.014-.028.023-.044l.014-.021a.725.725,0,0,1,.047-.064l.023-.028.025-.029c.022-.023.046-.044.071-.065l.008-.008.011-.01.021-.017.016-.013a1.321,1.321,0,0,1,.141-.092l.024-.013a1.683,1.683,0,0,1,.19-.088c-.037.015-.088.037-.151.067l-.027.012-.1.052-.05.031c-.023.013-.044.028-.069.044l-.039.025-.029.02-.036.026-.02.015-.06.048-.041.034-.009.007-.072.067-.014.015-.03.03-.044.044-.062.071c-.022.027-.05.065-.072.092l-.019.027-.012.017-.021.031-.046.076-.008.014,0,.005-.044.078-.008.019c-.007.015-.014.028-.02.044l-.016.035-.01.025-.021.053v0c0,.009-.007.021-.011.032a1.611,1.611,0,0,0-.074.314l0,.02v.027c0,.025,0,.052-.006.075v.112a1.666,1.666,0,0,0,.011.175.448.448,0,0,0,.009.058h0v.017l0,.012a.126.126,0,0,0,0,.029c0,.021.01.044.014.063s0,.022.007.033v.006h0l0,.015c.005.018.011.036.017.054s.014.044.021.065.012.03.018.044.015.04.024.06l0,.008,0,.01.025.05c.008.017.015.031.023.046s.008.016.012.024a1.662,1.662,0,0,0,.121.191v.005l.01.013c.029.039.055.071.076.1l0,0,0,0c.025.03.044.049.044.049.029.029.057.058.088.088l.015.015.016.014c.026.025.055.05.088.076l0,0,.006,0c.03.024.063.049.1.074l.023.017.024.016.093.059h0l.054.032.041.022.023.012.023.012h0c.026.013.055.026.088.039l.033.016.014.005.022.009.094.037.031.01h0l.083.028.119.033.114.025.113.019.111.013.109.009.109,0h.153l.066,0c.026,0,.059-.005.088-.009h0l.019,0,.029,0,.07-.01h.018c.069-.012.111-.022.112-.022l.114-.028.028-.008.078-.024.022-.007.03-.012.088-.032c.044-.017.087-.036.129-.056h0l.009,0h0c.044-.021.078-.04.117-.061s.052-.031.08-.048l.076-.047.095-.069a1.935,1.935,0,0,0,.175-.15c.029-.027.06-.061.091-.094l.008-.008.036-.044c.008-.009.018-.019.024-.027l.013-.018,0,0,.034-.044c.011-.013.021-.029.031-.044l0-.006.007-.011c.022-.033.044-.067.07-.11h0a1.706,1.706,0,0,0,.1-.194v-.01a1.086,1.086,0,0,0,.044-.126v0l.01-.033,0-.008,0-.015v0h0a.963.963,0,0,0,.03-.132c0-.015,0-.028.007-.044l.006-.029a.076.076,0,0,1,0,.017c0-.03.009-.06.012-.088v-.04c0-.044,0-.088.006-.121A.209.209,0,0,0,106.462,709.254Z" transform="translate(-102.217 -707.465)"/></g><g transform="translate(0.392 2.577)"><path class="b" d="M106.666,705.48c0,.408-.573.739-1.279.739s-1.279-.331-1.279-.739.573-.738,1.279-.738S106.666,705.073,106.666,705.48Z" transform="translate(-103.67 -704.742)"/><path class="b" d="M106.566,706.366v-.051a1.255,1.255,0,0,0-.023-.167l-.008-.041V706.1a.106.106,0,0,0-.007-.028l-.01-.034,0-.01v0l-.015-.049v0l0-.011h0l-.018-.048v.005l-.015-.038-.01-.023-.006-.012-.014-.03c-.012-.024-.029-.056-.044-.079l-.006-.01,0,0-.029-.049-.036-.052-.005-.008-.014-.019-.044-.059-.02-.023h0l-.024-.027-.016-.018-.007-.007-.054-.055-.025-.023-.029-.026-.032-.028-.063-.051a1.7,1.7,0,0,0-.163-.111h0l-.01-.006-.037-.021c-.032-.018-.058-.03-.129-.065l-.079-.033a1.376,1.376,0,0,1,.19.094h0a1,1,0,0,1,.115.08l0,0,.007.006,0,0,.008.007,0,0,.006.005.007.007,0,0h0c.018.017.036.033.052.05l.011.013.007.008.008.01.01.013.006.009c.011.015.023.031.032.047l.006.011.008.016.009.019.006.013c.007.014.012.029.018.044a.172.172,0,0,1,.007.022l.008.034a.417.417,0,0,1,.007.052v.012a.5.5,0,0,1-.008.1.423.423,0,0,1-.012.047.392.392,0,0,1-.022.058.376.376,0,0,1-.023.044.6.6,0,0,1-.047.071l0,.006-.019.022,0,0-.018.02-.018.018-.024.023-.022.019-.023.018-.028.022-.024.017-.028.018c-.02.013-.039.026-.06.038a1.452,1.452,0,0,1-.182.083l-.023.009-.03.01-.03.01c-.054.018-.107.035-.163.048l-.072.014c-.037.007-.075.012-.113.017l-.07.007h-.014l-.085.006h-.167c-.039,0-.077-.005-.115-.008h-.084l-.021,0-.021,0h-.014c-.033,0-.065-.011-.1-.018l-.014,0-.014,0-.014,0-.014,0-.015,0-.014,0-.014,0-.018,0H104.3c-.038-.01-.075-.023-.111-.036h-.007l-.008,0-.007,0-.007,0-.007,0h-.007l-.008,0-.009,0-.008,0h-.009l-.007,0h0a1.356,1.356,0,0,1-.175-.085c-.026-.015-.05-.032-.073-.048s-.024-.018-.036-.027l-.036-.029-.013-.012-.021-.019-.029-.029-.01-.011-.019-.023-.014-.017a.644.644,0,0,1-.051-.079c-.007-.014-.014-.029-.02-.044a.48.48,0,0,1-.021-.06v-.005a.362.362,0,0,1-.008-.044.405.405,0,0,1-.006-.061.43.43,0,0,1,0-.047.406.406,0,0,1,.01-.061.364.364,0,0,1,.012-.044.614.614,0,0,1,.027-.061c.006-.012.011-.023.018-.034l.011-.018c.012-.017.025-.035.039-.052l.019-.023c.007-.008.013-.016.021-.023a.715.715,0,0,1,.057-.053l.007-.006.01-.008.017-.014.014-.011a1.131,1.131,0,0,1,.114-.075l.019-.01a1.4,1.4,0,0,1,.155-.073c-.03.012-.072.03-.123.054l-.022.01-.079.044-.041.025-.056.035-.032.02-.023.017-.029.021-.016.012-.049.039-.033.027-.007.006-.059.055-.012.012-.024.025-.036.037-.05.058-.058.076-.015.022-.01.014-.018.025c-.012.018-.025.041-.038.062l-.006.011,0,0-.034.064a.131.131,0,0,0-.007.015l-.016.035-.013.029-.008.021-.017.044v0c0,.008-.006.017-.009.026a1.311,1.311,0,0,0-.06.256l0,.016v.022a.6.6,0,0,1-.005.061v.091a1.268,1.268,0,0,0,.008.141.285.285,0,0,0,.007.047h0v.024a.049.049,0,0,0,0,.023c0,.017.008.033.012.051a.1.1,0,0,0,.007.027v0h0l0,.012c0,.015.009.029.014.044s.011.035.017.052.01.025.014.037.012.033.019.049l0,.006,0,.008c.006.014.013.027.02.041l.018.038c.007.013.006.013.01.02a1.454,1.454,0,0,0,.1.155l.006.009.008.01c.023.032.044.058.062.078l0,0,0,0,.036.039c.023.024.044.047.07.071l.012.012.013.011c.021.02.044.04.071.062l0,0,0,0c.025.019.051.039.081.061l.019.013.019.012.075.049h0l.044.025.033.018.019.01.019.01h0l.07.032.027.013.011,0,.018.007.076.03.025.008h0l.068.022.1.026.093.02.092.015.088.011.088.007.088,0h.088l.034,0,.054,0a.628.628,0,0,0,.072-.007h.019l.024,0,.057-.008h.014c.056-.01.09-.018.091-.018l.093-.023.023-.007.063-.019.018-.006.025-.009.071-.026a1.042,1.042,0,0,0,.1-.044h0l.007,0h0l.1-.05c.021-.012.044-.025.065-.039l.061-.039.078-.056a1.67,1.67,0,0,0,.143-.122c.023-.022.049-.049.074-.076l.007-.007.03-.034.019-.022.011-.015,0,0,.028-.036.025-.035,0,0,.006-.009c.018-.026.036-.054.057-.088h0a1.233,1.233,0,0,0,.078-.158v-.009c.013-.031.026-.065.038-.1v0c0-.009.006-.018.008-.027l0-.007,0-.012h0a.9.9,0,0,0,.025-.107c0-.012,0-.023.006-.034l0-.023a.025.025,0,0,1,0,.014c0-.024.007-.049.009-.071v-.033c0-.036,0-.07,0-.1A.167.167,0,0,0,106.566,706.366Z" transform="translate(-103.11 -704.91)"/></g><g transform="translate(0.775 1.788)"><path class="c" d="M106.747,703.52c0,.319-.448.578-1,.578s-1-.258-1-.578.448-.578,1-.578S106.747,703.2,106.747,703.52Z" transform="translate(-104.412 -702.942)"/><path class="c" d="M106.68,704.212v-.041a1.009,1.009,0,0,0-.018-.131l-.006-.032V704a.082.082,0,0,0-.006-.022l-.007-.027v-.011c0-.016-.009-.029-.012-.038v0l0-.008h0l-.014-.037v0l-.012-.03-.008-.018,0-.009-.011-.023-.033-.062,0-.007v0l-.023-.038-.028-.041,0-.006-.011-.015-.036-.044-.015-.018h0l-.019-.022-.012-.013,0-.006-.044-.044-.019-.018-.022-.02-.025-.022-.049-.04a1.474,1.474,0,0,0-.128-.088h0l-.007,0-.029-.017c-.025-.014-.044-.024-.1-.05l-.061-.027a1.045,1.045,0,0,1,.149.073h0a.824.824,0,0,1,.088.063l0,0,.005.005,0,0,.006.006,0,0,0,0,.006.005,0,0h0c.014.013.028.025.04.039l.008.01.005.006.006.008a.108.108,0,0,0,.007.01l0,.007c.009.012.018.025.025.037l0,.009.007.012a.146.146,0,0,1,.007.015l0,.01c0,.011.01.023.014.034l.005.017c0,.006,0,.018.006.027a.32.32,0,0,1,.006.041v.043a.3.3,0,0,1-.015.083.379.379,0,0,1-.017.044c-.005.012-.012.024-.018.036a.435.435,0,0,1-.037.055l0,0-.014.018h0l-.014.015-.014.014-.019.018-.017.015-.018.015-.022.016-.018.014-.022.015c-.015.01-.03.02-.047.029a1.042,1.042,0,0,1-.142.065l-.018.007-.023.008-.023.007c-.044.013-.083.027-.128.037l-.056.011-.088.013c-.018,0-.036,0-.055.006h-.011c-.022,0-.044,0-.067,0h-.13c-.03,0-.06,0-.09-.006h-.083l-.017,0h-.01l-.076-.014h-.022l-.011,0-.011,0-.012,0-.011,0-.011,0-.014,0h0c-.03-.008-.059-.018-.088-.028h0l-.007,0h-.021l-.007,0-.007,0-.007,0h-.015a1.062,1.062,0,0,1-.136-.067.64.64,0,0,1-.057-.038l-.028-.021-.028-.023-.01-.009-.017-.015-.023-.023-.008-.009-.015-.017-.011-.014a.434.434,0,0,1-.039-.062c-.007-.012-.011-.024-.016-.035a.365.365,0,0,1-.017-.047v0c0-.011,0-.022-.007-.033a.353.353,0,0,1,0-.048.251.251,0,0,1,0-.036.255.255,0,0,1,.008-.048.248.248,0,0,1,.01-.036.309.309,0,0,1,.021-.047c0-.009.009-.018.014-.027l.009-.013c.009-.014.019-.028.03-.041l.015-.018.016-.018c.014-.014.029-.028.044-.041l.005-.005.007-.006.014-.012.01-.008a.83.83,0,0,1,.088-.059l.015-.008a1.11,1.11,0,0,1,.121-.057c-.023.01-.056.023-.1.044l-.017.008-.062.033-.032.019-.044.028-.025.015-.018.013-.023.016-.012.009-.039.03-.026.021-.006,0-.046.044-.009.009-.019.02-.029.029-.039.044c-.014.018-.032.041-.044.059l-.012.017-.007.01-.014.02-.029.048,0,.009v0l-.027.05-.006.012c0,.009-.008.018-.013.027l-.01.022-.007.016-.013.034h0l-.007.021a1.01,1.01,0,0,0-.047.2v.03c0,.016,0,.033,0,.047v.071a1.024,1.024,0,0,0,.006.111.266.266,0,0,0,.006.037h0v.019a.039.039,0,0,0,0,.018c0,.013.006.027.009.04s0,.014,0,.021v0h0l0,.01c0,.011.007.023.01.034s.008.028.013.041.008.02.011.029l.015.038v.005l0,.006c0,.011.01.021.015.032s.009.02.014.03l.008.016a1.1,1.1,0,0,0,.077.122l0,.007.007.008c.018.024.035.044.049.061v0h0c.016.019.028.031.028.031.018.019.036.037.054.055l.01.009.01.009c.017.015.035.032.056.048l0,0,0,0c.019.016.04.031.064.048l.014.01.015.01.059.038h0l.034.02.026.014.015.008.015.007h0l.055.025.021.01.008,0,.014.006.06.023.02.007h0l.053.018.076.021.072.016.072.012.07.009.07.005h.165l.044,0,.056-.005h.015l.019,0a.191.191,0,0,0,.044-.007h.011c.044-.007.071-.014.072-.014l.072-.018.018-.005.05-.015.014,0,.019-.007.056-.021a.836.836,0,0,0,.082-.036h0l.006,0h0c.027-.013.049-.025.074-.039l.051-.031.048-.03.061-.044a1.292,1.292,0,0,0,.112-.1l.057-.06,0-.005.023-.027.015-.018.008-.011v0l.022-.029.02-.028,0,0,0-.007c.014-.021.028-.044.044-.07h0a.973.973,0,0,0,.061-.123v-.006c.01-.025.02-.052.029-.08v0a.2.2,0,0,0,.007-.021v-.005l0-.009h0a.689.689,0,0,0,.019-.084.135.135,0,0,1,0-.027l0-.018a.016.016,0,0,1,0,.011c0-.019.006-.038.007-.055v-.026c0-.029,0-.055,0-.077A.146.146,0,0,0,106.68,704.212Z" transform="translate(-103.984 -703.073)"/></g><path class="d" d="M106.783,701.191v-.022h0v-.011a.306.306,0,0,0-.007-.04l0,.01a.327.327,0,0,0-.009-.041c-.06-.194-.083-.269-.1-.337v0l-.009-.03c-.013-.044-.027-.093-.04-.14l-.041-.141-.041-.138-.04-.135-.04-.132-.04-.128-.04-.121-.027-.078h0l-.014-.04-.039-.11-.03-.079,0-.012-.007-.016-.039-.1c-.011-.026-.025-.058-.038-.085v0l0-.008-.011-.023-.007-.012-.021-.044-.047-.088-.009-.015,0,0-.025-.04a.55.55,0,0,0-.119-.125l-.022-.015-.014-.007-.012-.006-.01,0-.01,0-.008,0h0l-.015,0H105.8l-.018,0h0l-.009,0-.01,0-.012.005-.012.006a.213.213,0,0,0-.025.017l-.012.008-.018.015,0,0-.016.016-.039.044h0c-.008.01-.017.022-.025.034l0,0-.011.017a5.492,5.492,0,0,0-.482,1.242h0l-.018.059-.007.022-.017.056c-.012.04-.028.093-.039.135v.006h0c-.017.057-.032.107-.044.152-.007.022-.013.044-.019.063l-.02.065-.036.116,0,.014-.032.1a.327.327,0,0,0-.012.1v.014a.333.333,0,0,0,.023.1.051.051,0,0,0,.007.018.421.421,0,0,0,.058.095l.012.014a.642.642,0,0,0,.1.092h0a.789.789,0,0,0,.075.05l.014.008h0a1.312,1.312,0,0,0,.347.129,1.657,1.657,0,0,0,.567.019h.01c.035-.005.071-.011.1-.018h0a1.071,1.071,0,0,0,.482-.233h0l0,0c.009-.008.016-.017.025-.026l.014-.015.006-.007h0l0,0,.018-.026.013-.018h0s0-.007.006-.01l.01-.019a.125.125,0,0,0,.007-.016h0v0l0-.011.008-.02,0-.006h0v0h0a.028.028,0,0,1,0-.014.093.093,0,0,0,.006-.022h0v-.008a.029.029,0,0,1,0-.014s0-.009,0-.014v-.005h0V701.2S106.782,701.194,106.783,701.191Z" transform="translate(-103.695 -698.866)"/></g></g><path class="at" d="M137.517,681.06v-8l12.6,7.277v8Z" transform="translate(-106.273 -649.581)"/><path class="au" d="M109.368,657.524V654.3l4.916,2.833v3.228Z" transform="translate(-90.471 -639.048)"/><path class="au" d="M120.664,693.027V689.8l4.916,2.833v3.228Z" transform="translate(-96.812 -658.979)"/><path class="au" d="M175.813,691.219v2.854l7.939,4.635.065-2.869Z" transform="translate(-127.772 -659.776)"/><path class="au" d="M176.62,723.5v2.854l7.939,4.635.065-2.869Z" transform="translate(-128.225 -677.896)"/></svg>