<svg xmlns="http://www.w3.org/2000/svg" width="76" height="76"><g transform="translate(.692 1.075)"><circle cx="37" cy="37" r="37" transform="translate(.308 -.075)" fill="none" stroke="#e6e6e6" stroke-width="2"/><path d="M49.714 20.751a5.007 5.007 0 0 0-7.081 0l-19.85 19.85a1.112 1.112 0 0 0-.286.49l-2.61 9.424a1.112 1.112 0 0 0 1.369 1.37l9.424-2.611a1.112 1.112 0 0 0 .49-.286l19.85-19.851a5.012 5.012 0 0 0 0-7.081zM25.207 41.324l16.249-16.246 5.239 5.239-16.249 16.247zm-1.051 2.1l4.186 4.186-5.79 1.6zm25.29-15.86l-1.18 1.18-5.24-5.24 1.18-1.18a2.781 2.781 0 0 1 3.933 0l1.306 1.306a2.786 2.786 0 0 1 .001 3.934zm0 0" fill="#818181"/></g></svg>