<svg xmlns="http://www.w3.org/2000/svg" width="76" height="76" viewBox="0 0 76 76"><defs><style>.a{fill:none;stroke:#e6e6e6;stroke-width:2px;}.b{fill:#818181;}</style></defs><g transform="translate(0.692 1.075)"><g transform="translate(0 0)"><g transform="translate(0 0)"><g transform="translate(0)"><circle class="a" cx="37" cy="37" r="37" transform="translate(0.308 -0.075)"/><g transform="translate(-88.344 19.024)"><path class="b" d="M138.058,1.727a5.007,5.007,0,0,0-7.081,0l-19.85,19.85a1.112,1.112,0,0,0-.286.49l-2.61,9.424a1.112,1.112,0,0,0,1.369,1.37l9.424-2.611a1.112,1.112,0,0,0,.49-.286l19.85-19.851a5.012,5.012,0,0,0,0-7.081ZM113.551,22.3,129.8,6.054l5.239,5.239L118.79,27.54ZM112.5,24.4l4.186,4.186-5.79,1.6ZM137.79,8.54l-1.18,1.18-5.24-5.24,1.18-1.18a2.781,2.781,0,0,1,3.933,0l1.306,1.306A2.786,2.786,0,0,1,137.79,8.54Zm0,0" transform="translate(0)"/></g></g></g></g></g></svg>