<svg xmlns="http://www.w3.org/2000/svg" width="170.998" height="171" viewBox="0 0 170.998 171"><defs><style>.a{fill:silver;}.b{fill:#a8a8a8;}</style></defs><path class="a" d="M85.5,171A85.5,85.5,0,1,1,171,85.5,85.487,85.487,0,0,1,85.5,171Zm0,0"/><path class="b" d="M124.516,316c-24.878,0-48.6,10.875-65.934,34.39a85.494,85.494,0,0,0,132.477-.745C182.649,341.28,163.707,316,124.516,316Zm0,0" transform="translate(-39.017 -210.461)"/><path class="b" d="M196.059,131.137A30.092,30.092,0,0,1,166,101.078V91.059a30.059,30.059,0,1,1,60.117,0v10.02A30.093,30.093,0,0,1,196.059,131.137Zm0,0" transform="translate(-110.559 -40.627)"/></svg>