<svg xmlns="http://www.w3.org/2000/svg" width="57.797" height="52.543" viewBox="0 0 57.797 52.543"><defs><style>.a{fill:#0e9347;}.b{fill:#0d8944;}.c{fill:#3bb54a;}.d{fill:#ffca5d;}.e{fill:#f6b545;}.f{fill:#ffcb5b;}.g{fill:#ffe27a;}.h{fill:#f19920;}.i{fill:#e78825;}.j{fill:#89c763;}</style></defs><g transform="translate(0 -23.272)"><path class="a" d="M55.17,57.425H2.627A2.635,2.635,0,0,1,0,54.8V25.9a2.635,2.635,0,0,1,2.627-2.627H55.17A2.635,2.635,0,0,1,57.8,25.9V54.8A2.635,2.635,0,0,1,55.17,57.425Z" transform="translate(0 0)"/><path class="b" d="M266.413,232.727a8.792,8.792,0,0,0-7.356,3.809,9.8,9.8,0,0,0-4.466-1.182,9.191,9.191,0,0,0-9.064,7.881h27.454A2.672,2.672,0,0,0,275.608,241,9.357,9.357,0,0,0,266.413,232.727Z" transform="translate(-217.811 -185.811)"/><path class="c" d="M70.562,75.444H28.527a5.27,5.27,0,0,0-5.254-5.254V51.8a5.27,5.27,0,0,0,5.254-5.254H70.562A5.27,5.27,0,0,0,75.816,51.8V70.19A5.27,5.27,0,0,0,70.562,75.444Z" transform="translate(-20.646 -20.647)"/><g transform="translate(10.509 28.526)"><path class="a" d="M272.607,232.727a8.792,8.792,0,0,0-7.356,3.809,9.8,9.8,0,0,0-4.466-1.182,9.023,9.023,0,0,0-8.275,5.254H273.92a5.242,5.242,0,0,1,5.123-5.254A9.5,9.5,0,0,0,272.607,232.727Z" transform="translate(-234.513 -214.337)"/><ellipse class="a" cx="10.509" cy="11.822" rx="10.509" ry="11.822" transform="translate(7.881 0)"/><circle class="a" cx="2.627" cy="2.627" r="2.627" transform="translate(0 9.195)"/><circle class="a" cx="2.627" cy="2.627" r="2.627" transform="translate(31.526 9.195)"/></g><circle class="d" cx="9.195" cy="9.195" r="9.195" transform="translate(24.958 49.544)"/><circle class="e" cx="9.195" cy="9.195" r="9.195" transform="translate(36.78 46.916)"/><path class="f" d="M335.013,232.727a9.2,9.2,0,1,0,9.2,9.2A9.138,9.138,0,0,0,335.013,232.727Zm0,15.763a6.568,6.568,0,1,1,6.568-6.568A6.5,6.5,0,0,1,335.013,248.49Z" transform="translate(-289.038 -185.811)"/><path class="e" d="M407.273,323.246h0a9.028,9.028,0,0,0,9.2-9.064h-.131a1.4,1.4,0,0,0-1.314,1.182,7.943,7.943,0,0,1-2.5,4.729,7.443,7.443,0,0,1-4.072,1.97A1.177,1.177,0,0,0,407.273,323.246Z" transform="translate(-361.298 -258.071)"/><path class="g" d="M335.013,233.867h0a9.028,9.028,0,0,0-9.195,9.064h.131a1.4,1.4,0,0,0,1.313-1.182,7.942,7.942,0,0,1,2.5-4.729,7.443,7.443,0,0,1,4.072-1.97A1.177,1.177,0,0,0,335.013,233.867Z" transform="translate(-289.038 -186.82)"/><path class="h" d="M350.01,263.487a6.5,6.5,0,0,1,6.568-6.568,6.2,6.2,0,0,1,4.2,1.576,6.547,6.547,0,0,0-11.691,4.072,6.3,6.3,0,0,0,2.364,4.991A6.16,6.16,0,0,1,350.01,263.487Z" transform="translate(-309.684 -206.456)"/><path class="f" d="M437.537,313.093a.482.482,0,0,1-.394-.131.635.635,0,0,1,0-.919,4.385,4.385,0,0,0,1.182-3.021.657.657,0,1,1,1.314,0,6.066,6.066,0,0,1-1.445,3.941A1.427,1.427,0,0,1,437.537,313.093Z" transform="translate(-387.621 -252.909)"/><g transform="translate(36.911 49.544)"><path class="h" d="M396.951,287.155a1.241,1.241,0,0,1-1.314-1.314v-5.254a1.314,1.314,0,0,1,2.627,0v5.254A1.241,1.241,0,0,1,396.951,287.155Z" transform="translate(-387.887 -276.647)"/><path class="h" d="M340.9,270.318a10.673,10.673,0,0,0-6.305-7.093A10.982,10.982,0,0,0,329.608,256a9.5,9.5,0,0,0-2.627,6.437,9.139,9.139,0,0,0,9.2,9.2A7.618,7.618,0,0,0,340.9,270.318Z" transform="translate(-326.981 -256)"/></g><g transform="translate(39.407 51.251)"><path class="i" d="M351.454,280.98a6.911,6.911,0,0,1-1.576-4.2,6.359,6.359,0,0,1,2.1-4.729,5.723,5.723,0,0,0-.788-.919,6.435,6.435,0,0,0-2.1,4.86A6.3,6.3,0,0,0,351.454,280.98Z" transform="translate(-349.09 -271.128)"/><path class="i" d="M395.636,321.164V323a1.314,1.314,0,0,0,2.627,0v-.263A10.737,10.737,0,0,0,395.636,321.164Z" transform="translate(-390.382 -315.516)"/></g><path class="e" d="M339.873,271.349a8.4,8.4,0,0,0-1.051-2.5,6.356,6.356,0,0,1-3.809,1.314,6.5,6.5,0,0,1-6.568-6.568,6.436,6.436,0,0,1,2.1-4.86,8.016,8.016,0,0,0-2.1-1.576,9.5,9.5,0,0,0-2.627,6.436,9.138,9.138,0,0,0,9.195,9.2A8.807,8.807,0,0,0,339.873,271.349Z" transform="translate(-289.038 -207.487)"/><path class="h" d="M411.738,372.364a9.082,9.082,0,0,1-3.284,1.313,1.4,1.4,0,0,0-1.182,1.314h0a8.809,8.809,0,0,0,4.86-1.445Z" transform="translate(-361.297 -309.685)"/><path class="f" d="M328.445,257.164a9.5,9.5,0,0,0-2.627,6.436h.131a1.4,1.4,0,0,0,1.313-1.182,8.174,8.174,0,0,1,2.365-4.6A5.325,5.325,0,0,1,328.445,257.164Z" transform="translate(-289.038 -207.489)"/><circle class="e" cx="9.195" cy="9.195" r="9.195" transform="translate(24.958 49.544)"/><path class="h" d="M290.909,323.376A9.1,9.1,0,0,0,291.3,326h.919a9.164,9.164,0,0,0,8.8-11.822H300.1A9.138,9.138,0,0,0,290.909,323.376Z" transform="translate(-258.07 -258.07)"/><path class="f" d="M230.285,256a9.2,9.2,0,1,0,9.2,9.2A9.138,9.138,0,0,0,230.285,256Zm0,15.763a6.568,6.568,0,1,1,6.568-6.568A6.5,6.5,0,0,1,230.285,271.763Z" transform="translate(-196.132 -206.456)"/><path class="e" d="M302.545,346.519h0a9.028,9.028,0,0,0,9.195-9.064h-.131a1.4,1.4,0,0,0-1.313,1.182,7.943,7.943,0,0,1-2.5,4.729,7.444,7.444,0,0,1-4.072,1.97A1.177,1.177,0,0,0,302.545,346.519Z" transform="translate(-268.392 -278.716)"/><path class="g" d="M230.285,257.14h0a9.028,9.028,0,0,0-9.2,9.064h.131a1.4,1.4,0,0,0,1.314-1.182,7.941,7.941,0,0,1,2.5-4.729,7.442,7.442,0,0,1,4.072-1.97A1.177,1.177,0,0,0,230.285,257.14Z" transform="translate(-196.132 -207.465)"/><path class="h" d="M245.283,286.76a6.5,6.5,0,0,1,6.568-6.568,6.2,6.2,0,0,1,4.2,1.576,6.548,6.548,0,0,0-11.691,4.072,6.3,6.3,0,0,0,2.364,4.992A6.161,6.161,0,0,1,245.283,286.76Z" transform="translate(-216.778 -227.102)"/><path class="f" d="M332.81,336.365a.483.483,0,0,1-.394-.131.635.635,0,0,1,0-.92,4.383,4.383,0,0,0,1.182-3.021.657.657,0,0,1,1.314,0,6.065,6.065,0,0,1-1.445,3.941A1.428,1.428,0,0,1,332.81,336.365Z" transform="translate(-294.716 -273.554)"/><g transform="translate(24.009 34.288)"><path class="j" d="M81.743,3.207a.313.313,0,0,0-.231-.09H79.793a3.48,3.48,0,0,0-.643-1.448h2.342a.309.309,0,0,0,.322-.322V.322A.309.309,0,0,0,81.492,0H73.128a.31.31,0,0,0-.322.322V1.659a.326.326,0,0,0,.322.322h1.458q2.121,0,2.694,1.136H73.128a.31.31,0,0,0-.322.322V4.463a.31.31,0,0,0,.322.322H77.42A1.964,1.964,0,0,1,76.39,6.042a4.537,4.537,0,0,1-2.136.432H73.128a.326.326,0,0,0-.322.322V8.072a.3.3,0,0,0,.09.221q1.93,2.051,5.006,5.74a.3.3,0,0,0,.251.121h1.96a.292.292,0,0,0,.292-.181.275.275,0,0,0-.04-.342q-2.935-3.6-4.614-5.388a5.1,5.1,0,0,0,2.775-1.106,3.758,3.758,0,0,0,1.3-2.352h1.689a.31.31,0,0,0,.322-.322V3.438A.313.313,0,0,0,81.743,3.207Z" transform="translate(-72.806 0)"/></g><path class="h" d="M292.223,310.428a1.241,1.241,0,0,1-1.314-1.314v-5.254a1.314,1.314,0,1,1,2.627,0v5.254A1.241,1.241,0,0,1,292.223,310.428Z" transform="translate(-258.07 -247.749)"/><g transform="translate(31.526 56.111)"><path class="e" d="M298.266,314.313a7.68,7.68,0,0,1,.525,2.5,6.5,6.5,0,0,1-6.568,6.568,4.466,4.466,0,0,1-1.314-.131v.131A9.1,9.1,0,0,0,291.3,326h.919a9.164,9.164,0,0,0,8.8-11.822h-.919A8.681,8.681,0,0,0,298.266,314.313Z" transform="translate(-289.596 -314.181)"/><circle class="e" cx="9.195" cy="9.195" r="9.195" transform="translate(0 1.314)"/></g><path class="f" d="M288.467,325.818a9.2,9.2,0,1,0,9.195,9.195A9.139,9.139,0,0,0,288.467,325.818Zm0,15.763a6.568,6.568,0,1,1,6.568-6.568A6.5,6.5,0,0,1,288.467,341.581Z" transform="translate(-247.746 -268.393)"/><path class="e" d="M360.727,416.337h0a9.028,9.028,0,0,0,9.2-9.064h-.132a1.4,1.4,0,0,0-1.314,1.182,7.941,7.941,0,0,1-2.5,4.729,7.442,7.442,0,0,1-4.072,1.97A1.177,1.177,0,0,0,360.727,416.337Z" transform="translate(-320.006 -340.653)"/><path class="g" d="M288.467,326.958h0a9.028,9.028,0,0,0-9.2,9.064h.131a1.4,1.4,0,0,0,1.314-1.182,7.941,7.941,0,0,1,2.5-4.729,7.444,7.444,0,0,1,4.072-1.97A1.177,1.177,0,0,0,288.467,326.958Z" transform="translate(-247.746 -269.402)"/><path class="h" d="M303.465,356.578a6.5,6.5,0,0,1,6.568-6.568,6.2,6.2,0,0,1,4.2,1.576,6.548,6.548,0,0,0-11.691,4.072,6.3,6.3,0,0,0,2.364,4.991A6.161,6.161,0,0,1,303.465,356.578Z" transform="translate(-268.392 -289.039)"/><path class="f" d="M390.991,406.183a.482.482,0,0,1-.394-.131.635.635,0,0,1,0-.92,4.384,4.384,0,0,0,1.182-3.021.657.657,0,0,1,1.314,0,6.066,6.066,0,0,1-1.445,3.941A1.428,1.428,0,0,1,390.991,406.183Z" transform="translate(-346.329 -335.491)"/><path class="h" d="M350.4,380.245a1.241,1.241,0,0,1-1.314-1.313v-5.254a1.314,1.314,0,0,1,2.627,0v5.254A1.241,1.241,0,0,1,350.4,380.245Z" transform="translate(-309.684 -309.685)"/></g></svg>