<svg xmlns="http://www.w3.org/2000/svg" width="120" height="125.527" viewBox="0 0 120 125.527"><defs><style>.a{fill:none;stroke:#e6e6e6;stroke-width:2px;}.b{fill:gray;stroke:#818282;stroke-width:1.5px;}.c{fill:#01d35a;}</style></defs><g transform="translate(-984 -867)"><g transform="translate(995.053 878.053)"><g transform="translate(-10.053 -10.053)"><g transform="translate(0 0)"><circle class="a" cx="59" cy="59" r="59"/><g transform="translate(36.089 36.065)"><path class="b" d="M28.808.263,28.7.245c-.034,0-.073,0-.108,0a1.037,1.037,0,0,0-.233.025.514.514,0,0,0-.052.006L27.525.4,14.857,2.55.052.045V42.215l.867.165S14.707,44.992,14.738,45s.057,0,.085,0a.1.1,0,0,0,.023,0h.042a.043.043,0,0,0,.015,0l.042,0a.521.521,0,0,0,.082-.006c1.644-.15,10.488-1.944,13.576-2.573l15.464,2.8V2.748ZM13.789,42.646c-2.76-.523-9.252-1.756-11.6-2.2V2.573l11.6,1.962Zm13.736-2.187c-3.908.8-9.29,1.862-11.6,2.256l-.034.007a1.013,1.013,0,0,0,.034-.267V4.536l11.6-1.965Zm14.409,2.2L29.662,40.438V2.564l12.272,2Z" transform="translate(-0.052 -0.045)"/></g></g></g></g><path class="c" d="M19.554,0A19.554,19.554,0,1,0,39.107,19.554,19.576,19.576,0,0,0,19.554,0Zm9.4,21.058h-7.9v8.273a1.5,1.5,0,1,1-3.008,0V21.058h-7.9a1.5,1.5,0,1,1,0-3.008h7.9V10.529a1.5,1.5,0,0,1,3.008,0V18.05h7.9a1.5,1.5,0,1,1,0,3.008Z" transform="translate(1058.876 953.42)"/></g></svg>