<svg xmlns="http://www.w3.org/2000/svg" width="68.086" height="101.853" viewBox="0 0 68.086 101.853"><defs><style>.a{fill:#00c6a4;}.b{fill:#dffaf5;}.c{fill:#27debf;}.d{fill:#ffc4c8;}.e{fill:#fff3be;}.f{fill:#c4e2ff;}.g{fill:#b3dafe;}</style></defs><g transform="translate(-84.872 0)"><path class="a" d="M140.91,85.792H87.945a3.073,3.073,0,0,1-3.073-3.073V3.073A3.073,3.073,0,0,1,87.945,0H140.91a3.073,3.073,0,0,1,3.073,3.073V82.718A3.073,3.073,0,0,1,140.91,85.792Z"/><path class="b" d="M142.024,20.552a3.071,3.071,0,0,1,.678-.078h47.064V7.486a3.06,3.06,0,0,0-.722-1.977Z" transform="translate(-45.783 -4.413)"/><path class="c" d="M186.022,166.53H133.057a3.073,3.073,0,0,1-3.073-3.073V83.811a3.073,3.073,0,0,1,3.073-3.073h52.965a3.073,3.073,0,0,1,3.073,3.073v79.645A3.073,3.073,0,0,1,186.022,166.53Z" transform="translate(-36.138 -64.677)"/><path class="d" d="M167.069,134.108v-14.85a1.435,1.435,0,0,1,1.434-1.435h16.02a1.434,1.434,0,0,1,1.434,1.435v14.85a1.435,1.435,0,0,1-1.434,1.434H168.5A1.434,1.434,0,0,1,167.069,134.108Z" transform="translate(-65.845 -94.385)"/><path class="d" d="M167.069,402.127v-14.85a1.435,1.435,0,0,1,1.434-1.435h16.02a1.435,1.435,0,0,1,1.434,1.435v14.85a1.434,1.434,0,0,1-1.434,1.434H168.5A1.435,1.435,0,0,1,167.069,402.127Z" transform="translate(-65.845 -309.087)"/><path class="e" d="M167.069,272.284v-14.85A1.435,1.435,0,0,1,168.5,256h16.02a1.434,1.434,0,0,1,1.434,1.434v14.85a1.435,1.435,0,0,1-1.434,1.435H168.5A1.435,1.435,0,0,1,167.069,272.284Z" transform="translate(-65.845 -205.074)"/><path class="a" d="M378.929,80.738H370.8a3.073,3.073,0,0,1,3.074,3.073v79.645a3.073,3.073,0,0,1-3.074,3.073h8.133A3.073,3.073,0,0,0,382,163.456V83.811A3.073,3.073,0,0,0,378.929,80.738Z" transform="translate(-229.045 -64.677)"/><g transform="translate(125.049 33.666)"><path class="f" d="M295.479,172.309h-7.1a1.537,1.537,0,0,1,0-3.074h7.1a1.537,1.537,0,1,1,0,3.074Z" transform="translate(-286.838 -169.235)"/></g><g transform="translate(125.049 61.154)"><path class="f" d="M295.479,310.484h-7.1a1.537,1.537,0,1,1,0-3.074h7.1a1.537,1.537,0,1,1,0,3.074Z" transform="translate(-286.838 -307.41)"/></g><g transform="translate(125.049 86.983)"><path class="f" d="M295.479,440.327h-7.1a1.537,1.537,0,1,1,0-3.074h7.1a1.537,1.537,0,1,1,0,3.074Z" transform="translate(-286.838 -437.253)"/></g><g transform="translate(125.049 27.857)"><path class="f" d="M307.369,143.107H288.375a1.537,1.537,0,1,1,0-3.074h18.994a1.537,1.537,0,0,1,0,3.074Z" transform="translate(-286.838 -140.033)"/></g><g transform="translate(125.049 55.345)"><path class="f" d="M307.369,281.283H288.375a1.537,1.537,0,1,1,0-3.074h18.994a1.537,1.537,0,0,1,0,3.074Z" transform="translate(-286.838 -278.209)"/></g><g transform="translate(125.049 81.174)"><path class="f" d="M307.369,411.126H288.375a1.537,1.537,0,1,1,0-3.074h18.994a1.537,1.537,0,0,1,0,3.074Z" transform="translate(-286.838 -408.052)"/></g><g transform="translate(144.825 27.857)"><path class="g" d="M387,140.032h-.755v3.074H387a1.537,1.537,0,0,0,0-3.074Z" transform="translate(-386.246 -140.032)"/><path class="g" d="M387,278.208h-.755v3.074H387a1.537,1.537,0,0,0,0-3.074Z" transform="translate(-386.246 -250.72)"/><path class="g" d="M387,408.051h-.755v3.074H387a1.537,1.537,0,0,0,0-3.074Z" transform="translate(-386.246 -354.734)"/></g><g transform="translate(137.013 1.096)"><path class="b" d="M353.224,5.51l-6.249,2V20.475h6.971V7.487a3.059,3.059,0,0,0-.722-1.977Z" transform="translate(-346.975 -5.51)"/></g></g></svg>