<svg xmlns="http://www.w3.org/2000/svg" width="120" height="125.527"><g transform="translate(1 1)"><circle cx="59" cy="59" r="59" fill="none" stroke="#e6e6e6" stroke-width="2"/><path d="M64.845 36.283l-.108-.018h-.108a1.037 1.037 0 0 0-.233.025.514.514 0 0 0-.052.006l-.782.124-12.668 2.15-14.805-2.505v42.17l.867.165s13.788 2.612 13.819 2.62.057 0 .085 0a.1.1 0 0 0 .023 0h.042a.043.043 0 0 0 .015 0h.042a.521.521 0 0 0 .082-.006c1.644-.15 10.488-1.944 13.576-2.573l15.464 2.8V38.768zM49.826 78.666c-2.76-.523-9.252-1.756-11.6-2.2V38.593l11.6 1.962zm13.736-2.187c-3.908.8-9.29 1.862-11.6 2.256l-.034.007a1.013 1.013 0 0 0 .034-.267V40.556l11.6-1.965zm14.409 2.2l-12.272-2.221V38.584l12.272 2z" fill="gray" stroke="#818282" stroke-width="1.5"/></g><path d="M94.43 86.42a19.554 19.554 0 1 0 19.553 19.554A19.576 19.576 0 0 0 94.43 86.42zm9.4 21.058h-7.9v8.273a1.504 1.504 0 1 1-3.008 0v-8.273h-7.9a1.504 1.504 0 1 1 0-3.008h7.9v-7.521a1.504 1.504 0 0 1 3.008 0v7.521h7.9a1.504 1.504 0 1 1 0 3.008z" fill="#01d35a"/></svg>