<svg xmlns="http://www.w3.org/2000/svg" width="502.383" height="489.603" viewBox="0 0 502.383 489.603"><defs><style>.a{fill:#5793ce;}.b{fill:#d4ecff;}.c{fill:#173d7a;}.d{fill:#396caa;}.e{fill:#274f89;}.f{fill:#fff;}.g{fill:#ffc2b0;}.h{fill:#ea9c92;}.i{fill:#01d35a;}.j{fill:#00ad46;}</style></defs><g transform="translate(480.486 277.137)"><rect class="a" width="2.916" height="8.471" transform="translate(20.764 0) rotate(75.627)"/><rect class="a" width="2.916" height="8.471" transform="translate(16.578 4.083) rotate(75.624)"/><rect class="a" width="2.916" height="8.471" transform="translate(12.392 8.166) rotate(75.624)"/><rect class="a" width="2.916" height="8.471" transform="translate(8.206 12.25) rotate(75.627)"/></g><g transform="translate(97.52 84.935)"><path class="b" d="M497.654,413.141,313.828,307.009c-5.2-3-4.548-8.246,1.458-11.713l125.171-72.243c6-3.466,15.088-3.843,20.287-.84l183.825,106.13c5.2,3,4.549,8.247-1.456,11.713L517.941,412.3C511.937,415.768,502.853,416.144,497.654,413.141Z" transform="translate(-310.318 -10.5)"/><g transform="translate(137.435)"><path class="c" d="M594.845,203.429,407.988,95.637c-2.406-1.388-4.618-1.6-6.4-.86l.007-.022-.307.142c-.023.012-.05.022-.073.035L395.133,97.8l6.6,3.286c0,.125-.013.24-.013.365l.057,153.475c0,7.681,4.756,16.648,10.619,20.027L594.274,379.868l1.033,8.56,6.641-3.168c2.188-1.287,3.574-4.191,3.573-8.329l-.058-153.474C605.461,215.777,600.706,206.81,594.845,203.429Z" transform="translate(-391.229 -94.357)"/><path class="d" d="M594.845,203.429,407.988,95.637c-2.406-1.388-4.618-1.6-6.4-.86l.007-.022-.307.142c-.023.012-.05.022-.073.035L395.133,97.8l6.6,3.286c0,.125-.013.24-.013.365l.038,101.149L486.8,269.786l115.464-58.109A20.965,20.965,0,0,0,594.845,203.429Z" transform="translate(-391.229 -94.357)"/><path class="e" d="M524.173,161.258l-18.312,7.7,13.826,10.652,11.545-4.916A26.872,26.872,0,0,0,524.173,161.258Z" transform="translate(-317.435 -49.771)"/><path class="b" d="M590.323,386.461,403.465,278.667c-5.861-3.38-10.615-12.347-10.617-20.027l-.058-153.474c0-7.681,4.746-11.167,10.607-7.786L590.256,205.172c5.861,3.381,10.614,12.348,10.617,20.029l.057,153.474C600.933,386.356,596.184,389.842,590.323,386.461Z" transform="translate(-392.79 -93.202)"/><path class="f" d="M581.294,370.542,406.779,269.92c-5.363-3.095-9.714-11.3-9.715-18.329L397.01,111.15c0-7.029,4.344-10.219,9.707-7.124L581.233,204.65c5.363,3.093,9.714,11.3,9.715,18.327L591,363.418C591,370.447,586.657,373.637,581.294,370.542Z" transform="translate(-389.978 -88.701)"/><path class="f" d="M581.294,370.542,406.779,269.92c-5.363-3.095-9.714-11.3-9.715-18.329L397.01,111.15c0-7.029,4.344-10.219,9.707-7.124L581.233,204.65c5.363,3.093,9.714,11.3,9.715,18.327L591,363.418C591,370.447,586.657,373.637,581.294,370.542Z" transform="translate(-389.978 -88.701)"/></g><path class="c" d="M648.074,312.785l-25.128-3.318-162.2-93.649c-5.2-3-14.283-2.625-20.287.842L325.517,282.994l-15.195-2.006v8.622l.015,0c-.1,1.991,1.035,3.909,3.488,5.326l183.826,106.13c5.2,3,14.283,2.626,20.287-.84l125.171-72.243c3.378-1.951,5.063-4.464,4.964-6.824h0Z" transform="translate(-310.315 -14.76)"/><path class="d" d="M526.2,240.348l-11.523-6.654h-126.7l-62.46,36.037-15.195-2.006v8.622l.015,0c-.1,1.991,1.035,3.909,3.488,5.326L497.651,387.8a19.019,19.019,0,0,0,10.47,1.963Z" transform="translate(-310.315 -1.497)"/><path class="a" d="M317.064,255.007l-6.742-.892v8.622l.015,0c-.1,1.991,1.035,3.909,3.488,5.326l3.24,1.87Z" transform="translate(-310.315 12.112)"/><path class="e" d="M423.846,334.807c4.928,1.87,11.975,1.463,17.238-1.07V314.508H423.846Z" transform="translate(-234.658 52.36)"/><path class="b" d="M497.654,398.172,313.828,292.04c-5.2-3-4.548-8.246,1.458-11.713l125.171-72.243c6-3.466,15.088-3.843,20.287-.84l183.825,106.13c5.2,3,4.549,8.247-1.456,11.713L517.941,397.331C511.937,400.8,502.853,401.175,497.654,398.172Z" transform="translate(-310.318 -20.476)"/><path class="f" d="M643.108,289.89,517.937,362.134c-6,3.466-15.088,3.843-20.287.842L313.824,256.843a6.848,6.848,0,0,1-3.233-3.536c-.813,2.46.225,4.946,3.233,6.686L497.65,366.123c5.2,3,14.283,2.626,20.287-.84l125.171-72.245c4.036-2.33,5.643-5.461,4.689-8.177C647.206,286.652,645.639,288.429,643.108,289.89Z" transform="translate(-310.314 11.574)"/><g transform="translate(72.926 191.276)"><path class="c" d="M362.848,241.17l-8.317-4.8c-.668-.385-.585-1.058.187-1.5l9.817-5.669a2.9,2.9,0,0,1,2.606-.107l8.317,4.8c.668.387.583,1.06-.187,1.5l-9.819,5.668A2.9,2.9,0,0,1,362.848,241.17Z" transform="translate(-354.079 -196.017)"/><path class="c" d="M370.556,245.62l-8.317-4.8c-.668-.385-.585-1.058.187-1.5l9.817-5.669a2.9,2.9,0,0,1,2.606-.107l8.317,4.8c.667.387.583,1.06-.188,1.5l-9.817,5.668A2.9,2.9,0,0,1,370.556,245.62Z" transform="translate(-348.942 -193.051)"/><path class="c" d="M378.262,250.07l-8.317-4.8c-.667-.387-.583-1.06.188-1.5l9.817-5.668a2.887,2.887,0,0,1,2.6-.108l8.317,4.8c.668.387.585,1.06-.187,1.5l-9.817,5.668A2.9,2.9,0,0,1,378.262,250.07Z" transform="translate(-343.805 -190.085)"/><path class="c" d="M388.924,246.031l-8.317-4.8c-.668-.385-.585-1.058.187-1.5l8.241-4.758a2.89,2.89,0,0,1,2.606-.108l8.317,4.8c.667.387.583,1.06-.188,1.5l-8.241,4.758A2.9,2.9,0,0,1,388.924,246.031Z" transform="translate(-336.701 -192.171)"/><path class="c" d="M396.63,250.481l-8.317-4.8c-.667-.387-.583-1.06.188-1.5l8.241-4.758a2.9,2.9,0,0,1,2.6-.108l8.317,4.8c.668.385.585,1.058-.187,1.5l-8.241,4.758A2.9,2.9,0,0,1,396.63,250.481Z" transform="translate(-331.564 -189.205)"/><path class="c" d="M404.338,254.931l-8.317-4.8c-.668-.387-.583-1.06.187-1.5l8.242-4.758a2.9,2.9,0,0,1,2.6-.108l8.317,4.8c.668.385.585,1.058-.187,1.5l-8.241,4.758A2.89,2.89,0,0,1,404.338,254.931Z" transform="translate(-326.428 -186.239)"/><path class="c" d="M412.047,259.381l-8.317-4.8c-.668-.387-.585-1.06.187-1.5l8.241-4.758a2.9,2.9,0,0,1,2.606-.108l8.317,4.8c.668.385.583,1.058-.187,1.5l-8.242,4.759A2.891,2.891,0,0,1,412.047,259.381Z" transform="translate(-321.291 -183.273)"/><path class="c" d="M419.755,263.831l-8.317-4.8c-.668-.387-.585-1.06.187-1.5l8.241-4.758a2.9,2.9,0,0,1,2.606-.108l8.317,4.8c.668.385.583,1.058-.187,1.5l-8.242,4.759A2.892,2.892,0,0,1,419.755,263.831Z" transform="translate(-316.154 -180.308)"/><path class="c" d="M427.461,268.282l-8.317-4.8c-.667-.387-.583-1.06.188-1.5l8.241-4.758a2.9,2.9,0,0,1,2.6-.108l8.319,4.8c.667.385.583,1.058-.188,1.5l-8.24,4.759A2.9,2.9,0,0,1,427.461,268.282Z" transform="translate(-311.017 -177.342)"/><path class="c" d="M435.169,272.731l-8.317-4.8c-.668-.385-.583-1.06.187-1.5l8.242-4.758a2.9,2.9,0,0,1,2.6-.108l8.317,4.8c.668.385.585,1.058-.187,1.5l-8.241,4.759A2.9,2.9,0,0,1,435.169,272.731Z" transform="translate(-305.881 -174.376)"/><path class="c" d="M442.878,277.182l-8.317-4.8c-.668-.385-.585-1.06.187-1.5l8.24-4.758a2.9,2.9,0,0,1,2.606-.108l8.317,4.8c.668.385.585,1.058-.187,1.5l-8.242,4.758A2.9,2.9,0,0,1,442.878,277.182Z" transform="translate(-300.744 -171.411)"/><path class="c" d="M450.586,281.632l-8.317-4.8c-.668-.385-.585-1.058.187-1.5l8.24-4.758a2.9,2.9,0,0,1,2.606-.108l8.317,4.8c.668.385.583,1.06-.187,1.5l-8.242,4.758A2.9,2.9,0,0,1,450.586,281.632Z" transform="translate(-295.607 -168.445)"/><path class="c" d="M458.292,286.082l-8.317-4.8c-.667-.385-.583-1.058.188-1.5l8.241-4.759a2.892,2.892,0,0,1,2.6-.107l8.319,4.8c.667.385.583,1.06-.188,1.5l-8.241,4.758A2.9,2.9,0,0,1,458.292,286.082Z" transform="translate(-290.471 -165.479)"/><path class="d" d="M400.281,243.924l-8.319-4.8c-.667-.387-.583-1.06.188-1.5l8.241-4.758a2.9,2.9,0,0,1,2.606-.108l8.317,4.8c.667.385.583,1.058-.188,1.5l-8.24,4.758A2.887,2.887,0,0,1,400.281,243.924Z" transform="translate(-329.132 -193.574)"/><path class="d" d="M392.458,239.408l-8.317-4.8c-.668-.385-.585-1.058.187-1.5l8.241-4.759a2.9,2.9,0,0,1,2.606-.108l8.317,4.8c.668.385.583,1.06-.187,1.5l-8.242,4.758A2.9,2.9,0,0,1,392.458,239.408Z" transform="translate(-334.346 -196.585)"/><path class="c" d="M388.459,237.1l-17.913-10.342c-.668-.387-.585-1.06.187-1.5l8.241-4.758a2.9,2.9,0,0,1,2.606-.108l17.912,10.342c.668.387.585,1.06-.187,1.5l-8.241,4.758A2.9,2.9,0,0,1,388.459,237.1Z" transform="translate(-343.406 -201.815)"/><path class="c" d="M392.586,230.818l-14.536-8.392c-.668-.387-.585-1.06.187-1.5l8.24-4.758a2.9,2.9,0,0,1,2.606-.108l14.536,8.394c.668.385.585,1.058-.187,1.5l-8.241,4.759A2.9,2.9,0,0,1,392.586,230.818Z" transform="translate(-338.405 -204.702)"/><path class="d" d="M407.987,248.374l-8.317-4.8c-.668-.387-.583-1.06.187-1.5l8.242-4.758a2.9,2.9,0,0,1,2.6-.108l8.317,4.8c.668.385.585,1.058-.187,1.5l-8.241,4.758A2.89,2.89,0,0,1,407.987,248.374Z" transform="translate(-323.996 -190.609)"/><path class="c" d="M415.7,252.824l-8.317-4.8c-.668-.387-.583-1.06.187-1.5l8.242-4.758a2.9,2.9,0,0,1,2.6-.108l8.317,4.8c.668.385.585,1.058-.187,1.5l-8.24,4.759A2.9,2.9,0,0,1,415.7,252.824Z" transform="translate(-318.859 -187.643)"/><path class="c" d="M423.4,257.274l-8.317-4.8c-.668-.385-.585-1.06.187-1.5l8.24-4.758a2.9,2.9,0,0,1,2.606-.108l8.317,4.8c.668.385.583,1.058-.187,1.5l-8.242,4.758A2.891,2.891,0,0,1,423.4,257.274Z" transform="translate(-313.722 -184.678)"/><path class="c" d="M431.112,261.725l-8.319-4.8c-.667-.385-.583-1.06.188-1.5l8.24-4.758a2.9,2.9,0,0,1,2.606-.108l8.317,4.8c.667.385.583,1.058-.188,1.5l-8.241,4.758A2.9,2.9,0,0,1,431.112,261.725Z" transform="translate(-308.586 -181.712)"/><path class="c" d="M438.818,266.175l-8.317-4.8c-.667-.385-.583-1.058.188-1.5l8.24-4.758a2.9,2.9,0,0,1,2.6-.108l8.317,4.8c.668.385.585,1.058-.187,1.5l-8.241,4.758A2.9,2.9,0,0,1,438.818,266.175Z" transform="translate(-303.449 -178.746)"/><path class="c" d="M446.526,270.625l-8.317-4.8c-.668-.385-.583-1.058.187-1.5l8.242-4.758a2.9,2.9,0,0,1,2.6-.108l8.317,4.8c.668.385.585,1.058-.187,1.5l-8.241,4.758A2.9,2.9,0,0,1,446.526,270.625Z" transform="translate(-298.312 -175.781)"/><path class="c" d="M454.235,275.075l-8.317-4.8c-.668-.385-.585-1.058.187-1.5l8.241-4.758a2.9,2.9,0,0,1,2.606-.107l8.317,4.8c.668.387.583,1.06-.187,1.5l-8.242,4.758A2.9,2.9,0,0,1,454.235,275.075Z" transform="translate(-293.175 -172.815)"/><path class="c" d="M461.943,279.525l-8.317-4.8c-.668-.385-.585-1.058.187-1.5l8.241-4.759a2.9,2.9,0,0,1,2.606-.107l8.317,4.8c.667.385.583,1.06-.188,1.5l-8.241,4.758A2.9,2.9,0,0,1,461.943,279.525Z" transform="translate(-288.039 -169.849)"/><path class="c" d="M469.649,283.975l-8.317-4.8c-.667-.385-.583-1.058.188-1.5l8.241-4.758a2.887,2.887,0,0,1,2.6-.108l8.317,4.8c.668.387.585,1.06-.187,1.5l-8.241,4.758A2.9,2.9,0,0,1,469.649,283.975Z" transform="translate(-282.902 -166.883)"/><path class="c" d="M487.284,294.156l-18.148-10.477c-.668-.387-.585-1.06.187-1.5l8.242-4.758a2.9,2.9,0,0,1,2.6-.108l18.147,10.479c.668.385.585,1.058-.187,1.5l-8.24,4.758A2.9,2.9,0,0,1,487.284,294.156Z" transform="translate(-277.702 -163.881)"/><path class="c" d="M501.158,284.838,485.84,276c-.667-.387-.583-1.06.188-1.5l8.24-4.758a2.9,2.9,0,0,1,2.6-.108l15.318,8.844c.668.385.585,1.058-.187,1.5l-8.24,4.759A2.9,2.9,0,0,1,501.158,284.838Z" transform="translate(-266.569 -169.001)"/><path class="c" d="M421.485,247.5l-8.317-4.8c-.668-.385-.583-1.06.187-1.5l8.242-4.758a2.9,2.9,0,0,1,2.6-.108l8.317,4.8c.668.385.585,1.058-.187,1.5l-8.241,4.758A2.9,2.9,0,0,1,421.485,247.5Z" transform="translate(-315 -191.189)"/><path class="c" d="M413.587,242.943l-8.317-4.8c-.668-.385-.585-1.058.187-1.5l8.241-4.759a2.9,2.9,0,0,1,2.606-.107l8.317,4.8c.668.387.583,1.06-.187,1.5l-8.242,4.758A2.9,2.9,0,0,1,413.587,242.943Z" transform="translate(-320.265 -194.229)"/><path class="d" d="M405.686,238.382l-8.317-4.8c-.668-.387-.583-1.06.187-1.5l8.242-4.758a2.887,2.887,0,0,1,2.6-.108l8.317,4.8c.668.387.585,1.06-.187,1.5l-8.241,4.758A2.9,2.9,0,0,1,405.686,238.382Z" transform="translate(-325.529 -197.268)"/><path class="c" d="M397.788,233.821l-8.317-4.8c-.668-.387-.585-1.06.187-1.5l8.24-4.758a2.9,2.9,0,0,1,2.606-.108l8.317,4.8c.668.385.583,1.058-.187,1.5l-8.242,4.758A2.887,2.887,0,0,1,397.788,233.821Z" transform="translate(-330.794 -200.307)"/><path class="c" d="M429.194,251.954l-8.317-4.8c-.668-.385-.585-1.058.187-1.5l8.242-4.758a2.9,2.9,0,0,1,2.6-.108l8.317,4.8c.668.385.585,1.058-.187,1.5l-8.242,4.758A2.9,2.9,0,0,1,429.194,251.954Z" transform="translate(-309.864 -188.224)"/><path class="c" d="M436.9,256.4l-8.317-4.8c-.668-.385-.585-1.058.187-1.5l8.241-4.759a2.9,2.9,0,0,1,2.606-.107l8.317,4.8c.668.385.583,1.06-.187,1.5l-8.242,4.758A2.9,2.9,0,0,1,436.9,256.4Z" transform="translate(-304.727 -185.258)"/><path class="c" d="M444.61,260.854l-8.319-4.8c-.667-.385-.583-1.058.188-1.5l8.241-4.759a2.9,2.9,0,0,1,2.606-.107l8.317,4.8c.667.387.583,1.06-.188,1.5l-8.241,4.758A2.9,2.9,0,0,1,444.61,260.854Z" transform="translate(-299.59 -182.292)"/><path class="c" d="M452.316,265.3,444,260.5c-.668-.385-.583-1.058.187-1.5l8.242-4.759a2.892,2.892,0,0,1,2.6-.107l8.317,4.8c.668.387.585,1.06-.187,1.5l-8.241,4.758A2.9,2.9,0,0,1,452.316,265.3Z" transform="translate(-294.454 -179.327)"/><path class="c" d="M460.025,269.754l-8.317-4.8c-.668-.385-.585-1.058.187-1.5l8.242-4.759a2.891,2.891,0,0,1,2.6-.107l8.317,4.8c.668.387.585,1.06-.187,1.5l-8.241,4.758A2.9,2.9,0,0,1,460.025,269.754Z" transform="translate(-289.317 -176.361)"/><path class="c" d="M467.733,274.2l-8.317-4.8c-.668-.387-.585-1.06.187-1.5l8.241-4.758a2.89,2.89,0,0,1,2.606-.108l8.317,4.8c.668.387.583,1.06-.187,1.5l-8.242,4.758A2.9,2.9,0,0,1,467.733,274.2Z" transform="translate(-284.18 -173.395)"/><path class="c" d="M475.441,278.654l-8.319-4.8c-.667-.385-.583-1.058.188-1.5l8.241-4.758a2.9,2.9,0,0,1,2.606-.108l8.317,4.8c.667.385.583,1.058-.188,1.5l-8.241,4.758A2.892,2.892,0,0,1,475.441,278.654Z" transform="translate(-279.043 -170.429)"/><path class="c" d="M483.147,283.1l-8.317-4.8c-.668-.387-.583-1.06.187-1.5l8.242-4.758a2.9,2.9,0,0,1,2.6-.108l8.317,4.8c.668.385.585,1.058-.187,1.5L485.754,283A2.89,2.89,0,0,1,483.147,283.1Z" transform="translate(-273.907 -167.463)"/><path class="c" d="M490.855,287.554l-8.317-4.8c-.668-.387-.583-1.06.187-1.5l8.242-4.758a2.9,2.9,0,0,1,2.6-.108l8.317,4.8c.668.385.585,1.058-.187,1.5l-8.241,4.758A2.89,2.89,0,0,1,490.855,287.554Z" transform="translate(-268.77 -164.498)"/><path class="c" d="M417.428,236.5l-8.317-4.8c-.668-.385-.585-1.058.187-1.5l8.241-4.758a2.9,2.9,0,0,1,2.606-.108l8.317,4.8c.667.385.583,1.058-.188,1.5l-8.241,4.758A2.9,2.9,0,0,1,417.428,236.5Z" transform="translate(-317.705 -198.525)"/><path class="c" d="M409.757,232.069l-8.317-4.8c-.668-.385-.583-1.058.187-1.5L409.869,221a2.9,2.9,0,0,1,2.6-.108l8.317,4.8c.668.385.585,1.058-.187,1.5l-8.241,4.758A2.9,2.9,0,0,1,409.757,232.069Z" transform="translate(-322.816 -201.476)"/><path class="c" d="M402.089,227.641l-8.317-4.8c-.668-.385-.585-1.058.187-1.5l8.241-4.758a2.9,2.9,0,0,1,2.606-.108l8.317,4.8c.668.387.583,1.06-.187,1.5l-8.242,4.758A2.9,2.9,0,0,1,402.089,227.641Z" transform="translate(-327.928 -204.427)"/><path class="c" d="M394.418,223.213l-8.317-4.8c-.667-.385-.583-1.058.188-1.5l8.241-4.758a2.9,2.9,0,0,1,2.6-.108l8.317,4.8c.668.387.585,1.06-.187,1.5l-8.24,4.758A2.9,2.9,0,0,1,394.418,223.213Z" transform="translate(-333.039 -207.378)"/><path class="c" d="M402.306,217.387l-8.317-4.8c-.668-.385-.585-1.06.187-1.5l2.725-1.573a2.892,2.892,0,0,1,2.6-.107l8.317,4.8c.668.387.585,1.06-.187,1.5l-2.725,1.573A2.9,2.9,0,0,1,402.306,217.387Z" transform="translate(-327.783 -209.138)"/><path class="c" d="M412.313,223.164l-8.317-4.8c-.667-.385-.583-1.058.188-1.5l2.723-1.573a2.9,2.9,0,0,1,2.606-.108l8.317,4.8c.668.385.583,1.058-.187,1.5l-2.725,1.573A2.9,2.9,0,0,1,412.313,223.164Z" transform="translate(-321.113 -205.287)"/><path class="c" d="M419.952,227.573l-8.317-4.8c-.668-.385-.585-1.06.187-1.5l2.725-1.573a2.892,2.892,0,0,1,2.6-.107l8.317,4.8c.668.385.585,1.06-.187,1.5l-2.725,1.573A2.891,2.891,0,0,1,419.952,227.573Z" transform="translate(-316.023 -202.349)"/><path class="c" d="M427.588,231.983l-8.317-4.8c-.667-.385-.583-1.058.188-1.5l2.723-1.573a2.9,2.9,0,0,1,2.606-.108l8.317,4.8c.668.385.583,1.058-.187,1.5l-2.725,1.573A2.9,2.9,0,0,1,427.588,231.983Z" transform="translate(-310.933 -199.41)"/><path class="c" d="M435.227,236.392l-8.317-4.8c-.668-.387-.585-1.06.187-1.5l2.725-1.573a2.892,2.892,0,0,1,2.6-.107l8.317,4.8c.668.385.585,1.06-.187,1.5l-2.725,1.573A2.891,2.891,0,0,1,435.227,236.392Z" transform="translate(-305.843 -196.471)"/><path class="c" d="M477.866,261.01l-8.319-4.8c-.667-.385-.583-1.058.188-1.5l2.725-1.573a2.9,2.9,0,0,1,2.6-.108l8.317,4.8c.668.385.585,1.058-.187,1.5L480.47,260.9A2.9,2.9,0,0,1,477.866,261.01Z" transform="translate(-277.427 -180.065)"/><path class="c" d="M485.5,265.419l-8.317-4.8c-.668-.387-.585-1.06.187-1.5l2.725-1.573a2.9,2.9,0,0,1,2.6-.108l8.319,4.8c.667.387.583,1.06-.188,1.5l-2.725,1.573A2.891,2.891,0,0,1,485.5,265.419Z" transform="translate(-272.337 -177.127)"/><path class="c" d="M493.139,269.829l-8.317-4.8c-.666-.385-.583-1.058.188-1.5l2.723-1.573a2.9,2.9,0,0,1,2.606-.108l8.317,4.8c.668.385.583,1.058-.187,1.5l-2.725,1.573A2.9,2.9,0,0,1,493.139,269.829Z" transform="translate(-267.247 -174.188)"/><path class="c" d="M500.778,274.238l-8.317-4.8c-.668-.387-.585-1.06.187-1.5l2.725-1.573a2.9,2.9,0,0,1,2.6-.108l8.317,4.8c.668.387.585,1.06-.187,1.5l-2.725,1.573A2.892,2.892,0,0,1,500.778,274.238Z" transform="translate(-262.158 -171.249)"/><path class="c" d="M425.134,240.947l-8.317-4.8c-.667-.385-.583-1.058.188-1.5l8.241-4.758a2.9,2.9,0,0,1,2.6-.108l8.317,4.8c.668.385.585,1.06-.187,1.5l-8.241,4.758A2.9,2.9,0,0,1,425.134,240.947Z" transform="translate(-312.568 -195.559)"/><path class="c" d="M432.842,245.4l-8.317-4.8c-.668-.385-.583-1.058.187-1.5l8.242-4.758a2.891,2.891,0,0,1,2.6-.107l8.317,4.8c.668.387.585,1.06-.187,1.5l-8.241,4.758A2.9,2.9,0,0,1,432.842,245.4Z" transform="translate(-307.432 -192.593)"/><path class="c" d="M440.551,249.847l-8.317-4.8c-.668-.385-.585-1.058.187-1.5l8.241-4.759a2.9,2.9,0,0,1,2.606-.107l8.317,4.8c.668.387.583,1.06-.187,1.5l-8.242,4.758A2.9,2.9,0,0,1,440.551,249.847Z" transform="translate(-302.295 -189.628)"/><path class="c" d="M448.259,254.3l-8.317-4.8c-.668-.385-.585-1.058.187-1.5l8.241-4.758a2.89,2.89,0,0,1,2.606-.108l8.317,4.8c.667.387.583,1.06-.188,1.5l-8.24,4.758A2.9,2.9,0,0,1,448.259,254.3Z" transform="translate(-297.158 -186.662)"/><path class="c" d="M455.965,258.747l-8.317-4.8c-.667-.385-.583-1.058.188-1.5l8.241-4.759a2.891,2.891,0,0,1,2.6-.107l8.319,4.8c.667.387.583,1.06-.188,1.5l-8.24,4.758A2.9,2.9,0,0,1,455.965,258.747Z" transform="translate(-292.021 -183.696)"/><path class="c" d="M463.673,263.2l-8.317-4.8c-.668-.387-.583-1.06.187-1.5l8.242-4.758a2.886,2.886,0,0,1,2.6-.108l8.317,4.8c.668.387.585,1.06-.187,1.5l-8.241,4.758A2.9,2.9,0,0,1,463.673,263.2Z" transform="translate(-286.885 -180.731)"/><path class="c" d="M471.382,267.647l-8.317-4.8c-.668-.387-.585-1.06.187-1.5l8.241-4.758a2.9,2.9,0,0,1,2.606-.108l8.317,4.8c.668.385.585,1.058-.187,1.5l-8.242,4.758A2.892,2.892,0,0,1,471.382,267.647Z" transform="translate(-281.748 -177.765)"/><path class="c" d="M479.09,272.1l-8.317-4.8c-.668-.387-.585-1.06.187-1.5l8.24-4.758a2.9,2.9,0,0,1,2.606-.108l8.317,4.8c.668.385.583,1.058-.187,1.5l-8.242,4.758A2.887,2.887,0,0,1,479.09,272.1Z" transform="translate(-276.611 -174.799)"/><path class="c" d="M486.8,276.547l-8.317-4.8c-.667-.387-.583-1.06.188-1.5l8.24-4.758a2.9,2.9,0,0,1,2.6-.108l8.319,4.8c.667.385.583,1.058-.188,1.5l-8.241,4.758A2.89,2.89,0,0,1,486.8,276.547Z" transform="translate(-271.474 -171.833)"/><path class="c" d="M387.538,245.231,363.044,231.09c-.668-.387-.585-1.06.187-1.5l8.241-4.758a2.9,2.9,0,0,1,2.606-.108l24.495,14.143c.668.385.583,1.058-.187,1.5l-8.242,4.758A2.886,2.886,0,0,1,387.538,245.231Z" transform="translate(-348.406 -198.928)"/><path class="c" d="M482.231,299.9l-24.5-14.141c-.667-.387-.583-1.06.188-1.5l8.241-4.758a2.9,2.9,0,0,1,2.6-.108l24.5,14.143c.667.385.583,1.058-.188,1.5l-8.241,4.759A2.892,2.892,0,0,1,482.231,299.9Z" transform="translate(-285.3 -162.494)"/><path class="c" d="M444.935,288.564l-8.317-4.8c-.668-.385-.583-1.06.187-1.5l9.819-5.668a2.9,2.9,0,0,1,2.6-.108l8.317,4.8c.668.385.585,1.058-.187,1.5l-9.817,5.668A2.9,2.9,0,0,1,444.935,288.564Z" transform="translate(-299.372 -164.432)"/><path class="c" d="M390.955,257.4l-13.3-7.679c-.668-.387-.583-1.06.187-1.5l9.819-5.668a2.887,2.887,0,0,1,2.6-.108l13.3,7.679c.668.387.585,1.06-.187,1.5l-9.817,5.668A2.9,2.9,0,0,1,390.955,257.4Z" transform="translate(-338.669 -187.12)"/><path class="c" d="M439.5,285.427l-13.3-7.681c-.667-.385-.583-1.058.188-1.5l9.817-5.669a2.892,2.892,0,0,1,2.6-.107l13.3,7.679c.667.385.583,1.06-.188,1.5l-9.817,5.668A2.9,2.9,0,0,1,439.5,285.427Z" transform="translate(-306.315 -168.44)"/><path class="c" d="M402.076,263.819l-13.3-7.681c-.668-.385-.585-1.058.187-1.5l9.817-5.668a2.9,2.9,0,0,1,2.606-.108l13.3,7.681c.668.385.583,1.058-.187,1.5l-9.819,5.667A2.9,2.9,0,0,1,402.076,263.819Z" transform="translate(-331.258 -182.841)"/><path class="c" d="M401.258,248.786l57.832,33.389a.791.791,0,0,1,0,1.5l-10.012,5.781a2.877,2.877,0,0,1-2.6,0l-57.832-33.39Z" transform="translate(-331.041 -182.716)"/><path class="c" d="M465.64,291.781l9.265,5.349c.547.317.478.868-.153,1.233l-4.016,2.318a2.373,2.373,0,0,1-2.136.088l-9.264-5.349c-.548-.315-.48-.867.153-1.232l4.016-2.32A2.37,2.37,0,0,1,465.64,291.781Z" transform="translate(-284.179 -154.204)"/><path class="c" d="M457.868,287.294l9.265,5.349c.547.317.478.868-.153,1.233l-4.016,2.318a2.37,2.37,0,0,1-2.135.088l-9.265-5.348c-.547-.317-.478-.868.153-1.233l4.016-2.32A2.375,2.375,0,0,1,457.868,287.294Z" transform="translate(-289.358 -157.194)"/><path class="c" d="M450.161,282.844l9.264,5.349c.548.317.48.868-.153,1.233l-4.016,2.318a2.37,2.37,0,0,1-2.135.088l-9.265-5.349c-.547-.315-.478-.867.153-1.231l4.016-2.32A2.373,2.373,0,0,1,450.161,282.844Z" transform="translate(-294.495 -160.16)"/><path class="c" d="M462.125,284.837l9.264,5.349c.548.315.48.867-.153,1.231l-4.016,2.32a2.37,2.37,0,0,1-2.135.088l-9.265-5.349c-.547-.317-.478-.868.153-1.233l4.016-2.318A2.374,2.374,0,0,1,462.125,284.837Z" transform="translate(-286.522 -158.832)"/></g><g transform="translate(234.048 115.395)"><path class="b" d="M471.458,178.51l-7.954-4.593a3.287,3.287,0,0,1-1.366-2.566h0c-.015-.992.57-1.45,1.308-1.023l7.954,4.593a3.287,3.287,0,0,1,1.366,2.566h0C472.781,178.478,472.2,178.937,471.458,178.51Z" transform="translate(-443.188 -159.228)"/><path class="b" d="M484.338,185.946l-11.73-6.772a3.285,3.285,0,0,1-1.365-2.566h0c-.017-.99.57-1.448,1.306-1.023l11.73,6.772a3.287,3.287,0,0,1,1.366,2.566h0C485.661,185.915,485.076,186.373,484.338,185.946Z" transform="translate(-437.119 -155.724)"/><path class="b" d="M469.092,203.966l-7.956-4.593a3.29,3.29,0,0,1-1.365-2.566h0c-.017-.992.57-1.45,1.308-1.023l7.954,4.593a3.287,3.287,0,0,1,1.366,2.566h0C470.416,203.934,469.831,204.393,469.092,203.966Z" transform="translate(-444.764 -142.263)"/><path class="b" d="M480.738,210.689l-11.73-6.772a3.288,3.288,0,0,1-1.365-2.566h0c-.017-.99.57-1.448,1.308-1.022L480.68,207.1a3.289,3.289,0,0,1,1.367,2.566h0C482.061,210.657,481.476,211.116,480.738,210.689Z" transform="translate(-439.518 -139.234)"/><path class="b" d="M457.175,174.733l-4.969-2.87a3.285,3.285,0,0,1-1.367-2.566h0c-.015-.99.57-1.448,1.308-1.022l4.969,2.868a3.28,3.28,0,0,1,1.365,2.566h0C458.5,174.7,457.913,175.16,457.175,174.733Z" transform="translate(-450.717 -160.596)"/><path class="b" d="M471.442,187.442l-15.183-8.767a3.281,3.281,0,0,1-1.365-2.566h0c-.017-.99.568-1.448,1.306-1.022l15.183,8.765a3.287,3.287,0,0,1,1.366,2.566h0C472.765,187.41,472.18,187.867,471.442,187.442Z" transform="translate(-448.015 -156.057)"/><path class="b" d="M461.374,190.57,456.4,187.7a3.281,3.281,0,0,1-1.365-2.566h0c-.017-.99.568-1.448,1.306-1.023l4.969,2.87a3.287,3.287,0,0,1,1.367,2.566h0C462.7,190.538,462.112,191,461.374,190.57Z" transform="translate(-447.918 -150.042)"/><path class="b" d="M484.875,222.019,471.6,214.355a3.278,3.278,0,0,1-1.365-2.566h0c-.017-.99.568-1.448,1.306-1.023l13.273,7.664A3.281,3.281,0,0,1,486.182,221h0C486.2,221.987,485.613,222.445,484.875,222.019Z" transform="translate(-437.79 -132.278)"/><path class="b" d="M459.742,198.566l-3.191-1.841a3.29,3.29,0,0,1-1.365-2.566h0c-.017-.99.57-1.448,1.308-1.023l3.19,1.843a3.283,3.283,0,0,1,1.365,2.565h0C461.065,198.535,460.48,198.993,459.742,198.566Z" transform="translate(-447.82 -144.028)"/><path class="b" d="M460.66,208.038,456.7,205.75a3.287,3.287,0,0,1-1.366-2.566h0c-.015-.99.57-1.448,1.308-1.023l3.961,2.288a3.28,3.28,0,0,1,1.365,2.566h0C461.983,208,461.4,208.463,460.66,208.038Z" transform="translate(-447.723 -138.013)"/><path class="b" d="M472.5,214.873l-10.445-6.031a3.282,3.282,0,0,1-1.365-2.565h0c-.017-.992.57-1.45,1.306-1.023l10.445,6.029a3.285,3.285,0,0,1,1.365,2.566h0C473.823,214.842,473.237,215.3,472.5,214.873Z" transform="translate(-444.152 -135.951)"/><path class="b" d="M464.28,214.6l-7.509-4.334a3.281,3.281,0,0,1-1.365-2.566h0c-.017-.992.568-1.45,1.306-1.023l7.509,4.336a3.277,3.277,0,0,1,1.365,2.565h0C465.6,214.566,465.018,215.024,464.28,214.6Z" transform="translate(-447.674 -135.006)"/><path class="b" d="M488.334,224.034l-4.823-2.785a3.282,3.282,0,0,1-1.365-2.565h0c-.017-.992.57-1.45,1.306-1.023l4.823,2.785a3.283,3.283,0,0,1,1.366,2.565h0C489.657,224,489.072,224.461,488.334,224.034Z" transform="translate(-429.853 -127.683)"/><path class="b" d="M475.788,198.891l-13.273-7.662a3.281,3.281,0,0,1-1.365-2.566h0c-.017-.992.568-1.45,1.306-1.023L475.73,195.3a3.277,3.277,0,0,1,1.365,2.565h0C477.111,198.859,476.526,199.317,475.788,198.891Z" transform="translate(-443.845 -147.691)"/><path class="b" d="M479.465,196.543l-23.133-13.355a3.281,3.281,0,0,1-1.365-2.566h0c-.017-.992.568-1.45,1.306-1.023l23.133,13.356a3.281,3.281,0,0,1,1.365,2.566h0C480.789,196.511,480.2,196.97,479.465,196.543Z" transform="translate(-447.966 -153.05)"/><path class="b" d="M469.751,199.876l-13.273-7.662a3.286,3.286,0,0,1-1.365-2.566h0c-.017-.992.57-1.45,1.307-1.023l13.273,7.664a3.284,3.284,0,0,1,1.367,2.565h0C471.074,199.844,470.489,200.3,469.751,199.876Z" transform="translate(-447.869 -147.035)"/><path class="b" d="M478.45,200.427l-4.823-2.785a3.277,3.277,0,0,1-1.365-2.565h0c-.017-.992.568-1.45,1.306-1.023l4.823,2.785a3.284,3.284,0,0,1,1.366,2.565h0C479.773,200.4,479.188,200.854,478.45,200.427Z" transform="translate(-436.44 -143.416)"/><path class="b" d="M512.537,202.226l-28.558-16.488a3.278,3.278,0,0,1-1.365-2.566h0c-.017-.99.568-1.448,1.307-1.021l28.558,16.488a3.285,3.285,0,0,1,1.367,2.566h0C513.86,202.195,513.275,202.653,512.537,202.226Z" transform="translate(-429.541 -151.349)"/><path class="b" d="M472.58,210.449l-15.954-9.21a3.29,3.29,0,0,1-1.366-2.566h0c-.015-.992.57-1.45,1.308-1.023l15.954,9.212a3.281,3.281,0,0,1,1.365,2.566h0C473.9,210.417,473.318,210.875,472.58,210.449Z" transform="translate(-447.772 -141.02)"/><path class="b" d="M463.863,174.125l-11.73-6.772a3.287,3.287,0,0,1-1.366-2.566h0c-.015-.992.57-1.45,1.308-1.023l11.73,6.772a3.285,3.285,0,0,1,1.365,2.566h0C465.186,174.093,464.6,174.55,463.863,174.125Z" transform="translate(-450.766 -163.603)"/><path class="b" d="M466.448,220.32l-13.585-7.842a3.281,3.281,0,0,1-1.365-2.566h0c-.017-.992.568-1.45,1.307-1.023l13.585,7.844a3.284,3.284,0,0,1,1.366,2.566h0C467.771,220.288,467.186,220.746,466.448,220.32Z" transform="translate(-450.278 -133.53)"/></g></g><g transform="translate(0 0)"><path class="b" d="M252.183,241.9l69.974-40.741c13.861-8.006,26.935-9.27,36.812-3.573s15.313,17.658,15.313,33.662v5.128c-.5.335-1.013.662-1.543.985v-6.112c0-15.43-5.166-26.911-14.541-32.326s-21.9-4.144-35.268,3.571l-69.974,40.743a.772.772,0,0,1-.772-1.336Z" transform="translate(-251.798 57.032)"/><path class="b" d="M396.865,293.785V136.095c0-31.562,22.24-70.084,49.576-85.865C459.828,42.5,472.456,41.276,482,46.784S496.789,63.836,496.789,79.3v11l-1.543,1.543V79.3c0-14.885-4.979-25.956-14.021-31.176s-21.12-4-34.012,3.445c-26.911,15.538-48.8,53.458-48.8,84.53v157.69c0,26.163-15.395,57.129-36.27,75.761v-2.07C382.189,349.05,396.865,319.128,396.865,293.785Z" transform="translate(-178.263 -43.389)"/><path class="c" d="M443.557,80.722h0c2.533-2.406,14.348-12.828,31.589-15.465,19.526-2.985,27.594,19.849,27.594,19.849s2.26,11.86,2.178,18.881-.583,32.512-.583,32.512l-61.9-35.657v-.008a.766.766,0,0,1-.425-.68v-18.1C442.529,81.542,443.042,81.237,443.557,80.722Z" transform="translate(-125.031 -28.994)"/><g transform="translate(0.297 0.288)"><path class="b" d="M540.726,80.489,482.057,46.667l.23.843c-9.042-5.841-22.708-6.471-40.988,6.934-36.308,26.626-40.669,63.695-42.521,70.64s-1.09,50.953-1.09,50.953-.122,106.14-.242,118.485-3.714,26.195-10.65,41.149-24.75,33.1-24.75,33.1v21.6c2.843,23.358,12.768,28.8,27.533,30.137,11.917,1.073,24.613-7.531,34.759-16.908-.373.39-.615.638-.615.638v21.6c2.845,23.357,12.768,28.8,27.534,30.136s30.732-12.193,41.553-23.642,19.944-28.929,25.012-44.7,3.39-36.148,3.39-36.148.122-116.024.242-138.9.848-18.881,8.351-41.876S557.2,131.629,557.2,131.629l47.729-14.213Z" transform="translate(-178.621 -43.561)"/><path class="c" d="M463.7,339.14c-.8-1.093-11.258-8.1-13.921-20.447-1.481-6.869-1.332-17.308-1.332-17.308s.043-5.806.183-11.083c.117-.1.237-.2.353-.3v-2.07c-.1.088-.195.167-.29.253.04-1.192.085-2.31.137-3.258.3-5.488-3.751-17.186-3.751-17.186s-5.749-15.673-22.875-16.278c-15.2-.538-31.209,10.4-34.613,12.865V257.25c-.225.153-.47.3-.7.45.018-.948.04-1.918.065-2.87.117-.1.237-.2.353-.3v-2.07c-.1.087-.195.167-.29.253.04-1.191.085-2.31.138-3.258.3-5.488-3.753-17.186-3.753-17.186s-5.749-15.675-22.874-16.279c-15.206-.537-31.209,10.4-34.614,12.867V221.78c-.5.335-1.013.662-1.543.985v12.39c0,15.013,5,26.295,14.083,31.9l.037.042.317.183c.085.05.165.108.25.158.055.032.115.052.17.083l62.795,36.152c-.015-.022-.057-.058-.08-.083Z" transform="translate(-203.729 71.339)"/><g transform="translate(0 251.48)"><path class="b" d="M420.528,232.79s-.472-.242-1.3-.578c-.255-.123-.5-.267-.76-.383L358.85,197.32a32,32,0,0,0-24.2-.907c-13.248,4.849-82.67,46.5-82.67,46.5L314,278.64l.012-.007a.689.689,0,0,0,.165.045l61.5,35.432s34.794-21.555,58.865-35.462l1.543-.89c9.842-5.659,17.658-9.885,20.111-10.535,14.841-3.933,25.167.86,27.856,2.335Z" transform="translate(-251.976 -194.47)"/><path class="b" d="M391.239,239.529l.718.417S391.694,239.779,391.239,239.529Z" transform="translate(-159.166 -164.441)"/></g><path class="c" d="M480.569,102.007h0c2.533-2.406,14.348-12.828,31.589-15.465,19.526-2.985,27.595,19.849,27.595,19.849s2.258,11.86,2.178,18.881-.583,32.512-.583,32.512l-61.9-35.657v-.008a.764.764,0,0,1-.425-.68v-18.1C479.539,102.827,480.054,102.522,480.569,102.007Z" transform="translate(-100.662 -15.096)"/><g transform="translate(123.303 70.851)"><path class="d" d="M474.7,428.512c6.824,0,14.38-2.278,22.2-6.792,27.14-15.668,49.216-53.911,49.216-85.245V178.785c0-31.072,21.894-68.992,48.807-84.532,12.892-7.439,24.968-8.665,34.01-3.446s14.021,16.294,14.021,31.179v35.252a.772.772,0,0,0,1.543,0V121.987c0-15.46-5.253-27.006-14.793-32.514s-22.167-4.283-35.553,3.446c-27.338,15.783-49.578,54.3-49.578,85.866v157.69c0,30.844-21.732,68.486-48.445,83.91-12.792,7.384-24.782,8.6-33.757,3.42s-13.916-16.171-13.916-30.944v-18.5c0-16.006-5.438-27.961-15.313-33.662s-22.947-4.433-36.81,3.571L326.353,385.01a.771.771,0,1,0,.772,1.335L397.1,345.6c13.363-7.716,25.89-8.985,35.267-3.571s14.541,16.894,14.541,32.326v18.5c0,15.348,5.216,26.811,14.688,32.281A25.883,25.883,0,0,0,474.7,428.512Z" transform="translate(-325.968 -86.078)"/></g></g><path class="a" d="M422.964,169.241l-10.344-5.973a4.275,4.275,0,0,1-1.776-3.338h0c-.02-1.288.742-1.883,1.7-1.33l10.344,5.973a4.268,4.268,0,0,1,1.775,3.336h0C424.686,169.2,423.924,169.794,422.964,169.241Z" transform="translate(-145.804 33.255)"/><path class="a" d="M438.108,177.984l-15.253-8.807a4.268,4.268,0,0,1-1.775-3.336h0c-.022-1.29.74-1.885,1.7-1.331l15.253,8.807a4.266,4.266,0,0,1,1.775,3.336h0C439.829,177.943,439.068,178.538,438.108,177.984Z" transform="translate(-138.982 37.193)"/><path class="a" d="M426.02,147.753l-19.744-11.4a4.265,4.265,0,0,1-1.775-3.336h0c-.022-1.288.74-1.885,1.7-1.33l19.744,11.4a4.269,4.269,0,0,1,1.775,3.338h0C427.741,147.711,426.98,148.306,426.02,147.753Z" transform="translate(-150.031 15.318)"/><path class="a" d="M412.928,151.821l-6.462-3.731a4.278,4.278,0,0,1-1.775-3.336h0c-.022-1.29.74-1.885,1.7-1.331l6.462,3.731a4.269,4.269,0,0,1,1.775,3.338h0C414.65,151.779,413.888,152.374,412.928,151.821Z" transform="translate(-149.904 23.139)"/><path class="a" d="M410.805,162.22l-4.148-2.395a4.275,4.275,0,0,1-1.776-3.338h0c-.02-1.288.74-1.883,1.7-1.33l4.148,2.395a4.275,4.275,0,0,1,1.776,3.338h0C412.525,162.178,411.765,162.773,410.805,162.22Z" transform="translate(-149.778 30.96)"/><path class="a" d="M431.672,162.641l-17.259-9.965a4.272,4.272,0,0,1-1.776-3.336h0c-.02-1.288.74-1.885,1.7-1.33l17.259,9.964a4.275,4.275,0,0,1,1.776,3.338h0C433.392,162.6,432.632,163.195,431.672,162.641Z" transform="translate(-144.609 26.196)"/><path class="a" d="M436.453,159.589l-30.083-17.368a4.266,4.266,0,0,1-1.775-3.336h0c-.022-1.29.74-1.885,1.7-1.33l30.081,17.368a4.272,4.272,0,0,1,1.776,3.336h0C438.173,159.547,437.413,160.144,436.453,159.589Z" transform="translate(-149.968 19.229)"/><path class="a" d="M423.822,163.923l-17.259-9.965a4.274,4.274,0,0,1-1.776-3.336h0c-.02-1.29.74-1.885,1.7-1.331l17.259,9.965a4.274,4.274,0,0,1,1.776,3.336h0C425.542,163.881,424.782,164.476,423.822,163.923Z" transform="translate(-149.841 27.05)"/><path class="a" d="M435.132,164.639l-6.271-3.62a4.269,4.269,0,0,1-1.775-3.338h0c-.022-1.288.74-1.883,1.7-1.33l6.271,3.621a4.265,4.265,0,0,1,1.775,3.336h0C436.853,164.6,436.092,165.194,435.132,164.639Z" transform="translate(-134.979 31.756)"/><g transform="translate(245.526 122.26)"><path class="a" d="M426.04,136.139,415.7,130.166a4.275,4.275,0,0,1-1.776-3.338h0c-.02-1.288.74-1.883,1.7-1.33l10.345,5.973a4.269,4.269,0,0,1,1.775,3.338h0C427.762,136.1,427,136.692,426.04,136.139Z" transform="translate(-389.28 -111.066)"/><path class="a" d="M442.789,145.809,427.536,137a4.266,4.266,0,0,1-1.775-3.336h0c-.022-1.29.74-1.885,1.7-1.33l15.253,8.805a4.268,4.268,0,0,1,1.775,3.336h0C444.51,145.768,443.749,146.362,442.789,145.809Z" transform="translate(-381.389 -106.509)"/><path class="a" d="M422.964,169.241l-10.344-5.973a4.275,4.275,0,0,1-1.776-3.338h0c-.02-1.288.742-1.883,1.7-1.33l10.344,5.973a4.268,4.268,0,0,1,1.775,3.336h0C424.686,169.2,423.924,169.794,422.964,169.241Z" transform="translate(-391.33 -89.005)"/><path class="a" d="M438.108,177.984l-15.253-8.807a4.268,4.268,0,0,1-1.775-3.336h0c-.022-1.29.74-1.885,1.7-1.331l15.253,8.807a4.266,4.266,0,0,1,1.775,3.336h0C439.829,177.943,439.068,178.538,438.108,177.984Z" transform="translate(-384.508 -85.067)"/><path class="a" d="M407.466,131.229,401,127.5a4.278,4.278,0,0,1-1.775-3.338h0c-.022-1.288.74-1.883,1.7-1.33l6.463,3.731a4.268,4.268,0,0,1,1.775,3.336h0C409.188,131.187,408.426,131.782,407.466,131.229Z" transform="translate(-399.07 -112.844)"/><path class="a" d="M426.02,147.753l-19.744-11.4a4.265,4.265,0,0,1-1.775-3.336h0c-.022-1.288.74-1.885,1.7-1.33l19.744,11.4a4.269,4.269,0,0,1,1.775,3.338h0C427.741,147.711,426.98,148.306,426.02,147.753Z" transform="translate(-395.557 -106.942)"/><path class="a" d="M412.928,151.821l-6.462-3.731a4.278,4.278,0,0,1-1.775-3.336h0c-.022-1.29.74-1.885,1.7-1.331l6.462,3.731a4.269,4.269,0,0,1,1.775,3.338h0C414.65,151.779,413.888,152.374,412.928,151.821Z" transform="translate(-395.43 -99.121)"/><path class="a" d="M443.488,192.715l-17.259-9.965a4.274,4.274,0,0,1-1.776-3.336h0c-.02-1.29.74-1.885,1.7-1.33l17.259,9.964a4.275,4.275,0,0,1,1.776,3.338h0C445.208,192.674,444.448,193.269,443.488,192.715Z" transform="translate(-382.261 -76.021)"/><path class="a" d="M410.805,162.22l-4.148-2.395a4.275,4.275,0,0,1-1.776-3.338h0c-.02-1.288.74-1.883,1.7-1.33l4.148,2.395a4.275,4.275,0,0,1,1.776,3.338h0C412.525,162.178,411.765,162.773,410.805,162.22Z" transform="translate(-395.304 -91.3)"/><path class="a" d="M412,174.535l-5.151-2.975a4.272,4.272,0,0,1-1.776-3.336h0c-.02-1.288.742-1.885,1.7-1.33l5.153,2.975A4.268,4.268,0,0,1,413.7,173.2h0C413.72,174.493,412.958,175.09,412,174.535Z" transform="translate(-395.177 -83.479)"/><path class="a" d="M427.394,183.424l-13.58-7.841a4.275,4.275,0,0,1-1.776-3.338h0c-.02-1.288.74-1.883,1.7-1.33l13.581,7.841a4.269,4.269,0,0,1,1.775,3.338h0C429.116,183.382,428.354,183.977,427.394,183.424Z" transform="translate(-390.534 -80.798)"/><path class="a" d="M416.706,183.066l-9.764-5.638a4.272,4.272,0,0,1-1.776-3.336h0c-.02-1.29.742-1.885,1.7-1.33l9.764,5.638a4.272,4.272,0,0,1,1.776,3.336h0C418.428,183.024,417.666,183.621,416.706,183.066Z" transform="translate(-395.114 -79.568)"/><path class="a" d="M431.672,162.641l-17.259-9.965a4.272,4.272,0,0,1-1.776-3.336h0c-.02-1.288.74-1.885,1.7-1.33l17.259,9.964a4.275,4.275,0,0,1,1.776,3.338h0C433.392,162.6,432.632,163.195,431.672,162.641Z" transform="translate(-390.135 -96.064)"/><path class="a" d="M436.453,159.589l-30.083-17.368a4.266,4.266,0,0,1-1.775-3.336h0c-.022-1.29.74-1.885,1.7-1.33l30.081,17.368a4.272,4.272,0,0,1,1.776,3.336h0C438.173,159.547,437.413,160.144,436.453,159.589Z" transform="translate(-395.494 -103.031)"/><path class="a" d="M423.822,163.923l-17.259-9.965a4.274,4.274,0,0,1-1.776-3.336h0c-.02-1.29.74-1.885,1.7-1.331l17.259,9.965a4.274,4.274,0,0,1,1.776,3.336h0C425.542,163.881,424.782,164.476,423.822,163.923Z" transform="translate(-395.367 -95.21)"/><path class="a" d="M435.132,164.639l-6.271-3.62a4.269,4.269,0,0,1-1.775-3.338h0c-.022-1.288.74-1.883,1.7-1.33l6.271,3.621a4.265,4.265,0,0,1,1.775,3.336h0C436.853,164.6,436.092,165.194,435.132,164.639Z" transform="translate(-380.505 -90.504)"/><path class="a" d="M427.5,177.672l-20.747-11.978a4.275,4.275,0,0,1-1.776-3.338h0c-.02-1.288.74-1.885,1.7-1.33L427.423,173a4.274,4.274,0,0,1,1.776,3.336h0C429.219,177.63,428.46,178.225,427.5,177.672Z" transform="translate(-395.24 -87.389)"/><path class="a" d="M416.162,130.435l-15.253-8.805a4.269,4.269,0,0,1-1.775-3.338h0c-.022-1.288.74-1.883,1.7-1.33l15.253,8.807a4.266,4.266,0,0,1,1.775,3.336h0C417.883,130.395,417.122,130.99,416.162,130.435Z" transform="translate(-399.134 -116.755)"/><path class="a" d="M419.526,190.507l-17.666-10.2a4.265,4.265,0,0,1-1.775-3.336h0c-.022-1.288.74-1.885,1.7-1.33l17.666,10.2a4.269,4.269,0,0,1,1.775,3.338h0C421.247,190.466,420.486,191.061,419.526,190.507Z" transform="translate(-398.5 -77.649)"/></g><path class="a" d="M421.505,224.925l-10.344-5.972a4.272,4.272,0,0,1-1.776-3.336h0c-.02-1.29.741-1.885,1.7-1.331l10.345,5.972A4.269,4.269,0,0,1,423.2,223.6h0C423.227,224.883,422.465,225.478,421.505,224.925Z" transform="translate(-146.776 70.365)"/><path class="a" d="M436.65,233.668,421.4,224.861a4.272,4.272,0,0,1-1.776-3.336h0c-.02-1.288.742-1.885,1.7-1.33L436.575,229a4.279,4.279,0,0,1,1.775,3.338h0C438.371,233.626,437.609,234.223,436.65,233.668Z" transform="translate(-139.955 74.303)"/><path class="a" d="M424.561,203.437l-19.744-11.4a4.269,4.269,0,0,1-1.775-3.338h0c-.022-1.288.74-1.883,1.7-1.33l19.744,11.4a4.265,4.265,0,0,1,1.775,3.336h0C426.282,203.4,425.521,203.992,424.561,203.437Z" transform="translate(-151.003 52.428)"/><path class="a" d="M411.469,207.5l-6.462-3.731a4.266,4.266,0,0,1-1.775-3.336h0c-.022-1.288.74-1.885,1.7-1.33l6.462,3.731a4.266,4.266,0,0,1,1.775,3.336h0C413.191,207.462,412.429,208.059,411.469,207.5Z" transform="translate(-150.877 60.249)"/><path class="a" d="M409.346,217.9l-4.149-2.395a4.275,4.275,0,0,1-1.775-3.336h0c-.022-1.29.74-1.885,1.7-1.33l4.148,2.395a4.272,4.272,0,0,1,1.776,3.336h0C411.066,217.862,410.3,218.459,409.346,217.9Z" transform="translate(-150.75 68.07)"/><path class="a" d="M430.213,218.325l-17.261-9.964a4.269,4.269,0,0,1-1.775-3.338h0c-.022-1.288.74-1.883,1.7-1.33l17.259,9.965A4.272,4.272,0,0,1,431.913,217h0C431.933,218.285,431.171,218.88,430.213,218.325Z" transform="translate(-145.582 63.306)"/><path class="a" d="M434.993,215.274l-30.081-17.368a4.269,4.269,0,0,1-1.775-3.338h0c-.022-1.288.74-1.883,1.7-1.33l30.081,17.368a4.275,4.275,0,0,1,1.776,3.336h0C436.714,215.232,435.953,215.827,434.993,215.274Z" transform="translate(-150.94 56.339)"/><path class="a" d="M422.363,219.606,405.1,209.641a4.266,4.266,0,0,1-1.775-3.336h0c-.022-1.29.74-1.885,1.7-1.33l17.259,9.965a4.272,4.272,0,0,1,1.776,3.336h0C424.083,219.565,423.321,220.16,422.363,219.606Z" transform="translate(-150.813 64.16)"/><path class="a" d="M433.673,220.324,427.4,216.7a4.272,4.272,0,0,1-1.776-3.336h0c-.02-1.288.742-1.885,1.7-1.33l6.271,3.62a4.269,4.269,0,0,1,1.775,3.338h0C435.395,220.283,434.633,220.877,433.673,220.324Z" transform="translate(-135.952 68.866)"/></g><path class="a" d="M305.888,284.18s-5.914-2.983-9.547,1.458-8.824,14.925-8.984,22.009,5.606,6.606,9.034,4.929,13.441-16.2,14.048-19.049-.715-6.694-1.678-7.447S305.888,284.18,305.888,284.18Z" transform="translate(-228.102 116.43)"/><path class="b" d="M303.728,283.5l.273,6.127a3.472,3.472,0,0,1-1.731,3.186,6.809,6.809,0,0,1-4.561.71c-4.456-.717-4.853-1.988-5.171-8.114S303.728,283.5,303.728,283.5Z" transform="translate(-224.652 115.687)"/><g transform="translate(36.909 263.262)"><path class="a" d="M292.9,277.111s-5.914-2.983-9.545,1.458-8.824,14.925-8.985,22.009,5.606,6.6,9.034,4.928,13.441-16.2,14.048-19.047-.715-6.7-1.678-7.447S292.9,277.111,292.9,277.111Z" transform="translate(-273.669 -151.543)"/><path class="b" d="M290.737,276.429l.275,6.127a3.476,3.476,0,0,1-1.731,3.188,6.824,6.824,0,0,1-4.563.71c-4.454-.717-4.853-1.99-5.171-8.116S290.737,276.429,290.737,276.429Z" transform="translate(-270.219 -152.287)"/><path class="c" d="M347.236,213.023c-1.751-28.479-30.844,4.189-30.844,4.189L296.481,236.73l-17.931,19.7a17.67,17.67,0,0,0-4.453,14.2l7.252,55.229a5.429,5.429,0,0,0,5.443,4.718,18.6,18.6,0,0,0,2.688-.235,6.747,6.747,0,0,0,5.992-7.161l-1.327-51.656,37.655-22.7S348.985,241.5,347.236,213.023Z" transform="translate(-273.946 -201.368)"/></g><path class="c" d="M360.225,219.534c-1.75-28.479-30.842,4.191-30.842,4.191l-19.912,19.516-17.929,19.7a17.671,17.671,0,0,0-4.454,14.2l7.254,55.231a5.429,5.429,0,0,0,5.443,4.718,18.4,18.4,0,0,0,2.686-.237,6.748,6.748,0,0,0,5.994-7.159l-1.327-51.656,37.655-22.7S361.975,248.015,360.225,219.534Z" transform="translate(-228.38 66.233)"/><path class="a" d="M337.605,161.28c22.057,9.145,21.614,22.182,21.614,22.182s-4.319,47.8-2.845,79.721c.615,13.345-70.9,14.363-60.237-21.239,12.577-41.978,7.862-75.961,13.75-81.085S331.9,158.916,337.605,161.28Z" transform="translate(-222.971 33.066)"/><path class="g" d="M333.736,171.521c-1.153,4.479-7.021,6.839-13.1,5.273s-10.082-6.469-8.927-10.947,7.021-6.839,13.1-5.271S334.89,167.043,333.736,171.521Z" transform="translate(-212.006 34.386)"/><path class="f" d="M324.777,178.747a15.98,15.98,0,0,1-3.986-.513,14.669,14.669,0,0,1-7.732-4.736A8.433,8.433,0,0,1,311.106,166c1.3-5.036,7.751-7.742,14.39-6.027a14.673,14.673,0,0,1,7.732,4.734,8.434,8.434,0,0,1,1.953,7.494h0C334.147,176.215,329.84,178.747,324.777,178.747Zm-3.321-17.183c-4.1,0-7.521,1.9-8.309,4.966a6.386,6.386,0,0,0,1.547,5.634,12.559,12.559,0,0,0,6.624,4.028c5.506,1.418,10.813-.607,11.822-4.514h0a6.388,6.388,0,0,0-1.547-5.634,12.582,12.582,0,0,0-6.624-4.028A14.152,14.152,0,0,0,321.456,161.564Z" transform="translate(-212.429 33.966)"/><path class="g" d="M315.358,161.174s.19.885-.192,7.874c-.12,2.2,7.574,4.251,9.564,2.261s1.193-4.056,1.67-11.535S315.358,161.174,315.358,161.174Z" transform="translate(-209.568 32.178)"/><path class="h" d="M326.4,158.576s-1.895,6.934-11.233,9.594l.142-6.3Z" transform="translate(-209.567 33.376)"/><ellipse class="g" cx="16.978" cy="16.978" rx="16.978" ry="16.978" transform="translate(83.104 184.737) rotate(-59.844)"/><path class="h" d="M326.332,152.569s-9.347,4-15.819,4.049-5.048-5.374-5.048-5.374l19.214-2.776Z" transform="translate(-216.121 26.64)"/><path class="i" d="M311.534,161.841s8.142-3.456,15.286-2.015a7.486,7.486,0,0,1,4.316,2.565,2.546,2.546,0,0,0,1.306.945c1.267.287,3.341-4.968,5.8-5.088s4.1,1.623,2.086,4.854-1.336,6.851-.408,7.369,10.782-7.027,2.091-24.243-30.766-7.944-34.2-4.454c0,0-3.618,3.151-6.559.347C301.256,142.121,297.96,166.821,311.534,161.841Z" transform="translate(-219.072 18.422)"/><path class="g" d="M337.43,197.22v12.917a5.261,5.261,0,0,1-1.716,3.888l-26.533,24.19,3.016,4.609,35.039-25.411a7.126,7.126,0,0,0,2.9-5.021l2.368-22.524Z" transform="translate(-213.556 54.23)"/><path class="a" d="M337.414,169.449s8.049,12.1,11.047,43.969c0,0-13.75,4.448-21.554,1.923S337.414,169.449,337.414,169.449Z" transform="translate(-203.032 40.622)"/><path class="d" d="M326.585,178.634s-3.153,16.864-3.331,24.792a5.061,5.061,0,0,0,3.331,4.886h0Z" transform="translate(-204.178 46.744)"/><path class="a" d="M352.644,238.2l-5.864-.775-37.855-21.855a5.261,5.261,0,0,0-4.734.2l-26.825,15.481-3.546-.468v3.53h0a1.38,1.38,0,0,0,.815,1.243l42.9,24.768a5.261,5.261,0,0,0,4.734-.195l29.213-16.861a1.914,1.914,0,0,0,1.158-1.591h0Z" transform="translate(-237.121 71.042)"/><path class="d" d="M324.2,221.292l-2.69-1.553H291.943l-14.576,8.41-3.546-.468v3.53h0a1.38,1.38,0,0,0,.815,1.243l42.9,24.768a4.426,4.426,0,0,0,2.443.458Z" transform="translate(-237.121 74.137)"/><path class="a" d="M275.393,224.712l-1.573-.207v3.53h0a1.38,1.38,0,0,0,.815,1.243l.755.437Z" transform="translate(-237.121 77.314)"/><path class="f" d="M300.314,244.855a5.49,5.49,0,0,0,4.023-.25V238.6h-4.023Z" transform="translate(-219.465 86.706)"/><path class="f" d="M317.539,258.124l-42.9-24.768c-1.213-.7-1.061-1.925.34-2.733l29.213-16.859a5.256,5.256,0,0,1,4.734-.2l42.9,24.768c1.213.7,1.061,1.925-.34,2.733l-29.213,16.861A5.261,5.261,0,0,1,317.539,258.124Z" transform="translate(-237.122 69.708)"/><path class="b" d="M314.157,250.751l-35.672-20.6c-1.008-.583-.882-1.6.283-2.273l15.655-8.8a4.371,4.371,0,0,1,3.936-.163l35.672,20.594c1.008.583.883,1.6-.283,2.273l-15.653,8.8A4.384,4.384,0,0,1,314.157,250.751Z" transform="translate(-234.466 73.328)"/><path class="g" d="M293.314,213.6l-.443,2.961a21.879,21.879,0,0,0,.193,7.591l.527,2.608a3.67,3.67,0,0,0,2.94,2.881h0a2.023,2.023,0,0,0,2.373-1.766l.708-6.327s1.62,2.121,2.4,2.121-.875-6.337-2.643-9.924S293.314,213.6,293.314,213.6Z" transform="translate(-224.587 69.056)"/><path class="g" d="M308.7,188.347l-4.6,9.112a17.847,17.847,0,0,0-1.883,6.914l-2,31.164-6.056-.145-2.75-35a12.818,12.818,0,0,1,.157-3.235l3.141-17.748Z" transform="translate(-225.428 47.264)"/><path class="c" d="M317.483,267.924l-3.6-4.7-37.828-21.9a5.261,5.261,0,0,1-2.191-4.2l.032-30.969-2.175-2.84,2.045-1.185,0,0a1.384,1.384,0,0,1,1.483.085l42.871,24.822a5.265,5.265,0,0,1,2.191,4.2l-.037,33.729a1.91,1.91,0,0,1-.8,1.8h0Z" transform="translate(-238.519 62.287)"/><path class="d" d="M291.324,250.165l-2.688-1.556-14.753-25.625.015-16.828-2.175-2.84,2.045-1.185,0,0a1.384,1.384,0,0,1,1.483.085l42.871,24.822a4.444,4.444,0,0,1,1.615,1.89Z" transform="translate(-238.519 62.287)"/><path class="a" d="M272.688,204.576l-.965-1.26,2.045-1.185,0,0a1.384,1.384,0,0,1,1.483.085l.755.438Z" transform="translate(-238.519 62.287)"/><path class="e" d="M301.561,217.175a5.484,5.484,0,0,1,1.791,3.611l-4.189,2.418-2.006-3.486Z" transform="translate(-221.569 72.429)"/><path class="a" d="M316.381,227.751l-42.871-24.82c-1.213-.7-2.2.04-2.2,1.658l-.037,33.729a5.262,5.262,0,0,0,2.193,4.2l42.869,24.822c1.213.7,2.2-.042,2.2-1.66l.037-33.727A5.271,5.271,0,0,0,316.381,227.751Z" transform="translate(-238.818 62.76)"/><path class="g" d="M316.644,223.489l-.688,1.423a9.517,9.517,0,0,1-3.583,3.973l-4.258,2.625a4.24,4.24,0,0,1-4.348.1c-.048-.028-.1-.057-.145-.087a2.563,2.563,0,0,1-.362-3.936l4.449-4.574s-2.5,1.915-3.2,1.143c-.513-.565,2.425-3.323,4.681-3.415a8.9,8.9,0,0,0,4.438-1.861Z" transform="translate(-218.003 73.565)"/><path class="a" d="M313.376,159.72s-16.314,17.749-22.9,34.032c0,0,5.579,10.05,19.234,13.995S313.376,159.72,313.376,159.72Z" transform="translate(-226.018 34.139)"/><path class="d" d="M301.614,198.122l2.643-25.541-6.229,23.93A35.892,35.892,0,0,0,301.614,198.122Z" transform="translate(-220.988 42.71)"/><path class="f" d="M313.305,158.052l-4.384-1.2s2.093,3.293,5.148,4.133,3.531-1.748,3.531-1.748Z" transform="translate(-213.729 32.224)"/><path class="f" d="M327.555,154.335a2.441,2.441,0,1,1-2.441-2.441A2.44,2.44,0,0,1,327.555,154.335Z" transform="translate(-204.565 28.923)"/><path class="i" d="M547.235,167.881l-7.352-14.956,14.955-7.352,7.352,14.956Zm-2.89-13.436,4.411,8.974,8.97-4.409-4.409-8.974Z" transform="translate(-59.807 24.71)"/><path class="a" d="M349.709,128.353a10.832,10.832,0,1,1,10.832-10.832A10.844,10.844,0,0,1,349.709,128.353Zm0-18.331a7.5,7.5,0,1,0,7.5,7.5A7.506,7.506,0,0,0,349.709,110.022Z" transform="translate(-193.765 -1.203)"/><path class="b" d="M355.874,325.864A7.861,7.861,0,1,1,348.012,318,7.862,7.862,0,0,1,355.874,325.864Z" transform="translate(-192.916 139.623)"/><path class="b" d="M508.288,56.488a9.37,9.37,0,1,1-9.369-9.37A9.369,9.369,0,0,1,508.288,56.488Z" transform="translate(-93.352 -40.903)"/><path class="j" d="M490.86,121.354,446.3,95.629a2.279,2.279,0,0,0-2.3-.185l0-.03-4.323,2.5s1.915.7,3.038,1.11V131.47c0,2.64,1.6,5.706,3.585,6.849l42.589,24.59v3.806l4.366-2.515-.023-.008a3.175,3.175,0,0,0,1.211-2.858V128.2C494.445,125.563,492.84,122.5,490.86,121.354Z" transform="translate(-126.587 -8.852)"/><path class="i" d="M487,165.573l-44.559-25.725c-1.98-1.143-3.584-4.211-3.584-6.851V99.866c0-2.64,1.6-3.853,3.584-2.71L487,122.881c1.98,1.143,3.584,4.211,3.584,6.851v33.132C490.589,165.5,488.984,166.716,487,165.573Z" transform="translate(-127.132 -7.843)"/><g transform="translate(324.286 114.97)"><path class="f" d="M452.408,118c0,1.918-1.346,2.695-3.006,1.736a6.641,6.641,0,0,1-3.006-5.208c0-1.916,1.345-2.695,3.006-1.735A6.645,6.645,0,0,1,452.408,118Z" transform="translate(-446.396 -112.38)"/><path class="f" d="M457.873,121.154c0,1.916-1.345,2.695-3.006,1.735a6.645,6.645,0,0,1-3.006-5.206c0-1.918,1.347-2.695,3.006-1.736A6.641,6.641,0,0,1,457.873,121.154Z" transform="translate(-442.754 -110.277)"/><path class="f" d="M463.34,124.308c0,1.918-1.346,2.695-3.006,1.736a6.643,6.643,0,0,1-3.008-5.208c0-1.916,1.346-2.695,3.008-1.735A6.645,6.645,0,0,1,463.34,124.308Z" transform="translate(-439.112 -108.174)"/></g></svg>