<svg xmlns="http://www.w3.org/2000/svg" width="134.4" height="144" viewBox="0 0 134.4 144"><defs><style>.a{fill:#b4b4b4;}</style></defs><g transform="translate(-16)"><g transform="translate(121.6 62.4)"><path class="a" d="M368,208v14.4h19.2V208Zm14.4,9.6h-9.6v-4.8h9.6Z" transform="translate(-368 -208)"/></g><g transform="translate(121.6 81.6)"><path class="a" d="M368,272v14.4h19.2V272Zm14.4,9.6h-9.6v-4.8h9.6Z" transform="translate(-368 -272)"/></g><g transform="translate(121.6 100.8)"><path class="a" d="M368,336v14.4h19.2V336Zm14.4,9.6h-9.6v-4.8h9.6Z" transform="translate(-368 -336)"/></g><g transform="translate(121.6 120)"><path class="a" d="M368,400v14.4h19.2V400Zm14.4,9.6h-9.6v-4.8h9.6Z" transform="translate(-368 -400)"/></g><g transform="translate(59.2 9.6)"><path class="a" d="M193.6,46.4V32H174.4V46.4H160V65.6h14.4V80h19.2V65.6H208V46.4Zm9.6,14.4H188.8V75.2h-9.6V60.8H164.8V51.2h14.4V36.8h9.6V51.2h14.4Z" transform="translate(-160 -32)"/></g><g transform="translate(16)"><g transform="translate(0)"><path class="a" d="M116.8,52.8V0H49.6V52.8H16V144H150.4V52.8ZM49.6,139.2H20.8V57.6H49.6Zm31.2,0h-12V96h12Zm16.8,0h-12V96h12Zm14.4,0h-9.6v-48H64v48H54.4V4.8H112Zm33.6,0H116.8V57.6h28.8Z" transform="translate(-16)"/></g></g><g transform="translate(25.6 62.4)"><path class="a" d="M48,208v14.4H67.2V208Zm14.4,9.6H52.8v-4.8h9.6Z" transform="translate(-48 -208)"/></g><g transform="translate(25.6 81.6)"><path class="a" d="M48,272v14.4H67.2V272Zm14.4,9.6H52.8v-4.8h9.6Z" transform="translate(-48 -272)"/></g><g transform="translate(25.6 100.8)"><path class="a" d="M48,336v14.4H67.2V336Zm14.4,9.6H52.8v-4.8h9.6Z" transform="translate(-48 -336)"/></g><g transform="translate(25.6 120)"><path class="a" d="M48,400v14.4H67.2V400Zm14.4,9.6H52.8v-4.8h9.6Z" transform="translate(-48 -400)"/></g></g></svg>