<svg xmlns="http://www.w3.org/2000/svg" width="76" height="77.197" viewBox="0 0 76 77.197"><defs><style>.a,.f{fill:none;}.a{stroke:#e6e6e6;}.a,.c{stroke-width:2px;}.b{fill:#818181;}.c{fill:#fff;stroke:#818181;}.d{fill:#01d35a;}.e{stroke:none;}</style></defs><g transform="translate(-834 -318)"><g transform="translate(834.692 319.075)"><g transform="translate(0 0)"><g transform="translate(0 0)"><g transform="translate(0)"><circle class="a" cx="37" cy="37" r="37" transform="translate(0.308 -0.075)"/><g transform="translate(-73.606 -82.974)"><g transform="translate(97.702 102.976)"><path class="b" d="M117.694,117.88v-14.9H105.082v14.9H97.7l13.686,13.686,13.686-13.686ZM102.084,119.7H106.9v-14.9h8.981v14.9h4.812l-9.3,9.3Z" transform="translate(-97.702 -102.976)"/></g></g><g class="c" transform="translate(24.308 48.925)"><rect class="e" width="27" height="6"/><rect class="f" x="1" y="1" width="25" height="4"/></g></g></g></g></g><path class="d" d="M12.116,0A12.116,12.116,0,1,0,24.232,12.116,12.129,12.129,0,0,0,12.116,0Zm5.825,13.048H13.048v5.126a.932.932,0,1,1-1.864,0V13.048H6.291a.932.932,0,1,1,0-1.864h4.893V6.524a.932.932,0,1,1,1.864,0v4.66h4.893a.932.932,0,1,1,0,1.864Z" transform="translate(883.969 370.966)"/></g></svg>