<svg xmlns="http://www.w3.org/2000/svg" xmlns:xlink="http://www.w3.org/1999/xlink" width="21.462" height="21.492" viewBox="0 0 21.462 21.492"><defs><style>.a{fill:#ff9102;}.b{fill:url(#a);}.c{fill:url(#b);}.d{fill:#c2cece;}.e{fill:url(#c);}.f{fill:url(#d);}.g{fill:url(#e);}.h{fill:url(#f);}.i{fill:#fff;}.j{fill:url(#g);}</style><linearGradient id="a" x1="0.085" y1="1.113" x2="1.067" y2="0.07" gradientUnits="objectBoundingBox"><stop offset="0" stop-color="#fff"/><stop offset="1" stop-color="#e8efee"/></linearGradient><linearGradient id="b" x1="0.936" y1="-8.083" x2="-0.054" y2="-9.223" gradientUnits="objectBoundingBox"><stop offset="0" stop-color="#c2cece" stop-opacity="0"/><stop offset="0.179" stop-color="#afbcbc" stop-opacity="0.18"/><stop offset="1" stop-color="#5b6a6a"/></linearGradient><linearGradient id="c" x1="0.771" y1="0.781" x2="-0.083" y2="1.568" xlink:href="#b"/><linearGradient id="d" x1="0.463" y1="0.122" x2="0.463" y2="-0.454" gradientUnits="objectBoundingBox"><stop offset="0" stop-color="#ffc200"/><stop offset="0.268" stop-color="#fb0"/><stop offset="0.659" stop-color="#ffa801"/><stop offset="1" stop-color="#ff9102"/></linearGradient><linearGradient id="e" x1="0.462" y1="-0.977" x2="0.462" y2="-1.276" xlink:href="#d"/><linearGradient id="f" x1="0.133" y1="2.542" x2="0.522" y2="1.616" gradientUnits="objectBoundingBox"><stop offset="0" stop-color="#d63305"/><stop offset="0.366" stop-color="#cf3004"/><stop offset="0.899" stop-color="#bc2602"/><stop offset="1" stop-color="#b72401"/></linearGradient><linearGradient id="g" x1="0.223" y1="0.976" x2="-0.501" y2="1.746" xlink:href="#b"/></defs><g transform="translate(-0.351)"><path class="a" d="M10.526,1.967.351,10.189v1.532H21.813V10.189L11.638,1.967A.885.885,0,0,0,10.526,1.967Z" transform="translate(0 -1.696)"/><path class="b" d="M40.23,18.523H22.305a.884.884,0,0,1-.884-.884V.884A.884.884,0,0,1,22.305,0H40.23a.884.884,0,0,1,.884.884V17.638A.884.884,0,0,1,40.23,18.523Z" transform="translate(-20.186)"/><path class="c" d="M41.115,408.463v.344a1.033,1.033,0,0,1-1.033,1.033H22.455a1.033,1.033,0,0,1-1.033-1.033v-.344Z" transform="translate(-20.187 -391.317)"/><g transform="translate(5.392 2.801)"><rect class="d" width="11.38" height="0.649"/><rect class="d" width="11.38" height="0.649" transform="translate(0 2.594)"/><rect class="d" width="11.38" height="0.649" transform="translate(0 5.248)"/><rect class="d" width="11.38" height="0.649" transform="translate(0 7.901)"/></g><path class="e" d="M366.724,179.962a3.611,3.611,0,0,1-2.319-.839l-.246.043,5.307,5.307v-5.765A3.617,3.617,0,0,1,366.724,179.962Z" transform="translate(-348.537 -171.206)"/><path class="f" d="M21.813,202.791v12.095a.885.885,0,0,1-.884.884H1.235a.885.885,0,0,1-.884-.884V202.791L11.2,211.348Z" transform="translate(0 -194.279)"/><path class="g" d="M26.34,314.1,16.4,306.088a.885.885,0,0,0-1.11,0L5.2,314.223a.883.883,0,0,0,.681.32H25.575A.883.883,0,0,0,26.34,314.1Z" transform="translate(-4.646 -293.052)"/><circle class="h" cx="3.626" cy="3.626" r="3.626" transform="translate(14.561 1.798)"/><path class="i" d="M405.781,71.083a.324.324,0,0,1,.143-.278l.706-.679a.249.249,0,0,1,.183-.075.394.394,0,0,1,.221.064.2.2,0,0,1,.1.173v4.493a.2.2,0,0,1-.109.173.482.482,0,0,1-.251.064.477.477,0,0,1-.255-.064.2.2,0,0,1-.105-.173V71.008l-.238.3a.207.207,0,0,1-.149.068.213.213,0,0,1-.173-.092A.32.32,0,0,1,405.781,71.083Z" transform="translate(-388.412 -67.111)"/><path class="j" d="M21.7,17.914V1.16a.884.884,0,0,1,.884-.884H40.506a.879.879,0,0,1,.472.137A.883.883,0,0,0,40.23,0H22.305a.884.884,0,0,0-.884.884V17.638a.883.883,0,0,0,.413.747A.879.879,0,0,1,21.7,17.914Z" transform="translate(-20.186)"/></g></svg>