<svg xmlns="http://www.w3.org/2000/svg" width="273.926" height="164.06"><defs><style>.b{fill:#c3dbdd}.c{fill:#6dbfd5}.d{fill:#384c4b}.g{fill:#fff}.j{fill:#8d6c3a}.k{fill:#755522}.l{fill:#419645}.m{fill:#55b748}</style></defs><path d="M235.712 39.181a44.84 44.84 0 0 0-21.252 1.848 45.054 45.054 0 0 0-69.557-31.055 33.79 33.79 0 0 0-51.877 4.777 55.72 55.72 0 0 0-3.1-.582 52.562 52.562 0 0 0-58.338 36.91 33.387 33.387 0 0 0 .934 66.718q-.183.874-.322 1.767a33.4 33.4 0 0 0 61.442 22.589 45.043 45.043 0 0 0 67.2 11.693 45.009 45.009 0 0 0 56.515-26.583 45.051 45.051 0 1 0 18.362-88.083z" fill="#e9f6f7"/><g transform="translate(-263.067 -1803.472)"><path class="b" d="M367.646 1858.402h69.799v65.923h-69.799z"/><path class="b" d="M316.176 1858.864h52.768v65.461h-52.768z"/><path class="c" d="M346.786 1866.9h14.969v14.969h-14.969z"/><path class="d" d="M315.352 1856.855a1.606 1.606 0 0 0-1.744 1.417v1.039a1.606 1.606 0 0 0 1.744 1.417h58.311v-3.872z"/><path class="c" d="M323.39 1866.9h14.969v14.969H323.39z"/><path class="b" d="M433.67 1858.864h52.768v65.847H433.67z"/><path class="d" d="M487.261 1856.855a1.606 1.606 0 0 1 1.744 1.417v1.039a1.606 1.606 0 0 1-1.744 1.417h-58.312v-3.872z"/><path d="M370.886 1828.547v96.55h61.042v-96.55z" fill="#ddecef"/><path class="c" d="M379.941 1887.89h19.377v34.092h-19.377zM403.482 1887.89h19.238v34.092h-19.238z"/><rect class="d" width="75.692" height="4.768" rx="2.384" transform="translate(363.562 1827.57)"/><path class="d" d="M401.434 1808.726a9.641 9.641 0 1 1-6.817 2.824 9.579 9.579 0 0 1 6.817-2.824m0-2.137a11.778 11.778 0 1 0 11.778 11.778 11.778 11.778 0 0 0-11.778-11.778zM378.968 1884.015h44.529a1.914 1.914 0 0 1 1.914 1.914 1.914 1.914 0 0 1-1.914 1.914h-44.529a1.914 1.914 0 0 1-1.914-1.914 1.914 1.914 0 0 1 1.914-1.914z"/><path class="c" d="M346.786 1888.78h14.969v14.969h-14.969zM323.39 1888.78h14.969v14.969H323.39zM403.159 1845.365H416.2v13.041h-13.041zM385.744 1845.365h13.041v13.041h-13.041zM403.159 1863.5H416.2v13.041h-13.041zM385.744 1863.5h13.041v13.041h-13.041z"/><circle cx="10.576" cy="10.576" r="10.576" transform="rotate(-45 2388.333 442.753)" fill="#c13838"/><g transform="translate(396.393 1813.307)"><rect class="g" width="2.851" height="10.104" rx="1.426" transform="translate(3.651)"/><rect class="g" width="10.104" height="2.851" rx="1.426" transform="translate(0 3.651)"/></g><path d="M289.508 1932.854c0 .108-.008.216-.008.325v.1c0 4.959 4.656 8.979 10.413 8.979h200.3c5.758 0 10.425-4.02 10.425-8.979v-.1c0-.109 0-.217-.008-.325z" fill="#8e5c21"/><path d="M500.214 1924.201h-200.3c-5.631 0-10.207 3.845-10.406 8.653h221.123c-.199-4.808-4.786-8.653-10.417-8.653z" fill="#509039"/><path class="j" d="M311.578 1917.9l-.284 8.4 1.638.652v-9.055z"/><path class="k" d="M314.286 1917.9h-1.354v9.055l1.638-.652z"/><path class="l" d="M312.691 1900.786s14.649 15.859.348 19.953z"/><path class="m" d="M312.691 1900.768s-14.087 16.38.348 19.971z"/><path class="j" d="M488.295 1917.9l-.284 8.4 1.638.652v-9.055z"/><path class="k" d="M491.002 1917.9h-1.354v9.055l1.638-.652z"/><g><path class="l" d="M489.408 1900.786s14.649 15.859.348 19.953z"/><path class="m" d="M489.408 1900.768s-14.087 16.38.349 19.971z"/></g><g><path class="j" d="M371.149 1917.9l-.284 8.4 1.638.652v-9.055z"/><path class="k" d="M373.857 1917.9h-1.354v9.055l1.638-.652z"/><g><path class="l" d="M372.262 1900.786s14.649 15.859.348 19.953z"/><path class="m" d="M372.262 1900.768s-14.087 16.38.348 19.971z"/></g></g><g><path class="j" d="M430.034 1917.9l-.284 8.4 1.637.652v-9.055z"/><path class="k" d="M432.741 1917.9h-1.354v9.055l1.638-.652z"/><g><path class="l" d="M431.147 1900.786s14.649 15.859.348 19.953z"/><path class="m" d="M431.147 1900.768s-14.087 16.38.348 19.971z"/></g></g><g><path class="j" d="M341.363 1917.9l-.284 8.4 1.638.652v-9.055z"/><path class="k" d="M344.07 1917.9h-1.354v9.055l1.638-.652z"/><g><path class="l" d="M342.476 1900.786s14.649 15.859.348 19.953z"/><path class="m" d="M342.476 1900.768s-14.087 16.38.348 19.971z"/></g></g><g><path class="c" d="M464.253 1866.9h14.969v14.969h-14.969zM440.857 1866.9h14.969v14.969h-14.969zM464.253 1888.78h14.969v14.969h-14.969zM440.857 1888.78h14.969v14.969h-14.969z"/></g><g><path class="j" d="M459.165 1917.9l-.284 8.4 1.638.652v-9.055z"/><path class="k" d="M461.872 1917.9h-1.35v9.055l1.638-.652z"/><g><path class="l" d="M460.281 1900.786s14.649 15.859.348 19.953z"/><path class="m" d="M460.278 1900.768s-14.087 16.38.349 19.971z"/></g></g></g></svg>