<svg xmlns="http://www.w3.org/2000/svg" width="273.926" height="164.06" viewBox="0 0 273.926 164.06"><defs><style>.a{fill:#e9f6f7;}.b{fill:#c3dbdd;}.c{fill:#6dbfd5;}.d{fill:#384c4b;}.e{fill:#ddecef;}.f{fill:#c13838;}.g{fill:#fff;}.h{fill:#8e5c21;}.i{fill:#509039;}.j{fill:#8d6c3a;}.k{fill:#755522;}.l{fill:#419645;}.m{fill:#55b748;}</style></defs><g transform="translate(-1307.498 -4064.314)"><g transform="translate(1028.694 3646.155)"><path class="a" d="M514.516,457.34a44.84,44.84,0,0,0-21.252,1.848,45.054,45.054,0,0,0-69.557-31.055,33.79,33.79,0,0,0-51.877,4.777c-1.024-.22-2.057-.419-3.1-.582a52.562,52.562,0,0,0-58.338,36.91,33.387,33.387,0,0,0,.934,66.718q-.183.874-.322,1.767a33.4,33.4,0,0,0,61.442,22.589,45.043,45.043,0,0,0,67.2,11.693,45.009,45.009,0,0,0,56.515-26.583,45.051,45.051,0,1,0,18.362-88.083Z" transform="translate(0 0)"/></g><g transform="translate(1044.431 2260.842)"><rect class="b" width="69.799" height="65.923" transform="translate(367.646 1858.402)"/><rect class="b" width="52.768" height="65.461" transform="translate(316.176 1858.864)"/><rect class="c" width="14.969" height="14.969" transform="translate(346.786 1866.9)"/><path class="d" d="M773.214,2869.624a1.606,1.606,0,0,0-1.744,1.417v1.039a1.606,1.606,0,0,0,1.744,1.417h58.311v-3.872Z" transform="translate(-457.862 -1012.769)"/><rect class="c" width="14.969" height="14.969" transform="translate(323.39 1866.9)"/><rect class="b" width="52.768" height="65.847" transform="translate(433.67 1858.864)"/><path class="d" d="M3135.695,2869.624a1.606,1.606,0,0,1,1.744,1.417v1.039a1.606,1.606,0,0,1-1.744,1.417h-58.312v-3.872Z" transform="translate(-2648.434 -1012.769)"/><path class="e" d="M1916.583,2303.691v96.55h61.042v-96.55Z" transform="translate(-1545.697 -475.144)"/><g transform="translate(379.941 1887.89)"><g transform="translate(0)"><rect class="c" width="19.377" height="34.092"/><rect class="c" width="19.238" height="34.092" transform="translate(23.541)"/></g></g><rect class="d" width="75.692" height="4.768" rx="2.384" transform="translate(363.562 1827.57)"/><path class="d" d="M2303.592,1866.833a9.641,9.641,0,1,1-6.817,2.824,9.579,9.579,0,0,1,6.817-2.824m0-2.137a11.778,11.778,0,1,0,11.778,11.778,11.778,11.778,0,0,0-11.778-11.778Z" transform="translate(-1902.158 -58.107)"/><path class="d" d="M1.914,0H46.443a1.914,1.914,0,0,1,1.914,1.914v0a1.914,1.914,0,0,1-1.914,1.914H1.914A1.914,1.914,0,0,1,0,1.914v0A1.914,1.914,0,0,1,1.914,0Z" transform="translate(377.054 1884.015)"/><rect class="c" width="14.969" height="14.969" transform="translate(346.786 1888.78)"/><rect class="c" width="14.969" height="14.969" transform="translate(323.39 1888.78)"/><rect class="c" width="13.041" height="13.041" transform="translate(403.159 1845.365)"/><rect class="c" width="13.041" height="13.041" transform="translate(385.744 1845.365)"/><rect class="c" width="13.041" height="13.041" transform="translate(403.159 1863.5)"/><rect class="c" width="13.041" height="13.041" transform="translate(385.744 1863.5)"/><circle class="f" cx="10.576" cy="10.576" r="10.576" transform="translate(386.453 1818.486) rotate(-45)"/><g transform="translate(396.393 1813.307)"><rect class="g" width="2.851" height="10.104" rx="1.426" transform="translate(3.651 0)"/><rect class="g" width="10.104" height="2.851" rx="1.426" transform="translate(0 3.651)"/></g><g transform="translate(289.5 1924.201)"><path class="h" d="M289.508,4389c0,.108-.008.216-.008.325v.1c0,4.959,4.656,8.979,10.413,8.979h200.3c5.758,0,10.425-4.02,10.425-8.979v-.1c0-.109,0-.217-.008-.325Z" transform="translate(-289.5 -4380.347)"/><path class="i" d="M500.356,4216h-200.3c-5.631,0-10.207,3.845-10.406,8.653H510.773C510.574,4219.845,505.987,4216,500.356,4216Z" transform="translate(-289.642 -4216)"/></g><g transform="translate(306.532 1900.768)"><g transform="translate(4.762 17.132)"><path class="j" d="M725.482,4090.041l-.284,8.4,1.638.652v-9.055Z" transform="translate(-725.198 -4090.041)"/><path class="k" d="M759.291,4090.041h-1.354v9.055l1.638-.652Z" transform="translate(-756.299 -4090.041)"/></g><g transform="translate(0 0)"><path class="l" d="M753.14,3747.886s14.649,15.859.348,19.953Z" transform="translate(-746.981 -3747.868)"/><path class="m" d="M636.159,3747.529s-14.087,16.38.348,19.971Z" transform="translate(-630 -3747.529)"/></g></g><g transform="translate(483.249 1900.768)"><g transform="translate(4.762 17.132)"><path class="j" d="M4258.424,4090.041l-.284,8.4,1.638.652v-9.055Z" transform="translate(-4258.14 -4090.041)"/><path class="k" d="M4292.232,4090.041h-1.354v9.055l1.638-.652Z" transform="translate(-4289.241 -4090.041)"/></g><g transform="translate(0 0)"><path class="l" d="M4286.081,3747.886s14.649,15.859.348,19.953Z" transform="translate(-4279.922 -3747.868)"/><path class="m" d="M4169.1,3747.529s-14.087,16.38.349,19.971Z" transform="translate(-4162.941 -3747.529)"/></g></g><g transform="translate(366.103 1900.768)"><g transform="translate(4.762 17.132)"><path class="j" d="M1916.423,4090.041l-.284,8.4,1.638.652v-9.055Z" transform="translate(-1916.139 -4090.041)"/><path class="k" d="M1950.232,4090.041h-1.354v9.055l1.638-.652Z" transform="translate(-1947.24 -4090.041)"/></g><g transform="translate(0 0)"><path class="l" d="M1944.081,3747.886s14.649,15.859.348,19.953Z" transform="translate(-1937.922 -3747.868)"/><path class="m" d="M1827.1,3747.529s-14.087,16.38.348,19.971Z" transform="translate(-1820.941 -3747.529)"/></g></g><g transform="translate(424.988 1900.768)"><g transform="translate(4.762 17.132)"><path class="j" d="M3093.658,4090.041l-.284,8.4,1.637.652v-9.055Z" transform="translate(-3093.374 -4090.041)"/><path class="k" d="M3127.467,4090.041h-1.354v9.055l1.638-.652Z" transform="translate(-3124.476 -4090.041)"/></g><g transform="translate(0 0)"><path class="l" d="M3121.315,3747.886s14.649,15.859.348,19.953Z" transform="translate(-3115.156 -3747.868)"/><path class="m" d="M3004.336,3747.529s-14.087,16.38.348,19.971Z" transform="translate(-2998.177 -3747.529)"/></g></g><g transform="translate(336.317 1900.768)"><g transform="translate(4.762 17.132)"><path class="j" d="M1320.953,4090.041l-.284,8.4,1.638.652v-9.055Z" transform="translate(-1320.669 -4090.041)"/><path class="k" d="M1354.761,4090.041h-1.354v9.055l1.638-.652Z" transform="translate(-1351.77 -4090.041)"/></g><g transform="translate(0 0)"><path class="l" d="M1348.61,3747.886s14.649,15.859.348,19.953Z" transform="translate(-1342.451 -3747.868)"/><path class="m" d="M1231.63,3747.529s-14.087,16.38.348,19.971Z" transform="translate(-1225.471 -3747.529)"/></g></g><g transform="translate(440.857 1866.9)"><rect class="c" width="14.969" height="14.969" transform="translate(23.396 0)"/><rect class="c" width="14.969" height="14.969" transform="translate(0 0)"/><rect class="c" width="14.969" height="14.969" transform="translate(23.396 21.88)"/><rect class="c" width="14.969" height="14.969" transform="translate(0 21.88)"/></g><g transform="translate(454.119 1900.768)"><g transform="translate(4.762 17.132)"><path class="j" d="M3676.04,4090.041l-.284,8.4,1.638.652v-9.055Z" transform="translate(-3675.756 -4090.041)"/><path class="k" d="M3709.85,4090.041H3708.5v9.055l1.638-.652Z" transform="translate(-3706.859 -4090.041)"/></g><g transform="translate(0 0)"><path class="l" d="M3703.7,3747.886s14.649,15.859.348,19.953Z" transform="translate(-3697.538 -3747.868)"/><path class="m" d="M3586.718,3747.529s-14.087,16.38.349,19.971Z" transform="translate(-3580.559 -3747.529)"/></g></g></g></g></svg>