<svg xmlns="http://www.w3.org/2000/svg" width="70.203" height="62" viewBox="0 0 70.203 62"><defs><style>.a{fill:#5a6470;}.b{fill:#fdbd40;}.c{fill:#e9686a;}.d{fill:#238892;}.e{fill:#fff;}</style></defs><g transform="translate(0 -28.049)"><path class="a" d="M69.117,117.37H1.268a1.17,1.17,0,0,1,0-2.34H67.947V61.219a1.17,1.17,0,0,1,2.34,0V116.2A1.17,1.17,0,0,1,69.117,117.37Z" transform="translate(-0.084 -27.321)"/><path class="b" d="M48.1,236.049H62.136v25.736H48.1Z" transform="translate(-41.065 -177.585)"/><path class="c" d="M192.1,140.049h14.038v39.774H192.1V140.049Z" transform="translate(-164.008 -95.623)"/><path class="d" d="M336.1,60.049h14.038v51.472H336.1Z" transform="translate(-286.952 -27.321)"/><path class="c" d="M24.58,29.219l3.852,3.852-9.7,9.7L16.049,40.09a1.17,1.17,0,0,0-1.654,0L.357,54.128a1.17,1.17,0,1,0,1.625,1.683l.029-.029L15.222,42.571,17.9,45.253a1.17,1.17,0,0,0,1.654,0L30.086,34.725l3.852,3.852,1.17-10.528Z" transform="translate(0 0)"/><g transform="translate(10.542 47.936)"><path class="e" d="M73.268,360.728a1.17,1.17,0,0,1-1.17-1.17v-2.34a1.17,1.17,0,0,1,2.34,0v2.34A1.17,1.17,0,0,1,73.268,360.728Z" transform="translate(-72.098 -327.973)"/><path class="e" d="M73.268,299.068a1.17,1.17,0,0,1-1.17-1.17v-4.679a1.17,1.17,0,0,1,2.34,0V297.9A1.17,1.17,0,0,1,73.268,299.068Z" transform="translate(-72.098 -273.332)"/><path class="e" d="M217.268,360.728a1.17,1.17,0,0,1-1.17-1.17v-2.34a1.17,1.17,0,0,1,2.34,0v2.34A1.17,1.17,0,0,1,217.268,360.728Z" transform="translate(-195.041 -327.973)"/><path class="e" d="M217.268,258.087a1.17,1.17,0,0,1-1.17-1.17v-11.7a1.17,1.17,0,1,1,2.34,0v11.7A1.17,1.17,0,0,1,217.268,258.087Z" transform="translate(-195.041 -232.351)"/><path class="e" d="M361.268,360.728a1.17,1.17,0,0,1-1.17-1.17v-2.34a1.17,1.17,0,0,1,2.34,0v2.34A1.17,1.17,0,0,1,361.268,360.728Z" transform="translate(-317.985 -327.973)"/><path class="e" d="M361.268,189.785a1.17,1.17,0,0,1-1.17-1.17v-23.4a1.17,1.17,0,1,1,2.34,0v23.4A1.17,1.17,0,0,1,361.268,189.785Z" transform="translate(-317.985 -164.049)"/></g></g></svg>