<svg xmlns="http://www.w3.org/2000/svg" width="126.564" height="117.661" viewBox="0 0 126.564 117.661"><defs><style>.a{fill:#fcfcfc;}.b{fill:#e0e0e0;}.c{fill:#27debf;}.d{opacity:0.15;}.e,.k,.o,.r{fill:#fff;}.f{fill:#ebebeb;}.g{fill:#455a64;}.h{fill:#37474f;}.i{fill:#263238;}.j{fill:none;stroke:#e6e6e6;stroke-miterlimit:10;}.k{opacity:0.85;}.l{fill:#fafafa;}.m{opacity:0.05;}.n{opacity:0.1;}.o{opacity:0.35;}.p{opacity:0.2;}.q{fill:#f0f0f0;}.r{opacity:0.4;}.s{fill:#f28f8f;}.t{fill:#ffa8a7;}</style></defs><g transform="translate(-27.539 -50.006)"><g transform="translate(27.539 94.597)"><ellipse class="a" cx="63.282" cy="36.535" rx="63.282" ry="36.535" transform="translate(0 0)"/></g><g transform="translate(40.429 107.843)"><path class="b" d="M134.607,306.938l31.046-17.925a.751.751,0,0,0,0-1.422l-58.777-33.942a2.723,2.723,0,0,0-2.464,0l-31.047,17.93a.751.751,0,0,0,0,1.422l58.779,33.942a2.723,2.723,0,0,0,2.464-.006Z" transform="translate(-72.854 -253.354)"/></g><g transform="translate(37.076 104.96)"><g transform="translate(2.337 0)"><path class="c" d="M76.745,264.988l2.433-1.405a52.813,52.813,0,0,0,.2-9.248c-.557-5.671-4.22-12.5-8.589-10.893s2,7.378,3.422,12.189S76.745,264.988,76.745,264.988Z" transform="translate(-69.281 -243.205)"/><path class="d" d="M76.745,264.988l2.433-1.405a52.813,52.813,0,0,0,.2-9.248c-.557-5.671-4.22-12.5-8.589-10.893s2,7.378,3.422,12.189S76.745,264.988,76.745,264.988Z" transform="translate(-69.281 -243.205)"/><path class="e" d="M84.676,268.884h0a.144.144,0,0,1-.144-.152c.431-12.6-5.846-18.941-5.91-19a.147.147,0,1,1,.207-.21c.065.063,6.429,6.494,6,19.223a.144.144,0,0,1-.151.142Z" transform="translate(-75.932 -247.691)"/></g><g transform="translate(0 7.515)"><path class="c" d="M69.58,284.911l1.726-1.007a19.1,19.1,0,0,0-1.458-7.92c-1.526-3.783-5.314-6.919-7.218-6.261s-1.857,2.013-.929,3.427S68.284,277.952,69.58,284.911Z" transform="translate(-61.076 -269.636)"/><path class="e" d="M74.717,287.21h0a.144.144,0,0,1-.144-.144c.035-7.968-7.447-13.354-7.523-13.407a.147.147,0,0,1,.17-.24c.076.055,7.682,5.529,7.647,13.649a.144.144,0,0,1-.15.142Z" transform="translate(-65.3 -272.317)"/></g></g><g transform="translate(119.019 50.006)"><g transform="translate(0 0)"><path class="f" d="M384.972,51.339l2.445,1.414a3.018,3.018,0,0,1-.02-.324v-.706c0-1.263.886-1.775,1.98-1.143a3.83,3.83,0,0,1,1.181,1.135c.178-1.582,1.425-2.179,2.938-1.306a6.548,6.548,0,0,1,2.963,5.132V56.6a2.8,2.8,0,0,1-.25,1.23l2.035,1.175a2.428,2.428,0,0,1,1.1,1.9c0,.7-.492.984-1.1.634l-13.272-7.663a2.428,2.428,0,0,1-1.1-1.9C383.873,51.273,384.365,50.988,384.972,51.339Z" transform="translate(-373.99 -50.006)"/><path class="f" d="M349.932,74.421l1.795,1.037a2.2,2.2,0,0,1-.014-.237V74.7c0-.926.65-1.294,1.451-.838a2.806,2.806,0,0,1,.863.833c.131-1.164,1.044-1.6,2.157-.958a4.8,4.8,0,0,1,2.172,3.761v.775a2.047,2.047,0,0,1-.184.9l1.491.863a1.781,1.781,0,0,1,.805,1.4c0,.513-.361.719-.805.465l-9.731-5.618a1.779,1.779,0,0,1-.805-1.4C349.127,74.372,349.488,74.165,349.932,74.421Z" transform="translate(-349.127 -66.778)"/></g></g><g transform="translate(42.701 104.725)"><g transform="translate(0 0)"><path class="g" d="M169.481,318.47c.442.342.394.827-.144,1.135l-29.3,16.921a2.364,2.364,0,0,1-2.131,0L81.9,304.19c-.542-.314-.585-.807-.125-1.151a2.376,2.376,0,0,0-.941,1.763v1.408a2.352,2.352,0,0,0,1.066,1.848l56,32.331a2.352,2.352,0,0,0,2.133,0l29.305-16.916a2.35,2.35,0,0,0,1.066-1.847v-1.411a2.379,2.379,0,0,0-.923-1.746Z" transform="translate(-80.835 -285.788)"/><path class="h" d="M170.916,274.968l-56-32.334a2.364,2.364,0,0,0-2.131,0l-29.3,16.919a.649.649,0,0,0,0,1.23l56,32.333a2.363,2.363,0,0,0,2.131,0l29.3-16.921a.649.649,0,0,0,0-1.227Zm-7.6-2.615a.557.557,0,0,1,0,1.054L136.675,288.8a2.028,2.028,0,0,1-1.828,0l-43.6-25.169a.557.557,0,0,1,0-1.056l26.645-15.389a1.474,1.474,0,0,1,1.532-.17Z" transform="translate(-82.412 -242.38)"/><path class="i" d="M81.776,303.042a2.376,2.376,0,0,0-.941,1.763v1.408a2.356,2.356,0,0,0,1.066,1.848l56,32.331a2.19,2.19,0,0,0,1.069.256V336.78a2.192,2.192,0,0,1-1.066-.255l-56-32.337C81.36,303.876,81.315,303.383,81.776,303.042Z" transform="translate(-80.835 -285.787)"/><path d="M141.638,276.346a.431.431,0,0,0,0-.826,1.582,1.582,0,0,0-1.428,0,.431.431,0,0,0,0,.826A1.582,1.582,0,0,0,141.638,276.346Z" transform="translate(-123.11 -265.972)"/><path class="j" d="M326.424,381.726a1.025,1.025,0,0,0,0-1.943,3.719,3.719,0,0,0-3.365,0,1.025,1.025,0,0,0,0,1.943,3.719,3.719,0,0,0,3.365,0Z" transform="translate(-253.657 -340.409)"/><path d="M140.032,278.463l5.516-3.184c.329-.19.345-.489.037-.667a1.279,1.279,0,0,0-1.151.022l-5.516,3.184c-.329.19-.345.489-.037.667a1.279,1.279,0,0,0,1.151-.022Z" transform="translate(-122.208 -265.351)"/><path class="c" d="M139.108,258.265a1.474,1.474,0,0,0-1.532.17l-26.645,15.389a.557.557,0,0,0,0,1.056l43.6,25.169a2.028,2.028,0,0,0,1.828,0l26.643-15.389a.557.557,0,0,0,0-1.054Z" transform="translate(-102.1 -253.637)"/><path class="k" d="M139.108,258.265a1.474,1.474,0,0,0-1.532.17l-26.645,15.389a.557.557,0,0,0,0,1.056l43.6,25.169a2.028,2.028,0,0,0,1.828,0l26.643-15.389a.557.557,0,0,0,0-1.054Z" transform="translate(-102.1 -253.637)"/><g transform="translate(11.566 6.383)"><g transform="translate(0 13.437)"><path class="g" d="M121.843,317.34l-.288-.164a.068.068,0,0,1,0-.128l.03-.017a.246.246,0,0,1,.221,0l.288.164a.068.068,0,0,1,0,.128l-.03.017a.246.246,0,0,1-.221,0Z" transform="translate(-121.509 -315.597)"/><path class="g" d="M123.1,316.014l-.49-.288a.068.068,0,0,1,0-.128l.032-.017a.244.244,0,0,1,.221,0l.49.288a.068.068,0,0,1,0,.128l-.032.017a.246.246,0,0,1-.221,0Z" transform="translate(-122.259 -314.564)"/><path class="g" d="M124.362,314.686l-.7-.4a.068.068,0,0,1,0-.128l.03-.017a.246.246,0,0,1,.221,0l.7.4a.068.068,0,0,1,0,.128l-.03.017a.243.243,0,0,1-.221,0Z" transform="translate(-123.014 -313.528)"/><path class="g" d="M124.864,312.923l-1.2-.695a.068.068,0,0,1,0-.128l.032-.017a.246.246,0,0,1,.221,0l1.2.695a.068.068,0,0,1,0,.128l-.03.017A.244.244,0,0,1,124.864,312.923Z" transform="translate(-123.013 -312.057)"/></g><g transform="translate(2.286 12.094)"><path class="g" d="M130.564,310.719a.1.1,0,0,1-.056-.014l-.177-.1-.567.328a.08.08,0,0,1-.085,0l-.063-.037a.09.09,0,0,1-.029-.022.082.082,0,0,1-.009-.027l-.03-.719a.056.056,0,0,1,0-.03.086.086,0,0,1,.033-.026l.079-.046a.144.144,0,0,1,.066-.022.111.111,0,0,1,.059.016l.617.357.125-.072a.136.136,0,0,1,.063-.022.111.111,0,0,1,.058.016l.042.024c.019.012.027.022.026.032s-.013.023-.037.036l-.125.072.177.1c.019.011.027.022.024.032s-.016.023-.04.037l-.095.055a.143.143,0,0,1-.056.033Zm-.345-.224-.44-.255.029.492Z" transform="translate(-129.547 -309.249)"/><path class="g" d="M133.049,308.367a1.03,1.03,0,0,1-.575-.144q-.263-.152-.24-.331t.326-.354a1.648,1.648,0,0,1,.249-.119,1.15,1.15,0,0,1,.237-.065.057.057,0,0,1,.036,0,.027.027,0,0,1,.012.014l.026.075a.017.017,0,0,1-.007.02l-.032.009a1.151,1.151,0,0,0-.348.134c-.137.079-.21.16-.221.243s.052.164.187.243a.767.767,0,0,0,.417.111.875.875,0,0,0,.408-.121,1.124,1.124,0,0,0,.129-.086.406.406,0,0,0,.082-.081l-.288-.165-.236.137a.133.133,0,0,1-.063.022.108.108,0,0,1-.058-.016l-.04-.023c-.019-.011-.029-.022-.026-.032s.014-.022.039-.036l.377-.219a.154.154,0,0,1,.073-.023.126.126,0,0,1,.068.019l.41.236a.086.086,0,0,1,.029.023.024.024,0,0,1,0,.026.9.9,0,0,1-.358.311,1.331,1.331,0,0,1-.613.193Z" transform="translate(-131.471 -307.352)"/></g><g transform="translate(11.535 6.993)"><g transform="translate(0.173 0.076)"><path class="g" d="M162.684,290.183l.67.387a.2.2,0,0,0,.181,0l.672-.387a.056.056,0,0,0,0-.1l-.672-.387a.2.2,0,0,0-.181,0l-.672.388a.056.056,0,0,0,0,.1Z" transform="translate(-162.648 -289.67)"/></g><path class="g" d="M162.718,289.47a.67.67,0,0,0-.575,0c-.129.075-.129.191,0,.268l.23.132.17-.033-.23-.132a.108.108,0,0,1,0-.2.247.247,0,0,1,.118-.032.243.243,0,0,1,.118.032l.23.132.17-.033Z" transform="translate(-162.046 -289.405)"/></g><g transform="translate(22.279 0)"><path class="g" d="M201.949,264.823a.66.66,0,0,0-.324.073l-1.7.981a.16.16,0,0,0,0,.3l.618.357a.663.663,0,0,0,.324.073.829.829,0,0,0,.157-.014.529.529,0,0,0,.167-.059l1.7-.981a.16.16,0,0,0,0-.3l-.618-.357A.663.663,0,0,0,201.949,264.823Zm-1.082,1.713a.278.278,0,0,1-.144-.037l-.618-.357a.122.122,0,0,1,0-.23l1.7-.981a.287.287,0,0,1,.088-.033.269.269,0,0,1,.05,0,.288.288,0,0,1,.144.037l.618.357a.122.122,0,0,1,0,.23l-1.7.981a.275.275,0,0,1-.137.033Z" transform="translate(-199.818 -264.823)"/><g transform="translate(0.464 0.193)"><path class="g" d="M202.085,266.9l-.024-.013-.557-.322a.092.092,0,0,1,0-.17l1.53-.883a.144.144,0,0,1,.032-.013l.024.013.557.322a.092.092,0,0,1,0,.17l-1.53.883a.136.136,0,0,1-.032.013Z" transform="translate(-201.448 -265.498)"/></g><g transform="translate(2.438 0.017)"><path class="g" d="M208.478,264.876a.432.432,0,0,1,.342.068l.115.066c.127.073.181.164.121.2l-.109.069-.575-.339Z" transform="translate(-208.372 -264.866)"/></g></g><g transform="translate(11.971 7.074)"><path class="g" d="M166.7,315.849a2.77,2.77,0,0,0,1.2-.331c.695-.4.873-.948-.227-1.634a1.358,1.358,0,0,1-.719.974,2.876,2.876,0,0,1-2.885.186c-.826-.477-.564-1.237.381-1.782a4.027,4.027,0,0,1,4.01.013c1.607.928,1.246,1.91.109,2.566a4.514,4.514,0,0,1-1.942.575Zm.4-2.26a2.255,2.255,0,0,0-2.08,0c-.452.26-.544.637-.043.926a1.569,1.569,0,0,0,1.617-.078.883.883,0,0,0,.506-.851Z" transform="translate(-163.567 -306.177)"/><path class="g" d="M182.149,308.983a1.247,1.247,0,0,1,1.151-.078c.288.168.23.453-.134.663a1.267,1.267,0,0,1-1.151.082C181.712,309.482,181.788,309.193,182.149,308.983Zm2.225,1.284a1.248,1.248,0,0,1,1.151-.078c.288.168.23.453-.134.663a1.27,1.27,0,0,1-1.158.082c-.3-.168-.224-.457.144-.667Z" transform="translate(-176.635 -303.362)"/><path class="g" d="M189.408,301.5c-1.4-.808-1.4-1.648-.255-2.308a3.932,3.932,0,0,1,4,.144c1.4.808,1.438,1.671.288,2.331A4,4,0,0,1,189.408,301.5Zm2.792-1.612c-1.171-.676-1.923-.669-2.459-.36s-.548.745.623,1.421,1.97.687,2.5.381S193.37,300.563,192.2,299.89Z" transform="translate(-181.286 -296.147)"/><path class="g" d="M205.042,292.475c-1.4-.807-1.4-1.648-.255-2.308a3.934,3.934,0,0,1,4,.144c1.4.807,1.438,1.67.288,2.331a4,4,0,0,1-4.033-.167Zm2.792-1.611c-1.171-.676-1.923-.67-2.461-.36s-.548.745.623,1.421,1.97.687,2.5.383S209,291.539,207.833,290.864Z" transform="translate(-192.473 -289.689)"/></g><g transform="translate(17.015 9.861)"><path class="c" d="M181.668,312.612l22.382-12.921a1.892,1.892,0,0,1,1.711,0l5.72,3.308a.522.522,0,0,1,0,.988L189.1,316.908a1.893,1.893,0,0,1-1.711,0l-5.724-3.308a.522.522,0,0,1,0-.988Z" transform="translate(-181.314 -299.487)"/><path class="l" d="M190.6,337.3l4,2.311a.817.817,0,0,0,.739,0l5.9-3.407a.226.226,0,0,0,0-.431l-4-2.311a.817.817,0,0,0-.739,0l-5.9,3.407a.226.226,0,0,0,0,.431Z" transform="translate(-187.849 -323.74)"/><path class="c" d="M196.646,336.191l4.746-.188-4.73-.07.19-2.553-.775,3.148-5.632.557,4.6-.216-.114,2.83.354-2.842,1.315-.062Z" transform="translate(-187.849 -323.738)"/><g transform="translate(11.089 2.649)"><path class="l" d="M220.5,320.76l5.783-3.325a1.03,1.03,0,0,1,.932-.012c.252.144.242.385-.022.538l-5.783,3.325a1.03,1.03,0,0,1-.932.013C220.227,321.153,220.237,320.912,220.5,320.76Z" transform="translate(-220.296 -314.895)"/><path class="l" d="M226.755,315.7l11.722-6.773a1.03,1.03,0,0,1,.932-.013c.252.144.242.385-.022.538l-11.722,6.773a1.031,1.031,0,0,1-.932.012C226.478,316.094,226.491,315.853,226.755,315.7Z" transform="translate(-224.772 -308.809)"/><path class="l" d="M233.009,319.311l11.722-6.773a1.03,1.03,0,0,1,.931-.013c.252.144.242.385-.02.538l-11.722,6.773a1.03,1.03,0,0,1-.932.012C232.737,319.7,232.747,319.464,233.009,319.311Z" transform="translate(-229.246 -311.391)"/></g></g></g></g></g><g transform="translate(69.072 55.275)"><g transform="translate(0 0)"><g transform="translate(0.001 1.033)"><path class="c" d="M173.547,126.438l37.942-21.906,1.519.876a1.582,1.582,0,0,1,.719,1.237v27.989a1.582,1.582,0,0,1-.719,1.237L176.5,156.952a1.582,1.582,0,0,1-1.427,0l-.8-.465a1.582,1.582,0,0,1-.719-1.237Z" transform="translate(-173.547 -95.327)"/><path class="m" d="M173.547,126.438l37.942-21.906,1.519.876a1.582,1.582,0,0,1,.719,1.237v27.989a1.582,1.582,0,0,1-.719,1.237L176.5,156.952a1.582,1.582,0,0,1-1.427,0l-.8-.465a1.582,1.582,0,0,1-.719-1.237Z" transform="translate(-173.547 -95.327)"/><path class="c" d="M211.28,78.9l.155-.085-.59-.342h0a1.019,1.019,0,0,0-.157-.075l-16.7-6.184a1.151,1.151,0,0,0-1.283.407L174.029,99.9a3.231,3.231,0,0,0-.482,1.558v1.812l.575.337,37.367-22.244V79.553a1.222,1.222,0,0,0-.209-.649Z" transform="translate(-173.547 -72.16)"/><path class="n" d="M193.815,73.421a.951.951,0,0,0-.193.2L174.941,100.9a2.9,2.9,0,0,0-.347.78l-.575-.335a3.723,3.723,0,0,1,.144-.413v-.011c.026-.058.05-.111.079-.165,0-.009.009-.017.014-.026a1.484,1.484,0,0,1,.1-.165L193.034,73.29a.884.884,0,0,1,.093-.114c.032-.032.066-.063.1-.091Z" transform="translate(-173.879 -72.826)"/><path class="o" d="M260.11,78.817a.947.947,0,0,0-.16-.076l-16.7-6.184a1.151,1.151,0,0,0-1.087.2l-.575-.335a1.158,1.158,0,0,1,1.09-.2l16.7,6.184a.879.879,0,0,1,.157.076Z" transform="translate(-222.228 -72.159)"/><g transform="translate(0.132 0.26)"><path class="c" d="M174.891,169.859a1.912,1.912,0,0,1,.1-.164A1.912,1.912,0,0,0,174.891,169.859Z" transform="translate(-174.641 -142.213)"/><path class="c" d="M241.236,73.177a1.175,1.175,0,0,1,.1-.091.973.973,0,0,0-.1.091Z" transform="translate(-222.113 -73.086)"/><path class="c" d="M174.011,171.4a3.615,3.615,0,0,1,.152-.414,3.563,3.563,0,0,0-.152.414Z" transform="translate(-174.011 -143.135)"/><path class="c" d="M174.562,170.532c.026-.058.052-.111.081-.164C174.617,170.414,174.588,170.474,174.562,170.532Z" transform="translate(-174.405 -142.695)"/><path class="p" d="M174.545,170.953v-.011Z" transform="translate(-174.393 -143.105)"/><path class="p" d="M174.011,172.438Z" transform="translate(-174.011 -144.175)"/><path class="p" d="M241.588,73.086Z" transform="translate(-222.365 -73.086)"/><path class="p" d="M174.843,170.3l.013-.027Z" transform="translate(-174.606 -142.626)"/><path class="p" d="M240.906,73.517A.952.952,0,0,1,241,73.4.825.825,0,0,0,240.906,73.517Z" transform="translate(-221.877 -73.314)"/></g><path class="c" d="M194.736,73.806l-18.672,27.279a3.23,3.23,0,0,0-.482,1.558v1.812l37.943-21.907V80.735a1.316,1.316,0,0,0-.8-1.151l-16.7-6.184a1.151,1.151,0,0,0-1.292.406Z" transform="translate(-175.004 -73.006)"/></g><g transform="translate(3.19)"><path class="b" d="M186.263,173.825l-1.215-.7h0l-.013-.009h0a.738.738,0,0,1-.288-.664V134.522a2.186,2.186,0,0,1,.341-1.084l1.237.719a2.158,2.158,0,0,0-.341,1.087v37.922A.749.749,0,0,0,186.263,173.825Z" transform="translate(-184.743 -114.976)"/><path class="q" d="M190.144,88.79,220.62,71.2c.575-.334,1.046-.063,1.046.6v37.92a2.311,2.311,0,0,1-1.046,1.811l-30.475,17.594c-.575.334-1.046.063-1.046-.6V90.6A2.311,2.311,0,0,1,190.144,88.79Z" transform="translate(-187.865 -70.339)"/><path class="l" d="M217.862,68.614l1.2.692a.742.742,0,0,0-.7.1l-30.477,17.59a2.014,2.014,0,0,0-.7.719l-1.237-.719a2.091,2.091,0,0,1,.7-.719l30.476-17.594a.719.719,0,0,1,.744-.066Z" transform="translate(-185.604 -68.542)"/><path class="b" d="M199.577,103.351l25.346-14.634c.341-.2.616-.058.616.312a1.322,1.322,0,0,1-.616,1.023l-25.346,14.633c-.341.2-.616.058-.616-.312A1.32,1.32,0,0,1,199.577,103.351Z" transform="translate(-194.921 -82.915)"/><path class="b" d="M199.576,112.7l25.346-14.632c.341-.2.616-.058.616.312a1.322,1.322,0,0,1-.616,1.023l-25.344,14.633c-.341.2-.616.058-.616-.312A1.32,1.32,0,0,1,199.576,112.7Z" transform="translate(-194.921 -89.604)"/><path class="b" d="M199.577,122.049l25.344-14.632c.341-.2.616-.058.616.312a1.322,1.322,0,0,1-.616,1.023l-25.344,14.632c-.341.2-.616.058-.616-.312a1.32,1.32,0,0,1,.616-1.023Z" transform="translate(-194.921 -96.294)"/><path class="b" d="M199.577,131.4l25.344-14.632c.341-.2.616-.058.616.312a1.322,1.322,0,0,1-.616,1.023l-25.344,14.632c-.341.2-.616.058-.616-.312a1.32,1.32,0,0,1,.616-1.023Z" transform="translate(-194.921 -102.984)"/><path class="b" d="M199.577,140.747l25.344-14.632c.341-.2.616-.058.616.312a1.322,1.322,0,0,1-.616,1.023l-25.344,14.632c-.341.2-.616.058-.616-.312a1.32,1.32,0,0,1,.616-1.023Z" transform="translate(-194.921 -109.673)"/><path class="b" d="M199.577,150.1l25.344-14.633c.341-.2.616-.058.616.312a1.322,1.322,0,0,1-.616,1.023l-25.344,14.632c-.341.2-.616.058-.616-.312a1.32,1.32,0,0,1,.616-1.023Z" transform="translate(-194.921 -116.363)"/><path class="b" d="M199.577,159.446l25.344-14.632c.341-.2.616-.058.616.312a1.322,1.322,0,0,1-.616,1.023L199.577,160.78c-.341.2-.616.058-.616-.312a1.32,1.32,0,0,1,.616-1.023Z" transform="translate(-194.921 -123.052)"/><path class="b" d="M199.577,168.795l25.344-14.632c.341-.2.616-.058.616.312a1.322,1.322,0,0,1-.616,1.023l-25.344,14.632c-.341.2-.616.058-.616-.312a1.32,1.32,0,0,1,.616-1.023Z" transform="translate(-194.921 -129.741)"/></g><g transform="translate(0 10.571)"><path class="c" d="M217.6,192.681a.336.336,0,0,1-.039.056l-15.812-7.013a2.723,2.723,0,0,0-3.417,1.051l-16.9,27.122-.626.361h0a.509.509,0,0,1-.483.055l17.384-27.9a2.733,2.733,0,0,1,3.42-1.054Z" transform="translate(-178.39 -162.539)"/><path class="r" d="M196.776,198.658l.04-.035-15.389,24.691-.626.361h0a.516.516,0,0,1-.483.055L196.167,198.3Z" transform="translate(-178.388 -171.955)"/><path class="r" d="M261.349,192.677a.351.351,0,0,1-.04.057L245.5,185.721a2.723,2.723,0,0,0-3.416,1.053l-.626-.364a2.733,2.733,0,0,1,3.413-1.047Z" transform="translate(-222.136 -162.534)"/><path class="c" d="M220.265,107.31h0c-.035-.2-.144-.262-.288-.165a.821.821,0,0,0-.183.188l-.079.111-15.6,21.717-2.33,3.246a1.329,1.329,0,0,1-1.283.48l-2.014-.477-15.353-3.653a.782.782,0,0,0-.314-.012.557.557,0,0,0-.116.037l.424-.244,14.8,3.519,2.013.477a1.322,1.322,0,0,0,1.283-.48l2.33-3.243,15.677-21.832a.628.628,0,0,1,.177-.163l-1.356-.782.575-.326.939.541a1.628,1.628,0,0,1,.7,1.061Z" transform="translate(-180.103 -105.708)"/><path class="r" d="M243.814,187.362l-2.33,3.246a1.329,1.329,0,0,1-1.283.48l-2.013-.477.04-.035.1-.154,1.317.314a1.322,1.322,0,0,0,1.283-.48l2.3-3.209Z" transform="translate(-219.796 -163.906)"/><path class="n" d="M271.945,106.247l-.938-.541-.575.326,1.356.782h0a.621.621,0,0,0-.177.163l-15.677,21.831-.023.032h0l.575.316,15.6-21.717.079-.111a.814.814,0,0,1,.183-.188c.144-.1.247-.04.288.165h0a1.626,1.626,0,0,0-.695-1.059Z" transform="translate(-232.485 -105.705)"/><path class="c" d="M176.894,183.472l-3.347-1.933v28.813a1.582,1.582,0,0,0,.719,1.237l.8.465a1.582,1.582,0,0,0,1.427,0l.4-.232Z" transform="translate(-173.546 -159.966)"/><path class="d" d="M176.894,183.472l-3.347-1.933v28.813a1.582,1.582,0,0,0,.719,1.237l.8.465a1.582,1.582,0,0,0,1.427,0l.4-.232Z" transform="translate(-173.546 -159.966)"/><path class="g" d="M218.781,111.8v27.684a1.438,1.438,0,0,1-.221.719,1.48,1.48,0,0,1-.419.466l-.026.017a.463.463,0,0,1-.049.032L181.547,161.8h0a.676.676,0,0,1-.144.065.912.912,0,0,1-.009-.128V133.749a.62.62,0,0,1,.8-.631l15.353,3.653,2.013.477a1.329,1.329,0,0,0,1.283-.48l2.33-3.246Z" transform="translate(-179.167 -110.066)"/><path class="c" d="M219.338,110.973v27.988a1.455,1.455,0,0,1-.222.719,1.559,1.559,0,0,1-.418.469l-.029.014a.434.434,0,0,1-.046.032L182.11,161.274h0a.509.509,0,0,1-.486.058.431.431,0,0,1-.213-.341.912.912,0,0,1-.009-.128V132.876a.62.62,0,0,1,.8-.631l15.353,3.653,2.014.477a1.329,1.329,0,0,0,1.283-.48l2.33-3.246,15.6-21.717.079-.111C219.123,110.45,219.338,110.517,219.338,110.973Z" transform="translate(-179.163 -109.193)"/><path class="c" d="M273.407,195.712a.5.5,0,0,0,.046-.03l.027-.016a1.526,1.526,0,0,0,.417-.467,1.465,1.465,0,0,0,.221-.71l-16.161-6.328,10.823,10.22Z" transform="translate(-233.948 -164.705)"/><path class="p" d="M273.407,195.712a.5.5,0,0,0,.046-.03l.027-.016a1.526,1.526,0,0,0,.417-.467,1.465,1.465,0,0,0,.221-.71l-16.161-6.328,10.823,10.22Z" transform="translate(-233.948 -164.705)"/><path class="c" d="M181.4,224.545a.492.492,0,0,0,.223.47.508.508,0,0,0,.486-.055h0l12.572-7.257,2.876-18.122-16.157,24.5Z" transform="translate(-179.162 -172.87)"/><path class="d" d="M199.1,189.989l-17.483,27.9a.492.492,0,0,1-.221-.469v-.463l15.426-24.68.119-.191,1.533-2.458v-.009Z" transform="translate(-179.162 -165.755)"/><path class="c" d="M219.673,193.9a1.526,1.526,0,0,1-.417.467l-.027.016-36.56,21.11h0a.508.508,0,0,1-.486.055l17.484-27.913a2.747,2.747,0,0,1,3.437-1.056Z" transform="translate(-179.719 -163.407)"/><path class="c" d="M219.671,212.145a1.484,1.484,0,0,1-.419.466l-.026.017-36.561,21.11h0a.514.514,0,0,1-.486.055l.486-.774L218.6,212.273l.029-.017a1.454,1.454,0,0,0,.378-.41Z" transform="translate(-179.718 -181.652)"/><path class="d" d="M173.678,172.436l.575.335a2.836,2.836,0,0,0-.134.78v1.809l-.575-.335v-1.812A2.837,2.837,0,0,1,173.678,172.436Z" transform="translate(-173.544 -153.453)"/><path class="c" d="M178.564,182.935l-.535-.127-.424.245-.585-.338-1.438-.831.561-.332Z" transform="translate(-174.998 -159.973)"/><path class="n" d="M178.566,182.934h0l-2.425-1.384-.561.332,1.438.831.585.338h0a.577.577,0,0,1,.109-.035.784.784,0,0,1,.314.012l1.181.288,13.443,3.2.119-.19Z" transform="translate(-174.999 -159.974)"/></g><g transform="translate(33.061 32.663)"><g transform="translate(0 0)"><path class="s" d="M303.7,185.317l-2.7-1.565h0l-.024-.014h0a4.6,4.6,0,0,0-4.585.467,14.42,14.42,0,0,0-6.522,11.3,4.588,4.588,0,0,0,1.9,4.218h0l2.461,1.412.575-.965a6.615,6.615,0,0,0,1.87-.728,14.423,14.423,0,0,0,6.524-11.3,7,7,0,0,0-.2-1.665Z" transform="translate(-289.836 -183.332)"/><path class="d" d="M290.109,218.459a10.506,10.506,0,0,0-.246,2.192,4.588,4.588,0,0,0,1.9,4.218h0l2.461,1.412.575-.965a6.617,6.617,0,0,0,1.87-.728,10.514,10.514,0,0,0,1.778-1.312Z" transform="translate(-289.837 -208.477)"/><path class="t" d="M305.4,189.409a14.418,14.418,0,0,0-6.524,11.3c0,4.159,2.92,5.846,6.522,3.765a14.418,14.418,0,0,0,6.524-11.3C311.926,189.015,309.005,187.328,305.4,189.409Z" transform="translate(-296.288 -187.052)"/><g transform="translate(5.703 4.382)"><path class="e" d="M315.8,202.533v-1.6c0-1.824-1.109-2.662-2.477-1.87h0a5.93,5.93,0,0,0-2.475,4.732v1.428a5.657,5.657,0,0,1-.834,2.79h0a1.555,1.555,0,0,0-.2.731h0c0,.459.279.67.624.472l5.785-3.34a1.494,1.494,0,0,0,.624-1.192h0a.585.585,0,0,0-.183-.482h-.01A1.69,1.69,0,0,1,315.8,202.533Z" transform="translate(-309.808 -198.766)"/><path class="e" d="M320.364,228.97a2.845,2.845,0,0,1-1.189,2.271c-.656.38-1.189-.023-1.189-.9Z" transform="translate(-315.662 -220.38)"/></g></g></g></g></g></g></svg>