<svg xmlns="http://www.w3.org/2000/svg" width="60.934" height="44.227"><defs><style>.a{fill:#5a4146}.b{fill:#694b4b}.c{fill:#e6af78}.d{fill:#d29b6e}.e{fill:#d5dced}.g{fill:#f0c087}.h{fill:#c7cfe2}.m{fill:#d23c69}</style></defs><path class="a" d="M44.226 18.674v.69a7.864 7.864 0 0 0 .4 2.486l1.562 4.686h2.948V15.725H47.17a2.949 2.949 0 0 0-2.944 2.949z"/><path class="b" d="M57.683 20.715l-1.663 5.821-7.862-6.88a1.966 1.966 0 0 1-1.966-1.966 2.949 2.949 0 0 1 2.948-2.948h6.88a1.966 1.966 0 0 1 1.966 1.966v1.847a7.86 7.86 0 0 1-.303 2.16z"/><path class="c" d="M48.157 29.485h5.897v4.35h-5.897z"/><path class="d" d="M48.158 31.289a7.8 7.8 0 0 0 5.9 0v-1.805h-5.9v1.805z"/><path class="e" d="M58.796 33.223l-4.741-1.355-2.948 1.957-2.948-1.957-4.741 1.355a2.949 2.949 0 0 0-2.138 2.835v7.185a.983.983 0 0 0 .983.983h17.69a.983.983 0 0 0 .983-.983v-7.185a2.948 2.948 0 0 0-2.14-2.835z"/><path d="M52.089 44.226h-1.966l.491-10.392h.983z" fill="#afb9d2"/><path class="g" d="M51.106 30.467a5.9 5.9 0 0 1-5.9-5.9v-1.151a1.966 1.966 0 0 1 .576-1.39l1.782-1.782a1.942 1.942 0 0 1 1.427-.578c3.142.1 5.922.772 7.443 2.257A1.94 1.94 0 0 1 57 23.315v1.252a5.9 5.9 0 0 1-5.894 5.9z"/><path class="c" d="M48.157 23.663a1.962 1.962 0 0 1 2.084-1.963 20.738 20.738 0 0 1 6.734 1.327 1.9 1.9 0 0 0-.539-1.1c-1.52-1.485-4.3-2.158-7.443-2.257a1.943 1.943 0 0 0-1.427.578l-1.782 1.782a1.965 1.965 0 0 0-.576 1.39v1.151a5.9 5.9 0 0 0 4.263 5.662 5.848 5.848 0 0 1-1.314-3.7V23.66z"/><path class="h" d="M57.003 38.987a2.948 2.948 0 0 1 .863-2.085l2.53-2.53a2.937 2.937 0 0 1 .538 1.686v7.185a.983.983 0 0 1-.983.983h-2.948v-5.24z"/><path d="M51.597 35.8h-.983a.492.492 0 0 1-.491-.491v-1.474h1.966v1.474a.491.491 0 0 1-.492.491z" fill="#959cb5"/><path class="h" d="M51.106 33.825l-1.666 1.272a.59.59 0 0 1-.875-.185l-1.494-2.729.6-.917a.393.393 0 0 1 .6-.073zM51.106 33.825l1.666 1.272a.59.59 0 0 0 .875-.185l1.494-2.729-.6-.917a.393.393 0 0 0-.6-.073z"/><path class="a" d="M17.593 30.057a35.469 35.469 0 0 1-1.65-8.042 7.124 7.124 0 0 0-6.991-6.88 7.124 7.124 0 0 0-6.991 6.88 35.471 35.471 0 0 1-1.65 8.042.979.979 0 0 0 .512 1.25 18.773 18.773 0 0 0 5.133 1.518h5.992a18.936 18.936 0 0 0 5.133-1.518.979.979 0 0 0 .512-1.25z"/><path class="b" d="M17.081 31.307a.979.979 0 0 0 .512-1.25 35.471 35.471 0 0 1-1.65-8.042 7.124 7.124 0 0 0-6.991-6.88h-.026a3 3 0 0 0-1.459 5.56 2.722 2.722 0 0 0 .251.134l2.234 12h2a18.95 18.95 0 0 0 5.129-1.522z"/><path class="c" d="M16.061 34.799l-3.18-1.59a1.966 1.966 0 0 1-1.087-1.758v-2.948H5.9v2.949a1.965 1.965 0 0 1-1.087 1.758l-3.18 1.59A2.948 2.948 0 0 0 0 37.436v5.808a.983.983 0 0 0 .983.983h15.725a.983.983 0 0 0 .983-.983v-5.808a2.948 2.948 0 0 0-1.63-2.637z"/><path class="d" d="M8.842 32.432a7.769 7.769 0 0 0 3-.606 1.939 1.939 0 0 1-.053-.376v-2.949h-5.9v2.949a1.936 1.936 0 0 1-.047.374 7.809 7.809 0 0 0 3 .608z"/><path class="e" d="M16.061 34.797l-2.266-1.133a5.889 5.889 0 0 1-9.9 0L1.63 34.797A2.948 2.948 0 0 0 0 37.435v5.808a.983.983 0 0 0 .983.983h15.725a.983.983 0 0 0 .983-.983v-5.808a2.948 2.948 0 0 0-1.63-2.638z"/><path class="g" d="M8.845 30.467a5.9 5.9 0 0 1-5.848-5.134.991.991 0 0 1 .525-1.022 8.206 8.206 0 0 0 1.74-1.175 5.676 5.676 0 0 0 1.345-1.769.973.973 0 0 1 1.108-.534 16.933 16.933 0 0 1 6.671 3.418.951.951 0 0 1 .338.79 5.9 5.9 0 0 1-5.879 5.426z"/><path class="c" d="M14.386 24.247a16.932 16.932 0 0 0-6.671-3.418.973.973 0 0 0-1.108.539 5.627 5.627 0 0 1-.9 1.311 5.264 5.264 0 0 1-.446.455 8.2 8.2 0 0 1-1.74 1.175.992.992 0 0 0-.525 1.022 5.906 5.906 0 0 0 4.954 5.066 4.3 4.3 0 0 1-2.054-3.864v-1.4c.223-.165.448-.329.674-.531a7.826 7.826 0 0 0 1.406-1.658 14.843 14.843 0 0 1 5.122 2.787c.186.163.649.589 1.189 1.1a5.853 5.853 0 0 0 .436-1.792.951.951 0 0 0-.337-.792z"/><path class="h" d="M.6 35.664a2.942 2.942 0 0 0-.6 1.772v5.808a.983.983 0 0 0 .983.983h2.948v-4.952a1.966 1.966 0 0 0-.738-1.535z"/><path d="M44.587 33.457l-8.223-2.99-5.9 1.966-5.9-1.966-8.223 2.99a3.931 3.931 0 0 0-2.588 3.694v6.092a.983.983 0 0 0 .983.983h31.45a.983.983 0 0 0 .983-.983v-6.092a3.931 3.931 0 0 0-2.582-3.694z" fill="#ff507d"/><path d="M29.437 34.398l-.936 9.828h3.931l-.936-9.828z" fill="#707487"/><path d="M31.498 35.749h-2.064a.688.688 0 0 1-.688-.688v-2.628h3.44v2.628a.688.688 0 0 1-.688.688z" fill="#5b5d6e"/><path class="m" d="M46.117 34.473a3.927 3.927 0 0 1 1.058 2.678v6.092a.983.983 0 0 1-.983.983h-4.914V40.94a3.931 3.931 0 0 1 1.151-2.78z"/><path class="a" d="M41.278 10.199V1.966A1.966 1.966 0 0 0 39.312 0H27.519a7.863 7.863 0 0 0-7.863 7.863v2.336a9.828 9.828 0 0 0 .5 3.108l.327.982a2.948 2.948 0 0 1 .151.932v.5h19.661v-.5a2.95 2.95 0 0 1 .151-.932l.327-.982a9.826 9.826 0 0 0 .505-3.108z"/><path class="b" d="M24.57 3.993a3.993 3.993 0 0 0 3.993 3.993h.555l.267 7.74h10.913v-.5a2.949 2.949 0 0 1 .151-.932l.327-.981a9.828 9.828 0 0 0 .5-3.108V1.966A1.966 1.966 0 0 0 39.31 0H28.563a3.993 3.993 0 0 0-3.993 3.993z"/><path class="c" d="M24.57 23.588h11.794v8.845H24.57z"/><path class="d" d="M24.57 26.91a11.725 11.725 0 0 0 11.794 0v-3.323H24.57v3.323z"/><path class="m" d="M30.469 32.433l-3.135 3.135a.983.983 0 0 1-1.478-.1l-3.25-4.282.85-1.792a.983.983 0 0 1 1.4-.415z"/><path class="m" d="M30.467 32.433l3.135 3.135a.983.983 0 0 0 1.478-.1l3.25-4.282-.85-1.792a.983.983 0 0 0-1.4-.415z"/><path class="g" d="M30.467 26.536a9.828 9.828 0 0 1-9.828-9.828v-1.151a1.966 1.966 0 0 1 .576-1.39l.814-.814a1.966 1.966 0 0 0 .576-1.39V9.607a.975.975 0 0 1 .748-.955c2.324-.549 9.558-1.849 14.48 1.771a1.261 1.261 0 0 1 .5 1.018v.522a1.966 1.966 0 0 0 .576 1.39l.814.814a1.966 1.966 0 0 1 .576 1.39v1.151a9.828 9.828 0 0 1-9.832 9.828z"/><path class="c" d="M37.833 10.422c-3.462-2.546-8.061-2.656-11.3-2.308a26.514 26.514 0 0 0-3.183.537.975.975 0 0 0-.748.955v2.356a1.965 1.965 0 0 1-.576 1.39l-.814.814a1.966 1.966 0 0 0-.576 1.39v1.154a9.825 9.825 0 0 0 8.64 9.749 9.787 9.787 0 0 1-2.744-6.8v-7.184a1.967 1.967 0 0 1 1.729-1.952c2.359-.3 6.678-.474 10.065 1.442v-.522a1.261 1.261 0 0 0-.493-1.021z"/><path class="m" d="M14.817 34.473a3.927 3.927 0 0 0-1.058 2.678v6.092a.983.983 0 0 0 .983.983h4.914V40.94a3.931 3.931 0 0 0-1.151-2.78z"/></svg>