<svg xmlns="http://www.w3.org/2000/svg" width="56.001" height="57.125"><defs><style>.d{fill:#fffdfa}.e{fill:#fa5d3f}.f{fill:#fac850}.g{fill:#c85aed}.h{fill:#f5f1ff}</style></defs><g transform="translate(-24 -23.124)"><path d="M28.104 38.732h49v30.656a1.207 1.207 0 0 1-1.207 1.206H28.104a1.207 1.207 0 0 1-1.207-1.206V39.939a1.207 1.207 0 0 1 1.207-1.207z" fill="#ddf5fa"/><path d="M62.622 80.25H41.38v-.852a2.414 2.414 0 0 1 2.017-2.381l.751-.125a3.621 3.621 0 0 0 3.025-3.571v-3.692h9.655v3.691a3.621 3.621 0 0 0 3.026 3.571l.751.125a2.414 2.414 0 0 1 2.017 2.381z" fill="#24afd6"/><path d="M26.897 64.801h50.208v4.586a1.207 1.207 0 0 1-1.208 1.207H28.104a1.207 1.207 0 0 1-1.207-1.207z" fill="#57cee6"/><rect class="d" width="40" height="38" rx="10" transform="translate(32 23.124)"/><path class="e" d="M31.966 24.249h40.069a1.207 1.207 0 0 1 1.207 1.207v4.586H30.759v-4.586a1.207 1.207 0 0 1 1.207-1.207z"/><path class="f" d="M52 35.835v4.828a4.828 4.828 0 0 1 0 9.655v4.828a9.656 9.656 0 1 0 0-19.311z"/><path class="g" d="M52 55.145v-4.828a4.828 4.828 0 0 1-4.827-4.827h-4.828A9.655 9.655 0 0 0 52 55.145z"/><path class="e" d="M52 40.663v-4.828a9.655 9.655 0 0 0-9.655 9.655h4.828A4.828 4.828 0 0 1 52 40.663zM41.662 36.517l-1.648-1.648h-5.393v-1.931h5.793a.966.966 0 0 1 .683.283l1.931 1.931zM34.621 36.8h4.828v1.931h-4.828z"/><g><path class="f" d="M69.38 58.042h-5.793a.966.966 0 0 1-.683-.283l-1.931-1.931 1.365-1.365 1.648 1.648h5.393zM64.552 52.249h4.828v1.931h-4.828z"/></g><g><path class="d" d="M33.655 26.18h1.931v1.931h-1.931zM37.517 26.18h1.931v1.931h-1.931zM41.379 26.18h1.931v1.931h-1.931zM68.414 26.18h1.931v1.931h-1.931z"/></g><g><path class="g" d="M37.517 57.076v-1.931l3.862-2.9-3.862-1.448V45.49H24v11.586z"/><path class="h" d="M26.897 51.284h1.931v2.9h-1.931zM29.794 48.387h1.931v5.793h-1.931zM32.69 50.318h1.931v3.862H32.69z"/></g><g><path class="f" d="M66.483 33.904v1.931l-3.862 2.9 3.862 1.448v5.31h13.518V33.904z"/><path class="d" d="M70.063 42.311l-1.366-1.365 2.9-2.9a.965.965 0 0 1 1.365 0l1.144 1.144 2.229-2.972 1.545 1.159-2.9 3.862a.965.965 0 0 1-1.455.1l-1.248-1.248z"/></g></g></svg>