<svg xmlns="http://www.w3.org/2000/svg" width="51.001" height="51.001" viewBox="0 0 51.001 51.001"><defs><style>.a{fill:#444;}</style></defs><g transform="translate(-15.999 -16)"><path class="a" d="M66.151,16H33.85a.85.85,0,0,0-.85.85v3.443c-.283-.018-.563-.043-.85-.043a13.6,13.6,0,0,0-5.1,26.2v1.969l-.128.02h0l-5.872.91A5.917,5.917,0,0,0,16,55.228V66.151a.85.85,0,0,0,.85.85h30.6a.85.85,0,0,0,.85-.85V63.6H46.6v1.7H41.5v-2.55h3.4v-1.7H41.5v-3.4H39.8V65.3H24.5v-7.65H22.8v3.4H17.7V55.228a4.227,4.227,0,0,1,3.607-4.2l4.976-.768A5.753,5.753,0,0,0,32.1,55.1a5.864,5.864,0,0,0,5.921-4.842l1.653.253.259-1.68-2.68-.413V46.449a13.545,13.545,0,0,0,1.469-.7H41.5v-1.7h-.385a13.377,13.377,0,0,0,4.517-11.9H60.2v-1.7H45.3a13.518,13.518,0,0,0-.654-1.953.842.842,0,0,0,.109-.125l2.693-4.039,2.693,4.039a.849.849,0,0,0,.623.374.837.837,0,0,0,.685-.245l2.8-2.8,2.8,2.8,1.2-1.2-3.4-3.4a.85.85,0,0,0-1.2,0l-2.667,2.667-2.825-4.238a.882.882,0,0,0-1.414,0L43.76,26.8a13.651,13.651,0,0,0-6.922-5.7H38.1V19.4H36.4v1.54a13.49,13.49,0,0,0-1.7-.441V17.7H55.95v5.1a.85.85,0,0,0,.85.85h5.1V43.2h1.7V23.151a1.7,1.7,0,0,0-.5-1.2L58.852,17.7H65.3v34.85H67V16.85A.85.85,0,0,0,66.151,16ZM22.8,62.751V65.3H17.7v-2.55ZM36.327,50a4.282,4.282,0,0,1-4.3,3.4A4.211,4.211,0,0,1,27.973,50l.053-.008a.85.85,0,0,0,.724-.84V47a13.14,13.14,0,0,0,6.8,0v2.148A.806.806,0,0,0,36.327,50ZM44.05,33.85a11.9,11.9,0,1,1-11.9-11.9A11.9,11.9,0,0,1,44.05,33.85Zm13.6-11.9V18.9L60.7,21.95Z" transform="translate(0)"/><rect class="a" width="2" height="2" transform="translate(39.499 19.501)"/><rect class="a" width="1" height="2" transform="translate(43.499 19.501)"/><path class="a" d="M308.081,189.08l3.333.667.011,0a.884.884,0,0,0,.99-.666h0a.012.012,0,0,1,0,0,4.249,4.249,0,1,0-7.847,1.293l1.471-.85a2.554,2.554,0,0,1,1.36-3.681v2.406A.85.85,0,0,0,308.081,189.08Zm2.69-1.2-1.673-.335v-1.709A2.555,2.555,0,0,1,310.771,187.884Z" transform="translate(-257.398 -150.146)"/><rect class="a" width="4" height="2" transform="translate(56.499 33.501)"/><rect class="a" width="4" height="1" transform="translate(56.499 37.501)"/><path class="a" d="M276.177,265.274a11.048,11.048,0,1,0-20.168-6.569q-.011.334,0,.667a11.04,11.04,0,0,0,16.207,9.443l4.713,4.713a2.653,2.653,0,0,0,3.752,0h0a2.653,2.653,0,0,0,0-3.752h0ZM257.7,259.051a9.35,9.35,0,1,1,9.35,9.35A9.35,9.35,0,0,1,257.7,259.051ZM278.16,272.39l-4.483-4.516A11.13,11.13,0,0,0,275.1,266.6l4.411,4.444a.953.953,0,0,1,0,1.347h0a.953.953,0,0,1-1.348,0Z" transform="translate(-214.502 -207.35)"/><path class="a" d="M295.65,280a7.65,7.65,0,1,0,7.65,7.65A7.65,7.65,0,0,0,295.65,280Zm0,13.6a5.95,5.95,0,1,1,5.95-5.95A5.95,5.95,0,0,1,295.65,293.6Z" transform="translate(-243.1 -235.949)"/><path class="a" d="M320,316.25h1.7a2.553,2.553,0,0,1,2.55-2.55V312A4.255,4.255,0,0,0,320,316.25Z" transform="translate(-271.7 -264.549)"/><path class="a" d="M72,98.2A10.2,10.2,0,1,0,82.2,88,10.2,10.2,0,0,0,72,98.2Zm18.7,0a8.5,8.5,0,1,1-8.5-8.5A8.5,8.5,0,0,1,90.7,98.2Z" transform="translate(-50.05 -64.35)"/><path class="a" d="M104,126.8a6.8,6.8,0,1,0,6.8-6.8A6.8,6.8,0,0,0,104,126.8Zm11.9,0a5.1,5.1,0,1,1-5.1-5.1A5.1,5.1,0,0,1,115.9,126.8Z" transform="translate(-78.65 -92.95)"/><path class="a" d="M136,155.4a3.4,3.4,0,1,0,3.4-3.4A3.4,3.4,0,0,0,136,155.4Zm5.1,0a1.7,1.7,0,1,1-1.7-1.7A1.7,1.7,0,0,1,141.1,155.4Z" transform="translate(-107.25 -121.55)"/></g></svg>