<svg xmlns="http://www.w3.org/2000/svg" width="46.334" height="46.332"><defs><style>.a{fill:#5a5a5a}</style></defs><path class="a" d="M45.1 15.9L30.433 1.228a4.216 4.216 0 0 0-5.948 0L1.228 24.489a4.215 4.215 0 0 0 0 5.948l1.809 1.809L15.2 44.402h-1.686a.965.965 0 0 0 0 1.93h19.305a.965.965 0 1 0 0-1.93H22.551L45.1 21.848a4.211 4.211 0 0 0 0-5.948zm-1.365 4.583L20.483 43.739a2.259 2.259 0 0 1-1.606.662h-.007a2.258 2.258 0 0 1-1.605-.662l-12.18-12.18L27.42 9.225a.965.965 0 1 0-1.365-1.365L3.72 30.194l-1.127-1.127a2.285 2.285 0 0 1 0-3.218l23.256-23.26a2.285 2.285 0 0 1 3.218 0l5.222 5.222L11.955 30.15a.965.965 0 0 0 1.365 1.365L35.654 9.18l8.085 8.085a2.278 2.278 0 0 1 0 3.218z"/><path class="a" d="M23.781 27.878a.965.965 0 0 0-1.365 0l-7.6 7.6a.965.965 0 1 0 1.365 1.365l7.6-7.6a.965.965 0 0 0 0-1.365zM20.667 35.089l-3.115 3.115a.965.965 0 1 0 1.365 1.365l3.115-3.115a.965.965 0 1 0-1.365-1.365zM23.537 32.221l-.409.409a.965.965 0 1 0 1.361 1.367l.41-.409a.965.965 0 0 0-1.365-1.365zM36.839 14.822a.965.965 0 0 0-1.365 0l-4.1 4.1a.965.965 0 0 0 0 1.365l2.73 2.73a.965.965 0 0 0 1.365 0l4.1-4.1a.965.965 0 0 0 0-1.365zm-2.048 6.143L33.426 19.6l2.73-2.73 1.365 1.365zM28.99 7.256a.962.962 0 0 0 .683-.283l.409-.41a.965.965 0 1 0-1.365-1.365l-.41.41a.965.965 0 0 0 .683 1.648zM9.702 32.402l-.41.409a.965.965 0 0 0 1.365 1.365l.409-.409a.965.965 0 1 0-1.365-1.365z"/></svg>