<svg xmlns="http://www.w3.org/2000/svg" width="60.047" height="55.461"><defs><style>.a{fill:#444}</style></defs><path class="a" d="M48.347-.003a6.747 6.747 0 0 0-4.379 11.883l-6.344 12.057a6.73 6.73 0 0 0-5.645 1.008l-4.828-4.355a6.752 6.752 0 1 0-10.779 1.336L9.18 32.668a6.771 6.771 0 1 0 2.467 1.656l7.192-10.742a6.728 6.728 0 0 0 6.321-.785l4.828 4.355a6.752 6.752 0 1 0 10.262-1.828l6.344-12.053A6.751 6.751 0 1 0 48.347-.003zM6.751 42.746a3.781 3.781 0 1 1 3.781-3.781 3.785 3.785 0 0 1-3.781 3.781zm14.516-21.681a3.781 3.781 0 1 1 3.781-3.781 3.785 3.785 0 0 1-3.781 3.781zm10.823 9.391a3.781 3.781 0 1 1 3.781 3.781 3.785 3.785 0 0 1-3.781-3.781zm16.257-19.924a3.781 3.781 0 1 1 3.781-3.781 3.785 3.785 0 0 1-3.781 3.781z"/><path class="a" d="M59.822 53.055L49.074 42.307a14.675 14.675 0 1 0-2.18 2.18l10.748 10.748a.771.771 0 0 0 1.09 0l1.09-1.09a.771.771 0 0 0 0-1.09zM37.694 44.67a11.562 11.562 0 1 1 11.563-11.563A11.575 11.575 0 0 1 37.694 44.67z"/></svg>