<svg xmlns="http://www.w3.org/2000/svg" width="28.462" height="34.142" viewBox="0 0 28.462 34.142"><defs><style>.a{fill:#01d35a;}</style></defs><g transform="translate(0)"><path class="a" d="M114.109,93.2a8.793,8.793,0,0,0-5.811,15.381c1.39,1.39,1.263,4.359,1.232,4.39a.523.523,0,0,0,.158.411.583.583,0,0,0,.379.158h8.054a.523.523,0,0,0,.379-.158.6.6,0,0,0,.158-.411c0-.032-.158-3,1.232-4.39l.095-.095A8.767,8.767,0,0,0,114.109,93.2Zm5.053,14.56c-.032.032-.095.095-.095.126a7.375,7.375,0,0,0-1.484,4.548H110.6c-.032-1.042-.253-3.316-1.579-4.674a7.691,7.691,0,1,1,10.138,0Z" transform="translate(-99.852 -85.841)"/><path class="a" d="M209.866,121.6a.537.537,0,0,0,0,1.074,5.749,5.749,0,0,1,5.748,5.748.537.537,0,1,0,1.074,0A6.794,6.794,0,0,0,209.866,121.6Z" transform="translate(-195.641 -111.999)"/><path class="a" d="M163.267,358.4h-7.012a1.327,1.327,0,0,0,0,2.653h6.98a1.362,1.362,0,0,0,1.358-1.326A1.335,1.335,0,0,0,163.267,358.4Zm0,1.548h-7.012A.249.249,0,0,1,156,359.7a.232.232,0,0,1,.253-.253h6.98a.249.249,0,0,1,.253.253A.225.225,0,0,1,163.267,359.948Z" transform="translate(-145.536 -330.101)"/><path class="a" d="M174.382,398.8h-4.927a1.327,1.327,0,0,0,0,2.653h4.927a1.334,1.334,0,0,0,1.326-1.327A1.314,1.314,0,0,0,174.382,398.8Zm0,1.548h-4.927a.249.249,0,0,1-.253-.253.232.232,0,0,1,.253-.253h4.927a.253.253,0,0,1,0,.505Z" transform="translate(-157.694 -367.311)"/><path class="a" d="M209.866,4.738A.532.532,0,0,0,210.4,4.2V.537a.537.537,0,1,0-1.074,0V4.2A.553.553,0,0,0,209.866,4.738Z" transform="translate(-195.641)"/><path class="a" d="M295.991,33.215a.509.509,0,0,0-.726.126l-2.021,3.032a.52.52,0,0,0,.126.758.5.5,0,0,0,.726-.158l2.021-3.032A.49.49,0,0,0,295.991,33.215Z" transform="translate(-272.828 -30.499)"/><path class="a" d="M105.557,35.07a.509.509,0,0,0,.284-.095.553.553,0,0,0,.158-.758l-1.958-3.064a.548.548,0,1,0-.916.6l1.958,3.064A.524.524,0,0,0,105.557,35.07Z" transform="translate(-97.743 -28.469)"/><path class="a" d="M39.958,105.087l-3.19-1.737a.556.556,0,0,0-.726.221.5.5,0,0,0,.221.726l3.19,1.737a.743.743,0,0,0,.253.063.521.521,0,0,0,.474-.284A.556.556,0,0,0,39.958,105.087Z" transform="translate(-35.966 -95.138)"/><path class="a" d="M346.448,103.571a.556.556,0,0,0-.726-.221l-3.221,1.737a.556.556,0,0,0-.221.726.521.521,0,0,0,.474.284.6.6,0,0,0,.253-.063l3.222-1.737A.556.556,0,0,0,346.448,103.571Z" transform="translate(-318.042 -95.138)"/></g></svg>