<svg xmlns="http://www.w3.org/2000/svg" width="28.462" height="34.142"><defs><style>.a{fill:#01d35a}</style></defs><path class="a" d="M14.257 7.359A8.793 8.793 0 0 0 8.446 22.74c1.39 1.39 1.263 4.359 1.232 4.39a.523.523 0 0 0 .158.411.583.583 0 0 0 .379.158h8.054a.523.523 0 0 0 .379-.158.6.6 0 0 0 .158-.411c0-.032-.158-3 1.232-4.39l.095-.095a8.767 8.767 0 0 0-5.876-15.286zm5.053 14.56c-.032.032-.095.095-.095.126a7.375 7.375 0 0 0-1.484 4.548h-6.983c-.032-1.042-.253-3.316-1.579-4.674a7.691 7.691 0 1 1 10.138 0z"/><path class="a" d="M14.225 9.601a.537.537 0 0 0 0 1.074 5.749 5.749 0 0 1 5.748 5.748.537.537 0 1 0 1.074 0 6.794 6.794 0 0 0-6.822-6.822zM17.731 28.299h-7.012a1.327 1.327 0 0 0 0 2.653h6.98a1.362 1.362 0 0 0 1.358-1.326 1.335 1.335 0 0 0-1.326-1.327zm0 1.548h-7.012a.249.249 0 0 1-.255-.248.232.232 0 0 1 .253-.253h6.98a.249.249 0 0 1 .253.253.225.225 0 0 1-.219.248zM16.688 31.489h-4.927a1.327 1.327 0 0 0 0 2.653h4.927a1.334 1.334 0 0 0 1.326-1.327 1.314 1.314 0 0 0-1.326-1.326zm0 1.548h-4.927a.249.249 0 0 1-.253-.253.232.232 0 0 1 .253-.253h4.927a.253.253 0 0 1 0 .505zM14.225 4.738a.532.532 0 0 0 .534-.538V.537a.537.537 0 1 0-1.074 0V4.2a.553.553 0 0 0 .54.538zM23.163 2.716a.509.509 0 0 0-.726.126l-2.021 3.032a.52.52 0 0 0 .126.758.5.5 0 0 0 .726-.158l2.021-3.032a.49.49 0 0 0-.126-.726zM7.814 6.601a.509.509 0 0 0 .284-.095.553.553 0 0 0 .158-.758L6.298 2.684a.548.548 0 1 0-.916.6L7.34 6.348a.524.524 0 0 0 .474.253zM3.992 9.949L.802 8.212a.556.556 0 0 0-.726.221.5.5 0 0 0 .221.726l3.19 1.737a.743.743 0 0 0 .253.063.521.521 0 0 0 .474-.284.556.556 0 0 0-.222-.726zM28.406 8.433a.556.556 0 0 0-.726-.221l-3.221 1.737a.556.556 0 0 0-.221.726.521.521 0 0 0 .474.284.6.6 0 0 0 .253-.063l3.222-1.737a.556.556 0 0 0 .219-.726z"/></svg>