<svg xmlns="http://www.w3.org/2000/svg" width="76" height="77.198" viewBox="0 0 76 77.198"><defs><style>.a{fill:none;stroke:#e6e6e6;stroke-width:2px;}.b{fill:#818181;}.c{fill:#01d35a;}</style></defs><g transform="translate(-624 -318)"><g transform="translate(624.692 319.075)"><g transform="translate(0 0)"><g transform="translate(0 0)"><g transform="translate(0)"><circle class="a" cx="37" cy="37" r="37" transform="translate(0.308 -0.075)"/><g transform="translate(21.978 18.9)"><g transform="translate(0 19.058)"><path class="b" d="M28.265,312.642v8.324a1.2,1.2,0,0,1-1.2,1.2H3.593a1.2,1.2,0,0,1-1.2-1.2v-8.324H0v8.324a3.6,3.6,0,0,0,3.593,3.593H27.067a3.6,3.6,0,0,0,3.593-3.593v-8.324Z" transform="translate(0 -312.642)"/></g><g transform="translate(7.888 0.358)"><g transform="translate(0 0)"><path class="b" d="M139.158.358,131.716,7.8l1.694,1.694,4.551-4.551V23.61h2.4V4.943l4.551,4.551L146.6,7.8Z" transform="translate(-131.716 -0.358)"/></g></g></g></g></g></g></g><path class="c" d="M12.116,0A12.116,12.116,0,1,0,24.232,12.116,12.129,12.129,0,0,0,12.116,0Zm5.825,13.048H13.048v5.126a.932.932,0,1,1-1.864,0V13.048H6.291a.932.932,0,1,1,0-1.864h4.893V6.524a.932.932,0,1,1,1.864,0v4.66h4.893a.932.932,0,1,1,0,1.864Z" transform="translate(673.969 370.966)"/></g></svg>