<svg width="480" height="480" viewBox="0 0 480 480" fill="none" xmlns="http://www.w3.org/2000/svg">
<g clip-path="url(#clip0)">
<path d="M384 192C436.938 192 480 148.938 480 96C480 43.0625 436.938 0 384 0C345.559 0 312.414 22.7617 297.098 55.4727L271.391 45.9844C271.695 44.0156 272 42.0469 272 40C272 17.9453 254.055 0 232 0C209.945 0 192 17.9453 192 40C192 62.0547 209.945 80 232 80C246.328 80 258.824 72.3594 265.887 61.0078L291.551 70.4805C289.297 78.625 288 87.1523 288 96C288 106.48 289.742 116.543 292.863 125.992L204.879 163.281C188.77 132.824 156.793 112 120 112C108.078 112 96.7031 114.289 86.1602 118.273L64.0312 71.7695C73.6719 64.457 80 53 80 40C80 17.9453 62.0547 0 40 0C17.9453 0 0 17.9453 0 40C0 62.0547 17.9453 80 40 80C43.3281 80 46.5195 79.4727 49.6172 78.6953L71.7188 125.152C43.2305 141.824 24 172.672 24 208C24 241.184 40.9297 270.473 66.5938 287.719L51.9609 314.023C48.1523 312.824 44.1914 312 40 312C17.9453 312 0 329.945 0 352C0 374.055 17.9453 392 40 392C62.0547 392 80 374.055 80 352C80 339.887 74.4727 329.145 65.9453 321.809L80.6094 295.449C92.6406 300.895 105.953 304 120 304C141.953 304 162.145 296.512 178.336 284.062L209.824 318.703C193.855 335.855 184 358.77 184 384C184 388.895 184.488 393.664 185.191 398.359L148.145 407.152C141.77 393.52 128.016 384 112 384C89.9453 384 72 401.945 72 424C72 446.055 89.9453 464 112 464C134.055 464 152 446.055 152 424C152 423.559 151.879 423.145 151.871 422.703L188.848 413.938C201.457 452.246 237.52 480 280 480C332.938 480 376 436.938 376 384C376 367.586 371.848 352.129 364.551 338.609L411.543 308.055C418.809 315.414 428.871 320 440 320C462.055 320 480 302.055 480 280C480 257.945 462.055 240 440 240C417.945 240 400 257.945 400 280C400 285.168 401.062 290.078 402.855 294.617L355.754 325.238C346.328 313.121 334.09 303.336 320 296.84L359.047 188.594C367.016 190.742 375.359 192 384 192ZM232 64C218.77 64 208 53.2305 208 40C208 26.7695 218.77 16 232 16C245.23 16 256 26.7695 256 40C256 53.2305 245.23 64 232 64ZM16 40C16 26.7695 26.7695 16 40 16C53.2305 16 64 26.7695 64 40C64 53.2305 53.2305 64 40 64C26.7695 64 16 53.2305 16 40ZM40 376C26.7695 376 16 365.23 16 352C16 338.77 26.7695 328 40 328C53.2305 328 64 338.77 64 352C64 365.23 53.2305 376 40 376ZM112 448C98.7695 448 88 437.23 88 424C88 410.77 98.7695 400 112 400C125.23 400 136 410.77 136 424C136 437.23 125.23 448 112 448ZM440 256C453.23 256 464 266.77 464 280C464 293.23 453.23 304 440 304C426.77 304 416 293.23 416 280C416 266.77 426.77 256 440 256ZM336.887 160.512C340.457 142.008 356.77 128 376 128H392C411.23 128 427.543 142.008 431.113 160.512C417.879 170.199 401.625 176 384 176C366.375 176 350.121 170.199 336.887 160.512ZM384 112C370.77 112 360 101.23 360 88C360 74.7695 370.77 64 384 64C397.23 64 408 74.7695 408 88C408 101.23 397.23 112 384 112ZM384 16C428.113 16 464 51.8867 464 96C464 116 456.566 134.273 444.383 148.312C438.777 133.551 427.09 121.77 412.527 115.953C419.609 108.734 424 98.8789 424 88C424 65.9453 406.055 48 384 48C361.945 48 344 65.9453 344 88C344 98.8789 348.391 108.734 355.473 115.953C340.91 121.77 329.223 133.551 323.617 148.312C311.434 134.273 304 116 304 96C304 51.8867 339.887 16 384 16ZM40 208C40 163.887 75.8867 128 120 128C164.113 128 200 163.887 200 208C200 228.062 192.52 246.383 180.273 260.441C174.688 245.625 162.977 233.785 148.375 227.953C155.449 220.734 159.84 210.879 159.84 200C159.84 177.945 141.895 160 119.84 160C97.7852 160 79.8398 177.945 79.8398 200C79.8398 210.879 84.2305 220.734 91.3125 227.953C76.793 233.742 65.1211 245.48 59.4961 260.184C47.3828 246.16 40 227.945 40 208ZM95.8398 200C95.8398 186.77 106.609 176 119.84 176C133.07 176 143.84 186.77 143.84 200C143.84 213.23 133.07 224 119.84 224C106.609 224 95.8398 213.23 95.8398 200ZM72.7539 272.406C76.3594 253.953 92.6484 240 111.84 240H127.84C147.105 240 163.449 254.055 166.969 272.617C153.762 282.246 137.559 288 120 288C102.312 288 86.0078 282.16 72.7539 272.406ZM232.754 448.406C236.359 429.953 252.648 416 271.84 416H287.84C307.105 416 323.449 430.055 326.969 448.617C313.762 458.246 297.559 464 280 464C262.312 464 246.008 458.16 232.754 448.406ZM279.84 400C266.609 400 255.84 389.23 255.84 376C255.84 362.77 266.609 352 279.84 352C293.07 352 303.84 362.77 303.84 376C303.84 389.23 293.07 400 279.84 400ZM360 384C360 404.062 352.52 422.383 340.273 436.441C334.688 421.625 322.977 409.785 308.375 403.953C315.449 396.734 319.84 386.879 319.84 376C319.84 353.945 301.895 336 279.84 336C257.785 336 239.84 353.945 239.84 376C239.84 386.879 244.23 396.734 251.312 403.953C236.793 409.742 225.121 421.48 219.496 436.184C207.383 422.16 200 403.945 200 384C200 339.887 235.887 304 280 304C324.113 304 360 339.887 360 384ZM304.953 291.406C296.984 289.258 288.641 288 280 288C258.047 288 237.855 295.488 221.664 307.938L190.176 273.297C206.145 256.145 216 233.23 216 208C216 197.52 214.258 187.457 211.137 178.008L299.121 140.719C308.977 159.352 324.793 174.305 344.008 183.16L304.953 291.406Z" fill="#3AB83A"/>
</g>
<defs>
<clipPath id="clip0">
<rect width="480" height="480" fill="white"/>
</clipPath>
</defs>
</svg>
