<svg width="512" height="512" viewBox="0 0 512 512" fill="none" xmlns="http://www.w3.org/2000/svg">
<path d="M256.281 232.255C246.855 232.255 239.214 239.896 239.214 249.322C239.213 256.137 243.218 262.002 248.993 264.738V285.485C248.993 289.509 252.255 292.772 256.28 292.772C260.305 292.772 263.567 289.51 263.567 285.485V264.738C269.343 262.002 273.348 256.137 273.348 249.322C273.348 239.896 265.707 232.255 256.281 232.255Z" fill="#3AB83A"/>
<path d="M438.138 111.149C406.769 98.736 381.871 75.874 368.03 46.776C364.266 38.863 356.13 33.749 347.301 33.749H164.699C155.871 33.749 147.735 38.862 143.971 46.776C130.131 75.874 105.232 98.736 73.863 111.149C65.064 114.63 59.379 123.018 59.379 132.517V176.929C59.379 235.148 76.356 292.659 108.475 343.247C140.906 394.33 187.9 437.021 244.373 466.703L245.293 467.187C248.646 468.949 252.323 469.83 256.001 469.83C259.677 469.83 263.355 468.949 266.706 467.188L267.629 466.703C324.103 437.02 371.096 394.33 403.528 343.247C435.646 292.658 452.623 235.147 452.623 176.929V132.517C452.623 123.017 446.936 114.63 438.138 111.149ZM438.05 176.93C438.05 232.377 421.858 287.187 391.225 335.437C360.156 384.373 315.072 425.304 260.851 453.804L259.928 454.288C257.469 455.582 254.533 455.581 252.073 454.288L251.153 453.805C196.93 425.305 151.846 384.374 120.776 335.437C90.143 287.188 73.951 232.377 73.951 176.929V132.517C73.951 129.036 76.021 125.967 79.224 124.7C114.034 110.926 141.701 85.475 157.13 53.036C158.491 50.173 161.462 48.323 164.698 48.323H347.302C350.538 48.323 353.508 50.173 354.87 53.036C370.3 85.475 397.968 110.926 432.777 124.701C435.98 125.968 438.05 129.037 438.05 132.518V176.93Z" fill="#3AB83A"/>
<path d="M474.672 246.08C470.747 245.192 466.845 247.655 465.959 251.581C443.767 349.758 376.179 434.901 280.523 485.178L258.294 496.862C256.859 497.616 255.145 497.616 253.71 496.862L231.481 485.178C135.675 434.822 68.053 349.532 45.954 251.178C45.073 247.252 41.173 244.783 37.248 245.666C33.322 246.548 30.854 250.446 31.736 254.372C54.772 356.903 125.105 445.73 224.701 498.077L246.93 509.761C249.771 511.253 252.886 512 256.002 512C259.117 512 262.234 511.253 265.074 509.76L287.303 498.076C386.742 445.811 457.04 357.138 480.174 254.793C481.06 250.868 478.597 246.967 474.672 246.08Z" fill="#3AB83A"/>
<path d="M471.125 83.377C432.216 79.272 401.622 51.961 396.725 16.963C395.372 7.292 387.061 0 377.393 0H134.609C124.942 0 116.631 7.292 115.278 16.963C110.38 51.962 79.786 79.272 40.878 83.377C31.019 84.417 23.584 92.746 23.584 102.75V180.994C23.584 192.364 24.173 203.859 25.335 215.161C25.721 218.911 28.885 221.703 32.575 221.703C32.824 221.703 33.076 221.69 33.329 221.664C37.332 221.253 40.244 217.674 39.832 213.671C38.721 202.862 38.157 191.868 38.157 180.994V102.75C38.157 100.265 40.024 98.12 42.407 97.869C87.983 93.061 123.883 60.621 129.711 18.982C130.069 16.427 132.128 14.573 134.609 14.573H377.392C379.873 14.573 381.934 16.427 382.291 18.982C388.117 60.621 424.018 93.06 469.594 97.869C471.977 98.12 473.844 100.265 473.844 102.75V180.994C473.844 191.753 473.292 202.633 472.204 213.334C471.797 217.337 474.713 220.913 478.716 221.32C482.717 221.73 486.295 218.811 486.703 214.808C487.841 203.62 488.417 192.244 488.417 180.994V102.75C488.418 92.746 480.984 84.417 471.125 83.377Z" fill="#3AB83A"/>
<path d="M339.46 181.865H327.479V147.083C327.479 107.824 295.54 75.885 256.28 75.885C217.021 75.885 185.081 107.824 185.081 147.083V181.865H173.101C160.323 181.865 149.927 192.261 149.927 205.039V309.368C149.927 322.146 160.323 332.542 173.101 332.542H339.46C352.238 332.542 362.634 322.146 362.634 309.368V205.039C362.634 192.261 352.238 181.865 339.46 181.865ZM199.655 147.084C199.655 115.861 225.057 90.459 256.281 90.459C287.505 90.459 312.907 115.861 312.907 147.084V181.866H199.655V147.084ZM348.061 309.368C348.061 314.11 344.202 317.969 339.46 317.969H173.101C168.358 317.969 164.5 314.11 164.5 309.368V205.039C164.5 200.297 168.359 196.438 173.101 196.438H339.46C344.202 196.438 348.061 200.296 348.061 205.039V309.368Z" fill="#3AB83A"/>
</svg>
