<svg width="512" height="512" viewBox="0 0 512 512" fill="none" xmlns="http://www.w3.org/2000/svg">
<path d="M344 296C339.592 296 336 292.416 336 288H320C320 301.232 330.768 312 344 312V328H360V312H384V288C384 274.768 373.232 264 360 264H344C339.592 264 336 260.416 336 256V248H360C364.408 248 368 251.584 368 256H384C384 242.768 373.232 232 360 232V216H344V232H320V256C320 269.232 330.768 280 344 280H360C364.408 280 368 283.584 368 288V296H344Z" fill="#3AB83A"/>
<path d="M352 360C400.52 360 440 320.52 440 272C440 223.48 400.52 184 352 184C303.48 184 264 223.48 264 272C264 320.52 303.48 360 352 360ZM352 200C391.696 200 424 232.296 424 272C424 311.704 391.696 344 352 344C312.304 344 280 311.704 280 272C280 232.296 312.304 200 352 200Z" fill="#3AB83A"/>
<path d="M424 176H440V192H424V176Z" fill="#3AB83A"/>
<path d="M264 184H280V200H264V184Z" fill="#3AB83A"/>
<path d="M264 344H280V360H264V344Z" fill="#3AB83A"/>
<path d="M424 344H440V360H424V344Z" fill="#3AB83A"/>
<path d="M80 296H96V144H69.928L112 71.872L154.072 144H128V280H144V160H181.928L112 40.128L42.072 160H80V296Z" fill="#3AB83A"/>
<path d="M80 312H96V328H80V312Z" fill="#3AB83A"/>
<path d="M128 296H144V312H128V296Z" fill="#3AB83A"/>
<path d="M128 328H144V344H128V328Z" fill="#3AB83A"/>
<path d="M472 360.032V176C472 162.768 461.232 152 448 152V104C448 51.064 404.936 8 352 8C299.064 8 256 51.064 256 104V152C242.768 152 232 162.768 232 176V385.104C231.832 385.216 231.64 385.288 231.472 385.408L221.576 392H200V376H8V504H200V488H406.68C430.152 488 452.2 476.52 465.664 457.288L498.152 410.872C501.976 405.416 504 399 504 392.328C504 374.616 489.672 360.216 472 360.032ZM272 104C272 59.888 307.888 24 352 24C396.112 24 432 59.888 432 104V152H400V104C400 77.528 378.472 56 352 56C325.528 56 304 77.528 304 104V152H272V104ZM384 152H320V104C320 86.352 334.352 72 352 72C369.648 72 384 86.352 384 104V152ZM248 176C248 171.584 251.592 168 256 168H448C452.408 168 456 171.584 456 176V362.6C450.656 364.792 445.832 368.224 442.304 372.936L428 392H390.52C387.208 382.712 378.408 376 367.992 376H262.528C257.568 376 252.712 376.744 248 378.016V176ZM391.192 408H416L411.2 414.4C406.696 420.416 399.512 424 392 424H383.816C387.424 419.224 390.016 413.832 391.192 408ZM24 392H120V488H24V392ZM184 488H168V424H152V488H136V392H152V408H168V392H184V488ZM485.048 401.696L452.552 448.12C442.088 463.072 424.936 472 406.68 472H200V408H226.424L240.344 398.72C246.936 394.32 254.608 392 262.528 392H368C372.408 392 376 395.584 376 400C376 406.416 373.496 412.456 368.96 416.992C364.48 421.464 358.544 423.936 352.216 424H336V424.016L301.28 424.008C301.272 424.008 301.256 424.008 301.24 424.008C290.56 424.008 280.52 428.176 272.96 435.728L266.344 442.344L277.656 453.656L284.272 447.04C288.808 442.512 294.832 440.008 301.248 440.008H301.264L351.96 440.024H351.976C352.056 440.024 352.136 440 352.216 440H392C404.52 440 416.488 434.024 424 424L455.096 382.536C458.168 378.448 463.056 376 468.168 376H471.672C480.672 376 488 383.328 488 392.328C488 395.696 486.984 398.936 485.048 401.696Z" fill="#3AB83A"/>
</svg>
