<svg width="512" height="512" viewBox="0 0 512 512" fill="none" xmlns="http://www.w3.org/2000/svg">
<path d="M88 16H40C33.6348 16 27.5303 18.5286 23.0294 23.0294C18.5286 27.5303 16 33.6348 16 40V56C16 62.3652 18.5286 68.4697 23.0294 72.9706C27.5303 77.4714 33.6348 80 40 80H56V96H32V112H96V96H72V80H88C94.3652 80 100.47 77.4714 104.971 72.9706C109.471 68.4697 112 62.3652 112 56V40C112 33.6348 109.471 27.5303 104.971 23.0294C100.47 18.5286 94.3652 16 88 16V16ZM96 56C96 58.1217 95.1571 60.1566 93.6569 61.6569C92.1566 63.1571 90.1217 64 88 64H40C37.8783 64 35.8434 63.1571 34.3431 61.6569C32.8429 60.1566 32 58.1217 32 56V40C32 37.8783 32.8429 35.8434 34.3431 34.3431C35.8434 32.8429 37.8783 32 40 32H88C90.1217 32 92.1566 32.8429 93.6569 34.3431C95.1571 35.8434 96 37.8783 96 40V56Z" fill="#3AB83A"/>
<path d="M472 16H424C417.635 16 411.53 18.5286 407.029 23.0294C402.529 27.5303 400 33.6348 400 40V56C400 62.3652 402.529 68.4697 407.029 72.9706C411.53 77.4714 417.635 80 424 80H440V96H416V112H480V96H456V80H472C478.365 80 484.47 77.4714 488.971 72.9706C493.471 68.4697 496 62.3652 496 56V40C496 33.6348 493.471 27.5303 488.971 23.0294C484.47 18.5286 478.365 16 472 16V16ZM480 56C480 58.1217 479.157 60.1566 477.657 61.6569C476.157 63.1571 474.122 64 472 64H424C421.878 64 419.843 63.1571 418.343 61.6569C416.843 60.1566 416 58.1217 416 56V40C416 37.8783 416.843 35.8434 418.343 34.3431C419.843 32.8429 421.878 32 424 32H472C474.122 32 476.157 32.8429 477.657 34.3431C479.157 35.8434 480 37.8783 480 40V56Z" fill="#3AB83A"/>
<path d="M88 400H40C33.6348 400 27.5303 402.529 23.0294 407.029C18.5286 411.53 16 417.635 16 424V440C16 446.365 18.5286 452.47 23.0294 456.971C27.5303 461.471 33.6348 464 40 464H56V480H32V496H96V480H72V464H88C94.3652 464 100.47 461.471 104.971 456.971C109.471 452.47 112 446.365 112 440V424C112 417.635 109.471 411.53 104.971 407.029C100.47 402.529 94.3652 400 88 400V400ZM96 440C96 442.122 95.1571 444.157 93.6569 445.657C92.1566 447.157 90.1217 448 88 448H40C37.8783 448 35.8434 447.157 34.3431 445.657C32.8429 444.157 32 442.122 32 440V424C32 421.878 32.8429 419.843 34.3431 418.343C35.8434 416.843 37.8783 416 40 416H88C90.1217 416 92.1566 416.843 93.6569 418.343C95.1571 419.843 96 421.878 96 424V440Z" fill="#3AB83A"/>
<path d="M472 400H424C417.635 400 411.53 402.529 407.029 407.029C402.529 411.53 400 417.635 400 424V440C400 446.365 402.529 452.47 407.029 456.971C411.53 461.471 417.635 464 424 464H440V480H416V496H480V480H456V464H472C478.365 464 484.47 461.471 488.971 456.971C493.471 452.47 496 446.365 496 440V424C496 417.635 493.471 411.53 488.971 407.029C484.47 402.529 478.365 400 472 400V400ZM480 440C480 442.122 479.157 444.157 477.657 445.657C476.157 447.157 474.122 448 472 448H424C421.878 448 419.843 447.157 418.343 445.657C416.843 444.157 416 442.122 416 440V424C416 421.878 416.843 419.843 418.343 418.343C419.843 416.843 421.878 416 424 416H472C474.122 416 476.157 416.843 477.657 418.343C479.157 419.843 480 421.878 480 424V440Z" fill="#3AB83A"/>
<path d="M55.808 123.584C29.85 162.862 16.0106 208.904 16.0106 255.984C16.0106 303.064 29.85 349.106 55.808 388.384L69.144 379.584C44.9094 342.918 31.9887 299.936 31.9887 255.984C31.9887 212.032 44.9094 169.05 69.144 132.384L55.808 123.584Z" fill="#3AB83A"/>
<path d="M256 480C212.045 480.071 169.049 467.148 132.416 442.856L123.616 456.192C162.894 482.15 208.936 495.989 256.016 495.989C303.096 495.989 349.138 482.15 388.416 456.192L379.616 442.856C342.974 467.154 299.966 480.077 256 480V480Z" fill="#3AB83A"/>
<path d="M442.856 132.416C467.091 169.082 480.011 212.064 480.011 256.016C480.011 299.968 467.091 342.949 442.856 379.616L456.192 388.416C482.15 349.138 495.989 303.096 495.989 256.016C495.989 208.936 482.15 162.894 456.192 123.616L442.856 132.416Z" fill="#3AB83A"/>
<path d="M176 304H200V320C200 322.122 200.843 324.157 202.343 325.657C203.843 327.157 205.878 328 208 328H272C274.122 328 276.157 327.157 277.657 325.657C279.157 324.157 280 322.122 280 320V264C280 261.878 279.157 259.843 277.657 258.343C276.157 256.843 274.122 256 272 256H248V240C248 237.878 247.157 235.843 245.657 234.343C244.157 232.843 242.122 232 240 232H176C173.878 232 171.843 232.843 170.343 234.343C168.843 235.843 168 237.878 168 240V296C168 298.122 168.843 300.157 170.343 301.657C171.843 303.157 173.878 304 176 304ZM264 272V312H216V304H240C242.122 304 244.157 303.157 245.657 301.657C247.157 300.157 248 298.122 248 296V272H264ZM216 288V272H232V288H216ZM184 248H232V256H208C205.878 256 203.843 256.843 202.343 258.343C200.843 259.843 200 261.878 200 264V288H184V248Z" fill="#3AB83A"/>
<path d="M123.584 55.808L132.384 69.144C169.05 44.9094 212.032 31.9887 255.984 31.9887C299.936 31.9887 342.918 44.9094 379.584 69.144L388.384 55.808C349.106 29.85 303.064 16.0106 255.984 16.0106C208.904 16.0106 162.862 29.85 123.584 55.808Z" fill="#3AB83A"/>
<path d="M375.392 140.936C374.786 139.475 373.76 138.226 372.445 137.347C371.129 136.468 369.582 136 368 136H208C205.878 136 203.844 136.844 202.344 138.344L138.344 202.344C136.844 203.844 136 205.878 136 208V352C136 354.122 136.843 356.157 138.343 357.657C139.843 359.157 141.878 360 144 360H304C306.122 360 308.156 359.156 309.656 357.656L373.656 293.656C375.156 292.156 376 290.122 376 288V144H375.928C375.952 142.953 375.769 141.912 375.392 140.936V140.936ZM211.312 152H348.688L300.688 200H163.312L211.312 152ZM296 344H152V216H296V344ZM312 332.688V211.312L360 163.312V284.688L312 332.688Z" fill="#3AB83A"/>
</svg>
