<svg width="512" height="512" viewBox="0 0 512 512" fill="none" xmlns="http://www.w3.org/2000/svg">
<path d="M264 176.752V160H248V176.752C229.8 180.248 216 196.24 216 215.448C216 233.592 228.288 249.32 245.872 253.72L262.24 257.816C272.696 260.424 280 269.784 280 280.56C280 293.488 269.488 304 256.552 304H255.44C242.512 304 232 293.488 232 280.552V264H216V280.552C216 299.752 229.8 315.744 248 319.248V336H264V319.248C282.2 315.752 296 299.76 296 280.552C296 262.408 283.712 246.68 266.128 242.28L249.76 238.184C239.304 235.584 232 226.224 232 215.448C232 202.512 242.512 192 255.448 192H256.56C269.488 192 280 202.512 280 215.448V224H296V215.448C296 196.248 282.2 180.248 264 176.752V176.752Z" fill="#3AB83A"/>
<path d="M472 408V296H424V272H404.088C406.672 260.88 408 249.504 408 238.04C408 157.344 343.92 91.512 264 88.304V64H344V104H472V8H344V48H248V88.328C208.68 89.936 171.464 107.016 144.456 136H88V160H56V72H136V8H8V72H40V176H88V200H109.048C105.728 212.528 104 225.272 104 238.04C104 249.592 105.376 260.968 107.944 272H72V344H8V440H136V344H88V288H112.64C122.936 317.112 142.056 342.8 168 360.96C178.016 367.976 184 379.464 184 391.696V396.448C174.48 402 168 412.208 168 424C168 435.864 174.568 446.128 184.184 451.648C186.08 480.824 210.36 504 240 504H272C301.64 504 325.92 480.824 327.816 451.648C337.432 446.128 344 435.864 344 424C344 412.208 337.52 402 328 396.448V391.696C328 379.472 333.984 367.984 344 360.968C354.08 353.912 363.256 345.488 371.424 336H424V312H456V408H376V504H504V408H472ZM456 88H408V24H456V88ZM360 24H392V88H360V24ZM120 56H72V24H120V56ZM24 24H56V56H24V24ZM24 360H56V424H24V360ZM120 424H72V360H120V424ZM104 152H152V184H104V152ZM272 488H240C220.688 488 204.528 474.232 200.808 456H311.192C307.472 474.232 291.312 488 272 488ZM312 440H200C191.176 440 184 432.824 184 424C184 415.176 191.176 408 200 408H312C320.824 408 328 415.176 328 424C328 432.824 320.824 440 312 440ZM334.832 347.856C320.528 357.864 312 374.256 312 391.696L200 392V391.696C200 374.256 191.472 357.864 177.168 347.856C155.584 332.752 139.296 311.808 129.728 288H200V272H124.424C121.544 261.032 120 249.64 120 238.04C120 225.264 122 212.496 125.736 200H136V232H200V216H152V200H168V136H167.608C190.16 116.872 218.384 105.68 248 104.328V144H264V104.304C335.096 107.496 392 166.168 392 238.04C392 249.528 390.44 260.912 387.528 272H376V240H312V256H360V272H344V336H349.392C344.792 340.312 339.936 344.28 334.832 347.856ZM408 320H360V288H408V320ZM392 424H424V488H392V424ZM488 488H440V424H488V488Z" fill="#3AB83A"/>
</svg>
