<svg width="512" height="512" viewBox="0 0 512 512" fill="none" xmlns="http://www.w3.org/2000/svg">
<path d="M200 224C214.24 224 228.161 219.777 240.001 211.866C251.841 203.954 261.07 192.71 266.519 179.553C271.969 166.397 273.395 151.92 270.617 137.954C267.838 123.987 260.981 111.158 250.912 101.088C240.842 91.019 228.013 84.1616 214.047 81.3835C200.08 78.6054 185.603 80.0312 172.447 85.4807C159.291 90.9302 148.046 100.159 140.134 111.999C132.223 123.839 128 137.76 128 152C128.021 171.089 135.614 189.39 149.112 202.888C162.61 216.386 180.911 223.979 200 224ZM200 96C211.076 96 221.903 99.2844 231.112 105.438C240.321 111.591 247.499 120.337 251.737 130.57C255.976 140.802 257.085 152.062 254.924 162.925C252.763 173.788 247.43 183.766 239.598 191.598C231.766 199.43 221.788 204.763 210.925 206.924C200.062 209.085 188.802 207.976 178.57 203.737C168.337 199.499 159.591 192.321 153.438 183.112C147.284 173.903 144 163.076 144 152C144.017 137.153 149.922 122.919 160.421 112.421C170.919 101.922 185.153 96.017 200 96Z" fill="#3AB83A"/>
<path d="M200 320C185.76 320 171.839 324.223 159.999 332.134C148.159 340.046 138.93 351.291 133.481 364.447C128.031 377.603 126.605 392.08 129.383 406.047C132.162 420.013 139.019 432.842 149.088 442.912C159.158 452.981 171.987 459.838 185.954 462.617C199.92 465.395 214.397 463.969 227.553 458.519C240.71 453.07 251.954 443.841 259.866 432.001C267.777 420.161 272 406.24 272 392C271.979 372.911 264.386 354.61 250.888 341.112C237.39 327.614 219.089 320.021 200 320ZM200 448C188.924 448 178.097 444.716 168.888 438.562C159.679 432.409 152.501 423.663 148.263 413.43C144.024 403.198 142.915 391.938 145.076 381.075C147.237 370.212 152.57 360.234 160.402 352.402C168.234 344.57 178.212 339.237 189.075 337.076C199.938 334.915 211.198 336.024 221.43 340.263C231.663 344.501 240.409 351.679 246.562 360.888C252.716 370.097 256 380.924 256 392C255.983 406.847 250.078 421.081 239.579 431.579C229.081 442.078 214.847 447.983 200 448Z" fill="#3AB83A"/>
<path d="M368 272C367.976 254.299 361.44 237.226 349.637 224.035C337.834 210.843 321.589 202.456 304 200.472V40C304 33.6348 301.471 27.5303 296.971 23.0294C292.47 18.5286 286.365 16 280 16H40C33.6348 16 27.5303 18.5286 23.0294 23.0294C18.5286 27.5303 16 33.6348 16 40V472C16 478.365 18.5286 484.47 23.0294 488.971C27.5303 493.471 33.6348 496 40 496H280C286.365 496 292.47 493.471 296.971 488.971C301.471 484.47 304 478.365 304 472V343.528C321.589 341.544 337.834 333.157 349.637 319.965C361.44 306.774 367.976 289.701 368 272ZM352 272C352 283.076 348.716 293.903 342.562 303.112C336.409 312.321 327.663 319.499 317.43 323.737C307.198 327.976 295.938 329.085 285.075 326.924C274.212 324.763 264.234 319.43 256.402 311.598C248.57 303.766 243.237 293.788 241.076 282.925C238.915 272.062 240.024 260.802 244.263 250.57C248.501 240.337 255.679 231.591 264.888 225.438C274.097 219.284 284.924 216 296 216C310.847 216.017 325.081 221.922 335.579 232.421C346.078 242.919 351.983 257.153 352 272ZM80 32H240V40C240 42.1217 239.157 44.1566 237.657 45.6569C236.157 47.1571 234.122 48 232 48H88C85.8783 48 83.8434 47.1571 82.3431 45.6569C80.8429 44.1566 80 42.1217 80 40V32ZM280 480H40C37.8783 480 35.8434 479.157 34.3431 477.657C32.8429 476.157 32 474.122 32 472V40C32 37.8783 32.8429 35.8434 34.3431 34.3431C35.8434 32.8429 37.8783 32 40 32H64V40C64 46.3652 66.5286 52.4697 71.0294 56.9706C75.5303 61.4714 81.6348 64 88 64H232C238.365 64 244.47 61.4714 248.971 56.9706C253.471 52.4697 256 46.3652 256 40V32H280C282.122 32 284.157 32.8429 285.657 34.3431C287.157 35.8434 288 37.8783 288 40V200.472C270.445 202.492 254.247 210.897 242.488 224.087C230.729 237.276 224.231 254.33 224.231 272C224.231 289.67 230.729 306.724 242.488 319.913C254.247 333.103 270.445 341.508 288 343.528V472C288 474.122 287.157 476.157 285.657 477.657C284.157 479.157 282.122 480 280 480Z" fill="#3AB83A"/>
<path d="M288 224V232C283.757 232 279.687 233.686 276.686 236.686C273.686 239.687 272 243.757 272 248V264C272 268.243 273.686 272.313 276.686 275.314C279.687 278.314 283.757 280 288 280H304V296H272V312H288V320H304V312C308.243 312 312.313 310.314 315.314 307.314C318.314 304.313 320 300.243 320 296V280C320 275.757 318.314 271.687 315.314 268.686C312.313 265.686 308.243 264 304 264H288V248H320V232H304V224H288Z" fill="#3AB83A"/>
<path d="M192 200H208V192C212.243 192 216.313 190.314 219.314 187.314C222.314 184.313 224 180.243 224 176V160C224 155.757 222.314 151.687 219.314 148.686C216.313 145.686 212.243 144 208 144H192V128H224V112H208V104H192V112C187.757 112 183.687 113.686 180.686 116.686C177.686 119.687 176 123.757 176 128V144C176 148.243 177.686 152.313 180.686 155.314C183.687 158.314 187.757 160 192 160H208V176H176V192H192V200Z" fill="#3AB83A"/>
<path d="M208 344H192V352C187.757 352 183.687 353.686 180.686 356.686C177.686 359.687 176 363.757 176 368V384C176 388.243 177.686 392.313 180.686 395.314C183.687 398.314 187.757 400 192 400H208V416H176V432H192V440H208V432C212.243 432 216.313 430.314 219.314 427.314C222.314 424.313 224 420.243 224 416V400C224 395.757 222.314 391.687 219.314 388.686C216.313 385.686 212.243 384 208 384H192V368H224V352H208V344Z" fill="#3AB83A"/>
<path d="M48 144H112V160H48V144Z" fill="#3AB83A"/>
<path d="M64 112H112V128H64V112Z" fill="#3AB83A"/>
<path d="M72 176H112V192H72V176Z" fill="#3AB83A"/>
<path d="M48 384H112V400H48V384Z" fill="#3AB83A"/>
<path d="M64 352H112V368H64V352Z" fill="#3AB83A"/>
<path d="M72 416H112V432H72V416Z" fill="#3AB83A"/>
<path d="M144 264H208V280H144V264Z" fill="#3AB83A"/>
<path d="M160 232H208V248H160V232Z" fill="#3AB83A"/>
<path d="M168 296H208V312H168V296Z" fill="#3AB83A"/>
<path d="M328 136H360V144C360 145.582 360.47 147.128 361.349 148.444C362.228 149.759 363.477 150.784 364.939 151.389C366.4 151.995 368.009 152.153 369.56 151.845C371.112 151.536 372.537 150.774 373.656 149.656L413.656 109.656C415.156 108.156 415.998 106.121 415.998 104C415.998 101.879 415.156 99.8442 413.656 98.344L373.656 58.344C372.537 57.2255 371.112 56.4639 369.56 56.1553C368.009 55.8468 366.4 56.0052 364.939 56.6106C363.477 57.2159 362.228 58.2411 361.349 59.5563C360.47 60.8716 360 62.418 360 64V72H328C325.878 72 323.843 72.8429 322.343 74.3432C320.843 75.8434 320 77.8783 320 80V128C320 130.122 320.843 132.157 322.343 133.657C323.843 135.157 325.878 136 328 136ZM336 88H368C369.63 88.001 371.221 87.5044 372.56 86.5765C373.9 85.6487 374.924 84.3339 375.496 82.808L396.688 104L375.496 125.192C374.924 123.666 373.9 122.351 372.56 121.423C371.221 120.496 369.63 119.999 368 120H336V88Z" fill="#3AB83A"/>
<path d="M493.656 266.344L453.656 226.344C452.537 225.226 451.112 224.464 449.56 224.155C448.009 223.847 446.4 224.005 444.939 224.611C443.477 225.216 442.228 226.241 441.349 227.556C440.47 228.872 440 230.418 440 232V240H408C405.878 240 403.843 240.843 402.343 242.343C400.843 243.843 400 245.878 400 248V296C400 298.122 400.843 300.157 402.343 301.657C403.843 303.157 405.878 304 408 304H440V312C440 313.582 440.47 315.128 441.349 316.444C442.228 317.759 443.477 318.784 444.939 319.389C446.4 319.995 448.009 320.153 449.56 319.845C451.112 319.536 452.537 318.774 453.656 317.656L493.656 277.656C495.156 276.156 495.998 274.121 495.998 272C495.998 269.879 495.156 267.844 493.656 266.344ZM455.496 293.192C454.924 291.666 453.9 290.351 452.56 289.423C451.221 288.496 449.63 287.999 448 288H416V256H448C449.63 256.001 451.221 255.504 452.56 254.577C453.9 253.649 454.924 252.334 455.496 250.808L476.688 272L455.496 293.192Z" fill="#3AB83A"/>
<path d="M373.656 394.344C372.537 393.226 371.112 392.464 369.56 392.155C368.009 391.847 366.4 392.005 364.939 392.611C363.477 393.216 362.228 394.241 361.349 395.556C360.47 396.872 360 398.418 360 400V408H328C325.878 408 323.843 408.843 322.343 410.343C320.843 411.843 320 413.878 320 416V464C320 466.122 320.843 468.157 322.343 469.657C323.843 471.157 325.878 472 328 472H360V480C360 481.582 360.47 483.128 361.349 484.444C362.228 485.759 363.477 486.784 364.939 487.389C366.4 487.995 368.009 488.153 369.56 487.845C371.112 487.536 372.537 486.774 373.656 485.656L413.656 445.656C415.156 444.156 415.998 442.121 415.998 440C415.998 437.879 415.156 435.844 413.656 434.344L373.656 394.344ZM375.496 461.192C374.924 459.666 373.9 458.351 372.56 457.423C371.221 456.496 369.63 455.999 368 456H336V424H368C369.63 424.001 371.221 423.504 372.56 422.577C373.9 421.649 374.924 420.334 375.496 418.808L396.688 440L375.496 461.192Z" fill="#3AB83A"/>
</svg>
