<svg xmlns="http://www.w3.org/2000/svg" width="76" height="77.197" viewBox="0 0 76 77.197"><defs><style>.a{fill:#01d35a;}.b{fill:none;stroke:#01d35a;stroke-width:2px;}.c{fill:#fff;}</style></defs><g transform="translate(-1182 -371)"><g transform="translate(1142.721 389.199)"><path class="a" d="M70.07,216.23H66.146a1.418,1.418,0,0,1-1.417-1.417V194.291a.559.559,0,0,0-1.118,0v20.522a2.538,2.538,0,0,0,2.535,2.535H70.07a.559.559,0,1,0,0-1.118Z" transform="translate(0 -179.286)"/><path class="a" d="M196.313,384.732a.559.559,0,0,0-.559.559v6.281a1.418,1.418,0,0,1-1.417,1.417H177.29a.559.559,0,1,0,0,1.118h17.047a2.538,2.538,0,0,0,2.535-2.535v-6.281A.559.559,0,0,0,196.313,384.732Z" transform="translate(-104.685 -356.045)"/><path class="a" d="M89.652,2.71H83.2a1.22,1.22,0,0,0-1.182-.927h-.564V1.617A1.619,1.619,0,0,0,79.837,0H75.961a1.619,1.619,0,0,0-1.617,1.617v.166H73.78A1.22,1.22,0,0,0,72.6,2.71H66.146a2.538,2.538,0,0,0-2.535,2.535V12.47a.559.559,0,1,0,1.118,0V5.245a1.418,1.418,0,0,1,1.417-1.417h6.415V5.135H68.711a1.928,1.928,0,0,0-1.926,1.926V33.355a1.928,1.928,0,0,0,1.926,1.926H87.088a1.928,1.928,0,0,0,1.926-1.926V7.061a1.928,1.928,0,0,0-1.926-1.926H83.237V3.828h6.415a1.418,1.418,0,0,1,1.417,1.417V26.711a.559.559,0,1,0,1.118,0V5.245A2.538,2.538,0,0,0,89.652,2.71ZM73.68,3a.1.1,0,0,1,.1-.1h.9a.784.784,0,0,0,.783-.783v-.5a.5.5,0,0,1,.5-.5h3.876a.5.5,0,0,1,.5.5v.5a.784.784,0,0,0,.783.783h.9a.1.1,0,0,1,.1.1V6.6a.1.1,0,0,1-.1.1H73.78a.1.1,0,0,1-.1-.1ZM87.088,34.163H68.711a.808.808,0,0,1-.808-.808V17.313h3.158a.772.772,0,0,0,.7-.455l1.262-2.828L74.748,19.2a.761.761,0,0,0,.71.524h.019a.759.759,0,0,0,.714-.489l1.447-3.714.49,1.889a.768.768,0,0,0,1.434.144l1.687-3.468.66,4.819a.768.768,0,0,0,1.42.291l1.588-2.646H87.9v16.8a.809.809,0,0,1-.808.808Zm0-27.909a.808.808,0,0,1,.808.808v8.372H84.719a.768.768,0,0,0-.658.373l-1.178,1.962L82.2,12.791a.768.768,0,0,0-1.451-.233l-1.777,3.653-.524-2.018a.768.768,0,0,0-1.459-.087L75.5,17.926l-1.7-5.1a.768.768,0,0,0-1.43-.072l-1.537,3.444H67.9V7.061a.808.808,0,0,1,.808-.808h3.851V6.6A1.22,1.22,0,0,0,73.78,7.823h8.238A1.22,1.22,0,0,0,83.237,6.6v-.35Z" transform="translate(0)"/><path class="a" d="M171.381,311.817H157.9a.559.559,0,0,0,0,1.118h13.48a.559.559,0,0,0,0-1.118Z" transform="translate(-86.742 -288.566)"/><path class="a" d="M171.381,407.466H157.9a.559.559,0,1,0,0,1.118h13.48a.559.559,0,1,0,0-1.118Z" transform="translate(-86.742 -377.083)"/><path class="a" d="M171.381,359.642H157.9a.559.559,0,0,0,0,1.118h13.48a.559.559,0,1,0,0-1.118Z" transform="translate(-86.742 -332.825)"/></g><g transform="translate(138 53)"><circle class="b" cx="37" cy="37" r="37" transform="translate(1045 319)"/><circle class="c" cx="9" cy="9" r="9" transform="translate(1097 374)"/><path class="a" d="M12.116,0A12.116,12.116,0,1,0,24.232,12.116,12.129,12.129,0,0,0,12.116,0Zm5.825,13.048H13.048v5.126a.932.932,0,1,1-1.864,0V13.048H6.291a.932.932,0,1,1,0-1.864h4.893V6.524a.932.932,0,1,1,1.864,0v4.66h4.893a.932.932,0,1,1,0,1.864Z" transform="translate(1093.969 370.966)"/></g></g></svg>