<svg xmlns="http://www.w3.org/2000/svg" width="30.552" height="32.822" viewBox="0 0 30.552 32.822"><defs><style>.a{fill:#01d35a;}</style></defs><g transform="translate(-17.71 0)"><g transform="translate(17.71 0)"><g transform="translate(29.271 11.903)"><path class="a" d="M474.95,186.962a.641.641,0,1,1,.629-.516A.647.647,0,0,1,474.95,186.962Z" transform="translate(-474.31 -185.681)"/></g><g transform="translate(12.001 7.303)"><path class="a" d="M210.631,124.406a2.743,2.743,0,0,1-1.945-.8l-3.081-3.081a2.343,2.343,0,0,1,3.314-3.314l1.712,1.712,4.309-4.309a2.343,2.343,0,0,1,3.314,3.314l-5.677,5.678A2.743,2.743,0,0,1,210.631,124.406Zm-3.369-6.6a1.061,1.061,0,0,0-.75,1.811l3.081,3.081a1.471,1.471,0,0,0,2.078,0l5.677-5.678a1.061,1.061,0,1,0-1.5-1.5l-4.762,4.762a.641.641,0,0,1-.907,0l-2.165-2.165A1.058,1.058,0,0,0,207.262,117.8Z" transform="translate(-204.92 -113.925)"/></g><path class="a" d="M47.4,14.854a.641.641,0,0,0-.782.459q-.024.091-.049.182a11.316,11.316,0,0,1-7.243,7.625l-.066-.068-1.508-1.5a3.343,3.343,0,0,0-4.714,0l-1,1c-3.535-1.127-4.916-2.5-6.045-6.029l1-1a3.323,3.323,0,0,0,0-4.707l-1.508-1.5a3.448,3.448,0,0,0-.414-.353A11.251,11.251,0,0,1,46.654,9.8.641.641,0,1,0,47.9,9.493,12.553,12.553,0,0,0,43.519,2.7a12.545,12.545,0,0,0-15.333-.173A12.608,12.608,0,0,0,23.9,8.411a3.446,3.446,0,0,0-3.28.9l-1.453,1.45c-1.131,1.128-2.122,2.674-.9,5.589a8.252,8.252,0,0,0,1.081,1.659l.032.038,1.1,1.2.021.022,8.786,8.766.022.021,1.2,1.093.038.032a8.276,8.276,0,0,0,1.662,1.078,6.384,6.384,0,0,0,2.449.559,4.2,4.2,0,0,0,3.021-1.332l2.659,2.659a2.319,2.319,0,0,0,3.28-3.28l-1.492-1.493,1.936-1.936a.641.641,0,0,0-.907-.907l-2.39,2.39a.641.641,0,0,0,0,.907l1.946,1.946a1.037,1.037,0,1,1-1.467,1.467l-2.657-2.657.672-.671a3.436,3.436,0,0,0,.774-3.677,12.532,12.532,0,0,0,7.771-8.392q.028-.1.055-.2a.641.641,0,0,0-.459-.782ZM38.358,27,36.9,28.451c-.884.882-1.871,1.594-4.2.622a6.915,6.915,0,0,1-1.351-.893l-1.174-1.066L21.416,18.37,20.348,17.2a6.889,6.889,0,0,1-.895-1.347c-.973-2.321-.26-3.3.623-4.185l1.453-1.45a2.164,2.164,0,0,1,3.052,0l1.508,1.5a2.041,2.041,0,0,1,0,2.892l-1.278,1.275a.641.641,0,0,0-.161.64,10.837,10.837,0,0,0,2.559,4.81,10.875,10.875,0,0,0,4.82,2.553.641.641,0,0,0,.638-.16l1.278-1.275a2.058,2.058,0,0,1,2.9,0l1.508,1.5a2.146,2.146,0,0,1,0,3.041Z" transform="translate(-17.71 0)"/></g></g></svg>