<svg xmlns="http://www.w3.org/2000/svg" xmlns:xlink="http://www.w3.org/1999/xlink" width="169" height="169" viewBox="0 0 169 169"><defs><style>.a{fill:#fff;stroke:#e6e6e6;stroke-width:2px;}.b{fill:#01d35a;}.c{fill:gray;stroke:#818282;stroke-width:1.5px;}.d{filter:url(#a);}</style><filter id="a" x="0" y="0" width="169" height="169" filterUnits="userSpaceOnUse"><feOffset dy="3" input="SourceAlpha"/><feGaussianBlur stdDeviation="9" result="b"/><feFlood flood-opacity="0.039"/><feComposite operator="in" in2="b"/><feComposite in="SourceGraphic"/></filter></defs><g transform="translate(-952.033 -604.396)"><g transform="translate(980 629)"><g transform="translate(0 0)"><g transform="translate(0 0)"><g transform="translate(0 0)"><g class="d" transform="matrix(1, 0, 0, 1, -27.97, -24.6)"><circle class="a" cx="56.5" cy="56.5" r="56.5" transform="translate(28 25)"/></g></g></g></g><path class="b" d="M18.579,0A18.579,18.579,0,1,0,37.157,18.579,18.6,18.6,0,0,0,18.579,0Zm8.932,20.008h-7.5v7.86a1.429,1.429,0,1,1-2.858,0v-7.86h-7.5a1.429,1.429,0,1,1,0-2.858h7.5V10a1.429,1.429,0,1,1,2.858,0V17.15h7.5a1.429,1.429,0,1,1,0,2.858Z" transform="translate(74.943 79.629)"/></g><g transform="translate(1013.484 658.82)"><path class="c" d="M31.139.28,31.023.261c-.037,0-.078,0-.117,0a1.121,1.121,0,0,0-.252.027A.555.555,0,0,0,30.6.291l-.847.142L16.056,2.753.052.045V45.633l.937.178s14.905,2.823,14.939,2.828.062,0,.092,0a.105.105,0,0,0,.025,0h.046a.047.047,0,0,0,.016,0l.046,0a.563.563,0,0,0,.088-.007c1.777-.162,11.338-2.1,14.676-2.782l16.717,3.022V2.967ZM14.9,46.1c-2.983-.566-10-1.9-12.541-2.378V2.778L14.9,4.9Zm14.849-2.364c-4.225.861-10.043,2.013-12.541,2.439l-.037.007a1.1,1.1,0,0,0,.037-.289V4.9L29.751,2.776ZM45.328,46.11l-13.267-2.4V2.768L45.328,4.929Z" transform="translate(-0.052 -0.045)"/></g></g></svg>