<svg xmlns="http://www.w3.org/2000/svg" width="125.51" height="121.065" viewBox="0 0 125.51 121.065"><defs><style>.a{fill:#9fc3d3;}.b{fill:#fff;}.c{fill:#cde3e8;}.d{fill:#bc0202;}.e{fill:#34b4b7;}.f{fill:#ff7c24;}.g{fill:#205f89;}.h{fill:#0a3960;}.i{fill:#f74d11;}</style></defs><g transform="translate(-43.35 -175.338)"><g transform="translate(79.01 175.338)"><rect class="a" width="74.867" height="55.579" rx="1.755" transform="translate(6.149 6.346)"/><path class="b" d="M.689,0H4.367a.689.689,0,0,1,.689.689V1.753a.689.689,0,0,1-.689.689H.688A.688.688,0,0,1,0,1.755V.689A.689.689,0,0,1,.689,0Z" transform="translate(34.688 66.446)"/><path class="b" d="M.689,0H4.363a.69.69,0,0,1,.69.69V1.755a.688.688,0,0,1-.687.688H.689A.689.689,0,0,1,0,1.753V.689A.689.689,0,0,1,.689,0Z" transform="translate(42.977 66.446)"/><path class="b" d="M.689,0H4.365a.69.69,0,0,1,.69.69V1.755a.688.688,0,0,1-.687.688H.688A.688.688,0,0,1,0,1.754V.689A.689.689,0,0,1,.689,0Z" transform="translate(50.993 66.446)"/><path class="b" d="M.689,0H4.365a.689.689,0,0,1,.689.689V1.755a.688.688,0,0,1-.687.688H.69A.69.69,0,0,1,0,1.752V.689A.689.689,0,0,1,.689,0Z" transform="translate(59.091 66.446)"/><path class="b" d="M.691,0H5.344a.689.689,0,0,1,.689.689V1.754a.691.691,0,0,1-.691.691H.69A.69.69,0,0,1,0,1.756V.691A.691.691,0,0,1,.691,0Z" transform="translate(25.45 66.403)"/><path class="c" d="M86.439,230.708a1.774,1.774,0,0,1-1.774,1.777H80.232a1.774,1.774,0,0,1-1.771-1.777h0a1.773,1.773,0,0,1,1.771-1.773h4.433a1.773,1.773,0,0,1,1.774,1.773Z" transform="translate(-64.333 -152.934)"/><path class="c" d="M124.893,230.708a1.774,1.774,0,0,1-1.77,1.777h-4.436a1.775,1.775,0,0,1-1.773-1.777h0a1.774,1.774,0,0,1,1.773-1.773h4.436a1.773,1.773,0,0,1,1.77,1.773Z" transform="translate(-48.259 -152.934)"/><path class="c" d="M72.285,225.714v3.351a2.328,2.328,0,0,0,2.328,2.327h74.257a2.328,2.328,0,0,0,2.328-2.327v-3c-7.126,2.646-21.917,4.465-39.014,4.465C94.339,230.53,79.011,228.55,72.285,225.714Z" transform="translate(-66.915 -154.28)"/><path class="c" d="M137.75,184.424H80.489a2.2,2.2,0,0,0-2.219,2.187v40.64a2.2,2.2,0,0,0,2.219,2.187H137.75a2.207,2.207,0,0,0,2.223-2.187v-40.64A2.207,2.207,0,0,0,137.75,184.424Z" transform="translate(-64.413 -171.54)"/><path class="b" d="M155.689,177.987c-3.976-1.509-20.435-2.649-42.192-2.649-22.634,0-40.008,1.234-42.933,2.832a3.342,3.342,0,0,0-2.066,3.087l1,59.833a3.658,3.658,0,0,0,1.655,3.032c3.814,3.688,21.484,6.39,42.567,6.39,20.948,0,38.445-2.67,42.413-6.32a4.051,4.051,0,0,0,1.882-3.1l.333-59.833A3.337,3.337,0,0,0,155.689,177.987ZM136.882,243.53a1.329,1.329,0,0,1-1.058,1.3c-2.065.885-9.882,1.553-21.337,1.553-12.167,0-22.172-.753-23.35-1.72a1.323,1.323,0,0,1-.645-1.133v-2a1.333,1.333,0,0,1,1.332-1.332h43.729a1.331,1.331,0,0,1,1.33,1.332Zm-56.2-6.65a2.537,2.537,0,0,1-2.537-2.537V187.215a2.538,2.538,0,0,1,2.537-2.54h65.494a2.538,2.538,0,0,1,2.538,2.54v47.128a2.537,2.537,0,0,1-2.538,2.537Zm70.878,7a4.041,4.041,0,1,1,4.04-4.044A4.041,4.041,0,0,1,151.555,243.876Z" transform="translate(-68.498 -175.338)"/><path class="b" d="M127.895,218.776a2.9,2.9,0,1,0,2.9,2.9A2.9,2.9,0,0,0,127.895,218.776Zm0,4.783a1.882,1.882,0,1,1,1.879-1.885A1.881,1.881,0,0,1,127.895,223.559Z" transform="translate(-44.883 -157.18)"/><g transform="translate(17.179 18.599)"><path class="d" d="M129.771,193.766c.333-.006.566-.261.573-.749-.014-.476-.231-.693-.617-.7a.683.683,0,0,0-.6.377.312.312,0,0,0-.034.149C129.111,193.42,129.346,193.766,129.771,193.766Zm-3.115-3.427h.63V194.4h-.8v-3.181l-.61.328-.048-.191-.129-.506Zm-46.043.045h.55v1.571h6.645l.659-.486.977.79.672-.071.33-3.707.135,0,.373-.021L91.627,192l1.159-.888.869,1.151h4.5l1.561-1.112,1.214,1.007h2.863l1.571-.893,1.191,1.1h.44l.437-3.337.14.006.38.013.217,3.212h.635l1.173-1.2.783,1.2h4.492l.732-.454,1.09.506h.811l.328-3.633.138,0,.383-.011.478,3.549,1.088-.4,1.709.969-.077.136-.2.347-1.486-.847-1.5.543-.221-1.655-.142,1.554h-1.438l-.932-.431-.613.377h-4.947l-.57-.875-.854.875h-1.385l-.011-.143-.043-.652-.116.9h-1.139l-1.058-.977-1.347.77h-3.21l-1.037-.866-1.36.969H93.384l-.7-.929-1.428,1.1-.444-2.334-.18,2.038-1.353.14-.821-.668-.464.347H81.163c0,.742-.016,1.582-.016,1.582h-.535Zm48.352.525a2.212,2.212,0,0,1,1.286-.6,2.81,2.81,0,0,1,.393-.028h.155v.737l-.167-.013a.316.316,0,0,0-.047,0,1.785,1.785,0,0,0-.3.03,1.334,1.334,0,0,0-1.037.736,1.355,1.355,0,0,1,.634-.153,1.286,1.286,0,0,1,1.285,1.368,1.419,1.419,0,0,1-1.409,1.483,1.557,1.557,0,0,1-1.478-1.754A2.5,2.5,0,0,1,128.965,190.909Zm4.236,3.559c-.855,0-1.4-.815-1.405-2.083,0-1.3.591-2.107,1.465-2.109.909,0,1.4.834,1.4,2.058C134.656,193.633,134.14,194.465,133.2,194.468Zm.03-3.49c-.282,0-.608.4-.608,1.412,0,.964.3,1.375.608,1.375.347,0,.6-.457.6-1.411C133.834,191.432,133.6,190.979,133.23,190.978Z" transform="translate(-80.613 -188.454)"/><path class="e" d="M129.976,205.118a.658.658,0,0,0-.522.628v.02a.542.542,0,0,0,.6.527c.39-.011.587-.217.594-.518C130.641,205.431,130.439,205.265,129.976,205.118Zm-8.047-.187-.2.343-1.486-.847-1.5.54-.22-1.646-.139,1.547H116.95l-.932-.43-.614.38h-4.947l-.57-.878-.852.878h-1.385l-.011-.147-.041-.648-.118.9h-1.14l-1.056-.98-1.349.771h-3.209l-1.037-.866-1.361.97H93.382l-.7-.933-1.428,1.095-.444-2.338-.183,2.046-1.351.14-.82-.668-.465.345H81.165v1.418a1.449,1.449,0,0,0-.006.163h-.546v-3.707h.55v.157c0,.048,0,.7,0,1.414h6.643l.661-.491.977.793.672-.062.328-3.712.136,0,.373-.023L91.627,204l1.16-.885.869,1.15h4.5l1.561-1.11,1.212,1.008h2.864l1.571-.9,1.193,1.106h.435l.438-3.338.142.007.38.011.217,3.212h.634l1.174-1.205.783,1.205h4.491l.733-.454,1.09.508h.811l.328-3.634.138,0,.381-.008.479,3.549,1.089-.4,1.709.974Zm5.571,1.459a2.052,2.052,0,0,1-1.177.546,2.607,2.607,0,0,1-.408.03.685.685,0,0,0-.078,0l-.159,0v-.743l.165.016h.084c.075,0,.173-.009.294-.018a1.235,1.235,0,0,0,.7-.323,1.366,1.366,0,0,0,.33-.475,1.35,1.35,0,0,1-.635.149,1.254,1.254,0,0,1-1.259-1.306,1.445,1.445,0,0,1,1.436-1.488c.868,0,1.4.729,1.4,1.743A2.531,2.531,0,0,1,127.5,206.39Zm2.538.583a1.268,1.268,0,0,1-1.412-1.167,1.176,1.176,0,0,1,.587-1.027,1.025,1.025,0,0,1-.451-.845,1.214,1.214,0,0,1,1.319-1.154,1.139,1.139,0,0,1,1.255,1.081,1.056,1.056,0,0,1-.465.875,1.139,1.139,0,0,1,.6.99A1.315,1.315,0,0,1,130.038,206.972Zm-3.291-3.5c-.32,0-.571.279-.577.764.011.406.217.634.57.642a.685.685,0,0,0,.6-.313.2.2,0,0,0,.026-.118C127.356,203.832,127.162,203.477,126.747,203.477Zm2.809.432c0,.257.174.4.556.519a.565.565,0,0,0,.424-.518.428.428,0,0,0-.482-.458.439.439,0,0,0-.5.447H129.4l.106.01Z" transform="translate(-80.613 -183.439)"/><path class="f" d="M132.885,197.917c-.279,0-.608.4-.608,1.408,0,.967.3,1.375.608,1.375.35,0,.6-.454.607-1.408C133.488,198.371,133.257,197.917,132.885,197.917Zm-7.012.5-.047-.19-.129-.506.957-.513h.631v4.061h-.8v-3.179Zm-44.7,1.666-.557-.014V196.36h.55v.156c0,.043,0,.686,0,1.415h6.639l.662-.492.978.794.671-.069.328-3.712.138,0,.374-.017.669,3.546,1.159-.886.871,1.153h4.5l1.563-1.117,1.215,1.011h2.86l1.573-.9,1.193,1.106h.437l.438-3.331h.138l.381.01.218,3.217h.634l1.174-1.207.783,1.207h4.492l.733-.454,1.093.506h.807l.328-3.636.138,0,.381-.013.479,3.548,1.089-.393,1.707.973-.077.135-.2.346-1.485-.849-1.5.543-.22-1.649-.139,1.55h-1.441l-.93-.432-.614.38h-4.949l-.57-.875-.852.875h-1.385l-.011-.145L107.6,198l-.118.9h-1.139l-1.058-.977-1.347.77h-3.21l-1.038-.866-1.358.969H93.379l-.7-.927-1.428,1.092-.44-2.338-.184,2.046-1.351.138-.822-.665-.462.343H81.167C81.17,199.308,81.17,200.082,81.17,200.082ZM121.4,216.74l-.289-.016-.017,0a2.982,2.982,0,0,0-2.253,1.1,3.607,3.607,0,0,1-5.483,0,2.993,2.993,0,0,0-2.256-1.1l-.016,0h-.037l-.017,0a2.987,2.987,0,0,0-2.253,1.1,3.6,3.6,0,0,1-5.482,0,2.991,2.991,0,0,0-2.253-1.1l-.017,0h-.037l-.017,0a2.99,2.99,0,0,0-2.255,1.1,3.607,3.607,0,0,1-5.483,0,2.983,2.983,0,0,0-2.252-1.1l-.017,0H90.93l-.02,0a2.983,2.983,0,0,0-2.252,1.1,3.607,3.607,0,0,1-5.483,0,2.981,2.981,0,0,0-2.252-1.1l-.306.064v-.757l.272.006a3.678,3.678,0,0,1,2.741,1.261,3,3,0,0,0,2.256,1.1H85.9a.027.027,0,0,1,.021,0h.031a3,3,0,0,0,2.255-1.1,3.618,3.618,0,0,1,5.486,0,3.015,3.015,0,0,0,2.257,1.1h.008a.031.031,0,0,1,.023,0h.031a3,3,0,0,0,2.255-1.1,3.616,3.616,0,0,1,5.485,0,3.008,3.008,0,0,0,2.259,1.1.111.111,0,0,1,.031,0h.033a2.988,2.988,0,0,0,2.252-1.1,3.621,3.621,0,0,1,5.489,0,3,3,0,0,0,2.255,1.1h.011a.024.024,0,0,1,.02,0h.031a3,3,0,0,0,2.257-1.1,3.7,3.7,0,0,1,2.741-1.258l.274,0Zm6.945-16,.047-.048.4-.389c.964-.913,1.361-1.383,1.351-1.852-.021-.34-.1-.562-.583-.579a1.109,1.109,0,0,0-.7.284l-.157.129-.082-.186-.211-.467.091-.072a1.8,1.8,0,0,1,1.156-.42,1.225,1.225,0,0,1,1.3,1.246c0,.778-.55,1.364-1.343,2.127l-.024.023h1.461v.729h-2.707Zm4.511.662c-.855,0-1.4-.81-1.4-2.082,0-1.3.59-2.109,1.466-2.109.9,0,1.391.837,1.392,2.056C134.312,200.57,133.8,201.4,132.857,201.4Z" transform="translate(-80.613 -185.956)"/></g></g><g transform="translate(43.35 198.133)"><path class="g" d="M58.771,192.7a8.916,8.916,0,1,1-9.392,8.415A8.917,8.917,0,0,1,58.771,192.7Z" transform="translate(-40.836 -190.883)"/><rect class="h" width="8.996" height="4.14" transform="translate(0 8.167)"/><g transform="translate(6.81)"><path class="c" d="M69.355,202.608A10.609,10.609,0,1,0,58.18,212.616,10.61,10.61,0,0,0,69.355,202.608Zm-18.631-.885a8.154,8.154,0,1,1,7.7,8.587A8.157,8.157,0,0,1,50.724,201.723Z" transform="translate(-48.152 -191.413)"/><g transform="translate(4.594 4.53)"><path class="b" d="M64.077,201.3a6.347,6.347,0,1,0-6.686,5.987A6.344,6.344,0,0,0,64.077,201.3ZM53.5,200.718a4.245,4.245,0,1,1,4.006,4.474A4.246,4.246,0,0,1,53.5,200.718Z" transform="translate(-51.392 -194.608)"/><path class="c" d="M56.726,203.7a3.57,3.57,0,1,1,3.763-3.369A3.568,3.568,0,0,1,56.726,203.7Z" transform="translate(-50.573 -193.79)"/></g></g></g><g transform="translate(44.067 254.985)"><path class="h" d="M72.14,246.1l-22.753-.116-5.531-3.6H72.14Z" transform="translate(-43.856 -226.959)"/><g transform="translate(27.203)"><path class="h" d="M88.084,236.278c.947-.278.835-1.778.386-3.052-.363-1.018-1.523-.559-2.48-.384A102.769,102.769,0,0,0,72.9,236.278c-3.694,1.425-9.831,4.878-9.862,13.292-.024,5.79,2.049,9.084,8.325,12.262a92.06,92.06,0,0,0,14.194,5.734c.621.088,1.056-.14,1.289-.991s.462-1.641-.017-1.93-12.789-4.475-15.826-6.557c-2.983-2.048-5.119-4.085-4.823-8.478.286-4.264,1.831-8.8,11.789-11.093C86.237,236.61,88.084,236.278,88.084,236.278Z" transform="translate(-63.04 -231.054)"/><g transform="translate(26.662)"><path class="b" d="M82.116,235.275c4.922-1.109,13.088-2.748,20.153-2.361.45.027.888.061,1.313.1,8.209.79,10.825,4.525,11.188,6.924a15.939,15.939,0,0,1,.1,3.225c-.106,1.931-.432,3.89-.637,5.3l1.168.2h0c.2-1.385.533-3.395.645-5.432a17.287,17.287,0,0,0-.116-3.538c-.51-3.243-3.775-7.213-12.236-8.009-.441-.043-.895-.078-1.354-.1-7.358-.4-14.752.923-20.5,2.238Z" transform="translate(-81.842 -231.506)"/><path class="h" d="M104.531,242.422c.1-.2.479-.271,1.136-.217s1.495.163,1.609.5a7.675,7.675,0,0,1,.437,2.879c-.125,1.042-.628,2.137-2.065,2.168a2.02,2.02,0,0,1-2.25-2.379A4.934,4.934,0,0,1,104.531,242.422Z" transform="translate(-72.833 -227.041)"/></g><g transform="translate(24.654 22.986)"><path class="b" d="M101.822,265.2c8.488.34,12.235-3.166,13.155-6.31a17.53,17.53,0,0,0,.57-3.491c.149-2.035.072-4.077.054-5.472l-1.184.04c.021,1.425.092,3.41-.045,5.339a15.934,15.934,0,0,1-.518,3.186c-.666,2.328-3.741,5.678-11.974,5.373-.43-.018-.865-.043-1.316-.081-7.128-.557-14.979-3.386-19.685-5.16-.071.3-.377,1.306-.454,1.629,4.824,1.733,12.795,4.292,20.041,4.869C100.929,265.161,101.38,265.183,101.822,265.2Z" transform="translate(-80.426 -246.792)"/><path class="h" d="M104.095,252.974c.082.2.458.3,1.117.291s1.5-.057,1.639-.389a7.678,7.678,0,0,0,.631-2.843,2.122,2.122,0,0,0-1.914-2.3,2.021,2.021,0,0,0-2.406,2.222A4.949,4.949,0,0,0,104.095,252.974Z" transform="translate(-70.923 -247.716)"/></g></g></g><g transform="translate(62.331 222.273)"><path class="b" d="M62.129,236.6l1.356-7.6,23.893-12.489,12.489,2.714,16.291,10.319-4.615,9.228-24.98,13.3Z" transform="translate(-54.481 -205.061)"/><path class="i" d="M115.421,210.412c-10.377-5.787-21.558,2.735-25.117,5.235-3.555-2.5-14.956-10.54-25.114-5.235C55.836,215.3,51.277,234.005,67.5,248.98c13.077,12.067,22.189,16.785,22.761,17.07a.1.1,0,0,0,.115-.008c.574-.282,9.546-5.111,22.729-17.062C130,233.666,124.807,215.648,115.421,210.412Zm-2.3,28.064h-9.845a.819.819,0,0,1-.8-.608l-1.212-4.35-2.121,6.875a.836.836,0,0,1-.773.581h-.018a.821.821,0,0,1-.77-.525l-.78-1.972H94.1l-2.158,10.574a.829.829,0,0,1-.825.657h-.03l.016-.377-.023.377a.83.83,0,0,1-.777-.761l-1.323-16.788-.638,5.176a.829.829,0,0,1-.822.726H84.477l-.776,1.974a.832.832,0,0,1-1.546,0l-.776-1.974H79.646a.826.826,0,0,1-.766-.515l-.866-2.12-.81,2.357a.834.834,0,0,1-.783.557H68.546a.829.829,0,0,1,0-1.658H75.83l1.339-3.878a.829.829,0,0,1,.749-.56h.031a.828.828,0,0,1,.769.516l1.488,3.647h1.741a.653.653,0,0,1,.666.471l.339,1.156.339-1.1c.123-.315.281-.526.623-.526h2.876L88.34,223.82a.829.829,0,0,1,.822-.732h.021c.011,0,.02,0,.034,0a.824.824,0,0,1,.77.76L91.5,242.963l1.12-5.482a.832.832,0,0,1,.811-.664h3.938a.706.706,0,0,1,.678.509l.224.817,2.242-7.809a.831.831,0,0,1,.778-.587.291.291,0,0,1,.037,0h.028a.826.826,0,0,1,.749.605l1.8,6.463,9.219,0a.828.828,0,0,1,0,1.656Z" transform="translate(-56.735 -208.437)"/><g transform="translate(33.541)"><path class="f" d="M80.49,266.045c.574-.284,9.546-5.115,22.729-17.066,16.891-15.31,11.7-33.332,2.314-38.567-10.377-5.787-21.558,2.735-25.117,5.235a.163.163,0,0,1-.027-.02v11.894l1.219,15.441,1.12-5.479a.828.828,0,0,1,.811-.664h3.938a.7.7,0,0,1,.678.508l.224.818,2.242-7.81a.831.831,0,0,1,.778-.587.285.285,0,0,1,.037,0h.028a.826.826,0,0,1,.749.605l1.8,6.465h9.219a.829.829,0,0,1,0,1.658H93.385a.822.822,0,0,1-.8-.608l-1.212-4.35-2.121,6.875a.84.84,0,0,1-.773.581h-.018a.824.824,0,0,1-.77-.528l-.78-1.97h-2.7l-2.158,10.571a.829.829,0,0,1-.825.659H81.2l.016-.38-.023.38a.833.833,0,0,1-.777-.761l-.028-.364v17.469A.106.106,0,0,0,80.49,266.045Z" transform="translate(-80.389 -208.437)"/></g></g></g></svg>