<svg xmlns="http://www.w3.org/2000/svg" width="26" height="29.582" viewBox="0 0 26 29.582"><defs><style>.a{fill:#bbb;}</style></defs><g transform="translate(-31)"><g transform="translate(36.2)"><path class="a" d="M128.8,0a7.8,7.8,0,1,0,7.8,7.8A7.809,7.809,0,0,0,128.8,0Zm0,13.867A6.067,6.067,0,1,1,134.867,7.8,6.074,6.074,0,0,1,128.8,13.867Z" transform="translate(-121)"/></g><g transform="translate(31 17.391)"><path class="a" d="M46.417,301H41.583A12.528,12.528,0,0,0,31,306.8v6.387H57V306.8A12.531,12.531,0,0,0,46.417,301Zm8.85,10.458H32.733v-4.123a10.788,10.788,0,0,1,8.85-4.6h4.834a10.788,10.788,0,0,1,8.85,4.6v4.123Z" transform="translate(-31 -301)"/></g></g></svg>