<svg xmlns="http://www.w3.org/2000/svg" width="32" height="32" viewBox="0 0 32 32"><defs><style>.a{fill:#01d35a;}</style></defs><path class="a" d="M29.913,12.522h-2.6a11.773,11.773,0,0,0-.851-2.058l1.84-1.84a2.09,2.09,0,0,0,0-2.953L26.328,3.7a2.139,2.139,0,0,0-2.952,0l-1.84,1.84a11.8,11.8,0,0,0-2.058-.851v-2.6A2.09,2.09,0,0,0,17.391,0H14.609a2.09,2.09,0,0,0-2.087,2.087v2.6a11.827,11.827,0,0,0-2.058.851L8.623,3.7a2.09,2.09,0,0,0-2.952,0L3.7,5.672a2.091,2.091,0,0,0,0,2.952l1.84,1.841a11.8,11.8,0,0,0-.851,2.058h-2.6A2.09,2.09,0,0,0,0,14.609v2.783a2.089,2.089,0,0,0,2.087,2.086h2.6a11.827,11.827,0,0,0,.851,2.058L3.7,23.377a2.09,2.09,0,0,0,0,2.952L5.672,28.3a2.091,2.091,0,0,0,2.952,0l1.841-1.84a11.8,11.8,0,0,0,2.058.851v2.6A2.09,2.09,0,0,0,14.609,32h2.783a2.09,2.09,0,0,0,2.087-2.087v-2.6a11.8,11.8,0,0,0,2.058-.851l1.84,1.841a2.14,2.14,0,0,0,2.952,0L28.3,26.329a2.089,2.089,0,0,0,0-2.952l-1.84-1.841a11.8,11.8,0,0,0,.851-2.058h2.6A2.09,2.09,0,0,0,32,17.391V14.609A2.09,2.09,0,0,0,29.913,12.522Zm.7,4.87a.7.7,0,0,1-.7.7h-3.13a.7.7,0,0,0-.673.522A10.457,10.457,0,0,1,24.993,21.3a.7.7,0,0,0,.107.845l2.212,2.213a.7.7,0,0,1,0,.985l-1.969,1.969a.716.716,0,0,1-.985,0L22.147,25.1a.7.7,0,0,0-.846-.107,10.42,10.42,0,0,1-2.693,1.115.7.7,0,0,0-.521.673v3.13a.7.7,0,0,1-.7.7H14.609a.7.7,0,0,1-.7-.7v-3.13a.7.7,0,0,0-.522-.673A10.43,10.43,0,0,1,10.7,24.994a.688.688,0,0,0-.353-.1.7.7,0,0,0-.493.2L7.64,27.313a.7.7,0,0,1-.985,0L4.686,25.345a.7.7,0,0,1,0-.985L6.9,22.147a.7.7,0,0,0,.107-.845A10.445,10.445,0,0,1,5.89,18.609a.694.694,0,0,0-.673-.522H2.087a.7.7,0,0,1-.7-.7V14.609a.7.7,0,0,1,.7-.7h3.13a.7.7,0,0,0,.673-.522A10.43,10.43,0,0,1,7.006,10.7.7.7,0,0,0,6.9,9.853L4.687,7.64a.7.7,0,0,1,0-.985L6.655,4.687a.7.7,0,0,1,.985,0L9.853,6.9a.694.694,0,0,0,.845.107,10.445,10.445,0,0,1,2.694-1.115.7.7,0,0,0,.522-.673V2.087a.7.7,0,0,1,.7-.7h2.783a.7.7,0,0,1,.7.7v3.13a.7.7,0,0,0,.522.673A10.42,10.42,0,0,1,21.3,7.006a.7.7,0,0,0,.846-.107L24.36,4.687a.714.714,0,0,1,.985,0l1.969,1.969a.7.7,0,0,1,0,.985L25.1,9.853a.7.7,0,0,0-.107.845,10.446,10.446,0,0,1,1.116,2.694.694.694,0,0,0,.673.522h3.13a.7.7,0,0,1,.7.7Z"/><g transform="translate(9.739 9.739)"><path class="a" d="M118.261,112a6.261,6.261,0,1,0,6.261,6.261A6.269,6.269,0,0,0,118.261,112Zm0,11.13a4.87,4.87,0,1,1,4.87-4.87A4.875,4.875,0,0,1,118.261,123.13Z" transform="translate(-112 -112)"/></g></svg>