<svg xmlns="http://www.w3.org/2000/svg" width="76" height="76"><defs><style>.b{fill:#818181}</style></defs><g transform="translate(.692 1.075)"><circle cx="37" cy="37" r="37" transform="translate(.308 -.075)" fill="none" stroke="#e6e6e6" stroke-width="2"/><path class="b" d="M50.243 37.958v8.324a1.2 1.2 0 0 1-1.2 1.2H25.571a1.2 1.2 0 0 1-1.2-1.2v-8.324h-2.393v8.324a3.6 3.6 0 0 0 3.593 3.593h23.474a3.6 3.6 0 0 0 3.593-3.593v-8.324z"/><path class="b" d="M37.308 19.258L29.866 26.7l1.694 1.694 4.551-4.551V42.51h2.4V23.843l4.551 4.551L44.75 26.7z"/></g></svg>