<svg xmlns="http://www.w3.org/2000/svg" width="67.566" height="56.376" viewBox="0 0 67.566 56.376"><defs><style>.a{fill:#fff;}.b{fill:#c9d9e1;}.c{fill:#be2225;fill-rule:evenodd;}.d{fill:#5ba5da;}.e{fill:#f2f2f2;}.f{fill:#333132;}</style></defs><g transform="translate(-109.846 -170.668)"><rect class="a" width="27.66" height="54.66" transform="translate(129.783 170.668)"/><rect class="b" width="22.709" height="49.577" transform="translate(132.258 173.209)"/><path class="c" d="M213.812,187.033h4.753v3.4h3.367v4.753h-3.367v3.4h-4.753v-3.4h-3.4v-4.753h3.4Z" transform="translate(-72.576 -10.127)"/><rect class="d" width="13.995" height="24.029" transform="translate(136.615 201.299)"/><rect class="b" width="18.517" height="1.518" transform="translate(134.437 222.456)"/><rect class="d" width="18.517" height="1.551" transform="translate(134.437 223.975)"/><rect class="b" width="18.517" height="1.518" transform="translate(134.437 225.526)"/><rect class="b" width="19.936" height="47.035" transform="translate(109.846 178.293)"/><rect class="e" width="19.936" height="6.965" transform="translate(109.846 181.56)"/><rect class="d" width="3.598" height="9.473" transform="translate(112.421 191)"/><rect class="d" width="3.598" height="9.473" transform="translate(118.263 191)"/><rect class="d" width="3.598" height="9.473" transform="translate(124.105 191)"/><rect class="d" width="3.598" height="9.506" transform="translate(112.421 203.906)"/><rect class="d" width="3.598" height="9.506" transform="translate(118.263 203.906)"/><rect class="d" width="3.598" height="9.506" transform="translate(124.105 203.906)"/><rect class="e" width="19.936" height="6.965" transform="translate(109.846 215.789)"/><rect class="b" width="19.936" height="47.035" transform="translate(157.476 178.293)"/><rect class="e" width="19.936" height="6.965" transform="translate(157.476 181.56)"/><rect class="d" width="3.631" height="9.473" transform="translate(171.207 191)"/><rect class="d" width="3.631" height="9.473" transform="translate(165.364 191)"/><rect class="d" width="3.631" height="9.473" transform="translate(159.522 191)"/><rect class="d" width="3.631" height="9.506" transform="translate(171.207 203.906)"/><rect class="d" width="3.631" height="9.506" transform="translate(165.364 203.906)"/><rect class="d" width="3.631" height="9.506" transform="translate(159.522 203.906)"/><rect class="e" width="19.936" height="6.965" transform="translate(157.476 215.789)"/><rect class="f" width="32.446" height="4.786" transform="translate(127.373 197.998)"/></g></svg>