<svg xmlns="http://www.w3.org/2000/svg" xmlns:xlink="http://www.w3.org/1999/xlink" width="280.631" height="190.939" viewBox="0 0 280.631 190.939"><defs><style>.a{fill:none;}.b,.y{fill:#4375f1;}.aa,.c{fill:#e2b187;}.d{fill:#edba8f;}.e{fill:#dc466f;}.am,.f{fill:#838bc0;}.g{fill:#819fde;}.ar,.h{fill:#e7b59d;}.i{fill:#9f71ac;}.ba,.j{fill:#e6b851;}.bg,.k{fill:#a072ae;}.l{fill:#e9f6f7;}.m,.v{fill:#becbfc;}.n{opacity:0.38;}.o{opacity:0.18;}.p{clip-path:url(#a);}.q,.v{opacity:0.8;}.r{fill:#4375fa;}.s{clip-path:url(#b);}.t{clip-path:url(#c);}.u{clip-path:url(#d);}.w{clip-path:url(#e);}.x{fill:#507cc7;opacity:0.4;}.aa,.ac,.ae,.am,.ar,.ay,.ba,.bg,.x,.y{mix-blend-mode:multiply;isolation:isolate;}.y{opacity:0.5;}.z{clip-path:url(#f);}.aa,.ae{opacity:0.31;}.ab{clip-path:url(#g);}.ac{fill:#af703f;opacity:0.28;}.ad{clip-path:url(#h);}.ae{fill:#a172ae;}.af{clip-path:url(#i);}.ag{fill:#43464a;}.ah{fill:#c22373;}.ai{fill:#fff;}.aj{fill:#e79d90;}.ak{fill:#cbcfd6;}.al{clip-path:url(#j);}.am{opacity:0.61;}.an{clip-path:url(#k);}.ao{fill:#cdbdf9;}.ap{fill:#6daaa3;}.aq{clip-path:url(#l);}.ar{opacity:0.45;}.as{fill:#2e5271;}.at{fill:#61002f;}.au{fill:#effdff;}.av{fill:#e19f9d;}.aw{fill:#9a6253;}.ax{clip-path:url(#m);}.ay{fill:#606060;}.ay,.ba{opacity:0.22;}.az{clip-path:url(#n);}.bb{clip-path:url(#o);}.bc{fill:#7cbfb9;}.bd{clip-path:url(#p);}.be{fill:#f9ca45;}.bf{clip-path:url(#q);}.bg{opacity:0.52;}.bh{clip-path:url(#r);}.bi{clip-path:url(#s);}.bj{fill:#e2a29d;}</style><clipPath id="a"><circle class="a" cx="4.775" cy="4.775" r="4.775" transform="translate(0 9.291) rotate(-76.654)"/></clipPath><clipPath id="b"><circle class="a" cx="7.266" cy="7.266" r="7.266"/></clipPath><clipPath id="c"><circle class="a" cx="5.397" cy="5.397" r="5.397" transform="translate(0 10.654) rotate(-80.747)"/></clipPath><clipPath id="d"><circle class="a" cx="3.529" cy="3.529" r="3.529"/></clipPath><clipPath id="e"><path class="b" d="M310.531,233.781c-3.573-8.727-7.638-10.361-7.638-10.361s.127-.171.332-.476a8.921,8.921,0,0,1,3.991,3.539.109.109,0,0,0,.189-.11,9.162,9.162,0,0,0-4.055-3.616c.087-.133.184-.284.288-.452a15.066,15.066,0,0,1,3.63,1.3c.126.062.236-.127.11-.189a15.452,15.452,0,0,0-3.62-1.31c2.212-3.635,6.964-13.65-6.952-14.8a7.985,7.985,0,0,1,3.266-1.966c.131-.047.075-.258-.058-.21a8.335,8.335,0,0,0-3.273,1.928,11.211,11.211,0,0,1,.571-1.794c.052-.131-.159-.187-.21-.058a10.97,10.97,0,0,0-.608,1.967c-.217-.2-.713-.656-1.422-1.22a11.3,11.3,0,0,0-1.27-1.564,10.811,10.811,0,0,0-9.025-2.942.111.111,0,0,0-.1.081,8.872,8.872,0,0,0-5.921,2.14c-2.33,1.947-2.662,4.931-2.067,7.8.036.455.118.9.166,1.19a16.637,16.637,0,0,0,2.432,6.016c-1.423.24-3.99,1.1-3.456,4.154.731,4.182,4.172,9.454.094,10s-6.042,9.887,8.4,18.606,28.169.463,22.473-6.443C306.8,245,314.1,242.508,310.531,233.781Zm-33.308-20.388a15.532,15.532,0,0,0,2.958,5.194,6.029,6.029,0,0,0-.659.057A17.545,17.545,0,0,1,277.224,213.393Zm16.507-8.756c.252.266.5.551.73.851a19.059,19.059,0,0,0-8.621-3.879A10.273,10.273,0,0,1,293.731,204.637Z" transform="translate(-272.961 -201.386)"/></clipPath><clipPath id="f"><path class="c" d="M270.041,266.613l-1.31-2.328s-3.8.376-5.179,1.986S253.417,283.9,253.417,283.9s-3.792,1.8-6.914,3.336a5.167,5.167,0,0,1,2.181,3.1,42.813,42.813,0,0,0,7.619-3.429s8.454-6.472,9.374-10.843S270.041,266.613,270.041,266.613Z" transform="translate(-246.503 -264.285)"/></clipPath><clipPath id="g"><path class="d" d="M300.311,243.156s.69,2.53-2.3,5.521l-1.61,2.991,3.451,3.911,3.451,1.15,7.362-8.513-3.221-2.07-.92-9.433Z" transform="translate(-296.4 -236.714)"/></clipPath><clipPath id="h"><path class="e" d="M290.068,259.255s1.366,3.914,8.268-1.147c0,0,4.3,2.295,5.48,3.014,2.619,1.6,3.175,1.333,3.865,3.864l-6.124,20.269,2.07,8.052-22.094.037,1.961-8.952a7.325,7.325,0,0,0-2.27-5.959c-3.158-3.054,1.078-8.109,4.407-17.311C285.907,260.362,290.068,259.255,290.068,259.255Z" transform="translate(-280.112 -258.108)"/></clipPath><clipPath id="i"><path class="d" d="M300.993,211.823s-6.4,4.8-5.558,12.187c.385,3.375,1.148,4.431,2.5,5.416,1.6,1.164,6.933.439,8.326-2.247L307,225s1.305,1.169,2.621-.572,1.035-4.507-.861-3.2l1.177-3.488-1.153-3.06Z" transform="translate(-295.358 -211.823)"/></clipPath><clipPath id="j"><path class="f" d="M156.919,257.235l.853,24.917a2.87,2.87,0,0,0,2.868,2.772h35.833a2.869,2.869,0,0,0,2.868-2.968l-.853-24.918a2.87,2.87,0,0,0-2.868-2.771H159.786A2.869,2.869,0,0,0,156.919,257.235Z" transform="translate(-156.917 -254.267)"/></clipPath><clipPath id="k"><circle class="g" cx="30.273" cy="30.273" r="30.273" transform="translate(0 60.517) rotate(-88.237)"/></clipPath><clipPath id="l"><path class="h" d="M130.272,152.123l-.3,7.01,6.48,4.3a.423.423,0,0,0,.645-.277l1.068-5.7-6.318-7.7Z" transform="translate(-129.976 -149.753)"/></clipPath><clipPath id="m"><path class="i" d="M291.7,96.471h54.157a1.713,1.713,0,0,1,1.713,1.713v13.663a1.714,1.714,0,0,1-.754,1.419l-8.661,5.852a.576.576,0,0,1-.874-.645l1.732-5.716H291.7a1.713,1.713,0,0,1-1.713-1.713V98.184A1.713,1.713,0,0,1,291.7,96.471Z" transform="translate(-289.987 -96.471)"/></clipPath><clipPath id="n"><path class="j" d="M301.637,139.74H242.715a1.863,1.863,0,0,0-1.864,1.864v14.865a1.864,1.864,0,0,0,.82,1.544l9.423,6.367a.627.627,0,0,0,.951-.7l-1.884-6.219h51.476A1.863,1.863,0,0,0,303.5,155.6V141.6A1.863,1.863,0,0,0,301.637,139.74Z" transform="translate(-240.851 -139.74)"/></clipPath><clipPath id="o"><circle class="a" cx="25.119" cy="25.119" r="25.119" transform="translate(0 35.523) rotate(-45)"/></clipPath><clipPath id="p"><path class="h" d="M371.465,376.16c-1.906,4.373-5.27,7.961-7.85,4.485-1.922-2.591-.418-6.118.473-7.745a33.921,33.921,0,0,1,5.423-1.226h2.558s1.516,0,3.409.121A9.151,9.151,0,0,0,371.465,376.16Z" transform="translate(-362.683 -371.674)"/></clipPath><clipPath id="q"><path class="k" d="M365.831,327.766s-1.794-2.579-6.167-.56-9.868,11.886-3.028,20.633c0,0,1.458-2.131,6.728-2.691S365.831,327.766,365.831,327.766Z" transform="translate(-353.407 -326.434)"/></clipPath><clipPath id="r"><path class="h" d="M375.9,354.186l.274,6.487-6,3.977a.392.392,0,0,1-.6-.257l-.989-5.274,5.847-7.126Z" transform="translate(-368.591 -351.993)"/></clipPath><clipPath id="s"><path class="h" d="M357.392,344.528a30.285,30.285,0,0,1,1.274-5.583c.05-.241.6-2.747,1.64-3.268,1.1-.548,5.664.914,5.664,1.462,0,.436.232,3.524,1.795,4.865a2.479,2.479,0,0,0,1.494.616,3.154,3.154,0,0,1,2.379,1.347,31.5,31.5,0,0,1-3.293.115c-1.422,8.071-6.717,7.171-8.263,6.95C358.513,350.808,357.166,347.692,357.392,344.528Z" transform="translate(-357.367 -335.556)"/></clipPath></defs><g transform="translate(-235.13 -4038.06)"><g transform="translate(-300.744 3629.823)"><path class="l" d="M787.093,490.728A41.006,41.006,0,0,0,728.444,455.5a48.135,48.135,0,0,0-85.414-16.087A48.134,48.134,0,0,0,573.4,482.481v.023a33.655,33.655,0,1,0-3.867,67.087,33.55,33.55,0,0,0,12.837-2.54,33.65,33.65,0,0,0,51.984,12.59,64.393,64.393,0,0,0,87.259,6.866,33.649,33.649,0,0,0,46.378-12.2,33.655,33.655,0,1,0,19.1-63.584Z"/></g><g transform="translate(234.12 4013.032)"><g transform="translate(36.94 25.028)"><g transform="translate(27.753 27.753)"><path class="m" d="M167.6,223.406a67.717,67.717,0,1,1,47.884-19.834A67.274,67.274,0,0,1,167.6,223.406Zm0-135.245a67.528,67.528,0,1,0,47.75,19.779A67.084,67.084,0,0,0,167.6,88.161Z" transform="translate(-99.885 -87.972)"/></g><g transform="translate(19.691 19.691)"><path class="m" d="M157.38,221.245a75.537,75.537,0,1,1,29.5-5.955A75.3,75.3,0,0,1,157.38,221.245Zm0-151.346a75.332,75.332,0,1,0,29.414,5.939A75.1,75.1,0,0,0,157.38,69.9Z" transform="translate(-81.601 -69.688)"/></g><g transform="translate(41.928 41.928)"><path class="m" d="M185.577,227.205A53.376,53.376,0,1,1,206.418,223,53.209,53.209,0,0,1,185.577,227.205Zm0-106.934a53.222,53.222,0,1,0,20.783,4.2A53.059,53.059,0,0,0,185.577,120.272Z" transform="translate(-132.035 -120.122)"/></g><g class="n" transform="translate(10.166 10.165)"><path class="m" d="M145.3,218.692a85.037,85.037,0,1,1,33.2-6.7A84.771,84.771,0,0,1,145.3,218.692Zm0-170.37a84.8,84.8,0,1,0,33.111,6.685A84.537,84.537,0,0,0,145.3,48.322Z" transform="translate(-59.996 -48.083)"/></g><g class="o"><path class="m" d="M132.41,215.967a95.17,95.17,0,1,1,37.162-7.5A94.873,94.873,0,0,1,132.41,215.967Zm0-190.673a94.9,94.9,0,1,0,37.057,7.481A94.608,94.608,0,0,0,132.41,25.295Z" transform="translate(-36.94 -25.028)"/></g><g transform="translate(7.327 7.327)"><path class="m" d="M141.7,217.931A87.871,87.871,0,1,1,176.011,211,87.587,87.587,0,0,1,141.7,217.931Zm0-176.039A87.62,87.62,0,1,0,175.915,48.8,87.348,87.348,0,0,0,141.7,41.892Z" transform="translate(-53.559 -41.646)"/></g><g transform="translate(84.117 22.047)"><g class="p" transform="translate(0 0)"><g class="q" transform="translate(-1.99 -1.99)"><circle class="m" cx="6.451" cy="6.451" r="6.451" transform="matrix(0.225, -0.974, 0.974, 0.225, 0, 12.572)"/></g><g transform="translate(1.939 2.139)"><g transform="translate(3.752 9.998)"><path class="r" d="M240.686,102.563l-.029-.005-.028.005Z" transform="translate(-240.629 -102.558)"/></g><path class="g" d="M239.679,87.952c-.057-1.222-.8-2.018-1.307-1.961a10.208,10.208,0,0,1-1.7-.114,1.4,1.4,0,0,1-.076-.688,2.846,2.846,0,0,0,1.062-2.109.518.518,0,0,0,.317-.378c.076-.251.019-.49-.127-.534a.2.2,0,0,0-.165.03c.008-1.313-.036-2.317-1.749-2.317-1.618,0-1.738.99-1.746,2.29a.2.2,0,0,0-.149-.051c-.151.018-.248.244-.217.5s.179.456.331.438a.168.168,0,0,0,.054-.016,2.932,2.932,0,0,0,1,2.1,1.452,1.452,0,0,1-.071.732,10.211,10.211,0,0,1-1.705.114c-.511-.057-1.25.739-1.307,1.961-.054,1.161,3.431,1.86,3.78,1.927C236.248,89.812,239.733,89.113,239.679,87.952Z" transform="translate(-232.119 -79.881)"/></g></g></g><g transform="translate(45.648 151.104)"><g class="s" transform="translate(0)"><g class="q" transform="translate(-2.552 -2.552)"><circle class="m" cx="9.817" cy="9.817" r="9.817"/></g><g transform="translate(1.469 1.773)"><g transform="translate(5.71 15.215)"><path class="r" d="M156.84,406.278l-.043-.008-.043.008Z" transform="translate(-156.754 -406.27)"/></g><path class="g" d="M155.309,384.044c-.086-1.86-1.211-3.071-1.989-2.984a15.552,15.552,0,0,1-2.6-.173,2.141,2.141,0,0,1-.115-1.047,4.332,4.332,0,0,0,1.616-3.21.787.787,0,0,0,.482-.575c.116-.382.029-.746-.193-.813a.306.306,0,0,0-.252.045c.012-2-.055-3.526-2.66-3.526-2.463,0-2.645,1.507-2.657,3.485a.3.3,0,0,0-.226-.077c-.23.028-.378.372-.33.768s.272.695.5.667a.26.26,0,0,0,.083-.025,4.462,4.462,0,0,0,1.522,3.193,2.211,2.211,0,0,1-.108,1.115,15.552,15.552,0,0,1-2.6.173c-.778-.087-1.9,1.124-1.989,2.984-.082,1.767,5.222,2.831,5.752,2.932C150.088,386.874,155.391,385.811,155.309,384.044Z" transform="translate(-143.804 -371.761)"/></g></g></g><g transform="translate(162.97 71.629)"><g class="t" transform="translate(0 0)"><g class="q" transform="translate(-2.278 -2.278)"><circle class="m" cx="7.293" cy="7.293" r="7.293" transform="matrix(0.178, -0.984, 0.984, 0.178, 0, 14.353)"/></g><g transform="translate(1.889 2.115)"><g transform="translate(4.241 11.303)"><path class="r" d="M420.533,217.924l-.032-.006-.032.006Z" transform="translate(-420.469 -217.918)"/></g><path class="g" d="M419.4,201.407c-.064-1.382-.9-2.281-1.478-2.217a11.546,11.546,0,0,1-1.928-.128,1.592,1.592,0,0,1-.086-.778,3.217,3.217,0,0,0,1.2-2.384.583.583,0,0,0,.358-.427c.086-.284.022-.554-.143-.6a.231.231,0,0,0-.187.034c.009-1.485-.041-2.619-1.976-2.619-1.83,0-1.965,1.119-1.974,2.589a.226.226,0,0,0-.168-.057c-.171.021-.28.276-.245.57s.2.516.373.5a.185.185,0,0,0,.061-.018,3.315,3.315,0,0,0,1.131,2.372,1.643,1.643,0,0,1-.08.828,11.541,11.541,0,0,1-1.928.128c-.578-.064-1.414.835-1.477,2.217-.061,1.312,3.879,2.1,4.273,2.179C415.517,203.51,419.457,202.719,419.4,201.407Z" transform="translate(-410.849 -192.283)"/></g></g></g><g transform="translate(22.605 120.589)"><path class="g" d="M92.776,300.811a2.283,2.283,0,1,1-2.283-2.283A2.283,2.283,0,0,1,92.776,300.811Z" transform="translate(-88.209 -298.528)"/></g><g transform="translate(168.958 98.791)"><path class="g" d="M424.711,251.374a2.283,2.283,0,1,1-2.283-2.283A2.284,2.284,0,0,1,424.711,251.374Z" transform="translate(-420.144 -249.091)"/></g><g transform="translate(115.011 21.386)"><path class="g" d="M300.33,75.849a1.426,1.426,0,1,1-.224-2A1.425,1.425,0,0,1,300.33,75.849Z" transform="translate(-297.791 -73.534)"/></g><g transform="translate(107.33 160.266)"><path class="g" d="M283.2,389.7a1.426,1.426,0,1,1-1.646-1.164A1.425,1.425,0,0,1,283.2,389.7Z" transform="translate(-280.37 -388.518)"/></g><g transform="translate(82.004 181.233)"><path class="g" d="M225.759,437.256a1.426,1.426,0,1,1-1.646-1.164A1.426,1.426,0,0,1,225.759,437.256Z" transform="translate(-222.929 -436.072)"/></g><g transform="translate(180.611 110.444)"><path class="g" d="M449.4,276.7a1.426,1.426,0,1,1-1.646-1.164A1.426,1.426,0,0,1,449.4,276.7Z" transform="translate(-446.573 -275.519)"/></g><g transform="translate(36.749 26.368)"><path class="g" d="M123.118,86.018a1.426,1.426,0,1,1-1.646-1.164A1.426,1.426,0,0,1,123.118,86.018Z" transform="translate(-120.288 -84.833)"/></g></g><g transform="translate(41.277 103.89)"><g class="u"><g class="q" transform="translate(-1.239 -1.239)"><circle class="m" cx="4.768" cy="4.768" r="4.768"/></g><g transform="translate(0.714 0.861)"><g transform="translate(2.773 7.391)"><path class="r" d="M54.727,222.61l-.021,0-.021,0Z" transform="translate(-54.685 -222.606)"/></g><path class="g" d="M53.983,211.81c-.042-.9-.588-1.492-.966-1.449a7.561,7.561,0,0,1-1.261-.084,1.035,1.035,0,0,1-.056-.509,2.1,2.1,0,0,0,.785-1.559.382.382,0,0,0,.234-.28c.056-.186.015-.362-.093-.4a.15.15,0,0,0-.122.022c.006-.97-.027-1.712-1.292-1.712-1.2,0-1.285.732-1.291,1.693a.145.145,0,0,0-.11-.037c-.112.013-.184.18-.16.373s.133.337.244.324a.118.118,0,0,0,.04-.012,2.166,2.166,0,0,0,.739,1.551,1.074,1.074,0,0,1-.052.541,7.558,7.558,0,0,1-1.26.084c-.378-.042-.925.546-.966,1.449-.04.858,2.536,1.375,2.794,1.425C51.447,213.185,54.023,212.668,53.983,211.81Z" transform="translate(-48.395 -205.844)"/></g></g></g><path class="v" d="M239.077,167.512a61.712,61.712,0,1,0-109.39,39.182h95.356A61.457,61.457,0,0,0,239.077,167.512Z" transform="translate(-44.008 -45.159)"/><g transform="translate(82.029 102.786)"><g transform="translate(58.975)"><path class="b" d="M310.531,233.781c-3.573-8.727-7.638-10.361-7.638-10.361s.127-.171.332-.476a8.921,8.921,0,0,1,3.991,3.539.109.109,0,0,0,.189-.11,9.162,9.162,0,0,0-4.055-3.616c.087-.133.184-.284.288-.452a15.066,15.066,0,0,1,3.63,1.3c.126.062.236-.127.11-.189a15.452,15.452,0,0,0-3.62-1.31c2.212-3.635,6.964-13.65-6.952-14.8a7.985,7.985,0,0,1,3.266-1.966c.131-.047.075-.258-.058-.21a8.335,8.335,0,0,0-3.273,1.928,11.211,11.211,0,0,1,.571-1.794c.052-.131-.159-.187-.21-.058a10.97,10.97,0,0,0-.608,1.967c-.217-.2-.713-.656-1.422-1.22a11.3,11.3,0,0,0-1.27-1.564,10.811,10.811,0,0,0-9.025-2.942.111.111,0,0,0-.1.081,8.872,8.872,0,0,0-5.921,2.14c-2.33,1.947-2.662,4.931-2.067,7.8.036.455.118.9.166,1.19a16.637,16.637,0,0,0,2.432,6.016c-1.423.24-3.99,1.1-3.456,4.154.731,4.182,4.172,9.454.094,10s-6.042,9.887,8.4,18.606,28.169.463,22.473-6.443C306.8,245,314.1,242.508,310.531,233.781Zm-33.308-20.388a15.532,15.532,0,0,0,2.958,5.194,6.029,6.029,0,0,0-.659.057A17.545,17.545,0,0,1,277.224,213.393Zm16.507-8.756c.252.266.5.551.73.851a19.059,19.059,0,0,0-8.621-3.879A10.273,10.273,0,0,1,293.731,204.637Z" transform="translate(-272.961 -201.386)"/><g class="w"><path class="x" d="M295.536,225.736s-1.575.8-1.928,1.522.375,5.231.375,5.231l9.165,7.274s2.473,18.912-3.637,24-28.659-17.894-28.659-17.894l6.4-8.147,5.965-1.892,1.019-4.364s-6.4-3.03-1.236-13.444h0l12.535,7.71" transform="translate(-271.782 -208.101)"/><path class="y" d="M296.491,219.33l-3.2-.578s1.164,1.746,4.364,1.018-1.164-.44-1.164-.44" transform="translate(-284.327 -211.095)"/></g></g><g transform="translate(47.309 27.733)"><path class="c" d="M270.041,266.613l-1.31-2.328s-3.8.376-5.179,1.986S253.417,283.9,253.417,283.9s-3.792,1.8-6.914,3.336a5.167,5.167,0,0,1,2.181,3.1,42.813,42.813,0,0,0,7.619-3.429s8.454-6.472,9.374-10.843S270.041,266.613,270.041,266.613Z" transform="translate(-246.503 -264.285)"/><g class="z"><path class="aa" d="M279.67,290.551s-3.492-2.764,1.891-9.892c4.906-6.5,4.074,2.037,4.074,2.037l-3.583,7.8Z" transform="translate(-264.424 -272.075)"/></g></g><path class="c" d="M224.6,316.342c-3.9,1.918-8.343,4.1-8.6,4.232-.46.23-4.141-.92-4.6-.69a31.584,31.584,0,0,1-3.911,1.84c-.92.23,2.3.69,3.681,0s1.84.69,2.991.921,1.841.46,2.531,0c0,0,5.309-1.473,10.09-3.2A5.166,5.166,0,0,0,224.6,316.342Z" transform="translate(-177.289 -265.657)"/><g transform="translate(69.31 15.577)"><path class="d" d="M300.311,243.156s.69,2.53-2.3,5.521l-1.61,2.991,3.451,3.911,3.451,1.15,7.362-8.513-3.221-2.07-.92-9.433Z" transform="translate(-296.4 -236.714)"/><g class="ab"><path class="ac" d="M304.114,248.13s6.4-.291,6.547-4.219S303.387,246.529,304.114,248.13Z" transform="translate(-300.685 -240.046)"/></g></g><g transform="translate(62.128 25.009)"><path class="e" d="M290.068,259.255s1.366,3.914,8.268-1.147c0,0,4.3,2.295,5.48,3.014,2.619,1.6,3.175,1.333,3.865,3.864l-6.124,20.269,2.07,8.052-22.094.037,1.961-8.952a7.325,7.325,0,0,0-2.27-5.959c-3.158-3.054,1.078-8.109,4.407-17.311C285.907,260.362,290.068,259.255,290.068,259.255Z" transform="translate(-280.112 -258.108)"/><g class="ad"><path class="ae" d="M299.258,282.1s-3.928,5.092-3.491,14.839c0,0-12.116,4.171-17.26,3.9s.675,3.515.675,3.515,14.548,1.107,21.24-3.52-1.164-18.738-1.164-18.738" transform="translate(-278.028 -271.523)"/></g></g><path class="d" d="M266.822,320.17l-5.7-2.423-2.376-1.784a.756.756,0,0,0-.524-.149l-2.742.249a.6.6,0,0,0-.306.118c-.48.364-2.036,1.566-1.645,1.566a4.367,4.367,0,0,0,2.071-.69,8.629,8.629,0,0,0,2.3-.23,8.744,8.744,0,0,0,1.38,1.15c.46.23.23,0,.23,0l-3.08.936a.728.728,0,0,0-.39.285c-.388.563-1.448,2.086-1.821,2.459a1.759,1.759,0,0,0,2.071-.92,3.815,3.815,0,0,1,3.681-1.15s-3.221,1.84-4.141,3.681c0,0,.435,1.131,1.15.23a7.869,7.869,0,0,1,3.911-2.53l-1.311,1.5a.451.451,0,0,0,.046.639l1.265,1.084s.23-.92-.23-1.38l1.15-1.15s1.27,2.53,5.006,1.035Z" transform="translate(-203.089 -265.36)"/><path class="d" d="M293.293,321.593c-4.911,1.025-10.427,1.87-10.427,1.87l.1,2.456a73.083,73.083,0,0,0,12.277-.673A4.634,4.634,0,0,0,293.293,321.593Z" transform="translate(-219.524 -268.593)"/><path class="d" d="M321.488,268.706c-2.974-1.289-5.486,5.8-5.486,5.8-3.221,6.672-2.443,15.438-2.443,15.438a32.351,32.351,0,0,1-7.043,1.994,4.634,4.634,0,0,1,1.948,3.653c6.628-.982,9.466-2.656,9.466-2.656C320.691,288.793,324.461,270,321.488,268.706Z" transform="translate(-232.746 -238.936)"/><g transform="translate(68.85 4.602)"><path class="d" d="M300.993,211.823s-6.4,4.8-5.558,12.187c.385,3.375,1.148,4.431,2.5,5.416,1.6,1.164,6.933.439,8.326-2.247L307,225s1.305,1.169,2.621-.572,1.035-4.507-.861-3.2l1.177-3.488-1.153-3.06Z" transform="translate(-295.358 -211.823)"/><g class="af"><path class="ac" d="M297.268,213.757s2.4.984,4.587-3.235c0,0,.582,6.838,5.092,6.692l-1.31-1.164s.518,4.8,3.533,3.055-6.151-10.911-6.151-10.911l-6.118,2.182.368,3.38" transform="translate(-296.22 -209.794)"/></g></g><path class="b" d="M307.324,214.1l-4.655-2.328-6.547-1.6s-8,2.764-4.364,4.364c3.191,1.4,5.934-1.784,6.559-2.586a6.189,6.189,0,0,0,.938,3.876,5.879,5.879,0,0,0,3.687,2.3c-.08,2.26,2.637,2.667,2.637,2.667l1.164-.873,2.328-.727Zm-7.949,1.645a5.424,5.424,0,0,1-.88-2.436c.709,2.7,4.464,4.574,4.464,4.574,0,.033,0,.063-.007.1A5.726,5.726,0,0,1,299.375,215.747Z" transform="translate(-223.965 -206.299)"/><path class="ag" d="M318.366,208.244s1.746-.793,3.492,2.7c0,0,2.182,5.092,0,9.747h-.437S322.294,212.092,318.366,208.244Z" transform="translate(-239.372 -205.177)"/><circle class="ah" cx="2.037" cy="2.037" r="2.037" transform="translate(80.449 13.913)"/><path class="ag" d="M308.963,232.593c-.117.468-.338.815-.494.776s-.188-.45-.071-.918.338-.815.493-.776S309.079,232.125,308.963,232.593Z" transform="translate(-233.759 -218.319)"/><path class="ag" d="M300.13,230.87c-.039.481-.2.859-.361.846s-.258-.413-.219-.894.2-.859.361-.846S300.17,230.39,300.13,230.87Z" transform="translate(-228.847 -217.37)"/><path class="ai" d="M299.889,243.721a5.157,5.157,0,0,0,4.8-1.344s0,2.5-3.456,2.88C301.233,245.257,300.657,245.257,299.889,243.721Z" transform="translate(-229.041 -224.304)"/><path class="b" d="M299.011,225.971a.941.941,0,0,1,.191-.367.9.9,0,0,1,.353-.255.744.744,0,0,1,.437-.071.8.8,0,0,1,.205.077.7.7,0,0,1,.17.143l-.01.028a.918.918,0,0,1-.208.031c-.064.011-.125.01-.183.015a1.379,1.379,0,0,1-.171,0,.617.617,0,0,0-.171,0,.851.851,0,0,0-.323.138.972.972,0,0,0-.263.27Z" transform="translate(-228.55 -214.737)"/><path class="b" d="M310.595,225.971a.941.941,0,0,0-.191-.367.9.9,0,0,0-.353-.255.744.744,0,0,0-.437-.071.8.8,0,0,0-.205.077.7.7,0,0,0-.17.143l.01.028a.911.911,0,0,0,.208.031c.064.011.125.01.183.015a1.37,1.37,0,0,0,.17,0,.621.621,0,0,1,.172,0,.849.849,0,0,1,.322.138.968.968,0,0,1,.264.27Z" transform="translate(-234.268 -214.737)"/><path class="aj" d="M300.576,237.031s-1.989-.765-1.53-1.071a8.179,8.179,0,0,0,1.543-2.3.1.1,0,0,1,.187.031A9.805,9.805,0,0,1,300.576,237.031Z" transform="translate(-228.531 -219.396)"/><g transform="translate(72.884 15.076)"><circle class="ag" cx="0.873" cy="0.873" r="0.873" transform="translate(8.729)"/><g transform="translate(1.164 1.309)"><path class="ag" d="M313.726,242.332h-6.578v-.337h6.4c.264-.508,1.63-3.147,1.764-3.446l.27.151c-.151.338-1.748,3.417-1.816,3.548Z" transform="translate(-307.148 -238.549)"/></g><ellipse class="ag" cx="0.873" cy="0.364" rx="0.873" ry="0.364" transform="translate(0 4.51)"/></g><path class="ak" d="M240.746,335.864H140.513a1.309,1.309,0,0,1-1.31-1.309h0a1.31,1.31,0,0,1,1.31-1.31H240.746a1.31,1.31,0,0,1,1.309,1.31h0A1.309,1.309,0,0,1,240.746,335.864Z" transform="translate(-139.203 -275.107)"/><g transform="translate(7.81 23.316)"><path class="f" d="M156.919,257.235l.853,24.917a2.87,2.87,0,0,0,2.868,2.772h35.833a2.869,2.869,0,0,0,2.868-2.968l-.853-24.918a2.87,2.87,0,0,0-2.868-2.771H159.786A2.869,2.869,0,0,0,156.919,257.235Z" transform="translate(-156.917 -254.267)"/><g class="al"><path class="am" d="M191.762,295.808s-2.764,10.766,0,13.821-15.275-1.164-15.275-1.164,2.473-8.874,9.311-12.657h0l3.2,2.037,2.764-2.037" transform="translate(-167.858 -276.553)"/></g></g><path class="f" d="M187.848,297.94h5.965s-9.02,14.548-.946,15.566H180.429S177.956,307.687,187.848,297.94Z" transform="translate(-162.098 -255.368)"/><path class="ai" d="M198.323,273.952a2.622,2.622,0,0,1,.123-.794c-.041,0-.082,0-.123,0a3.072,3.072,0,1,0,3.057,3.376,2.616,2.616,0,0,1-3.057-2.579Z" transform="translate(-170.539 -241.511)"/></g><g transform="translate(50.917 55.643)"><circle class="g" cx="30.273" cy="30.273" r="30.273" transform="translate(0 60.517) rotate(-88.237)"/><g class="an" transform="translate(0 0)"><circle class="ao" cx="36.881" cy="36.881" r="36.881" transform="translate(-20.967 31.19) rotate(-45)"/><g transform="translate(13.033 7.757)"><path class="ap" d="M113.2,171.026s-7.9,0-10.662,1.382a7.009,7.009,0,0,0-3.554,7.306c.593,2.369-2.567,8.293.79,11.452,3.014,2.837,5.392,2.489,6.417,2.1a3.135,3.135,0,0,0,.3-.128c.79-.4,0,10.465,0,10.465s19.943,1.185,21.127,0,1.58-26.064-1.185-28.828-10.465-3.752-10.465-3.752Z" transform="translate(-98.2 -145.026)"/><g transform="translate(14.01 16.621)"><path class="h" d="M130.272,152.123l-.3,7.01,6.48,4.3a.423.423,0,0,0,.645-.277l1.068-5.7-6.318-7.7Z" transform="translate(-129.976 -149.753)"/><g class="aq"><path class="ar" d="M129.028,159.486a1.366,1.366,0,0,0,1.777,0s4.541,7.7,8.491,6.319-4.147-7.7-4.147-7.7l-4.136-3.127-2.38,1.745Z" transform="translate(-129.225 -152.674)"/></g></g><path class="as" d="M122.461,128.48c3.159-.2,3.554-5.331,3.554-5.924s4.936-2.172,6.121-1.58c1.127.563,1.426,4.182,1.481,4.443,1.736-1.051,3.257-4.8,2.468-7.01-.987-2.765-2.172-1.777-2.962-1.185s-.79-2.172-4.936-4.541.592,2.764-4.344,2.369-5.331,4.541-5.331,4.541c-2.567,0-4.344,2.172-2.369,4.344s.4,2.369,0,4.344c-.206,1.03,1.79,1.469,3.748,1.653A3.406,3.406,0,0,1,122.461,128.48Z" transform="translate(-107.76 -112.056)"/><path class="h" d="M138.725,142.587c3.633,1.579,7.01-.251,8.218-1.047a9.276,9.276,0,0,1-1.7-4.086,10.108,10.108,0,0,0-.251-1.769l.049-.03c-.055-.261-.645-2.969-1.772-3.532-1.185-.593-6.121.987-6.121,1.58,0,.47-.251,3.808-1.94,5.258A6.748,6.748,0,0,0,138.725,142.587Z" transform="translate(-118.89 -123.202)"/><path class="as" d="M141.635,150.376c-1.207.8-4.585,2.626-8.218,1.047A6.748,6.748,0,0,1,129.9,147.8a2.682,2.682,0,0,1-1.615.666,3.406,3.406,0,0,0-2.571,1.455,34.063,34.063,0,0,0,3.558.124c.987,11.255,12.834,10.465,14.809,7.5C145.37,155.609,143.288,153,141.635,150.376Z" transform="translate(-113.582 -132.038)"/><rect class="at" width="9.083" height="4.664" transform="translate(17.433 20.361) rotate(-176.82)"/><path class="h" d="M116.317,152.741s0-6.121.987-6.911,3.357-3.751,4.542-2.962.592,1.185,1.382,1.58.395.987.987,1.382,1.382,1.975.987,1.975h-1.777s-2.764,5.134-3.949,4.936l-.2.79h-2.962Z" transform="translate(-108.329 -129.208)"/><path class="h" d="M113.878,164.742s.4,19.548-1.382,20.733-6.516-.2-5.529-4.146,4.541-18.363,4.541-18.363Z" transform="translate(-103.027 -140.519)"/><path class="au" d="M143.411,158.934s3.455,1.036,5.033.686a.161.161,0,0,1,.187.213,8.98,8.98,0,0,0-.481,1.668C148.15,161.9,144.6,161.3,143.411,158.934Z" transform="translate(-123.477 -138.265)"/><path class="av" d="M152.08,145.5s4.612,2.773,3.362,3.968a2.76,2.76,0,0,1-2.218,1.005S151.61,146.2,152.08,145.5Z" transform="translate(-128.276 -130.754)"/><path class="aw" d="M143.407,146.322a1.121,1.121,0,0,1,.2-.714.945.945,0,0,1,.7-.4,1.287,1.287,0,0,1,.75.207,2.681,2.681,0,0,1,.288.229,2.56,2.56,0,0,1,.231.282,2.949,2.949,0,0,1-.336-.118c-.106-.043-.216-.07-.316-.112a1.7,1.7,0,0,0-.589-.094.857.857,0,0,0-.5.21A2.593,2.593,0,0,0,143.407,146.322Z" transform="translate(-123.473 -130.59)"/><path class="aw" d="M155.779,142.713a.9.9,0,0,0-.392-.454.764.764,0,0,0-.652-.048,1.041,1.041,0,0,0-.477.41,2.134,2.134,0,0,0-.131.267,1.963,1.963,0,0,0-.072.285,2.4,2.4,0,0,0,.205-.2c.063-.068.134-.126.192-.19a1.388,1.388,0,0,1,.4-.272.7.7,0,0,1,.439-.019A2.1,2.1,0,0,1,155.779,142.713Z" transform="translate(-129.428 -128.887)"/><g transform="translate(18.312 11.999)"><path class="as" d="M140.323,141.475a2.157,2.157,0,0,1,.374-.9,1.966,1.966,0,0,1,2.136-.639c.374.075.455-.511.082-.587a2.561,2.561,0,0,0-2.592.739,2.748,2.748,0,0,0-.588,1.306.3.3,0,0,0,.587.082Z" transform="translate(-139.733 -139.271)"/></g><g transform="translate(23.583 10.955)"><path class="as" d="M152.07,137.692a1.762,1.762,0,0,1,.745-.288,1.607,1.607,0,0,1,1.585.9c.167.264.56-.02.393-.283a2.092,2.092,0,0,0-1.9-1.114,2.245,2.245,0,0,0-1.1.391.242.242,0,0,0,.283.393Z" transform="translate(-151.688 -136.903)"/></g></g></g></g><g transform="translate(148.511 56.528)"><path class="i" d="M291.7,96.471h54.157a1.713,1.713,0,0,1,1.713,1.713v13.663a1.714,1.714,0,0,1-.754,1.419l-8.661,5.852a.576.576,0,0,1-.874-.645l1.732-5.716H291.7a1.713,1.713,0,0,1-1.713-1.713V98.184A1.713,1.713,0,0,1,291.7,96.471Z" transform="translate(-289.987 -96.471)"/><g class="ax"><path class="ay" d="M394.831,134.994l1.919-1.6h5.6l-7.2,4Z" transform="translate(-348.604 -117.114)"/></g><path class="ai" d="M303.906,104.521h45.272a.727.727,0,0,0,.727-.727h0a.727.727,0,0,0-.727-.727H303.906a.727.727,0,0,0-.727.727h0A.727.727,0,0,0,303.906,104.521Z" transform="translate(-297.363 -100.159)"/><path class="ai" d="M303.906,112.876h45.272a.727.727,0,0,0,.727-.727h0a.727.727,0,0,0-.727-.727H303.906a.727.727,0,0,0-.727.727h0A.727.727,0,0,0,303.906,112.876Z" transform="translate(-297.363 -104.83)"/><rect class="ai" width="23.363" height="1.454" rx="0.727" transform="translate(52.542 11.73) rotate(180)"/></g><g transform="translate(127.117 191.662)"><path class="g" d="M242.211,402.962h11.276a.745.745,0,0,1,.745.745v5.943a.746.746,0,0,1-.328.618l-3.767,2.545a.251.251,0,0,1-.38-.281l.754-2.486h-8.3a.745.745,0,0,1-.745-.745v-5.593A.745.745,0,0,1,242.211,402.962Z" transform="translate(-241.466 -402.962)"/></g><g transform="translate(207.663 81.285)"><path class="g" d="M424.6,152.622h6.875a.454.454,0,0,1,.454.454V156.7a.455.455,0,0,1-.2.377l-2.3,1.552a.153.153,0,0,1-.232-.171l.459-1.516H424.6a.454.454,0,0,1-.455-.454v-3.411A.454.454,0,0,1,424.6,152.622Z" transform="translate(-424.147 -152.622)"/></g><g transform="translate(126.846 75.606)"><path class="j" d="M301.637,139.74H242.715a1.863,1.863,0,0,0-1.864,1.864v14.865a1.864,1.864,0,0,0,.82,1.544l9.423,6.367a.627.627,0,0,0,.951-.7l-1.884-6.219h51.476A1.863,1.863,0,0,0,303.5,155.6V141.6A1.863,1.863,0,0,0,301.637,139.74Z" transform="translate(-240.851 -139.74)"/><g class="az"><path class="ba" d="M258.5,181.652l-2.088-1.74h-6.091l7.831,4.351Z" transform="translate(-246.147 -162.2)"/></g><path class="ai" d="M303.336,148.5H254.081a.791.791,0,0,1-.791-.791h0a.791.791,0,0,1,.791-.791h49.255a.791.791,0,0,1,.791.791h0A.791.791,0,0,1,303.336,148.5Z" transform="translate(-247.806 -143.752)"/><path class="ai" d="M303.336,157.588H254.081a.791.791,0,0,1-.791-.791h0a.791.791,0,0,1,.791-.791h49.255a.791.791,0,0,1,.791.791h0A.791.791,0,0,1,303.336,157.588Z" transform="translate(-247.806 -148.834)"/><rect class="ai" width="25.419" height="1.582" rx="0.791" transform="translate(5.485 11.18)"/></g><g transform="translate(151.691 144.138)"><g class="bb" transform="translate(0 0)"><circle class="bc" cx="31.062" cy="31.062" r="31.062" transform="translate(-8.405 35.523) rotate(-45)"/><g transform="translate(24.083 13.782)"><g transform="translate(4.789 19.947)"><path class="h" d="M371.465,376.16c-1.906,4.373-5.27,7.961-7.85,4.485-1.922-2.591-.418-6.118.473-7.745a33.921,33.921,0,0,1,5.423-1.226h2.558s1.516,0,3.409.121A9.151,9.151,0,0,0,371.465,376.16Z" transform="translate(-362.683 -371.674)"/><g class="bd"><path class="ar" d="M368.313,371.674c0,.224-.112,3.7-.112,3.7l-2.13-3.588Z" transform="translate(-364.577 -371.674)"/></g></g><path class="be" d="M353.754,375.3a11.1,11.1,0,0,1,4.261-2.246c-.891,1.628-2.4,5.154-.473,7.745,2.579,3.476,5.943-.112,7.849-4.485a9.151,9.151,0,0,1,4.013-4.365c2.263.145,5.065.462,6.458,1.158a6.486,6.486,0,0,1,3.289,6.761c-.548,2.193,2.375,7.674-.731,10.6-2.79,2.626-4.99,2.3-5.939,1.946a2.925,2.925,0,0,1-.274-.119c-.731-.366,0,9.684,0,9.684s-18.455,1.1-19.552,0S351.2,377.858,353.754,375.3Z" transform="translate(-351.822 -351.88)"/><g transform="translate(0.699)"><path class="k" d="M365.831,327.766s-1.794-2.579-6.167-.56-9.868,11.886-3.028,20.633c0,0,1.458-2.131,6.728-2.691S365.831,327.766,365.831,327.766Z" transform="translate(-353.407 -326.434)"/><g class="bf"><path class="bg" d="M377.5,326.852l-4.822,1.906,3.364-2.355Z" transform="translate(-364.184 -326.417)"/><path class="bg" d="M357.774,346.356s-4.444,11.275,3.406,11.5-3.406-11.5-3.406-11.5" transform="translate(-355.148 -337.572)"/></g></g><g transform="translate(7.394 11.269)"><path class="h" d="M375.9,354.186l.274,6.487-6,3.977a.392.392,0,0,1-.6-.257l-.989-5.274,5.847-7.126Z" transform="translate(-368.591 -351.993)"/><g class="bh"><path class="ar" d="M372.861,361s-1.082-.932-1.813-1.664c0,0-1.906,5.5-7.626,4.822-3.845-.452,3.774-4.438,3.774-4.438l3.828-2.894,2.2,1.615Z" transform="translate(-365.096 -354.696)"/></g></g><g transform="translate(2.445 4.022)"><path class="h" d="M357.392,344.528a30.285,30.285,0,0,1,1.274-5.583c.05-.241.6-2.747,1.64-3.268,1.1-.548,5.664.914,5.664,1.462,0,.436.232,3.524,1.795,4.865a2.479,2.479,0,0,0,1.494.616,3.154,3.154,0,0,1,2.379,1.347,31.5,31.5,0,0,1-3.293.115c-1.422,8.071-6.717,7.171-8.263,6.95C358.513,350.808,357.166,347.692,357.392,344.528Z" transform="translate(-357.367 -335.556)"/><g class="bi"><path class="ar" d="M368.613,334.542c.336,0,.391,7.094,6.98,8.257s-2.382-6.8-2.382-6.8Z" transform="translate(-363.654 -334.989)"/></g></g><path class="au" d="M367.732,362.593s-2.787.836-4.059.553a.13.13,0,0,0-.151.172,7.241,7.241,0,0,1,.388,1.346C363.91,364.982,366.776,364.5,367.732,362.593Z" transform="translate(-358.359 -346.65)"/><path class="aw" d="M370.859,352.42a.9.9,0,0,0-.161-.576.762.762,0,0,0-.568-.321,1.035,1.035,0,0,0-.6.167,2.18,2.18,0,0,0-.232.185,2.074,2.074,0,0,0-.187.227,2.44,2.44,0,0,0,.271-.1c.086-.035.174-.056.255-.09a1.364,1.364,0,0,1,.475-.076.692.692,0,0,1,.4.169A2.1,2.1,0,0,1,370.859,352.42Z" transform="translate(-361.486 -340.459)"/><path class="aw" d="M361.341,349.509a.732.732,0,0,1,.316-.366.617.617,0,0,1,.526-.039.84.84,0,0,1,.385.331,1.737,1.737,0,0,1,.106.215,1.572,1.572,0,0,1,.058.23,1.94,1.94,0,0,1-.165-.163c-.05-.055-.108-.1-.155-.154a1.114,1.114,0,0,0-.321-.219.558.558,0,0,0-.354-.015A1.673,1.673,0,0,0,361.341,349.509Z" transform="translate(-357.144 -339.085)"/><path class="k" d="M363.21,334.421s1.906,6.616,7.345,7.177-4.429-8.074-4.429-8.074h-5.495l-1.682,4.149S362.2,336.664,363.21,334.421Z" transform="translate(-355.807 -330.398)"/><path class="k" d="M368.591,330.553c.122,0,5.392-2.915,7.635-2.242s7.289,7.737,6.616,14.8-10.2,6.055-10.2,6.055a12.381,12.381,0,0,0,.448-13.681l-3.364-3.14Z" transform="translate(-361.197 -327.426)"/><rect class="at" width="8.405" height="4.316" transform="translate(11.924 15.316) rotate(-54.781)"/><path class="h" d="M388.791,356.052s0-4.906-.791-5.539-2.69-3.007-3.64-2.374-.475.949-1.108,1.266-.317.791-.791,1.108-1.108,1.582-.791,1.582h1.425s2.215,4.115,3.165,3.956l.158.633h2.374Z" transform="translate(-368.462 -338.509)"/><path class="h" d="M391.756,364.044s-.073,19.811,1.571,20.908,6.03-.183,5.116-3.837-4.2-16.993-4.2-16.993Z" transform="translate(-374.149 -347.461)"/><path class="bj" d="M364.536,356.643l-1.009-.56a13.9,13.9,0,0,0,1.073-1.615.094.094,0,0,1,.177.041A7.136,7.136,0,0,1,364.536,356.643Z" transform="translate(-358.366 -342.079)"/><g transform="translate(8.383 9.229)"><path class="k" d="M372.525,349.115a2.393,2.393,0,0,0-1.631-1.585.084.084,0,0,1,.045-.162,2.564,2.564,0,0,1,1.748,1.7c.032.1-.131.148-.162.045Z" transform="translate(-370.835 -347.365)"/></g><g transform="translate(3.931 8.322)"><path class="k" d="M362.671,345.463a2.053,2.053,0,0,0-1.8.742.072.072,0,0,1-.112-.09,2.2,2.2,0,0,1,1.937-.794c.093.01.072.153-.02.143Z" transform="translate(-360.738 -345.308)"/></g><path class="k" d="M367.973,333.524l0,.24q0,.13,0,.26c0,.173.017.345.033.516a8.444,8.444,0,0,0,.163,1.016,8.212,8.212,0,0,0,.692,1.92,8.113,8.113,0,0,0,1.143,1.67,9.034,9.034,0,0,0,1.5,1.332,8.969,8.969,0,0,1-1.393-1.421,7.733,7.733,0,0,1-1.53-3.578,8.035,8.035,0,0,1-.086-.969c0-.161,0-.323,0-.484q0-.12.013-.241l.021-.26Z" transform="translate(-360.85 -330.398)"/></g></g></g></g></g></svg>