<svg xmlns="http://www.w3.org/2000/svg" width="257.431" height="151.779" viewBox="0 0 257.431 151.779"><defs><style>.a{fill:#e9f6f7;}.b,.o{fill:#212940;}.b{opacity:0.36;}.c{fill:#eac5b0;}.d{fill:#ebb044;}.e{fill:#e5d1bd;}.f{fill:#1a3151;}.g{fill:#fff;}.h{fill:#145566;}.i{fill:#3ababa;}.j{fill:#9ea6ad;}.k{opacity:0.08;}.l{fill:#f3f9fb;opacity:0.11;}.m{opacity:0.07;mix-blend-mode:multiply;isolation:isolate;}.n{fill:#f7f7f8;}</style></defs><g transform="translate(-1336.137 -3714.514)"><g transform="translate(1043.725 3652.078)"><path class="a" d="M529.222,152.3c.047-.791.078-1.587.078-2.39a39.747,39.747,0,0,0-51.674-37.895c0-.14.011-.277.011-.415A49.165,49.165,0,0,0,381.9,95.846a38.05,38.05,0,0,0-56.937,39.728,38.06,38.06,0,0,0,5.51,75.72H519.555a30.288,30.288,0,0,0,9.667-58.991Z" transform="translate(0)"/></g><g transform="translate(-34.312 1208.895)"><g transform="translate(1412.603 2528.629)"><path class="b" d="M120.436,692.494l59.065,2.42q.075,0,.151,0l94.23-2.471a2.145,2.145,0,0,0,2.055-1.637l.291-1.278A2.106,2.106,0,0,0,274.094,687l-153.586,1.329a2.246,2.246,0,0,0-.662.106h0A2.073,2.073,0,0,0,120.436,692.494Z" transform="translate(-113.196 -566.147)"/><g transform="translate(25.317 43.919)"><g transform="translate(2.762 9.52)"><path class="c" d="M257.517,348.086a.654.654,0,0,0-.136-.127c-.478-.3-.905-.167-1.444-.322-.241-.069-.427-.685-.821-.342-.145.126-.459.487-.766.76a3.69,3.69,0,0,1-1.934.7,26.275,26.275,0,0,1-7.925-.755.96.96,0,0,1-.422-.162,1.006,1.006,0,0,1-.253-.751,20.4,20.4,0,0,0-.567-3.742,7.623,7.623,0,0,0-1.365-3.063,3.428,3.428,0,0,0-2.95-1.34,2.676,2.676,0,0,0-2,1.385c-.975,1.853.969,4.214,1.827,5.789A36.339,36.339,0,0,0,241.5,350.4a1.566,1.566,0,0,0,.438.445,1.589,1.589,0,0,0,.645.162,79.3,79.3,0,0,0,8.619.324c.793,0,1.484-.425,2.217-.422.468,0,.834.34,1.276.439a4.359,4.359,0,0,0,1.477.047c.871-.137,1.289-.946,1.725-1.617a.945.945,0,0,0,.2-.465,1.366,1.366,0,0,0-.277-.8A2.643,2.643,0,0,0,257.517,348.086Z" transform="translate(-236.665 -338.92)"/></g><g transform="translate(0)"><path class="d" d="M226.191,306.878a15.562,15.562,0,0,1,2.427,2.649,6.083,6.083,0,0,0,1.566,2.046,4.291,4.291,0,0,0,1.929.54q.793.085,1.589.138l.808-3.736a4.361,4.361,0,0,0-1.584-.311c-.614-3.848-1.022-7.713-1.6-11.564a12.255,12.255,0,0,0-1.5-4.99,3.958,3.958,0,0,0-7.314,1.636,20.267,20.267,0,0,0,1.111,8.935,13.523,13.523,0,0,0,1.8,3.819A10.407,10.407,0,0,0,226.191,306.878Z" transform="translate(-222.406 -289.767)"/></g></g><g transform="translate(7.514 23.438)"><g transform="translate(0 45.299)"><g transform="translate(0 44.686)"><path class="e" d="M146.912,654.977a9.619,9.619,0,0,1-1.745-.238,30.126,30.126,0,0,1,.7-6.1c.912,1.013,1.68.424,1.649,2.326C147.5,651.578,146.793,654.04,146.912,654.977Z" transform="translate(-142.324 -648.636)"/><path class="f" d="M133.2,674.724c-.688-.246-.843,1.4-.848,1.783a2.886,2.886,0,0,1-.035.693,1.855,1.855,0,0,1-.387.655l-1,1.256a2.181,2.181,0,0,0-.382.608,1.283,1.283,0,0,0,.662,1.5c1.847.933,3.534-1.326,3.934-2.817.061-.229.106-.461.151-.694.093-.481.456-1.529.266-2-.223-.548-.9-.151-1.339-.358C133.808,675.159,133.476,674.824,133.2,674.724Z" transform="translate(-130.487 -669.651)"/></g><path class="f" d="M151.951,434.8c-1.722,4.687-3.708,9.272-4.841,14.179-1.4,6.061-3.656,11.972-4.814,18.047a14.978,14.978,0,0,1-2.242-.1c-.852-.1-2.205-.331-2.513-1.262a5.638,5.638,0,0,1,.034-1.744c.077-1.583.19-3.164.306-4.745a121.908,121.908,0,0,1,1.378-13.406c.865-4.637,1.694-9.291,2.455-13.927.393-2.4.878-4.778,1.474-7.132.154-.607,1.753-6.859,2.067-6.81a29.328,29.328,0,0,1,10.458,3.752,1.5,1.5,0,0,1,.73.743,1.382,1.382,0,0,1-.091.922c-.97,2.882-2.263,5.585-3.3,8.456C152.693,432.779,152.328,433.778,151.951,434.8Z" transform="translate(-136.12 -417.907)"/></g><g transform="translate(14.784 45.6)"><g transform="translate(1.138 44.646)"><path class="e" d="M213.9,655.731a9.622,9.622,0,0,0,1.737.292,30.135,30.135,0,0,0,1.148-6.035c-1.172.7-1.73-.095-2.266,1.731C214.347,652.309,214.294,654.872,213.9,655.731Z" transform="translate(-213.668 -649.988)"/><path class="f" d="M215.258,674.507c0,1.123.885,2.332,1.375,3.343a.692.692,0,0,1-.113.9,1.442,1.442,0,0,1-.586.552,1.375,1.375,0,0,1-.79-.009q-.656-.144-1.3-.347a.9.9,0,0,1-.3-.14.93.93,0,0,1-.223-.324,3.384,3.384,0,0,1-.542-1.715,10.332,10.332,0,0,0-.023-2.115c-.063-.336-.147-.765.141-.95.223-.143.63.054.872.093a3.3,3.3,0,0,1,1.216.268.57.57,0,0,1,.208.179A.476.476,0,0,1,215.258,674.507Z" transform="translate(-212.695 -669.07)"/></g><path class="f" d="M207.61,433.924c.25,4.987.783,9.955.406,14.977-.466,6.2-.07,12.518-.771,18.662a15,15,0,0,0,2.169.576c.844.157,2.2.34,2.775-.457a5.64,5.64,0,0,0,.487-1.675c.4-1.534.76-3.077,1.119-4.621a121.911,121.911,0,0,0,2.672-13.209c.553-4.685,1.146-9.374,1.8-14.027.337-2.405.583-4.823.714-7.248.034-.625.366-7.07.052-7.116a29.328,29.328,0,0,0-11.1.472,1.5,1.5,0,0,0-.917.492,1.382,1.382,0,0,0-.187.908c.069,3.04.5,6.005.633,9.054C207.5,431.771,207.555,432.833,207.61,433.924Z" transform="translate(-206.821 -419.465)"/></g><path class="d" d="M162,285.494c-.061.021-.121.042-.181.065a10.186,10.186,0,0,0-2.689,1.739c-1.253,1.012-1.87,1.456-2.354,2.955a36.4,36.4,0,0,0-1.01,4.314c-1.419,7.4-1.693,14.759-2.711,22.21-.277,2.028-.491,4.412,1.009,5.805,2.661-2.071,6.007-2.191,9.235-2.194,2.267,0,4.483-.736,6.755-.483,2.171.242,4.068-.3,6.272-.157.531.034,1.208.029,1.418-.461a28.974,28.974,0,0,1-.922-7.148c-.446-6.217-2.506-12.184-3.337-18.359-.282-2.1-.433-5.583-2.059-7.172-1.767-1.727-5.8-1.762-8.066-1.424A7.822,7.822,0,0,0,162,285.494Z" transform="translate(-148.52 -265.455)"/><path class="g" d="M206.8,293.221l-.883-.6,1.784-1.785a2.779,2.779,0,0,0,.64-.828,2.718,2.718,0,0,0,.142-1.125,4.056,4.056,0,0,0-.237-1.544,2.912,2.912,0,0,0-2.62-1.333,7.742,7.742,0,0,0-2.853.88,2.8,2.8,0,0,0-.8.5,1.979,1.979,0,0,0-.4,1.926,4.853,4.853,0,0,0,1.053,1.756,9.8,9.8,0,0,1,1.243,1.642l-2.394,1.371c-.108.062-.226.137-.252.259a.457.457,0,0,0,.1.325,9.8,9.8,0,0,1,1.81,4.667c.011,1.926.183,3.867.261,5.8q.243,6.028.149,12.063-.021,1.387-.061,2.774a20.963,20.963,0,0,0,3.1-.034,1.018,1.018,0,0,0,.625-.2,1.038,1.038,0,0,0,.226-.755q.025-1.01.015-2.019c-.036-3.968-.422-7.921-.617-11.882-.166-3.367-.625-7.345,1.584-10.188a.519.519,0,0,0,.141-.288c0-.165-.148-.286-.285-.379Z" transform="translate(-187.518 -266.254)"/><g transform="translate(4.633)"><g transform="translate(8.665 5.255)"><g transform="translate(0 2.507)"><path class="c" d="M201.785,236.461a.816.816,0,0,0,.154.208,1.772,1.772,0,0,0,.992.46,4.389,4.389,0,0,0,1.439-.1c.641-.122.618-.5.711-1.079.051-.318.083-.639.106-.959.013-.176-.055-.806.057-.929.076-.084.386-.055.522-.126a1.5,1.5,0,0,0,.524-.52,4.2,4.2,0,0,0,.436-1.067l.586-1.924a10.184,10.184,0,0,0,.465-2,4.238,4.238,0,0,0-.846-3.231,4.639,4.639,0,0,0-2.688-1.047,5.6,5.6,0,0,0-3.638.735,3,3,0,0,0-1.111,1.1,4.848,4.848,0,0,0-.325,2.524l.119,2.388a3.187,3.187,0,0,0,.846,2.468c.364.264.841.32,1.152.658a2.371,2.371,0,0,1,.382,1.6A1.962,1.962,0,0,0,201.785,236.461Z" transform="translate(-199.146 -224.096)"/></g><path class="f" d="M220.8,215.731a1.347,1.347,0,0,1,.107.233c.146.422.047.9.19,1.322.226.671,1.009,1.074,1.127,1.773.1.571-.294,1.114-.327,1.692-.036.632.369,1.23.306,1.853a4.129,4.129,0,0,1-.722,1.737c.1-.135,1.007-.087,1.242-.23a.953.953,0,0,0,.509-.734,7.55,7.55,0,0,1,.19-1.123c.2-.468.622-.813.768-1.312.2-.682-.163-1.4-.135-2.112.043-1.075.972-2.087.635-3.109-.2-.6-.78-.982-1.107-1.522a8.139,8.139,0,0,1-.513-1.34,1.6,1.6,0,0,0-.928-1.03,7.823,7.823,0,0,0-.792-.093,9.788,9.788,0,0,1-1.264-.544,2.39,2.39,0,0,0-2.088.948,1.09,1.09,0,0,0,.19,1.434C218.8,214.347,220.29,214.853,220.8,215.731Z" transform="translate(-214.189 -211.151)"/></g><path class="f" d="M180.354,208.738a11.9,11.9,0,0,0-1.176.793,3.515,3.515,0,0,0-.816,2.536,17.052,17.052,0,0,0-.289,2.381,2.072,2.072,0,0,0,.763,1.479c.576.418,1.481.487,1.738,1.151.279.721-.468,1.629-.014,2.256.25.346.74.4,1.1.628a3.149,3.149,0,0,1,.848,1.13,1.444,1.444,0,0,0,1.086.828,3.967,3.967,0,0,0-.269-1.959c-.18-.385-.71-1.1-.3-1.515.257-.347.863-.46.879-.891a1,1,0,0,0-.246-.544,2.483,2.483,0,0,1-.183-2.257,3.227,3.227,0,0,1,1.6-1.652c.828-.4.694-.6.935-1.4.221-.729.635-.9,1.292-1.166a1.384,1.384,0,0,0,1-.939,1.606,1.606,0,0,0,.124-1.338,2.725,2.725,0,0,0-.834-.858,3.536,3.536,0,0,0-2.258-.985c-.466.034-.9.252-1.37.279-.311.018-.62-.051-.931-.062a2.477,2.477,0,0,0-1.52.459c-.433.319-.421.652-.662,1.1A1.618,1.618,0,0,1,180.354,208.738Z" transform="translate(-173.478 -202.077)"/><path class="f" d="M163.16,187.7c.082-.5.029-1.161-.452-1.332-.264-.093-.56.009-.834-.047-.585-.119-.784-.827-1.09-1.338a.442.442,0,0,0-.182-.191.717.717,0,0,0-.377.01c-.582.071-1.024-.5-1.571-.711a1.375,1.375,0,0,0-1.735.862c-.084.286-.069.593-.148.88-.319,1.165-2.024,1.66-2.067,2.867-.029.815.769,1.6.459,2.351-.2.483-.819.812-.748,1.328a.72.72,0,0,0,.736.554,1.446,1.446,0,0,0,.9-.41c.4-.35.7-.8,1.086-1.171a1.816,1.816,0,0,1,1.421-.606c.512.064.975.462,1.484.377.407-.068.709-.431,1.109-.534a3.765,3.765,0,0,1,1.148.074c.385.023.859-.177.869-.563a.959.959,0,0,1,.006-.279c.082-.249.507-.235.588-.484-.2-.31-.485-.2-.629-.6A2.223,2.223,0,0,1,163.16,187.7Z" transform="translate(-154.407 -184.017)"/></g></g><g transform="translate(52.517 23.789)"><g transform="translate(7.405 2.122)"><path class="c" d="M409.9,205.6a20.911,20.911,0,0,1-1.831,2.772,6.217,6.217,0,0,0-.973,2.75c-.115.752-.383,1.339-1.289,1.468-1.708.243-1.219-1.168-1.607-2.195a18.776,18.776,0,0,0-2.05-3.147c-1.909-3.026-1.364-9.007,2.6-10.284C409.088,195.571,411.3,202.541,409.9,205.6Z" transform="translate(-401.082 -196.784)"/></g><g transform="translate(5.411 3.328)"><path class="f" d="M394.678,207.7a2.17,2.17,0,0,0-1.4.39c-.365.331-.326,1.052.157,1.13.437.071,1-.386,1.27-.052.156.195.019.479-.1.707a4.154,4.154,0,0,0-.378,2.817c-.18.167-.46-.006-.619-.18a9.065,9.065,0,0,1-1.8-2.954,1.811,1.811,0,0,1-.661.64,2.094,2.094,0,0,0-.041-1.272c-.371-1.531-.623-3.324.446-4.575a3.977,3.977,0,0,1,2.316-1.216,11.621,11.621,0,0,1,2.648-.083c.377.017.842.1.932.447a4.2,4.2,0,0,0-2.1,1.761C395.226,205.5,394.729,207.7,394.678,207.7Z" transform="translate(-390.789 -203.015)"/></g><g transform="translate(0)"><path class="f" d="M373.9,190.163l-.089.066a3.754,3.754,0,0,1-1.18.759c-.654.182-1.357-.133-2,.09-.72.249-1.193,1.11-1.718,1.619a7.612,7.612,0,0,1-3.076,1.8,7.7,7.7,0,0,1-1.8.322,3.189,3.189,0,0,1-.918,0c-.363-.1-.35-.262.036-.386,1.211-.388,1.591-2.09,1.5-3.218a5.759,5.759,0,0,1-.04-2.647,3.14,3.14,0,0,1,1.355-1.318c.594-.4,1.238-.291,1.912-.482.7-.2,1.277-.754,1.994-.895a6.054,6.054,0,0,1,2.273.334,4.7,4.7,0,0,0,1.9-.023,7.637,7.637,0,0,1,1.675-.344,2.743,2.743,0,0,1,2.111,1.219,5.6,5.6,0,0,1,.9,3.9c.038-.2-.628-.915-.765-1.069a1.8,1.8,0,0,0-1.08-.683A4.641,4.641,0,0,0,373.9,190.163Z" transform="translate(-362.85 -185.83)"/></g></g><g transform="translate(150.685 40.173)"><g transform="translate(3.567 10.948)"><path class="c" d="M912.631,336.581a.765.765,0,0,0-.164-.139c-.569-.319-1.056-.145-1.689-.3-.282-.067-.531-.77-.969-.352-.162.154-.5.589-.846.921a4.279,4.279,0,0,1-2.2.911,30.449,30.449,0,0,1-9.214-.447,1.111,1.111,0,0,1-.5-.165,1.164,1.164,0,0,1-.333-.855,23.672,23.672,0,0,0-.858-4.3,8.832,8.832,0,0,0-1.745-3.471A3.972,3.972,0,0,0,890.629,327a3.1,3.1,0,0,0-2.244,1.712c-1.028,2.2,1.348,4.826,2.427,6.6a42.121,42.121,0,0,0,3.405,4.813,1.81,1.81,0,0,0,.53.492,1.839,1.839,0,0,0,.755.152,91.883,91.883,0,0,0,9.993-.089c.918-.048,1.694-.572,2.544-.608.542-.023.984.348,1.5.44a5.049,5.049,0,0,0,1.712-.026c1-.206,1.442-1.165,1.909-1.965a1.1,1.1,0,0,0,.2-.549,1.584,1.584,0,0,0-.365-.916A3.078,3.078,0,0,0,912.631,336.581Z" transform="translate(-888.133 -326.952)"/></g><g transform="translate(0 0)"><path class="h" d="M874.355,289.932c.75,1.131,1.5,2.265,2.157,3.483a5.815,5.815,0,0,0,1.616,2.195,4.822,4.822,0,0,0,1.618.625,29.414,29.414,0,0,0,10.731.575,1.893,1.893,0,0,0,.948-.309,1.98,1.98,0,0,0,.5-1.612v-2.054a.687.687,0,0,0-.63-.841,53.215,53.215,0,0,0-6.719-1.371,3.823,3.823,0,0,1-2.044-.682c-1.18-1.023-1.207-4.84-1.477-6.416-.308-1.8-.558-3.614-.911-5.4a14.2,14.2,0,0,0-2-5.7,4.586,4.586,0,0,0-8.377,2.288,23.409,23.409,0,0,0,1.635,9.951A27.958,27.958,0,0,0,874.355,289.932Z" transform="translate(-869.718 -270.424)"/></g></g><g transform="translate(88.496 39.378)"><g transform="translate(0 0)"><path class="c" d="M550.842,266.325a.734.734,0,0,1,.206.033c.592.219.769.688,1.276,1.059.226.166.9-.092.867.493-.012.216-.117.741-.148,1.2a4.137,4.137,0,0,0,.709,2.193,29.464,29.464,0,0,0,6.106,6.508,1.074,1.074,0,0,0,.433.262,1.126,1.126,0,0,0,.839-.291,22.883,22.883,0,0,1,3.706-2.064,8.542,8.542,0,0,1,3.651-.891,3.843,3.843,0,0,1,3.212,1.7,3,3,0,0,1,.146,2.726c-.974,2.135-4.4,2.032-6.386,2.352a40.725,40.725,0,0,1-5.681.509,1.752,1.752,0,0,1-.695-.082,1.779,1.779,0,0,1-.585-.461,88.923,88.923,0,0,1-6.2-7.418c-.54-.706-.641-1.607-1.147-2.255-.323-.414-.873-.506-1.264-.829a4.889,4.889,0,0,1-1.054-1.277c-.476-.866-.046-1.792.251-2.638a1.061,1.061,0,0,1,.276-.5,1.534,1.534,0,0,1,.9-.306A2.975,2.975,0,0,1,550.842,266.325Z" transform="translate(-548.619 -266.319)"/></g><g transform="translate(2.904 2.813)"><path class="g" d="M578.428,294.865a24.869,24.869,0,0,1-4.892.1,5.59,5.59,0,0,1-1.68-.333,6.392,6.392,0,0,1-2.085-1.652,48.589,48.589,0,0,1-6.157-7.4l2.4-1.438a.7.7,0,0,1,1.07.157l4.212,4.117a1.6,1.6,0,0,0,.76.5,1.476,1.476,0,0,0,.68-.077c3.85-1.11,7.284-3.942,10.748-5.883a13.733,13.733,0,0,1,5.451-2.1,4.437,4.437,0,0,1,3.567,7.606A24.53,24.53,0,0,1,578.428,294.865Z" transform="translate(-563.614 -280.846)"/></g></g><g transform="translate(101.114 24.707)"><g transform="translate(0 40.737)"><g transform="translate(3.643 50.78)"><g transform="translate(3.512)"><path class="c" d="M653.543,663.581l.068,4.763-2.822.038-.075-5.28Z" transform="translate(-650.714 -663.101)"/></g><g transform="translate(0 4.534)"><path class="f" d="M636.417,686.512l2.455.811.732.788-.124,1.867-6.635.516h0a1.477,1.477,0,0,1,.739-2.245l.309-.106Z" transform="translate(-632.58 -686.512)"/></g></g><g transform="translate(11.357 3.106)"><g transform="translate(16.166 43.588)"><path class="c" d="M758.68,642.006l1.869,4.381-2.6,1.106-2.072-4.857Z" transform="translate(-755.88 -642.006)"/><g transform="translate(0.109 4.161)"><path class="f" d="M758.453,664.9a2.149,2.149,0,0,1,.327-.293c.312-.228,2.828-1.561,3.044-.96a.676.676,0,0,1,.012.308,22.881,22.881,0,0,1-1.206,5.071c-.254.7-.639,1.476-1.363,1.651a2.145,2.145,0,0,1-.969-.052,10.081,10.081,0,0,1-1.382-.419.764.764,0,0,1-.424-.295c-.171-.309.127-.674.438-.84s.691-.285.842-.6a1.217,1.217,0,0,0,.086-.463C757.921,666.832,757.722,665.707,758.453,664.9Z" transform="translate(-756.44 -663.492)"/></g></g><path class="i" d="M673.643,443.031c.926,4.234,3.573,7.276,6.4,10.389a134.1,134.1,0,0,1,9.113,11.19l3.675-1.533c-1.024-5.95-3.846-11.409-6.033-17.036a35.817,35.817,0,0,1-2.818-12.271,40.151,40.151,0,0,1,.749-6.068c.338-2.532.357-5.127.662-7.671a2.674,2.674,0,0,0-.5-2.417,2.26,2.26,0,0,0-1.052-.424C669.914,414.494,671.882,434.98,673.643,443.031Z" transform="translate(-672.408 -416.949)"/></g><path class="i" d="M637.71,407.9a28.882,28.882,0,0,0-.787-6.933,51.079,51.079,0,0,0-12.359,1.021c-3.83.777-6.219,1.611-6.246,5.764-.051,7.642-3.038,14.152-4.327,21.5-.75,4.269.546,8.087,1.981,12.041a134.071,134.071,0,0,1,4.187,13.811l3.982-.024c1.31-5.894.769-12.015.881-18.051a35.818,35.818,0,0,1,2.048-12.423c1.694-4.326,4.135-2.6,6.935-5.113C636.727,417.047,637.7,412.333,637.71,407.9Z" transform="translate(-613.771 -400.909)"/></g><g transform="translate(3.259 17.286)"><path class="g" d="M646.777,280.852a10.586,10.586,0,0,1,1.2,1.153L649,283.094a12.218,12.218,0,0,1,2.267,4.726c2.66,8.455,3.617,20.055,1.89,28.89-6.551.566-14.133-1.086-20.67-1.979a1.644,1.644,0,0,1-1.891-1.912c0-5.609,1.186-11.636,2.3-17.165a60.48,60.48,0,0,1,1.788-6.909c.785-2.395,1.669-4.981,3.505-6.792,1.965-1.939,5.726-2.9,8.186-1.382A4.525,4.525,0,0,1,646.777,280.852Z" transform="translate(-630.596 -279.826)"/></g><g transform="translate(7.819 0)"><g transform="translate(6.013 3.487)"><path class="c" d="M690.2,224.6c.167-.762.133-1.655.235-2.313a4.224,4.224,0,0,0,.451-.25c2.732-1.745,7.315-11.111.032-13.208-6.613-1.9-6.269,7.193-4.979,10.986a5.643,5.643,0,0,0,.953,1.794c.3.364.366.295.323.718-.067.638-.562,1.176-.649,1.832a10.3,10.3,0,0,0,.465,3.313l2.415-1.6A1.941,1.941,0,0,0,690.2,224.6Z" transform="translate(-685.19 -208.575)"/></g><g transform="translate(4.817 7.263)"><path class="f" d="M679.41,232.106a14.4,14.4,0,0,0,1.681,3.427,24.491,24.491,0,0,1,.8-6.648.643.643,0,0,0,0-.5.6.6,0,0,0-.41-.22C678.7,227.564,678.7,230,679.41,232.106Z" transform="translate(-679.014 -228.073)"/></g><g transform="translate(12.529 3.822)"><path class="f" d="M718.834,221.151c.447.628,1.426.459,2.115.113a7.5,7.5,0,0,0,3.869-7.953c-.525-2.6-3.8-4.547-4.463-1.328-.235,1.141.46,2.723.3,3.989A18.356,18.356,0,0,1,718.834,221.151Z" transform="translate(-718.834 -210.304)"/></g><path class="f" d="M659.384,191.931c-.317.125-.64.258-.98.39a1.955,1.955,0,0,1-1.939-.044c-.207-.118-1.6-1.433-1.264-1.706-2.218,1.81-.394,4.451.438,6.321.561,1.26.676,3.04,1.937,3.863,1.386.906,2.337-.24,3.6-.753,1.11-.453,2.31-.7,3.44-1.1,1.875-.669,4.664-1.843,4.043-4.334-.725-2.909-3.672-3.634-6.32-3.412A9.888,9.888,0,0,0,659.384,191.931Z" transform="translate(-654.141 -190.572)"/></g></g><path class="i" d="M680.3,305.912c-.3,1.913-.3,3.88-.576,5.8-.15,1.056-.383,2.1-.572,3.147a76.776,76.776,0,0,0-.9,9.021q-.054.893-.107,1.787a3.008,3.008,0,0,0,.008,1.361c.188.368.652.405,1,.548a5.059,5.059,0,0,1,1.387.847,2.318,2.318,0,0,0,1.461-1.764,7.227,7.227,0,0,0-.007-2.389,82.167,82.167,0,0,1,.4-21,.679.679,0,0,0,.828-.4,1.974,1.974,0,0,0,.089-1,15.755,15.755,0,0,1-1.734-.011c-.962-.048-1.248.176-1.249,1.243.469.224.382.9.252,1.407C680.471,304.978,680.378,305.444,680.3,305.912Z" transform="translate(-564.502 -255.6)"/><g transform="translate(50.381 65.68)"><g transform="translate(12.576 0)"><g transform="translate(7.99 37.933)"><path class="c" d="M461.214,615.911a13.864,13.864,0,0,0,1.758-.168c.3-5.817-.247-11.914-.485-17.759l-4.483.239a52.233,52.233,0,0,1,2.218,9.61C460.291,608.351,461.129,615.908,461.214,615.911Z" transform="translate(-458.004 -597.984)"/><g transform="translate(2.206 16.616)"><path class="f" d="M472.338,683.792a.9.9,0,0,1,.833.323c.143.131.24.315.412.409a1.356,1.356,0,0,0,.546.132c1.078.108,3.562.063,2.239,1.866-1.2,1.637-4.393.986-6.236.541a.635.635,0,0,1-.338-.141.868.868,0,0,1-.187-.366c-.21-.77-.5-1.732.449-2.055.4-.138.776.13,1.2-.019C471.61,684.361,471.969,683.858,472.338,683.792Z" transform="translate(-469.394 -683.778)"/></g></g><path class="f" d="M432.574,443.566l-9.143-.177q-3.7-17.6-6.51-35.379a6.294,6.294,0,0,1-.022-2.765c.5-1.686,2.306-2.648,4.035-2.971,2.686-.5,7.622.2,9,2.99,1.456,2.952,1.211,8.224,1.565,11.485A198.258,198.258,0,0,1,432.574,443.566Z" transform="translate(-416.75 -402.125)"/></g><g transform="translate(0 0)"><g transform="translate(0 37.933)"><g transform="translate(4.5)"><path class="c" d="M376.9,615.911a13.866,13.866,0,0,1-1.758-.168c-.3-5.817.247-11.914.485-17.759l4.483.239a52.235,52.235,0,0,0-2.218,9.61C377.824,608.351,376.986,615.908,376.9,615.911Z" transform="translate(-375.053 -597.984)"/></g><g transform="translate(0 16.616)"><path class="f" d="M356.226,683.792a.9.9,0,0,0-.832.323c-.143.131-.24.315-.412.409a1.354,1.354,0,0,1-.546.132c-1.078.108-3.562.063-2.239,1.866,1.2,1.637,4.393.986,6.237.541a.635.635,0,0,0,.338-.141.87.87,0,0,0,.187-.366c.21-.77.5-1.732-.449-2.055-.4-.138-.776.13-1.2-.019C356.954,684.361,356.6,683.858,356.226,683.792Z" transform="translate(-351.818 -683.778)"/></g></g><path class="f" d="M360.4,443.566l9.143-.177q3.7-17.6,6.51-35.379a6.3,6.3,0,0,0,.022-2.765c-.5-1.686-2.306-2.648-4.035-2.971-2.686-.5-7.622.2-9,2.99-1.456,2.952-1.212,8.224-1.565,11.485A198.287,198.287,0,0,0,360.4,443.566Z" transform="translate(-358.678 -402.125)"/></g></g><g transform="translate(66.448 23.394)"><g transform="translate(6.879)"><path class="c" d="M477.324,184.457a.627.627,0,0,0-.108.142c-.239.484-.074.879-.17,1.409-.043.236-.613.472-.249.816.135.127.509.391.8.659a3.538,3.538,0,0,1,.849,1.779,25.192,25.192,0,0,1,.032,7.634.919.919,0,0,1-.115.418.963.963,0,0,1-.693.313,19.583,19.583,0,0,0-3.517.9,7.31,7.31,0,0,0-2.793,1.593,3.287,3.287,0,0,0-1,2.942,2.566,2.566,0,0,0,1.512,1.78c1.86.754,3.929-1.324,5.351-2.293a34.839,34.839,0,0,0,3.83-3.024,1.5,1.5,0,0,0,.383-.46,1.523,1.523,0,0,0,.093-.631,76.032,76.032,0,0,0-.509-8.255c-.079-.756-.546-1.375-.613-2.075-.043-.447.245-.828.3-1.259a4.177,4.177,0,0,0-.1-1.413c-.214-.818-1.025-1.141-1.707-1.492a.909.909,0,0,0-.463-.145,1.312,1.312,0,0,0-.741.341A2.539,2.539,0,0,0,477.324,184.457Z" transform="translate(-470.298 -183.789)"/></g><g transform="translate(0 6.505)"><path class="j" d="M448.905,231.148c1.192-.84,2.307-1.783,3.469-2.723a1.841,1.841,0,0,0,.544-.591,1.818,1.818,0,0,0,.132-.7,67.136,67.136,0,0,0-.206-9.757l-3.112.24q-.048,2.309-.1,4.618a1.973,1.973,0,0,1-1.5,2.23,9.411,9.411,0,0,1-4.195.724,27.9,27.9,0,0,0-7.81,1.2,1.856,1.856,0,0,0-1.229.8,1.893,1.893,0,0,0-.125.819,17.636,17.636,0,0,0,.27,3.859c.22,1,.823,2.831,1.822,3.35.965.5,2.658-.022,3.676-.246,2.141,0,4.559-1.614,6.369-2.581A19.021,19.021,0,0,0,448.905,231.148Z" transform="translate(-434.777 -217.377)"/></g></g><g transform="translate(52.517 39.116)"><path class="j" d="M370.25,268.616c-.666.834-1.5,1.555-2.151,2.418a22.365,22.365,0,0,0-3.223,5.99c-1.952,5.479-1.99,11.33-2.008,17.063q-.009,2.862-.018,5.724c-.006,1.877.16,2.281,2.2,2.034a34.983,34.983,0,0,0,11.137-2.918,52.671,52.671,0,0,1,4.863-2.439c2.486-.915,5.035-.5,7.495-1.1a58.309,58.309,0,0,1-2.38-9.3c-.564-3.425-1.077-7.16-1.9-10.538a27.681,27.681,0,0,0-2.358-5.785,18.147,18.147,0,0,0-1.15-2.047,7.466,7.466,0,0,0-.766-.963c-.2-.214-.4-.589-.686-.672a20.572,20.572,0,0,0-2.361-.547c-.14-.152-.041-.467-.23-.552a.337.337,0,0,0-.164-.015l-3.357.248a1.815,1.815,0,0,0,.057.621.654.654,0,0,1-.134.587.843.843,0,0,1-.341.155l-.118.038a4.895,4.895,0,0,0-2.347,1.926Z" transform="translate(-362.85 -264.966)"/></g><g transform="translate(49.846 0)"><g transform="translate(0 0)"><path class="h" d="M391.433,63l-37.508.1a4.916,4.916,0,0,0-4.87,4.961l.042,16.2a4.915,4.915,0,0,0,4.9,4.935l37.508-.1a4.916,4.916,0,0,0,4.87-4.961l-.042-16.2A4.915,4.915,0,0,0,391.433,63Z" transform="translate(-349.056 -63)"/><g class="k" transform="translate(23.607 0)"><path d="M489.561,63l-18.617.049.067,26.094,18.617-.049a5.071,5.071,0,0,0,5.024-5.117l-.041-15.887A5.07,5.07,0,0,0,489.561,63Z" transform="translate(-470.944 -63.002)"/></g><g transform="translate(2.028 1.723)"><path class="i" d="M399.158,71.894l-36.062.1a3.607,3.607,0,0,0-3.569,3.636l.04,15.4a3.606,3.606,0,0,0,3.588,3.617l36.062-.1a3.607,3.607,0,0,0,3.569-3.636l-.04-15.4A3.606,3.606,0,0,0,399.158,71.894Z" transform="translate(-359.527 -71.894)"/></g><path class="l" d="M489.086,71.894l-18.031.048.058,22.653,18.031-.048a3.607,3.607,0,0,0,3.569-3.636l-.04-15.4A3.607,3.607,0,0,0,489.086,71.894Z" transform="translate(-447.427 -70.171)"/><g transform="translate(6.286 5.829)"><path class="g" d="M432.75,104.551a3.256,3.256,0,0,1-.973,2.392,3.212,3.212,0,0,1-2.356.987h-.167a3.169,3.169,0,0,1-2.361-.986,3.285,3.285,0,0,1-.974-2.376l0-1.285a3.315,3.315,0,0,1,.851-2.268,3.185,3.185,0,0,1,.855-.69,2.952,2.952,0,0,1-1.316-1.462,3.3,3.3,0,0,1-.237-1.329l0-.767a3.3,3.3,0,0,1,.795-2.279,2.984,2.984,0,0,1,2.356-1.021h.167a3,3,0,0,1,2.372,1.008,3.328,3.328,0,0,1,.807,2.275l0,.767a3.153,3.153,0,0,1-.773,2.189,2.8,2.8,0,0,1-.766.611,3.512,3.512,0,0,1,1.45,1.608,3.061,3.061,0,0,1,.271,1.341ZM430.7,97.336q-.026-1.45-.906-1.818a1.162,1.162,0,0,0-.479-.089,1.3,1.3,0,0,0-.889.306,1.35,1.35,0,0,0-.393.636,3.025,3.025,0,0,0-.092.972,2.774,2.774,0,0,0,.293,1.325,1.358,1.358,0,0,0,2.191-.04A2.44,2.44,0,0,0,430.7,97.336Zm-.051,6.217a2.028,2.028,0,0,0-.572-1.689,1.207,1.207,0,0,0-.746-.2,1.121,1.121,0,0,0-1.133.724,3.183,3.183,0,0,0-.175,1.173l0,.676a1.535,1.535,0,0,0,.426,1.126,1.244,1.244,0,0,0,2.079-.479,1.584,1.584,0,0,0,.121-.654Z" transform="translate(-417.317 -93.396)"/><path class="g" d="M388.2,104.456a3.255,3.255,0,0,1-.973,2.392,3.312,3.312,0,0,1-4.711.007,3.269,3.269,0,0,1-.98-2.381l-.02-7.71a3.275,3.275,0,0,1,.973-2.4,3.2,3.2,0,0,1,2.356-.993,3.17,3.17,0,0,1,2.361.986,3.3,3.3,0,0,1,.974,2.387ZM386,96.706a1.191,1.191,0,0,0-.358-.867,1.161,1.161,0,0,0-.857-.358,1.142,1.142,0,0,0-.85.363,1.2,1.2,0,0,0-.348.869l.02,7.721a1.2,1.2,0,0,0,.353.867,1.141,1.141,0,0,0,.852.358,1.16,1.16,0,0,0,.856-.363,1.192,1.192,0,0,0,.354-.869Z" transform="translate(-381.514 -93.319)"/><path class="g" d="M489.408,104.295a3.254,3.254,0,0,1-.973,2.392,3.312,3.312,0,0,1-4.711.007,3.269,3.269,0,0,1-.98-2.381l-.02-7.71a3.273,3.273,0,0,1,.973-2.4,3.305,3.305,0,0,1,4.716-.007,3.3,3.3,0,0,1,.974,2.387Zm-2.2-7.749a1.191,1.191,0,0,0-.358-.867,1.161,1.161,0,0,0-.857-.358,1.143,1.143,0,0,0-.85.363,1.2,1.2,0,0,0-.348.869l.02,7.721a1.2,1.2,0,0,0,.353.867,1.142,1.142,0,0,0,.852.358,1.16,1.16,0,0,0,.855-.363,1.191,1.191,0,0,0,.354-.869Z" transform="translate(-463.123 -93.189)"/><path class="g" d="M533.171,104.179a3.256,3.256,0,0,1-.973,2.392,3.312,3.312,0,0,1-4.711.007,3.269,3.269,0,0,1-.979-2.381l-.02-7.71a3.273,3.273,0,0,1,.973-2.4,3.305,3.305,0,0,1,4.716-.007,3.3,3.3,0,0,1,.974,2.387Zm-2.2-7.749a1.191,1.191,0,0,0-.358-.867,1.16,1.16,0,0,0-.857-.358,1.143,1.143,0,0,0-.85.363,1.2,1.2,0,0,0-.348.869l.02,7.721a1.2,1.2,0,0,0,.353.867,1.142,1.142,0,0,0,.852.358,1.16,1.16,0,0,0,.856-.363,1.192,1.192,0,0,0,.354-.869Z" transform="translate(-498.41 -93.096)"/></g><g transform="translate(22.788 9.771)"><path class="g" d="M466.717,113.458l1.722,0,0,1.754-1.722,0Zm.013,4.911,1.722,0,0,1.736-1.722,0Z" transform="translate(-466.717 -113.453)"/></g></g></g><g transform="translate(52.088 46.093)"><g transform="translate(0 0)"><circle class="d" cx="35.562" cy="35.562" r="35.562" transform="matrix(0.995, -0.095, 0.095, 0.995, 0, 6.76)"/><g transform="translate(7.362 7.362)"><circle class="h" cx="30.82" cy="30.82" r="30.82" transform="translate(0 1.209) rotate(-1.124)"/></g><g class="m" transform="translate(23.596 10.65)"><path class="d" d="M509.889,355.983c6.12,3.481,10.606,9.259,13.693,16.195,4.441,9.976-2.746,32.091-18.36,39.532-7.393,3.523-15.779,2.368-22.752-.629a30.819,30.819,0,1,0,27.419-55.1Z" transform="translate(-482.47 -355.983)"/></g><g transform="translate(31.692 21.452)"><g transform="translate(5.001 8.309)"><path class="g" d="M550.116,464.4l.371,1.162a.585.585,0,0,0,.735.379l28.143-8.977a.585.585,0,0,0,.38-.735l-.371-1.162a.585.585,0,0,0-.735-.379L550.5,463.667A.585.585,0,0,0,550.116,464.4Z" transform="translate(-550.088 -454.662)"/></g><path class="d" d="M531.766,426.753l-5.2-14.216a1.185,1.185,0,0,0-1.52-.706h0a1.185,1.185,0,0,0-.706,1.521l5.2,14.216a2.371,2.371,0,1,0,2.226-.814Z" transform="translate(-524.268 -411.758)"/></g></g></g><g transform="translate(0 53.534)"><g transform="translate(0)"><path class="h" d="M95.719,360.534l37.592-4.446a4.547,4.547,0,0,1,5.064,3.964l3.026,25.577a4.547,4.547,0,0,1-4,5.036l-37.592,4.446a4.547,4.547,0,0,1-5.064-3.964L91.719,365.57A4.547,4.547,0,0,1,95.719,360.534Z" transform="translate(-91.688 -352.832)"/><g transform="translate(3.969 10.461)"><path class="g" d="M259.045,405.815l8.959-1.06a1.226,1.226,0,0,0,1.078-1.358l-1.052-8.9a1.226,1.226,0,0,0-1.366-1.069l-8.959,1.06a1.226,1.226,0,0,0-1.078,1.358l1.052,8.9A1.226,1.226,0,0,0,259.045,405.815Z" transform="translate(-228.645 -393.423)"/><path class="g" d="M267.645,475.247l8.959-1.06a1.226,1.226,0,0,0,1.078-1.358l-1.052-8.9a1.226,1.226,0,0,0-1.365-1.069l-8.959,1.06a1.226,1.226,0,0,0-1.078,1.358l1.052,8.9A1.226,1.226,0,0,0,267.645,475.247Z" transform="translate(-235.579 -449.409)"/><path class="g" d="M186.825,414.356l8.959-1.06a1.226,1.226,0,0,0,1.078-1.358l-1.052-8.9a1.226,1.226,0,0,0-1.365-1.069l-8.959,1.06a1.226,1.226,0,0,0-1.078,1.358l1.052,8.9A1.226,1.226,0,0,0,186.825,414.356Z" transform="translate(-170.412 -400.311)"/><path class="g" d="M195.426,483.789l8.959-1.06a1.226,1.226,0,0,0,1.078-1.358l-1.052-8.9a1.226,1.226,0,0,0-1.366-1.069l-8.959,1.06a1.226,1.226,0,0,0-1.079,1.358l1.052,8.9A1.226,1.226,0,0,0,195.426,483.789Z" transform="translate(-177.346 -456.296)"/><path class="g" d="M114.605,422.9l8.959-1.06a1.226,1.226,0,0,0,1.078-1.358l-1.052-8.9a1.226,1.226,0,0,0-1.366-1.069l-8.959,1.06a1.226,1.226,0,0,0-1.078,1.358l1.052,8.9A1.226,1.226,0,0,0,114.605,422.9Z" transform="translate(-112.179 -407.198)"/><path class="g" d="M123.206,492.33l8.959-1.059a1.226,1.226,0,0,0,1.078-1.358l-1.052-8.9a1.226,1.226,0,0,0-1.366-1.069l-8.959,1.06a1.226,1.226,0,0,0-1.078,1.358l1.052,8.9A1.226,1.226,0,0,0,123.206,492.33Z" transform="translate(-119.114 -463.183)"/></g><g transform="translate(5.782)"><path class="j" d="M273.812,339.573l1.307-.155a1.3,1.3,0,0,1,1.445,1.131l.568,4.8a1.3,1.3,0,0,1-1.141,1.437l-1.307.154a1.3,1.3,0,0,1-1.445-1.131l-.568-4.8A1.3,1.3,0,0,1,273.812,339.573Z" transform="translate(-243.393 -339.41)"/><path class="j" d="M122.691,357.447l1.307-.154a1.3,1.3,0,0,1,1.445,1.131l.568,4.8a1.3,1.3,0,0,1-1.142,1.437l-1.307.155a1.3,1.3,0,0,1-1.445-1.131l-.568-4.8A1.3,1.3,0,0,1,122.691,357.447Z" transform="translate(-121.54 -353.822)"/></g></g></g><g transform="translate(9.605 44.773)"><g transform="translate(0.51 7.294)"><path class="c" d="M157.893,351.053a.661.661,0,0,0-.027-.184c-.188-.53-.6-.694-.929-1.151-.145-.2.093-.8-.429-.779-.193.008-.662.1-1.073.118a3.691,3.691,0,0,1-1.948-.658,26.277,26.277,0,0,1-5.732-5.525.958.958,0,0,1-.229-.389,1,1,0,0,1,.269-.745,20.43,20.43,0,0,0,1.886-3.281,7.622,7.622,0,0,0,.839-3.246,3.428,3.428,0,0,0-1.474-2.886c-.72-.44-1.832-.758-2.43-.163-1.065,1.061-1.866,3.9-2.175,5.668a36.348,36.348,0,0,0-.523,5.061,1.564,1.564,0,0,0,.065.621,1.59,1.59,0,0,0,.4.528,79.311,79.311,0,0,0,6.543,5.62c.623.491,1.425.591,2,1.05.365.293.441.785.725,1.138a4.353,4.353,0,0,0,1.127.956,2.839,2.839,0,0,0,2.357-.192.945.945,0,0,0,.445-.241,1.368,1.368,0,0,0,.284-.8A2.665,2.665,0,0,0,157.893,351.053Z" transform="translate(-143.916 -331.837)"/></g><g transform="translate(0 0)"><path class="d" d="M141.746,307.237l0,.023a25.333,25.333,0,0,0-.44,5.715c.036.885.562,1.109,1.217,1.663l2.254,1.9a19.465,19.465,0,0,1,2.686-2.666c-.391-.5-1.331-1.415-1.2-2.013a13.029,13.029,0,0,1,1.214-2.236c.749-1.568,1.352-3.2,1.945-4.83q1.265-3.48,2.475-6.979a5.643,5.643,0,0,0,.4-1.763,1.925,1.925,0,0,0-.707-1.6,1.888,1.888,0,0,0-1.82-.094,4.721,4.721,0,0,0-1.489,1.169,20.579,20.579,0,0,0-2.117,2.661c-.589.882-1.11,1.807-1.629,2.732L143.2,303.3a15.507,15.507,0,0,0-.722,1.393A11.922,11.922,0,0,0,141.746,307.237Z" transform="translate(-141.282 -294.177)"/></g></g><g transform="translate(50.018 40.162)"><g transform="translate(0.588 7.753)"><path class="c" d="M365.045,329.922a.635.635,0,0,0,.008-.178c-.079-.534-.44-.765-.661-1.255-.1-.219.236-.737-.26-.812-.183-.028-.641-.033-1.031-.088a3.541,3.541,0,0,1-1.711-.98,18.182,18.182,0,0,1-1.81-1.958,30.852,30.852,0,0,1-3-4.824,8.339,8.339,0,0,0,4.2-7.514,1.932,1.932,0,0,0-.214-.913,1.666,1.666,0,0,0-.582-.539c-2.411-1.47-3.7.878-4.819,2.726a27.6,27.6,0,0,0-1.854,3.613c-.729,1.743-.154,3.265.855,4.8a27.473,27.473,0,0,0,3.579,4.639,20.857,20.857,0,0,0,2.188,1.726c.744.561.453.861.978,1.519a7.583,7.583,0,0,0,.88,1.1,2.722,2.722,0,0,0,2.253.256.907.907,0,0,0,.463-.144,1.311,1.311,0,0,0,.415-.7A2.557,2.557,0,0,0,365.045,329.922Z" transform="translate(-352.983 -310.399)"/></g><path class="j" d="M359.082,271.051A19.679,19.679,0,0,0,352.1,279.7c-.65,1.547-1.735,2.772-2.034,4.483a9.054,9.054,0,0,0,.662,5.116,18.151,18.151,0,0,0,5.862,6.73l1.6-2.42a.737.737,0,0,0,.034-.98l-2.285-4.119a2.319,2.319,0,0,1-.345-.9c-.079-.895.855-1.589.988-2.466l.262.21c-.081-.065,4.967-5.457,5.257-5.789a11.75,11.75,0,0,0,2.716-4.193A3.8,3.8,0,0,0,359.082,271.051Z" transform="translate(-349.946 -270.366)"/></g><g transform="translate(119.003 45.866)"><g transform="translate(0 18.744)"><path class="c" d="M706.567,408.112a.743.743,0,0,1-.1-.18c-.2-.6.048-1.031.015-1.658-.014-.28-.639-.64-.165-.983.175-.127.649-.377,1.024-.643a4.137,4.137,0,0,0,1.253-1.934c.463-1.366.177-5.547,1.974-6.012,4.223-1.093.3,6.882.126,7.656-.117.511.159,1,.155,1.5a4.885,4.885,0,0,1-.325,1.624c-.372.916-1.361,1.167-2.2,1.472a1.061,1.061,0,0,1-.559.1,1.535,1.535,0,0,1-.807-.507A3,3,0,0,1,706.567,408.112Z" transform="translate(-706.136 -396.598)"/></g><path class="g" d="M718.1,300.091c.149.208.309.519.548.877,1.253,1.878,1.81,4.748,2.253,6.927a32.127,32.127,0,0,1-.275,14.1.518.518,0,0,1-.746.47l-3.148-.639a1.344,1.344,0,0,1-.636-.249,1.394,1.394,0,0,1-.232-1.271,34.449,34.449,0,0,0,.109-8.812c-.161-1.383-.866-3.083-.782-4.447.076-1.226.786-2.549.884-3.891a4.732,4.732,0,0,1,.717-2.637C717.552,299.673,717.808,299.679,718.1,300.091Z" transform="translate(-713.436 -299.819)"/></g><g transform="translate(136.056 75.641)"><g transform="translate(18.286 22.917)"><g transform="translate(0.064)"><path class="c" d="M888.934,571.885l.141,8.595c-.058,2.385.157,4.762.3,7.139.135,2.208-.31,4.483.737,6.529.329.642,1.027,1.089,1.559.348.41-.571.221-1.559.322-2.222.761-4.983,2.177-9.842,2.883-14.834C895.62,572.211,893.6,572.348,888.934,571.885Z" transform="translate(-888.934 -571.885)"/></g><path class="f" d="M889.155,678.011l-.552,1.434,2.719,2.393,2.491.1.806-1.314-3.35-2.913Z" transform="translate(-888.602 -657.218)"/></g><g transform="translate(4.972 22.493)"><g transform="translate(0.334)"><path class="c" d="M828.538,570.2l-1.568,8.452c-.543,3.781-1.779,7.463-2.322,11.244a9.85,9.85,0,0,1-.425,2.641c-.355.8-1.051.834-1.665.29-.823-.729-.443-2.032-.428-3.028.1-6.635-.421-13.177-.547-19.823a.3.3,0,0,1,.069-.242.287.287,0,0,1,.2-.039C822.5,569.736,828.5,570.382,828.538,570.2Z" transform="translate(-821.583 -569.691)"/></g><path class="f" d="M820.719,681.072l-.862,1.272,2.109,2.945,2.4.662,1.081-1.1-2.606-3.594Z" transform="translate(-819.858 -659.5)"/></g><path class="h" d="M817.073,497.025l1.937-16.85.646-18.505-1.9-6.521-10.266-1.593L794.8,455.731l-.61,2.466,5.264,25.851v13.557l3.486.194,3.486-13.364,2.518-21.885,3.1,17.818.387,16.462Z" transform="translate(-794.185 -453.556)"/></g><path class="h" d="M821.2,281.626c0-.057-.01-.114-.021-.17-1.045-5.674,1.119-10-3-15.072-2.218-2.728-3.359-2.4-6.316-3.126-.683-.168-2.087-.668-2.008.384a11.148,11.148,0,0,0-2.8.27l-.032-.4c-1.644.385-3.812.5-5.326,1.187-1.625.736-3.1,3.126-3.933,4.617-2.87,5.124-1.7,11.393-1.7,17.044,0,1.571-1.06,18.407-.254,18.447,5.031.254,9.953-1.492,14.934-1.02,2.95.279,5.865,1.011,8.757,1.416a.738.738,0,0,0,.571-.093.83.83,0,0,0,.218-.608c.3-4.107.31-8.341.538-12.492C821.015,288.617,821.49,285.028,821.2,281.626Z" transform="translate(-659.196 -224.259)"/><g transform="translate(148.756 9.096)"><path class="g" d="M878.872,123.79l3.351,14.669a8.391,8.391,0,0,0,8.873,6.43q-.351.121-.685.271a8.027,8.027,0,0,0-4.572,9.129l3.35,14.669,21.1-4.434-3.351-14.669a8.391,8.391,0,0,0-8.872-6.43q.351-.121.685-.27a8.028,8.028,0,0,0,4.572-9.13l-3.351-14.669Z" transform="translate(-875.17 -117.538)"/><path class="f" d="M887.169,112.551l-25.79,5.42a1.345,1.345,0,0,1-1.586-1.006h0a1.289,1.289,0,0,1,1-1.549l25.79-5.42A1.344,1.344,0,0,1,888.171,111h0A1.289,1.289,0,0,1,887.169,112.551Z" transform="translate(-859.76 -109.967)"/><path class="f" d="M940.438,345.772l-25.79,5.42a1.345,1.345,0,0,1-1.586-1.005h0a1.289,1.289,0,0,1,1-1.55l25.79-5.42a1.345,1.345,0,0,1,1.586,1.006h0A1.289,1.289,0,0,1,940.438,345.772Z" transform="translate(-902.712 -298.019)"/><g transform="translate(22.676 26.697)"><path class="n" d="M991.016,254.711c-1.961-5.448-6.124-5.627-6.673-5.683a.623.623,0,0,1-.593-.48.6.6,0,0,1,.466-.72.612.612,0,0,1,.117-.013v0l.025,0a.634.634,0,0,1,.107.011C989.775,248.606,991.016,254.711,991.016,254.711Z" transform="translate(-982.4 -247.813)"/><path class="n" d="M977.429,248.908a.486.486,0,0,1-.573-.363.466.466,0,0,1,.362-.56.486.486,0,0,1,.573.363A.466.466,0,0,1,977.429,248.908Z" transform="translate(-976.844 -247.943)"/></g><path class="d" d="M899.731,188.321l.532,2.329a6.993,6.993,0,0,0,3.1,4.367,7.124,7.124,0,0,0,5.306.964l.357-.075a2.423,2.423,0,0,1,2.064,1.824l1.938,8.484a2.165,2.165,0,0,1-1.684,2.6l.244-.051a6.88,6.88,0,0,0-4.4,3,6.749,6.749,0,0,0-.916,5.212l.532,2.329,18.656-3.921-.532-2.329a6.992,6.992,0,0,0-3.1-4.367,7.123,7.123,0,0,0-5.306-.964l.148-.031a2.257,2.257,0,0,1-2.663-1.688l-1.938-8.484a2.3,2.3,0,0,1,1.034-2.475l.5-.1a6.879,6.879,0,0,0,4.4-3,6.749,6.749,0,0,0,.916-5.212l-.532-2.329Z" transform="translate(-891.99 -169.984)"/></g><path class="g" d="M849.555,273.8a27.211,27.211,0,0,0-.073,6.444,9.589,9.589,0,0,0,.441,2.681,11.853,11.853,0,0,0,1.812,2.847c1.518,2.041,3.152,14.287,3.99,16.688.691-2.622.955-15.217,1.646-17.838a23.039,23.039,0,0,0,.972-5.4c.067-3.587-1.526-6.972-3.083-10.2a5.617,5.617,0,0,0-.826-1.365c-1-1.11-3.267-1.257-4.071.141a4.932,4.932,0,0,0-.233,2.213A33.319,33.319,0,0,1,849.555,273.8Z" transform="translate(-702.591 -227.318)"/><path class="i" d="M863.108,289.912c.3,1.913.3,3.88.576,5.8.15,1.056.383,2.1.572,3.147a76.8,76.8,0,0,1,.9,9.021q.054.893.107,1.787a3.012,3.012,0,0,1-.008,1.361c-.189.368-.652.405-1,.548a5.061,5.061,0,0,0-1.387.847,2.318,2.318,0,0,1-1.461-1.764,7.227,7.227,0,0,1,.007-2.389,82.172,82.172,0,0,0-.4-21,.679.679,0,0,1-.828-.4,1.974,1.974,0,0,1-.089-1,15.728,15.728,0,0,0,1.733-.011c.962-.048,1.248.176,1.249,1.243-.469.224-.382.9-.252,1.407C862.941,288.978,863.034,289.444,863.108,289.912Z" transform="translate(-711.253 -242.698)"/><g transform="translate(139.777 43.105)"><g transform="translate(6.609 9.691)"><path class="c" d="M873.01,337.527a.752.752,0,0,0-.2-.075c-.643-.106-1.042.224-1.688.3-.288.033-.761-.543-1.031,0-.1.2-.274.725-.481,1.154a4.278,4.278,0,0,1-1.759,1.607,30.449,30.449,0,0,1-8.815,2.721,1.112,1.112,0,0,1-.523.014c-.3-.091-.467-.407-.605-.691a23.652,23.652,0,0,0-2.272-3.751,8.829,8.829,0,0,0-2.824-2.668,3.972,3.972,0,0,0-3.752-.121,3.1,3.1,0,0,0-1.526,2.374c-.218,2.416,2.912,4.077,4.532,5.38a42.085,42.085,0,0,0,4.842,3.365,1.812,1.812,0,0,0,.666.281,1.837,1.837,0,0,0,.762-.114,91.871,91.871,0,0,0,9.364-3.491c.847-.358,1.4-1.115,2.184-1.439.5-.206,1.044-.008,1.56-.1a5.051,5.051,0,0,0,1.6-.608c.871-.535.958-1.587,1.125-2.5a1.1,1.1,0,0,0,.005-.586,1.585,1.585,0,0,0-.655-.737A3.075,3.075,0,0,0,873.01,337.527Z" transform="translate(-847.522 -335.598)"/></g><g transform="translate(0 0)"><path class="h" d="M823.1,304.163c1.09.808,2.186,1.616,3.215,2.539a5.815,5.815,0,0,0,2.267,1.512,4.819,4.819,0,0,0,1.734.036,29.407,29.407,0,0,0,10.284-3.117,1.894,1.894,0,0,0,.786-.614,1.981,1.981,0,0,0-.083-1.685l-.7-1.932a.687.687,0,0,0-.879-.576,53.194,53.194,0,0,0-6.784,1,3.822,3.822,0,0,1-2.154.056c-1.458-.56-2.784-4.139-3.576-5.529-.9-1.586-1.757-3.207-2.7-4.77a14.2,14.2,0,0,0-3.823-4.671,4.586,4.586,0,0,0-7.1,5.007,23.412,23.412,0,0,0,4.929,8.8A27.967,27.967,0,0,0,823.1,304.163Z" transform="translate(-813.396 -285.562)"/></g></g><g transform="translate(143.249 23.758)"><g transform="translate(0 0)"><path class="o" d="M873.631,200.406a6.553,6.553,0,0,1,.8,2.961.94.94,0,0,0,.253.753c.237.173.029.554.209.322a5.054,5.054,0,0,0,.821-1.33,10.838,10.838,0,0,0,0-2.062,2.96,2.96,0,0,0-.57-1.673,3.36,3.36,0,0,0-.844-.642,4.312,4.312,0,0,0-1.4-.629c-.872-.163-1.407.15-.638.759A5.322,5.322,0,0,1,873.631,200.406Z" transform="translate(-864.035 -195.662)"/><g transform="translate(1.012 2.591)"><path class="c" d="M839.662,212.9a5.873,5.873,0,0,0,.058.985,23.991,23.991,0,0,1,2.5,2.234,5.585,5.585,0,0,0,1.164-2.175,34.3,34.3,0,0,1,.248-3.848c1.045-.179,2.275-.517,2.632-1.612a3.587,3.587,0,0,0,.119-1.087q.017-2.275.033-4.55a4.4,4.4,0,0,0-.175-1.552,3.156,3.156,0,0,0-1.9-1.684,6.829,6.829,0,0,0-6.191.378,3.38,3.38,0,0,0-1.241,1.248,5.3,5.3,0,0,0-.314,2.823q.094,1.331.188,2.662c.072,1.021.225,2.2,1.018,2.735.421.286.965.339,1.327.709C839.723,210.774,839.662,211.912,839.662,212.9Z" transform="translate(-836.546 -199.046)"/></g><path class="f" d="M846.747,235.885c-.017-.281-.14-1.105-.563-.587a.847.847,0,0,0-.145.507,1.908,1.908,0,0,1-.055.536.944.944,0,0,1-.946.56.921.921,0,0,1-.444-.1,1.38,1.38,0,0,1-.337-.31l-.74-.849c-.424-.486-1.265-.276-1.836-.2a3.658,3.658,0,0,0-1.855.718c-.054.044-.107.089-.16.135a1.966,1.966,0,0,1-.411.3,1.267,1.267,0,0,1-1.494-.474c-.163-.212-.316-.485-.569-.521a.522.522,0,0,0-.493.3,1.489,1.489,0,0,0-.143.622,4.575,4.575,0,0,0,.4,2.286c.737,1.507,2.16,1.692,3.591,1.658l1.7-.04a5.367,5.367,0,0,0,3-.669,3.713,3.713,0,0,0,1.412-2.376A5.853,5.853,0,0,0,846.747,235.885Zm-3.783,2.136a1.98,1.98,0,0,1-1.752.2c-.258-.078-.148-.511.11-.433a1.592,1.592,0,0,0,1.431-.157C842.982,237.481,843.191,237.869,842.964,238.021Z" transform="translate(-835.533 -225.551)"/><path class="f" d="M842.754,187.785a8.113,8.113,0,0,0,.221-1.12,2.22,2.22,0,0,1-1.1.094l0-.654a12.694,12.694,0,0,0-2.655-.325c-1.867-.153-3.574-.3-5.262.7a5.083,5.083,0,0,0-2.588,3.8,7.775,7.775,0,0,0,1.228,4.984,10.853,10.853,0,0,1-.149-1.823,3.593,3.593,0,0,1,.392-1.15,4.742,4.742,0,0,1,1.664-1.749,9.221,9.221,0,0,1,3.637-1.225,9.961,9.961,0,0,1,3.733,0c.553.148.645.287.979-.271a9.5,9.5,0,0,0,.481-1.248Z" transform="translate(-831.323 -185.671)"/></g></g></g></g></g></svg>