<svg xmlns="http://www.w3.org/2000/svg" width="56.09" height="67.282" viewBox="0 0 56.09 67.282"><defs><style>.a{fill:#01d35a;}</style></defs><g transform="translate(0)"><path class="a" d="M122.632,93.2a17.329,17.329,0,0,0-11.452,30.311c2.739,2.739,2.49,8.589,2.427,8.651a1.031,1.031,0,0,0,.311.809,1.148,1.148,0,0,0,.747.311h15.871a1.031,1.031,0,0,0,.747-.311,1.183,1.183,0,0,0,.311-.809c0-.062-.311-5.913,2.427-8.651l.187-.187A17.277,17.277,0,0,0,122.632,93.2Zm9.958,28.693c-.062.062-.187.187-.187.249-2.427,2.614-2.863,6.909-2.925,8.963H115.723c-.062-2.054-.5-6.535-3.112-9.212a15.156,15.156,0,1,1,19.979,0Z" transform="translate(-94.536 -78.698)"/><path class="a" d="M210.387,121.6a1.058,1.058,0,0,0,0,2.116,11.329,11.329,0,0,1,11.328,11.328,1.058,1.058,0,1,0,2.116,0A13.388,13.388,0,0,0,210.387,121.6Z" transform="translate(-182.353 -102.679)"/><path class="a" d="M171.36,358.4H157.543a2.614,2.614,0,1,0,0,5.228H171.3a2.684,2.684,0,0,0,2.676-2.614A2.63,2.63,0,0,0,171.36,358.4Zm0,3.05H157.543a.491.491,0,0,1-.5-.5.458.458,0,0,1,.5-.5H171.3a.491.491,0,0,1,.5.5A.444.444,0,0,1,171.36,361.45Z" transform="translate(-136.418 -302.632)"/><path class="a" d="M180.453,398.8h-9.71a2.614,2.614,0,0,0,0,5.228h9.71a2.63,2.63,0,0,0,2.614-2.614A2.59,2.59,0,0,0,180.453,398.8Zm0,3.05h-9.71a.491.491,0,0,1-.5-.5.458.458,0,0,1,.5-.5h9.71a.5.5,0,0,1,0,1Z" transform="translate(-147.564 -336.746)"/><path class="a" d="M210.387,9.336a1.049,1.049,0,0,0,1.058-1.058V1.058a1.058,1.058,0,0,0-2.116,0v7.22A1.091,1.091,0,0,0,210.387,9.336Z" transform="translate(-182.353)"/><path class="a" d="M298.766,33.313a1,1,0,0,0-1.432.249l-3.983,5.975a1.025,1.025,0,0,0,.249,1.494,1,1,0,0,0,.56.187.993.993,0,0,0,.871-.5l3.983-5.975A.965.965,0,0,0,298.766,33.313Z" transform="translate(-253.118 -27.961)"/><path class="a" d="M108,39.108a1,1,0,0,0,.56-.187,1.09,1.09,0,0,0,.311-1.494l-3.859-6.037a1.079,1.079,0,0,0-1.8,1.183l3.859,6.037A1.033,1.033,0,0,0,108,39.108Z" transform="translate(-92.602 -26.1)"/><path class="a" d="M43.833,106.827,37.547,103.4a1.1,1.1,0,0,0-1.432.436.994.994,0,0,0,.436,1.432l6.286,3.423a1.465,1.465,0,0,0,.5.124,1.027,1.027,0,0,0,.934-.56A1.1,1.1,0,0,0,43.833,106.827Z" transform="translate(-35.966 -87.222)"/><path class="a" d="M350.549,103.84a1.1,1.1,0,0,0-1.432-.436l-6.349,3.423a1.1,1.1,0,0,0-.436,1.432,1.027,1.027,0,0,0,.934.56,1.172,1.172,0,0,0,.5-.124l6.349-3.423A1.1,1.1,0,0,0,350.549,103.84Z" transform="translate(-294.569 -87.222)"/></g></svg>