<svg xmlns="http://www.w3.org/2000/svg" width="48.009" height="47.994" viewBox="0 0 48.009 47.994"><defs><style>.a{fill:#444;}</style></defs><g transform="translate(0 -0.076)"><g transform="translate(0 0.076)"><g transform="translate(0 0)"><path class="a" d="M47.209,11.264v-1.6a.8.8,0,0,0-.72-.8L31.509,7.29l-2.944-2.21L24.62.35A.827.827,0,0,0,23.451.289.847.847,0,0,0,23.39.35l-3.946,4.73L16.5,7.291,1.521,8.868a.8.8,0,0,0-.72.8v1.6a.8.8,0,0,0,.8.8h3.55L.874,21.331,2.327,22,6.4,13.173,9.456,19.79A3.2,3.2,0,0,0,8,22.466v.8H6.4a.8.8,0,0,0-.8.8v2.36A7.162,7.162,0,0,0,2.832,36.868H.8a.8.8,0,0,0-.716,1.158l1.6,3.2a.8.8,0,0,0,.716.442H15.2a.8.8,0,0,0,.716-.442l1.6-3.2a.8.8,0,0,0-.716-1.158H14.772A7.162,7.162,0,0,0,12,26.427v-2.36a.8.8,0,0,0-.8-.8H9.6v-.8a1.59,1.59,0,0,1,.539-1.189l.334.72,1.453-.671-.24-.514A3.2,3.2,0,0,0,14.4,17.665H12.8a1.6,1.6,0,0,1-1.6,1.6c-.074,0-.143.017-.216.022L7.652,12.064H21.6V43.27h-4a.8.8,0,0,0-.8.8v3.2a.8.8,0,0,0,.8.8h12.8a.8.8,0,0,0,.8-.8v-3.2a.8.8,0,0,0-.8-.8h-4V12.064H40.357L36.08,21.331,37.533,22l4.074-8.828L45.682,22l1.453-.671-4.277-9.266h3.55A.8.8,0,0,0,47.209,11.264Zm-31.7,27.2-.8,1.6H2.9l-.8-1.6Zm-2.8-9.619a5.6,5.6,0,0,1,0,8.019H4.891a5.6,5.6,0,1,1,7.822-8.019ZM10.4,24.866v.986a7,7,0,0,0-3.2,0v-.986Zm-8-14.4v-.08L16.883,8.859a.8.8,0,0,0,.4-.156l1.985-1.489a4.8,4.8,0,0,0,2.088,3.25Zm27.2,34.406v1.6H18.4v-1.6Zm-6.4-1.6V12.064h1.6V43.27ZM24,9.664a3.2,3.2,0,0,1-3.2-3.2v-.51L24,2.112l3.2,3.841v.51A3.2,3.2,0,0,1,24,9.664Zm21.6.8H26.653a4.8,4.8,0,0,0,2.088-3.249L30.726,8.7a.8.8,0,0,0,.4.156l14.482,1.524v.08Z" transform="translate(0 -0.076)"/></g></g><g transform="translate(27.205 22.466)"><path class="a" d="M292.365,238.42a.8.8,0,0,0-.358-.084h-7.2v-2.914a7.591,7.591,0,0,0,3.484-3.231,7.2,7.2,0,0,0,4.518-6.657v-.8a.8.8,0,0,0-.8-.8H272.8a.8.8,0,0,0-.8.8v.8a7.2,7.2,0,0,0,4.518,6.657A7.591,7.591,0,0,0,280,235.421v2.914h-4a.8.8,0,0,0-.716,1.158l1.6,3.2a.8.8,0,0,0,.716.442h12.8a.8.8,0,0,0,.716-.442l1.6-3.2A.8.8,0,0,0,292.365,238.42Zm-2.758-11.286v-1.6h1.6a5.587,5.587,0,0,1-1.92,4.193A10.582,10.582,0,0,0,289.606,227.134Zm-16-1.6h1.6v1.6a10.582,10.582,0,0,0,.32,2.592A5.586,5.586,0,0,1,273.6,225.533Zm3.2,1.6v-1.6h11.2v1.6c0,3.97-2.513,7.2-5.6,7.2S276.8,231.1,276.8,227.134Zm6.4,8.744v2.458h-1.6v-2.458A5.585,5.585,0,0,0,283.205,235.878Zm6.707,5.659H278.1l-.8-1.6h13.414Z" transform="translate(-272.003 -223.933)"/></g><g transform="translate(32.806 17.665)"><rect class="a" width="1.6" height="1.6"/></g><g transform="translate(34.406 16.065)"><rect class="a" width="1.6" height="1.6"/></g><g transform="translate(32.806 14.465)"><rect class="a" width="1.6" height="1.6"/></g><g transform="translate(31.206 16.065)"><rect class="a" width="1.6" height="1.6"/></g><g transform="translate(12.803 15.265)"><rect class="a" width="1.6" height="1.6"/></g><g transform="translate(14.844 16.149)"><g transform="translate(0 0)"><rect class="a" width="1.789" height="1.6" transform="translate(0 0.8) rotate(-26.565)"/></g></g></g></svg>