<svg xmlns="http://www.w3.org/2000/svg" width="57.797" height="52.543"><defs><style>.a{fill:#0e9347}.e{fill:#f6b545}.f{fill:#ffcb5b}.g{fill:#ffe27a}.h{fill:#f19920}.i{fill:#e78825}</style></defs><g transform="translate(0 -23.272)"><path class="a" d="M55.17 57.425H2.627A2.635 2.635 0 0 1 0 54.8V25.9a2.635 2.635 0 0 1 2.627-2.627H55.17A2.635 2.635 0 0 1 57.8 25.9v28.9a2.635 2.635 0 0 1-2.63 2.625z"/><path d="M48.602 46.916a8.792 8.792 0 0 0-7.356 3.809 9.8 9.8 0 0 0-4.466-1.182 9.191 9.191 0 0 0-9.064 7.881H55.17a2.672 2.672 0 0 0 2.627-2.235 9.357 9.357 0 0 0-9.195-8.273z" fill="#0d8944"/><path d="M49.916 54.797H7.881a5.27 5.27 0 0 0-5.254-5.254v-18.39a5.27 5.27 0 0 0 5.254-5.254h42.035a5.27 5.27 0 0 0 5.254 5.254v18.39a5.27 5.27 0 0 0-5.254 5.254z" fill="#3bb54a"/><g transform="translate(10.509 28.526)"><path class="a" d="M38.094 18.39a8.792 8.792 0 0 0-7.356 3.809 9.8 9.8 0 0 0-4.466-1.182 9.023 9.023 0 0 0-8.275 5.254h21.41a5.242 5.242 0 0 1 5.123-5.254 9.5 9.5 0 0 0-6.436-2.627z"/><ellipse class="a" cx="10.509" cy="11.822" rx="10.509" ry="11.822" transform="translate(7.881)"/><circle class="a" cx="2.627" cy="2.627" r="2.627" transform="translate(0 9.195)"/><circle class="a" cx="2.627" cy="2.627" r="2.627" transform="translate(31.526 9.195)"/></g><circle cx="9.195" cy="9.195" r="9.195" transform="translate(24.958 49.544)" fill="#ffca5d"/><circle class="e" cx="9.195" cy="9.195" r="9.195" transform="translate(36.78 46.916)"/><path class="f" d="M45.975 46.916a9.2 9.2 0 1 0 9.2 9.2 9.138 9.138 0 0 0-9.2-9.2zm0 15.763a6.568 6.568 0 1 1 6.568-6.568 6.5 6.5 0 0 1-6.568 6.568z"/><path class="e" d="M45.975 65.175a9.028 9.028 0 0 0 9.2-9.064h-.131a1.4 1.4 0 0 0-1.314 1.182 7.943 7.943 0 0 1-2.5 4.729 7.443 7.443 0 0 1-4.072 1.97 1.177 1.177 0 0 0-1.183 1.183z"/><path class="g" d="M45.975 47.047a9.028 9.028 0 0 0-9.195 9.064h.131a1.4 1.4 0 0 0 1.313-1.182 7.942 7.942 0 0 1 2.5-4.729 7.443 7.443 0 0 1 4.072-1.97 1.177 1.177 0 0 0 1.179-1.183z"/><path class="h" d="M40.326 57.031a6.5 6.5 0 0 1 6.568-6.568 6.2 6.2 0 0 1 4.2 1.576 6.547 6.547 0 0 0-11.691 4.072 6.3 6.3 0 0 0 2.364 4.991 6.16 6.16 0 0 1-1.441-4.071z"/><path class="f" d="M49.916 60.184a.482.482 0 0 1-.394-.131.635.635 0 0 1 0-.919 4.385 4.385 0 0 0 1.182-3.021.657.657 0 1 1 1.314 0 6.066 6.066 0 0 1-1.445 3.941 1.427 1.427 0 0 1-.657.13z"/><path class="h" d="M45.975 60.052a1.241 1.241 0 0 1-1.314-1.314v-5.254a1.314 1.314 0 0 1 2.627 0v5.254a1.241 1.241 0 0 1-1.313 1.314z"/><path class="h" d="M50.83 63.862a10.673 10.673 0 0 0-6.305-7.093 10.982 10.982 0 0 0-4.987-7.225 9.5 9.5 0 0 0-2.627 6.437 9.139 9.139 0 0 0 9.2 9.2 7.618 7.618 0 0 0 4.719-1.319z"/><path class="i" d="M41.771 61.103a6.911 6.911 0 0 1-1.576-4.2 6.359 6.359 0 0 1 2.1-4.729 5.723 5.723 0 0 0-.788-.919 6.435 6.435 0 0 0-2.1 4.86 6.3 6.3 0 0 0 2.364 4.988zM44.661 56.899v1.836a1.314 1.314 0 0 0 2.627 0v-.263a10.737 10.737 0 0 0-2.627-1.573z"/><path class="e" d="M50.835 63.862a8.4 8.4 0 0 0-1.051-2.5 6.356 6.356 0 0 1-3.809 1.314 6.5 6.5 0 0 1-6.568-6.568 6.436 6.436 0 0 1 2.1-4.86 8.016 8.016 0 0 0-2.1-1.576 9.5 9.5 0 0 0-2.627 6.436 9.138 9.138 0 0 0 9.195 9.2 8.807 8.807 0 0 0 4.86-1.446z"/><path class="h" d="M50.441 62.679a9.082 9.082 0 0 1-3.284 1.313 1.4 1.4 0 0 0-1.182 1.314 8.809 8.809 0 0 0 4.86-1.445z"/><path class="f" d="M39.407 49.675a9.5 9.5 0 0 0-2.627 6.436h.131a1.4 1.4 0 0 0 1.313-1.182 8.174 8.174 0 0 1 2.365-4.6 5.325 5.325 0 0 1-1.182-.654z"/><circle class="e" cx="9.195" cy="9.195" r="9.195" transform="translate(24.958 49.544)"/><path class="h" d="M32.839 65.306a9.1 9.1 0 0 0 .391 2.624h.919a9.164 9.164 0 0 0 8.8-11.822h-.919a9.138 9.138 0 0 0-9.191 9.198z"/><path class="f" d="M34.153 49.544a9.2 9.2 0 1 0 9.2 9.2 9.138 9.138 0 0 0-9.2-9.2zm0 15.763a6.568 6.568 0 1 1 6.568-6.568 6.5 6.5 0 0 1-6.568 6.568z"/><path class="e" d="M34.153 67.803a9.028 9.028 0 0 0 9.195-9.064h-.131a1.4 1.4 0 0 0-1.313 1.182 7.943 7.943 0 0 1-2.5 4.729 7.444 7.444 0 0 1-4.072 1.97 1.177 1.177 0 0 0-1.179 1.183z"/><path class="g" d="M34.153 49.675a9.028 9.028 0 0 0-9.2 9.064h.131a1.4 1.4 0 0 0 1.314-1.182 7.941 7.941 0 0 1 2.5-4.729 7.442 7.442 0 0 1 4.072-1.97 1.177 1.177 0 0 0 1.183-1.183z"/><path class="h" d="M28.505 59.658a6.5 6.5 0 0 1 6.568-6.568 6.2 6.2 0 0 1 4.2 1.576 6.548 6.548 0 0 0-11.691 4.072 6.3 6.3 0 0 0 2.364 4.992 6.161 6.161 0 0 1-1.441-4.072z"/><path class="f" d="M38.094 62.811a.483.483 0 0 1-.394-.131.635.635 0 0 1 0-.92 4.383 4.383 0 0 0 1.182-3.021.657.657 0 0 1 1.314 0 6.065 6.065 0 0 1-1.445 3.941 1.428 1.428 0 0 1-.657.131z"/><path d="M32.946 37.495a.313.313 0 0 0-.231-.09h-1.719a3.48 3.48 0 0 0-.643-1.448h2.342a.309.309 0 0 0 .322-.322V34.61a.309.309 0 0 0-.322-.322h-8.364a.31.31 0 0 0-.322.322v1.337a.326.326 0 0 0 .322.322h1.458q2.121 0 2.694 1.136h-4.152a.31.31 0 0 0-.322.322v1.024a.31.31 0 0 0 .322.322h4.292a1.964 1.964 0 0 1-1.03 1.257 4.537 4.537 0 0 1-2.136.432h-1.126a.326.326 0 0 0-.322.322v1.276a.3.3 0 0 0 .09.221q1.93 2.051 5.006 5.74a.3.3 0 0 0 .251.121h1.96a.292.292 0 0 0 .292-.181.275.275 0 0 0-.04-.342q-2.935-3.6-4.614-5.388a5.1 5.1 0 0 0 2.775-1.106 3.758 3.758 0 0 0 1.3-2.352h1.689a.31.31 0 0 0 .322-.322v-1.025a.313.313 0 0 0-.094-.231z" fill="#89c763"/><path class="h" d="M34.153 62.679a1.241 1.241 0 0 1-1.314-1.314v-5.254a1.314 1.314 0 1 1 2.627 0v5.254a1.241 1.241 0 0 1-1.313 1.314z"/><g transform="translate(31.526 56.111)"><path class="e" d="M8.67.132a7.68 7.68 0 0 1 .525 2.5A6.5 6.5 0 0 1 2.627 9.2a4.466 4.466 0 0 1-1.314-.131V9.2a9.1 9.1 0 0 0 .391 2.619h.919a9.164 9.164 0 0 0 8.8-11.822h-.919A8.681 8.681 0 0 0 8.67.132z"/><circle class="e" cx="9.195" cy="9.195" r="9.195" transform="translate(0 1.314)"/></g><path class="f" d="M40.721 57.425a9.2 9.2 0 1 0 9.195 9.195 9.139 9.139 0 0 0-9.195-9.195zm0 15.763a6.568 6.568 0 1 1 6.568-6.568 6.5 6.5 0 0 1-6.568 6.568z"/><path class="e" d="M40.721 75.684a9.028 9.028 0 0 0 9.2-9.064h-.132a1.4 1.4 0 0 0-1.314 1.182 7.941 7.941 0 0 1-2.5 4.729 7.442 7.442 0 0 1-4.072 1.97 1.177 1.177 0 0 0-1.182 1.183z"/><path class="g" d="M40.721 57.556a9.028 9.028 0 0 0-9.2 9.064h.131a1.4 1.4 0 0 0 1.314-1.182 7.941 7.941 0 0 1 2.5-4.729 7.444 7.444 0 0 1 4.072-1.97 1.177 1.177 0 0 0 1.183-1.183z"/><path class="h" d="M35.073 67.539a6.5 6.5 0 0 1 6.568-6.568 6.2 6.2 0 0 1 4.2 1.576 6.548 6.548 0 0 0-11.691 4.072 6.3 6.3 0 0 0 2.364 4.991 6.161 6.161 0 0 1-1.441-4.071z"/><path class="f" d="M44.662 70.692a.482.482 0 0 1-.394-.131.635.635 0 0 1 0-.92 4.384 4.384 0 0 0 1.182-3.021.657.657 0 0 1 1.314 0 6.066 6.066 0 0 1-1.445 3.941 1.428 1.428 0 0 1-.657.131z"/><path class="h" d="M40.716 70.56a1.241 1.241 0 0 1-1.314-1.313v-5.254a1.314 1.314 0 0 1 2.627 0v5.254a1.241 1.241 0 0 1-1.313 1.313z"/></g></svg>