<svg xmlns="http://www.w3.org/2000/svg" width="65.051" height="51.2" viewBox="0 0 65.051 51.2"><defs><style>.a{fill:#fff;}</style></defs><g transform="translate(0 -44.8)"><g transform="translate(0 44.8)"><g transform="translate(0 0)"><path class="a" d="M62.887,52.777a6.994,6.994,0,0,0-5.132-2.164H47.49v-.124a5.552,5.552,0,0,0-1.67-4.019A5.658,5.658,0,0,0,41.8,44.8H23.25A5.7,5.7,0,0,0,17.5,50.489v.124H7.3a6.994,6.994,0,0,0-5.132,2.164A7.352,7.352,0,0,0,0,57.909V88.7a6.994,6.994,0,0,0,2.164,5.132A7.352,7.352,0,0,0,7.3,96H57.754a6.994,6.994,0,0,0,5.132-2.164A7.352,7.352,0,0,0,65.051,88.7V57.909A6.994,6.994,0,0,0,62.887,52.777ZM61.835,88.7h-.062a4.011,4.011,0,0,1-4.019,4.019H7.3A4.011,4.011,0,0,1,3.277,88.7V57.909A4.011,4.011,0,0,1,7.3,53.89H19.231a1.663,1.663,0,0,0,1.67-1.67V50.427a2.328,2.328,0,0,1,2.412-2.412H41.8a2.328,2.328,0,0,1,2.412,2.412V52.22a1.663,1.663,0,0,0,1.67,1.67H57.816a4.011,4.011,0,0,1,4.019,4.019Z" transform="translate(0 -44.8)"/><path class="a" d="M127.212,130.8a15.2,15.2,0,1,0,10.759,4.452A15.239,15.239,0,0,0,127.212,130.8Zm8.41,23.683a11.943,11.943,0,0,1-16.819,0,11.821,11.821,0,0,1-3.463-8.41,12.084,12.084,0,0,1,3.463-8.41,11.821,11.821,0,0,1,8.41-3.463,12.084,12.084,0,0,1,8.41,3.463,11.821,11.821,0,0,1,3.463,8.41A11.571,11.571,0,0,1,135.621,154.483Z" transform="translate(-94.686 -117.505)"/><circle class="a" cx="3.03" cy="3.03" r="3.03" transform="translate(51.509 13.233)"/></g></g></g></svg>