<svg xmlns="http://www.w3.org/2000/svg" width="554.332" height="489.603"><defs><style>.a{fill:#173d7a}.b{fill:#5793ce}.c{fill:#d4ecff}.d{fill:#396caa}.e{fill:#274f89}.f{fill:#fff}.g{fill:#ffc2b0}.h{fill:#ea9c92}.i{fill:#01d35a}</style></defs><path class="a" d="M529.498 379.601a34.623 34.623 0 0 0-49.52-29.746 40.642 40.642 0 0 0-72.118-13.583 40.642 40.642 0 0 0-58.794 36.363v.02a28.417 28.417 0 1 0-3.265 56.645 28.329 28.329 0 0 0 10.839-2.145 28.412 28.412 0 0 0 43.892 10.63 54.37 54.37 0 0 0 73.676 5.8 28.412 28.412 0 0 0 39.159-10.3 28.417 28.417 0 1 0 16.13-53.687zM281.294 91.209c.029-.744.057-1.489.057-2.24v-.6l-.463.042a50.858 50.858 0 0 0-60.211-41.09 61.173 61.173 0 0 0-112.01 28.8 38.381 38.381 0 0 0-57.221 33.453v.383a38 38 0 0 0 38 38h132.919c1.461 0 2.9-.072 4.337-.176 1.361.109 2.735.176 4.125.176a50.751 50.751 0 0 0 50.467-56.747z"/><g><path class="b" d="M501.25 277.137l.724 2.825-8.206 2.103-.724-2.825z"/><path class="b" d="M497.064 281.22l.724 2.825-8.206 2.103-.724-2.825z"/><path class="b" d="M492.878 285.303l.724 2.825-8.206 2.103-.724-2.825zM488.692 289.387l.724 2.825-8.206 2.103-.724-2.825z"/><path class="c" d="M284.856 487.576L101.03 381.444c-5.2-3-4.548-8.246 1.458-11.713l125.171-72.243c6-3.466 15.088-3.843 20.287-.84l183.825 106.13c5.2 3 4.549 8.247-1.456 11.713l-125.172 72.244c-6.004 3.468-15.088 3.844-20.287.841z"/><path class="a" d="M438.571 194.007L251.714 86.215c-2.406-1.388-4.618-1.6-6.4-.86l.007-.022-.307.142c-.023.012-.05.022-.073.035l-6.082 2.868 6.6 3.286c0 .125-.013.24-.013.365l.057 153.475c0 7.681 4.756 16.648 10.619 20.027L438 370.446l1.033 8.56 6.641-3.168c2.188-1.287 3.574-4.191 3.573-8.329l-.058-153.474c-.002-7.68-4.757-16.647-10.618-20.028z"/><path class="d" d="M438.571 194.007L251.714 86.215c-2.406-1.388-4.618-1.6-6.4-.86l.007-.022-.307.142c-.023.012-.05.022-.073.035l-6.082 2.868 6.6 3.286c0 .125-.013.24-.013.365l.038 101.149 85.042 67.186 115.464-58.109a20.965 20.965 0 0 0-7.419-8.248z"/><path class="e" d="M441.693 196.422l-18.312 7.7 13.826 10.652 11.545-4.916a26.872 26.872 0 0 0-7.059-13.436z"/><path class="c" d="M432.488 378.194L245.63 270.4c-5.861-3.38-10.615-12.347-10.617-20.027l-.058-153.474c0-7.681 4.746-11.167 10.607-7.786l186.859 107.792c5.861 3.381 10.614 12.348 10.617 20.029l.057 153.474c.003 7.681-4.746 11.167-10.607 7.786z"/><path class="f" d="M426.271 366.776L251.756 266.154c-5.363-3.095-9.714-11.3-9.715-18.329l-.054-140.441c0-7.029 4.344-10.219 9.707-7.124L426.21 200.884c5.363 3.093 9.714 11.3 9.715 18.327l.052 140.441c0 7.029-4.343 10.219-9.706 7.124z"/><path class="f" d="M426.271 366.776L251.756 266.154c-5.363-3.095-9.714-11.3-9.715-18.329l-.054-140.441c0-7.029 4.344-10.219 9.707-7.124L426.21 200.884c5.363 3.093 9.714 11.3 9.715 18.327l.052 140.441c0 7.029-4.343 10.219-9.706 7.124z"/><path class="a" d="M435.279 382.96l-25.128-3.318-162.2-93.649c-5.2-3-14.283-2.625-20.287.842l-114.942 66.334-15.195-2.006v8.622h.015c-.1 1.991 1.035 3.909 3.488 5.326l183.826 106.13c5.2 3 14.283 2.626 20.287-.84l125.171-72.243c3.378-1.951 5.063-4.464 4.964-6.824z"/><path class="d" d="M313.405 323.786l-11.523-6.654h-126.7l-62.46 36.037-15.195-2.006v8.622h.015c-.1 1.991 1.035 3.909 3.488 5.326l183.826 106.127a19.019 19.019 0 0 0 10.47 1.963z"/><path class="b" d="M104.269 352.054l-6.742-.892v8.622h.015c-.1 1.991 1.035 3.909 3.488 5.326l3.24 1.87z"/><path class="e" d="M286.708 472.102c4.928 1.87 11.975 1.463 17.238-1.07v-19.229h-17.238z"/><path class="c" d="M284.856 462.631L101.03 356.499c-5.2-3-4.548-8.246 1.458-11.713l125.171-72.243c6-3.466 15.088-3.843 20.287-.84l183.825 106.13c5.2 3 4.549 8.247-1.456 11.713L305.143 461.79c-6.004 3.469-15.088 3.844-20.287.841z"/><path class="f" d="M430.314 386.399l-125.171 72.244c-6 3.466-15.088 3.843-20.287.842L101.03 353.352a6.848 6.848 0 0 1-3.233-3.536c-.813 2.46.225 4.946 3.233 6.686l183.826 106.13c5.2 3 14.283 2.626 20.287-.84l125.171-72.245c4.036-2.33 5.643-5.461 4.689-8.177-.591 1.791-2.158 3.568-4.689 5.029z"/><path class="a" d="M179.215 321.364l-8.317-4.8c-.668-.385-.585-1.058.187-1.5l9.817-5.669a2.9 2.9 0 0 1 2.606-.107l8.317 4.8c.668.387.583 1.06-.187 1.5l-9.819 5.668a2.9 2.9 0 0 1-2.604.108zM192.06 328.78l-8.317-4.8c-.668-.385-.585-1.058.187-1.5l9.817-5.669a2.9 2.9 0 0 1 2.606-.107l8.317 4.8c.667.387.583 1.06-.188 1.5l-9.817 5.668a2.9 2.9 0 0 1-2.605.108zM204.903 336.196l-8.317-4.8c-.667-.387-.583-1.06.188-1.5l9.817-5.668a2.887 2.887 0 0 1 2.6-.108l8.317 4.8c.668.387.585 1.06-.187 1.5l-9.817 5.668a2.9 2.9 0 0 1-2.601.108zM222.669 330.071l-8.317-4.8c-.668-.385-.585-1.058.187-1.5l8.241-4.758a2.89 2.89 0 0 1 2.606-.108l8.317 4.8c.667.387.583 1.06-.188 1.5l-8.241 4.758a2.9 2.9 0 0 1-2.605.108zM235.512 337.487l-8.317-4.8c-.667-.387-.583-1.06.188-1.5l8.241-4.758a2.9 2.9 0 0 1 2.6-.108l8.317 4.8c.668.385.585 1.058-.187 1.5l-8.241 4.758a2.9 2.9 0 0 1-2.601.108zM248.356 344.903l-8.317-4.8c-.668-.387-.583-1.06.187-1.5l8.242-4.758a2.9 2.9 0 0 1 2.6-.108l8.317 4.8c.668.385.585 1.058-.187 1.5l-8.241 4.758a2.89 2.89 0 0 1-2.601.108zM261.202 352.319l-8.317-4.8c-.668-.387-.585-1.06.187-1.5l8.241-4.758a2.9 2.9 0 0 1 2.606-.108l8.317 4.8c.668.385.583 1.058-.187 1.5l-8.242 4.759a2.891 2.891 0 0 1-2.605.107zM274.047 359.734l-8.317-4.8c-.668-.387-.585-1.06.187-1.5l8.241-4.758a2.9 2.9 0 0 1 2.606-.108l8.317 4.8c.668.385.583 1.058-.187 1.5l-8.242 4.759a2.892 2.892 0 0 1-2.605.107zM286.89 367.151l-8.317-4.8c-.667-.387-.583-1.06.188-1.5l8.241-4.758a2.9 2.9 0 0 1 2.6-.108l8.319 4.8c.667.385.583 1.058-.188 1.5l-8.24 4.759a2.9 2.9 0 0 1-2.603.107zM299.734 374.566l-8.317-4.8c-.668-.385-.583-1.06.187-1.5l8.242-4.758a2.9 2.9 0 0 1 2.6-.108l8.317 4.8c.668.385.585 1.058-.187 1.5l-8.241 4.759a2.9 2.9 0 0 1-2.601.107zM312.58 381.982l-8.317-4.8c-.668-.385-.585-1.06.187-1.5l8.24-4.758a2.9 2.9 0 0 1 2.606-.108l8.317 4.8c.668.385.585 1.058-.187 1.5l-8.242 4.758a2.9 2.9 0 0 1-2.604.108zM325.425 389.398l-8.317-4.8c-.668-.385-.585-1.058.187-1.5l8.24-4.758a2.9 2.9 0 0 1 2.606-.108l8.317 4.8c.668.385.583 1.06-.187 1.5l-8.242 4.758a2.9 2.9 0 0 1-2.604.108zM338.267 396.814l-8.317-4.8c-.667-.385-.583-1.058.188-1.5l8.241-4.759a2.892 2.892 0 0 1 2.6-.107l8.319 4.8c.667.385.583 1.06-.188 1.5l-8.241 4.758a2.9 2.9 0 0 1-2.602.108z"/><path class="d" d="M241.595 326.561l-8.319-4.8c-.667-.387-.583-1.06.188-1.5l8.241-4.758a2.9 2.9 0 0 1 2.606-.108l8.317 4.8c.667.385.583 1.058-.188 1.5l-8.24 4.758a2.887 2.887 0 0 1-2.605.108zM228.558 319.034l-8.317-4.8c-.668-.385-.585-1.058.187-1.5l8.241-4.759a2.9 2.9 0 0 1 2.606-.108l8.317 4.8c.668.385.583 1.06-.187 1.5l-8.242 4.758a2.9 2.9 0 0 1-2.605.109z"/><path class="a" d="M215.499 311.496l-17.913-10.342c-.668-.387-.585-1.06.187-1.5l8.241-4.758a2.9 2.9 0 0 1 2.606-.108l17.912 10.342c.668.387.585 1.06-.187 1.5l-8.241 4.758a2.9 2.9 0 0 1-2.605.108zM224.627 302.327l-14.536-8.392c-.668-.387-.585-1.06.187-1.5l8.24-4.758a2.9 2.9 0 0 1 2.606-.108l14.536 8.394c.668.385.585 1.058-.187 1.5l-8.241 4.759a2.9 2.9 0 0 1-2.605.105z"/><path class="d" d="M254.437 333.976l-8.317-4.8c-.668-.387-.583-1.06.187-1.5l8.242-4.758a2.9 2.9 0 0 1 2.6-.108l8.317 4.8c.668.385.585 1.058-.187 1.5l-8.241 4.758a2.89 2.89 0 0 1-2.601.108z"/><path class="a" d="M267.287 341.392l-8.317-4.8c-.668-.387-.583-1.06.187-1.5l8.242-4.758a2.9 2.9 0 0 1 2.6-.108l8.317 4.8c.668.385.585 1.058-.187 1.5l-8.24 4.759a2.9 2.9 0 0 1-2.602.107zM280.124 348.807l-8.317-4.8c-.668-.385-.585-1.06.187-1.5l8.24-4.758a2.9 2.9 0 0 1 2.606-.108l8.317 4.8c.668.385.583 1.058-.187 1.5l-8.242 4.758a2.891 2.891 0 0 1-2.604.108zM292.972 356.224l-8.319-4.8c-.667-.385-.583-1.06.188-1.5l8.24-4.758a2.9 2.9 0 0 1 2.606-.108l8.317 4.8c.667.385.583 1.058-.188 1.5l-8.241 4.758a2.9 2.9 0 0 1-2.603.108zM305.815 363.64l-8.317-4.8c-.667-.385-.583-1.058.188-1.5l8.24-4.758a2.9 2.9 0 0 1 2.6-.108l8.317 4.8c.668.385.585 1.058-.187 1.5l-8.241 4.758a2.9 2.9 0 0 1-2.6.108zM318.66 371.055l-8.317-4.8c-.668-.385-.583-1.058.187-1.5l8.242-4.758a2.9 2.9 0 0 1 2.6-.108l8.317 4.8c.668.385.585 1.058-.187 1.5l-8.241 4.758a2.9 2.9 0 0 1-2.601.108zM331.506 378.471l-8.317-4.8c-.668-.385-.585-1.058.187-1.5l8.241-4.758a2.9 2.9 0 0 1 2.606-.107l8.317 4.8c.668.387.583 1.06-.187 1.5l-8.242 4.758a2.9 2.9 0 0 1-2.605.107zM344.35 385.887l-8.317-4.8c-.668-.385-.585-1.058.187-1.5l8.241-4.759a2.9 2.9 0 0 1 2.606-.107l8.317 4.8c.667.385.583 1.06-.188 1.5l-8.241 4.758a2.9 2.9 0 0 1-2.605.108zM357.193 393.303l-8.317-4.8c-.667-.385-.583-1.058.188-1.5l8.241-4.758a2.887 2.887 0 0 1 2.6-.108l8.317 4.8c.668.387.585 1.06-.187 1.5l-8.241 4.758a2.9 2.9 0 0 1-2.601.108zM380.028 406.486l-18.148-10.477c-.668-.387-.585-1.06.187-1.5l8.242-4.758a2.9 2.9 0 0 1 2.6-.108l18.147 10.479c.668.385.585 1.058-.187 1.5l-8.24 4.758a2.9 2.9 0 0 1-2.601.106zM405.035 392.048l-15.318-8.838c-.667-.387-.583-1.06.188-1.5l8.24-4.758a2.9 2.9 0 0 1 2.6-.108l15.318 8.844c.668.385.585 1.058-.187 1.5l-8.24 4.759a2.9 2.9 0 0 1-2.601.101zM276.931 332.522l-8.317-4.8c-.668-.385-.583-1.06.187-1.5l8.242-4.758a2.9 2.9 0 0 1 2.6-.108l8.317 4.8c.668.385.585 1.058-.187 1.5l-8.241 4.758a2.9 2.9 0 0 1-2.601.108zM263.768 324.925l-8.317-4.8c-.668-.385-.585-1.058.187-1.5l8.241-4.759a2.9 2.9 0 0 1 2.606-.107l8.317 4.8c.668.387.583 1.06-.187 1.5l-8.242 4.758a2.9 2.9 0 0 1-2.605.108z"/><path class="d" d="M250.603 317.325l-8.317-4.8c-.668-.387-.583-1.06.187-1.5l8.242-4.758a2.887 2.887 0 0 1 2.6-.108l8.317 4.8c.668.387.585 1.06-.187 1.5l-8.241 4.758a2.9 2.9 0 0 1-2.601.108z"/><path class="a" d="M237.44 309.725l-8.317-4.8c-.668-.387-.585-1.06.187-1.5l8.24-4.758a2.9 2.9 0 0 1 2.606-.108l8.317 4.8c.668.385.583 1.058-.187 1.5l-8.242 4.758a2.887 2.887 0 0 1-2.604.108zM289.776 339.941l-8.317-4.8c-.668-.385-.585-1.058.187-1.5l8.242-4.758a2.9 2.9 0 0 1 2.6-.108l8.317 4.8c.668.385.585 1.058-.187 1.5l-8.242 4.758a2.9 2.9 0 0 1-2.6.108zM302.619 347.353l-8.317-4.8c-.668-.385-.585-1.058.187-1.5l8.241-4.759a2.9 2.9 0 0 1 2.606-.107l8.317 4.8c.668.385.583 1.06-.187 1.5l-8.242 4.758a2.9 2.9 0 0 1-2.605.108zM315.466 354.773l-8.319-4.8c-.667-.385-.583-1.058.188-1.5l8.241-4.759a2.9 2.9 0 0 1 2.606-.107l8.317 4.8c.667.387.583 1.06-.188 1.5l-8.241 4.758a2.9 2.9 0 0 1-2.604.108zM328.308 362.184l-8.316-4.8c-.668-.385-.583-1.058.187-1.5l8.242-4.759a2.892 2.892 0 0 1 2.6-.107l8.317 4.8c.668.387.585 1.06-.187 1.5l-8.241 4.758a2.9 2.9 0 0 1-2.602.108zM341.154 369.604l-8.317-4.8c-.668-.385-.585-1.058.187-1.5l8.242-4.759a2.891 2.891 0 0 1 2.6-.107l8.317 4.8c.668.387.585 1.06-.187 1.5l-8.241 4.758a2.9 2.9 0 0 1-2.601.108zM353.999 377.016l-8.317-4.8c-.668-.387-.585-1.06.187-1.5l8.241-4.758a2.89 2.89 0 0 1 2.606-.108l8.317 4.8c.668.387.583 1.06-.187 1.5l-8.242 4.758a2.9 2.9 0 0 1-2.605.108zM366.844 384.436l-8.319-4.8c-.667-.385-.583-1.058.188-1.5l8.241-4.758a2.9 2.9 0 0 1 2.606-.108l8.317 4.8c.667.385.583 1.058-.188 1.5l-8.241 4.758a2.892 2.892 0 0 1-2.604.108zM379.686 391.848l-8.317-4.8c-.668-.387-.583-1.06.187-1.5l8.242-4.758a2.9 2.9 0 0 1 2.6-.108l8.317 4.8c.668.385.585 1.058-.187 1.5l-8.235 4.766a2.89 2.89 0 0 1-2.607.1zM392.531 399.267l-8.317-4.8c-.668-.387-.583-1.06.187-1.5l8.242-4.758a2.9 2.9 0 0 1 2.6-.108l8.317 4.8c.668.385.585 1.058-.187 1.5l-8.241 4.758a2.89 2.89 0 0 1-2.601.108zM270.169 314.186l-8.317-4.8c-.668-.385-.585-1.058.187-1.5l8.241-4.758a2.9 2.9 0 0 1 2.606-.108l8.317 4.8c.667.385.583 1.058-.188 1.5l-8.241 4.758a2.9 2.9 0 0 1-2.605.108zM257.387 306.804l-8.317-4.8c-.668-.385-.583-1.058.187-1.5l8.242-4.769a2.9 2.9 0 0 1 2.6-.108l8.317 4.8c.668.385.585 1.058-.187 1.5l-8.241 4.758a2.9 2.9 0 0 1-2.601.119zM244.607 299.425l-8.317-4.8c-.668-.385-.585-1.058.187-1.5l8.241-4.758a2.9 2.9 0 0 1 2.606-.108l8.317 4.8c.668.387.583 1.06-.187 1.5l-8.242 4.758a2.9 2.9 0 0 1-2.605.108zM231.825 292.046l-8.317-4.8c-.667-.385-.583-1.058.188-1.5l8.241-4.758a2.9 2.9 0 0 1 2.6-.108l8.317 4.8c.668.387.585 1.06-.187 1.5l-8.24 4.758a2.9 2.9 0 0 1-2.602.108zM244.969 284.46l-8.317-4.8c-.668-.385-.585-1.06.187-1.5l2.725-1.573a2.892 2.892 0 0 1 2.6-.107l8.317 4.8c.668.387.585 1.06-.187 1.5l-2.725 1.573a2.9 2.9 0 0 1-2.6.107zM261.646 294.088l-8.317-4.8c-.667-.385-.583-1.058.188-1.5l2.723-1.573a2.9 2.9 0 0 1 2.606-.108l8.317 4.8c.668.385.583 1.058-.187 1.5l-2.725 1.573a2.9 2.9 0 0 1-2.605.108zM274.375 301.435l-8.317-4.8c-.668-.385-.585-1.06.187-1.5l2.725-1.573a2.892 2.892 0 0 1 2.6-.107l8.317 4.8c.668.385.585 1.06-.187 1.5l-2.725 1.573a2.891 2.891 0 0 1-2.6.107zM287.101 308.784l-8.317-4.8c-.667-.385-.583-1.058.188-1.5l2.723-1.573a2.9 2.9 0 0 1 2.606-.108l8.317 4.8c.668.385.583 1.058-.187 1.5l-2.725 1.573a2.9 2.9 0 0 1-2.605.108zM299.83 316.132l-8.317-4.8c-.668-.387-.585-1.06.187-1.5l2.725-1.573a2.892 2.892 0 0 1 2.6-.107l8.317 4.8c.668.385.585 1.06-.187 1.5l-2.725 1.573a2.891 2.891 0 0 1-2.6.107zM370.885 357.156l-8.319-4.8c-.667-.385-.583-1.058.188-1.5l2.725-1.573a2.9 2.9 0 0 1 2.6-.108l8.317 4.8c.668.385.585 1.058-.187 1.5l-2.72 1.571a2.9 2.9 0 0 1-2.604.11zM383.609 364.503l-8.317-4.8c-.668-.387-.585-1.06.187-1.5l2.725-1.573a2.9 2.9 0 0 1 2.6-.108l8.319 4.8c.667.387.583 1.06-.188 1.5l-2.725 1.573a2.891 2.891 0 0 1-2.601.108zM396.338 371.852l-8.317-4.8c-.666-.385-.583-1.058.188-1.5l2.723-1.573a2.9 2.9 0 0 1 2.606-.108l8.317 4.8c.668.385.583 1.058-.187 1.5l-2.725 1.573a2.9 2.9 0 0 1-2.605.108zM409.066 379.2l-8.317-4.8c-.668-.387-.585-1.06.187-1.5l2.725-1.573a2.9 2.9 0 0 1 2.6-.108l8.317 4.8c.668.387.585 1.06-.187 1.5l-2.725 1.573a2.892 2.892 0 0 1-2.6.108zM283.012 321.599l-8.317-4.8c-.667-.385-.583-1.058.188-1.5l8.241-4.758a2.9 2.9 0 0 1 2.6-.108l8.317 4.8c.668.385.585 1.06-.187 1.5l-8.241 4.758a2.9 2.9 0 0 1-2.601.108zM295.856 329.018l-8.317-4.8c-.668-.385-.583-1.058.187-1.5l8.242-4.758a2.891 2.891 0 0 1 2.6-.107l8.317 4.8c.668.387.585 1.06-.187 1.5l-8.241 4.758a2.9 2.9 0 0 1-2.601.107zM308.702 336.43l-8.317-4.8c-.668-.385-.585-1.058.187-1.5l8.241-4.759a2.9 2.9 0 0 1 2.606-.107l8.317 4.8c.668.387.583 1.06-.187 1.5l-8.242 4.758a2.9 2.9 0 0 1-2.605.108zM321.547 343.849l-8.317-4.8c-.668-.385-.585-1.058.187-1.5l8.241-4.758a2.89 2.89 0 0 1 2.606-.108l8.317 4.8c.667.387.583 1.06-.188 1.5l-8.24 4.758a2.9 2.9 0 0 1-2.606.108zM334.39 351.262l-8.317-4.8c-.667-.385-.583-1.058.188-1.5l8.241-4.759a2.891 2.891 0 0 1 2.6-.107l8.319 4.8c.667.387.583 1.06-.188 1.5l-8.24 4.758a2.9 2.9 0 0 1-2.603.108zM347.234 358.68l-8.317-4.8c-.668-.387-.583-1.06.187-1.5l8.242-4.758a2.886 2.886 0 0 1 2.6-.108l8.317 4.8c.668.387.585 1.06-.187 1.5l-8.241 4.758a2.9 2.9 0 0 1-2.601.108zM360.08 366.093l-8.317-4.8c-.668-.387-.585-1.06.187-1.5l8.241-4.758a2.9 2.9 0 0 1 2.606-.108l8.317 4.8c.668.385.585 1.058-.187 1.5l-8.242 4.758a2.892 2.892 0 0 1-2.605.108zM372.925 373.512l-8.317-4.8c-.668-.387-.585-1.06.187-1.5l8.24-4.758a2.9 2.9 0 0 1 2.606-.108l8.317 4.8c.668.385.583 1.058-.187 1.5l-8.242 4.758a2.887 2.887 0 0 1-2.604.108zM385.772 380.925l-8.317-4.8c-.667-.387-.583-1.06.188-1.5l8.24-4.758a2.9 2.9 0 0 1 2.6-.108l8.319 4.8c.667.385.583 1.058-.188 1.5l-8.241 4.758a2.89 2.89 0 0 1-2.601.108zM209.578 322.514l-24.494-14.141c-.668-.387-.585-1.06.187-1.5l8.241-4.758a2.9 2.9 0 0 1 2.606-.108l24.495 14.143c.668.385.583 1.058-.187 1.5l-8.242 4.758a2.886 2.886 0 0 1-2.606.106zM367.377 413.617l-24.5-14.141c-.667-.387-.583-1.06.188-1.5l8.241-4.758a2.9 2.9 0 0 1 2.6-.108l24.5 14.143c.667.385.583 1.058-.188 1.5l-8.241 4.759a2.892 2.892 0 0 1-2.6.105zM316.009 400.343l-8.317-4.8c-.668-.385-.583-1.06.187-1.5l9.819-5.668a2.9 2.9 0 0 1 2.6-.108l8.317 4.8c.668.385.585 1.058-.187 1.5l-9.817 5.668a2.9 2.9 0 0 1-2.602.108zM222.732 346.491l-13.3-7.679c-.668-.387-.583-1.06.187-1.5l9.819-5.668a2.887 2.887 0 0 1 2.6-.108l13.3 7.679c.668.387.585 1.06-.187 1.5l-9.817 5.668a2.9 2.9 0 0 1-2.602.108zM303.631 393.198l-13.3-7.681c-.667-.385-.583-1.058.188-1.5l9.817-5.669a2.892 2.892 0 0 1 2.6-.107l13.3 7.679c.667.385.583 1.06-.188 1.5l-9.817 5.668a2.9 2.9 0 0 1-2.6.11zM241.264 357.189l-13.3-7.681c-.668-.385-.585-1.058.187-1.5l9.817-5.668a2.9 2.9 0 0 1 2.606-.108l13.3 7.681c.668.385.583 1.058-.187 1.5l-9.819 5.667a2.9 2.9 0 0 1-2.604.109z"/><path class="a" d="M240.663 342.281l57.832 33.389a.791.791 0 0 1 0 1.5l-10.012 5.781a2.877 2.877 0 0 1-2.6 0l-57.832-33.39zM351.907 413.788l9.265 5.349c.547.317.478.868-.153 1.233l-4.016 2.318a2.373 2.373 0 0 1-2.136.088l-9.264-5.349c-.548-.315-.48-.867.153-1.232l4.016-2.32a2.37 2.37 0 0 1 2.135-.087zM338.956 406.311l9.265 5.349c.547.317.478.868-.153 1.233l-4.016 2.318a2.37 2.37 0 0 1-2.135.088l-9.265-5.348c-.547-.317-.478-.868.153-1.233l4.016-2.32a2.375 2.375 0 0 1 2.135-.087zM326.112 398.895l9.264 5.349c.548.317.48.868-.153 1.233l-4.016 2.318a2.37 2.37 0 0 1-2.135.088l-9.265-5.349c-.547-.315-.478-.867.153-1.231l4.016-2.32a2.373 2.373 0 0 1 2.136-.088zM346.049 402.216l9.264 5.349c.548.315.48.867-.153 1.231l-4.016 2.32a2.37 2.37 0 0 1-2.135.088l-9.265-5.349c-.547-.317-.478-.868.153-1.233l4.016-2.318a2.374 2.374 0 0 1 2.136-.088z"/><g><path class="c" d="M359.838 219.612l-7.954-4.593a3.287 3.287 0 0 1-1.366-2.566c-.015-.992.57-1.45 1.308-1.023l7.954 4.593a3.287 3.287 0 0 1 1.366 2.566c.015.991-.566 1.45-1.308 1.023zM378.787 230.552l-11.73-6.772a3.285 3.285 0 0 1-1.365-2.566c-.017-.99.57-1.448 1.306-1.023l11.73 6.772a3.287 3.287 0 0 1 1.366 2.566c.016.992-.569 1.45-1.307 1.023zM355.896 262.033l-7.956-4.593a3.29 3.29 0 0 1-1.365-2.566c-.017-.992.57-1.45 1.308-1.023l7.954 4.593a3.287 3.287 0 0 1 1.366 2.566c.017.991-.568 1.45-1.307 1.023zM372.788 271.785l-11.73-6.772a3.288 3.288 0 0 1-1.365-2.566c-.017-.99.57-1.448 1.308-1.022l11.729 6.771a3.289 3.289 0 0 1 1.367 2.566c.014.991-.571 1.45-1.309 1.023zM338.026 214.467l-4.969-2.87a3.285 3.285 0 0 1-1.367-2.566c-.015-.99.57-1.448 1.308-1.022l4.969 2.868a3.28 3.28 0 0 1 1.365 2.566c.019.991-.568 1.451-1.306 1.024zM354.995 231.715l-15.183-8.767a3.281 3.281 0 0 1-1.365-2.566c-.017-.99.568-1.448 1.306-1.022l15.183 8.765a3.287 3.287 0 0 1 1.366 2.566c.016.992-.569 1.449-1.307 1.024zM345.024 240.858l-4.974-2.87a3.281 3.281 0 0 1-1.365-2.566c-.017-.99.568-1.448 1.306-1.023l4.969 2.87a3.287 3.287 0 0 1 1.367 2.566c.023.991-.565 1.453-1.303 1.023zM378.653 290.071l-13.275-7.664a3.278 3.278 0 0 1-1.365-2.566c-.017-.99.568-1.448 1.306-1.023l13.273 7.664a3.281 3.281 0 0 1 1.368 2.57c.018.987-.569 1.445-1.307 1.019zM343.49 254.868l-3.191-1.841a3.29 3.29 0 0 1-1.365-2.566c-.017-.99.57-1.448 1.308-1.023l3.19 1.843a3.283 3.283 0 0 1 1.365 2.565c.016.991-.569 1.449-1.307 1.022zM344.505 270.355l-3.96-2.288a3.287 3.287 0 0 1-1.366-2.566c-.015-.99.57-1.448 1.308-1.023l3.961 2.288a3.28 3.28 0 0 1 1.365 2.566c.015.985-.568 1.448-1.308 1.023zM359.916 279.252l-10.445-6.031a3.282 3.282 0 0 1-1.365-2.565c-.017-.992.57-1.45 1.306-1.023l10.445 6.029a3.285 3.285 0 0 1 1.365 2.566c.017.993-.569 1.451-1.306 1.024zM348.174 279.924l-7.509-4.334a3.281 3.281 0 0 1-1.365-2.566c-.017-.992.568-1.45 1.306-1.023l7.509 4.336a3.277 3.277 0 0 1 1.365 2.565c.014.988-.568 1.446-1.306 1.022zM390.049 296.681l-4.823-2.785a3.282 3.282 0 0 1-1.365-2.565c-.017-.992.57-1.45 1.306-1.023l4.823 2.785a3.283 3.283 0 0 1 1.366 2.565c.016.989-.569 1.45-1.307 1.023zM363.511 251.53l-13.273-7.662a3.281 3.281 0 0 1-1.365-2.566c-.017-.992.568-1.45 1.306-1.023l13.274 7.66a3.277 3.277 0 0 1 1.365 2.565c.016.994-.569 1.452-1.307 1.026zM363.067 243.823l-23.133-13.355a3.281 3.281 0 0 1-1.365-2.566c-.017-.992.568-1.45 1.306-1.023l23.133 13.356a3.281 3.281 0 0 1 1.365 2.566c.018.99-.571 1.449-1.306 1.022zM353.45 253.171l-13.273-7.662a3.286 3.286 0 0 1-1.365-2.566c-.017-.992.57-1.45 1.307-1.023l13.273 7.664a3.284 3.284 0 0 1 1.367 2.565c.014.99-.571 1.446-1.309 1.022zM373.578 257.341l-4.823-2.785a3.277 3.277 0 0 1-1.365-2.565c-.017-.992.568-1.45 1.306-1.023l4.823 2.785a3.284 3.284 0 0 1 1.366 2.565c.016.996-.569 1.45-1.307 1.023zM414.564 251.207l-28.558-16.488a3.278 3.278 0 0 1-1.365-2.566c-.017-.99.568-1.448 1.307-1.021l28.558 16.488a3.285 3.285 0 0 1 1.367 2.566c.014.99-.571 1.448-1.309 1.021zM356.376 269.759l-15.954-9.21a3.29 3.29 0 0 1-1.366-2.566c-.015-.992.57-1.45 1.308-1.023l15.954 9.212a3.281 3.281 0 0 1 1.365 2.566c.013.989-.569 1.447-1.307 1.021zM344.665 210.852l-11.73-6.772a3.287 3.287 0 0 1-1.366-2.566c-.015-.992.57-1.45 1.308-1.023l11.73 6.772a3.285 3.285 0 0 1 1.365 2.566c.016.991-.57 1.448-1.307 1.023zM347.738 287.12l-13.585-7.842a3.281 3.281 0 0 1-1.365-2.566c-.017-.992.568-1.45 1.307-1.023l13.585 7.844a3.284 3.284 0 0 1 1.366 2.566c.015.989-.57 1.447-1.308 1.021z"/></g><g><path class="c" d="M.385 298.932l69.974-40.741c13.861-8.006 26.935-9.27 36.812-3.573s15.313 17.658 15.313 33.662v5.128c-.5.335-1.013.662-1.543.985v-6.112c0-15.43-5.166-26.911-14.541-32.326s-21.9-4.144-35.268 3.571L1.158 300.269a.772.772 0 0 1-.772-1.336zM218.602 250.396V92.706c0-31.562 22.24-70.084 49.576-85.865 13.387-7.73 26.015-8.954 35.559-3.446s14.789 17.052 14.789 32.516v11l-1.543 1.543V35.911c0-14.885-4.979-25.956-14.021-31.176s-21.12-4-34.012 3.445c-26.911 15.538-48.8 53.458-48.8 84.53V250.4c0 26.163-15.395 57.129-36.27 75.761v-2.07c20.046-18.43 34.722-48.352 34.722-73.695z"/><path class="a" d="M318.526 51.728c2.533-2.406 14.348-12.828 31.589-15.465 19.526-2.985 27.594 19.849 27.594 19.849s2.26 11.86 2.178 18.881-.583 32.512-.583 32.512l-61.9-35.657v-.008a.766.766 0 0 1-.425-.68v-18.1c.519-.512 1.032-.817 1.547-1.332z"/><path class="c" d="M362.402 37.216L303.733 3.394l.23.843c-9.042-5.841-22.708-6.471-40.988 6.934-36.308 26.626-40.669 63.695-42.521 70.64s-1.09 50.953-1.09 50.953-.122 106.14-.242 118.485-3.714 26.195-10.65 41.149-24.75 33.1-24.75 33.1v21.6c2.843 23.358 12.768 28.8 27.533 30.137 11.917 1.073 24.613-7.531 34.759-16.908-.373.39-.615.638-.615.638v21.6c2.845 23.357 12.768 28.8 27.534 30.136s30.732-12.193 41.553-23.642 19.944-28.929 25.012-44.7 3.39-36.148 3.39-36.148.122-116.024.242-138.9.848-18.881 8.351-41.876 27.395-39.079 27.395-39.079l47.729-14.213z"/><path class="a" d="M260.268 410.767c-.8-1.093-11.258-8.1-13.921-20.447-1.481-6.869-1.332-17.308-1.332-17.308s.043-5.806.183-11.083c.117-.1.237-.2.353-.3v-2.07c-.1.088-.195.167-.29.253.04-1.192.085-2.31.137-3.258.3-5.488-3.751-17.186-3.751-17.186s-5.749-15.673-22.875-16.278c-15.2-.538-31.209 10.4-34.613 12.865v-7.078c-.225.153-.47.3-.7.45.018-.948.04-1.918.065-2.87.117-.1.237-.2.353-.3v-2.07c-.1.087-.195.167-.29.253.04-1.191.085-2.31.138-3.258.3-5.488-3.753-17.186-3.753-17.186s-5.749-15.675-22.874-16.279c-15.206-.537-31.209 10.4-34.614 12.867v-7.077c-.5.335-1.013.662-1.543.985v12.39c0 15.013 5 26.295 14.083 31.9l.037.042.317.183c.085.05.165.108.25.158.055.032.115.052.17.083l62.795 36.152c-.015-.022-.057-.058-.08-.083z"/><path class="c" d="M168.849 290.088s-.472-.242-1.3-.578c-.255-.123-.5-.267-.76-.383l-59.618-34.509a32 32 0 0 0-24.2-.907c-13.248 4.849-82.67 46.5-82.67 46.5l62.02 35.727.012-.007a.689.689 0 0 0 .165.045l61.5 35.432s34.794-21.555 58.865-35.462l1.543-.89c9.842-5.659 17.658-9.885 20.111-10.535 14.841-3.933 25.167.86 27.856 2.335z"/><path class="c" d="M232.37 326.856l.718.417s-.263-.167-.718-.417z"/><path class="a" d="M380.204 87.199c2.533-2.406 14.348-12.828 31.589-15.465 19.526-2.985 27.595 19.849 27.595 19.849s2.258 11.86 2.178 18.881-.583 32.512-.583 32.512l-61.9-35.657v-.008a.764.764 0 0 1-.425-.68v-18.1c.516-.512 1.031-.817 1.546-1.332z"/><path class="d" d="M272.332 413.573c6.824 0 14.38-2.278 22.2-6.792 27.14-15.668 49.216-53.911 49.216-85.245v-157.69c0-31.072 21.894-68.992 48.807-84.532 12.892-7.439 24.968-8.665 34.01-3.446s14.021 16.294 14.021 31.179v35.252a.772.772 0 0 0 1.543 0v-35.251c0-15.46-5.253-27.006-14.793-32.514s-22.167-4.283-35.553 3.446c-27.338 15.783-49.578 54.3-49.578 85.866v157.69c0 30.844-21.732 68.486-48.445 83.91-12.792 7.384-24.782 8.6-33.757 3.42s-13.916-16.171-13.916-30.944v-18.5c0-16.006-5.438-27.961-15.313-33.662s-22.947-4.433-36.81 3.571l-69.979 40.74a.771.771 0 1 0 .772 1.335l69.975-40.745c13.363-7.716 25.89-8.985 35.267-3.571s14.541 16.894 14.541 32.326v18.5c0 15.348 5.216 26.811 14.688 32.281a25.883 25.883 0 0 0 13.104 3.376z"/><path class="b" d="M277.16 202.496l-10.344-5.973a4.275 4.275 0 0 1-1.776-3.338c-.02-1.288.742-1.883 1.7-1.33l10.344 5.973a4.268 4.268 0 0 1 1.775 3.336c.023 1.291-.739 1.885-1.699 1.332zM299.126 215.177l-15.253-8.807a4.268 4.268 0 0 1-1.775-3.336c-.022-1.29.74-1.885 1.7-1.331l15.253 8.807a4.266 4.266 0 0 1 1.775 3.336c.021 1.29-.74 1.885-1.7 1.331zM275.989 163.071l-19.744-11.4a4.265 4.265 0 0 1-1.775-3.336c-.022-1.288.74-1.885 1.7-1.33l19.744 11.4a4.269 4.269 0 0 1 1.775 3.338c.021 1.286-.74 1.881-1.7 1.328zM263.024 174.96l-6.462-3.731a4.278 4.278 0 0 1-1.775-3.336c-.022-1.29.74-1.885 1.7-1.331l6.462 3.731a4.269 4.269 0 0 1 1.775 3.338c.022 1.287-.74 1.882-1.7 1.329zM261.027 193.18l-4.148-2.395a4.275 4.275 0 0 1-1.776-3.338c-.02-1.288.74-1.883 1.7-1.33l4.148 2.395a4.275 4.275 0 0 1 1.776 3.338c.02 1.288-.74 1.883-1.7 1.33zM287.063 188.837l-17.259-9.965a4.272 4.272 0 0 1-1.776-3.336c-.02-1.288.74-1.885 1.7-1.33l17.259 9.964a4.275 4.275 0 0 1 1.776 3.338c.02 1.288-.74 1.883-1.7 1.329zM286.485 178.818l-30.083-17.368a4.266 4.266 0 0 1-1.775-3.336c-.022-1.29.74-1.885 1.7-1.33l30.081 17.368a4.272 4.272 0 0 1 1.776 3.336c.021 1.288-.739 1.885-1.699 1.33zM273.981 190.973l-17.259-9.965a4.274 4.274 0 0 1-1.776-3.336c-.02-1.29.74-1.885 1.7-1.331l17.259 9.965a4.274 4.274 0 0 1 1.776 3.336c.02 1.289-.74 1.884-1.7 1.331zM300.153 196.395l-6.271-3.62a4.269 4.269 0 0 1-1.775-3.338c-.022-1.288.74-1.883 1.7-1.33l6.271 3.621a4.265 4.265 0 0 1 1.775 3.336c.021 1.292-.74 1.886-1.7 1.331zM282.286 147.333l-10.34-5.973a4.275 4.275 0 0 1-1.776-3.338c-.02-1.288.74-1.883 1.7-1.33l10.345 5.973a4.269 4.269 0 0 1 1.775 3.338c.018 1.291-.744 1.883-1.704 1.33zM306.926 161.56l-15.253-8.809a4.266 4.266 0 0 1-1.775-3.336c-.022-1.29.74-1.885 1.7-1.33l15.253 8.805a4.268 4.268 0 0 1 1.775 3.336c.021 1.293-.74 1.887-1.7 1.334z"/><path class="b" d="M277.16 202.496l-10.344-5.973a4.275 4.275 0 0 1-1.776-3.338c-.02-1.288.742-1.883 1.7-1.33l10.344 5.973a4.268 4.268 0 0 1 1.775 3.336c.023 1.291-.739 1.885-1.699 1.332zM299.126 215.177l-15.253-8.807a4.268 4.268 0 0 1-1.775-3.336c-.022-1.29.74-1.885 1.7-1.331l15.253 8.807a4.266 4.266 0 0 1 1.775 3.336c.021 1.29-.74 1.885-1.7 1.331zM253.922 140.645l-6.466-3.729a4.278 4.278 0 0 1-1.775-3.338c-.022-1.288.74-1.883 1.7-1.33l6.463 3.731a4.268 4.268 0 0 1 1.775 3.336c.025 1.288-.737 1.883-1.697 1.33zM275.989 163.071l-19.744-11.4a4.265 4.265 0 0 1-1.775-3.336c-.022-1.288.74-1.885 1.7-1.33l19.744 11.4a4.269 4.269 0 0 1 1.775 3.338c.021 1.286-.74 1.881-1.7 1.328zM263.024 174.96l-6.462-3.731a4.278 4.278 0 0 1-1.775-3.336c-.022-1.29.74-1.885 1.7-1.331l6.462 3.731a4.269 4.269 0 0 1 1.775 3.338c.022 1.287-.74 1.882-1.7 1.329zM306.753 238.954l-17.259-9.965a4.274 4.274 0 0 1-1.776-3.336c-.02-1.29.74-1.885 1.7-1.33l17.259 9.964a4.275 4.275 0 0 1 1.776 3.338c.02 1.288-.74 1.883-1.7 1.329zM261.027 193.18l-4.148-2.395a4.275 4.275 0 0 1-1.776-3.338c-.02-1.288.74-1.883 1.7-1.33l4.148 2.395a4.275 4.275 0 0 1 1.776 3.338c.02 1.288-.74 1.883-1.7 1.33zM262.349 213.316l-5.151-2.975a4.272 4.272 0 0 1-1.776-3.336c-.02-1.288.742-1.885 1.7-1.33l5.153 2.975a4.268 4.268 0 0 1 1.774 3.331c.02 1.293-.742 1.89-1.7 1.335zM282.386 224.886l-13.58-7.841a4.275 4.275 0 0 1-1.776-3.338c-.02-1.288.74-1.883 1.7-1.33l13.581 7.841a4.269 4.269 0 0 1 1.775 3.338c.022 1.288-.74 1.883-1.7 1.33zM267.118 225.758l-9.764-5.638a4.272 4.272 0 0 1-1.776-3.336c-.02-1.29.742-1.885 1.7-1.33l9.764 5.638a4.272 4.272 0 0 1 1.776 3.336c.022 1.288-.74 1.885-1.7 1.33zM287.063 188.837l-17.259-9.965a4.272 4.272 0 0 1-1.776-3.336c-.02-1.288.74-1.885 1.7-1.33l17.259 9.964a4.275 4.275 0 0 1 1.776 3.338c.02 1.288-.74 1.883-1.7 1.329zM286.485 178.818l-30.083-17.368a4.266 4.266 0 0 1-1.775-3.336c-.022-1.29.74-1.885 1.7-1.33l30.081 17.368a4.272 4.272 0 0 1 1.776 3.336c.021 1.288-.739 1.885-1.699 1.33zM273.981 190.973l-17.259-9.965a4.274 4.274 0 0 1-1.776-3.336c-.02-1.29.74-1.885 1.7-1.331l17.259 9.965a4.274 4.274 0 0 1 1.776 3.336c.02 1.289-.74 1.884-1.7 1.331zM300.153 196.395l-6.271-3.62a4.269 4.269 0 0 1-1.775-3.338c-.022-1.288.74-1.883 1.7-1.33l6.271 3.621a4.265 4.265 0 0 1 1.775 3.336c.021 1.292-.74 1.886-1.7 1.331zM277.786 212.543l-20.747-11.978a4.275 4.275 0 0 1-1.776-3.338c-.02-1.288.74-1.885 1.7-1.33l20.746 11.974a4.274 4.274 0 0 1 1.776 3.336c.02 1.294-.739 1.889-1.699 1.336zM262.554 135.94l-15.253-8.805a4.269 4.269 0 0 1-1.775-3.338c-.022-1.288.74-1.883 1.7-1.33l15.253 8.807a4.266 4.266 0 0 1 1.775 3.336c.021 1.29-.74 1.885-1.7 1.33zM266.552 235.118l-17.666-10.2a4.265 4.265 0 0 1-1.775-3.336c-.022-1.288.74-1.885 1.7-1.33l17.666 10.2a4.269 4.269 0 0 1 1.775 3.338c.021 1.287-.74 1.882-1.7 1.328zM274.729 295.29l-10.344-5.972a4.272 4.272 0 0 1-1.776-3.336c-.02-1.29.741-1.885 1.7-1.331l10.345 5.972a4.269 4.269 0 0 1 1.77 3.342c.027 1.283-.735 1.878-1.695 1.325zM296.695 307.971l-15.25-8.807a4.272 4.272 0 0 1-1.776-3.336c-.02-1.288.742-1.885 1.7-1.33l15.251 8.805a4.279 4.279 0 0 1 1.775 3.338c.021 1.288-.741 1.885-1.7 1.33zM273.558 255.865l-19.744-11.4a4.269 4.269 0 0 1-1.775-3.338c-.022-1.288.74-1.883 1.7-1.33l19.744 11.4a4.265 4.265 0 0 1 1.775 3.336c.021 1.295-.74 1.887-1.7 1.332zM260.592 267.749l-6.462-3.731a4.266 4.266 0 0 1-1.775-3.336c-.022-1.288.74-1.885 1.7-1.33l6.462 3.731a4.266 4.266 0 0 1 1.775 3.336c.022 1.292-.74 1.889-1.7 1.33zM258.596 285.97l-4.149-2.395a4.275 4.275 0 0 1-1.775-3.336c-.022-1.29.74-1.885 1.7-1.33l4.148 2.395a4.272 4.272 0 0 1 1.776 3.336c.02 1.292-.746 1.889-1.7 1.33zM284.631 281.631l-17.261-9.964a4.269 4.269 0 0 1-1.775-3.338c-.022-1.288.74-1.883 1.7-1.33l17.259 9.965a4.272 4.272 0 0 1 1.777 3.342c.02 1.285-.742 1.88-1.7 1.325zM284.053 271.613l-30.081-17.368a4.269 4.269 0 0 1-1.775-3.338c-.022-1.288.74-1.883 1.7-1.33l30.081 17.368a4.275 4.275 0 0 1 1.776 3.336c.02 1.29-.741 1.885-1.701 1.332zM271.55 283.766l-17.263-9.965a4.266 4.266 0 0 1-1.775-3.336c-.022-1.29.74-1.885 1.7-1.33l17.259 9.965a4.272 4.272 0 0 1 1.776 3.336c.023 1.289-.739 1.884-1.697 1.33zM297.721 289.19l-6.273-3.624a4.272 4.272 0 0 1-1.776-3.336c-.02-1.288.742-1.885 1.7-1.33l6.271 3.62a4.269 4.269 0 0 1 1.775 3.338c.025 1.291-.737 1.885-1.697 1.332z"/></g><path class="b" d="M77.786 400.61s-5.914-2.983-9.547 1.458-8.824 14.925-8.984 22.009 5.606 6.606 9.034 4.929 13.441-16.2 14.048-19.049-.715-6.694-1.678-7.447-2.873-1.9-2.873-1.9z"/><path class="c" d="M79.076 399.187l.273 6.127a3.472 3.472 0 0 1-1.731 3.186 6.809 6.809 0 0 1-4.561.71c-4.456-.717-4.853-1.988-5.171-8.114s11.19-1.909 11.19-1.909z"/><g><path class="b" d="M56.14 388.83s-5.914-2.983-9.545 1.458-8.824 14.925-8.985 22.009 5.606 6.6 9.034 4.928 13.441-16.2 14.048-19.047-.715-6.7-1.678-7.447-2.874-1.901-2.874-1.901z"/><path class="c" d="M57.427 387.404l.275 6.127a3.476 3.476 0 0 1-1.731 3.188 6.824 6.824 0 0 1-4.563.71c-4.454-.717-4.853-1.99-5.171-8.116s11.19-1.909 11.19-1.909z"/><path class="a" d="M110.199 274.917c-1.751-28.479-30.844 4.189-30.844 4.189l-19.911 19.518-17.931 19.7a17.67 17.67 0 0 0-4.453 14.2l7.252 55.229a5.429 5.429 0 0 0 5.443 4.718 18.6 18.6 0 0 0 2.688-.235 6.747 6.747 0 0 0 5.992-7.161l-1.327-51.656 37.655-22.7s17.185-7.325 15.436-35.802z"/></g><path class="a" d="M131.845 285.767c-1.75-28.479-30.842 4.191-30.842 4.191l-19.912 19.516-17.929 19.7a17.671 17.671 0 0 0-4.454 14.2l7.254 55.231a5.429 5.429 0 0 0 5.443 4.718 18.4 18.4 0 0 0 2.686-.237 6.748 6.748 0 0 0 5.994-7.159l-1.327-51.656 37.655-22.7s17.182-7.323 15.432-35.804z"/><path class="b" d="M114.634 194.346c22.057 9.145 21.614 22.182 21.614 22.182s-4.319 47.8-2.845 79.721c.615 13.345-70.9 14.363-60.237-21.239 12.577-41.978 7.862-75.961 13.75-81.085s22.013-1.943 27.718.421z"/><path class="g" d="M121.73 205.907c-1.153 4.479-7.021 6.839-13.1 5.273s-10.082-6.469-8.927-10.947 7.021-6.839 13.1-5.271 10.081 6.467 8.927 10.945z"/><path class="f" d="M112.348 212.713a15.98 15.98 0 0 1-3.986-.513 14.669 14.669 0 0 1-7.732-4.736 8.433 8.433 0 0 1-1.953-7.498c1.3-5.036 7.751-7.742 14.39-6.027a14.673 14.673 0 0 1 7.732 4.734 8.434 8.434 0 0 1 1.953 7.494c-1.034 4.014-5.341 6.546-10.404 6.546zm-3.321-17.183c-4.1 0-7.521 1.9-8.309 4.966a6.386 6.386 0 0 0 1.547 5.634 12.559 12.559 0 0 0 6.624 4.028c5.506 1.418 10.813-.607 11.822-4.514a6.388 6.388 0 0 0-1.547-5.634 12.582 12.582 0 0 0-6.624-4.028 14.152 14.152 0 0 0-3.513-.452z"/><path class="g" d="M105.79 193.352s.19.885-.192 7.874c-.12 2.2 7.574 4.251 9.564 2.261s1.193-4.056 1.67-11.535-11.042 1.4-11.042 1.4z"/><path class="h" d="M116.833 191.952s-1.895 6.934-11.233 9.594l.142-6.3z"/><ellipse class="g" cx="16.978" cy="16.978" rx="16.978" ry="16.978" transform="rotate(-59.844 202.043 20.172)"/><path class="h" d="M110.211 179.209s-9.347 4-15.819 4.049-5.048-5.374-5.048-5.374l19.214-2.776z"/><path class="i" d="M92.462 180.263s8.142-3.456 15.286-2.015a7.486 7.486 0 0 1 4.316 2.565 2.546 2.546 0 0 0 1.306.945c1.267.287 3.341-4.968 5.8-5.088s4.1 1.623 2.086 4.854-1.336 6.851-.408 7.369 10.782-7.027 2.091-24.243-30.766-7.944-34.2-4.454c0 0-3.618 3.151-6.559.347.004 0-3.292 24.7 10.282 19.72z"/><path class="g" d="M123.874 251.45v12.917a5.261 5.261 0 0 1-1.716 3.888l-26.533 24.19 3.016 4.609 35.039-25.411a7.126 7.126 0 0 0 2.9-5.021l2.368-22.524z"/><path class="b" d="M134.382 210.071s8.049 12.1 11.047 43.969c0 0-13.75 4.448-21.554 1.923s10.507-45.892 10.507-45.892z"/><path class="d" d="M122.407 225.378s-3.153 16.864-3.331 24.792a5.061 5.061 0 0 0 3.331 4.886z"/><path class="b" d="M115.523 309.242l-5.864-.775-37.855-21.855a5.261 5.261 0 0 0-4.734.2l-26.825 15.481-3.546-.468v3.53a1.38 1.38 0 0 0 .815 1.243l42.9 24.768a5.261 5.261 0 0 0 4.734-.195l29.213-16.861a1.914 1.914 0 0 0 1.158-1.591z"/><path class="d" d="M87.079 295.429l-2.69-1.553H54.822l-14.576 8.41-3.546-.468v3.53a1.38 1.38 0 0 0 .815 1.243l42.9 24.768a4.426 4.426 0 0 0 2.443.458z"/><path class="b" d="M38.272 302.026l-1.573-.207v3.53a1.38 1.38 0 0 0 .815 1.243l.755.437z"/><path class="f" d="M80.849 331.561a5.49 5.49 0 0 0 4.023-.25v-6.005h-4.023z"/><path class="f" d="M80.417 327.832l-42.9-24.768c-1.213-.7-1.061-1.925.34-2.733l29.213-16.859a5.256 5.256 0 0 1 4.734-.2l42.9 24.768c1.213.7 1.061 1.925-.34 2.733l-29.213 16.861a5.261 5.261 0 0 1-4.734.198z"/><path class="c" d="M79.691 324.079l-35.672-20.6c-1.008-.583-.882-1.6.283-2.273l15.655-8.8a4.371 4.371 0 0 1 3.936-.163l35.672 20.594c1.008.583.883 1.6-.283 2.273l-15.653 8.8a4.384 4.384 0 0 1-3.938.169z"/><path class="g" d="M68.727 282.656l-.443 2.961a21.879 21.879 0 0 0 .193 7.591l.527 2.608a3.67 3.67 0 0 0 2.94 2.881 2.023 2.023 0 0 0 2.373-1.766l.708-6.327s1.62 2.121 2.4 2.121-.875-6.337-2.643-9.924-6.055-.145-6.055-.145z"/><path class="g" d="M83.272 235.611l-4.6 9.112a17.847 17.847 0 0 0-1.883 6.914l-2 31.164-6.056-.145-2.75-35a12.818 12.818 0 0 1 .157-3.235l3.141-17.748z"/><path class="a" d="M78.964 330.211l-3.6-4.7-37.828-21.9a5.261 5.261 0 0 1-2.191-4.2l.032-30.969-2.175-2.84 2.045-1.185a1.384 1.384 0 0 1 1.483.085l42.871 24.822a5.265 5.265 0 0 1 2.191 4.2l-.037 33.729a1.91 1.91 0 0 1-.8 1.8z"/><path class="d" d="M52.805 312.452l-2.688-1.556-14.753-25.625.015-16.828-2.175-2.84 2.045-1.185a1.384 1.384 0 0 1 1.483.085l42.871 24.822a4.444 4.444 0 0 1 1.615 1.89z"/><path class="b" d="M34.169 266.863l-.965-1.26 2.045-1.185a1.384 1.384 0 0 1 1.483.085l.755.438z"/><path class="e" d="M79.992 289.604a5.484 5.484 0 0 1 1.791 3.611l-4.189 2.418-2.006-3.486z"/><path class="b" d="M77.563 290.511l-42.871-24.82c-1.213-.7-2.2.04-2.2 1.658l-.037 33.729a5.262 5.262 0 0 0 2.193 4.2L77.517 330.1c1.213.7 2.2-.042 2.2-1.66l.037-33.727a5.271 5.271 0 0 0-2.191-4.202z"/><path class="g" d="M98.641 297.054l-.688 1.423a9.517 9.517 0 0 1-3.583 3.973l-4.258 2.625a4.24 4.24 0 0 1-4.348.1c-.048-.028-.1-.057-.145-.087a2.563 2.563 0 0 1-.362-3.936l4.449-4.574s-2.5 1.915-3.2 1.143c-.513-.565 2.425-3.323 4.681-3.415a8.9 8.9 0 0 0 4.438-1.861z"/><path class="b" d="M87.358 193.859s-16.314 17.749-22.9 34.032c0 0 5.579 10.05 19.234 13.995s3.666-48.027 3.666-48.027z"/><path class="d" d="M80.626 240.832l2.643-25.541-6.229 23.93a35.892 35.892 0 0 0 3.586 1.611z"/><path class="f" d="M99.576 190.276l-4.384-1.2s2.093 3.293 5.148 4.133 3.531-1.748 3.531-1.748zM122.99 183.258a2.441 2.441 0 1 1-2.441-2.441 2.44 2.44 0 0 1 2.441 2.441z"/><path class="i" d="M487.428 192.591l-7.352-14.956 14.955-7.352 7.352 14.956zm-2.89-13.436l4.411 8.974 8.97-4.409-4.409-8.974z"/><path class="b" d="M155.944 127.15a10.832 10.832 0 1 1 10.832-10.832 10.844 10.844 0 0 1-10.832 10.832zm0-18.331a7.5 7.5 0 1 0 7.5 7.5 7.506 7.506 0 0 0-7.5-7.5z"/><path class="c" d="M162.958 465.487a7.861 7.861 0 1 1-7.862-7.864 7.862 7.862 0 0 1 7.862 7.864zM414.936 15.585a9.37 9.37 0 1 1-9.369-9.37 9.369 9.369 0 0 1 9.369 9.37z"/><path d="M364.273 112.502l-44.56-25.725a2.279 2.279 0 0 0-2.3-.185v-.03l-4.323 2.5 3.038 1.11v32.446c0 2.64 1.6 5.706 3.585 6.849l42.589 24.59v3.806l4.366-2.515-.023-.008a3.175 3.175 0 0 0 1.211-2.858v-33.134c.002-2.637-1.603-5.7-3.583-6.846z" fill="#00ad46"/><path class="i" d="M359.868 157.73l-44.559-25.725c-1.98-1.143-3.584-4.211-3.584-6.851V92.023c0-2.64 1.6-3.853 3.584-2.71l44.559 25.725c1.98 1.143 3.584 4.211 3.584 6.851v33.132c.005 2.636-1.6 3.852-3.584 2.709z"/><g><path class="f" d="M330.298 120.59c0 1.918-1.346 2.695-3.006 1.736a6.641 6.641 0 0 1-3.006-5.208c0-1.916 1.345-2.695 3.006-1.735a6.645 6.645 0 0 1 3.006 5.207zM339.405 125.847c0 1.916-1.345 2.695-3.006 1.735a6.645 6.645 0 0 1-3.006-5.206c0-1.918 1.347-2.695 3.006-1.736a6.641 6.641 0 0 1 3.006 5.207zM348.514 131.104c0 1.918-1.346 2.695-3.006 1.736a6.643 6.643 0 0 1-3.008-5.208c0-1.916 1.346-2.695 3.008-1.735a6.645 6.645 0 0 1 3.006 5.207z"/></g></g></svg>