<svg xmlns="http://www.w3.org/2000/svg" width="33.574" height="22.383"><defs><style>.a{fill:#5a5c5c}</style></defs><path class="a" d="M24.021 8.567l-8.189 7.2c-.011.01-.022.019-.031.029a1.4 1.4 0 0 0 .988 2.389 1.418 1.418 0 0 0 1.021-.443l7.2-8.189a.7.7 0 0 0-.988-.987z"/><path class="a" d="M16.787 0A16.783 16.783 0 0 0 .8 21.896a.7.7 0 0 0 .667.486H32.11a.7.7 0 0 0 .667-.486 16.783 16.783 0 0 0-15.989-21.9zm13.29 17.487h2.05a15.32 15.32 0 0 1-.536 3.5H1.984a15.321 15.321 0 0 1-.536-3.5H3.5a.7.7 0 1 0 0-1.4H1.434a15.268 15.268 0 0 1 1.7-6.374l1.792 1.035a.7.7 0 0 0 .7-1.212L3.839 8.504A15.49 15.49 0 0 1 8.5 3.839l1.033 1.789a.7.7 0 1 0 1.21-.7l-1.03-1.792a15.268 15.268 0 0 1 6.375-1.7v2.061a.7.7 0 1 0 1.4 0V1.434a15.268 15.268 0 0 1 6.375 1.7l-1.035 1.792a.7.7 0 1 0 1.21.7l1.033-1.789a15.49 15.49 0 0 1 4.665 4.665l-1.788 1.033a.7.7 0 0 0 .7 1.212l1.792-1.035a15.269 15.269 0 0 1 1.7 6.374h-2.063a.7.7 0 1 0 0 1.4z"/></svg>