<svg xmlns="http://www.w3.org/2000/svg" width="134.4" height="144"><defs><style>.a{fill:#b4b4b4}</style></defs><path class="a" d="M105.6 62.4v14.4h19.2V62.4zM120 72h-9.6v-4.8h9.6zM105.6 81.6V96h19.2V81.6zm14.4 9.6h-9.6v-4.8h9.6zM105.6 100.8v14.4h19.2v-14.4zm14.4 9.6h-9.6v-4.8h9.6zM105.6 120v14.4h19.2V120zm14.4 9.6h-9.6v-4.8h9.6zM76.8 24V9.6H57.6V24H43.2v19.2h14.4v14.4h19.2V43.2h14.4V24zm9.6 14.4H72v14.4h-9.6V38.4H48v-9.6h14.4V14.4H72v14.4h14.4z"/><path class="a" d="M100.8 52.8V0H33.6v52.8H0V144h134.4V52.8zm-67.2 86.4H4.8V57.6h28.8zm31.2 0h-12V96h12zm16.8 0h-12V96h12zm14.4 0h-9.6v-48H48v48h-9.6V4.8H96zm33.6 0h-28.8V57.6h28.8z"/><path class="a" d="M9.6 62.4v14.4h19.2V62.4zM24 72h-9.6v-4.8H24zM9.6 81.6V96h19.2V81.6zM24 91.2h-9.6v-4.8H24zM9.6 100.8v14.4h19.2v-14.4zm14.4 9.6h-9.6v-4.8H24zM9.6 120v14.4h19.2V120zm14.4 9.6h-9.6v-4.8H24z"/></svg>