<svg xmlns="http://www.w3.org/2000/svg" width="76" height="77.197"><g transform="translate(.692 1.075)"><circle cx="37" cy="37" r="37" transform="translate(.308 -.075)" stroke-width="2" stroke="#e6e6e6" fill="none"/><path d="M44.088 34.906v-14.9H31.476v14.9h-7.382L37.78 48.592l13.686-13.686zm-15.61 1.82h4.816v-14.9h8.981v14.9h4.812l-9.3 9.3z" fill="#818181"/><g fill="#fff" stroke="#818181" stroke-width="2"><path stroke="none" d="M24.308 48.925h27v6h-27z"/><path fill="none" d="M25.308 49.925h25v4h-25z"/></g></g><path d="M62.085 52.966a12.116 12.116 0 1 0 12.116 12.116 12.129 12.129 0 0 0-12.116-12.116zm5.825 13.048h-4.893v5.126a.932.932 0 1 1-1.864 0v-5.126H56.26a.932.932 0 1 1 0-1.864h4.893v-4.66a.932.932 0 1 1 1.864 0v4.66h4.893a.932.932 0 1 1 0 1.864z" fill="#01d35a"/></svg>