<svg xmlns="http://www.w3.org/2000/svg" width="44" height="44" viewBox="0 0 44 44"><defs><style>.a{opacity:0.8;}.b{fill:#fff;}</style></defs><g class="a"><path class="b" d="M291.407,508.668q-.275.045-.552.083Q291.132,508.713,291.407,508.668Zm0,0" transform="translate(-265.86 -464.954)"/><path class="b" d="M299.6,507.793l-.263.046Zm0,0" transform="translate(-273.615 -464.154)"/><path class="b" d="M278.257,510.34q-.322.036-.647.064Q277.934,510.377,278.257,510.34Zm0,0" transform="translate(-253.753 -466.483)"/><path class="b" d="M286.756,509.738l-.31.039Zm0,0" transform="translate(-261.829 -465.932)"/><path class="b" d="M306.9,506.41l-.232.049Zm0,0" transform="translate(-280.31 -462.89)"/><path class="b" d="M324.672,502.113l-.187.052Zm0,0" transform="translate(-296.599 -458.963)"/><path class="b" d="M319.263,503.543l-.2.053Zm0,0" transform="translate(-291.64 -460.27)"/><path class="b" d="M312.283,505.254l-.217.049Zm0,0" transform="translate(-285.248 -461.834)"/><path class="b" d="M273.828,511.09q-.174.015-.348.026Q273.654,511.1,273.828,511.09Zm0,0" transform="translate(-249.978 -467.168)"/><path class="b" d="M44,22A22,22,0,1,0,22,44c.129,0,.258,0,.387-.005V26.869H17.66V21.361h4.727V17.307c0-4.7,2.87-7.26,7.063-7.26a38.908,38.908,0,0,1,4.237.217v4.913H30.8c-2.281,0-2.723,1.084-2.723,2.675v3.508h5.455l-.711,5.508H28.073V43.15A22.012,22.012,0,0,0,44,22Zm0,0"/><path class="b" d="M265.58,511.43q-.343.022-.69.034Q265.237,511.453,265.58,511.43Zm0,0" transform="translate(-242.126 -467.479)"/><path class="b" d="M260.869,511.836q-.182.006-.365.009Q260.687,511.842,260.869,511.836Zm0,0" transform="translate(-238.117 -467.85)"/></g></svg>