<svg xmlns="http://www.w3.org/2000/svg" xmlns:xlink="http://www.w3.org/1999/xlink" width="117" height="146.041" viewBox="0 0 117 146.041"><defs><style>.a,.aj,.o{fill:none;}.b{fill:#b5c8e1;}.c{fill:#fed5b0;}.d{fill:#edeee9;}.e{fill:#fff;}.f{fill:#3a6480;}.g,.t{fill:#394f6d;}.ab,.g{opacity:0.5;}.h{fill:#47799b;}.ae,.i{fill:#fbbd90;}.j{fill:#f9a77a;}.k{fill:#6d4733;}.ae,.l{opacity:0.7;}.m{clip-path:url(#a);}.n{fill:#f8a484;mix-blend-mode:multiply;isolation:isolate;}.o{stroke:#f8a486;}.aj,.o{stroke-miterlimit:10;}.p{fill:#f8a486;}.ab,.q{fill:#4691b3;}.r{fill:#d7d8d5;}.s{fill:#b2bdbb;}.u{fill:#595352;}.v{fill:#bfcac8;}.w{fill:#2d405a;}.x{fill:#6f7878;}.y{fill:#9aa4a3;}.z{fill:#848d8d;}.aa{fill:#e3f3f3;}.ac{fill:#7e533d;}.ad{fill:#66422f;}.af{fill:#936149;}.ag{fill:#d3d4d1;opacity:0.4;}.ah{fill:#f1f2f2;}.ai{fill:#523423;}.aj{stroke:#523423;stroke-width:5px;}.ak{fill:#c28c5c;}</style><clipPath id="a"><path class="a" d="M240.054,85.321c0,3.132-2.884,6.837-6.024,6.837h-5.576c-3.618,0-6.332-3.175-6.332-6.959L220.8,64.932a3.663,3.663,0,0,1,3.663-3.663h13.271a3.663,3.663,0,0,1,3.663,3.663Z" transform="translate(-220.799 -61.269)"/></clipPath></defs><g transform="translate(-812 -2638.394)"><ellipse class="b" cx="58.5" cy="58" rx="58.5" ry="58" transform="translate(812 2659)"/><g transform="translate(829.492 2638.394)"><path class="c" d="M318.169,383.035s-.233,5.359-.411,6.233a49.048,49.048,0,0,1-2.222,4.937s-1.51.883-1.836,1.047-.719-.626-.3-1.119,1.281-1.348,1.346-1.767.611-2.567.65-2.819-2.255.425-2.723.954-1.239,2.77-1.649,2.492-1.29-.972-.628-2.758a19.558,19.558,0,0,0,1.139-3.516c.06-.634-1.053-1.863.7-4.862C312.24,381.857,317.019,383.3,318.169,383.035Z" transform="translate(-246.85 -254.204)"/><g transform="translate(63.049 62.251)"><path class="d" d="M320.615,254.062c-.653-10.294-3.788-59.15-4.547-61.057-.848-2.132-6.675-3.859-6.675-3.859.877,4.106.622,29.676.622,29.676l.337,34.95A15.686,15.686,0,0,0,320.615,254.062Z" transform="translate(-309.394 -189.146)"/><path class="e" d="M312.222,379.57l.021,2.185a25.325,25.325,0,0,0,10.36,0s-.043-.68-.12-1.895A15.686,15.686,0,0,1,312.222,379.57Z" transform="translate(-311.262 -314.944)"/></g><path class="f" d="M196.472,314.957v41.092h16.894v-9.272h3.847v9.272H234.09V314.957Z" transform="translate(-173.615 -210.009)"/><path class="g" d="M195.963,360.213l-.056,1.347s11.715.551,12.352,0V350.354l4.921,1.11,1.909-10.012,2.376,9.842,3.756-.721-.744,10.606s1.988.989,13.105-.4V348.537l-.294-11.965-37.586-1.4Z" transform="translate(-173.121 -223.364)"/><path class="h" d="M195.022,176.663l-16.461,5.982s6.675,24.1,7.466,28l-1.781,31.824,16.957,3.167,2.569-12.331,2.715,12.331,17.693-4.3-3.988-30.693,6.222-28.455L211.3,176.663Z" transform="translate(-159.914 -118.649)"/><rect class="i" width="11.935" height="13.889" transform="translate(35.098 36.422)"/><path class="j" d="M233.407,145.9a7.661,7.661,0,0,0,1.793,1.527,11.281,11.281,0,0,0,10.142-1.216l.011-2.941-11.946-.651Z" transform="translate(-198.309 -103.131)"/><path class="k" d="M216.325,39.538s-5.494-.529-7.692,4.405-2.259,3.592-3.052,4.08a2.7,2.7,0,0,0,2.93-.871,10.156,10.156,0,0,0-2.625,5.266s1.892-1.709,2.32-1.648c0,0-.529,4.823,1.964,7.753l21.539-1.19s3.48-8.745,1.832-12.385-3.918-3.672-4.981-2.893a5.954,5.954,0,0,0-2.772-5.082c-2.93-1.77-4.212-1.4-5.128-2.686A9.206,9.206,0,0,0,222,38.012s-3.4-2.485-9.225-1.264A9.988,9.988,0,0,1,216.325,39.538Z" transform="translate(-179.95 -34.288)"/><ellipse class="i" cx="2.929" cy="4.676" rx="2.929" ry="4.676" transform="translate(24.648 22.971) rotate(-29.938)"/><ellipse class="i" cx="4.676" cy="2.929" rx="4.676" ry="2.929" transform="translate(47.712 28.152) rotate(-60.061)"/><path class="c" d="M240.054,85.321c0,3.132-2.884,6.837-6.024,6.837h-5.576c-3.618,0-6.332-3.175-6.332-6.959L220.8,64.932a3.663,3.663,0,0,1,3.663-3.663h13.271a3.663,3.663,0,0,1,3.663,3.663Z" transform="translate(-189.921 -52.112)"/><path class="k" d="M220.759,98.307l-.75,3.181-.406-3.573Z" transform="translate(-189.966 -76.321)"/><g class="l" transform="translate(30.878 9.157)"><g class="m"><g transform="translate(1.169 17.045)"><path class="n" d="M224.243,114.632a2.358,2.358,0,1,1,2.358,2.358A2.357,2.357,0,0,1,224.243,114.632Z" transform="translate(-224.243 -112.01)"/><path class="n" d="M263.947,113.852a2.358,2.358,0,1,1,2.358,2.358A2.358,2.358,0,0,1,263.947,113.852Z" transform="translate(-250.472 -111.494)"/></g></g></g><path class="k" d="M218.483,70.42s8.6-2.286,10.779-7.231c0,0-2.643,4.778-4.17,6.113,0,0,8.791-3.851,10.134-9.469,0,0,.183,6.164,3.052,8.362l.671,3.479.611-1.391s.672-7.4,0-12.01-17.887-3.448-20.023-1.067S218,66.235,218.483,70.42Z" transform="translate(-188.11 -48.049)"/><line class="o" y2="7.131" transform="translate(41.068 24.446)"/><path class="p" d="M247.426,122.923s1.193-3.907,2.806,0C250.232,122.923,248.619,120.906,247.426,122.923Z" transform="translate(-207.598 -89.571)"/><path class="q" d="M229.218,159.538l4.508,7.169-1.7,7.509-4.963-8.866Z" transform="translate(-194.523 -113.643)"/><path class="q" d="M259.909,159.538l-4.508,7.169,1.7,7.509,4.963-8.866Z" transform="translate(-212.485 -113.643)"/><path class="i" d="M243.092,174.94l1.465,5.635,1.491-5.635L247.9,172h-6.653Z" transform="translate(-203.511 -121.718)"/><path class="d" d="M201.383,229.852v29.184s-12.278.145-15.332-1.438l1.644-43.979-1.035-29.147,8.186-2.974,5.049-.335s-.292,16.163-.323,22.145A215.785,215.785,0,0,0,201.383,229.852Z" transform="translate(-168.318 -121.621)"/><path class="e" d="M211.538,176.663s-1.642,28.952,1.413,50.217c0,0-8.6-14.15-9.39-25.176L209,196.886l-4.758-.893s.154-10.388,2.167-17.468Z" transform="translate(-179.543 -122.905)"/><path class="d" d="M270.894,229.644v29.184s11.671.216,14.726-1.368l-1.037-44.049,2.828-28.384-9.979-3.738-5.049-.335s.292,16.163.323,22.145A215.786,215.786,0,0,1,270.894,229.644Z" transform="translate(-220.911 -121.483)"/><path class="e" d="M272.307,176.454s1.642,28.952-1.413,50.217c0,0,8.6-14.15,9.39-25.176l-5.444-4.817,4.758-.893s-.154-10.388-2.167-17.469Z" transform="translate(-222.146 -122.775)"/><rect class="r" width="6.165" height="0.99" transform="translate(55.999 74.222)"/><g transform="translate(25.748 50.905)"><g transform="translate(0 0.069)"><path class="s" d="M210.026,228.943h0l-.007-.017c-.048-.107-.095-.211-.143-.321h0a15.3,15.3,0,0,0-1.56-2.491.939.939,0,0,1,.942-.78,26.291,26.291,0,0,1,1.79,3.066s2.142,4.817,3.854,6.344a.391.391,0,0,1,.377-.086c.25.056.822.961.5,1.155a1.049,1.049,0,0,1-1.056.054C214.406,235.683,212.685,234.892,210.026,228.943Z" transform="translate(-207.524 -207.235)"/><path class="t" d="M213.276,173.18,213.7,172c-6.187.8-5.93,8.526-5.582,11.572a3.427,3.427,0,0,0-1.839,2.379c-.919,3.227.551,4.973.551,4.973a1.113,1.113,0,0,1,.924-.75,5.2,5.2,0,0,1-.411-3.873,2.157,2.157,0,0,1,3.377-1.347c.6.449,1.2,2.811.893,4.142a.867.867,0,0,1,1.089.012s.477-5.236-2.754-5.755a3.071,3.071,0,0,0-.845-.034C208.4,173.354,213.276,173.18,213.276,173.18Z" transform="translate(-205.98 -172.001)"/><path class="u" d="M216.075,253.2a.661.661,0,0,0-.6-.484c-.512-.064-1.3-.182-1.513.366s-.167,1.408.532,1.543,1.317.3,1.43-.052A3.309,3.309,0,0,0,216.075,253.2Z" transform="translate(-211.182 -225.287)"/><path class="v" d="M220.846,225.139h0l0-.018c-.007-.116-.013-.23-.02-.35h0a15.3,15.3,0,0,1,.241-2.929s-.411-.649-1.089-.012a15.687,15.687,0,0,0-.288,3.3s.311,5.263-.508,7.406a.391.391,0,0,0-.375.1c-.2.165-.289,1.231.086,1.255a1.05,1.05,0,0,0,.962-.437C220.053,233.138,221.217,231.645,220.846,225.139Z" transform="translate(-214.34 -204.734)"/><path class="u" d="M227.717,251.061a.661.661,0,0,1,.306-.7c.425-.292,1.073-.76,1.512-.37s.8,1.174.237,1.614-1.033.869-1.294.61C228.478,252.212,227.757,251.46,227.717,251.061Z" transform="translate(-220.33 -223.422)"/><path class="w" d="M224.822,172.216a2.273,2.273,0,0,1-.435,1.272,2.947,2.947,0,0,1,1.049-.308l.427-1.179A10.266,10.266,0,0,0,224.822,172.216Z" transform="translate(-218.14 -172.001)"/></g><g transform="translate(20.374 0)"><ellipse class="x" cx="2.702" cy="2.654" rx="2.702" ry="2.654" transform="translate(0.996 16.914)"/><circle class="y" cx="2.654" cy="2.654" r="2.654" transform="translate(0 19.362) rotate(-45)"/><path class="t" d="M273.228,171.8l.438,1.2s2.388.356,2.491,6.515a22.287,22.287,0,0,1-1.761,9.793,2.025,2.025,0,0,1,1.426.825s2.013-6.831,1.546-12.087C277.108,175.124,276.24,172.359,273.228,171.8Z" transform="translate(-270.779 -171.797)"/><circle class="z" cx="1.92" cy="1.92" r="1.92" transform="translate(1.834 17.262)"/><path class="v" d="M276.049,220.9a10.155,10.155,0,0,0,.618-1.353s1.16-.258,1.6.593a16.717,16.717,0,0,1-.477,1.688A1.819,1.819,0,0,0,276.049,220.9Z" transform="translate(-272.643 -203.32)"/><path class="v" d="M272.1,224.616a1.687,1.687,0,1,1,1.687,1.687A1.687,1.687,0,0,1,272.1,224.616Z" transform="translate(-270.036 -205.576)"/><path class="aa" d="M274.007,224.947a1.17,1.17,0,1,1,1.17,1.17A1.17,1.17,0,0,1,274.007,224.947Z" transform="translate(-271.294 -206.136)"/><path class="w" d="M274.071,172.051a1.717,1.717,0,0,0-.106,1.058,1.207,1.207,0,0,0-.3-.111l-.438-1.2A3.429,3.429,0,0,1,274.071,172.051Z" transform="translate(-270.779 -171.797)"/></g></g><path class="ab" d="M252.5,180.663l-1.491,5.635.624,49.652,2.716,12.331,1.717-.417-2.528-12.221L252.5,186.984l.854-2.544Z" transform="translate(-209.775 -121.291)"/><circle class="d" cx="0.481" cy="0.481" r="0.481" transform="translate(42.107 111.287)"/><path class="d" d="M253.561,318.519a.481.481,0,1,1,.481.481A.481.481,0,0,1,253.561,318.519Z" transform="translate(-211.575 -214.843)"/><path class="d" d="M253.561,298.935a.481.481,0,1,1,.481.481A.481.481,0,0,1,253.561,298.935Z" transform="translate(-211.575 -202.381)"/><path class="d" d="M252.978,276.685a.481.481,0,1,1,.481.481A.481.481,0,0,1,252.978,276.685Z" transform="translate(-211.204 -188.223)"/><path class="d" d="M252.644,251.726a.481.481,0,1,1,.481.481A.481.481,0,0,1,252.644,251.726Z" transform="translate(-210.992 -172.341)"/><path class="d" d="M252.228,226.965a.481.481,0,1,1,.481.481A.481.481,0,0,1,252.228,226.965Z" transform="translate(-210.727 -156.586)"/><path class="d" d="M251.894,197.871a.481.481,0,1,1,.481.481A.481.481,0,0,1,251.894,197.871Z" transform="translate(-210.515 -138.073)"/><path class="d" d="M157.93,187.806l-6.054,2.2c-2.714,1.069-5.26,8.573-5.26,8.573s-8.929,20.606-8.428,23.748c.557,3.491,8.779,15.559,20.418,19.375,0,0-3.016-10.307,5.828-13.928,0,0-7.952-1.552-11.921-6.288a19.676,19.676,0,0,1,.721-3.2c.561-1.814,2.3-5.873,4.115-12.86l-.839-8.035A83.8,83.8,0,0,1,157.93,187.806Z" transform="translate(-138.168 -129.579)"/><path class="r" d="M202.9,305.578s-9,4.428-5.828,13.928C197.074,319.506,204.464,315.57,202.9,305.578Z" transform="translate(-175.08 -206.216)"/><path class="ac" d="M172.468,262.164l-6.905-17.711,18.09,2.159,8.066,30.028-14.6-2.885Z" transform="translate(-156.266 -166.488)"/><path class="r" d="M169.48,285.479a7.181,7.181,0,0,0-5.656.688S166.652,282.794,169.48,285.479Z" transform="translate(-155.117 -193.43)"/><path class="r" d="M175.721,282.6a9.55,9.55,0,0,0-2.451-2.524A2.534,2.534,0,0,1,175.721,282.6Z" transform="translate(-160.479 -190.615)"/><path class="ad" d="M217.906,250.815l-.494.692,8.236,29.271.324.064Z" transform="translate(-188.337 -170.629)"/><path class="c" d="M202.284,297.516s.112-3.125,1.269-3.619a28.024,28.024,0,0,0,2.925-1.316c.411-.288,1.358.74.452,1.645s-1.357,1.645-1.234,1.768,3.578-1.941,4.277-.971a2.269,2.269,0,0,1-.165,2.492c-.218.247.367.592.481,1.933s.99,1.442.583,3.086-10.506,5.4-13.95,2.448C196.924,304.983,196.924,300.323,202.284,297.516Z" transform="translate(-175.206 -197.969)"/><path class="ae" d="M201.258,308.987s-2.908,4.36-2.144,7.823a4.957,4.957,0,0,1-2.19-.956A8.737,8.737,0,0,1,201.258,308.987Z" transform="translate(-175.471 -208.727)"/><path class="e" d="M198.722,303.8s-7.9,3.172-5.574,13.989l1.5.54s-3.034-9.094,4.862-13.371l.078-.874Z" transform="translate(-172.744 -205.057)"/><path class="af" d="M183.16,247.3l-17.278-2.036-.318-.816,18.09,2.159Z" transform="translate(-156.266 -167.947)"/><path class="d" d="M181.692,288.464s5.587,4.093,9.919,5.264c0,0-3.179.491-5.532,6.028Z" transform="translate(-165.695 -195.514)"/><path class="r" d="M179.385,197.267s3.075,2.937,3.906,9.526l.448-7.393.171,10.577a30.829,30.829,0,0,0-2.712-5.159s1.471,1.733,1.7,1.975S181.418,199.773,179.385,197.267Z" transform="translate(-164.333 -137.618)"/><path class="r" d="M191.411,233.975s-.058,2.25.143,4.673l-.814-.1A23.428,23.428,0,0,1,191.411,233.975Z" transform="translate(-171.614 -161.215)"/><path class="ag" d="M200.213,358.425s-6.946,1.388-10.055-.225l.6,9.945,4.136,3.209,6.019-3.389Z" transform="translate(-171.029 -238.576)"/><g transform="translate(18.899 118.807)"><path class="e" d="M189.783,360.766a20.426,20.426,0,0,0,9.736.252l.446,7.985-5.876,3.2-3.953-3.277Z" transform="translate(-189.71 -359.078)"/><path class="ah" d="M189.641,357.481l-.073-1.688c2.984,1.672,9.727.475,9.727.475l.081,1.464A20.427,20.427,0,0,1,189.641,357.481Z" transform="translate(-189.568 -355.793)"/></g><path class="ag" d="M189.568,355.1l1.656-.355.043.959A11.559,11.559,0,0,1,189.568,355.1Z" transform="translate(-170.852 -238.201)"/><path class="ag" d="M284.833,358.425s6.946,1.388,10.055-.225l-.6,9.945-4.135,3.209-6.019-3.389Z" transform="translate(-229.66 -238.576)"/><g transform="translate(55.174 118.807)"><path class="e" d="M296.372,360.766a20.428,20.428,0,0,1-9.736.252L286.19,369l5.876,3.2,3.953-3.277Z" transform="translate(-286.19 -359.078)"/><path class="ah" d="M297.239,357.481l.073-1.688c-2.984,1.672-9.727.475-9.727.475l-.082,1.464A20.429,20.429,0,0,0,297.239,357.481Z" transform="translate(-287.057 -355.793)"/></g><path class="ag" d="M313.1,355.1l-1.656-.355-.043.959A11.558,11.558,0,0,0,313.1,355.1Z" transform="translate(-247.67 -238.201)"/><path class="r" d="M315.109,197.267s-.339,6.907-1.867,9.526c0,0-.283-5.187-.792-6.262,0,0,1.06,8.853.8,11.487s2.257-6.132,2.257-6.132l-1.527,2.2A34.062,34.062,0,0,0,315.109,197.267Z" transform="translate(-248.364 -137.527)"/><path class="r" d="M312.391,242.184s-1.183,10.332-1.163,11.676.245,26.232.245,26.232l.918.293s-.472-20.21-.582-21.338S312.391,242.184,312.391,242.184Z" transform="translate(-247.556 -164.659)"/><g transform="translate(59.034 72.461)"><path class="u" d="M302.681,239.613a.615.615,0,0,1-.615.615h0a.615.615,0,0,1-.615-.615v-6.127a.615.615,0,0,1,.615-.615h0a.615.615,0,0,1,.615.615Z" transform="translate(-301.064 -232.871)"/><path class="z" d="M300.882,235.558h-.29v-.305a.14.14,0,1,0-.281,0v2.328a.14.14,0,1,0,.281,0v-1.363h.29Z" transform="translate(-300.311 -234.351)"/></g><path class="ai" d="M232.806,95.573a1.772,1.772,0,0,1-.339,1.263s-3.96-.961-5.4-.142c0,0,.226-.971.735-1.122A13.846,13.846,0,0,1,232.806,95.573Z" transform="translate(-194.556 -74.619)"/><path class="ai" d="M258.085,94.246a1.773,1.773,0,0,0,.339,1.264s3.96-.962,5.4-.142c0,0-.226-.971-.735-1.122A13.861,13.861,0,0,0,258.085,94.246Z" transform="translate(-214.224 -73.742)"/><path class="ai" d="M261.364,107.727s3.081-2.154,3.885,1.041c0,0-1.255-1.081-2.05-.795-.851.306-1.821.9-2.1.456C260.928,108.149,261.364,107.727,261.364,107.727Z" transform="translate(-216.198 -82.334)"/><path class="ai" d="M232.6,107.859s-2.96-1.906-3.962,1.076c0,0,1.3-.994,2.11-.752,1.224.367,1.837.82,2.113.378C233.031,108.282,232.6,107.859,232.6,107.859Z" transform="translate(-195.606 -82.495)"/><g transform="translate(31.031 23.734)"><g transform="translate(3.354 8.029)"><path class="aj" d="M231.19,122.967" transform="translate(-231.19 -122.967)"/></g><g transform="translate(6.434 8.029)"><path class="aj" d="M240.264,122.967" transform="translate(-240.264 -122.967)"/></g><g transform="translate(1.035 0.15)"><path class="y" d="M228.353,107.273a4.089,4.089,0,0,1-4-4.262c0-1.949,1.556-3.259,3.873-3.259,2.5,0,3.873,1.021,3.873,2.875C232.1,104.556,230.939,107.273,228.353,107.273Zm-.124-7.081c-2.085,0-3.433,1.107-3.433,2.82a3.654,3.654,0,0,0,3.557,3.822c2.283,0,3.309-2.46,3.309-4.207C231.662,100.614,229.795,100.192,228.229,100.192Z" transform="translate(-224.356 -99.752)"/></g><g transform="translate(11.189 0.15)"><path class="y" d="M258.023,107.273c-2.586,0-3.749-2.717-3.749-4.646,0-1.854,1.376-2.875,3.873-2.875,2.317,0,3.873,1.31,3.873,3.259A4.089,4.089,0,0,1,258.023,107.273Zm.124-7.081c-1.566,0-3.433.423-3.433,2.435,0,1.747,1.027,4.207,3.309,4.207a3.654,3.654,0,0,0,3.556-3.822C261.579,101.3,260.232,100.192,258.147,100.192Z" transform="translate(-254.274 -99.752)"/></g><path class="u" d="M240.671,102.664v-.605a2.753,2.753,0,0,0-2.75-2.749h-3.08a2.751,2.751,0,0,0-2.74,2.572,1.913,1.913,0,0,0-.551-.113,2.3,2.3,0,0,0-1.064.216,2.751,2.751,0,0,0-2.746-2.675h-3.08a2.753,2.753,0,0,0-2.75,2.749v.605h-.6v1.1h1.7v-1.7a1.651,1.651,0,0,1,1.65-1.649h3.08a1.651,1.651,0,0,1,1.65,1.649v1.155h.755l.187.183a1.817,1.817,0,0,1,1.159-.53.947.947,0,0,1,.6.278v.069h.069c.041.043.082.089.122.139l.176-.139h.732v-1.155a1.651,1.651,0,0,1,1.65-1.649h3.08a1.651,1.651,0,0,1,1.65,1.649v1.7h1.7v-1.1Z" transform="translate(-221.306 -99.31)"/></g><path class="ai" d="M242.414,132.719s.062.067.178.171a3.746,3.746,0,0,0,.511.385c.108.074.236.137.364.21a4.094,4.094,0,0,0,.428.183,3.85,3.85,0,0,0,.474.141c.164.039.335.059.5.081.171,0,.342.031.512.019s.338,0,.5-.032l.467-.066c.146-.037.286-.067.416-.1.263-.048.471-.13.623-.169s.241-.064.241-.064-.076.048-.214.125l-.251.137a1.791,1.791,0,0,1-.338.157c-.127.05-.266.1-.415.156s-.315.079-.485.115a4.324,4.324,0,0,1-.532.063c-.182.016-.37-.006-.556-.008a5.424,5.424,0,0,1-.549-.1,3.089,3.089,0,0,1-.508-.183,2.911,2.911,0,0,1-.443-.24,2.962,2.962,0,0,1-.355-.274,2.266,2.266,0,0,1-.264-.268c-.074-.084-.131-.163-.179-.227A1.461,1.461,0,0,1,242.414,132.719Z" transform="translate(-204.315 -96.911)"/><path class="e" d="M228.769,115.1a.337.337,0,1,1,.337.337A.337.337,0,0,1,228.769,115.1Z" transform="translate(-195.813 -85.502)"/><path class="e" d="M271.706,114.541a.337.337,0,1,1,.337.337A.337.337,0,0,1,271.706,114.541Z" transform="translate(-223.132 -85.144)"/><path class="ak" d="M223.932,54.988a5.316,5.316,0,0,0-2.994,2.824C219.99,59.992,224.232,55.3,223.932,54.988Z" transform="translate(-190.667 -47.963)"/><path class="ak" d="M228.865,57.563a3.416,3.416,0,0,0-1.641,2.074C226.825,61.112,229.084,57.731,228.865,57.563Z" transform="translate(-194.767 -49.664)"/><path class="ak" d="M233.2,60.275a2.413,2.413,0,0,0-1.159,1.465C231.756,62.782,233.352,60.393,233.2,60.275Z" transform="translate(-197.854 -51.456)"/><path class="t" d="M246.1,359.388l.118,3.52h.707l-.566,7.608h.744l.415-8.484-.709.085,1.5-9.917-.442-1.309Z" transform="translate(-206.782 -233.747)"/></g></g></svg>