<svg xmlns="http://www.w3.org/2000/svg" width="75.72" height="75.72" viewBox="0 0 75.72 75.72"><defs><style>.a{fill:#45d987;}.b{fill:#f78e36;}.c{fill:#f86f1b;}.d{fill:#4380a0;}.e{fill:#7be492;}.f{fill:#43809f;}.g{fill:#3a7190;}.h{fill:#f3f3f3;}.i{fill:#e4e4e4;}.j{fill:#29cef6;}.k{fill:#22b5ed;}</style></defs><g transform="translate(23.914 25.02)"><path class="a" d="M223.511,387.616a1.109,1.109,0,0,0-1.109,1.109v8.494a1.109,1.109,0,1,0,2.218,0v-8.494A1.109,1.109,0,0,0,223.511,387.616Z" transform="translate(-213.425 -355.311)"/><path class="a" d="M162.809,387.616a1.109,1.109,0,0,0-1.109,1.109v8.494a1.109,1.109,0,1,0,2.218,0v-8.494A1.109,1.109,0,0,0,162.809,387.616Z" transform="translate(-161.7 -355.311)"/><path class="a" d="M193.161,391.224a1.109,1.109,0,0,0-1.109,1.109v13.334a1.109,1.109,0,0,0,2.218,0V392.333A1.109,1.109,0,0,0,193.161,391.224Z" transform="translate(-187.563 -358.385)"/><path class="a" d="M390.556,171.394h8.494a1.109,1.109,0,1,0,0-2.218h-8.494a1.109,1.109,0,0,0,0,2.218Z" transform="translate(-355.765 -169.176)"/><path class="a" d="M399.049,229.878h-8.494a1.109,1.109,0,0,0,0,2.218h8.494a1.109,1.109,0,1,0,0-2.218Z" transform="translate(-355.765 -220.901)"/><path class="a" d="M406.455,199.526h-13.6a1.109,1.109,0,0,0,0,2.218h13.6a1.109,1.109,0,1,0,0-2.218Z" transform="translate(-357.724 -195.038)"/></g><path class="b" d="M376.8,383.262l-15.3-15.3a.914.914,0,0,1,0-1.293l5.171-5.171a.914.914,0,0,1,1.293,0l15.3,15.3a.914.914,0,0,1,0,1.293l-5.171,5.171A.914.914,0,0,1,376.8,383.262Z" transform="translate(-307.81 -307.81)"/><path class="c" d="M379.388,361.5l-3.232,3.232a.914.914,0,0,1,1.293,0l15.3,15.3a.914.914,0,0,1,0,1.293l3.232-3.232a.914.914,0,0,0,0-1.293l-15.3-15.3A.914.914,0,0,0,379.388,361.5Z" transform="translate(-320.526 -307.81)"/><path class="d" d="M321.9,325.2l3.231-3.231,7.043,7.043-3.231,3.231Z" transform="translate(-274.291 -274.356)"/><path class="e" d="M382.263,388.814l6.463-6.463,3.231,3.231-6.463,6.463Z" transform="translate(-325.73 -325.805)"/><path class="a" d="M404.115,385.584l3.231-3.231,3.231,3.231-3.231,3.231Z" transform="translate(-344.35 -325.807)"/><circle class="f" cx="29.709" cy="29.709" r="29.709"/><path class="g" d="M187.717,0q-1.153,0-2.285.087a29.711,29.711,0,0,1,0,59.245q1.131.086,2.285.087a29.709,29.709,0,0,0,0-59.418Z" transform="translate(-158.008)"/><circle class="h" cx="25.138" cy="25.138" r="25.138" transform="translate(4.571 4.571)"/><path class="i" d="M187.717,30.9c-.771,0-1.532.037-2.285.105a25.137,25.137,0,0,1,0,50.067c.753.068,1.515.1,2.285.1a25.138,25.138,0,0,0,0-50.277Z" transform="translate(-158.008 -26.334)"/><g transform="translate(16.378 10.436)"><path class="j" d="M119.885,123.731h-9.141V110.323a.609.609,0,0,1,.609-.609h7.922a.609.609,0,0,1,.609.609Z" transform="translate(-110.744 -103.925)"/><path class="k" d="M141.65,109.714v14.017h4.571V110.323a.609.609,0,0,0-.609-.609Z" transform="translate(-137.079 -103.925)"/><path class="e" d="M243.507,157.088h-9.141V149.47a.609.609,0,0,1,.609-.609H242.9a.609.609,0,0,1,.609.609Z" transform="translate(-216.083 -137.282)"/><path class="a" d="M265.272,148.861v8.227h4.571V149.47a.609.609,0,0,0-.609-.609Z" transform="translate(-242.419 -137.282)"/><path class="b" d="M181.7,90.373h-9.141v-19.2a.609.609,0,0,1,.609-.609h7.922a.609.609,0,0,1,.609.609Z" transform="translate(-163.414 -70.567)"/><path class="c" d="M203.461,70.567V90.373h4.571v-19.2a.609.609,0,0,0-.609-.609Z" transform="translate(-189.749 -70.567)"/></g><path class="f" d="M119.054,196.991H86.286a1.109,1.109,0,1,0,0,2.218h32.768a1.109,1.109,0,1,0,0-2.218Z" transform="translate(-72.58 -167.858)"/><path class="j" d="M137.75,237.735h-5.4l-2.452-6.268a1.109,1.109,0,0,0-2.073.018l-3.372,9.092-2.365-6.7a1.109,1.109,0,0,0-2.015-.172l-2.251,4.032h-5.385a1.109,1.109,0,1,0,0,2.218h6.036a1.109,1.109,0,0,0,.969-.568l1.371-2.456,2.568,7.278a1.109,1.109,0,0,0,1.037.74h.009a1.109,1.109,0,0,0,1.04-.724l3.425-9.237,1.667,4.262a1.109,1.109,0,0,0,1.033.705h6.159a1.109,1.109,0,0,0,0-2.218Z" transform="translate(-94.862 -196.634)"/></svg>