<svg xmlns="http://www.w3.org/2000/svg" width="56.09" height="67.282"><defs><style>.a{fill:#01d35a}</style></defs><path class="a" d="M28.096 14.502a17.329 17.329 0 0 0-11.452 30.311c2.739 2.739 2.49 8.589 2.427 8.651a1.031 1.031 0 0 0 .311.809 1.148 1.148 0 0 0 .747.311H36a1.031 1.031 0 0 0 .747-.311 1.183 1.183 0 0 0 .311-.809c0-.062-.311-5.913 2.427-8.651l.187-.187a17.277 17.277 0 0 0-11.576-30.124zm9.958 28.693c-.062.062-.187.187-.187.249-2.427 2.614-2.863 6.909-2.925 8.963H21.187c-.062-2.054-.5-6.535-3.112-9.212a15.156 15.156 0 1 1 19.979 0z"/><path class="a" d="M28.034 18.921a1.058 1.058 0 0 0 0 2.116 11.329 11.329 0 0 1 11.328 11.328 1.058 1.058 0 1 0 2.116 0 13.388 13.388 0 0 0-13.444-13.444zM34.942 55.768H21.125a2.614 2.614 0 1 0 0 5.228h13.757a2.684 2.684 0 0 0 2.676-2.614 2.63 2.63 0 0 0-2.616-2.614zm0 3.05H21.125a.491.491 0 0 1-.5-.5.458.458 0 0 1 .5-.5h13.757a.491.491 0 0 1 .5.5.444.444 0 0 1-.44.5zM32.889 62.054h-9.71a2.614 2.614 0 0 0 0 5.228h9.71a2.63 2.63 0 0 0 2.614-2.614 2.59 2.59 0 0 0-2.614-2.614zm0 3.05h-9.71a.491.491 0 0 1-.5-.5.458.458 0 0 1 .5-.5h9.71a.5.5 0 0 1 0 1zM28.034 9.336a1.049 1.049 0 0 0 1.058-1.058v-7.22a1.058 1.058 0 0 0-2.116 0v7.22a1.091 1.091 0 0 0 1.058 1.058zM45.648 5.352a1 1 0 0 0-1.432.249l-3.983 5.975a1.025 1.025 0 0 0 .249 1.494 1 1 0 0 0 .56.187.993.993 0 0 0 .871-.5l3.983-5.975a.965.965 0 0 0-.248-1.43zM15.398 13.008a1 1 0 0 0 .56-.187 1.09 1.09 0 0 0 .311-1.494L12.41 5.29a1.079 1.079 0 0 0-1.8 1.183l3.859 6.037a1.033 1.033 0 0 0 .929.498zM7.867 19.605l-6.286-3.427a1.1 1.1 0 0 0-1.432.436.994.994 0 0 0 .436 1.432l6.286 3.423a1.465 1.465 0 0 0 .5.124 1.027 1.027 0 0 0 .934-.56 1.1 1.1 0 0 0-.438-1.428zM55.98 16.618a1.1 1.1 0 0 0-1.432-.436l-6.349 3.423a1.1 1.1 0 0 0-.436 1.432 1.027 1.027 0 0 0 .934.56 1.172 1.172 0 0 0 .5-.124l6.349-3.423a1.1 1.1 0 0 0 .434-1.432z"/></svg>