<svg xmlns="http://www.w3.org/2000/svg" width="112.375" height="115.228" viewBox="0 0 112.375 115.228"><defs><style>.a{fill:#547375;}.b{fill:#d39a5b;}.c{fill:#e8b374;}.d{fill:#494949;}.e{fill:#efefef;}.f{fill:#fdc33d;}.g{fill:#231f20;opacity:0.15;}.h{fill:#ffd454;}.i{fill:#ffeaa9;}.j{fill:#f8bd36;}.k{fill:#804f31;}.l{fill:#71452c;}.m{fill:#f4f4f4;}</style></defs><g transform="translate(-522.93 -422.532)"><g transform="translate(522.93 425.385)"><path class="a" d="M635.3,579.117a56.187,56.187,0,1,1-56.187-56.187A56.05,56.05,0,0,1,635.3,579.117Z" transform="translate(-522.93 -522.93)"/></g><g transform="translate(529.841 422.532)"><path class="b" d="M1994.042,2484.953a8.69,8.69,0,0,1,2.854,2.295,48.049,48.049,0,0,1,7.84,11.658c-4.339,1.118-7.388,5.387-11.855,5.953a4.12,4.12,0,0,1-2.926-.567,5.566,5.566,0,0,1-1.359-1.614q-1.585-2.49-2.926-5.119a21.072,21.072,0,0,1-1.813-4.523,8.74,8.74,0,0,1,.042-4.749c.461-1.408,1.66-3.067,3.186-3.411a8.6,8.6,0,0,1,1.146-.05c.371-.029.741-.071,1.11-.113a21.643,21.643,0,0,1,2.251-.188A6.052,6.052,0,0,1,1994.042,2484.953Z" transform="translate(-1948.951 -2425.924)"/><path class="c" d="M2094.874,2542.436c-1.786-.356-4.5-.811-5.31-1.369,2.136-.863,4.1-1.373,6.146-2.426,1.446-.743,2.959-.87,3.942-2.165a8.389,8.389,0,0,1,3.626-3.151c-1.4-2.576-2.729-5.441-4.206-8l6.306-4.644c.287.294.685.706.965,1,2.3,2.437,3.163,5.844,4.453,8.937a31.652,31.652,0,0,0,7.9,11.2c1.332,1.209,2.414,2.856,3.763,4.045q-5.785,5.156-11.935,9.883a93.873,93.873,0,0,0-6.668-7.994,21.924,21.924,0,0,0-3.918-3.509A14.594,14.594,0,0,0,2094.874,2542.436Z" transform="translate(-2051.952 -2461.055)"/><path class="d" d="M2644.763,3167.814a56.18,56.18,0,0,1-15.142,9.569l-18.882-21.811,13.39-11.592.211.244Z" transform="translate(-2558.316 -3066.638)"/><path class="e" d="M2552.347,3108.363c-.561.486-.892,1.024-.738,1.2l1.028,1.187c.154.178.734-.072,1.3-.558l12.446-10.774c.562-.486.892-1.024.738-1.2l-1.028-1.187c-.154-.178-.734.072-1.3.558Z" transform="translate(-2500.829 -3020.967)"/><path class="f" d="M2349.584,723.1s5.123,20.341-11.251,31.852a33.4,33.4,0,0,1-4.611,2.7l-.645-4.846a18.217,18.217,0,0,0,7.04-4.322c3.836-3.69,7.558-10.266,6.263-21.6,0,0-.217-2.416-3.163-1.856l-6.5,1.692-1.067-3.567,10.485-2.731A3.6,3.6,0,0,1,2349.584,723.1Z" transform="translate(-2288.545 -711.957)"/><path class="g" d="M2333.078,1712.206a18.216,18.216,0,0,0,7.04-4.322,8.019,8.019,0,0,1-6.395,9.168Z" transform="translate(-2288.545 -1671.355)"/><path class="g" d="M2427.293,784.265c.212,1.107.428,2.345.634,3.68l-3.086.8-1.067-3.567Z" transform="translate(-2376.664 -773.985)"/><path class="f" d="M796.94,1164.61a32.534,32.534,0,0,1-6.742-.29c-18.767-2.837-23.962-22.137-23.962-22.137a3.6,3.6,0,0,1,1.7-4.015l10.485-2.731.809,3.634-6.5,1.692c-2.845.948-1.855,3.163-1.855,3.163,4,9.564,9.694,13.678,14.562,15.363a18.617,18.617,0,0,0,9.7.776Z" transform="translate(-766.107 -1115.177)"/><path class="g" d="M1048.2,1135.437l.809,3.634-3.99,1.039c-.472-1.265-.887-2.452-1.243-3.522Z" transform="translate(-1035.884 -1115.177)"/><path class="g" d="M1457.945,1980.031a32.542,32.542,0,0,1-6.743-.29,35.238,35.238,0,0,1-4.756-5.032,18.617,18.617,0,0,0,9.7.776Z" transform="translate(-1427.112 -1930.598)"/><path class="h" d="M1084.606,569.968l-.5.721a4.422,4.422,0,0,1-2.654,1.782l-.662.149a4.422,4.422,0,0,1-2.78-.278l-.925-.414c-18.659-4-27.047-38.182-27.047-38.182-.578-2.219,1.875-3.476,1.875-3.476l34.346-8.946s2.756-.1,3.334,2.119C1089.589,523.443,1098.943,557.374,1084.606,569.968Z" transform="translate(-1041.88 -518.515)"/><path class="i" d="M2199.828,1542.683c-.448-2.108-1.014-2.45-3.088-1.869,2.074-.582,2.439-1.186,1.993-3.294.447,2.108,1.013,2.45,3.088,1.869C2199.746,1539.971,2199.38,1540.576,2199.828,1542.683Z" transform="translate(-2156.082 -1505.833)"/><path class="i" d="M2178.1,1689.189c-.185-.869-.418-1.01-1.273-.77.855-.24,1.006-.489.822-1.358.184.869.418,1.01,1.273.771C2178.065,1688.071,2177.915,1688.321,2178.1,1689.189Z" transform="translate(-2136.734 -1651.124)"/><path class="j" d="M1000.578,430.522,961.884,440.6a2.467,2.467,0,0,1-3-1.76l-.821-3.15a2.467,2.467,0,0,1,1.76-3l38.694-10.079a2.467,2.467,0,0,1,3,1.76l.821,3.15A2.467,2.467,0,0,1,1000.578,430.522Z" transform="translate(-952.531 -422.532)"/><rect class="h" width="5.353" height="42.934" transform="matrix(0.968, -0.252, 0.252, 0.968, 35.757, 50.738)"/><rect class="k" width="34.267" height="18.232" transform="translate(30.519 87.985) rotate(-14.6)"/><rect class="l" width="38.882" height="2.93" transform="translate(32.144 103.376) rotate(-14.6)"/><rect class="i" width="21.414" height="8.754" transform="matrix(0.968, -0.252, 0.252, 0.968, 37.733, 90.183)"/><rect class="j" width="17.145" height="2.097" transform="translate(38.266 83.801) rotate(-14.6)"/><path class="h" d="M2145.81,2926.362s3.36,10.337-2.09,11.757l7.41-1.93-2.736-10.5Z" transform="translate(-2104.569 -2854.549)"/><path class="h" d="M2310.811,2901.977s2.115,10.662,7.565,9.242l-7.421,1.933-2.735-10.5Z" transform="translate(-2264.394 -2831.512)"/><path class="i" d="M2197.407,523.958c-1.753,1.839-1.735,2.646.1,4.4-1.833-1.758-2.639-1.74-4.393.1,1.754-1.838,1.736-2.646-.1-4.4C2194.848,525.815,2195.654,525.8,2197.407,523.958Z" transform="translate(-2152.463 -521.076)"/><path class="i" d="M2084.324,551.64c.326,1,.625,1.156,1.629.833-1,.323-1.156.621-.831,1.624-.326-1-.624-1.156-1.629-.833C2084.5,552.941,2084.65,552.643,2084.324,551.64Z" transform="translate(-2046.053 -547.971)"/><path class="i" d="M1310.437,947.187s.548,29.607,19.711,38.076c0,0-16.488-3.216-23.6-24.017,0,0-2.338-7.252-2.3-12.447Z" transform="translate(-1288.957 -932.277)"/><path class="c" d="M1753.527,2514.406l-.028-.2a2.3,2.3,0,0,0-2.589-1.943l-7.629,1.088a2.3,2.3,0,0,0-1.943,2.59l.028.2a2.3,2.3,0,0,0,2.59,1.943l7.628-1.088A2.3,2.3,0,0,0,1753.527,2514.406Z" transform="translate(-1713.6 -2452.853)"/><path class="c" d="M1808.819,2670.13l0-.01a2.418,2.418,0,0,0-2.9-1.8l-8.909,2.089a2.417,2.417,0,0,0-1.8,2.9l0,.01a2.418,2.418,0,0,0,2.9,1.8l8.909-2.089A2.417,2.417,0,0,0,1808.819,2670.13Z" transform="translate(-1765.905 -2604.438)"/><path class="c" d="M1904.606,2831.346l-.087-.24a2.287,2.287,0,0,0-2.921-1.364l-8.557,3.11a2.287,2.287,0,0,0-1.364,2.921l.087.24a2.286,2.286,0,0,0,2.921,1.364l8.557-3.109A2.287,2.287,0,0,0,1904.606,2831.346Z" transform="translate(-1859.556 -2761.198)"/><path class="c" d="M2020.122,3017.883l-.1-.283a1.862,1.862,0,0,0-2.379-1.111l-6.615,2.4a1.862,1.862,0,0,0-1.111,2.379l.1.283a1.862,1.862,0,0,0,2.379,1.111l6.616-2.4A1.863,1.863,0,0,0,2020.122,3017.883Z" transform="translate(-1974.457 -2942.662)"/><path class="m" d="M2036.215,2543.157l-.37-2.443a.377.377,0,0,1,.324-.43l1.341-.175a1.478,1.478,0,0,1,1.441,1.237,1.759,1.759,0,0,1-.641,1.765,2.938,2.938,0,0,1-1.236.295l-.428.067A.377.377,0,0,1,2036.215,2543.157Z" transform="translate(-1999.755 -2479.928)"/><path class="m" d="M2139.438,2693.2l-.5-2.42a.377.377,0,0,1,.3-.447l1.329-.246a1.477,1.477,0,0,1,1.506,1.158,1.759,1.759,0,0,1-.546,1.8,2.934,2.934,0,0,1-1.218.361l-.424.09A.376.376,0,0,1,2139.438,2693.2Z" transform="translate(-2099.915 -2625.645)"/><path class="m" d="M2213.582,2868.419l-.893-2.3a.377.377,0,0,1,.222-.49l1.27-.463a1.477,1.477,0,0,1,1.677.893,1.759,1.759,0,0,1-.241,1.862,2.935,2.935,0,0,1-1.142.557l-.4.158A.377.377,0,0,1,2213.582,2868.419Z" transform="translate(-2171.552 -2795.709)"/><path class="m" d="M2238.074,3048.438l-.781-2.015a.33.33,0,0,1,.195-.429l1.111-.4a1.293,1.293,0,0,1,1.467.781,1.538,1.538,0,0,1-.211,1.629,2.567,2.567,0,0,1-1,.487l-.353.139A.329.329,0,0,1,2238.074,3048.438Z" transform="translate(-2195.46 -2971.013)"/><path class="c" d="M1990.6,2249.417a17.386,17.386,0,0,0-1.8-2.493,5.823,5.823,0,0,0-2.53-1.694c-.747-.226-1.54-.247-2.305-.4a6.763,6.763,0,0,1-5.22-5.754.981.981,0,0,1,.251-.921,1,1,0,0,1,.792-.068c1.772.364,3.449,1.154,5.245,1.372,1.239.151,2.51.025,3.729.293a11.04,11.04,0,0,1,3.711,1.841,35.346,35.346,0,0,1,5.336,4.6l-6.347,4.655Q1991.04,2250.117,1990.6,2249.417Z" transform="translate(-1944.264 -2186.44)"/><path class="m" d="M1993.781,2245.817l-.4,1.47c-.034.125-.245.155-.468.066l-1.427-.573s-1.121-.492-1.082-1.367c0,0,.078-.718,1.218-.611a5.925,5.925,0,0,1,1.359.458l.459.177C1993.662,2245.522,1993.815,2245.693,1993.781,2245.817Z" transform="translate(-1955.61 -2193.003)"/></g></g></svg>