<svg xmlns="http://www.w3.org/2000/svg" width="131.383" height="71.098" viewBox="0 0 131.383 71.098"><defs><style>.a{fill:#c3dbdd;}.b{fill:#6dbfd5;}.c{fill:#384c4b;}.d{fill:#ddecef;}.e{fill:#c13838;}.f{fill:#fff;}.g{fill:#8e5c21;}.h{fill:#509039;}.i{fill:#8d6c3a;}.j{fill:#755522;}.k{fill:#419645;}.l{fill:#55b748;}.m{fill:#01d35a;stroke:#fff;}</style></defs><g transform="translate(-1401.381 -972.667)"><g transform="translate(1111.881 -830.862)"><rect class="a" width="32.27" height="30.478" transform="translate(325.629 1828.898)"/><rect class="a" width="24.396" height="30.264" transform="translate(301.833 1829.112)"/><rect class="b" width="6.921" height="6.92" transform="translate(315.985 1832.827)"/><path class="c" d="M772.276,2869.624a.743.743,0,0,0-.807.655v.48a.742.742,0,0,0,.807.655h26.959v-1.79Z" transform="translate(-470.824 -1041.441)"/><rect class="b" width="6.921" height="6.92" transform="translate(305.168 1832.827)"/><rect class="a" width="24.396" height="30.443" transform="translate(356.153 1829.112)"/><path class="c" d="M3104.342,2869.624a.743.743,0,0,1,.807.655v.48a.743.743,0,0,1-.807.655h-26.959v-1.79Z" transform="translate(-2723.412 -1041.441)"/><path class="d" d="M1916.583,2303.691v44.637H1944.8v-44.637Z" transform="translate(-1589.456 -488.596)"/><g transform="translate(331.313 1842.531)"><g transform="translate(0 0)"><rect class="b" width="8.958" height="15.761"/><rect class="b" width="8.894" height="15.761" transform="translate(10.883)"/></g></g><rect class="c" width="34.994" height="2.204" rx="1.102" transform="translate(323.74 1814.644)"/><path class="c" d="M2297.259,1865.684a4.457,4.457,0,1,1-3.152,1.305,4.429,4.429,0,0,1,3.152-1.305m0-.988a5.445,5.445,0,1,0,5.445,5.445,5.445,5.445,0,0,0-5.445-5.445Z" transform="translate(-1956.01 -59.752)"/><path class="c" d="M.885,0H21.472a.885.885,0,0,1,.885.885v0a.885.885,0,0,1-.885.885H.885A.885.885,0,0,1,0,.885v0A.885.885,0,0,1,.885,0Z" transform="translate(329.978 1840.739)"/><rect class="b" width="6.921" height="6.921" transform="translate(315.985 1842.942)"/><rect class="b" width="6.921" height="6.921" transform="translate(305.168 1842.942)"/><rect class="b" width="6.029" height="6.029" transform="translate(342.047 1822.871)"/><rect class="b" width="6.029" height="6.029" transform="translate(333.996 1822.871)"/><rect class="b" width="6.029" height="6.029" transform="translate(342.047 1831.255)"/><rect class="b" width="6.029" height="6.029" transform="translate(333.996 1831.255)"/><circle class="e" cx="4.89" cy="4.89" r="4.89" transform="translate(334.324 1810.444) rotate(-45)"/><g transform="translate(338.919 1808.049)"><rect class="f" width="1.318" height="4.671" rx="0.659" transform="translate(1.688 0)"/><rect class="f" width="4.671" height="1.318" rx="0.659" transform="translate(0 1.688)"/></g><g transform="translate(289.5 1859.318)"><path class="g" d="M289.5,4389c0,.05,0,.1,0,.15v.046c0,2.293,2.152,4.151,4.814,4.151h92.6c2.662,0,4.82-1.858,4.82-4.151v-.046c0-.051,0-.1,0-.15Z" transform="translate(-289.5 -4384.999)"/><path class="h" d="M387.064,4216h-92.6c-2.6,0-4.719,1.778-4.811,4H391.88C391.788,4217.778,389.667,4216,387.064,4216Z" transform="translate(-289.647 -4216)"/></g><g transform="translate(297.374 1848.485)"><g transform="translate(2.201 7.921)"><path class="i" d="M725.329,4090.041l-.131,3.885.757.3v-4.186Z" transform="translate(-725.198 -4090.041)"/><path class="j" d="M758.563,4090.041h-.626v4.186l.757-.3Z" transform="translate(-757.18 -4090.041)"/></g><g transform="translate(0)"><path class="k" d="M753.14,3747.886s6.773,7.332.161,9.225Z" transform="translate(-750.292 -3747.878)"/><path class="l" d="M632.848,3747.529s-6.513,7.573.161,9.233Z" transform="translate(-630 -3747.529)"/></g></g><g transform="translate(379.075 1848.485)"><g transform="translate(2.201 7.921)"><path class="i" d="M4258.271,4090.041l-.131,3.885.757.3v-4.186Z" transform="translate(-4258.14 -4090.041)"/><path class="j" d="M4291.5,4090.041h-.626v4.186l.757-.3Z" transform="translate(-4290.122 -4090.041)"/></g><g transform="translate(0)"><path class="k" d="M4286.081,3747.886s6.772,7.332.161,9.225Z" transform="translate(-4283.233 -3747.878)"/><path class="l" d="M4165.789,3747.529s-6.513,7.573.161,9.233Z" transform="translate(-4162.942 -3747.529)"/></g></g><g transform="translate(324.915 1848.485)"><g transform="translate(2.201 7.921)"><path class="i" d="M1916.271,4090.041l-.131,3.885.757.3v-4.186Z" transform="translate(-1916.139 -4090.041)"/><path class="j" d="M1949.5,4090.041h-.626v4.186l.757-.3Z" transform="translate(-1948.121 -4090.041)"/></g><g transform="translate(0)"><path class="k" d="M1944.081,3747.886s6.773,7.332.161,9.225Z" transform="translate(-1941.233 -3747.878)"/><path class="l" d="M1823.789,3747.529s-6.513,7.573.161,9.233Z" transform="translate(-1820.941 -3747.529)"/></g></g><g transform="translate(352.139 1848.485)"><g transform="translate(2.201 7.921)"><path class="i" d="M3093.505,4090.041l-.131,3.885.757.3v-4.186Z" transform="translate(-3093.374 -4090.041)"/><path class="j" d="M3126.739,4090.041h-.626v4.186l.757-.3Z" transform="translate(-3125.356 -4090.041)"/></g><g transform="translate(0)"><path class="k" d="M3121.315,3747.886s6.773,7.332.161,9.225Z" transform="translate(-3118.467 -3747.878)"/><path class="l" d="M3001.024,3747.529s-6.513,7.573.161,9.233Z" transform="translate(-2998.177 -3747.529)"/></g></g><g transform="translate(311.145 1848.485)"><g transform="translate(2.201 7.921)"><path class="i" d="M1320.8,4090.041l-.131,3.885.757.3v-4.186Z" transform="translate(-1320.669 -4090.041)"/><path class="j" d="M1354.033,4090.041h-.626v4.186l.757-.3Z" transform="translate(-1352.65 -4090.041)"/></g><g transform="translate(0)"><path class="k" d="M1348.61,3747.886s6.773,7.332.161,9.225Z" transform="translate(-1345.762 -3747.878)"/><path class="l" d="M1228.319,3747.529s-6.513,7.573.161,9.233Z" transform="translate(-1225.471 -3747.529)"/></g></g><g transform="translate(359.476 1832.827)"><rect class="b" width="6.92" height="6.92" transform="translate(10.817 0)"/><rect class="b" width="6.921" height="6.92" transform="translate(0 0)"/><rect class="b" width="6.921" height="6.921" transform="translate(10.817 10.116)"/><rect class="b" width="6.921" height="6.921" transform="translate(0 10.116)"/></g><g transform="translate(365.607 1848.485)"><g transform="translate(2.201 7.921)"><path class="i" d="M3675.887,4090.041l-.131,3.885.757.3v-4.186Z" transform="translate(-3675.756 -4090.041)"/><path class="j" d="M3709.122,4090.041h-.626v4.186l.757-.3Z" transform="translate(-3707.739 -4090.041)"/></g><g transform="translate(0)"><path class="k" d="M3703.7,3747.886s6.773,7.332.161,9.225Z" transform="translate(-3700.849 -3747.878)"/><path class="l" d="M3583.406,3747.529s-6.513,7.573.161,9.233Z" transform="translate(-3580.559 -3747.529)"/></g></g></g><path class="m" d="M19.264,0A19.264,19.264,0,1,0,38.529,19.264,19.286,19.286,0,0,0,19.264,0Zm8.428,20.87H20.87v6.823a1.605,1.605,0,1,1-3.211,0V20.87H10.836a1.605,1.605,0,1,1,0-3.211h6.823V10.836a1.605,1.605,0,1,1,3.211,0v6.823h6.823a1.605,1.605,0,1,1,0,3.211Z" transform="translate(1493.736 1004.736)"/></g></svg>