<svg xmlns="http://www.w3.org/2000/svg" width="60.934" height="44.227" viewBox="0 0 60.934 44.227"><defs><style>.a{fill:#5a4146;}.b{fill:#694b4b;}.c{fill:#e6af78;}.d{fill:#d29b6e;}.e{fill:#d5dced;}.f{fill:#afb9d2;}.g{fill:#f0c087;}.h{fill:#c7cfe2;}.i{fill:#959cb5;}.j{fill:#ff507d;}.k{fill:#707487;}.l{fill:#5b5d6e;}.m{fill:#d23c69;}</style></defs><g transform="translate(0 -70.193)"><path class="a" d="M371.613,205.27v.69a7.864,7.864,0,0,0,.4,2.486l1.562,4.686h2.948V202.321h-1.966A2.949,2.949,0,0,0,371.613,205.27Z" transform="translate(-327.387 -116.403)"/><path class="b" d="M399.62,200.038l-1.663,5.821-7.862-6.88a1.966,1.966,0,0,1-1.966-1.966h0a2.949,2.949,0,0,1,2.948-2.948h6.88a1.966,1.966,0,0,1,1.966,1.966v1.847A7.86,7.86,0,0,1,399.62,200.038Z" transform="translate(-341.937 -109.13)"/><rect class="c" width="5.897" height="4.35" transform="translate(48.157 99.678)"/><path class="d" d="M404.645,319.74a7.8,7.8,0,0,0,5.9,0v-1.805h-5.9v1.805Z" transform="translate(-356.487 -218.258)"/><path class="e" d="M364.357,339.323l-4.741-1.355-2.948,1.957-2.948-1.957-4.741,1.355a2.949,2.949,0,0,0-2.138,2.835v7.185a.983.983,0,0,0,.983.983h17.69a.983.983,0,0,0,.983-.983v-7.185A2.948,2.948,0,0,0,364.357,339.323Z" transform="translate(-305.561 -235.907)"/><path class="f" d="M423.127,364.876h-1.966l.491-10.392h.983Z" transform="translate(-371.038 -250.457)"/><path class="g" d="M385.768,246.254h0a5.9,5.9,0,0,1-5.9-5.9v-1.151a1.966,1.966,0,0,1,.576-1.39l1.782-1.782a1.942,1.942,0,0,1,1.427-.578c3.142.1,5.922.772,7.443,2.257a1.94,1.94,0,0,1,.566,1.392v1.252A5.9,5.9,0,0,1,385.768,246.254Z" transform="translate(-334.662 -145.594)"/><path class="c" d="M382.819,239.449a1.962,1.962,0,0,1,2.084-1.963,20.738,20.738,0,0,1,6.734,1.327,1.9,1.9,0,0,0-.539-1.1c-1.52-1.485-4.3-2.158-7.443-2.257h0a1.943,1.943,0,0,0-1.427.578l-1.782,1.782a1.965,1.965,0,0,0-.576,1.39v1.151a5.9,5.9,0,0,0,4.263,5.662,5.848,5.848,0,0,1-1.314-3.7v-2.873Z" transform="translate(-334.662 -145.593)"/><path class="h" d="M478.968,363.619a2.948,2.948,0,0,1,.863-2.085l2.53-2.53a2.937,2.937,0,0,1,.538,1.686v7.185a.983.983,0,0,1-.983.983h-2.948v-5.24Z" transform="translate(-421.965 -254.439)"/><path class="i" d="M422.635,356.45h-.983a.492.492,0,0,1-.491-.491v-1.474h1.966v1.474A.491.491,0,0,1,422.635,356.45Z" transform="translate(-371.038 -250.457)"/><g transform="translate(47.071 101.281)"><path class="h" d="M399.547,334.148l-1.666,1.272a.59.59,0,0,1-.875-.185l-1.494-2.729.6-.917a.393.393,0,0,1,.6-.073Z" transform="translate(-395.512 -331.411)"/><path class="h" d="M429.419,334.148l1.666,1.272a.59.59,0,0,0,.875-.185l1.494-2.729-.6-.917a.393.393,0,0,0-.6-.073Z" transform="translate(-425.384 -331.411)"/></g><path class="a" d="M19.406,212.285a35.469,35.469,0,0,1-1.65-8.042,7.124,7.124,0,0,0-6.991-6.88,7.124,7.124,0,0,0-6.991,6.88,35.471,35.471,0,0,1-1.65,8.042.979.979,0,0,0,.512,1.25,18.773,18.773,0,0,0,5.133,1.518h5.992a18.936,18.936,0,0,0,5.133-1.518A.979.979,0,0,0,19.406,212.285Z" transform="translate(-1.813 -112.035)"/><path class="b" d="M61.655,213.536a.979.979,0,0,0,.512-1.25,35.471,35.471,0,0,1-1.65-8.042,7.124,7.124,0,0,0-6.991-6.88H53.5a3,3,0,0,0-1.459,5.56,2.722,2.722,0,0,0,.251.134l2.234,12h2A18.95,18.95,0,0,0,61.655,213.536Z" transform="translate(-44.574 -112.036)"/><path class="c" d="M16.061,315.975l-3.18-1.59a1.966,1.966,0,0,1-1.087-1.758v-2.948H5.9v2.949a1.965,1.965,0,0,1-1.087,1.758l-3.18,1.59A2.948,2.948,0,0,0,0,318.612v5.808a.983.983,0,0,0,.983.983H16.708a.983.983,0,0,0,.983-.983v-5.808A2.948,2.948,0,0,0,16.061,315.975Z" transform="translate(0 -210.983)"/><path class="d" d="M52.1,313.608a7.769,7.769,0,0,0,3-.606,1.939,1.939,0,0,1-.053-.376v-2.949h-5.9v2.949A1.936,1.936,0,0,1,49.1,313,7.809,7.809,0,0,0,52.1,313.608Z" transform="translate(-43.258 -210.983)"/><path class="e" d="M16.061,354.2l-2.266-1.133a5.889,5.889,0,0,1-9.9,0L1.63,354.2A2.948,2.948,0,0,0,0,356.838v5.808a.983.983,0,0,0,.983.983H16.708a.983.983,0,0,0,.983-.983v-5.808A2.948,2.948,0,0,0,16.061,354.2Z" transform="translate(0 -249.21)"/><path class="g" d="M30.969,254.634h0a5.9,5.9,0,0,1-5.848-5.134.991.991,0,0,1,.525-1.022,8.206,8.206,0,0,0,1.74-1.175,5.676,5.676,0,0,0,1.345-1.769A.973.973,0,0,1,29.839,245a16.933,16.933,0,0,1,6.671,3.418.951.951,0,0,1,.338.79A5.9,5.9,0,0,1,30.969,254.634Z" transform="translate(-22.124 -153.974)"/><path class="c" d="M36.51,248.413a16.932,16.932,0,0,0-6.671-3.418.973.973,0,0,0-1.108.539,5.627,5.627,0,0,1-.9,1.311v0a5.264,5.264,0,0,1-.446.455,8.2,8.2,0,0,1-1.74,1.175.992.992,0,0,0-.525,1.022,5.906,5.906,0,0,0,4.954,5.066,4.3,4.3,0,0,1-2.054-3.864v-1.4c.223-.165.448-.329.674-.531a7.826,7.826,0,0,0,1.406-1.658,14.843,14.843,0,0,1,5.122,2.787c.186.163.649.589,1.189,1.1a5.853,5.853,0,0,0,.436-1.792A.951.951,0,0,0,36.51,248.413Z" transform="translate(-22.124 -153.973)"/><path class="h" d="M.6,369.859a2.942,2.942,0,0,0-.6,1.772v5.808a.983.983,0,0,0,.983.983H3.931v-4.952a1.966,1.966,0,0,0-.738-1.535Z" transform="translate(0 -264.002)"/><path class="j" d="M146.441,329.182l-8.223-2.99-5.9,1.966-5.9-1.966-8.223,2.99a3.931,3.931,0,0,0-2.588,3.694v6.092a.983.983,0,0,0,.983.983h31.45a.983.983,0,0,0,.983-.983v-6.092A3.931,3.931,0,0,0,146.441,329.182Z" transform="translate(-101.854 -225.532)"/><path class="k" d="M240.42,359.226l-.936,9.828h3.931l-.936-9.828Z" transform="translate(-210.983 -254.635)"/><path class="l" d="M244.3,346.025h-2.064a.688.688,0,0,1-.688-.688v-2.628h3.44v2.628A.688.688,0,0,1,244.3,346.025Z" transform="translate(-212.802 -240.083)"/><path class="m" d="M351.678,359.855a3.927,3.927,0,0,1,1.058,2.678v6.092a.983.983,0,0,1-.983.983h-4.914v-3.286a3.931,3.931,0,0,1,1.151-2.78Z" transform="translate(-305.561 -255.189)"/><path class="a" d="M186.783,80.392V72.159a1.966,1.966,0,0,0-1.966-1.966H173.024a7.863,7.863,0,0,0-7.863,7.863v2.336a9.828,9.828,0,0,0,.5,3.108l.327.982a2.948,2.948,0,0,1,.151.932v.5H185.8v-.5a2.95,2.95,0,0,1,.151-.932l.327-.982A9.826,9.826,0,0,0,186.783,80.392Z" transform="translate(-145.505 0)"/><path class="b" d="M206.452,74.186a3.993,3.993,0,0,0,3.993,3.993H211l.267,7.74h10.913v-.5a2.949,2.949,0,0,1,.151-.932l.327-.981a9.828,9.828,0,0,0,.5-3.108V72.159a1.966,1.966,0,0,0-1.966-1.966H210.445A3.993,3.993,0,0,0,206.452,74.186Z" transform="translate(-181.882 0)"/><rect class="c" width="11.794" height="8.845" transform="translate(24.57 93.781)"/><path class="d" d="M206.451,271.709a11.725,11.725,0,0,0,11.794,0v-3.323H206.451v3.323Z" transform="translate(-181.881 -174.606)"/><g transform="translate(22.605 99.024)"><path class="m" d="M197.8,316.045l-3.135,3.135a.983.983,0,0,1-1.478-.1l-3.25-4.282.85-1.792a.983.983,0,0,1,1.4-.415Z" transform="translate(-189.936 -312.443)"/><path class="m" d="M256,316.045l3.135,3.135a.983.983,0,0,0,1.478-.1l3.25-4.282-.85-1.792a.983.983,0,0,0-1.4-.415Z" transform="translate(-248.138 -312.443)"/></g><path class="g" d="M183.247,155.713h0a9.828,9.828,0,0,1-9.828-9.828v-1.151a1.966,1.966,0,0,1,.576-1.39l.814-.814a1.966,1.966,0,0,0,.576-1.39v-2.356a.975.975,0,0,1,.748-.955c2.324-.549,9.558-1.849,14.48,1.771a1.261,1.261,0,0,1,.5,1.018v.522a1.966,1.966,0,0,0,.576,1.39l.814.814a1.966,1.966,0,0,1,.576,1.39v1.151A9.828,9.828,0,0,1,183.247,155.713Z" transform="translate(-152.78 -58.984)"/><path class="c" d="M190.613,139.612c-3.462-2.546-8.061-2.656-11.3-2.308a26.514,26.514,0,0,0-3.183.537.975.975,0,0,0-.748.955v2.356a1.965,1.965,0,0,1-.576,1.39l-.814.814a1.966,1.966,0,0,0-.576,1.39V145.9a9.825,9.825,0,0,0,8.64,9.749,9.787,9.787,0,0,1-2.744-6.8v-7.184a1.967,1.967,0,0,1,1.729-1.952c2.359-.3,6.678-.474,10.065,1.442v-.522A1.261,1.261,0,0,0,190.613,139.612Z" transform="translate(-152.78 -58.997)"/><path class="m" d="M116.671,359.855a3.927,3.927,0,0,0-1.058,2.678v6.092a.983.983,0,0,0,.983.983h4.914v-3.286a3.931,3.931,0,0,0-1.151-2.78Z" transform="translate(-101.854 -255.189)"/></g></svg>