<svg xmlns="http://www.w3.org/2000/svg" width="52.905" height="49.552" viewBox="0 0 52.905 49.552"><defs><style>.a{fill:#444;}</style></defs><g transform="translate(0 -16.224)"><g transform="translate(0 16.224)"><path class="a" d="M52.13,58.142a.775.775,0,0,0-.775.775V64.1a.131.131,0,0,1-.131.131H48.28V52.9a.775.775,0,1,0-1.55,0V64.226h-5.69l1.54-1.694a1.239,1.239,0,0,0,.3-.994l0-.023L41.145,51.285l.319-.48.083.059a1.213,1.213,0,0,0,1.788-.447h0L45.1,46.886l4.024,1.559a3.857,3.857,0,0,1,2.234,3.5V55.3a.775.775,0,0,0,1.55,0V51.942a5.4,5.4,0,0,0-3.2-4.932L49.692,47,42.839,44.35V42.939a5.659,5.659,0,0,0,2.046-3.515,2.7,2.7,0,0,0,1.439-.634,2.669,2.669,0,0,0,.325-3.71V32.989A7.416,7.416,0,0,0,34.411,27.35a2.664,2.664,0,0,0-.6-1.613V23.646a7.422,7.422,0,1,0-14.844,0v2.146a2.528,2.528,0,0,0-.6,1.551,7.389,7.389,0,0,0-2.923-1.531.775.775,0,0,0-.395,1.5,5.874,5.874,0,0,1,4.372,5.678v1.159l-.145-.026a.893.893,0,0,0-.185-.524c-.2-.285-.555-.64-1.7-1.872a1.225,1.225,0,0,0-1.57-.191,11.074,11.074,0,0,1-6.56,1.806,1.239,1.239,0,0,0-1.363.793l-.219.044V32.989a5.909,5.909,0,0,1,4.176-5.622.775.775,0,1,0-.447-1.484,7.481,7.481,0,0,0-3.784,2.64,7.355,7.355,0,0,0-1.495,4.466v2.146a2.526,2.526,0,0,0-.6,1.634A2.676,2.676,0,0,0,7.9,39.425a5.724,5.724,0,0,0,2.16,3.605v1.321L3.213,47,3.2,47.01A5.4,5.4,0,0,0,0,51.942V64.1a1.682,1.682,0,0,0,1.681,1.681H25.547a1.67,1.67,0,0,0,.906-.267,1.669,1.669,0,0,0,.906.267H51.224A1.682,1.682,0,0,0,52.9,64.1V58.917A.775.775,0,0,0,52.13,58.142ZM7.822,37.823a1.119,1.119,0,0,1-.745-1.055,1.145,1.145,0,0,1,.745-1.008Zm35.822,8.5-1.521,3.049-1.714-1.217,1.9-2.348Zm-4.355.752-2-2.474v-.743a6.25,6.25,0,0,0,2.014.329h0a5.73,5.73,0,0,0,1.99-.362v.78Zm.91,2.832-.285.429H38.664l-.285-.429.91-.646ZM26.45,37.733l-2-2.474v-.743a6.25,6.25,0,0,0,2.014.329h0a5.728,5.728,0,0,0,1.99-.361v.78Zm.91,2.832-.285.429H25.826l-.285-.429.91-.646ZM20.347,30.007a2.772,2.772,0,0,0,.389.074,5.724,5.724,0,0,0,2.16,3.605v1.321l-1.581.613a2.656,2.656,0,0,0-.342-.54V32.989A7.4,7.4,0,0,0,20.347,30.007Zm10.221-.821a4.179,4.179,0,0,1-8.357,0v-3.63a12.691,12.691,0,0,0,7.068-1.921c.7.749,1.115,1.185,1.29,1.387C30.569,26.952,30.569,27.7,30.569,29.186Zm1.479.894a2.787,2.787,0,0,0,.387-.074,7.377,7.377,0,0,0-.628,2.983v2.146a2.644,2.644,0,0,0-.306.453L30,35.007V33.6A5.66,5.66,0,0,0,32.047,30.081Zm-8.622,6.385,1.9,2.348-1.3.921,0,0-.412.293L22.1,36.981Zm4.809,1.528,1.239-1.529,1.333.516L29.284,40.03l-.413-.293h0l-1.3-.923Zm.391,3.469.083.059a1.213,1.213,0,0,0,1.788-.447h0L31.8,38.453a2.72,2.72,0,0,0,1.769.974,5.634,5.634,0,0,0,2.163,3.6V44.35L29.146,46.9l-.84-4.963Zm7.639,4.347,1.9,2.348-1.711,1.216-1.521-3.049Zm7.143-7.279a4.179,4.179,0,0,1-8.357,0V34.9a12.7,12.7,0,0,0,7.068-1.921c.7.749,1.115,1.185,1.29,1.387C43.407,36.295,43.407,37.04,43.407,38.53ZM45.7,36.768a1.119,1.119,0,0,1-.745,1.055V35.715A1.117,1.117,0,0,1,45.7,36.768ZM33.356,32.989a5.872,5.872,0,1,1,11.743,0v1.159c-.035-.007-.132-.024-.145-.026a.893.893,0,0,0-.185-.524c-.2-.293-.556-.642-1.7-1.872a1.226,1.226,0,0,0-1.57-.191,11.1,11.1,0,0,1-6.618,1.8,1.219,1.219,0,0,0-1.305.8l-.219.044V32.989ZM33.5,35.76v2.063a1.116,1.116,0,0,1-.745-1.054A1.144,1.144,0,0,1,33.5,35.76Zm-.636-8.335a1.115,1.115,0,0,1-.387.847,1.147,1.147,0,0,1-.357.208V26.372A1.117,1.117,0,0,1,32.863,27.425ZM26.39,17.774a5.878,5.878,0,0,1,5.872,5.872V24.8l-.145-.026a.939.939,0,0,0-.219-.572c-.207-.281-.59-.667-1.666-1.824a1.225,1.225,0,0,0-1.57-.191,11.07,11.07,0,0,1-6.68,1.8,1.232,1.232,0,0,0-1.243.8l-.219.044V23.646h0A5.879,5.879,0,0,1,26.39,17.774Zm-5.729,8.642V28.48a1.119,1.119,0,0,1-.745-1.055A1.145,1.145,0,0,1,20.661,26.416Zm-1.381,9.3a1.119,1.119,0,0,1,0,2.107Zm-.072,3.711a2.718,2.718,0,0,0,1.842-1.069l1.355,2.717h0a1.213,1.213,0,0,0,1.788.447l.083-.059.319.48-.84,4.962L17.162,44.35V42.939h0A5.665,5.665,0,0,0,19.208,39.427Zm-5.6,7.649-2-2.474v-.743a6.247,6.247,0,0,0,2.014.329h0a5.727,5.727,0,0,0,1.99-.361v.78Zm.91,2.832-.285.429H12.987l-.285-.429.91-.646Zm2.112-4.1,1.333.516-1.521,3.049-.413-.293h0l-1.3-.923ZM9.372,38.53V34.9a12.7,12.7,0,0,0,7.068-1.921c.692.742,1.114,1.184,1.29,1.387V38.53a4.179,4.179,0,0,1-8.357,0Zm1.214,7.279,1.9,2.348-1.3.921,0,0-.412.293L9.257,46.324ZM6.175,64.226V52.9a.775.775,0,1,0-1.55,0V64.226H1.681A.131.131,0,0,1,1.55,64.1V51.942a3.857,3.857,0,0,1,2.233-3.5L7.8,46.886l1.762,3.531h0a1.213,1.213,0,0,0,1.788.447l.083-.059.319.48L10.025,61.514l0,.023a1.24,1.24,0,0,0,.3.995l1.54,1.694H6.175Zm5.405-2.614,1.646-9.725H14l1.646,9.725-2.031,2.235Zm14.1,2.483a.131.131,0,0,1-.131.131H22.6V52.9a.775.775,0,1,0-1.55,0V64.226h-5.69l1.54-1.694a1.239,1.239,0,0,0,.3-.994l0-.023L15.467,51.285l.319-.48.083.059a1.213,1.213,0,0,0,1.788-.447h0l1.762-3.531,4.024,1.559a3.849,3.849,0,0,1,2.234,3.5V64.1Zm.775-14.97a5.518,5.518,0,0,0-1.264-1.4l.876-5.178h.771l.877,5.18A5.522,5.522,0,0,0,26.452,49.126Zm5.4,15.1h0V52.9a.775.775,0,1,0-1.55,0V64.226H27.358a.131.131,0,0,1-.131-.131V51.942a3.7,3.7,0,0,1,.9-2.483,4.172,4.172,0,0,1,1.329-1.014l4.022-1.559,1.762,3.531h0a1.213,1.213,0,0,0,1.788.447l.083-.059.319.48L35.7,61.514l0,.023a1.24,1.24,0,0,0,.3.995l1.54,1.694H31.853Zm5.405-2.614L38.9,51.887h.771l1.646,9.725-2.031,2.235Z" transform="translate(0 -16.224)"/></g></g></svg>