<svg xmlns="http://www.w3.org/2000/svg" width="56.001" height="57.125" viewBox="0 0 56.001 57.125"><defs><style>.a{fill:#ddf5fa;}.b{fill:#24afd6;}.c{fill:#57cee6;}.d{fill:#fffdfa;}.e{fill:#fa5d3f;}.f{fill:#fac850;}.g{fill:#c85aed;}.h{fill:#f5f1ff;}</style></defs><g transform="translate(-24 -23.124)"><g transform="translate(26.897 38.732)"><path class="a" d="M49.207,144h49v30.656A1.207,1.207,0,0,1,97,175.862H49.207A1.207,1.207,0,0,1,48,174.656V145.207A1.207,1.207,0,0,1,49.207,144Z" transform="translate(-48 -144)"/><path class="b" d="M189.242,410.621H168v-.852a2.414,2.414,0,0,1,2.017-2.381l.751-.125a3.621,3.621,0,0,0,3.025-3.571V400h9.655v3.691a3.621,3.621,0,0,0,3.026,3.571l.751.125a2.414,2.414,0,0,1,2.017,2.381Z" transform="translate(-153.517 -369.103)"/><path class="c" d="M48,360H98.208v4.586A1.207,1.207,0,0,1,97,365.793H49.207A1.207,1.207,0,0,1,48,364.586Z" transform="translate(-48 -333.931)"/></g><rect class="d" width="40" height="38" rx="10" transform="translate(32 23.124)"/><path class="e" d="M81.207,24h40.069a1.207,1.207,0,0,1,1.207,1.207v4.586H80V25.207A1.207,1.207,0,0,1,81.207,24Z" transform="translate(-49.241 0.249)"/><path class="f" d="M256,120v4.828a4.828,4.828,0,0,1,0,9.655v4.828A9.655,9.655,0,1,0,256,120Z" transform="translate(-204 -84.165)"/><g transform="translate(42.345 35.835)"><path class="g" d="M185.655,209.655v-4.828A4.828,4.828,0,0,1,180.828,200H176A9.655,9.655,0,0,0,185.655,209.655Z" transform="translate(-176 -190.345)"/><path class="e" d="M185.655,124.828V120A9.655,9.655,0,0,0,176,129.655h4.828A4.828,4.828,0,0,1,185.655,124.828Z" transform="translate(-176 -120)"/></g><g transform="translate(34.621 32.938)"><path class="e" d="M119.041,99.579l-1.648-1.648H112V96h5.793a.966.966,0,0,1,.683.283l1.931,1.931Z" transform="translate(-112 -96)"/><path class="e" d="M112,128h4.828v1.931H112Z" transform="translate(-112 -124.138)"/></g><g transform="translate(60.973 52.249)"><path class="f" d="M338.75,277.922h-5.793a.966.966,0,0,1-.683-.283l-1.931-1.931,1.365-1.365,1.648,1.648h5.393Z" transform="translate(-330.343 -272.129)"/><path class="f" d="M360,256h4.828v1.931H360Z" transform="translate(-356.421 -256)"/></g><g transform="translate(33.655 26.18)"><path class="d" d="M104,40h1.931v1.931H104Z" transform="translate(-104 -40)"/><path class="d" d="M136,40h1.931v1.931H136Z" transform="translate(-132.138 -40)"/><path class="d" d="M168,40h1.931v1.931H168Z" transform="translate(-160.276 -40)"/><path class="d" d="M392,40h1.931v1.931H392Z" transform="translate(-357.241 -40)"/></g><g transform="translate(24 45.49)"><path class="g" d="M37.517,211.586v-1.931l3.862-2.9-3.862-1.448V200H24v11.586Z" transform="translate(-24 -200)"/><g transform="translate(2.897 2.897)"><path class="h" d="M48,248h1.931v2.9H48Z" transform="translate(-48 -245.103)"/><path class="h" d="M72,224h1.931v5.793H72Z" transform="translate(-69.103 -224)"/><path class="h" d="M96,240h1.931v3.862H96Z" transform="translate(-90.207 -238.069)"/></g></g><g transform="translate(62.621 33.904)"><path class="f" d="M347.862,104v1.931l-3.862,2.9,3.862,1.448v5.31H361.38V104Z" transform="translate(-344 -104)"/><path class="d" d="M395.709,129.29l-1.366-1.365,2.9-2.9a.965.965,0,0,1,1.365,0l1.144,1.144,2.229-2.972,1.545,1.159-2.9,3.862a.965.965,0,0,1-1.455.1l-1.248-1.248Z" transform="translate(-388.267 -120.883)"/></g></g></svg>