<svg xmlns="http://www.w3.org/2000/svg" width="26" height="25.496" viewBox="0 0 26 25.496"><defs><style>.a{fill:#c1c8d1;}.b{fill:#f7d881;}.c{fill:#78b75b;}.d{fill:#96cc7f;}.e{fill:#f5b95b;}.f{fill:#ebf7fe;}.g{fill:#c18e5c;}</style></defs><g transform="translate(-16 -17)"><path class="a" d="M56.441,27.458h2.2V23.051a4.407,4.407,0,1,1,8.814,0v4.407h2.2a1.8,1.8,0,0,1,.441.062V23.051a7.051,7.051,0,1,0-14.1,0v4.468A1.8,1.8,0,0,1,56.441,27.458Z" transform="translate(-37.797 1)"/><rect class="b" width="17" height="15" rx="2" transform="translate(17 27.248)"/><path class="c" d="M306.576,259.085l-1.459-.326A5.976,5.976,0,0,1,301.288,256a5.976,5.976,0,0,1-3.829,2.759l-1.459.326a12.339,12.339,0,0,0,4.936,9.871l.353.264.353-.264A12.339,12.339,0,0,0,306.576,259.085Z" transform="translate(-264.576 -226.724)"/><path class="d" d="M299.023,267.171a10.05,10.05,0,0,0,6.936-8.223l-.842-.19A5.976,5.976,0,0,1,301.288,256a5.976,5.976,0,0,1-3.829,2.759l-1.459.326A12.339,12.339,0,0,0,299.023,267.171Z" transform="translate(-264.576 -226.724)"/><path class="e" d="M16,288h5.288v7.932H16Z" transform="translate(0 -256.961)"/><g transform="translate(16 31.039)"><path class="a" d="M16,328h5.288v.881H16Z" transform="translate(-16 -325.797)"/><path class="a" d="M16,376h5.288v.881H16Z" transform="translate(-16 -371.153)"/><path class="a" d="M154.639,292.649v-3.768a.881.881,0,1,0-1.763,0v3.768a1.763,1.763,0,1,0,1.763,0Z" transform="translate(-144.504 -288)"/></g><circle class="f" cx="2.5" cy="2.5" r="2.5" transform="translate(34 33.248)"/><path class="g" d="M363.275,321.446a.441.441,0,0,1-.353-.176l-1.322-1.763.705-.529.881,1.194,1.886-3.772.784.4-2.2,4.407a.441.441,0,0,1-.353.242Z" transform="translate(-326.563 -283.797)"/></g></svg>