<svg xmlns="http://www.w3.org/2000/svg" width="38.232" height="45.154" viewBox="0 0 38.232 45.154"><defs><style>.a{fill:#5a5a5a;}</style></defs><g transform="translate(-52.8 -16)"><g transform="translate(52.8 16)"><g transform="translate(0 0)"><path class="a" d="M85.343,33.614H83.91V27.995a11.995,11.995,0,0,0-23.989,0v5.619H58.489A5.694,5.694,0,0,0,52.8,39.3V55.465a5.694,5.694,0,0,0,5.689,5.689H85.343a5.694,5.694,0,0,0,5.689-5.689V39.3A5.7,5.7,0,0,0,85.343,33.614ZM62.636,27.995a9.279,9.279,0,0,1,18.559,0v5.619H62.636ZM88.647,55.989a3.075,3.075,0,0,1-2.726,2.826H57.9a3.075,3.075,0,0,1-2.726-2.826V38.769A3.172,3.172,0,0,1,58,35.944H85.733a3.273,3.273,0,0,1,2.925,2.826V55.989Z" transform="translate(-52.8 -16)"/><path class="a" d="M233.161,284a1.294,1.294,0,0,0-1.293,1.3v7.539a1.3,1.3,0,0,0,2.594,0V285.3A1.305,1.305,0,0,0,233.161,284Z" transform="translate(-214.044 -257.26)"/></g></g></g></svg>