<svg xmlns="http://www.w3.org/2000/svg" width="54.581" height="54.582" viewBox="0 0 54.581 54.582"><defs><style>.a{fill:#fff;opacity:0.8;}</style></defs><path class="a" d="M50.86,22.329H32.253V3.721A3.723,3.723,0,0,0,28.531,0H26.05a3.723,3.723,0,0,0-3.721,3.721V22.329H3.721A3.723,3.723,0,0,0,0,26.05v2.481a3.723,3.723,0,0,0,3.721,3.721H22.329V50.86a3.723,3.723,0,0,0,3.721,3.721h2.481a3.723,3.723,0,0,0,3.721-3.721V32.253H50.86a3.723,3.723,0,0,0,3.721-3.721V26.05A3.723,3.723,0,0,0,50.86,22.329Zm0,0"/></svg>