<svg xmlns="http://www.w3.org/2000/svg" width="284.096" height="153.976" viewBox="0 0 284.096 153.976"><defs><style>.a{fill:#e9f6f7;}.b,.c,.g,.h,.k,.m{fill:none;stroke-linecap:round;stroke-linejoin:round;}.b,.c,.h,.m{stroke:#262626;}.b{stroke-width:0.899px;}.c{stroke-width:0.936px;}.d{fill:#ff7c77;}.e{fill:#882114;}.f{fill:#262626;}.g,.k{stroke:#882114;}.g,.h{stroke-width:0.659px;}.i{fill:#fff;}.j{fill:#008cc1;}.k{stroke-width:0.674px;}.l{fill:#98e8e3;}.m{stroke-width:0.787px;}</style></defs><g transform="translate(-772.451 -3712.536)"><g transform="translate(746.162 3646.599)"><path class="a" d="M276.637,149.8a33.54,33.54,0,0,0-14.5,3.309,53.656,53.656,0,0,0-73.02-46.678A60.847,60.847,0,0,0,71.713,126.561l-.056,0a45.367,45.367,0,1,0,0,90.734h204.98a33.749,33.749,0,0,0,0-67.5Zm-114.359,33.75h-3.214q1.258-.61,2.482-1.273C161.781,182.7,162.029,183.122,162.277,183.545Z" transform="translate(0)"/></g><g transform="translate(523.915 3599.423)"><g transform="translate(271.808 113.113)"><g transform="translate(26.544)"><g transform="translate(140.728 10.632)"><circle class="a" cx="15.775" cy="15.775" r="15.775" transform="translate(0 30.687) rotate(-76.562)"/><g transform="translate(18.122 11.584)"><line class="b" y1="10.131"/><line class="b" x2="7.487" transform="translate(0 10.319)"/></g></g><path class="a" d="M345.763,113.113h-26.34a2.921,2.921,0,0,0-2.921,2.921v11.417a2.921,2.921,0,0,0,2.921,2.921h24.945l3.553,3.419a.45.45,0,0,0,.763-.324V116.034A2.921,2.921,0,0,0,345.763,113.113Z" transform="translate(-316.502 -113.113)"/><line class="c" x2="21.821" transform="translate(4.762 5.29)"/><line class="c" x2="21.821" transform="translate(4.762 8.92)"/><line class="c" x2="11.833" transform="translate(4.762 12.551)"/></g></g><g transform="translate(307.796 140.378)"><g transform="translate(49.099 0)"><g transform="translate(45.923)"><g transform="translate(8.684 19.017)"><path class="d" d="M507.021,192.333l.226,11.164c.083,3.138,2.244,3.3,5.333,3.193h0c2.636-.091,4.866-.941,5.1-3.569l.165-12.079Z" transform="translate(-507.021 -191.042)"/><path class="e" d="M507.207,200.606s9.242-1.446,9.826-8.866l-10.012,5.248Z" transform="translate(-507.021 -191.325)"/></g><path class="f" d="M512.053,172.237s5.489-8.381-1.12-9.347c-3.947-.577-5.085-1.815-9.912-3.5-5.584-1.955-13.265,4.3-4.983,10.49l12.942-2.816Z" transform="translate(-492.399 -159.021)"/><path class="e" d="M501.576,182.983a3.132,3.132,0,1,1-3.239-3.022A3.132,3.132,0,0,1,501.576,182.983Z" transform="translate(-493.582 -167.524)"/><path class="d" d="M508.938,185.792l-4.378.151a5.818,5.818,0,0,1-6.019-5.806l-.015-8.072a7.641,7.641,0,0,1,7.376-7.648h0c4.217-.146,8.493,3.129,8.639,7.347l-.144,8.464A5.654,5.654,0,0,1,508.938,185.792Z" transform="translate(-494.887 -161.21)"/><path class="f" d="M513.331,175.205s-4.863-2.466-3.231-6.545c0,0-7.139-3.74-10.533-.027l.042-5.233,11.264.692,4.884,5.38-.792,4.543Z" transform="translate(-495.31 -160.799)"/><g transform="translate(17.324 12.058)"><path class="d" d="M527.832,182.349a3.132,3.132,0,1,1-3.239-3.022A3.132,3.132,0,0,1,527.832,182.349Z" transform="translate(-521.569 -179.325)"/><path class="g" d="M525.055,184.855s-.078-2.27,2.1-1.987" transform="translate(-522.984 -180.753)"/></g><g transform="translate(3.874 11.082)"><path class="h" d="M504.553,185.673l-.116,1.64,1-.035" transform="translate(-501.162 -180.927)"/><path class="f" d="M501.9,183.91a.655.655,0,1,1-.678-.633A.656.656,0,0,1,501.9,183.91Z" transform="translate(-499.599 -179.954)"/><path class="f" d="M510.814,183.6a.655.655,0,1,1-.678-.633A.656.656,0,0,1,510.814,183.6Z" transform="translate(-503.219 -179.829)"/><path class="f" d="M510.366,177.7s-1.7-.2-1.706.709c0,0,.007.614,1.488.748s1.864,0,1.994-.58S511.161,177.711,510.366,177.7Z" transform="translate(-502.877 -177.681)"/><path class="f" d="M500.314,177.971s1.4-.178,1.52.675c0,0,.072.577-1.152.7s-1.626-.088-1.745-.554C498.8,178.26,499.648,177.98,500.314,177.971Z" transform="translate(-498.922 -177.793)"/><path class="i" d="M504.436,190.178H508.1s.075,1.3-1.848,1.3S504.436,190.178,504.436,190.178Z" transform="translate(-501.161 -182.756)"/></g></g><g transform="translate(0 13.152)"><path class="i" d="M486.179,214.9a6.674,6.674,0,0,1-1.8,8.884l-7.3,6.525L460.287,244.4a7.186,7.186,0,0,1-9.881-1.436h0c-2.566-3.318-1.711-7.756,1.756-10.412,2.952-2.262,7.743-6.4,12.615-10.725a127.608,127.608,0,0,1,12.07-9.056A6.672,6.672,0,0,1,486.179,214.9Z" transform="translate(-428.818 -193.563)"/><path class="d" d="M432.478,206.407l2.8,5.072-5.1,3.256-3.144-7.179Z" transform="translate(-419.934 -191.416)"/><path class="d" d="M435.151,199.658l.9-1.935a4.318,4.318,0,0,0,.4-1.964l-.181-5.682a1.111,1.111,0,0,0-.986-1.068h0a1.111,1.111,0,0,0-1.21.865l-.875,3.982Z" transform="translate(-422.437 -184.348)"/><path class="d" d="M430.526,190.391l-4.835-8.835a.786.786,0,0,0-1.017-.314h0a.787.787,0,0,0-.381,1.029l2.9,7.472Z" transform="translate(-418.791 -181.166)"/><path class="d" d="M423.61,194.259,417.9,185.5a.786.786,0,0,0-1.039-.233h0a.786.786,0,0,0-.3,1.055l4.046,7.412Z" transform="translate(-415.642 -182.788)"/><path class="d" d="M421.5,197.866l-5.027-8.1a.767.767,0,0,0-1.014-.227h0a.768.768,0,0,0-.292,1.03l3.713,7.158Z" transform="translate(-415.075 -184.526)"/><path class="d" d="M425.911,190.959l-5.026-9.02a.818.818,0,0,0-1.057-.326h0a.818.818,0,0,0-.4,1.069l3.841,8.061Z" transform="translate(-416.816 -181.316)"/><path class="d" d="M426.146,191.111l-7.2,3.9s1.668,5.745,5.157,6.918l5.255-1.414-.121-5.868-2.4-1.81Z" transform="translate(-416.649 -185.205)"/><g transform="translate(6.793 15.832)"><path class="i" d="M434.293,207.823l18.431,25.524a7.125,7.125,0,0,1-2.69,9.953h0a7.125,7.125,0,0,1-9.865-3.26L426.513,212.48Z" transform="translate(-426.513 -207.823)"/><line class="h" x1="8.122" y2="5.035" transform="translate(1.343 2.332)"/></g><g transform="translate(41.951 17.411)"><path class="i" d="M501.055,212.836l7.981-2.354,9.249,1.909a2.786,2.786,0,0,1,2.222,2.728l1,55.074H485.712l3.5-51a8.755,8.755,0,0,1,6.649-7.854l2.729-.669Z" transform="translate(-485.712 -210.482)"/><path class="j" d="M506.472,210.668l-1.349.33,3.426,16.1s8.776-15.145,11.784-15.909l-3.414-.7-7.981,2.354Z" transform="translate(-493.595 -210.482)"/><g transform="translate(12.736 2.576)"><path class="h" d="M507.156,217.084l2.606-2.265,4.932,4.529" transform="translate(-507.156 -214.819)"/><line class="h" x1="0.061" y2="12.202" transform="translate(2.545)"/></g><line class="h" y1="8.167" x2="0.56" transform="translate(2.528 14.699)"/><g transform="translate(7.61 0.517)"><path class="h" d="M521.307,211.669l.77,4.732-3.74.771,2.615,3.965-11.43,6.441-2,40.986" transform="translate(-502.179 -211.481)"/><path class="h" d="M502.444,211.352l-3.918,3.849,3.2,1.2-2.967,2.741,7.109,8.307" transform="translate(-498.526 -211.352)"/></g><rect class="j" width="9.65" height="1.46" transform="translate(18.274 17.574)"/></g><g transform="translate(51.295 19.004)"><g transform="translate(17.626)"><path class="i" d="M534.112,213.9c2.93-1.889,6.924.115,8.467,3.24l5.236,8.273L558.377,242.1a7.184,7.184,0,0,1-3.041,9.51h0a7.184,7.184,0,0,1-9.982-3.443c-1.492-3.407-5.3-9.315-8.766-14.831-2.618-4.167-3.964-5.641-5.039-8.112C530.047,221.773,532.9,214.676,534.112,213.9Z" transform="translate(-531.122 -213.165)"/><line class="h" x1="4.694" y1="7.619" transform="translate(3.522 17.051)"/></g><path class="d" d="M520.722,294.213l-5.4,5.235-5.018-.144a3.424,3.424,0,0,0-1.639.248l-5.825,2.408a2.391,2.391,0,0,0-1.4,2.237h16.274l6.462-4.964Z" transform="translate(-501.444 -246.078)"/><g transform="translate(14.138 25.266)"><path class="i" d="M525.249,279.608l19.251-21.74a7.125,7.125,0,0,1,10.309.091h0a7.125,7.125,0,0,1-.664,10.369l-22.618,19.647Z" transform="translate(-525.249 -255.708)"/><path class="h" d="M537.154,273.314l-11.905,13.444,1.717,2.288" transform="translate(-525.249 -262.858)"/></g></g></g></g><g transform="translate(0 89.691)"><rect class="i" width="165.666" height="33.312" transform="translate(4.708 3.05)"/><rect class="i" width="176.192" height="6.101"/><path class="j" d="M489.626,339.2h-7.049v-7.049h-6.084V339.2h-7.049v6.084h7.049v7.049h6.084v-7.049h7.049Z" transform="translate(-388.055 -319.021)"/><rect class="j" width="166.807" height="3.402" transform="translate(3.566 5.764)"/></g></g><g transform="translate(295.638 154.376)"><g transform="translate(20.546 0)"><g transform="translate(3.121 19.636)"><path class="d" d="M353.68,215.655l-1.9,12.026,10.311,1.714,1.287-13.024Z" transform="translate(-351.782 -215.655)"/><path class="e" d="M361.816,222.508s0,2.428,4.837,4.64l.489-4.954Z" transform="translate(-355.857 -218.31)"/></g><g transform="translate(6.224 5.093)"><path class="d" d="M363.4,191.181s8.758-.659,8.65,6.9c-.049,3.487-.293,7.013-.542,9.8a5,5,0,0,1-5.937,4.462l-8.566-1.649Z" transform="translate(-357.007 -191.166)"/><path class="d" d="M380.4,208.377l1.663,3.494a.5.5,0,0,1-.51.665l-2.2-.162Z" transform="translate(-366.08 -198.156)"/></g><path class="f" d="M362.842,191.874s4.116,5.552-1.294,6.971l-3.243.877s.283,5.753-7.111,4.735c0,0-2.092-5.715-4.158-8.438,0,0-2.03-3.933,2.015-5.163,0,0-2.1-3.739,4.757-4.447s6.59-5,11.067-3.506S369.826,191.526,362.842,191.874Z" transform="translate(-346.526 -182.591)"/><g transform="translate(9.484 12.701)"><path class="d" d="M362.515,206.836A3.205,3.205,0,1,0,366.048,204,3.2,3.2,0,0,0,362.515,206.836Z" transform="translate(-362.496 -203.976)"/><path class="k" d="M368.851,209.287s.251-2.31-2-2.186" transform="translate(-364.265 -205.243)"/></g></g><g transform="translate(0 28.738)"><g transform="translate(0 2.722)"><g transform="translate(0 28.439)"><path class="d" d="M322.452,285.123c8.427,7.847,23.027,21.239,23.027,21.239l-3.292,6.248-27.5-17.719a6.257,6.257,0,0,1-.87-9.669h0A6.255,6.255,0,0,1,322.452,285.123Z" transform="translate(-311.932 -283.446)"/><g transform="translate(27.983 21.649)"><path class="d" d="M360.931,330.788a5.773,5.773,0,1,1,8.156-.374A5.774,5.774,0,0,1,360.931,330.788Z" transform="translate(-359.049 -320.245)"/><path class="d" d="M371.608,325.769s2.269-1.335.194-3.543-5.975-3.912-10.214.061Z" transform="translate(-360.08 -319.899)"/></g></g><g transform="translate(0)"><path class="d" d="M315.225,286.074h0c3.471,2.231,6.917,1.7,9.267-1.7l9.478-17.347-12.958-6.79c-3.32,6.124-7.768,15.474-7.768,15.474C311.1,279.724,311.464,283.657,315.225,286.074Z" transform="translate(-311.933 -245.584)"/><path class="l" d="M337.172,255.884l5-9.157a7.113,7.113,0,0,0-11.492-8.379,107.166,107.166,0,0,0-6.7,11.17c-.125.228-.254.463-.383.7l12,10.637Z" transform="translate(-316.67 -235.562)"/></g></g><g transform="translate(12.034)"><path class="l" d="M347.881,235.139l.532-2.411A2.23,2.23,0,0,1,350.861,231l8.626,1.053a2.23,2.23,0,0,1,1.95,2.415l-.32,3.533Z" transform="translate(-338.565 -230.979)"/><path class="l" d="M341.642,233.61a80.686,80.686,0,0,1,11.755,1.459,11.864,11.864,0,0,1,9.562,12.56L360.287,281.7H333.594s-1.8-30.595-1.108-39.34C332.867,237.545,336.815,233.363,341.642,233.61Z" transform="translate(-332.249 -232.043)"/><line class="h" x2="13.479" y2="1.918" transform="translate(9.393 1.567)"/><path class="h" d="M332.432,248.355s-.4,5.833-.158,11.655" transform="translate(-332.195 -238.035)"/></g><g transform="translate(28.385 1.089)"><g transform="translate(14.674)"><g transform="translate(0 10.501)"><path class="d" d="M385.874,276.381c7.35-8.864,23.614-25.887,23.614-25.887l2.7,4.606-16.11,28.468a6.257,6.257,0,0,1-9.6,1.423h0A6.254,6.254,0,0,1,385.874,276.381Z" transform="translate(-384.434 -250.494)"/></g><g transform="translate(24.2)"><path class="d" d="M438.957,233.111a.851.851,0,0,0-1.172-.117l-8.843,6.79,1.686-3.869a.893.893,0,0,0-1.57-.836l-2.51,3.214a4.677,4.677,0,0,0-.706,1.836l-.659,4.22,2.97,3.962,4.4-2.955,1.3-1.014a4.263,4.263,0,0,0,1.525-2.38l1.3-5.508,2.225-2.183A.851.851,0,0,0,438.957,233.111Z" transform="translate(-425.182 -232.813)"/></g></g><g transform="translate(0 4.709)"><path class="d" d="M385.446,294.264h0c3.891-1.374,4.381-3.948,3.143-7.885L380.1,268.6l-11.507,5.248c2.8,6.379,7.456,15.626,7.456,15.626C377.194,293.8,381.23,295.751,385.446,294.264Z" transform="translate(-363.327 -252.055)"/><path class="l" d="M377.792,255.289l-4.164-9.568a7.113,7.113,0,0,0-13.666,3.936,107.167,107.167,0,0,0,4.711,12.144c.1.239.21.485.32.733l13.311-6.07Z" transform="translate(-359.727 -240.741)"/><path class="h" d="M362.982,242.795s-5.749,2.939-1.229,12.552l3.358,8.021" transform="translate(-359.846 -241.575)"/></g></g></g><g transform="translate(10.882 78.397)"><path class="j" d="M332.686,319.745s-7.336,9.731,3.486,30.6h31.037l-7.8-30.6Z" transform="translate(-330.256 -316.686)"/><rect class="f" width="26.66" height="3.059" transform="translate(2.497)"/><g transform="translate(7.566 8.19)"><g transform="translate(0 15.526)"><line class="h" x2="14.233"/><line class="h" x2="4.232" y2="10.169" transform="translate(6.506)"/></g><path class="m" d="M354.17,328.426l9.786-.042.342,4.912a4.987,4.987,0,0,1-4.926,5.285h0a4.987,4.987,0,0,1-5-4.341Z" transform="translate(-347.533 -328.384)"/></g></g></g></g></g></svg>