<svg xmlns="http://www.w3.org/2000/svg" width="59.242" height="64.965" viewBox="0 0 59.242 64.965"><defs><style>.a{fill:#484b63;}.b{fill:#d8d5ed;}.c{fill:#ff2c5c;}.d{fill:#ffd659;}.e{fill:#4fc6f5;}.f{fill:#e62753;}.g{fill:#ffbd54;}.h{fill:#3bb3e3;}.i{fill:#50536e;}.j{fill:#b5fcff;}.k{fill:#71f6fc;}</style></defs><g transform="translate(0 67.845)"><path class="a" d="M398.159,266.844h0a1.732,1.732,0,0,1-2.448,0L384.366,255.5l2.448-2.448L398.159,264.4A1.731,1.731,0,0,1,398.159,266.844Z" transform="translate(-341.302 -284.943)"/><path class="b" d="M35.909,107.676H.448A.448.448,0,0,1,0,107.228V57.108a.448.448,0,0,1,.448-.448H35.909a.448.448,0,0,1,.448.448v50.12A.448.448,0,0,1,35.909,107.676Z" transform="translate(0 -110.555)"/><path class="c" d="M39.958,327.986H33.929a.448.448,0,0,1-.448-.448v-17.8a.448.448,0,0,1,.448-.448h6.029a.448.448,0,0,1,.448.448v17.8A.448.448,0,0,1,39.958,327.986Z" transform="translate(-29.73 -334.879)"/><path class="d" d="M136.8,273.1h-6.029a.448.448,0,0,1-.448-.448V247.925a.448.448,0,0,1,.448-.448H136.8a.448.448,0,0,1,.448.448v24.727A.448.448,0,0,1,136.8,273.1Z" transform="translate(-115.717 -279.993)"/><path class="e" d="M235.692,293.225h-6.029a.448.448,0,0,1-.448-.448V270.589a.448.448,0,0,1,.448-.448h6.029a.448.448,0,0,1,.448.448v22.188A.448.448,0,0,1,235.692,293.225Z" transform="translate(-203.534 -300.118)"/><path class="f" d="M64.386,309.288v18.7H67.4a.448.448,0,0,0,.448-.448v-17.8a.448.448,0,0,0-.448-.448Z" transform="translate(-57.172 -334.879)"/><path class="g" d="M161.223,247.477V273.1h3.014a.448.448,0,0,0,.448-.448V247.925a.448.448,0,0,0-.448-.448Z" transform="translate(-143.16 -279.993)"/><path class="h" d="M260.121,270.141v23.084h3.014a.448.448,0,0,0,.448-.448V270.589a.448.448,0,0,0-.448-.448Z" transform="translate(-230.977 -300.118)"/><g transform="translate(4.296 -50.092)"><path class="i" d="M39.183,92.282H64.576a.84.84,0,0,0,0-1.681H39.183a.84.84,0,0,0,0,1.681Z" transform="translate(-38.343 -90.601)"/><path class="i" d="M64.576,124.94H39.183a.84.84,0,0,0,0,1.681H64.576a.84.84,0,1,0,0-1.681Z" transform="translate(-38.343 -121.093)"/><path class="i" d="M64.576,159.28H39.183a.84.84,0,1,0,0,1.681H64.576a.84.84,0,1,0,0-1.681Z" transform="translate(-38.343 -151.585)"/><path class="i" d="M45.656,193.619H39.183a.84.84,0,0,0,0,1.681h6.473a.84.84,0,1,0,0-1.681Z" transform="translate(-38.343 -182.077)"/></g><circle class="i" cx="18.352" cy="18.352" r="18.352" transform="translate(7.335 -41.891) rotate(-45)"/><path class="j" d="M189.7,56.378a14.889,14.889,0,1,1,0-21.057A14.906,14.906,0,0,1,189.7,56.378Z" transform="translate(-145.88 -87.741)"/><path class="k" d="M293.925,35.326a14.87,14.87,0,0,0-12.26-4.253,14.881,14.881,0,0,1,0,29.563,14.884,14.884,0,0,0,12.26-25.31Z" transform="translate(-250.107 -87.745)"/></g></svg>