<svg xmlns="http://www.w3.org/2000/svg" width="39.455" height="39.457"><defs><style>.a{fill:#444}</style></defs><g transform="translate(-54.739 -54.729)"><path class="a" d="M84.128 56.226a.715.715 0 1 0-.715-.715.715.715 0 0 0 .715.715z"/><circle class="a" cx=".669" cy=".669" r=".669" transform="translate(88.987 66.895)"/><path class="a" d="M88.905 61.623a.669.669 0 0 0 .946 0l.473-.473.473.473a.669.669 0 0 0 .946-.946l-.473-.473.473-.473a.669.669 0 1 0-.946-.946l-.473.473-.473-.473a.669.669 0 0 0-.946.946l.473.473-.473.473a.669.669 0 0 0 0 .946zM93.306 89l-6.371-6.371a.669.669 0 0 0-.946 0l-.2.2-3.424-3.424a15.406 15.406 0 1 0-2.953 2.953l3.424 3.424-.2.2a.669.669 0 0 0 0 .946l6.378 6.372a3.035 3.035 0 0 0 4.292-4.3zm-9.52-4.168L80.447 81.5c.186-.168.378-.324.557-.5s.335-.372.5-.558l3.339 3.339zm-23.6-4.789a14.052 14.052 0 1 1 19.872 0 14.068 14.068 0 0 1-19.872 0zm32.174 12.3a1.739 1.739 0 0 1-2.4 0l-.028-.028.865-.865a.669.669 0 0 0-.946-.946l-.865.865-.392-.392.865-.865a.669.669 0 0 0-.946-.946l-.865.865-.392-.392.865-.865a.669.669 0 0 0-.946-.946l-.865.865-.392-.392.865-.865a.669.669 0 0 0-.946-.946l-.865.865-.909-.909 2.4-2.4 5.9 5.9a1.7 1.7 0 0 1 0 2.4z"/><path class="a" d="M79.112 61.122a12.714 12.714 0 0 0-21.7 8.809.67.67 0 1 0 1.338.018 11.341 11.341 0 1 1 .531 3.609.669.669 0 0 0-1.276.4 12.715 12.715 0 1 0 21.109-12.841z"/><path class="a" d="M72.258 63.549h-4.015a.669.669 0 0 0-.669.669v3.346h-3.346a.669.669 0 0 0-.669.669v4.015a.669.669 0 0 0 .669.669h3.346v3.346a.669.669 0 0 0 .669.669h4.015a.669.669 0 0 0 .669-.669v-3.346h3.346a.669.669 0 0 0 .669-.669v-4.011a.669.669 0 0 0-.669-.669h-3.346v-3.346a.669.669 0 0 0-.669-.669zm3.346 5.353v2.677h-3.346a.669.669 0 0 0-.669.669v3.346h-2.677v-3.346a.669.669 0 0 0-.669-.669h-3.346v-2.677h3.346a.669.669 0 0 0 .669-.669v-3.346h2.677v3.35a.669.669 0 0 0 .669.669z"/></g></svg>