<svg xmlns="http://www.w3.org/2000/svg" width="59.242" height="64.965"><defs><style>.i{fill:#50536e}</style></defs><g transform="translate(0 67.845)"><path d="M56.857-18.099a1.732 1.732 0 0 1-2.448 0L43.064-29.443l2.448-2.448 11.345 11.348a1.731 1.731 0 0 1 0 2.444z" fill="#484b63"/><path d="M35.909-2.879H.448A.448.448 0 0 1 0-3.327v-50.12a.448.448 0 0 1 .448-.448h35.461a.448.448 0 0 1 .448.448v50.12a.448.448 0 0 1-.448.448z" fill="#d8d5ed"/><path d="M10.228-6.893H4.199a.448.448 0 0 1-.448-.448v-17.8a.448.448 0 0 1 .448-.448h6.029a.448.448 0 0 1 .448.448v17.8a.448.448 0 0 1-.448.448z" fill="#ff2c5c"/><path d="M21.083-6.893h-6.029a.448.448 0 0 1-.448-.448v-24.727a.448.448 0 0 1 .448-.448h6.029a.448.448 0 0 1 .448.448v24.727a.448.448 0 0 1-.448.448z" fill="#ffd659"/><path d="M32.158-6.893h-6.029a.448.448 0 0 1-.448-.448v-22.188a.448.448 0 0 1 .448-.448h6.029a.448.448 0 0 1 .448.448v22.188a.448.448 0 0 1-.448.448z" fill="#4fc6f5"/><path d="M7.214-25.591v18.7h3.014a.448.448 0 0 0 .448-.448v-17.8a.448.448 0 0 0-.448-.448z" fill="#e62753"/><path d="M18.063-32.516v25.623h3.014a.448.448 0 0 0 .448-.448v-24.727a.448.448 0 0 0-.448-.448z" fill="#ffbd54"/><path d="M29.144-29.977v23.084h3.014a.448.448 0 0 0 .448-.448v-22.188a.448.448 0 0 0-.448-.448z" fill="#3bb3e3"/><path class="i" d="M5.136-48.411h25.393a.84.84 0 0 0 0-1.681H5.136a.84.84 0 0 0 0 1.681zM30.529-46.245H5.136a.84.84 0 0 0 0 1.681h25.393a.84.84 0 1 0 0-1.681zM30.529-42.397H5.136a.84.84 0 1 0 0 1.681h25.393a.84.84 0 1 0 0-1.681zM11.609-38.55H5.136a.84.84 0 0 0 0 1.681h6.473a.84.84 0 1 0 0-1.681z"/><circle class="i" cx="18.352" cy="18.352" r="18.352" transform="rotate(-45 -46.9 -29.8)"/><path d="M43.82-31.363a14.889 14.889 0 1 1 0-21.057 14.906 14.906 0 0 1 0 21.057z" fill="#b5fcff"/><path d="M43.818-52.419a14.87 14.87 0 0 0-12.26-4.253 14.881 14.881 0 0 1 0 29.563 14.884 14.884 0 0 0 12.26-25.31z" fill="#71f6fc"/></g></svg>