<svg xmlns="http://www.w3.org/2000/svg" width="60.047" height="55.461" viewBox="0 0 60.047 55.461"><defs><style>.a{fill:#444;}</style></defs><g transform="translate(-442.451 -451.038)"><g transform="translate(442.451 398.935)"><g transform="translate(0 52.103)"><g transform="translate(0 0)"><path class="a" d="M48.347,52.1a6.747,6.747,0,0,0-4.379,11.883L37.624,76.04a6.73,6.73,0,0,0-5.645,1.008l-4.828-4.355a6.752,6.752,0,1,0-10.779,1.336L9.18,84.771a6.771,6.771,0,1,0,2.467,1.656l7.192-10.742A6.728,6.728,0,0,0,25.16,74.9l4.828,4.355A6.752,6.752,0,1,0,40.25,77.427l6.344-12.053A6.751,6.751,0,1,0,48.347,52.1ZM6.751,94.849a3.781,3.781,0,1,1,3.781-3.781A3.785,3.785,0,0,1,6.751,94.849ZM21.267,73.168a3.781,3.781,0,1,1,3.781-3.781A3.785,3.785,0,0,1,21.267,73.168ZM32.09,82.559a3.781,3.781,0,1,1,3.781,3.781A3.785,3.785,0,0,1,32.09,82.559ZM48.347,62.635a3.781,3.781,0,1,1,3.781-3.781A3.785,3.785,0,0,1,48.347,62.635Z" transform="translate(0 -52.103)"/></g></g></g><g transform="translate(465.5 469.5)"><g transform="translate(0 0)"><path class="a" d="M36.773,34.593,26.025,23.845a14.675,14.675,0,1,0-2.18,2.18L34.593,36.773a.771.771,0,0,0,1.09,0l1.09-1.09A.771.771,0,0,0,36.773,34.593ZM14.645,26.208A11.562,11.562,0,1,1,26.208,14.645,11.575,11.575,0,0,1,14.645,26.208Z" transform="translate(0 0)"/></g></g></g></svg>