<svg xmlns="http://www.w3.org/2000/svg" width="51" height="51" viewBox="0 0 51 51"><defs><style>.a{fill:#01d35a;}</style></defs><g transform="translate(-2 -2)"><path class="a" d="M50.45,2H4.55A2.558,2.558,0,0,0,2,4.55v45.9A2.558,2.558,0,0,0,4.55,53h45.9A2.558,2.558,0,0,0,53,50.45V4.55A2.558,2.558,0,0,0,50.45,2Zm.85,48.45a.85.85,0,0,1-.85.85H4.55a.85.85,0,0,1-.85-.85V10.5H51.3Zm0-41.65H3.7V4.55a.85.85,0,0,1,.85-.85h45.9a.85.85,0,0,1,.85.85Z" transform="translate(0 0)"/><path class="a" d="M22.77,35.34,20.475,38.4H15.8a.85.85,0,0,0-.6.249l-2.3,2.3H9v1.7h4.25a.85.85,0,0,0,.6-.249l2.3-2.3H20.9a.85.85,0,0,0,.68-.34l2.295-3.06H27.7V35H23.45a.85.85,0,0,0-.68.34Z" transform="translate(-1.05 -4.95)"/><path class="a" d="M21.25,45h-3.4a.85.85,0,0,0-.85.85V55.2a.85.85,0,0,0,.85.85h3.4a.85.85,0,0,0,.85-.85V45.85A.85.85,0,0,0,21.25,45Zm-.85,9.35H18.7V46.7h1.7Z" transform="translate(-2.25 -6.45)"/><path class="a" d="M13.25,48H9.85a.85.85,0,0,0-.85.85v6.8a.85.85,0,0,0,.85.85h3.4a.85.85,0,0,0,.85-.85v-6.8A.85.85,0,0,0,13.25,48Zm-.85,6.8H10.7V49.7h1.7Z" transform="translate(-1.05 -6.9)"/><path class="a" d="M29.25,42h-3.4a.85.85,0,0,0-.85.85v11.9a.85.85,0,0,0,.85.85h3.4a.85.85,0,0,0,.85-.85V42.85A.85.85,0,0,0,29.25,42ZM28.4,53.9H26.7V43.7h1.7Z" transform="translate(-3.45 -6)"/><path class="a" d="M6,6H7.7V7.7H6Z" transform="translate(-0.6 -0.6)"/><path class="a" d="M10,6h1.7V7.7H10Z" transform="translate(-1.2 -0.6)"/><path class="a" d="M14,6h1.7V7.7H14Z" transform="translate(-1.8 -0.6)"/><path class="a" d="M26.693,14.249l-3.4,3.4,1.2,1.2L26.444,16.9V30.15h1.7V16.9l1.949,1.949,1.2-1.2-3.4-3.4a.85.85,0,0,0-1.2,0Z" transform="translate(-3.194 -1.8)"/><path class="a" d="M18.444,26.9V35.05h1.7V26.9l1.949,1.949,1.2-1.2-3.4-3.4a.85.85,0,0,0-1.2,0l-3.4,3.4,1.2,1.2Z" transform="translate(-1.994 -3.3)"/><path class="a" d="M8.444,38.95h1.7V35.9l1.949,1.949,1.2-1.2-3.4-3.4a.85.85,0,0,0-1.2,0l-3.4,3.4,1.2,1.2L8.444,35.9Z" transform="translate(-0.494 -4.65)"/><path class="a" d="M45.8,43.4a3.4,3.4,0,1,0-3.4,3.4A3.4,3.4,0,0,0,45.8,43.4Zm-5.1,0a1.7,1.7,0,1,1,1.7,1.7A1.7,1.7,0,0,1,40.7,43.4Z" transform="translate(-5.55 -5.7)"/><path class="a" d="M53.754,44.375l-.569-.144.306-.5a.862.862,0,0,0-.128-1.037l-2.405-2.405a.862.862,0,0,0-1.037-.127l-.5.306-.144-.569a.835.835,0,0,0-.8-.637.85.85,0,0,0-.213-.816l-2.405-2.405a.86.86,0,0,0-1.037-.128l-.5.306-.145-.569A.85.85,0,0,0,43.35,35h-3.4a.85.85,0,0,0-.824.646l-.144.569-.5-.306a.862.862,0,0,0-1.037.128l-2.405,2.405a.85.85,0,0,0-.128,1.037l.306.5-.569.144A.85.85,0,0,0,34,40.95v3.4a.85.85,0,0,0,.646.824l.569.144-.306.5a.85.85,0,0,0,.128,1.037l2.405,2.405a.85.85,0,0,0,1.037.127l.5-.306.144.569a.835.835,0,0,0,.8.637.85.85,0,0,0,.212.816l2.405,2.405a.862.862,0,0,0,1.037.127l.5-.306.144.569a.85.85,0,0,0,.824.646h3.4a.85.85,0,0,0,.824-.646l.144-.569.5.306a.862.862,0,0,0,1.037-.127l2.405-2.405a.862.862,0,0,0,.127-1.037l-.306-.5.569-.145A.85.85,0,0,0,54.4,48.6V45.2a.85.85,0,0,0-.646-.824Zm-5.338,2.269c.009.085.034.17.034.255a1.705,1.705,0,0,1-1.7,1.7,1.673,1.673,0,0,1-.2-.025l1.717-1.717A.968.968,0,0,0,48.416,46.645Zm-8.058.918a.856.856,0,0,0-.5-.578.841.841,0,0,0-.765.059l-.918.544-1.462-1.462.552-.918a.866.866,0,0,0,.051-.765.856.856,0,0,0-.578-.5L35.7,43.687V41.613l1.037-.255a.856.856,0,0,0,.578-.5.866.866,0,0,0-.051-.765l-.552-.918,1.462-1.462.918.544a.839.839,0,0,0,.765.06.856.856,0,0,0,.5-.578l.255-1.037h2.074l.255,1.037a.856.856,0,0,0,.5.578.841.841,0,0,0,.765-.06l.918-.544,1.462,1.462-.552.918a.866.866,0,0,0-.051.765.856.856,0,0,0,.578.5l1.037.255v2.074l-1.037.255a.856.856,0,0,0-.578.5.866.866,0,0,0,.051.765l.552.918-1.462,1.462-.918-.544a.841.841,0,0,0-.765-.059.856.856,0,0,0-.5.578L42.687,48.6H40.613Zm12.342.374-1.037.255a.836.836,0,0,0-.578.5.85.85,0,0,0,.051.756l.552.918-1.462,1.47-.926-.552a.822.822,0,0,0-.756-.051.836.836,0,0,0-.5.578l-.255,1.037H45.713l-.255-1.037a.836.836,0,0,0-.5-.578.822.822,0,0,0-.756.051l-.926.552-1.462-1.47.042-.068h1.5a.85.85,0,0,0,.824-.646l.111-.425A3.341,3.341,0,0,0,46.75,50.3a3.405,3.405,0,0,0,2.507-5.7.789.789,0,0,0,.042-.246V42.514l.926-.552,1.462,1.47-.552.918a.85.85,0,0,0-.051.756.836.836,0,0,0,.578.5l1.037.255Z" transform="translate(-4.8 -4.95)"/><path class="a" d="M46.5,14A8.5,8.5,0,1,0,55,22.5,8.5,8.5,0,0,0,46.5,14Zm0,15.3a6.8,6.8,0,1,1,6.8-6.8A6.8,6.8,0,0,1,46.5,29.3Z" transform="translate(-5.4 -1.8)"/><path class="a" d="M126.768,93.624a.37.37,0,0,0-.37-.37h-5.234a.37.37,0,0,0,0,.741h1.5a1.878,1.878,0,0,1,1.838,1.5h-3.336a.37.37,0,0,0,0,.741H124.5a1.878,1.878,0,0,1-1.838,1.5h-1.5a.37.37,0,0,0-.254.639l3.743,3.537a.37.37,0,0,0,.509-.538l-3.067-2.9h.566a2.62,2.62,0,0,0,2.589-2.246H126.4a.37.37,0,0,0,0-.741H125.25a2.612,2.612,0,0,0-.768-1.5H126.4a.37.37,0,0,0,.37-.37Zm0,0" transform="translate(-82.766 -76.368)"/></g></svg>