<svg xmlns="http://www.w3.org/2000/svg" width="53.492" height="53.5" viewBox="0 0 53.492 53.5"><defs><style>.a{fill:#01d35a;}</style></defs><g transform="translate(-2 -1.991)"><path class="a" d="M23.675,5a2.675,2.675,0,1,0,2.675,2.675A2.675,2.675,0,0,0,23.675,5Zm0,3.566a.892.892,0,1,1,.892-.892A.892.892,0,0,1,23.675,8.566Z" transform="translate(-2.061 -0.326)"/><path class="a" d="M11,33h3.566v1.783H11Z" transform="translate(-0.976 -3.364)"/><path class="a" d="M17,33H30.373v1.783H17Z" transform="translate(-1.627 -3.364)"/><path class="a" d="M11,39h3.566v1.783H11Z" transform="translate(-0.976 -4.014)"/><path class="a" d="M11,45h3.566v1.783H11Z" transform="translate(-0.976 -4.665)"/><path class="a" d="M11,51h3.566v1.783H11Z" transform="translate(-0.976 -5.316)"/><path class="a" d="M54.6,31.419h-.892a13.474,13.474,0,0,1-8.024-2.675l-2.14-1.6a.883.883,0,0,0-1.07,0l-1.248.936V10.023a2.683,2.683,0,0,0-2.675-2.675H31.26a2.684,2.684,0,0,0-2.514-1.783H26.66a5.349,5.349,0,0,0-10.092,0H14.481a2.683,2.683,0,0,0-2.514,1.783H4.675A2.683,2.683,0,0,0,2,10.023V52.816a2.683,2.683,0,0,0,2.675,2.675H38.553a2.689,2.689,0,0,0,2.1-1.025l1.979.936a.869.869,0,0,0,.767,0l7.828-3.718a7.989,7.989,0,0,0,4.27-7.088V32.311a.892.892,0,0,0-.892-.892ZM31.42,9.131h7.132a.892.892,0,0,1,.892.892V29.36a13.583,13.583,0,0,1-1.783.936V11.806a.892.892,0,0,0-.892-.892H31.42ZM13.59,8.24a.892.892,0,0,1,.892-.892h2.764a.881.881,0,0,0,.874-.713,3.566,3.566,0,0,1,6.99,0,.881.881,0,0,0,.874.713h2.764a.892.892,0,0,1,.892.892v3.566H13.59ZM12.7,13.589H30.529a.892.892,0,0,0,.892-.892h4.458V30.92a13.4,13.4,0,0,1-3.566.5H31.42a.892.892,0,0,0-.892.892v2.675H15.373v1.783H30.529v3.566H15.373v1.783H30.529V44.6a8.8,8.8,0,0,0,.071,1.088H15.373v1.783h15.7a8.048,8.048,0,0,0,1.7,2.675H7.349V12.7h4.458a.892.892,0,0,0,.892.892ZM38.553,53.708H4.675a.892.892,0,0,1-.892-.892V10.023a.892.892,0,0,1,.892-.892h7.132v1.783H6.458a.892.892,0,0,0-.892.892V51.033a.892.892,0,0,0,.892.892h28.85l3.584,1.7a.9.9,0,0,1-.339.08ZM53.709,44.6a6.2,6.2,0,0,1-3.29,5.492L43.01,53.61,35.62,50.1a6.218,6.218,0,0,1-3.308-5.5V33.2a15.245,15.245,0,0,0,9.094-3.031l1.6-1.2,1.6,1.2A15.245,15.245,0,0,0,53.709,33.2Z"/><path class="a" d="M28.59,20.566H25.915V17.892A.892.892,0,0,0,25.024,17H21.458a.892.892,0,0,0-.892.892v2.675H17.892a.892.892,0,0,0-.892.892v3.566a.892.892,0,0,0,.892.892h2.675V28.59a.892.892,0,0,0,.892.892h3.566a.892.892,0,0,0,.892-.892V25.915H28.59a.892.892,0,0,0,.892-.892V21.458A.892.892,0,0,0,28.59,20.566ZM27.7,24.132H25.024a.892.892,0,0,0-.892.892V27.7H22.349V25.024a.892.892,0,0,0-.892-.892H18.783V22.349h2.675a.892.892,0,0,0,.892-.892V18.783h1.783v2.675a.892.892,0,0,0,.892.892H27.7Z" transform="translate(-1.627 -1.628)"/><path class="a" d="M55.073,38.37a16.976,16.976,0,0,1-7.623-3.192.883.883,0,0,0-1.07,0,16.976,16.976,0,0,1-7.623,3.192.9.9,0,0,0-.758.883v8.924a4.452,4.452,0,0,0,2.3,3.9l.053.027,6.178,2.933a.869.869,0,0,0,.767,0l6.232-2.96a4.463,4.463,0,0,0,2.3-3.9V39.252a.9.9,0,0,0-.758-.883Zm-1.025,9.807a2.638,2.638,0,0,1-1.337,2.309L46.915,53.24,41.138,50.5a2.675,2.675,0,0,1-1.355-2.327V40a18.818,18.818,0,0,0,7.132-3.013A18.818,18.818,0,0,0,54.048,40Z" transform="translate(-3.905 -3.58)"/><path class="a" d="M43.554,46.751l-1.261,1.261,2.675,2.675a.892.892,0,0,0,1.261,0l7.132-7.132L52.1,42.293l-6.5,6.5Z" transform="translate(-4.371 -4.372)"/></g></svg>