<svg xmlns="http://www.w3.org/2000/svg" width="57.907" height="58.25" viewBox="0 0 57.907 58.25"><defs><style>.a{fill:#01d35a;}</style></defs><g transform="translate(-1.502)"><path class="a" d="M135.383,11.107a11.755,11.755,0,0,0-2.057.181,17.244,17.244,0,0,0-32.88,1.633l1.658.427A15.666,15.666,0,0,1,117.593,1.714c7.081.2,12.516,5.029,14.6,11.594a10.469,10.469,0,0,1,9.474,1.742,10.024,10.024,0,0,1,3.625,8.865,10.142,10.142,0,0,1-5.883,8c-1.939.879-3.805.765-5.881.765V34.4a15.922,15.922,0,0,0,5.968-.658,11.282,11.282,0,0,0,7.316-8.5,11.8,11.8,0,0,0-11.423-14.134Z" transform="translate(-87.65 0)"/><path class="a" d="M9.691,146.94a8.26,8.26,0,0,1-5.355-12.119,8.221,8.221,0,0,1,13.185-1.227l1.244-1.176a10.132,10.132,0,0,0-5.392-3.161v0C6.117,127.922-.348,134.8,1.987,141.979a9.946,9.946,0,0,0,7.373,6.642,30.737,30.737,0,0,0,5.69.192V147.1a34.868,34.868,0,0,1-5.359-.16Z" transform="translate(0 -114.356)"/><path class="a" d="M165.178,375.584h1.712V377.3h-1.712Z" transform="translate(-144.991 -332.708)"/><path class="a" d="M195.178,375.584h1.712V377.3h-1.712Z" transform="translate(-171.566 -332.708)"/><path class="a" d="M285.178,375.584h6.85V377.3h-6.85Z" transform="translate(-251.292 -332.708)"/><path class="a" d="M248.174,435.251h1.713v1.712h-1.713Z" transform="translate(-218.512 -385.563)"/><path class="a" d="M165.178,465.251h1.712v1.712h-1.712Z" transform="translate(-144.991 -412.139)"/><path class="a" d="M195.178,465.251h1.712v1.712h-1.712Z" transform="translate(-171.566 -412.139)"/><path class="a" d="M285.178,465.251h6.85v1.712h-6.85Z" transform="translate(-251.292 -412.139)"/><path class="a" d="M248.174,315.917h1.713v1.712h-1.713Z" transform="translate(-218.512 -279.852)"/><path class="a" d="M165.178,285.918h1.712v1.712h-1.712Z" transform="translate(-144.991 -253.278)"/><path class="a" d="M195.178,285.918h1.712v1.712h-1.712Z" transform="translate(-171.566 -253.278)"/><path class="a" d="M285.178,285.918h6.85v1.712h-6.85Z" transform="translate(-251.292 -253.278)"/><path class="a" d="M155.018,62.635h2.661a2.582,2.582,0,1,0-.031-1.712h-4.342V69.48h-1.712v-12.6l1.875-1.875a2.584,2.584,0,1,0-1.173-1.249l-2.415,2.415V69.48h-1.712V51.226l-2.28-2.28a2.586,2.586,0,1,0-1.107,1.315l1.675,1.675V69.48h-1.712V62.559h-4.351a2.582,2.582,0,1,0,.033,1.712h2.606V69.48h-7.687v8.562h1.75v1.674h-1.75v8.562h1.75v1.674h-1.75v8.562h27.36V89.953h-1.636V88.278h1.636V79.717h-1.636V78.042h1.636V69.48h-7.687Zm5.08-1.77a.869.869,0,1,1-.869.869A.87.87,0,0,1,160.1,60.865Zm-5.441-9.019a.869.869,0,1,1-.869.869A.871.871,0,0,1,154.657,51.847ZM142.6,48.036a.869.869,0,1,1,.869.869A.871.871,0,0,1,142.6,48.036Zm-4.629,16.3a.869.869,0,1,1,.869-.869A.87.87,0,0,1,137.975,64.331Zm-.917,17.1h23.935v5.137H137.057Zm22.3,8.524H151.65v1.712h9.342V96.8H137.057V91.665h9.456V89.953h-7.705V88.278h20.549Zm1.636-13.623H151.65v1.712h7.706v1.674H138.808V78.042h7.705V76.33h-9.456V71.193h23.935Z" transform="translate(-118.564 -40.265)"/></g></svg>