<svg xmlns="http://www.w3.org/2000/svg" width="102" height="102" viewBox="0 0 102 102"><defs><style>.a{fill:#fb0;}</style></defs><path class="a" d="M51,0a51,51,0,1,0,51,51A51,51,0,0,0,51,0Zm0,95.625A44.625,44.625,0,1,1,95.625,51,44.625,44.625,0,0,1,51,95.625Z"/><g transform="translate(29.143 29.143)"><g transform="translate(0 0)"><circle class="a" cx="6" cy="6" r="6" transform="translate(-0.143 -0.143)"/></g></g><g transform="translate(60.714 29.143)"><g transform="translate(0 0)"><circle class="a" cx="6" cy="6" r="6" transform="translate(0.286 -0.143)"/></g></g><g transform="translate(22.313 51)"><path class="a" d="M163,256a22.313,22.313,0,0,1-44.625,0H112a28.688,28.688,0,0,0,57.375,0Z" transform="translate(-112 -256)"/></g></svg>