<svg xmlns="http://www.w3.org/2000/svg" width="76" height="77.198"><defs><style>.b{fill:#818181}</style></defs><g transform="translate(.692 1.075)"><circle cx="37" cy="37" r="37" transform="translate(.308 -.075)" fill="none" stroke="#e6e6e6" stroke-width="2"/><path class="b" d="M50.243 37.958v8.324a1.2 1.2 0 0 1-1.2 1.2H25.571a1.2 1.2 0 0 1-1.2-1.2v-8.324h-2.393v8.324a3.6 3.6 0 0 0 3.593 3.593h23.474a3.6 3.6 0 0 0 3.593-3.593v-8.324z"/><path class="b" d="M37.308 19.258L29.866 26.7l1.694 1.694 4.551-4.551V42.51h2.4V23.843l4.551 4.551L44.75 26.7z"/></g><path d="M62.085 52.966a12.116 12.116 0 1 0 12.116 12.116 12.129 12.129 0 0 0-12.116-12.116zm5.825 13.048h-4.893v5.126a.932.932 0 1 1-1.864 0v-5.126H56.26a.932.932 0 1 1 0-1.864h4.893v-4.66a.932.932 0 1 1 1.864 0v4.66h4.893a.932.932 0 1 1 0 1.864z" fill="#01d35a"/></svg>