<svg xmlns="http://www.w3.org/2000/svg" xmlns:xlink="http://www.w3.org/1999/xlink" width="32" height="32.001" viewBox="0 0 32 32.001"><defs><style>.a{fill:none;}.b{clip-path:url(#a);}.c{fill:#d9a78c;}.d{fill:#c0d4df;}.e{fill:#eac0a7;}.f{fill:#f2d7bc;}.g{fill:#cfe1eb;}.h{fill:#fff;}.i{fill:#8b5f3c;}</style><clipPath id="a"><path class="a" d="M651.533,74.771a16,16,0,1,0-16,16A16,16,0,0,0,651.533,74.771Z" transform="translate(-619.533 -58.771)"/></clipPath></defs><g transform="translate(-619.533 -58.771)"><g class="b" transform="translate(619.533 58.771)"><g transform="translate(5.936 3.579)"><g transform="translate(0 1.755)"><rect class="c" width="4.686" height="5.138" transform="translate(7.721 14.702)"/><path class="d" d="M707.443,181.474s4.455.651,5.113,1.336c.573.6,1.764,6.312,2.04,7.567H704.532v-8.661Z" transform="translate(-694.468 -163.71)"/><g transform="translate(10.064)"><path class="e" d="M704.533,87.1c2.275,0,5.873,1.294,5.873,7.354a11.48,11.48,0,0,1-1.638,6.426,8.63,8.63,0,0,1-4.235,1.827Z" transform="translate(-704.533 -87.105)"/><path class="e" d="M731.231,125.536c.1-.968-.361-1.828-1.03-1.92s-1.293.619-1.394,1.587.361,1.827,1.031,1.919S731.13,126.5,731.231,125.536Z" transform="translate(-724.226 -116.737)"/></g><g transform="translate(3.046)"><path class="f" d="M679.207,87.1c-2.275,0-5.873,1.294-5.873,7.354a11.482,11.482,0,0,0,1.638,6.426,8.631,8.631,0,0,0,4.235,1.827Z" transform="translate(-672.188 -87.105)"/><path class="f" d="M667.262,125.536c-.1-.968.361-1.828,1.03-1.92s1.293.619,1.394,1.587-.361,1.827-1.03,1.919S667.362,126.5,667.262,125.536Z" transform="translate(-667.248 -116.737)"/></g><path class="g" d="M658.221,181.474s-4.455.651-5.113,1.336c-.573.6-1.764,6.312-2.04,7.567h10.064v-8.661Z" transform="translate(-651.068 -163.71)"/><path class="h" d="M691.747,178.635l-2.379-.957-.586.6,1.184,2.625Z" transform="translate(-681.683 -160.629)"/><path class="h" d="M704.532,178.635l2.379-.957.586.6-1.184,2.625Z" transform="translate(-694.468 -160.629)"/></g><path class="i" d="M683.525,86.561s1.925-8.778-6.041-8.778c-8.008,0-6,8.536-6,8.536s1.094-.627,1.094,2.175h.2a31.5,31.5,0,0,0,.506-3.562c2.816,0,5.307-.361,7.4-2.094,1.189,0,1.351,1.481,1.351,2.614l-.521.2a7.038,7.038,0,0,1,.54,2.84h.361S682.366,85.4,683.525,86.561Z" transform="translate(-667.46 -77.783)"/><path class="h" d="M696.254,154.493c1.06,0,1.92-.35,1.92-.782h-3.84C694.334,154.143,695.193,154.493,696.254,154.493Z" transform="translate(-686.19 -139.419)"/></g></g></g></svg>