<svg xmlns="http://www.w3.org/2000/svg" xmlns:xlink="http://www.w3.org/1999/xlink" width="306.862" height="141.398" viewBox="0 0 306.862 141.398"><defs><style>.a{fill:none;}.b{fill:#e9f6f7;}.c{fill:url(#a);}.d{fill:url(#b);}.e{fill:#64a4ff;}.f{fill:#bbd070;}.g{fill:#97a43c;}.h{fill:#48753a;}.i{fill:#dbd8e3;}.j{fill:#323657;}.k{fill:#eea987;}.l{fill:#e8734d;}.m{fill:#c4c1cc;}.n{fill:#efaa88;}.o{fill:#eea886;}.p{fill:#16202e;}.q{fill:#a77860;}.r{fill:#4da8f2;}.s{fill:#ffc955;}.t{clip-path:url(#c);}.u{fill:#96cbff;}.v{fill:#95caff;}.w{fill:#94c9ff;}.x{fill:#93c9ff;}.y{fill:#92c8ff;}.z{fill:#91c7ff;}.aa{fill:#90c6ff;}.ab{fill:#8fc6ff;}.ac{fill:#8ec5ff;}.ad{fill:#8dc4ff;}.ae{fill:#8cc3ff;}.af{fill:#8bc2ff;}.ag{fill:#8ac2ff;}.ah{fill:#89c1ff;}.ai{fill:#88c0ff;}.aj{fill:#87bfff;}.ak{fill:#86bfff;}.al{fill:#85beff;}.am{fill:#84bdff;}.an{fill:#83bcff;}.ao{fill:#82bbff;}.ap{fill:#81bbff;}.aq{fill:#80baff;}.ar{fill:#7fb9ff;}.as{fill:#7eb8ff;}.at{fill:#7db7ff;}.au{fill:#7cb7ff;}.av{fill:#7bb6ff;}.aw{fill:#7ab5ff;}.ax{fill:#79b4ff;}.ay{fill:#78b4ff;}.az{fill:#77b3ff;}.ba{fill:#76b2ff;}.bb{fill:#74b1ff;}.bc{fill:#73b0ff;}.bd{fill:#72b0ff;}.be{fill:#71afff;}.bf{fill:#70aeff;}.bg{fill:#6fadff;}.bh{fill:#6eadff;}.bi{fill:#6dacff;}.bj{fill:#6cabff;}.bk{fill:#6baaff;}.bl{fill:#6aa9ff;}.bm{fill:#69a9ff;}.bn{fill:#68a8ff;}.bo{fill:#67a7ff;}.bp{fill:#66a6ff;}.bq{fill:#65a6ff;}.br{fill:#64a5ff;}.bs{fill:#63a4ff;}.bt{fill:#62a3ff;}.bu{fill:#61a2ff;}.bv{fill:#60a2ff;}.bw{fill:#5fa1ff;}.bx{fill:#5ea0ff;}.by{fill:#5d9fff;}.bz{fill:#5c9eff;}.ca{fill:#5b9eff;}.cb{fill:#5a9dff;}.cc{fill:#599cff;}.cd{fill:#589bff;}.ce{fill:#579bff;}.cf{fill:#569aff;}.cg{fill:#59f;}.ch{fill:#cfa345;}.ci{fill:#6069a8;}.cj{fill:#202338;}.ck{fill:#464240;}.cl{fill:#eb4747;}.cm{fill:#5f8cc9;}.cn{fill:#5e5853;}.co{fill:#91887f;}.cp{fill:#eddad3;}.cq{fill:#6e6760;}.cr{fill:#807066;}.cs{fill:#ffcb55;}.ct{fill:#cf8c6c;}.cu{fill:#3b3f66;}.cv{fill:#555c94;}.cw{fill:#354c70;}.cx{fill:#deb135;}.cy{fill:#f2c344;}.cz{fill:#d9d0c4;}.da{fill:#ffd255;}.db{fill:#3c5780;}.dc{fill:#c48a6f;}.dd{clip-path:url(#d);}.de{fill:#db9c7c;}.df{clip-path:url(#e);}.dg{fill:#293b57;}.dh{fill:#e3f2ff;}.di{fill:#ebebeb;}.dj{fill:#162d40;}.dk{fill:#1d3b54;}.dl{fill:#d1c0ba;}.dm{fill:#fae6de;}.dn{fill:#54281a;}.do{fill:#366e9c;}.dp{fill:#5c544d;}.dq{fill:#3c4145;}.dr{fill:#fccca2;}.ds{fill:#e2d2ca;}.dt{fill:#f25f54;}.du{fill:#c98462;}.dv{fill:#de9d7d;}.dw{fill:#252e3b;}.dx{fill:#5fa0ff;}.dy{fill:#5189db;}.dz{fill:#c2bebc;}.ea{fill:#d6d6d6;}.eb{fill:#e8e8e8;}.ec{fill:#c2c2c2;}</style><linearGradient id="a" y1="0.5" x2="1" y2="0.5" gradientUnits="objectBoundingBox"><stop offset="0" stop-color="#96cbff"/><stop offset="1" stop-color="#59f"/></linearGradient><linearGradient id="b" x1="-1.979" y1="6.266" x2="-0.989" y2="6.266" xlink:href="#a"/><clipPath id="c"><rect class="a" width="112.336" height="1.779"/></clipPath><clipPath id="d"><path class="a" d="M347.6,359.69l.195-.093-.882-1.871-.494.233.748,1.587A.3.3,0,0,0,347.6,359.69Z" transform="translate(-346.422 -357.726)"/></clipPath><clipPath id="e"><path class="a" d="M344.11,355.43l1.946-.363-.317-1.6-1.931.44Z" transform="translate(-343.809 -353.471)"/></clipPath></defs><g transform="translate(-222.218 -3728.434)"><g transform="translate(201.079 3485.089)"><path class="b" d="M296.159,321.06a32.209,32.209,0,0,0-3.659.226,46.925,46.925,0,0,0-54.57-36.669,70.7,70.7,0,0,0-131.158,6.5,41.581,41.581,0,0,0-54.012,39.654c0,.305.015.607.023.91A26.754,26.754,0,1,0,47.9,384.743H296.159a31.841,31.841,0,1,0,0-63.683Z"/></g><g transform="translate(218.321 3659.215)"><path class="c" d="M488.579,267.894a24.089,24.089,0,0,0,2.628-6.188l4.651-.891.048-5.144.048-5.144-4.633-.977a24.1,24.1,0,0,0-2.512-6.236l2.656-3.915-3.6-3.671-3.6-3.671-3.964,2.583a24.087,24.087,0,0,0-6.187-2.628l-.891-4.651-5.144-.048-5.144-.048-.978,4.633a24.1,24.1,0,0,0-6.236,2.512l-3.915-2.656-3.671,3.6-3.671,3.6,2.583,3.964a24.056,24.056,0,0,0-2.628,6.187L439.76,250l-.048,5.144-.048,5.144,4.634.978a24.085,24.085,0,0,0,2.512,6.236l-2.656,3.915,3.6,3.671,3.6,3.672,3.964-2.583a24.1,24.1,0,0,0,6.188,2.628l.891,4.65,5.144.048,5.144.048.977-4.634a24.068,24.068,0,0,0,6.236-2.512l3.915,2.657,3.672-3.6,3.671-3.6Zm-29.772-3.649a12.613,12.613,0,1,1,17.837.166A12.614,12.614,0,0,1,458.807,264.245Z" transform="translate(-245.896 -94.071)"/><path class="d" d="M173.179,174.354a17.982,17.982,0,0,0,1.479-4.8l3.387-1.017-.357-3.824-.357-3.825-3.516-.373a17.993,17.993,0,0,0-2.342-4.44l1.675-3.111-2.957-2.452-2.957-2.452-2.748,2.221a17.974,17.974,0,0,0-4.8-1.479l-1.017-3.387-3.825.357-3.825.357-.372,3.516a17.973,17.973,0,0,0-4.44,2.341l-3.111-1.674-2.453,2.957-2.452,2.957,2.221,2.748a17.972,17.972,0,0,0-1.479,4.8l-3.387,1.017.357,3.824.357,3.825,3.516.373a17.99,17.99,0,0,0,2.342,4.44l-1.675,3.111,2.957,2.452,2.957,2.452,2.748-2.221a17.987,17.987,0,0,0,4.8,1.479l1.017,3.387,3.825-.357,3.825-.357.372-3.516a17.98,17.98,0,0,0,4.44-2.342l3.111,1.675,2.452-2.957L175.4,177.1Zm-22.394-.439a9.419,9.419,0,1,1,13.262-1.238A9.419,9.419,0,0,1,150.785,173.915Z" transform="translate(-52.658 -42.064)"/><g transform="translate(121.918 115.494)"><path class="e" d="M354.694,272.869h-.323v-22.92a9.259,9.259,0,0,0-9.249-9.249H321.541a9.582,9.582,0,0,1-9.571-9.571V188.287a9.259,9.259,0,0,0-9.248-9.248H242.592v-.323h60.129a9.582,9.582,0,0,1,9.571,9.571v42.842a9.26,9.26,0,0,0,9.249,9.249h23.581a9.582,9.582,0,0,1,9.571,9.571Z" transform="translate(-242.592 -178.716)"/></g><g transform="translate(124.525 100.977)"><path class="f" d="M262.547,138.9s3.639,14.492-5.1,18.453-7.064-3.292-7.064-3.292-3.584-1,6.169-6.525C261.152,144.927,262.547,138.9,262.547,138.9Z" transform="translate(-249.742 -138.898)"/><g transform="translate(2.051 1.265)"><path class="g" d="M289.005,142.367S290.8,155,274.26,160.459s-18.891,12.386-18.891,12.386S254.875,144.848,289.005,142.367Z" transform="translate(-255.369 -142.367)"/></g><g transform="translate(0.816 14.958)"><path class="h" d="M253.143,191.565c-4.9-1.871,6.751-11.907,15.709-11.636s15.027,3.586,21.027,2.185C289.878,182.115,277.288,200.781,253.143,191.565Z" transform="translate(-251.982 -179.924)"/></g></g><g transform="translate(94.702 88.298)"><g transform="translate(1.962 29.284)"><path class="i" d="M219.637,202.82q.424-5.714.591-10.695c-.919-.487-2.024-1.056-2.908-1.476-2.737-1.3-6.55-3.058-9-4.18-1.432-.658-2.835-1.139-2.835-1.139s-9.779-.937-10.572-.887a24.573,24.573,0,0,0-3.076,1.052c-3.468,1.316-10.153,4-11.217,4.76-1.561,1.117-7.147,28.5-7.3,30.357-.145,1.806,7.6,4.278,14.766,6.171-.005,2.776-.061,6.664-.124,10.214-.009.607-.021,1.2-.032,1.779h31.37c-.042-.61-.079-1.212-.11-1.779,0-.076-.008-.15-.011-.225-.12-2.4-.587-6.711-.468-10.9a38.617,38.617,0,0,1,.363-6.324C219.129,211.14,219.637,202.82,219.637,202.82Zm-39.778,16.1c.052-3.565,4.8-10.195,4.8-10.195a1.905,1.905,0,0,1,.222-.084s.245-.034.245-.031.738-.7.742-.7c.174.634,1.747,9.589,2.132,14.8C183.541,221.836,179.833,220.618,179.859,218.918Z" transform="translate(-173.325 -184.441)"/></g><g transform="translate(35.702 30.769)"><path class="j" d="M279.021,239.586c-.206-1.486-.4-2.97-.578-4.422,0-.008,0-.013,0-.021-.057-.484-.114-.961-.169-1.437,0-.023,0-.048-.008-.076-.229-2-.419-3.921-.556-5.679a17.953,17.953,0,0,1,.175-3.95c.545-8.989.816-18.466.816-18.466.287-3.879.452-7.5.561-10.884,0,0-12.279-5.8-13.392-6.136,0,0,2.329,5.469,4.076,17.693.671,4.7,1.914,12.6,2.818,20.664h0c.489,4.353,1.4,8.787,2.1,12.711.106.607.208,1.2.3,1.779h4.11Q279.143,240.477,279.021,239.586Z" transform="translate(-265.868 -188.516)"/></g><g transform="translate(0 29.792)"><path class="j" d="M196.354,223.444a77.722,77.722,0,0,0,.709-11.565c-1.693-19.98-6.485-25.269-7.18-26.043-.537.2-2.582.973-3.181,1.21-3.277,1.292-9.958,3.66-10.858,4.306-1.561,1.118-7.716,29.822-7.9,31.678-.124,1.255,7.908,3.877,16.1,6.218a42.579,42.579,0,0,1-.61,8.725,7.66,7.66,0,0,0-.354,1.734l11.424-.045c.069-.591.142-1.182.215-1.779.217-1.785.445-3.614.67-5.558,3.426.887,5.755,1.458,5.755,1.458s3.218-5.44,4.152-7.643C205.457,225.763,201.315,224.768,196.354,223.444Zm-14.772-6.878c-.108-4.09-.089-6.944-.089-6.944a93.52,93.52,0,0,1,1.458,9.387C181.292,218.173,181.6,217.392,181.582,216.566Z" transform="translate(-167.942 -185.835)"/></g><g transform="translate(23.04 20.234)"><path class="k" d="M231.137,168.983s1.244-2.35.9-9.022c-.095-1.848,9.71,4.383,9.71,4.383s-.034.637-.055,1.5c-.011.358-.017.75-.017,1.153,0,.111,0,.222,0,.334,0,.182,0,.363.006.544.005.224.014.443.024.655.011.24.027.467.05.676a6.138,6.138,0,0,0,.363,1.31C242.569,171.549,234.808,171.609,231.137,168.983Z" transform="translate(-231.137 -159.618)"/></g><g transform="translate(30.128 33.842)"><path class="l" d="M251.71,196.945l1.807,2.427a2.191,2.191,0,0,1-2.939.371Z" transform="translate(-250.578 -196.945)"/></g><g transform="translate(31.09 36.304)"><path class="l" d="M254.71,203.761a90.338,90.338,0,0,1,5.208,36.707l-2.088,3.789-2.355-3.227s-.38-27.277-2.259-37.334Z" transform="translate(-253.216 -203.696)"/></g><g transform="translate(27.16 30.887)"><path class="k" d="M248.472,189.531l-1.934,2.264s-3.105-.6-4.017-2.224S248.472,189.531,248.472,189.531Z" transform="translate(-242.437 -188.84)"/></g><g transform="translate(31.26 29.598)"><path class="m" d="M256.061,185.3a9.328,9.328,0,0,1-2.378,4.244l2.351,3.158,1.272-6.552Z" transform="translate(-253.683 -185.303)"/></g><g transform="translate(22.634 27.523)"><path class="m" d="M231.02,179.611s4.489,5.078,7.629,6.32l-1.46,3.611-7.166-7.9Z" transform="translate(-230.024 -179.611)"/></g><g transform="translate(42.169 36.125)"><path class="j" d="M311.222,240.548s-5.959-5.78-9.868-6.741c-1.807-.445-4.187-2.939-6.448-5.872-.745-.965-1.477-1.979-2.172-2.982a.006.006,0,0,1,0,0c-2.775-4.006-4.949-7.846-4.949-7.846s-8.2-9.611-1.62-13.9a10.992,10.992,0,0,1,4.368.779c1.591.864,4.984,7.945,5.559,9.2s6.808,12.9,7.225,13.162a17.28,17.28,0,0,0,3.607,2.562c3.053,1.644,7.849,6.455,7.849,6.455Z" transform="translate(-283.605 -203.206)"/></g><g transform="translate(33.204 70.097)"><path class="n" d="M266.991,306.444a3.785,3.785,0,0,1-1.189-.226s-.623-.4-1.082-.656a3.47,3.47,0,0,0-.363-.184,6.927,6.927,0,0,1-2-.954c-.784-.6-3.339-2.987-3.339-2.987l1.651-2.538.762-2.513s5.956.592,6.751,1.065a2.356,2.356,0,0,1,.219.146,8.849,8.849,0,0,1,1.216,1.359c.111.1,1.148,1.215,1.09,1.665a1.485,1.485,0,0,1-.777,1.216,3.546,3.546,0,0,1-.84,1.761,2.2,2.2,0,0,1-1.133,1.583S267.668,306.309,266.991,306.444Z" transform="translate(-259.016 -296.385)"/></g><g transform="translate(22.275 3.164)"><path class="o" d="M238.46,113s10.765-2.6,8.5,11.035-4.85,14.737-11.408,12.019-6.1-11.436-6.493-15.7S235.016,113.2,238.46,113Z" transform="translate(-229.04 -112.8)"/></g><g transform="translate(23.324 11.775)"><path class="o" d="M234.632,137.443c-.16-1.2-2.537-1.6-2.7.2s1.15,4.938,2.045,4.615S234.853,139.094,234.632,137.443Z" transform="translate(-231.916 -136.417)"/></g><g transform="translate(21.416)"><path class="p" d="M228.188,121.8s.216-4.287,1.778-4.444,1.829,1.565,1.829,1.565l1.584.275s-.555-3.746,1-4.425,10.151,1.918,11.389.8.536-8.726-1.747-9.735-8.58-3.252-13.123-.079c0,0-3.583-.355-4.071,2.539S227.184,119.67,228.188,121.8Z" transform="translate(-226.682 -104.12)"/></g><g transform="translate(18.681 66.454)"><path class="j" d="M238.149,290.036l-4.445,7.642s-11.776-3.034-14.523-3.81l6.281-7.476S234.722,288.509,238.149,290.036Z" transform="translate(-219.181 -286.393)"/></g><g transform="translate(25.595 24.108)"><path class="q" d="M246.158,175.28h0a10.3,10.3,0,0,1-8.013-5.034,11.937,11.937,0,0,0,7.982,3.5c0,.111,0,.222,0,.334,0,.182,0,.363.006.544C246.139,174.849,246.147,175.068,246.158,175.28Z" transform="translate(-238.144 -170.246)"/></g></g><g transform="translate(204.89 184.481)"><path class="r" d="M473.331,368.636a1.757,1.757,0,0,0-3.068.494h0a1.756,1.756,0,0,0,1.5,2.313c.046,0,.092.007.139.007l.087,0h.031a1.757,1.757,0,0,0,1.308-2.811Zm-.954,2.3h0a1.327,1.327,0,0,1-.378.077h0l-.088,0a1.318,1.318,0,0,1-1.3-1.334,1.293,1.293,0,0,1,.034-.278,1.246,1.246,0,0,1,.035-.128,1.317,1.317,0,1,1,1.7,1.66Z" transform="translate(-470.171 -367.937)"/></g><g transform="translate(140.707 145.77)"><path class="o" d="M294.127,268.105c6.693,6.889,15.535,15.565,15.535,15.565l3.457-6.562s-7.854-9.207-13.178-15.351A11.168,11.168,0,0,0,294.127,268.105Z" transform="translate(-294.127 -261.758)"/></g><g transform="translate(135.751 161.381)"><g transform="translate(0 0)"><path class="o" d="M281.356,304.576a19.632,19.632,0,0,1,2.272,1.258c.47.388,2.377,1.815,2.839,2.151s-.7,1.291-4.105-.186S281.356,304.576,281.356,304.576Z" transform="translate(-280.533 -304.576)"/></g></g><g transform="translate(133.591 141.662)"><path class="s" d="M277.748,250.491l-3.14,29.2h41.335l3.14-29.2Z" transform="translate(-274.607 -250.491)"/></g><g transform="translate(135.626 139.992)"><path class="s" d="M321.849,275.43H280.19l3.175-29.52h41.659Zm-41.3-.323h41.01l3.106-28.875H283.655Z" transform="translate(-280.19 -245.91)"/></g><g transform="translate(130.301 168.233)"><rect class="s" width="6.904" height="2.627" transform="translate(6.904 2.627) rotate(180)"/></g><g transform="translate(63.886 170.799)"><g transform="translate(0 0)"><g class="t"><path class="u" d="M83.418,330.409v0Z" transform="translate(-83.418 -330.409)"/><rect class="u" width="1.728" height="1.779"/><rect class="v" width="1.728" height="1.779" transform="translate(1.728)"/><rect class="w" width="1.728" height="1.779" transform="translate(3.456)"/><rect class="x" width="1.728" height="1.779" transform="translate(5.185)"/><rect class="y" width="1.728" height="1.779" transform="translate(6.913)"/><rect class="z" width="1.728" height="1.779" transform="translate(8.641)"/><rect class="aa" width="1.728" height="1.779" transform="translate(10.369)"/><rect class="ab" width="1.728" height="1.779" transform="translate(12.098)"/><rect class="ac" width="1.729" height="1.779" transform="translate(13.826)"/><rect class="ad" width="1.728" height="1.779" transform="translate(15.554)"/><rect class="ae" width="1.728" height="1.779" transform="translate(17.283)"/><rect class="af" width="1.728" height="1.779" transform="translate(19.011)"/><rect class="ag" width="1.728" height="1.779" transform="translate(20.739)"/><rect class="ah" width="1.728" height="1.779" transform="translate(22.467)"/><rect class="ai" width="1.728" height="1.779" transform="translate(24.195)"/><rect class="aj" width="1.728" height="1.779" transform="translate(25.924)"/><rect class="ak" width="1.728" height="1.779" transform="translate(27.652)"/><rect class="al" width="1.728" height="1.779" transform="translate(29.38)"/><rect class="am" width="1.728" height="1.779" transform="translate(31.108)"/><rect class="an" width="1.729" height="1.779" transform="translate(32.836)"/><rect class="ao" width="1.728" height="1.779" transform="translate(34.565)"/><rect class="ap" width="1.728" height="1.779" transform="translate(36.293)"/><rect class="aq" width="1.728" height="1.779" transform="translate(38.021)"/><rect class="ar" width="1.728" height="1.779" transform="translate(39.75)"/><rect class="as" width="1.728" height="1.779" transform="translate(41.478)"/><rect class="at" width="1.728" height="1.779" transform="translate(43.206)"/><rect class="au" width="1.728" height="1.779" transform="translate(44.934)"/><rect class="av" width="1.728" height="1.779" transform="translate(46.663)"/><rect class="aw" width="1.728" height="1.779" transform="translate(48.391)"/><rect class="ax" width="1.728" height="1.779" transform="translate(50.119)"/><rect class="ay" width="1.729" height="1.779" transform="translate(51.847)"/><rect class="az" width="1.728" height="1.779" transform="translate(53.576)"/><rect class="ba" width="1.728" height="1.779" transform="translate(55.304)"/><rect class="bb" width="1.728" height="1.779" transform="translate(57.032)"/><rect class="bc" width="1.728" height="1.779" transform="translate(58.76)"/><rect class="bd" width="1.728" height="1.779" transform="translate(60.489)"/><rect class="be" width="1.728" height="1.779" transform="translate(62.217)"/><rect class="bf" width="1.728" height="1.779" transform="translate(63.945)"/><rect class="bg" width="1.728" height="1.779" transform="translate(65.673)"/><rect class="bh" width="1.728" height="1.779" transform="translate(67.401)"/><rect class="bi" width="1.729" height="1.779" transform="translate(69.13)"/><rect class="bj" width="1.728" height="1.779" transform="translate(70.858)"/><rect class="bk" width="1.728" height="1.779" transform="translate(72.586)"/><rect class="bl" width="1.728" height="1.779" transform="translate(74.315)"/><rect class="bm" width="1.728" height="1.779" transform="translate(76.043)"/><rect class="bn" width="1.728" height="1.779" transform="translate(77.771)"/><rect class="bo" width="1.728" height="1.779" transform="translate(79.499)"/><rect class="bp" width="1.728" height="1.779" transform="translate(81.228)"/><rect class="bq" width="1.728" height="1.779" transform="translate(82.956)"/><rect class="br" width="1.728" height="1.779" transform="translate(84.684)"/><rect class="bs" width="1.728" height="1.779" transform="translate(86.412)"/><rect class="bt" width="1.729" height="1.779" transform="translate(88.14)"/><rect class="bu" width="1.728" height="1.779" transform="translate(89.869)"/><rect class="bv" width="1.728" height="1.779" transform="translate(91.597)"/><rect class="bw" width="1.728" height="1.779" transform="translate(93.325)"/><rect class="bx" width="1.728" height="1.779" transform="translate(95.054)"/><rect class="by" width="1.728" height="1.779" transform="translate(96.782)"/><rect class="bz" width="1.728" height="1.779" transform="translate(98.51)"/><rect class="ca" width="1.728" height="1.779" transform="translate(100.238)"/><rect class="cb" width="1.728" height="1.779" transform="translate(101.967)"/><rect class="cc" width="1.728" height="1.779" transform="translate(103.695)"/><rect class="cd" width="1.728" height="1.779" transform="translate(105.423)"/><rect class="ce" width="1.729" height="1.779" transform="translate(107.151)"/><rect class="cf" width="1.728" height="1.779" transform="translate(108.88)"/><rect class="cg" width="1.728" height="1.779" transform="translate(110.608)"/><path class="cg" d="M391.539,332.188v0Z" transform="translate(-279.203 -330.409)"/></g></g></g><g transform="translate(147.54 208.758)"><rect class="s" width="97.33" height="1.779"/></g><g transform="translate(153.455 153.28)"><path class="ch" d="M329.17,284.868c-.332,1.625.426,3.153,1.694,3.412s2.564-.849,2.9-2.474-.426-3.154-1.694-3.413S329.5,283.242,329.17,284.868Z" transform="translate(-329.092 -282.356)"/></g><g transform="translate(230.787 143.424)"><g transform="translate(0 0)"><path class="ci" d="M542.781,256.118A10.222,10.222,0,0,0,544.138,258c.546.358.2.721-.056.721s-1.585.1-1.877-.236-.437-1.325-.708-1.584-.552-1.292.132-1.543C542.234,255.134,542.781,256.118,542.781,256.118Z" transform="translate(-541.202 -255.323)"/></g></g><g transform="translate(231.168 143.456)"><g transform="translate(0 0)"><path class="cj" d="M543.032,255.464s1.092,1.893,1.28,2.173-.354.279-.691.146a6.587,6.587,0,0,1-1.3-1.738.912.912,0,0,1-.026-.633Z" transform="translate(-542.246 -255.412)"/></g></g><g transform="translate(230.847 144.526)"><g transform="translate(0 0)"><path class="ci" d="M541.367,258.348l.252,1.941.134.006-.042-1.4Z" transform="translate(-541.367 -258.348)"/></g></g><g transform="translate(221.328 143.43)"><g transform="translate(0 0)"><path class="ci" d="M516.841,256.128a10.237,10.237,0,0,0,1.356,1.881c.547.358.2.721-.055.721s-1.585.1-1.877-.236-.437-1.325-.708-1.584-.561-1.319.132-1.543C516.3,255.169,516.841,256.128,516.841,256.128Z" transform="translate(-515.258 -255.339)"/></g></g><g transform="translate(221.712 143.456)"><g transform="translate(0 0)"><path class="cj" d="M517.156,255.468s1.035,1.889,1.222,2.169-.354.279-.69.146a6.564,6.564,0,0,1-1.3-1.738.912.912,0,0,1-.026-.633Z" transform="translate(-516.312 -255.412)"/></g></g><g transform="translate(221.392 144.526)"><g transform="translate(0 0)"><path class="ci" d="M515.434,258.348l.252,1.941.134.006-.042-1.4Z" transform="translate(-515.434 -258.348)"/></g></g><g transform="translate(218.681 128.163)"><g transform="translate(0 0)"><path class="cj" d="M508,214.811l8.628,3.932a1.659,1.659,0,0,1,1.071,1.383c.337,3.338,2.834,8.633,2.834,8.633.8.392.739.052.739.052-.5-1.621-1.119-8.3-1.339-10.985-.046-.569-.075-.958-.081-1.083,0-.085-.1-.2-.257-.325-1.184-.96-6.056-2.948-6.056-2.948A9.2,9.2,0,0,0,508,214.811Z" transform="translate(-507.997 -213.465)"/></g></g><g transform="translate(217.02 127.57)"><g transform="translate(0 0)"><path class="cj" d="M503.476,215.466c.267,2.332,3.6,2.065,3.6,2.065h4.035a25.194,25.194,0,0,0-1.469,4.348c-.434,2.111-1.458,5.846-1.458,5.846s.067.127.8.056c0,0,3.167-6.312,4.38-7.9a10.725,10.725,0,0,0,1.137-3.3c.043-.372.017-.66-.122-.776a10.052,10.052,0,0,0-.891-.609,20.172,20.172,0,0,0-4.681-2.3c-1.638-.368-4.228-1.058-4.228-1.058A4.459,4.459,0,0,0,503.476,215.466Z" transform="translate(-503.441 -211.839)"/></g></g><g transform="translate(219.41 108.847)"><path class="ck" d="M510.387,164.871a3.758,3.758,0,0,1-.31-2.368,2.367,2.367,0,0,1,3.086-1.879c1.659.559,3,1.847,2.005,3.337s.9,2.163.417,2.872a1.376,1.376,0,0,0-.1,1.614,1.881,1.881,0,0,1,.791,1.449c-.073.7-3.219-2.029-3.219-2.029S511.351,164.426,510.387,164.871Z" transform="translate(-509.997 -160.485)"/></g><g transform="translate(218.162 127.327)"><path class="cl" d="M513.269,211.733s-.25,1.214-6.694-.319C506.575,211.414,508.736,210.7,513.269,211.733Z" transform="translate(-506.575 -211.172)"/></g><g transform="translate(216.78 116.298)"><g transform="translate(0 0)"><path class="cm" d="M504.092,192.533l-.3.572,7.067.206a13.642,13.642,0,0,1-.186-4.22c.079-1.566.945-2.656.853-4.24.466.075.547.09,1.013.161-.714-2.034-.958-3.041-3.176-3.824a4.141,4.141,0,0,0-1.978-.241c-2.568.212-3.342.242-4.6,2.569,1.974.314,1.649,1.023,2.248,2.987a7.033,7.033,0,0,1,.44,3.037C505.316,190.536,504.092,191.626,504.092,192.533Z" transform="translate(-502.782 -180.922)"/></g></g><g transform="translate(221.34 114.268)"><g transform="translate(0 0)"><path class="o" d="M516.138,178.143c-1.051-.2-.827-.783-.827-.783s.049-.33.068-.747c.005-.107.008-.219.008-.334a4.557,4.557,0,0,0-.029-.517c-.086-.705,1.908-.285,1.908-.285a4.768,4.768,0,0,0,.16,1.855C517.7,177.761,517.19,178.341,516.138,178.143Z" transform="translate(-515.291 -175.354)"/></g></g><g transform="translate(220.183 116.08)"><g transform="translate(0)"><path class="o" d="M512.116,180.513a33.271,33.271,0,0,0,2.9,3.015s.9-.814.345-2.962A5.394,5.394,0,0,0,512.116,180.513Z" transform="translate(-512.116 -180.322)"/></g></g><g transform="translate(219.748 109.985)"><path class="o" d="M511.417,164a4.764,4.764,0,0,0-.009,4.13c1.092,2.009,3.237-.875,3.376-1.213s.874-2.252-.589-2.834S511.729,163.425,511.417,164Z" transform="translate(-510.925 -163.606)"/></g><g transform="translate(219.707 109.545)"><path class="ck" d="M511.711,163.987a4.773,4.773,0,0,0-.847,1.731,3.942,3.942,0,0,1,.551-2.726c.853-1.336,3.022-.063,3.313.47s1.142,1-.288,3.3C514.439,166.759,511.867,164.972,511.711,163.987Z" transform="translate(-510.812 -162.4)"/></g><g transform="translate(221.428 114.722)"><path class="q" d="M516.469,176.6a2.057,2.057,0,0,1-.938.806c.005-.107.008-.219.008-.334A1.785,1.785,0,0,0,516.469,176.6Z" transform="translate(-515.531 -176.598)"/></g><g transform="translate(209.055 125.926)"><path class="o" d="M483.779,207.4s-.524.233-.771.127a2.318,2.318,0,0,0-.753-.127c-.162,0-.669-.181-.66.017s.823.336.989.4-.5.428-.56.59.689,1.229,1.112.925.653-.911.739-.949a3.04,3.04,0,0,0,.318-.209Z" transform="translate(-481.595 -207.329)"/></g><g transform="translate(208.314 126.912)"><path class="o" d="M480.813,210.035a10.971,10.971,0,0,0-1.247,1.155c-.019.137.045.2.164.111s1.217-.948,1.217-.948-1.23,1.452-1.271,1.56c-.024.063.094.194.162.152s1.377-1.41,1.377-1.41-1.146,1.358-1.152,1.46a.134.134,0,0,0,.225.09c.093-.095,1.232-1.293,1.232-1.293a6.75,6.75,0,0,0-.719,1.135c.029.056.126.174.314-.1s.708-.876.708-.876Z" transform="translate(-479.563 -210.035)"/></g><g transform="translate(217.02 127.57)"><g transform="translate(0 0)"><path class="s" d="M510.686,217.532h-3.614s-3.329.267-3.6-2.065a4.458,4.458,0,0,1,1.094-3.627s1.759.468,3.294.839a11.9,11.9,0,0,1,2.777-.242s6.509,2.151,6.313,3.283C516.955,215.719,514.233,214.263,510.686,217.532Z" transform="translate(-503.442 -211.839)"/></g></g><g transform="translate(221.912 129.123)"><path class="cn" d="M516.86,216.2l6.89-.1-3.479,1.766Z" transform="translate(-516.86 -216.098)"/></g><g transform="translate(220.514 127.692)"><path class="cm" d="M516.563,212.825a5.9,5.9,0,0,1-3.45.058l-.089-.709,3.912.218Z" transform="translate(-513.024 -212.173)"/></g><g transform="translate(221.912 129.224)"><path class="co" d="M520.272,218.04l-3.411-1.321v-.344l3.681,1.328Z" transform="translate(-516.86 -216.375)"/></g><g transform="translate(210.637 116.118)"><g transform="translate(12.794 0.206)"><path class="cp" d="M521.625,193.34a.341.341,0,0,0,.474.338l.4-.171a.285.285,0,0,0,.17-.307c-.167-1.042-.524-5.1,0-5.8a2.521,2.521,0,0,0,.382-.68c.345.889.774,2.034.944,2.651l3.255,4.331,1.091.277a36.876,36.876,0,0,0-2.456-5.02c-.213-.572-.824-2.3-1.365-3.846-.342-.974-.655-1.872-.824-2.354a1.1,1.1,0,0,0-.476-.584c-.5-.3-1.344-.776-2.106-1.146l-.01,0-.073-.035h0c1.449,2.192.884,8.381.6,12.339Z" transform="translate(-521.027 -180.992)"/></g><g transform="translate(0 0)"><path class="cp" d="M493.949,180.821a5.4,5.4,0,0,0-2.226,2.316,17.054,17.054,0,0,1-1.939,3.234c-.978.886-3.716,4.019-3.847,3.943a8.554,8.554,0,0,0,.853.981c.051.022,4.5-3.834,4.928-4.421.405-.557,1.489-2.894,1.813-2.843h0a17.335,17.335,0,0,1,.793,2.157l.019.062a6.935,6.935,0,0,1,.094,2.88,9.8,9.8,0,0,1-1.066,2.753.433.433,0,0,0,.015.334h0a.238.238,0,0,0,.118.138l1.307.484.307.113a.669.669,0,0,0,.9-.54,39.8,39.8,0,0,1,.951-5.378,8.145,8.145,0,0,0-.5-6.609A24.338,24.338,0,0,0,493.949,180.821Z" transform="translate(-485.935 -180.428)"/></g></g><g transform="translate(225.323 125.294)"><path class="cq" d="M526.217,211.19l2.049-5.6,6.607.108-1.953,5.156Z" transform="translate(-526.217 -205.595)"/></g><g transform="translate(229.368 127.248)"><path class="cr" d="M537.43,211.476c-.2.4-.141.842.136.98s.664-.076.866-.479.141-.842-.136-.98S537.631,211.073,537.43,211.476Z" transform="translate(-537.31 -210.955)"/></g><g transform="translate(222.11 112.447)"><path class="ck" d="M517.815,170.4a1.188,1.188,0,0,1,.032,1.227c-.391.568.1,1.127.183,1.727s-1.632,2.2.277,3,2.517-.525,2.03-1.257a4.128,4.128,0,0,1-.874-2.368C519.422,171.692,519.079,170.067,517.815,170.4Z" transform="translate(-517.402 -170.358)"/></g><g transform="translate(213.19 109.758)"><path class="cs" d="M492.936,162.984h3.984v3.5l-.608-.608h-3.376Z" transform="translate(-492.936 -162.984)"/></g><g transform="translate(165.913 145.108)"><g transform="translate(19.299 8.957)"><path class="f" d="M421.813,284.512s-8.682,8.262-4.458,14.695,6.2.8,6.2.8,2.857.862-1.383-7.069C420.173,289.2,421.813,284.512,421.813,284.512Z" transform="translate(-416.196 -284.512)"/></g><g transform="translate(6.481)"><path class="g" d="M383.42,259.943s-6.632,7.794,2.235,18.588,7.493,16.5,7.493,16.5S405.491,276.264,383.42,259.943Z" transform="translate(-381.038 -259.943)"/></g><g transform="translate(0 9.469)"><path class="h" d="M383.852,308.274c4.126.834.788-11.164-5.4-14.822s-11.724-4.015-15.19-7.537C363.262,285.915,363.532,304.165,383.852,308.274Z" transform="translate(-363.262 -285.915)"/></g></g><g transform="translate(149.584 175.472)"><g transform="translate(9.951 5.734)"><path class="o" d="M345.769,359.948s.19-.469.221-.54a1.223,1.223,0,0,1,.434-.3,1.409,1.409,0,0,1,.607-.148.215.215,0,0,1,.133.123.419.419,0,0,1,.034.209.254.254,0,0,1,.09.228.221.221,0,0,1,.05.241.185.185,0,0,1,.051.2,1.671,1.671,0,0,0-.238.178,3.523,3.523,0,0,1-.862.425S345.855,360.57,345.769,359.948Z" transform="translate(-345.769 -358.956)"/></g><g transform="translate(10.59 6.471)"><path class="ct" d="M347.554,360.976a1.228,1.228,0,0,1-.03.325c-.034.072.515.232.515.232S347.862,360.978,347.554,360.976Z" transform="translate(-347.522 -360.976)"/></g><g transform="translate(0.371 30.532)"><path class="cu" d="M319.493,427.719l.24-.747,1.015.164-.152.674Z" transform="translate(-319.493 -426.972)"/></g><g transform="translate(8.691 30.803)"><path class="cv" d="M342.313,428.1l.057.41,1.111-.185-.059-.613Z" transform="translate(-342.313 -427.715)"/></g><g transform="translate(0.384 16.326)"><path class="cw" d="M325.429,391.363s-.163.892-.354,1.882c-.033.172-.067.348-.1.522-.186.954-.373,1.871-.443,2.061-.158.432-3.56,6.666-3.56,6.666s-1.391-.106-1.443-.285c0,0,2.852-6.77,2.836-7.016s.349-7.186.349-7.186A32.007,32.007,0,0,1,325.429,391.363Z" transform="translate(-319.529 -388.007)"/></g><g transform="translate(3.543 15.207)"><path class="cw" d="M332.489,385.66s1.331,6.817,1.445,7.339.618,7.5.618,7.5-.3.617-1.4.385c0,0-1.507-7.5-1.634-7.754-.493-.976-2.912-5.7-3.146-6.377a4.053,4.053,0,0,1-.166-1.462A4.555,4.555,0,0,1,332.489,385.66Z" transform="translate(-328.193 -384.937)"/></g><g transform="translate(6.609 6.499)"><path class="cx" d="M337.273,361.654s.584,1.455.731,1.413,1.825-2.014,1.825-2.014.768.958.665,1.068c-.143.153-2.125,3.448-2.4,3.388a11.638,11.638,0,0,1-1.491-2.073S336.535,361.917,337.273,361.654Z" transform="translate(-336.602 -361.053)"/></g><g transform="translate(3.2 4.32)"><path class="cy" d="M328.834,355.077a24.437,24.437,0,0,1,1.932,1.617c.417.459,1.571,2.363,1.488,2.935a41.633,41.633,0,0,0-.48,5.564c-.008,1.3.407,1.638.148,1.657-.3.023-4.107,1.4-4.671,1.571,0,0,.37-4.595.557-5.125S327.209,357.21,328.834,355.077Z" transform="translate(-327.251 -355.077)"/></g><g transform="translate(10.763 2.125)"><path class="cz" d="M351.767,349.057l.339,1.711.34,1.712a9.328,9.328,0,0,0-4.15-.171l-.15-.755-.151-.759A9.366,9.366,0,0,0,351.767,349.057Z" transform="translate(-347.995 -349.057)"/></g><g transform="translate(8.607 31.108)"><path class="am" d="M342.224,429.045s.838-.162.868-.187.209-.357.339-.3.132.461.258.529,1.128.745,1.251.868.881.051.968.265.094.72-1.037.6-2.422.065-2.666-.069S342.146,429.371,342.224,429.045Z" transform="translate(-342.083 -428.552)"/></g><g transform="translate(0 30.961)"><path class="am" d="M318.833,428.448s.854-.026.887-.047.264-.319.382-.241.056.476.17.564.995.915,1.1,1.057.862.191.913.416-.022.726-1.119.427-2.4-.323-2.621-.494S318.7,428.756,318.833,428.448Z" transform="translate(-318.475 -428.147)"/></g><g transform="translate(6.124 16.245)"><path class="k" d="M336.138,387.785s.1.415.266.505-.764.977-.764.977a7.8,7.8,0,0,1-.366-.905A5.719,5.719,0,0,1,336.138,387.785Z" transform="translate(-335.273 -387.785)"/></g><g transform="translate(2.932 5.574)"><path class="da" d="M327.7,359.058s-1.086,5.169-1.176,5.7c-.084.5,3.186,5.283,3.186,5.283l1.087-.645s-2.639-4.8-2.634-5.017,1.266-4.386,1.266-4.386a.983.983,0,1,0-1.729-.933Z" transform="translate(-326.518 -358.517)"/></g><g transform="translate(6.028 16.602)"><path class="db" d="M336.607,388.764a17.719,17.719,0,0,1,.332,2.3c-.022.538-2.029-.847-1.927-1.383Z" transform="translate(-335.008 -388.764)"/></g><g transform="translate(4.782 2.578)"><path class="o" d="M331.592,352.04s2.758,3.013,2.588,2.679c-.606-1.191-1.028-1.392-1.02-1.614.007-.17.073-.665.085-.831.021-.316.045-.572.045-.572s-1.369-1.923-1.309-1.268A3.988,3.988,0,0,1,331.592,352.04Z" transform="translate(-331.592 -350.297)"/></g><g transform="translate(4.653 0.233)"><path class="o" d="M333.993,344.408a6.985,6.985,0,0,1,.385,1.1,4.441,4.441,0,0,0-.015.608,8.634,8.634,0,0,1,.216.914c-.031.175-.4.083-.448.371s-.318.827-.451.837a3.223,3.223,0,0,1-1.732-.778c-.083-.274-.557-1.8-.7-2.089s2.3-1.879,2.527-1.42Z" transform="translate(-331.237 -343.866)"/></g><g transform="translate(4.053)"><path class="p" d="M329.615,344.662c-.173-.755.695-.848.695-.848a2.355,2.355,0,0,1,1.918-.58c1.353.078,1.146,1.843,1.146,1.843a5.017,5.017,0,0,0-1.343-.037,6.34,6.34,0,0,0-.005.941l-.51-.046s.057-.669-.188-.7-.327,1.416-.783,1.735a.5.5,0,0,0-.062-.2h0a5.751,5.751,0,0,1-.355-.739A8.333,8.333,0,0,1,329.615,344.662Z" transform="translate(-329.593 -343.227)"/></g><g transform="translate(5.357 1.878)"><path class="o" d="M333.94,348.669a.388.388,0,0,0-.638-.18c-.326.242.009,1.1.327,1.1S334.075,349.115,333.94,348.669Z" transform="translate(-333.168 -348.378)"/></g><g transform="translate(5.287 3.586)"><path class="dc" d="M332.979,353.063a.994.994,0,0,0,.14.334,2.921,2.921,0,0,0,1.012.53l-.053.534S332.92,354.015,332.979,353.063Z" transform="translate(-332.977 -353.063)"/></g><g transform="translate(10.189 5.286)"><g class="dd"><path class="u" d="M346.422,357.726v0Z" transform="translate(-346.422 -357.726)"/><rect class="u" width="0.021" height="2.048" transform="translate(0 0)"/><rect class="v" width="0.021" height="2.048" transform="translate(0.021 0)"/><rect class="w" width="0.021" height="2.048" transform="translate(0.042 0)"/><rect class="x" width="0.021" height="2.048" transform="translate(0.063 0)"/><rect class="y" width="0.021" height="2.048" transform="translate(0.085 0)"/><rect class="z" width="0.021" height="2.048" transform="translate(0.106 0)"/><rect class="aa" width="0.021" height="2.048" transform="translate(0.127 0)"/><rect class="ab" width="0.021" height="2.048" transform="translate(0.148 0)"/><rect class="ac" width="0.021" height="2.048" transform="translate(0.169 0)"/><rect class="ad" width="0.021" height="2.048" transform="translate(0.19 0)"/><rect class="ae" width="0.021" height="2.048" transform="translate(0.212 0)"/><rect class="af" width="0.021" height="2.048" transform="translate(0.233 0)"/><rect class="ag" width="0.021" height="2.048" transform="translate(0.254 0)"/><rect class="ah" width="0.021" height="2.048" transform="translate(0.275 0)"/><rect class="ai" width="0.021" height="2.048" transform="translate(0.297 0)"/><rect class="aj" width="0.021" height="2.048" transform="translate(0.318 0)"/><rect class="ak" width="0.021" height="2.048" transform="translate(0.339 0)"/><rect class="al" width="0.021" height="2.048" transform="translate(0.36 0)"/><rect class="am" width="0.021" height="2.048" transform="translate(0.381 0)"/><rect class="an" width="0.021" height="2.048" transform="translate(0.402 0)"/><rect class="ao" width="0.021" height="2.048" transform="translate(0.424 0)"/><rect class="ap" width="0.021" height="2.048" transform="translate(0.445 0)"/><rect class="aq" width="0.021" height="2.048" transform="translate(0.466 0)"/><rect class="ar" width="0.021" height="2.048" transform="translate(0.487 0)"/><rect class="as" width="0.021" height="2.048" transform="translate(0.508 0)"/><rect class="at" width="0.021" height="2.048" transform="translate(0.529 0)"/><rect class="au" width="0.021" height="2.048" transform="translate(0.55 0)"/><rect class="av" width="0.021" height="2.048" transform="translate(0.572 0)"/><rect class="aw" width="0.021" height="2.048" transform="translate(0.593 0)"/><rect class="ax" width="0.021" height="2.048" transform="translate(0.614 0)"/><rect class="ay" width="0.021" height="2.048" transform="translate(0.635 0)"/><rect class="az" width="0.021" height="2.048" transform="translate(0.656 0)"/><rect class="ba" width="0.021" height="2.048" transform="translate(0.677 0)"/><rect class="bb" width="0.021" height="2.048" transform="translate(0.699 0)"/><rect class="bc" width="0.021" height="2.048" transform="translate(0.72 0)"/><rect class="bd" width="0.021" height="2.048" transform="translate(0.741 0)"/><rect class="be" width="0.021" height="2.048" transform="translate(0.762 0)"/><rect class="bf" width="0.021" height="2.048" transform="translate(0.784 0)"/><rect class="bg" width="0.021" height="2.048" transform="translate(0.805 0)"/><rect class="bh" width="0.021" height="2.048" transform="translate(0.826 0)"/><rect class="bi" width="0.021" height="2.048" transform="translate(0.847 0)"/><rect class="bj" width="0.021" height="2.048" transform="translate(0.868 0)"/><rect class="bk" width="0.021" height="2.048" transform="translate(0.889 0)"/><rect class="bl" width="0.021" height="2.048" transform="translate(0.911 0)"/><rect class="bm" width="0.021" height="2.048" transform="translate(0.932 0)"/><rect class="bn" width="0.021" height="2.048" transform="translate(0.953 0)"/><rect class="bo" width="0.021" height="2.048" transform="translate(0.974 0)"/><rect class="bp" width="0.021" height="2.048" transform="translate(0.995 0)"/><rect class="bq" width="0.021" height="2.048" transform="translate(1.016 0)"/><rect class="br" width="0.021" height="2.048" transform="translate(1.038 0)"/><rect class="bs" width="0.021" height="2.048" transform="translate(1.059 0)"/><rect class="bt" width="0.021" height="2.048" transform="translate(1.08 0)"/><rect class="bu" width="0.021" height="2.048" transform="translate(1.101 0)"/><rect class="bv" width="0.021" height="2.048" transform="translate(1.123 0)"/><rect class="bw" width="0.021" height="2.048" transform="translate(1.144 0)"/><rect class="bx" width="0.021" height="2.048" transform="translate(1.165 0)"/><rect class="by" width="0.021" height="2.048" transform="translate(1.186 0)"/><rect class="bz" width="0.021" height="2.048" transform="translate(1.207 0)"/><rect class="ca" width="0.021" height="2.048" transform="translate(1.228 0)"/><rect class="cb" width="0.021" height="2.048" transform="translate(1.25 0)"/><rect class="cc" width="0.021" height="2.048" transform="translate(1.271 0)"/><rect class="cd" width="0.021" height="2.048" transform="translate(1.292 0)"/><rect class="ce" width="0.021" height="2.048" transform="translate(1.313 0)"/><rect class="cf" width="0.021" height="2.048" transform="translate(1.334 0)"/><rect class="cg" width="0.021" height="2.048" transform="translate(1.355 0)"/><path class="cg" d="M350.2,359.774v0Z" transform="translate(-348.821 -357.726)"/></g></g><g transform="translate(10.577 5.739)"><path class="de" d="M348.062,359s-.552.3-.514.4a.161.161,0,0,0,.109.107l-.171.227s-.028.215.214.182c0,0-.047.2.183.139,0,0,.027.144.139.136a2.1,2.1,0,0,0,.459-.218s.053-.077-.051-.2a.217.217,0,0,0-.05-.241.24.24,0,0,0-.09-.228s.051-.269-.168-.332C348.121,358.968,348.085,358.983,348.062,359Z" transform="translate(-347.485 -358.968)"/></g><g transform="translate(9.236 3.735)"><g class="df"><path class="u" d="M343.809,353.471v0Z" transform="translate(-343.809 -353.471)"/><rect class="u" width="0.035" height="1.959"/><rect class="v" width="0.035" height="1.959" transform="translate(0.035)"/><rect class="w" width="0.035" height="1.959" transform="translate(0.069)"/><rect class="x" width="0.035" height="1.959" transform="translate(0.104)"/><rect class="y" width="0.035" height="1.959" transform="translate(0.138)"/><rect class="z" width="0.035" height="1.959" transform="translate(0.173)"/><rect class="aa" width="0.035" height="1.959" transform="translate(0.208)"/><rect class="ab" width="0.035" height="1.959" transform="translate(0.242)"/><rect class="ac" width="0.035" height="1.959" transform="translate(0.277)"/><rect class="ad" width="0.035" height="1.959" transform="translate(0.311)"/><rect class="ae" width="0.035" height="1.959" transform="translate(0.346)"/><rect class="af" width="0.035" height="1.959" transform="translate(0.381)"/><rect class="ag" width="0.035" height="1.959" transform="translate(0.415)"/><rect class="ah" width="0.035" height="1.959" transform="translate(0.45)"/><rect class="ai" width="0.035" height="1.959" transform="translate(0.484)"/><rect class="aj" width="0.035" height="1.959" transform="translate(0.519)"/><rect class="ak" width="0.035" height="1.959" transform="translate(0.553)"/><rect class="al" width="0.035" height="1.959" transform="translate(0.588)"/><rect class="am" width="0.035" height="1.959" transform="translate(0.622)"/><rect class="an" width="0.035" height="1.959" transform="translate(0.657)"/><rect class="ao" width="0.035" height="1.959" transform="translate(0.692)"/><rect class="ap" width="0.035" height="1.959" transform="translate(0.726)"/><rect class="aq" width="0.035" height="1.959" transform="translate(0.761)"/><rect class="ar" width="0.035" height="1.959" transform="translate(0.795)"/><rect class="as" width="0.035" height="1.959" transform="translate(0.83)"/><rect class="at" width="0.035" height="1.959" transform="translate(0.864)"/><rect class="au" width="0.035" height="1.959" transform="translate(0.899)"/><rect class="av" width="0.035" height="1.959" transform="translate(0.934)"/><rect class="aw" width="0.035" height="1.959" transform="translate(0.968)"/><rect class="ax" width="0.035" height="1.959" transform="translate(1.003)"/><rect class="ay" width="0.035" height="1.959" transform="translate(1.037)"/><rect class="az" width="0.035" height="1.959" transform="translate(1.072)"/><rect class="ba" width="0.035" height="1.959" transform="translate(1.107)"/><rect class="bb" width="0.035" height="1.959" transform="translate(1.141)"/><rect class="bc" width="0.035" height="1.959" transform="translate(1.176)"/><rect class="bd" width="0.035" height="1.959" transform="translate(1.21)"/><rect class="be" width="0.035" height="1.959" transform="translate(1.245)"/><rect class="bf" width="0.035" height="1.959" transform="translate(1.279)"/><rect class="bg" width="0.035" height="1.959" transform="translate(1.314)"/><rect class="bh" width="0.035" height="1.959" transform="translate(1.349)"/><rect class="bi" width="0.035" height="1.959" transform="translate(1.383)"/><rect class="bj" width="0.035" height="1.959" transform="translate(1.418)"/><rect class="bk" width="0.035" height="1.959" transform="translate(1.452)"/><rect class="bl" width="0.035" height="1.959" transform="translate(1.487)"/><rect class="bm" width="0.035" height="1.959" transform="translate(1.521)"/><rect class="bn" width="0.035" height="1.959" transform="translate(1.556)"/><rect class="bo" width="0.035" height="1.959" transform="translate(1.59)"/><rect class="bp" width="0.035" height="1.959" transform="translate(1.625)"/><rect class="bq" width="0.035" height="1.959" transform="translate(1.66)"/><rect class="br" width="0.035" height="1.959" transform="translate(1.694)"/><rect class="bs" width="0.035" height="1.959" transform="translate(1.729)"/><rect class="bt" width="0.035" height="1.959" transform="translate(1.763)"/><rect class="bu" width="0.035" height="1.959" transform="translate(1.798)"/><rect class="bv" width="0.035" height="1.959" transform="translate(1.833)"/><rect class="bw" width="0.035" height="1.959" transform="translate(1.867)"/><rect class="bx" width="0.035" height="1.959" transform="translate(1.902)"/><rect class="by" width="0.035" height="1.959" transform="translate(1.936)"/><rect class="bz" width="0.035" height="1.959" transform="translate(1.971)"/><rect class="ca" width="0.035" height="1.959" transform="translate(2.006)"/><rect class="cb" width="0.035" height="1.959" transform="translate(2.04)"/><rect class="cc" width="0.035" height="1.959" transform="translate(2.075)"/><rect class="cd" width="0.035" height="1.959" transform="translate(2.109)"/><rect class="ce" width="0.035" height="1.959" transform="translate(2.144)"/><rect class="cf" width="0.035" height="1.959" transform="translate(2.178)"/><rect class="cg" width="0.035" height="1.959" transform="translate(2.213)"/><path class="cg" d="M349.974,355.43v0Z" transform="translate(-347.726 -353.471)"/></g></g><g transform="translate(10.151 6.176)"><path class="o" d="M346.355,360.166a2.156,2.156,0,0,1,.671.084c.054.022.1.053.1.112s-.085.132-.271.147a1.584,1.584,0,0,0-.421.119S346.239,360.588,346.355,360.166Z" transform="translate(-346.318 -360.166)"/></g><g transform="translate(4.725 19.161)"><path class="dg" d="M332.64,398.186c-.033.172-.067.348-.1.522l-1.105-2.925C331.58,396.078,332.64,398.186,332.64,398.186Z" transform="translate(-331.434 -395.783)"/></g></g><g transform="translate(74.937 129.979)"><path class="s" d="M6.4,0H15.7a6.4,6.4,0,0,1,6.4,6.4V25.81a6.4,6.4,0,0,1-6.4,6.4H6.4a6.4,6.4,0,0,1-6.4-6.4V6.4A6.4,6.4,0,0,1,6.4,0Z"/></g><g transform="translate(77.285 132.797)"><g transform="translate(16.26 17.982)"><rect class="dh" width="1.145" height="8.715"/></g><g transform="translate(13.997 18.959)"><rect class="dh" width="1.145" height="7.738"/></g><g transform="translate(11.539 20.229)"><rect class="dh" width="1.145" height="6.468"/></g><g transform="translate(9.015 21.831)"><rect class="dh" width="1.145" height="4.866"/></g><g transform="translate(1.934)"><path class="dh" d="M125.723,246.974l-.248-.088,2.159-6.058,4.683-1.238L134,232.94l3.614-1.595.809-5.17.26.041-.832,5.312-3.628,1.6-1.689,6.674-4.7,1.243Z" transform="translate(-125.475 -226.175)"/></g><g transform="translate(8.182 12.819)"><path class="s" d="M143.859,261.593a.7.7,0,1,1-.989-.1A.7.7,0,0,1,143.859,261.593Z" transform="translate(-142.612 -261.335)"/></g><g transform="translate(8.051 12.687)"><path class="dh" d="M143.614,262.454a.835.835,0,1,1,.118-1.174A.835.835,0,0,1,143.614,262.454Zm-.889-1.088a.571.571,0,1,0,.8.081A.571.571,0,0,0,142.725,261.366Z" transform="translate(-142.252 -260.974)"/></g><g transform="translate(9.887 6.197)"><path class="s" d="M148.536,243.43a.7.7,0,1,1-.989-.1A.7.7,0,0,1,148.536,243.43Z" transform="translate(-147.29 -243.173)"/></g><g transform="translate(9.756 6.065)"><path class="dh" d="M148.291,244.292a.834.834,0,1,1,.118-1.174A.835.835,0,0,1,148.291,244.292ZM147.4,243.2a.571.571,0,1,0,.8.081A.571.571,0,0,0,147.4,243.2Z" transform="translate(-146.928 -242.812)"/></g><g transform="translate(13.445 4.556)"><path class="s" d="M158.295,238.931a.7.7,0,1,1-.989-.1A.7.7,0,0,1,158.295,238.931Z" transform="translate(-157.048 -238.673)"/></g><g transform="translate(13.314 4.425)"><path class="dh" d="M158.05,239.793a.834.834,0,1,1,.118-1.174A.836.836,0,0,1,158.05,239.793Zm-.89-1.088a.571.571,0,1,0,.8.081A.572.572,0,0,0,157.16,238.7Z" transform="translate(-156.688 -238.313)"/></g><g transform="translate(3.517 14.119)"><path class="s" d="M131.065,265.159a.7.7,0,1,1-.989-.1A.7.7,0,0,1,131.065,265.159Z" transform="translate(-129.818 -264.902)"/></g><g transform="translate(3.386 13.988)"><path class="dh" d="M130.82,266.021a.834.834,0,1,1,.118-1.174A.835.835,0,0,1,130.82,266.021Zm-.889-1.088a.571.571,0,1,0,.8.081A.571.571,0,0,0,129.931,264.934Z" transform="translate(-129.458 -264.541)"/></g><g transform="translate(0 6.324)"><path class="di" d="M.729,0H6.307a.728.728,0,0,1,.728.728v0a.729.729,0,0,1-.729.729H.729A.729.729,0,0,1,0,.729v0A.729.729,0,0,1,.729,0Z"/></g><g transform="translate(0 3.776)"><path class="di" d="M.729,0H6.307a.728.728,0,0,1,.728.728v0a.729.729,0,0,1-.729.729H.729A.729.729,0,0,1,0,.729v0A.729.729,0,0,1,.729,0Z"/></g></g><g transform="translate(64.403 139.268)"><g transform="translate(6.76 2.484)"><path class="p" d="M104.452,250.736s-.2,2.012.168,2.516c0,0-.984-.214-1.212-.553S104.452,250.736,104.452,250.736Z" transform="translate(-103.38 -250.736)"/></g><g transform="translate(13.848 8.609)"><path class="o" d="M122.948,267.835s.357-.24.413-.275a1.038,1.038,0,0,1,.449,0,1.194,1.194,0,0,1,.5.186.183.183,0,0,1,.035.15.358.358,0,0,1-.075.164.216.216,0,0,1-.046.2.189.189,0,0,1-.08.194.158.158,0,0,1-.058.164,1.4,1.4,0,0,0-.252.012,3.01,3.01,0,0,1-.81-.112S122.62,268.43,122.948,267.835Z" transform="translate(-122.82 -267.536)"/></g><g transform="translate(14.413 9.074)"><path class="ct" d="M124.542,268.813a1.061,1.061,0,0,1-.164.225c-.057.037.275.394.275.394S124.766,268.95,124.542,268.813Z" transform="translate(-124.371 -268.813)"/></g><g transform="translate(13.485 8.85)"><path class="o" d="M122.105,268.29a1.455,1.455,0,0,0,.363-.089c.139-.064-.026.7-.026.7a1.428,1.428,0,0,0-.556-.238C121.667,268.655,122.105,268.29,122.105,268.29Z" transform="translate(-121.825 -268.198)"/></g><g transform="translate(3.539 29.252)"><path class="dj" d="M95.464,324.181a12.664,12.664,0,0,0,.947,1.244s.49.254.5.457c.029.384.049.61-.6.628s-1.047,0-1.165-.392a2.954,2.954,0,0,0-.322-.7l-.049,1.016H94.64s-.065-1.018-.074-1.163-.1-.7.2-.951A.851.851,0,0,1,95.464,324.181Z" transform="translate(-94.545 -324.159)"/></g><g transform="translate(3.696 28.986)"><path class="dj" d="M96.778,325.013a1.625,1.625,0,0,1-.763-.006c-.415-.1-.812-1.1-.933-1.179l-.107-.4h.808a1.44,1.44,0,0,0,.137.549A9.636,9.636,0,0,0,96.778,325.013Z" transform="translate(-94.975 -323.428)"/></g><g transform="translate(7.933 28.685)"><path class="dj" d="M107.68,322.808a2.6,2.6,0,0,0,.3.508c.146.19.6.972.8,1.026s.817.163.871.508.082.59-.526.617-1.007.063-1.3-.363a3.161,3.161,0,0,0-.753-.735v1.113h-.236a10.023,10.023,0,0,0-.172-1.24,1.4,1.4,0,0,1,.336-1.434C107.567,322.345,107.68,322.808,107.68,322.808Z" transform="translate(-106.597 -322.603)"/></g><g transform="translate(8.212 28.768)"><path class="dj" d="M109.27,324.488s-.545.136-.754,0-.918-1.335-1.154-1.407c0,0,.228-.462.8-.126C108.167,322.954,109.116,324.288,109.27,324.488Z" transform="translate(-107.363 -322.832)"/></g><g transform="translate(2.864 11.901)"><path class="dk" d="M93.98,276.888A5.694,5.694,0,0,0,93,279.071a52.011,52.011,0,0,0,.114,5.745,23.376,23.376,0,0,0-.408,3.509c.109,1.1.68,5.706.68,5.706l1.33-.024s-.267-4.966-.2-5.429.285-2.432.312-2.623,1.516-5.23,1.516-6.084S95.831,275.5,93.98,276.888Z" transform="translate(-92.694 -276.566)"/></g><g transform="translate(5.367 12.363)"><path class="dk" d="M102.2,278.085s1.261,4.814,1.411,5.482.449,1.538.436,1.661-.159,2.178-.159,2.178l-.359,7H102.2s-.427-4.452-.5-5.35.49-2.287.354-2.668-2.192-4.778-2.192-4.778S98.309,276.687,102.2,278.085Z" transform="translate(-99.558 -277.835)"/></g><g transform="translate(7.172 5.407)"><path class="cp" d="M104.954,258.755a1.529,1.529,0,0,1,.886.456,5.859,5.859,0,0,1,.839,1.277c.1.218,1.5,2.236,1.572,2.282s.684-.115,1.174-.156a10.754,10.754,0,0,0,2-.474l.178.9s-2.942.949-3.621.782c-.83-.2-2.741-2.657-2.741-2.657S103.811,259.5,104.954,258.755Z" transform="translate(-104.51 -258.755)"/></g><g transform="translate(3.234 5.019)"><path class="cp" d="M97.21,257.725a6.818,6.818,0,0,0,.88.354,4.862,4.862,0,0,1,1.262,1.607,2.671,2.671,0,0,1-.318,1.778c-.318.735-.018.98-.163,1.716a20.553,20.553,0,0,0-.118,3.147c.027.408-4.2,1.179-5.045.435a8.625,8.625,0,0,1,1.248-2.591,2.782,2.782,0,0,0,.031-1.427c-.1-.254-1.226-2.151-1.226-2.151s-.082-1.924.409-2.305a6.176,6.176,0,0,1,1.8-.522A3.562,3.562,0,0,1,97.21,257.725Z" transform="translate(-93.708 -257.691)"/></g><g transform="translate(6.926 4.821)"><path class="dl" d="M103.854,258.836l.4-.465-.345-1.224A8.1,8.1,0,0,0,103.854,258.836Z" transform="translate(-103.835 -257.147)"/></g><g transform="translate(1.731 5.38)"><path class="o" d="M92.31,258.707a1.137,1.137,0,0,0-1.3.672,4.87,4.87,0,0,0-.463,1.806c-.109.409-.544,3.14-.571,3.258a9.1,9.1,0,0,0-.39,1.933c.054.427.445,3.658.427,3.767s.753-.1.753-.1-.032-3.3,0-3.571a8.859,8.859,0,0,1,.258-2.069c.2-.367.708-2.614.817-2.845S93,259,92.31,258.707Z" transform="translate(-89.585 -258.679)"/></g><g transform="translate(5.494 3.405)"><path class="o" d="M101.461,254.157a15.551,15.551,0,0,0-.1,1.589s-.679.68-1.451-.794a2.024,2.024,0,0,0,.081-1.436C99.742,252.687,101.461,254.157,101.461,254.157Z" transform="translate(-99.906 -253.263)"/></g><g transform="translate(6.215 5.863)"><path class="o" d="M102.615,260.031v.622l-.73-.647Z" transform="translate(-101.885 -260.006)"/></g><g transform="translate(5.118 5.019)"><path class="dl" d="M100.7,259.182l-.324-.4-1.093-1.089-.409.182Z" transform="translate(-98.876 -257.691)"/></g><g transform="translate(6.997 4.821)"><path class="dm" d="M104.375,258.371l.5.138-.845-1.362Z" transform="translate(-104.03 -257.147)"/></g><g transform="translate(5.102 4.943)"><path class="dm" d="M100.349,258.648l-.457.732-1.062-1.666.455-.232Z" transform="translate(-98.83 -257.483)"/></g><g transform="translate(8.608 7.315)"><path class="dl" d="M108.79,265.737a5.55,5.55,0,0,0-.011-1.748s-.1.533-.33,1.364Z" transform="translate(-108.449 -263.989)"/></g><g transform="translate(3.873 7.342)"><path class="dl" d="M95.461,265.64s.452-1.495.478-1.577a12.707,12.707,0,0,1-.2,2.054S95.569,265.826,95.461,265.64Z" transform="translate(-95.461 -264.063)"/></g><g transform="translate(13.592 1.428)"><path class="dn" d="M129.23,247.841l-7.11,8.959.248.191Z" transform="translate(-122.119 -247.841)"/></g><g transform="translate(14.487 8.791)"><path class="de" d="M125.369,268.05s-.533-.05-.552.035a.135.135,0,0,0,.026.127l-.229.079s-.122.138.063.231c0,0-.127.117.063.185,0,0-.05.114.033.161a1.8,1.8,0,0,0,.427.065s.074-.029.058-.164a.186.186,0,0,0,.08-.194.2.2,0,0,0,.046-.2s.164-.166.04-.314A.479.479,0,0,0,125.369,268.05Z" transform="translate(-124.574 -268.036)"/></g><g transform="translate(14.217 8.633)"><path class="o" d="M124.021,267.6a1.832,1.832,0,0,1,.432.38c.027.042.047.087.019.128s-.123.053-.262-.025a1.346,1.346,0,0,0-.354-.118S123.737,267.844,124.021,267.6Z" transform="translate(-123.831 -267.602)"/></g><g transform="translate(5.102 0.219)"><path class="o" d="M100.226,244.524a1.47,1.47,0,0,1,1.424,1.393,4.314,4.314,0,0,1-.49,2.876,1.445,1.445,0,0,1-1.687-.691c-.284-.74-.7-1.279-.636-1.915S98.747,244.5,100.226,244.524Z" transform="translate(-98.831 -244.524)"/></g><g transform="translate(4.328)"><path class="p" d="M100.353,246.075s.322-1.777-1.275-2.095a1.806,1.806,0,0,0-2.309,1.424,12.4,12.4,0,0,0,.028,2.482,8.3,8.3,0,0,0,1.7,1.175,10.208,10.208,0,0,1-.332-3.347,6.815,6.815,0,0,0,2.159-.009S100.351,246,100.353,246.075Z" transform="translate(-96.708 -243.924)"/></g><g transform="translate(6.035 4.195)"><path class="q" d="M102.377,255.8a2.031,2.031,0,0,1-.986-.372,2.339,2.339,0,0,0,.957.686S102.381,255.865,102.377,255.8Z" transform="translate(-101.391 -255.429)"/></g><g transform="translate(0 13.74)"><rect class="do" width="4.708" height="3.482" transform="matrix(0.987, -0.161, 0.161, 0.987, 0, 0.759)"/></g><g transform="translate(1.849 16.155)"><path class="o" d="M90.061,289.955a.631.631,0,0,1-.079-.186s0-.124-.01-.211a.558.558,0,0,0-.009-.067,1.176,1.176,0,0,1-.054-.366,7.788,7.788,0,0,1,.234-.862l.411.015.387-.042a7.857,7.857,0,0,1,.476,1.046.355.355,0,0,1,0,.044,1.484,1.484,0,0,1-.075.295c0,.025-.061.272-.129.306a.249.249,0,0,1-.241.005.594.594,0,0,1-.322.048.367.367,0,0,1-.324-.01S90.143,290.036,90.061,289.955Z" transform="translate(-89.908 -288.236)"/></g><g transform="translate(1.735 5.38)"><path class="cp" d="M92.317,258.707a1.137,1.137,0,0,0-1.3.672,4.149,4.149,0,0,0-.533,1.738c-.059.419-.635,2.9-.662,3.022s-.216,1.672-.23,2.237c-.01.43.091,3.249.073,3.358s1.3-.191,1.3-.191-.146-2.6-.119-2.872a15.071,15.071,0,0,1,.218-2.029c.156-.468.774-2.829.882-3.061S93.011,259,92.317,258.707Z" transform="translate(-89.596 -258.679)"/></g></g><g transform="translate(97.724 137.701)"><g transform="translate(12.531 30.613)"><path class="dp" d="M211.773,324.389l.086-.8a6.161,6.161,0,0,0-1.257.086s.1.67.108.77S211.773,324.389,211.773,324.389Z" transform="translate(-210.602 -323.591)"/></g><g transform="translate(10.802 31.339)"><path class="dq" d="M206.848,327.323c1.339-.011,1.984.08,2.128-.137s-.207-1.6-.207-1.6a2.811,2.811,0,0,1-1.083.046,2.85,2.85,0,0,1-.656.58c-.323.176-.829.246-1.02.428C205.873,326.769,205.509,327.335,206.848,327.323Z" transform="translate(-205.86 -325.584)"/></g><g transform="translate(4.995 30.613)"><path class="dp" d="M191.1,324.389l.085-.8a6.152,6.152,0,0,0-1.256.086s.1.67.108.77S191.1,324.389,191.1,324.389Z" transform="translate(-189.931 -323.591)"/></g><g transform="translate(2.647 31.339)"><path class="dq" d="M185.1,327.323c1.338-.035,1.984.08,2.128-.137s-.207-1.6-.207-1.6a2.545,2.545,0,0,1-1.082.046,2.856,2.856,0,0,1-.656.58c-.322.176-1.508.32-1.7.5C183.443,326.844,183.214,327.373,185.1,327.323Z" transform="translate(-183.492 -325.584)"/></g><g transform="translate(9.247 13.398)"><path class="i" d="M204.505,276.375a9.911,9.911,0,0,1,.486,3.1,31.734,31.734,0,0,0,.438,4.5c.166,1.669.843,5.62.868,6.512s-.105,3.744-.105,3.744l-1.356.032s-1.139-6.907-1.434-7.612-1.758-5.73-1.807-6.293S204.505,276.375,204.505,276.375Z" transform="translate(-201.594 -276.375)"/></g><g transform="translate(4.811 13.206)"><path class="i" d="M191.074,276.336s-.745,3.928-.843,4.8-.164,4.245-.213,4.793-.328,7.174-.59,7.988h1.734a39.218,39.218,0,0,0,1.33-7.1,17.794,17.794,0,0,1,1.692-6.458c.664-1.5,2.182-1.539,2.59-4.329C196.774,276.04,191.626,275.452,191.074,276.336Z" transform="translate(-189.428 -275.848)"/></g><g transform="translate(7.546 0.146)"><path class="o" d="M199.364,240.15s-1.366-.51-2,.53-.569,3.123.119,3.379a1.769,1.769,0,0,0,2.076-.529,5.208,5.208,0,0,0,.656-2.221A1.37,1.37,0,0,0,199.364,240.15Z" transform="translate(-196.93 -240.025)"/></g><g transform="translate(8.293 2.856)"><path class="o" d="M199.017,248.718a1.143,1.143,0,0,1-.036.534c-.091.176,1.719.181,1.719.181a11.884,11.884,0,0,1,.425-1.771C201.4,246.852,199.017,248.718,199.017,248.718Z" transform="translate(-198.978 -247.459)"/></g><g transform="translate(7.705 0)"><path class="dr" d="M200.1,242.685s-.125.206-.635.126-1.132-.758-1.345-.833-.214-.2-.214-.2l-.134.194-.226.015s.206-.607-.105-.855.323-1.964,1.959-1.393c0,0,1.172.232,1.243.944A3.236,3.236,0,0,1,200.1,242.685Z" transform="translate(-197.365 -239.625)"/></g><g transform="translate(8.189 4.133)"><path class="ds" d="M198.693,251.457s.006-.337.159-.369a10.867,10.867,0,0,1,1.874-.106v.393S200.364,251.6,198.693,251.457Z" transform="translate(-198.693 -250.961)"/></g><g transform="translate(8.24 1.634)"><path class="o" d="M198.871,244.367c.029-.12.333-.462.45-.1s-.176.86-.34.817S198.8,244.671,198.871,244.367Z" transform="translate(-198.831 -244.107)"/></g><g transform="translate(2.5 4.546)"><path class="bs" d="M188.777,252.177s-.841.3-1.815.716a2.044,2.044,0,0,0-1.242,1.656c-.064.657-.763,4.142-.9,4.437s-1.681,5.033-1.736,5.131a3.918,3.918,0,0,0,1.353.6c.088-.044,1.5-4.322,1.643-4.639,0,0,.814-2.565.836-2.947,0,0,.024,1.09.067,1.4s-.724,6.245-.7,6.409a20.169,20.169,0,0,0,4.876.219,16.984,16.984,0,0,0,2.507-.472s-1.092-4.687-1.058-5.207c.073-1.133.451-3.265.451-3.265l1.131,2.132-1.448,3.726.331,1.132s2.691-4.066,2.778-4.437a2,2,0,0,0-.274-1.15c-.142-.306-1.075-2.633-1.293-2.962s-.588-1.64-1.48-2.005a13.932,13.932,0,0,0-2-.556Z" transform="translate(-183.087 -252.094)"/></g><g transform="translate(0 12.669)"><rect class="dt" width="6.544" height="4.565" transform="translate(1.134) rotate(14.381)"/></g><g transform="translate(1.69 17.536)"><path class="du" d="M181.126,287.725s-.181.292-.248.376.163.136.261.051S181.126,287.725,181.126,287.725Z" transform="translate(-180.867 -287.725)"/></g><g transform="translate(1.935 16.471)"><path class="dv" d="M182.873,286.867a.711.711,0,0,0,.131-.183s.032-.134.06-.227a.636.636,0,0,1,.025-.071,1.285,1.285,0,0,0,.145-.385c.028-.18.107-.992.107-.992l-.491-.124-.394-.083a8.071,8.071,0,0,0-.9,1.016.386.386,0,0,0-.011.048,1.64,1.64,0,0,0,.012.338c0,.028,0,.31.068.363a.275.275,0,0,0,.261.062.659.659,0,0,0,.339.128.41.41,0,0,0,.355.066S182.765,286.936,182.873,286.867Z" transform="translate(-181.538 -284.802)"/></g><g transform="translate(2.501 12.892)"><path class="bs" d="M185.777,275.5s-1.125,3.407-1.332,3.765a3.708,3.708,0,0,1-1.353-.6l1.235-3.677Z" transform="translate(-183.092 -274.987)"/></g></g><g transform="translate(175.682 139.084)"><g transform="translate(2.463)"><path class="dw" d="M423.073,260.755s4.176-12.247-3.793-16.044-14.736,1.691-16.014,4.661-.94,8.37.15,12.136.932,9.5-1.437,11.415-5.3,5.1-5.16,11.583c.09,4.021,15.823-10.286,15.823-10.286Z" transform="translate(-396.814 -243.419)"/></g><g transform="translate(0 31.575)"><path class="da" d="M407.582,330.354s-6.55,1.452-9.151,2.971-8.373,8.509-8.373,11.514,25.25,5.813,25.25,5.813l4.786,17.473s12.763-3.114,14.282-5.7-4.847-21.095-5.937-24.841c-1.112-3.822-5.686-6.487-11-7.232A36.52,36.52,0,0,0,407.582,330.354Z" transform="translate(-390.058 -330.023)"/></g><g transform="translate(15.348 31.38)"><path class="o" d="M443.731,329.955s-.147,7.961-6.461,8.2-5-7.636-5-7.636A21.939,21.939,0,0,1,443.731,329.955Z" transform="translate(-432.156 -329.49)"/></g><g transform="translate(23.326 7.821)"><path class="dw" d="M460.305,264.87s2.233,12.8-4.127,22.055C449.591,296.5,460.305,264.87,460.305,264.87Z" transform="translate(-454.037 -264.87)"/></g><g transform="translate(16.213 23.603)"><path class="o" d="M443.883,310.771a18.964,18.964,0,0,0,.294,6.177c.733,2.368-9.654,2.434-9.649.486.007-2.212,1.063-4.06.068-7.852S443.883,310.771,443.883,310.771Z" transform="translate(-434.528 -308.158)"/></g><g transform="translate(17.51 26.702)"><path class="q" d="M438.086,316.658a5.608,5.608,0,0,0,7.474.357s-.346,2.184-3.363,2.466S438.086,316.658,438.086,316.658Z" transform="translate(-438.086 -316.658)"/></g><g transform="translate(12.402 3.215)"><path class="o" d="M433.29,252.4s8.289,2.453,7.1,13.956-6.6,10.91-7.1,11-6.936.507-8.965-13.448S433.29,252.4,433.29,252.4Z" transform="translate(-424.075 -252.237)"/></g><g transform="translate(11.8 2.507)"><path class="dw" d="M430.1,256.3s4.5,7.164,9.244,8.827c0,0,2.588-12.022-8.1-14.541s-9.016,12.142-8.218,16.052A31.778,31.778,0,0,1,430.1,256.3Z" transform="translate(-422.425 -250.295)"/></g><g transform="translate(13.437 1.992)"><path class="ai" d="M426.913,254.322s2.371-4.592,6.374-4.8,6.384,3.268,6.384,3.268a6.807,6.807,0,0,0-6.379-3.91C428.476,248.883,426.913,254.322,426.913,254.322Z" transform="translate(-426.913 -248.883)"/></g></g><g transform="translate(168.421 182.625)"><path class="dx" d="M407.137,362.846l2.811,26.133h-37l-2.811-26.133Z" transform="translate(-370.141 -362.846)"/></g><g transform="translate(167.171 181.405)"><path class="dx" d="M406.88,385.956H369.559L366.714,359.5h37.321Zm-37.031-.322h36.672l-2.776-25.811H367.073Z" transform="translate(-366.714 -359.501)"/></g><g transform="translate(185.951 192.757)"><path class="dy" d="M422.892,393.148c.332,1.626-.426,3.154-1.694,3.413s-2.564-.849-2.9-2.474.426-3.154,1.694-3.413S422.559,391.522,422.892,393.148Z" transform="translate(-418.223 -390.636)"/></g><g transform="translate(204.731 206.131)"><rect class="dx" width="6.904" height="2.627" transform="translate(6.904 2.627) rotate(180)"/></g><g transform="translate(177.573 118.91)"><path class="e" d="M400.937,199.468a5.692,5.692,0,1,1,5.692-5.692A5.7,5.7,0,0,1,400.937,199.468Zm0-11.061a5.369,5.369,0,1,0,5.369,5.369A5.375,5.375,0,0,0,400.937,188.408Z" transform="translate(-395.245 -188.085)"/></g><g transform="translate(52.679 156.966)"><path class="dz" d="M82.89,323.66l0-.484c.965-.008,1.938-.035,2.891-.08l.023.484C84.84,323.625,83.862,323.652,82.89,323.66Zm-2.912-.03c-.956-.027-1.935-.071-2.908-.133l.03-.483c.968.061,1.941.106,2.892.133Zm8.726-.245-.042-.482c.955-.083,1.922-.187,2.875-.308l.061.48C90.64,323.2,89.665,323.3,88.7,323.385Zm-14.537-.12c-.992-.1-1.965-.224-2.891-.375l.078-.478c.916.149,1.879.275,2.861.372Zm20.311-.615-.08-.478c.933-.156,1.889-.335,2.844-.532l.1.474C96.38,322.313,95.417,322.492,94.479,322.65Zm-26.064-.336c-.975-.237-1.919-.51-2.806-.816l.158-.457c.872.3,1.8.569,2.762.8Zm31.765-.834-.113-.471c.888-.213,1.806-.446,2.807-.712l.125.468C101.994,321.033,101.072,321.267,100.18,321.481ZM62.9,320.4a21.164,21.164,0,0,1-2.554-1.438l.267-.4a20.736,20.736,0,0,0,2.5,1.405Zm42.9-.4-.131-.466,1.2-.339q.807-.228,1.591-.448l.131.466-1.59.448Zm25.224-.4c-.892-.422-1.786-.794-2.657-1.105l.163-.456c.886.317,1.795.695,2.7,1.124Zm-19.634-1.138-.12-.469c1.042-.266,1.969-.483,2.836-.662l.1.474C113.345,317.974,112.425,318.189,111.39,318.453Zm14.221-.78a22.754,22.754,0,0,0-2.831-.469l.048-.482a23.381,23.381,0,0,1,2.892.479Zm-8.566-.357-.061-.48a27.855,27.855,0,0,1,2.916-.225l.011.484A27.3,27.3,0,0,0,117.046,317.316Zm-59.013-.169a16.246,16.246,0,0,1-1.965-2.186l.388-.289a15.794,15.794,0,0,0,1.907,2.12Zm-3.5-4.7a17.143,17.143,0,0,1-1.058-2.742l.464-.135a16.641,16.641,0,0,0,1.028,2.665Zm-1.659-5.618a23.068,23.068,0,0,1-.2-2.926l.484,0a22.638,22.638,0,0,0,.193,2.865Zm.429-5.8-.481-.049c.1-.947.244-1.921.435-2.893l.475.094C53.545,299.139,53.4,300.1,53.305,301.03Zm1.109-5.651-.465-.135a26.024,26.024,0,0,1,.95-2.778l.445.19A25.945,25.945,0,0,0,54.414,295.379Z" transform="translate(-52.679 -292.467)"/></g><g transform="translate(96.977 79.219)"><path class="dz" d="M285.358,101.158c-.008-.007-.816-.724-2.264-1.8l.289-.388c1.466,1.09,2.288,1.82,2.3,1.828Zm-4.631-3.467c-.8-.531-1.618-1.053-2.445-1.55l.249-.415c.833.5,1.662,1.027,2.464,1.562Zm-4.959-2.984c-.85-.459-1.718-.9-2.578-1.312l.209-.437c.868.416,1.742.861,2.6,1.323Zm-5.218-2.5c-.894-.374-1.8-.726-2.7-1.045l.163-.456c.9.323,1.818.678,2.72,1.055Zm-36.767-.592-.011-.483a20.456,20.456,0,0,0,2.854-.268l.078.478A20.971,20.971,0,0,1,233.783,91.618Zm-2.928-.15a21.6,21.6,0,0,1-2.877-.566l.125-.467a21.181,21.181,0,0,0,2.812.553Zm8.706-.781-.136-.464c.31-.091.627-.191.941-.3.6-.2,1.221-.393,1.833-.565l.131.466c-.6.17-1.213.358-1.811.559C240.2,90.492,239.877,90.593,239.561,90.686Zm25.545-.417c-.929-.274-1.869-.521-2.794-.735l.109-.471c.934.216,1.884.466,2.822.742ZM225.2,89.985c-.852-.332-1.726-.716-2.671-1.175l.211-.436c.934.453,1.8.832,2.636,1.16Zm19.934-.834-.1-.474c.949-.191,1.919-.347,2.883-.466l.059.48C247.028,88.808,246.07,88.962,245.133,89.151Zm14.346-.178c-.954-.157-1.916-.284-2.862-.375l.047-.482c.956.093,1.93.221,2.894.38Zm-85.035-.461-.263-.406c.829-.537,1.659-1.057,2.467-1.544l.25.415C176.094,87.46,175.269,87.977,174.444,88.512Zm76.409-.063-.022-.483c.962-.045,1.942-.055,2.919-.03l-.012.484C252.772,88.394,251.8,88.4,250.853,88.448Zm-30.913-.977c-.82-.446-1.634-.9-2.538-1.414l.238-.421c.9.509,1.714.966,2.531,1.41ZM179.4,85.528l-.234-.424c.867-.479,1.735-.934,2.579-1.354l.215.433C181.125,84.6,180.264,85.052,179.4,85.528Zm35.47-.885c-.948-.52-1.785-.96-2.561-1.348l.216-.433c.781.39,1.624.834,2.577,1.356Zm-30.29-1.68-.193-.444c.911-.4,1.822-.761,2.707-1.084l.166.454C186.387,82.21,185.485,82.571,184.583,82.963Zm25.11-.881c-.927-.392-1.809-.723-2.7-1.014l.151-.46c.9.294,1.794.63,2.734,1.028ZM190,80.992l-.134-.465c.954-.275,1.908-.51,2.836-.7l.1.474C191.888,80.489,190.946,80.72,190,80.992Zm14.218-.68a26.32,26.32,0,0,0-2.835-.461l.051-.481a26.905,26.905,0,0,1,2.887.47Zm-8.574-.449-.051-.481a28.335,28.335,0,0,1,2.921-.163V79.7A27.881,27.881,0,0,0,195.648,79.863Z" transform="translate(-174.181 -79.219)"/></g><g transform="translate(135.7 184.763)"><g transform="translate(0)"><path class="ea" d="M292.556,373.347l-12.162-3.536,3.646-1.1Z" transform="translate(-280.393 -368.711)"/></g><g transform="translate(4.818 0.07)"><path class="eb" d="M300.953,373.468l-4.546-4.566-2.8.568Z" transform="translate(-293.609 -368.902)"/></g><g transform="translate(2.797 1.912)"><path class="ec" d="M288.065,373.956l.1,1.407,9.267,1.316Z" transform="translate(-288.065 -373.956)"/></g></g><g transform="translate(86.648 90.318)"><g transform="translate(0 0)"><path class="ea" d="M145.852,115.9l10.721-6-3.685-.243Z" transform="translate(-145.852 -109.661)"/></g><g transform="translate(0 0.859)"><path class="eb" d="M145.852,117.4l3.3-5.306,2.768-.074Z" transform="translate(-145.852 -112.017)"/></g><g transform="translate(0 1.622)"><path class="ec" d="M154.107,114.11l.215,1.351-8.47,3.266Z" transform="translate(-145.852 -114.11)"/></g></g></g></g></svg>